<svg xmlns="http://www.w3.org/2000/svg" viewBox="0 0 126.69 175.88"><defs><style>.cls-1{fill:none;stroke:#333333;stroke-linecap:round;stroke-linejoin:round;}</style></defs><title>bubbles</title><g id="Livello_2" data-name="Livello 2"><g id="Menù"><rect class="cls-1" x="7.08" y="56.64" width="42.23" height="102.39"/><rect class="cls-1" x="18.75" y="68.42" width="30.56" height="78.83"/><rect class="cls-1" x="0.5" y="159.04" width="55.76" height="16.34" rx="2.64" ry="2.64"/><path class="cls-1" d="M71.66,149.15h50.49a2.64,2.64,0,0,1,2.64,2.64v16.38a0,0,0,0,1,0,0H69a0,0,0,0,1,0,0V151.78A2.64,2.64,0,0,1,71.66,149.15Z"/><rect class="cls-1" x="0.5" y="51.3" width="55.76" height="5.34" rx="1.65" ry="1.65"/><path class="cls-1" d="M119.07,175.11H74.73a2.9,2.9,0,0,1-2.5-1.44L69,168.17h55.76l-3.2,5.5A2.91,2.91,0,0,1,119.07,175.11Z"/><path class="cls-1" d="M94.34,138.07h5.12a2.62,2.62,0,0,1,2.62,2.62v8.5a0,0,0,0,1,0,0H91.71a0,0,0,0,1,0,0v-8.5A2.62,2.62,0,0,1,94.34,138.07Z"/><path class="cls-1" d="M96.9,81.61c-.55,0-1.1,0-1.64-.08v56.54h3.46V81.52C98.12,81.58,97.51,81.61,96.9,81.61Z"/><circle class="cls-1" cx="96.9" cy="61.26" r="20.35"/><circle class="cls-1" cx="96.9" cy="61.26" r="17.14"/><circle class="cls-1" cx="108.65" cy="18.05" r="17.55"/><circle class="cls-1" cx="71.84" cy="33.68" r="11.94"/><path class="cls-1" d="M97.85,16A10.87,10.87,0,0,1,105.3,7"/><path class="cls-1" d="M65.39,32.79A5.56,5.56,0,0,1,71,27.23"/></g></g></svg>