<svg xmlns="http://www.w3.org/2000/svg" viewBox="0 0 180.3 158.86"><defs><style>.cls-1{fill:none;stroke:#333;stroke-linecap:round;stroke-linejoin:round;}</style></defs><title>umbrellaslim</title><g id="Livello_2" data-name="Livello 2"><g id="Menù"><path class="cls-1" d="M22.21,30.12a90.59,90.59,0,1,1,128,127.94l0-2.51a31.36,31.36,0,0,0-30.79-31.35A31.35,31.35,0,0,0,88.05,93.41,32.36,32.36,0,0,0,56.11,61.47,31.35,31.35,0,0,0,24.75,30.12Z"/><path class="cls-1" d="M140.12,41.34,30.56,150.9C12,169.48-11.25,149.74,7.33,131.16"/><line class="cls-1" x1="162.38" y1="19.08" x2="145.15" y2="36.31"/><path class="cls-1" d="M89.11,34.46c-18.16,11.39-33,27-33,27"/><path class="cls-1" d="M153.84,27.62s-29.21-10.28-52.44.17c-1,.44-1.93.9-2.89,1.37"/><path class="cls-1" d="M153.9,27.68s10.28,29.21-.17,52.44S120,124.19,120,124.19"/></g></g></svg>