<?xml version="1.0" encoding="UTF-8"?>
<svg width="60px" height="60px" viewBox="0 0 60 60" version="1.1" xmlns="http://www.w3.org/2000/svg" xmlns:xlink="http://www.w3.org/1999/xlink">
    <!-- Generator: Sketch 49.3 (51167) - http://www.bohemiancoding.com/sketch -->
    <title>Icone / Categorie / Colore / Animali</title>
    <desc>Created with Sketch.</desc>
    <defs></defs>
    <g id="Icone-/-Categorie-/-Colore-/-Animali" stroke="none" stroke-width="1" fill="none" fill-rule="evenodd">
        <g>
            <g>
                <path d="M53.165,39.6064 L45.632,39.6064 C45.079,39.6064 44.632,40.0534 44.632,40.6064 C44.632,41.1594 45.079,41.6064 45.632,41.6064 L48.401,41.6064 L48.884,43.1934 L34.131,43.1934 L34.131,41.5664 C34.131,41.5624 34.133,41.5594 34.133,41.5554 C34.13,41.3944 33.939,26.1404 40.954,17.0354 L42.172,21.2144 C42.192,21.2854 42.23,21.3454 42.265,21.4084 C42.279,21.4354 42.286,21.4644 42.304,21.4914 C42.372,21.5924 42.458,21.6774 42.557,21.7484 C42.562,21.7524 42.566,21.7594 42.572,21.7634 C42.594,21.7784 42.618,21.7794 42.641,21.7924 C42.719,21.8364 42.8,21.8724 42.889,21.8944 C42.932,21.9054 42.973,21.9114 43.018,21.9164 C43.056,21.9194 43.092,21.9344 43.132,21.9344 L48.758,21.9344 C51.553,21.9344 53.915,24.0254 54.254,26.7994 L54.443,28.3454 L54.545,31.4304 C54.606,33.3514 55.681,35.0604 57.356,35.9704 L57.355,35.9804 C57.057,38.0474 55.255,39.6064 53.165,39.6064 Z M16.365,40.8684 L16.507,40.3484 L26.024,40.3484 C26.699,41.4494 27.584,42.4144 28.63,43.1884 L19.221,43.1884 C18.632,42.0654 17.608,41.2184 16.365,40.8684 Z M15.108,47.9944 C13.642,47.9944 12.448,46.8004 12.448,45.3344 C12.448,43.8674 13.642,42.6734 15.108,42.6734 C16.575,42.6734 17.769,43.8674 17.769,45.3344 C17.769,46.8004 16.575,47.9944 15.108,47.9944 Z M13.444,30.7444 C9.767,30.7444 6.329,28.9474 4.194,26.0024 C6.404,24.9234 7.922,22.7694 8.191,20.2994 L12.978,20.2994 C13.334,20.2994 13.663,20.1104 13.843,19.8034 L17.05,14.3014 C17.878,12.8844 19.412,12.0034 21.054,12.0034 L27.33,12.0034 L24.606,33.7764 C24.407,35.3724 24.596,36.9244 25.087,38.3484 L17.054,38.3484 L17.096,38.1954 L17.42,37.0074 L17.42,37.0044 L18.582,32.7444 L21.868,32.7444 C22.421,32.7444 22.868,32.2964 22.868,31.7444 C22.868,31.1914 22.421,30.7444 21.868,30.7444 L17.818,30.7444 L13.444,30.7444 Z M6.198,20.2994 C5.934,22.0544 4.782,23.5644 3.164,24.2884 C3.128,24.2134 3.087,24.1414 3.052,24.0674 C2.993,23.9404 2.939,23.8104 2.886,23.6814 C2.788,23.4474 2.698,23.2104 2.617,22.9694 C2.573,22.8394 2.528,22.7094 2.489,22.5774 C2.411,22.3194 2.347,22.0564 2.287,21.7944 C2.262,21.6784 2.23,21.5644 2.209,21.4484 C2.136,21.0694 2.078,20.6864 2.044,20.2994 L6.198,20.2994 Z M40.279,14.7214 C32.986,23.0184 32.206,36.7244 32.137,40.5794 C32.136,40.5884 32.131,40.5964 32.131,40.6064 L32.131,41.0444 C32.13,41.1984 32.13,41.3204 32.131,41.4124 L32.131,42.7664 C28.479,41.5774 26.102,37.9554 26.591,34.0244 L29.346,12.0034 L33.936,12.0034 C33.942,12.0034 33.948,12.0004 33.955,12.0004 L36.597,12.0004 C38.302,12.0004 39.776,13.1244 40.279,14.7214 Z M46.473,17.7704 L47.303,19.9344 L45.013,19.9344 L46.473,17.7704 Z M57.865,32.4534 L57.674,33.7794 C57.128,33.2944 56.756,32.6434 56.611,31.9194 C56.996,32.1564 57.418,32.3374 57.865,32.4534 Z M59.756,30.9424 C59.566,30.7224 59.29,30.5964 59,30.5964 C57.707,30.5964 56.615,29.6294 56.458,28.3454 L56.238,26.5564 C55.806,23.0154 52.949,20.2914 49.458,19.9664 L47.652,15.2604 C47.519,14.9134 47.203,14.6684 46.832,14.6264 C46.455,14.5794 46.099,14.7514 45.89,15.0594 L43.495,18.6084 L42.352,14.6874 C42.344,14.6574 42.326,14.6314 42.315,14.6034 C41.717,11.9274 39.351,10.0004 36.597,10.0004 L28.463,10.0004 C28.455,10.0004 28.449,10.0034 28.441,10.0034 L21.054,10.0034 C18.704,10.0034 16.509,11.2634 15.322,13.2934 L12.404,18.2994 L7.25,18.2994 L1,18.2994 C0.447,18.2994 0,18.7474 0,19.2994 C0,19.5944 0.01,19.8894 0.029,20.1834 C0.051,20.5034 0.085,20.8234 0.129,21.1394 C0.367,22.8584 0.934,24.5204 1.807,26.0214 C4.196,30.1684 8.656,32.7444 13.444,32.7444 L16.509,32.7444 L15.26,37.3244 L14.323,40.7524 C12.128,41.1284 10.448,43.0334 10.448,45.3344 C10.448,47.9034 12.539,49.9944 15.108,49.9944 C17.678,49.9944 19.769,47.9034 19.769,45.3344 C19.769,45.2844 19.756,45.2384 19.754,45.1884 L33.106,45.1884 C33.115,45.1884 33.122,45.1934 33.131,45.1934 L50.233,45.1934 C50.55,45.1934 50.849,45.0434 51.037,44.7894 C51.226,44.5344 51.282,44.2054 51.19,43.9024 L50.492,41.6064 L53.165,41.6064 C56.242,41.6064 58.894,39.3104 59.334,36.2664 L59.989,31.7404 C60.031,31.4534 59.946,31.1614 59.756,30.9424 Z" id="Fill-1" fill="#5073D3"></path>
                <path d="M53.1426,30.3545 L40.6196,29.4505 C40.0776,29.4025 39.5896,29.8245 39.5496,30.3755 C39.5096,30.9255 39.9236,31.4055 40.4746,31.4445 L52.9976,32.3485 C53.0226,32.3505 53.0466,32.3515 53.0716,32.3515 C53.5906,32.3515 54.0296,31.9505 54.0676,31.4235 C54.1076,30.8735 53.6936,30.3935 53.1426,30.3545" id="Fill-4" fill="#5073D3"></path>
                <path d="M52.998,32.8515 L40.475,33.7555 C39.924,33.7945 39.51,34.2745 39.55,34.8255 C39.588,35.3515 40.026,35.7525 40.546,35.7525 C40.57,35.7525 40.595,35.7515 40.619,35.7495 L53.143,34.8455 C53.693,34.8065 54.107,34.3275 54.067,33.7765 C54.027,33.2255 53.546,32.8075 52.998,32.8515" id="Fill-6" fill="#5073D3"></path>
                <rect id="Rectangle" fill-opacity="0" fill="#FFFFFF" x="0" y="0" width="60" height="60"></rect>
            </g>
        </g>
    </g>
</svg>