<?xml version="1.0" encoding="UTF-8"?>
<svg width="108px" height="79px" viewBox="0 0 108 79" version="1.1" xmlns="http://www.w3.org/2000/svg" xmlns:xlink="http://www.w3.org/1999/xlink">
    <!-- Generator: Sketch 54.1 (76490) - https://sketchapp.com -->
    <title>Product Icon/Fido/Big</title>
    <desc>Created with Sketch.</desc>
    <g id="Preventivatore-auto" stroke="none" stroke-width="1" fill="none" fill-rule="evenodd">
        <g id="Protezione-Auto---desktop-New" transform="translate(-912.000000, -233.000000)">
            <g id="Group-7" transform="translate(600.000000, 150.000000)">
                <g id="Product-Icon/Motor" transform="translate(312.000000, 80.000000)">
                    <g id="Group-27" transform="translate(0.000000, 11.000000)" fill="#FFD505" opacity="0.35">
                        <circle id="Oval" cx="30" cy="30" r="30"></circle>
                    </g>
                    <g id="Group" transform="translate(15.000000, 3.000000)" stroke="#4A4A4A">
                        <path d="M82.2689447,75.9916696 C79.783032,78.4770499 75.8237158,78.6805225 73.0967399,76.463037 C70.369764,74.2455514 69.7563886,70.3237192 71.6757865,67.377668 L71.6757865,67.3225678 L71.8225315,67.1113503 L72.2719382,66.560348 C72.3544823,66.4593309 72.446198,66.3674972 72.528742,66.2848469 L72.7855459,66.0368959 L73.0515213,65.8073116 C75.5746504,63.7775145 79.168007,63.7775145 81.691136,65.8073116 L81.9204252,66.0001624 L82.177229,66.2481134 L82.2506015,66.312397 L82.4798907,66.560348 L83.4704198,67.9929538 L83.5896501,68.2317215 C84.8034556,70.8417451 84.2775935,73.9315048 82.2689447,75.9916696 M5.58548498,70.8765322 L5.58548498,71.3448841 L2.83401531,71.3448841 C1.26883273,71.3448841 1.55039182e-06,70.0744198 1.55039182e-06,68.5072226 L1.55039182e-06,61.2982767 C-0.000780042105,60.2054846 0.293967857,59.1328714 0.852957148,58.1942974 L1.2931923,57.4779945 C2.60386793,55.2973987 4.7713421,53.7705463 7.26388148,53.2720107 L19.9022988,50.801684 C22.5449875,50.1234142 25.0348964,48.9485343 27.2395513,47.3395533 L36.4111168,41.186695 C39.4720909,39.1155445 43.080643,38.0060053 46.7749859,38.0000654 L63.4580637,38.0000654 C68.375671,37.9869855 73.0956952,39.9369147 76.5734025,43.418254 C79.361216,46.2097878 82.9028529,48.1249248 86.7630118,48.9282764 L88.74407,49.3507115 C90.6415274,49.7538929 91.9989331,51.4308195 91.9999757,53.3730278 L91.9999757,66.6980986 C92.0036147,67.3945164 91.5975209,68.0278305 90.9635888,68.3143718 L86.084316,70.4816473 L85.9926003,69.8388113 C85.8470832,68.8745693 85.5368316,67.9426164 85.0754437,67.0838001 C85.0112428,66.955233 84.9470418,66.8358491 84.8736693,66.7164653 C84.7357997,66.4713455 84.5826366,66.2351707 84.415091,66.0093458 L84.1674588,65.6971112 L84.0849147,65.5869107 L83.9014833,65.3665098 L83.8189393,65.2838595 C83.7272236,65.1828424 83.6355079,65.0818253 83.5346207,64.9899916 C80.6446976,62.0951659 76.1229059,61.6274533 72.7030018,63.8696204 C72.2145404,64.1901261 71.7597556,64.5593451 71.3456101,64.9716249 C71.2447229,65.072642 71.1438356,65.1736591 71.05212,65.2838595 L70.7586299,65.6236442 C69.5489552,67.0895028 68.867287,68.9204072 68.8234296,70.821432 L68.8234296,71.2897839 L22.9656017,71.2897839 L22.9656017,70.821432 C22.9182149,68.9310201 22.2401794,67.1108996 21.039573,65.6511943 L20.7919407,65.3481431 L20.4801075,65.0083584 C19.2684575,63.7824266 17.7201114,62.9449239 16.0318982,62.6023153 C14.768775,62.3523507 13.466196,62.383703 12.2165269,62.694149 C10.6788568,63.0649074 9.27302393,63.8529329 8.15352334,64.9716249 L7.85086168,65.2838595 L7.56654314,65.6144608 C6.35847401,67.085505 5.67432454,68.9176373 5.62217124,70.821432 M19.1043726,75.9916696 C16.6144346,78.4548033 12.6718335,78.6460818 9.95573006,76.4355235 C7.23962661,74.2249652 6.62106608,70.3214888 8.52038596,67.377668 L8.52038596,67.377668 C8.57108269,67.2951612 8.62619233,67.215456 8.68547414,67.1389004 L9.13488085,66.5787148 C9.21575383,66.48549 9.30147381,66.3965943 9.39168469,66.312397 C10.6767429,65.0242647 12.4205072,64.30048 14.2388571,64.30048 C16.0572069,64.30048 17.8009713,65.0242647 19.0860295,66.312397 C19.1785371,66.397524 19.26439,66.4896276 19.3428333,66.5878981 L19.79224,67.1389004 C19.8494085,67.2117581 19.9015036,67.2884672 19.9481567,67.3684846 C21.7405902,70.0932348 21.3808577,73.702853 19.0860295,76.0192198" id="Shape"></path>
                        <path d="M75.1749121,74.8542683 C76.755899,76.3819106 79.244101,76.3819106 80.8250879,74.8542683 C81.5770385,74.0994285 82,73.0719086 82,72 C82,70.9280914 81.5770385,69.9005715 80.8250879,69.1457317 C79.244101,67.6180894 76.755899,67.6180894 75.1749121,69.1457317 C74.4229615,69.9005715 74,70.9280914 74,72 C74,73.0719086 74.4229615,74.0994285 75.1749121,74.8542683" id="Shape"></path>
                        <path d="M15,68.0002409 C13.3837656,67.9823681 11.9192843,68.9602528 11.3010208,70.4701767 C10.6827574,71.9801007 11.0350394,73.7184313 12.1908127,74.8608427 C13.7623425,76.3797191 16.2376575,76.3797191 17.8091873,74.8608427 C18.9649606,73.7184313 19.3172426,71.9801007 18.6989792,70.4701767 C18.0807157,68.9602528 16.6162344,67.9823681 15,68.0002409" id="Shape"></path>
                        <path d="M90,25.5 C85.2581612,25.5 81.4141414,21.6944204 81.4141414,17 C81.4150766,21.6288247 77.6746454,25.4074236 73,25.5 L73,25.5 C77.6746454,25.5925764 81.4150766,29.3711753 81.4141414,34 C81.4141414,29.3055796 85.2581612,25.5 90,25.5 L90,25.5 Z" id="Shape"></path>
                        <path d="M71,13.9952687 C63.2080885,13.9952845 56.8870703,7.73396319 56.8712972,0 C56.8620919,7.63738954 50.6934182,13.8611943 43,13.9952687 L43,13.9952687 C50.6843564,14.1447496 56.8346387,20.3713119 56.8331631,28 C56.8382108,24.2774082 58.3342329,20.7095541 60.991582,18.082612 C63.648931,15.45567 67.2495339,13.9852178 71,13.9952687 Z" id="Shape"></path>
                        <path d="M66.2648367,52.99132 L27.9312133,52.9045198 C27.9312133,52.9045198 25.5034171,52.2795585 28.4879635,50.3005143 C31.4725099,48.3214701 37.6150167,44.3633818 40.0975752,43.0700591 C42.4433573,41.6446273 45.1928374,40.9386581 47.9742221,41.0476148 C51.4607564,41.125735 62.9790976,40.9087345 66.8672222,41.0476148 C70.7553469,41.1864951 76.3228494,46.368466 78.1665141,47.4187482 C80.0101789,48.4690305 82.0181306,48.9203914 81.9998765,50.8213154 C81.9816224,52.7222394 80.7859784,53 79.7546214,53 L72.8910774,53" id="Shape"></path>
                        <path d="M59,41 L59,53" id="Shape"></path>
                        <path d="M53,58 L59,58" id="Shape"></path>
                    </g>
                </g>
            </g>
        </g>
    </g>
</svg>