<?xml version="1.0" encoding="UTF-8"?>
<svg width="60px" height="60px" viewBox="0 0 60 60" version="1.1" xmlns="http://www.w3.org/2000/svg" xmlns:xlink="http://www.w3.org/1999/xlink">
    <!-- Generator: Sketch 49.3 (51167) - http://www.bohemiancoding.com/sketch -->
    <title>Icone / Categorie / Colore / Bicicletta</title>
    <desc>Created with Sketch.</desc>
    <defs></defs>
    <g id="Icone-/-Categorie-/-Colore-/-Bicicletta" stroke="none" stroke-width="1" fill="none" fill-rule="evenodd">
        <g>
            <g>
                <path d="M47.7861,44 C42.8241,44 38.7861,39.963 38.7861,35 C38.7861,32.037 40.2321,29.412 42.4481,27.771 L46.9201,35.501 C47.1061,35.821 47.4421,36 47.7871,36 C47.9571,36 48.1291,35.957 48.2871,35.865 C48.7651,35.589 48.9281,34.978 48.6521,34.499 L44.1751,26.762 C45.2821,26.275 46.5011,26 47.7861,26 C52.7481,26 56.7861,30.038 56.7861,35 C56.7861,39.963 52.7481,44 47.7861,44 Z M32.0731,30.428 C31.5161,30.213 30.9171,30.083 30.2861,30.083 C30.2581,30.083 30.2331,30.091 30.2051,30.091 C30.1961,30.092 30.1881,30.088 30.1791,30.089 L29.4651,30.166 C29.4021,30.177 29.3351,30.174 29.2731,30.187 L28.9771,30.219 L22.8751,20.68 L37.2281,20.68 L32.0731,30.428 Z M31.1521,34.583 C30.8761,34.104 30.2651,33.94 29.7861,34.217 C29.3081,34.493 29.1441,35.104 29.4201,35.583 L30.8311,38.028 C30.6631,38.059 30.4911,38.078 30.3131,38.08 L29.6331,38.007 C28.2921,37.707 27.2861,36.513 27.2861,35.083 C27.2861,33.653 28.2921,32.459 29.6331,32.159 L30.3131,32.086 C31.9551,32.102 33.2861,33.438 33.2861,35.083 C33.2861,35.824 33.0061,36.495 32.5581,37.02 L31.1521,34.583 Z M22.7931,32.898 L25.9981,32.553 C25.5571,33.298 25.2861,34.156 25.2861,35.083 C25.2861,36.01 25.5571,36.868 25.9981,37.613 L22.7631,37.264 C22.9171,36.533 23.0001,35.776 23.0001,35 C23.0001,34.281 22.9261,33.58 22.7931,32.898 Z M12.0001,44 C7.0371,44 3.0001,39.963 3.0001,35 C3.0001,30.038 7.0371,26 12.0001,26 C13.2401,26 14.4221,26.252 15.4971,26.708 L12.3801,32.013 L11.6791,32.089 C11.6701,32.09 11.6641,32.095 11.6561,32.096 C10.0631,32.166 8.7861,33.474 8.7861,35.083 C8.7861,36.692 10.0631,38 11.6561,38.07 C11.6641,38.071 11.6701,38.076 11.6791,38.077 L20.0581,38.983 C18.5851,41.95 15.5311,44 12.0001,44 Z M14.8581,31.745 L17.2371,27.695 C18.4761,28.586 19.4771,29.782 20.1341,31.175 L14.8581,31.745 Z M11.7861,34.083 C12.3371,34.083 12.7861,34.531 12.7861,35.083 C12.7861,35.635 12.3371,36.083 11.7861,36.083 C11.2351,36.083 10.7861,35.635 10.7861,35.083 C10.7861,34.531 11.2351,34.083 11.7861,34.083 Z M21.0001,35 C21.0001,35.705 20.9101,36.389 20.7561,37.047 L14.4851,36.369 C14.6721,35.978 14.7861,35.545 14.7861,35.083 C14.7861,34.621 14.6721,34.188 14.4851,33.797 L20.7981,33.114 C20.9281,33.723 21.0001,34.354 21.0001,35 Z M20.9481,21.379 L26.7571,30.459 L22.2171,30.95 C21.4111,28.922 20.0231,27.19 18.2551,25.963 L20.9481,21.379 Z M47.7861,24 C46.1371,24 44.5781,24.375 43.1721,25.028 L37.9491,16 L43.2861,16 C44.1131,16 44.7861,16.673 44.7861,17.5 C44.7861,18.327 44.1131,19 43.2861,19 L42.7861,19 C42.2341,19 41.7861,19.448 41.7861,20 C41.7861,20.552 42.2341,21 42.7861,21 L43.2861,21 C45.2161,21 46.7861,19.43 46.7861,17.5 C46.7861,15.57 45.2161,14 43.2861,14 L32.7861,14 C32.2341,14 31.7861,14.448 31.7861,15 C31.7861,15.552 32.2341,16 32.7861,16 L35.6371,16 L37.1881,18.68 L21.5951,18.68 L19.8811,16 L23.5631,16 C24.1151,16 24.5631,15.552 24.5631,15 C24.5631,14.448 24.1151,14 23.5631,14 L15.5631,14 C15.0111,14 14.5631,14.448 14.5631,15 C14.5631,15.552 15.0111,16 15.5631,16 L17.5071,16 L19.7391,19.489 L16.5131,24.979 C15.1341,24.355 13.6091,24 12.0001,24 C5.9341,24 1.0001,28.935 1.0001,35 C1.0001,41.065 5.9341,46 12.0001,46 C16.5741,46 20.5021,43.191 22.1591,39.21 L29.2731,39.979 C29.3351,39.992 29.4021,39.989 29.4651,40 L30.1791,40.077 C30.2141,40.081 30.2491,40.083 30.2851,40.083 L30.2861,40.083 L30.2871,40.083 L30.2891,40.083 C30.8401,40.082 31.3611,39.972 31.8571,39.806 L32.5881,41.071 L31.7141,41.071 C31.1621,41.071 30.7141,41.519 30.7141,42.071 C30.7141,42.624 31.1621,43.071 31.7141,43.071 L36.2141,43.071 C36.7661,43.071 37.2141,42.624 37.2141,42.071 C37.2141,41.519 36.7661,41.071 36.2141,41.071 L34.8981,41.071 L33.5901,38.807 C34.6221,37.89 35.2861,36.568 35.2861,35.083 C35.2861,33.68 34.7011,32.413 33.7651,31.504 L38.9441,21.714 L41.4411,26.03 C38.6291,28.025 36.7861,31.299 36.7861,35 C36.7861,41.065 41.7211,46 47.7861,46 C53.8511,46 58.7861,41.065 58.7861,35 C58.7861,28.935 53.8511,24 47.7861,24 Z" id="Fill-1" fill="#5073D3"></path>
                <rect id="Rectangle" fill-opacity="0" fill="#FFFFFF" x="0" y="0" width="60" height="60"></rect>
            </g>
        </g>
    </g>
</svg>