<?xml version="1.0" encoding="UTF-8"?>
<svg width="60px" height="60px" viewBox="0 0 60 60" version="1.1" xmlns="http://www.w3.org/2000/svg" xmlns:xlink="http://www.w3.org/1999/xlink">
    <!-- Generator: Sketch 49.3 (51167) - http://www.bohemiancoding.com/sketch -->
    <title>Icone / Categorie / Colore / Casa</title>
    <desc>Created with Sketch.</desc>
    <defs></defs>
    <g id="Icone-/-Categorie-/-Colore-/-Casa" stroke="none" stroke-width="1" fill="none" fill-rule="evenodd">
        <g>
            <g>
                <rect id="Rectangle" fill-opacity="0" fill="#FFFFFF" x="0" y="0" width="60" height="60"></rect>
                <path d="M26.958,44.4922 L54.066,44.4922 L54.066,24.3702 L26.958,24.3702 L26.958,44.4922 Z M11.821,44.4922 L19.135,44.4922 L19.135,32.5202 L11.821,32.5202 L11.821,44.4922 Z M6,23.7842 L15.377,14.4072 L24.958,23.7902 L24.958,44.4922 L21.136,44.4922 L21.136,31.5202 C21.136,30.9682 20.688,30.5202 20.136,30.5202 L10.821,30.5202 C10.269,30.5202 9.821,30.9682 9.821,31.5202 L9.821,44.4922 L6,44.4922 L6,23.7842 Z M26.366,22.3702 L17.819,14.0002 L22.378,14.0002 L30.759,22.3702 L26.366,22.3702 Z M33.59,22.3702 L25.208,14.0002 L29.691,14.0002 L38.073,22.3702 L33.59,22.3702 Z M40.904,22.3702 L32.522,14.0002 L37.003,14.0002 L45.385,22.3702 L40.904,22.3702 Z M52.649,22.3702 L48.216,22.3702 L39.834,14.0002 L44.267,14.0002 L52.649,22.3702 Z M55.988,22.9852 C55.939,22.8662 55.867,22.7602 55.778,22.6702 C55.776,22.6682 55.775,22.6652 55.773,22.6622 L45.388,12.2922 C45.201,12.1052 44.946,12.0002 44.681,12.0002 L30.105,12.0002 L30.102,12.0002 L22.792,12.0002 L22.789,12.0002 L15.37,12.0002 C15.368,12.0002 15.366,12.0012 15.364,12.0012 C15.236,12.0022 15.109,12.0272 14.988,12.0772 C14.865,12.1282 14.754,12.2012 14.661,12.2952 L4.293,22.6632 C4.105,22.8502 4,23.1052 4,23.3702 L4,45.4922 C4,46.0442 4.448,46.4922 5,46.4922 L10.821,46.4922 L20.136,46.4922 L25.958,46.4922 L55.066,46.4922 C55.619,46.4922 56.066,46.0442 56.066,45.4922 L56.066,23.3702 C56.066,23.2362 56.039,23.1052 55.988,22.9852 Z" id="Fill-1" fill="#5073D3"></path>
                <path d="M33.293,36.3422 L37.115,36.3422 L37.115,32.5212 L33.293,32.5212 L33.293,36.3422 Z M38.115,30.5202 L32.292,30.5202 C31.74,30.5202 31.292,30.9682 31.292,31.5202 L31.292,37.3422 C31.292,37.8942 31.74,38.3422 32.292,38.3422 L38.115,38.3422 C38.667,38.3422 39.115,37.8942 39.115,37.3422 L39.115,31.5202 C39.115,30.9682 38.667,30.5202 38.115,30.5202 Z" id="Fill-3" fill="#5073D3"></path>
                <path d="M45.102,36.3422 L48.923,36.3422 L48.923,32.5212 L45.102,32.5212 L45.102,36.3422 Z M49.923,30.5202 L44.102,30.5202 C43.549,30.5202 43.102,30.9682 43.102,31.5202 L43.102,37.3422 C43.102,37.8942 43.549,38.3422 44.102,38.3422 L49.923,38.3422 C50.476,38.3422 50.923,37.8942 50.923,37.3422 L50.923,31.5202 C50.923,30.9682 50.476,30.5202 49.923,30.5202 Z" id="Fill-4" fill="#5073D3"></path>
            </g>
        </g>
    </g>
</svg>