<?xml version="1.0" encoding="UTF-8"?>
<svg width="60px" height="60px" viewBox="0 0 60 60" version="1.1" xmlns="http://www.w3.org/2000/svg" xmlns:xlink="http://www.w3.org/1999/xlink">
    <!-- Generator: Sketch 49.3 (51167) - http://www.bohemiancoding.com/sketch -->
    <title>Icone / Categorie / Colore / Famiglia</title>
    <desc>Created with Sketch.</desc>
    <defs></defs>
    <g id="Icone-/-Categorie-/-Colore-/-Famiglia" stroke="none" stroke-width="1" fill="none" fill-rule="evenodd">
        <g>
            <g>
                <path d="M20.4016,8 C22.7196,8 24.7956,9.052 26.1816,10.702 C25.7416,11.72 24.4226,14.107 21.5036,14.766 L22.2306,13.055 C22.4116,12.632 22.2756,12.144 21.9086,11.867 C21.5406,11.591 21.0296,11.603 20.6726,11.894 C20.6486,11.913 18.3866,13.702 13.0306,13.934 C13.7726,10.545 16.7946,8 20.4016,8 M20.4016,23.1 C16.3696,23.1 13.0756,19.92 12.8716,15.938 C15.7316,15.84 17.8506,15.334 19.3146,14.799 L18.9986,15.544 C18.8666,15.854 18.8986,16.208 19.0846,16.488 C19.2686,16.768 19.5826,16.936 19.9186,16.936 C23.7446,16.936 26.1486,14.714 27.3926,12.708 C27.7516,13.586 27.9526,14.544 27.9526,15.55 C27.9526,19.713 24.5646,23.1 20.4016,23.1 M20.4016,25.1 C25.6686,25.1 29.9526,20.816 29.9526,15.55 C29.9526,10.284 25.6686,6 20.4016,6 C15.3456,6 11.2066,9.953 10.8826,14.928 C10.8826,14.939 10.8776,14.948 10.8776,14.958 C10.8776,14.965 10.8806,14.97 10.8806,14.977 C10.8696,15.167 10.8516,15.356 10.8516,15.55 C10.8516,20.816 15.1356,25.1 20.4016,25.1" id="Fill-1" fill="#5073D3"></path>
                <path d="M51.8987,43.4883 C51.5857,43.4883 51.2897,43.6353 51.0997,43.8853 C50.9117,44.1363 50.8507,44.4613 50.9367,44.7623 L52.4727,50.1383 L33.7097,50.1383 C33.7057,50.1383 33.7037,50.1363 33.6997,50.1363 L31.8407,50.1363 L33.3767,44.7623 C33.4617,44.4613 33.4017,44.1363 33.2127,43.8853 C33.0237,43.6353 32.7277,43.4883 32.4147,43.4883 L29.8947,43.4883 L31.0867,38.7063 C32.3337,33.7053 36.8037,30.2133 41.9587,30.2133 C46.8897,30.2133 51.1887,33.3763 52.6557,38.0853 L54.3387,43.4883 L51.8987,43.4883 Z M6.0357,38.8483 C5.7047,35.1393 7.7537,31.7933 10.9887,30.3383 L14.8067,37.5163 C14.9477,37.7803 15.1987,37.9673 15.4917,38.0273 C15.5577,38.0403 15.6247,38.0473 15.6897,38.0473 C15.9187,38.0473 16.1417,37.9683 16.3217,37.8223 L19.4017,35.3123 L19.4017,50.1363 L7.0627,50.1363 L6.0357,38.8483 Z M13.8647,29.5613 C14.7327,29.4073 15.6037,29.2933 16.4777,29.2033 L19.0597,33.0093 L16.0017,35.5033 L12.9277,29.7253 C12.9607,29.7183 12.9927,29.7093 13.0257,29.7033 L13.8647,29.5613 Z M21.9597,29.0463 L20.3917,31.4113 L18.7767,29.0303 C19.8357,28.9883 20.8977,28.9943 21.9597,29.0463 Z M27.9427,29.8943 L24.8197,35.5173 L21.7367,33.0053 L24.2337,29.2363 C25.1307,29.3363 26.0287,29.4623 26.9227,29.6293 C27.2717,29.6953 27.6097,29.7883 27.9427,29.8943 Z M32.0247,32.7233 C30.6767,34.2643 29.6687,36.1283 29.1457,38.2213 L27.6437,44.2463 C27.5697,44.5453 27.6367,44.8613 27.8267,45.1033 C28.0157,45.3463 28.3067,45.4883 28.6147,45.4883 L31.0877,45.4883 L29.7597,50.1363 L21.4017,50.1363 L21.4017,35.3123 L24.4817,37.8223 C24.6617,37.9683 24.8847,38.0473 25.1137,38.0473 C25.1757,38.0473 25.2397,38.0413 25.3017,38.0293 C25.5927,37.9723 25.8437,37.7913 25.9877,37.5323 L29.7667,30.7283 C30.6247,31.2503 31.3887,31.9193 32.0247,32.7233 Z M56.6537,44.1903 L54.5657,37.4893 C52.8367,31.9413 47.7707,28.2133 41.9587,28.2133 C38.7527,28.2133 35.7777,29.3683 33.4607,31.3173 C32.4787,30.1223 31.2627,29.1813 29.8877,28.5243 C29.8777,28.5183 29.8717,28.5073 29.8607,28.5013 C29.8377,28.4883 29.8127,28.4893 29.7897,28.4783 C29.0027,28.1123 28.1697,27.8303 27.2937,27.6643 C22.7047,26.8063 18.0687,26.7813 13.5237,27.5913 L12.6857,27.7323 C7.2687,28.6893 3.5537,33.5443 4.0437,39.0283 L5.1537,51.2273 C5.2007,51.7423 5.6317,52.1363 6.1497,52.1363 L20.3917,52.1363 C20.3957,52.1363 20.3987,52.1383 20.4017,52.1383 C20.4047,52.1383 20.4077,52.1363 20.4117,52.1363 L30.5057,52.1363 C30.5077,52.1363 30.5107,52.1383 30.5137,52.1383 L53.7987,52.1383 C54.1127,52.1383 54.4087,51.9913 54.5977,51.7413 C54.7867,51.4903 54.8467,51.1663 54.7607,50.8643 L53.2247,45.4883 L55.6987,45.4883 C56.0167,45.4883 56.3157,45.3373 56.5037,45.0813 C56.6927,44.8253 56.7487,44.4943 56.6537,44.1903 Z" id="Fill-3" fill="#5073D3"></path>
                <path d="M42.1555,23.9151 C45.0435,23.9151 47.5945,22.4691 49.1375,20.2661 L49.6255,25.4111 L34.7045,25.4111 L35.2075,20.3111 C36.7535,22.4881 39.2885,23.9151 42.1555,23.9151 Z M48.6625,15.7301 C48.4845,19.1691 45.6385,21.9151 42.1555,21.9151 C38.6695,21.9151 35.8215,19.1641 35.6485,15.7191 L41.5115,15.7191 C41.7775,15.7191 42.0315,15.6141 42.2185,15.4261 L43.9395,13.7061 L45.6705,15.4371 C45.8575,15.6251 46.1115,15.7301 46.3775,15.7301 L48.6625,15.7301 Z M42.1555,8.8671 C45.1775,8.8671 47.7195,10.9361 48.4575,13.7301 L46.7915,13.7301 L44.6465,11.5851 C44.4595,11.3971 44.2055,11.2921 43.9395,11.2921 C43.6745,11.2921 43.4205,11.3971 43.2325,11.5851 L41.0975,13.7191 L35.8575,13.7191 C36.5985,10.9311 39.1375,8.8671 42.1555,8.8671 Z M32.8595,27.0821 C33.0495,27.2911 33.3185,27.4111 33.6005,27.4111 L50.7245,27.4111 C51.0065,27.4111 51.2745,27.2921 51.4645,27.0831 C51.6545,26.8751 51.7475,26.5971 51.7195,26.3161 L50.6755,15.2991 C50.6735,15.1091 50.6615,14.9221 50.6465,14.7351 C50.6465,14.7331 50.6475,14.7321 50.6475,14.7301 C50.6475,14.7271 50.6455,14.7251 50.6455,14.7221 C50.3025,10.3341 46.6305,6.8671 42.1555,6.8671 C37.6885,6.8671 34.0205,10.3231 33.6675,14.7011 C33.6675,14.7071 33.6635,14.7131 33.6635,14.7191 C33.6635,14.7231 33.6655,14.7271 33.6655,14.7301 C33.6485,14.9491 33.6325,15.1681 33.6325,15.3911 C33.6325,15.5061 33.6445,15.6171 33.6495,15.7311 L32.6055,26.3121 C32.5785,26.5931 32.6705,26.8731 32.8595,27.0821 Z" id="Fill-6" fill="#5073D3"></path>
                <path d="M37.426,32.6133 C36.902,32.6133 36.476,33.0393 36.476,33.5633 C36.476,34.0893 36.902,34.5133 37.426,34.5133 C37.95,34.5133 38.376,34.0893 38.376,33.5633 C38.376,33.0393 37.95,32.6133 37.426,32.6133" id="Fill-8" fill="#5073D3"></path>
                <path d="M46.887,32.6133 C46.362,32.6133 45.937,33.0393 45.937,33.5633 C45.937,34.0893 46.362,34.5133 46.887,34.5133 C47.411,34.5133 47.836,34.0893 47.836,33.5633 C47.836,33.0393 47.411,32.6133 46.887,32.6133" id="Fill-10" fill="#5073D3"></path>
                <path d="M40.5793,33.8799 C40.0553,33.8799 39.6303,34.3059 39.6303,34.8299 C39.6303,35.3559 40.0553,35.7799 40.5793,35.7799 C41.1043,35.7799 41.5293,35.3559 41.5293,34.8299 C41.5293,34.3059 41.1043,33.8799 40.5793,33.8799" id="Fill-12" fill="#5073D3"></path>
                <path d="M43.7327,33.8799 C43.2087,33.8799 42.7837,34.3059 42.7837,34.8299 C42.7837,35.3559 43.2087,35.7799 43.7327,35.7799 C44.2577,35.7799 44.6827,35.3559 44.6827,34.8299 C44.6827,34.3059 44.2577,33.8799 43.7327,33.8799" id="Fill-14" fill="#5073D3"></path>
                <rect id="Rectangle" fill-opacity="0" fill="#FFFFFF" x="0" y="0" width="60" height="60"></rect>
            </g>
        </g>
    </g>
</svg>