<?xml version="1.0" encoding="UTF-8"?>
<svg width="118px" height="93px" viewBox="0 0 118 93" version="1.1" xmlns="http://www.w3.org/2000/svg" xmlns:xlink="http://www.w3.org/1999/xlink">
    <!-- Generator: Sketch 54.1 (76490) - https://sketchapp.com -->
    <title>Group 21</title>
    <desc>Created with Sketch.</desc>
    <g id="Page-1" stroke="none" stroke-width="1" fill="none" fill-rule="evenodd">
        <g id="Privati--HOMEFLIX" transform="translate(-431.000000, -1115.000000)">
            <g id="Group-21" transform="translate(431.000000, 1115.000000)">
                <g id="HomeFlix-Home_Icona-HomeFlix-1A" transform="translate(26.000000, 0.000000)">
                    <g id="Group" transform="translate(25.000000, 0.000000)">
                        <path d="M19.4526316,10.54 C11.8105263,14.96 6.77368421,23.035 6.77368421,32.215 C6.77368421,41.225 11.6368421,49.045 18.9315789,53.55 L19.3657895,61.03 L26.4,56.695 C28.4842105,57.205 30.7421053,57.545 33.0868421,57.545 C47.5894737,57.545 59.4,46.24 59.4,32.215 C59.4,18.19 47.6763158,6.885 33.0868421,6.885 C32.2184211,6.885 31.4368421,6.885 30.5684211,6.97 L29.5263158,0.68 C30.6552632,0.595 31.8710526,0.51 33,0.51 C51.2368421,0.595 66,14.705 66,32.215 C66,49.725 51.2368421,63.835 33.0868421,63.835 C30.3947368,63.835 27.7026316,63.495 25.1842105,62.9 L15.1973684,67.915 L15.3710526,58.82 C6.25263158,53.21 0.173684211,43.35 0.173684211,32.215 C0.173684211,20.825 6.42631579,10.795 15.8921053,5.27 L19.4526316,10.54 Z" id="Path" stroke="#484848" stroke-linecap="round" stroke-linejoin="round"></path>
                        <g transform="translate(15.631579, 14.450000)">
                            <g transform="translate(0.868421, 0.000000)">
                                <g transform="translate(0.000000, 5.100000)" id="Oval">
                                    <ellipse stroke="#484848" stroke-linecap="round" stroke-linejoin="round" cx="8.16315789" cy="9.435" rx="7.46842105" ry="8.67"></ellipse>
                                    <ellipse fill="#484848" fill-rule="nonzero" cx="8.85789474" cy="8.67" rx="3.99473684" ry="4.59"></ellipse>
                                </g>
                                <g transform="translate(17.368421, 5.100000)" id="Oval">
                                    <ellipse stroke="#484848" stroke-linecap="round" stroke-linejoin="round" cx="8.07631579" cy="9.435" rx="7.46842105" ry="8.67"></ellipse>
                                    <ellipse fill="#484848" fill-rule="nonzero" cx="7.12105263" cy="8.67" rx="3.99473684" ry="4.59"></ellipse>
                                </g>
                                <path d="M32.9131579,5.185 C32.4789474,4.845 32.0447368,4.505 31.6105263,4.165 C31.1763158,3.825 30.7421053,3.57 30.3078947,3.315 C29.8736842,3.06 29.4394737,2.805 29.0052632,2.635 C28.5710526,2.465 28.05,2.295 27.6157895,2.125 C27.5289474,2.125 27.3552632,2.04 27.2684211,2.04 C27.1815789,2.04 27.0078947,1.955 26.9210526,1.955 L26.5736842,1.87 C26.4868421,1.87 26.3131579,1.87 26.2263158,1.785 L26.0526316,1.785 C25.9657895,1.785 25.9657895,1.785 25.8789474,1.785 L25.5315789,1.785 C25.4447368,1.785 25.2710526,1.785 25.1842105,1.785 C25.0973684,1.785 25.0973684,1.785 25.0105263,1.785 L24.8368421,1.785 C24.75,1.785 24.5763158,1.785 24.4894737,1.785 C24.4026316,1.785 24.2289474,1.785 24.0552632,1.785 L23.8815789,1.785 C23.7947368,1.785 23.7078947,1.785 23.7078947,1.785 L23.2736842,1.785 C23.1,1.785 23.0131579,1.785 22.8394737,1.785 C22.6657895,1.785 22.5789474,1.785 22.4052632,1.785 C22.1447368,1.785 21.8842105,1.87 21.5368421,1.87 C21.7973684,1.7 21.9710526,1.53 22.2315789,1.36 C22.3184211,1.275 22.4921053,1.19 22.5789474,1.19 C22.6657895,1.105 22.8394737,1.02 22.9263158,1.02 C23.1868421,0.935 23.4473684,0.765 23.7078947,0.68 C23.8815789,0.595 23.9684211,0.595 24.1421053,0.51 C24.3157895,0.51 24.4026316,0.425 24.5763158,0.425 C24.8368421,0.34 25.1842105,0.34 25.4447368,0.255 C25.6184211,0.255 25.7052632,0.255 25.8789474,0.255 C25.9657895,0.255 26.0526316,0.255 26.1394737,0.255 L26.4,0.255 L26.6605263,0.255 C26.7473684,0.255 26.8342105,0.255 26.9210526,0.255 L27.3552632,0.34 C27.6157895,0.425 27.9631579,0.425 28.2236842,0.51 C28.8315789,0.68 29.3526316,0.85 29.8736842,1.19 C30.3947368,1.445 30.9157895,1.87 31.2631579,2.21 C31.6973684,2.635 32.0447368,3.06 32.3921053,3.57 C32.5657895,3.825 32.6526316,4.08 32.8263158,4.335 C32.7394737,4.59 32.8263158,4.845 32.9131579,5.185 Z" id="Path" fill="#434343" fill-rule="nonzero"></path>
                                <path d="M0.173684211,6.46 C0.173684211,6.205 0.260526316,5.865 0.347368421,5.61 C0.434210526,5.355 0.521052632,5.1 0.607894737,4.76 C0.868421053,4.25 1.12894737,3.74 1.47631579,3.23 C1.82368421,2.805 2.25789474,2.38 2.77894737,1.955 C2.86578947,1.87 3.03947368,1.785 3.12631579,1.7 C3.21315789,1.615 3.38684211,1.53 3.47368421,1.445 C3.64736842,1.36 3.73421053,1.275 3.90789474,1.19 C3.99473684,1.19 4.08157895,1.105 4.08157895,1.105 L4.25526316,1.02 C4.34210526,1.02 4.42894737,0.935 4.42894737,0.935 L4.60263158,0.85 C4.77631579,0.765 4.86315789,0.765 5.03684211,0.68 L5.47105263,0.595 C5.64473684,0.595 5.73157895,0.51 5.90526316,0.51 C6.07894737,0.51 6.16578947,0.51 6.33947368,0.425 L6.6,0.425 C6.68684211,0.425 6.77368421,0.425 6.86052632,0.425 C7.03421053,0.425 7.12105263,0.425 7.29473684,0.425 C7.46842105,0.425 7.55526316,0.425 7.72894737,0.425 C7.90263158,0.425 7.98947368,0.425 8.16315789,0.425 C8.33684211,0.425 8.42368421,0.425 8.59736842,0.51 L8.77105263,0.51 C8.85789474,0.51 8.94473684,0.51 8.94473684,0.595 L9.55263158,0.85 C9.81315789,0.935 10.0736842,1.02 10.3342105,1.105 C10.5947368,1.19 10.8552632,1.36 11.1157895,1.445 C10.8552632,1.445 10.5078947,1.445 10.2473684,1.53 C10.0736842,1.53 9.98684211,1.53 9.81315789,1.53 C9.63947368,1.53 9.55263158,1.53 9.37894737,1.53 L8.94473684,1.53 C8.85789474,1.53 8.77105263,1.53 8.77105263,1.53 L8.68421053,1.7 C8.51052632,1.7 8.42368421,1.7 8.25,1.7 C8.07631579,1.7 7.98947368,1.7 7.81578947,1.785 C6.77368421,1.955 5.81842105,2.21 4.86315789,2.55 C3.90789474,2.89 3.12631579,3.485 2.25789474,4.08 C1.82368421,4.42 1.47631579,4.76 1.12894737,5.185 C0.868421053,5.61 0.521052632,5.95 0.173684211,6.46 Z" id="Path" fill="#434343" fill-rule="nonzero"></path>
                            </g>
                            <g transform="translate(0.000000, 22.100000)" fill="#484848" fill-rule="nonzero" id="Path">
                                <path d="M36.7342105,1.105 C36.3,1.87 35.7789474,2.55 35.2578947,3.23 C34.7368421,3.91 34.1289474,4.59 33.5210526,5.185 C32.3052632,6.46 30.8289474,7.48 29.3526316,8.415 C29.2657895,8.5 29.1789474,8.5 29.0921053,8.585 L28.8315789,8.755 C28.6578947,8.84 28.3973684,9.01 28.2236842,9.095 C28.05,9.18 27.7894737,9.265 27.6157895,9.435 C27.4421053,9.52 27.1815789,9.605 27.0078947,9.69 C26.2263158,10.03 25.3578947,10.37 24.4894737,10.625 C23.6210526,10.88 22.7526316,11.05 21.7973684,11.22 C20.9289474,11.39 19.9736842,11.475 19.1052632,11.475 C18.2368421,11.475 17.2815789,11.475 16.4131579,11.39 C15.5447368,11.305 14.5894737,11.135 13.7210526,10.88 C12.8526316,10.625 11.9842105,10.37 11.1157895,10.03 L10.4210526,9.775 C10.2473684,9.69 9.98684211,9.605 9.81315789,9.52 L9.20526316,9.18 C9.03157895,9.095 8.77105263,8.925 8.59736842,8.84 C7.03421053,7.99 5.64473684,6.885 4.34210526,5.695 C4.16842105,5.525 3.99473684,5.355 3.90789474,5.27 C3.73421053,5.1 3.56052632,4.93 3.47368421,4.76 L3.03947368,4.25 C2.86578947,4.08 2.77894737,3.91 2.60526316,3.74 C2.08421053,3.06 1.56315789,2.38 1.04210526,1.615 C1.65,2.21 2.34473684,2.805 2.95263158,3.315 C3.64736842,3.91 4.25526316,4.42 4.95,4.845 C6.33947368,5.865 7.81578947,6.715 9.29210526,7.395 C9.46578947,7.48 9.63947368,7.565 9.9,7.65 L10.5078947,7.905 L11.1157895,8.16 L11.7236842,8.33 C12.5052632,8.585 13.2868421,8.84 14.1552632,9.01 C14.9368421,9.18 15.8052632,9.265 16.5868421,9.35 C17.3684211,9.435 18.2368421,9.435 19.1052632,9.435 C19.9736842,9.435 20.7552632,9.35 21.5368421,9.265 C22.3184211,9.18 23.1868421,9.01 23.9684211,8.755 C24.75,8.585 25.5315789,8.33 26.3131579,7.99 C26.7473684,7.82 27.0947368,7.65 27.4421053,7.565 C27.6157895,7.48 27.7894737,7.395 28.05,7.31 L28.3105263,7.14 C28.3973684,7.055 28.4842105,7.055 28.5710526,6.97 C30.0473684,6.205 31.5236842,5.355 32.9131579,4.335 C33.6078947,3.825 34.2157895,3.315 34.9105263,2.72 C35.5184211,2.295 36.1263158,1.7 36.7342105,1.105 Z"></path>
                                <path d="M0.173684211,3.4 C0.0868421053,3.23 0.0868421053,3.06 0.0868421053,2.89 C0.0868421053,2.72 0.0868421053,2.55 0.173684211,2.38 C0.260526316,2.04 0.521052632,1.785 0.781578947,1.53 C0.955263158,1.445 1.04210526,1.36 1.21578947,1.275 C1.21578947,1.275 1.30263158,1.275 1.30263158,1.19 C1.30263158,1.19 1.38947368,1.19 1.38947368,1.19 L1.47631579,1.19 L1.56315789,1.19 C1.91052632,1.105 2.25789474,1.19 2.60526316,1.275 C2.25789474,1.36 1.99736842,1.445 1.73684211,1.615 C1.73684211,1.615 1.65,1.7 1.47631579,1.7 C1.38947368,1.7 1.38947368,1.785 1.30263158,1.785 C1.21578947,1.785 1.21578947,1.87 1.12894737,1.87 C0.955263158,2.04 0.694736842,2.21 0.607894737,2.465 C0.434210526,2.805 0.347368421,3.06 0.173684211,3.4 Z"></path>
                                <path d="M34.4763158,1.36 C34.5631579,1.275 34.7368421,1.105 34.9105263,1.02 C35.0842105,0.935 35.2578947,0.85 35.4315789,0.85 C35.7789474,0.765 36.1263158,0.85 36.4736842,0.935 C36.6473684,1.02 36.8210526,1.105 36.9078947,1.19 C36.9078947,1.19 36.9947368,1.275 36.9947368,1.275 C36.9947368,1.275 37.0815789,1.36 37.0815789,1.36 L37.1684211,1.445 L37.2552632,1.53 C37.4289474,1.785 37.6026316,2.125 37.6894737,2.465 C37.4289474,2.21 37.2552632,2.04 36.9947368,1.87 C36.9078947,1.785 36.7342105,1.7 36.6473684,1.615 C36.5605263,1.615 36.5605263,1.53 36.4736842,1.53 C36.3868421,1.53 36.3868421,1.445 36.3,1.445 C36.0394737,1.36 35.7789474,1.275 35.5184211,1.275 C35.1710526,1.275 34.8236842,1.36 34.4763158,1.36 Z"></path>
                            </g>
                        </g>
                    </g>
                    <g id="Group" transform="translate(0.000000, 5.000000)" stroke-linecap="round" stroke-linejoin="round">
                        <path d="M43.4823529,62.3615385 L43.3960784,78.3538462 C43.3098039,83.4307692 39.0823529,87.5769231 33.8196078,87.4923077 L9.92156863,87.2384615 C4.74509804,87.1538462 0.517647059,83.0076923 0.603921569,77.8461538 L1.38039216,9.30769231 C1.46666667,4.23076923 5.69411765,0.0846153846 10.9568627,0.169230769 L34.854902,0.423076923 C36.3215686,0.423076923 37.7019608,0.761538462 38.9098039,1.35384615 M30.1098039,11 L3.27843137,10.6615385 L2.58823529,76.8307692 L41.3254902,77.2538462 L41.4117647,62.8692308" id="Shape" stroke="#747272"></path>
                        <g transform="translate(14.666667, 2.538462)">
                            <ellipse id="Oval" stroke="#747272" stroke-width="1.00003069" transform="translate(7.197977, 79.454904) rotate(-66.878145) translate(-7.197977, -79.454904) " cx="7.19797725" cy="79.4549038" rx="3.05553575" ry="3.09684376"></ellipse>
                            <g>
                                <g transform="translate(4.313725, 0.000000)" id="Path" stroke="#434343">
                                    <path d="M7.16078431,3.80769231 L0.345098039,3.72307692 C0.17254902,3.72307692 0.0862745098,3.55384615 0.0862745098,3.46923077 L0.0862745098,3.46923077 C0.0862745098,3.3 0.258823529,3.21538462 0.345098039,3.21538462 L7.16078431,3.3 C7.33333333,3.3 7.41960784,3.46923077 7.41960784,3.55384615 L7.41960784,3.55384615 C7.41960784,3.63846154 7.33333333,3.80769231 7.16078431,3.80769231 Z"></path>
                                    <path d="M4.22745098,0.676923077 C4.22745098,0.423076923 4.05490196,0.253846154 3.79607843,0.253846154 C3.5372549,0.253846154 3.36470588,0.423076923 3.36470588,0.676923077 C3.36470588,0.930769231 3.5372549,1.1 3.79607843,1.1 C4.05490196,1.1 4.22745098,0.846153846 4.22745098,0.676923077 Z"></path>
                                </g>
                                <ellipse id="Oval" stroke="#2A2A2A" cx="1.29411765" cy="3.38461538" rx="1" ry="1"></ellipse>
                            </g>
                        </g>
                    </g>
                </g>
                <circle id="Oval" fill-opacity="0.35" fill="#4A90E2" cx="28" cy="40" r="28"></circle>
            </g>
        </g>
    </g>
</svg>