<svg xmlns="http://www.w3.org/2000/svg" viewBox="0 0 479.9 82.6"><defs><style>.cls-1{fill:#3d86c7;}.cls-2{fill:#213263;}</style></defs><title>homeflix_scritta</title><g id="Livello_2" data-name="Livello 2"><g id="Livello_1-2" data-name="Livello 1"><g id="loghi_homeflix_HomeFlix-Pos" data-name="loghi homeflix  HomeFlix-Pos"><path id="Fill-1" class="cls-1" d="M217.5,51.6a78.18,78.18,0,0,0,.3,7.9,7.48,7.48,0,0,0,1.4,4,3.82,3.82,0,0,0,3.2,1.3,6.82,6.82,0,0,0,3.8-1.2,14.35,14.35,0,0,0,2.8-2.2l3.2,7.6a17.26,17.26,0,0,1-2.2,2.4,27.15,27.15,0,0,1-5.5,4.1,14.79,14.79,0,0,1-7.1,1.9c-5.8,0-9.9-1.9-12-5.6s-3.3-8.5-3.3-14.4V47.1c0-3.1-.1-5.6-.3-7.6a11.23,11.23,0,0,0-1.9-5.2,5.61,5.61,0,0,0-4.9-2.2,10.73,10.73,0,0,0-5.9,1.7,9.71,9.71,0,0,0-3.6,4V76H170.3V50.2a81.23,81.23,0,0,0-.5-9.5,13.82,13.82,0,0,0-2.2-6.2,5.7,5.7,0,0,0-5-2.4,10.82,10.82,0,0,0-5.7,1.7,9.53,9.53,0,0,0-3.7,3.8V76H138V21.7l15.2-1.5-.1,6.9a19,19,0,0,1,6.6-5.3,19.9,19.9,0,0,1,9.2-2.3c6.9,0,11.5,2.8,13.8,8.3a28.7,28.7,0,0,1,8.6-6.1,24.27,24.27,0,0,1,10.4-2.2c10.4,0,15.6,7.7,15.6,23.2v8.9Z"/><path id="Fill-3" class="cls-1" d="M267.8,40.1c0-5.7-3.4-8.6-10.1-8.6-3.3,0-5.9.9-7.7,2.7s-2.8,4.5-3.1,8.2l20.8-.8a6.62,6.62,0,0,0,.1-1.5M250.1,62.6c2.1,1.6,5,2.4,8.9,2.4,1.6,0,3.1-.1,4.5-.2a62,62,0,0,0,9.4-2.1c3.3-1,6-2,8.1-2.8l2.3,9.3a25.46,25.46,0,0,1-5.7,3.4,49.26,49.26,0,0,1-9.2,3.3,42.09,42.09,0,0,1-10.5,1.4c-6.4,0-11.6-1.1-15.4-3.2a18,18,0,0,1-8.3-9.8c-1.7-4.4-2.6-10-2.6-16.9,0-6.4.9-11.6,2.6-15.7a17.38,17.38,0,0,1,8.4-9.1q5.85-3,15.6-3c7.3,0,13.2,1.6,17.6,4.9s6.7,8.3,7.1,15.2a34.44,34.44,0,0,1,.1,3.6c0,1.9-.1,3.7-.2,5.4s-.3,2.7-.3,3.1l-35.1,2c-.4,4.3.6,7.2,2.7,8.8"/><polygon id="Fill-5" class="cls-2" points="348.2 2 347.1 14.4 311.3 14.4 311.3 34.3 339 34.3 337.9 46.8 311.3 46.8 311.3 76 295.6 76 295.6 14.5 294.6 2 348.2 2"/><path id="Fill-7" class="cls-2" d="M368.7,58.9a8.46,8.46,0,0,0,1.5,4.4,3.8,3.8,0,0,0,3.2,1.5,12.06,12.06,0,0,0,4.7-1,17,17,0,0,0,3.7-2l3.2,7.5a23.6,23.6,0,0,1-7.4,5.7,19.41,19.41,0,0,1-8.8,2.2c-4.3,0-7.6-1-9.9-3.1a14.75,14.75,0,0,1-4.6-7.9,44.88,44.88,0,0,1-1.2-10.9L353,1.9,368.3.4V51.3a72.51,72.51,0,0,0,.4,7.6"/><path id="Fill-9" class="cls-2" d="M388.3,1.8A10.9,10.9,0,0,1,395,0a10.78,10.78,0,0,1,6.6,1.8,5.94,5.94,0,0,1,2.4,5,5.76,5.76,0,0,1-2.4,4.9,10.78,10.78,0,0,1-6.6,1.8c-2.9,0-5.2-.6-6.7-1.8a5.94,5.94,0,0,1-2.4-5,5.88,5.88,0,0,1,2.4-4.9m14.9,57.1a8.46,8.46,0,0,0,1.5,4.4,3.8,3.8,0,0,0,3.2,1.5,12.29,12.29,0,0,0,4.7-1.1,17,17,0,0,0,3.7-2l3.2,7.6a22.48,22.48,0,0,1-7.4,5.8,19.26,19.26,0,0,1-8.8,2.3c-4.3,0-7.6-1.1-9.9-3.2a15,15,0,0,1-4.6-8,45.16,45.16,0,0,1-1.2-11V32.3h-5.3V20.9h6.4l14.1-1.5V51.2a52.35,52.35,0,0,0,.4,7.7"/><path id="Fill-11" class="cls-2" d="M472.7,75a15.16,15.16,0,0,1-8.3,2.4,15.4,15.4,0,0,1-6.8-1.5,21.67,21.67,0,0,1-6.2-4.8A138.14,138.14,0,0,1,442,59.5L430.9,76H416.3l17.4-26.7-13.1-17h-3.7V20.9h13.7L444,38.1l11.6-17.9,13.8,1.1L452.5,48.1l7.3,9.5a36.51,36.51,0,0,0,4.4,5,6.91,6.91,0,0,0,4.7,2.1,7.11,7.11,0,0,0,3.7-1,6.29,6.29,0,0,0,2.5-2.3l3.3,8.2a18.57,18.57,0,0,1-5.7,5.4"/><polygon id="Fill-13" class="cls-1" points="16.8 34.3 46.6 34.3 46.6 2.7 62.4 2.7 62.4 76.6 46.7 76.6 46.7 46.7 16.8 46.7 16.8 76.6 1.1 76.6 1.1 15.1 0 2.7 16.8 2.7 16.8 34.3"/><path id="Fill-15" class="cls-1" d="M100.5,48.5a4.8,4.8,0,0,0-4.8,4.8v8.9h1.8V53.3a3,3,0,0,1,6,0v8.9h1.8V53.3a4.8,4.8,0,0,0-4.8-4.8"/><path id="Fill-17" class="cls-2" d="M117.6,47,104.1,32.3a4.11,4.11,0,0,0-2.9-1.3,4.23,4.23,0,0,0-3,1.2L81.6,47.9a1.49,1.49,0,0,0-.4,1.4l2.9,12.8h1.8L82.9,49,99.3,33.3a2.84,2.84,0,0,1,1.7-.7,2.46,2.46,0,0,1,1.7.8l13.5,14.7a3.29,3.29,0,0,1,.8,2.5l-1.7,11.5h1.8l1.6-11.3a4.36,4.36,0,0,0-1.1-3.8"/><path id="Fill-19" class="cls-1" d="M88.3,28.8A23.42,23.42,0,0,0,87.9,69l.4,7,6.4-4a24.27,24.27,0,0,0,6.1.8c13.3,0,24.1-10.6,24.1-23.6s-10.8-23.6-24.1-23.6a17.7,17.7,0,0,0-2.3.1l-.9-5.9c1.1-.1,2.1-.2,3.2-.2a29.6,29.6,0,1,1,0,59.2,28.41,28.41,0,0,1-7.2-.9l-9.2,4.7.1-8.5A29.3,29.3,0,0,1,84.9,24Z"/><path id="Fill-21" class="cls-2" d="M474.1,26.2h1a1.88,1.88,0,0,0,.8-.2.6.6,0,0,0,.3-.6.78.78,0,0,0-.3-.7,2,2,0,0,0-.9-.2h-.9Zm0,1v2.3h-1V23.7H475a2.54,2.54,0,0,1,1.6.5,1.49,1.49,0,0,1,.6,1.3,1.45,1.45,0,0,1-.2.7,1,1,0,0,1-.6.5.9.9,0,0,1,.6.6,2,2,0,0,1,.2.9v.9a.6.6,0,0,0,.1.4v.1h-1.1c0-.1-.1-.2-.1-.4v-1a1.17,1.17,0,0,0-.2-.7.84.84,0,0,0-.7-.2h-1.1Zm-3-.6a4.07,4.07,0,0,0,1.2,3,3.78,3.78,0,0,0,2.8,1.2,3.63,3.63,0,0,0,2.8-1.2,4.35,4.35,0,0,0,0-6,3.78,3.78,0,0,0-2.8-1.2,4,4,0,0,0-2.9,1.2,4.43,4.43,0,0,0-1.1,3Zm-.8,0a5.24,5.24,0,0,1,1.4-3.6,4.6,4.6,0,0,1,6.8,0,5.24,5.24,0,0,1,1.4,3.6,5.06,5.06,0,0,1-1.4,3.6,4.6,4.6,0,0,1-6.8,0,5.06,5.06,0,0,1-1.4-3.6Z"/></g></g></g></svg>