<?xml version="1.0" encoding="UTF-8"?>
<svg width="94px" height="82px" viewBox="0 0 94 82" version="1.1" xmlns="http://www.w3.org/2000/svg" xmlns:xlink="http://www.w3.org/1999/xlink">
    <!-- Generator: Sketch 54.1 (76490) - https://sketchapp.com -->
    <title>Group 40</title>
    <desc>Created with Sketch.</desc>
    <g id="Page-1" stroke="none" stroke-width="1" fill="none" fill-rule="evenodd">
        <g id="Icone" transform="translate(-110.000000, -892.000000)">
            <g id="Group-40" transform="translate(110.000000, 845.000000)">
                <rect id="Rectangle" x="28" y="0" width="160" height="160"></rect>
                <g id="lavori-in-casa" transform="translate(0.000000, 47.000000)" fill="#4A90E2" fill-opacity="0.35">
                    <circle id="Oval" cx="30" cy="30" r="30"></circle>
                </g>
                <g id="Assicurazione-famiglia_3" transform="translate(24.000000, 49.000000)" fill="#000000" fill-rule="nonzero">
                    <g id="Group" transform="translate(10.000000, 20.000000)">
                        <g>
                            <path d="M16.375,22.8443478 C16.3828125,22.8208696 16.3984375,22.8052174 16.421875,22.7895652 C16.4453125,22.7817391 16.46875,22.7817391 16.4921875,22.7973913 L17.203125,23.2121739 C17.2734375,23.2513043 17.34375,23.2904348 17.40625,23.3373913 C17.484375,23.3843478 17.5859375,23.4 17.671875,23.3843478 C17.765625,23.3608696 17.84375,23.306087 17.8984375,23.2278261 C18,23.0634783 17.953125,22.8365217 17.78125,22.7347826 C17.484375,22.5469565 17.1640625,22.3747826 16.84375,22.226087 L15.671875,21.6704348 C15.671875,21.6704348 15.6640625,21.6704348 15.6640625,21.6626087 L15.625,22.4295652 C15.5390625,24.1904348 14.171875,26.3191304 12.5859375,26.3191304 L12.4296875,26.3191304 C10.828125,26.3191304 9.3203125,24.5269565 9.3203125,22.6330435 C9.3203125,22.6017391 9.3203125,22.5704348 9.3125,22.5391304 L9.1953125,22.1008696 L8.640625,22.3982609 C5.578125,24.0104348 3.6796875,27.1565217 3.6796875,30.6 L3.6796875,39.3730435 C3.6796875,39.4982609 3.7421875,39.6078261 3.84375,39.6704348 L13.546875,45.9782609 C13.625,46.0252174 13.71875,46.0408696 13.8125,46.0252174 C13.90625,46.0017391 13.9921875,45.9469565 14.0390625,45.8765217 C14.09375,45.7982609 14.109375,45.7043478 14.0859375,45.6104348 C14.0625,45.5165217 14.0078125,45.4382609 13.9296875,45.3834783 L4.421875,39.2008696 C4.3984375,39.1852174 4.390625,39.1617391 4.390625,39.1382609 L4.390625,30.6 C4.390625,27.9078261 5.6171875,25.4347826 7.7578125,23.8069565 L8.453125,23.2747826 C8.4765625,23.2591304 8.5,23.2513043 8.5234375,23.2591304 C8.546875,23.2669565 8.5625,23.2826087 8.578125,23.306087 L8.8671875,24.1356522 C9.453125,25.833913 10.921875,27.0234783 12.4375,27.0234783 L12.59375,27.0234783 C14.390625,27.0234783 15.6953125,25.2626087 16.1484375,23.6269565 L16.375,22.8443478 Z" id="Path"></path>
                            <path d="M20.2890625,17.913913 C20.3125,17.8826087 20.34375,17.8747826 20.375,17.8904348 L20.8046875,18.0391304 C21.125,18.1486957 21.453125,18.2034783 21.7890625,18.2034783 C23.453125,18.2034783 24.8046875,16.8495652 24.8046875,15.1826087 L24.8046875,12.5217391 C24.8046875,9.32086957 23.5859375,6.29217391 21.3671875,3.99130435 C19.15625,1.69826087 16.1953125,0.36 13.015625,0.234782609 C12.7265625,0.226956522 12.46875,0.226956522 12.2265625,0.226956522 C9.0625,0.305217391 6.078125,1.58869565 3.828125,3.8426087 C1.515625,6.15130435 0.25,9.23478261 0.25,12.5295652 L0.25,15.1904348 C0.25,16.8573913 1.6015625,18.2113043 3.265625,18.2113043 C3.6015625,18.2113043 3.9375,18.1565217 4.25,18.0469565 L4.6875,17.8826087 C4.6953125,17.8826087 4.703125,17.8826087 4.7109375,17.8826087 C4.734375,17.8826087 4.7578125,17.8904348 4.7734375,17.913913 L5.0546875,18.2817391 C5.9921875,19.5104348 7.2265625,20.4886957 8.609375,21.1226087 L9.375,21.4669565 L10.1796875,21.6704348 C11.671875,22.053913 13.25,22.0617391 14.75,21.7017391 L15.5703125,21.506087 C15.59375,21.506087 15.6171875,21.506087 15.640625,21.5217391 C15.6484375,21.5295652 15.6484375,21.5295652 15.65625,21.5373913 C15.6640625,21.5295652 15.6640625,21.5295652 15.671875,21.5295652 L16.8203125,20.9426087 C18.0703125,20.3008696 19.140625,19.4086957 20,18.2817391 L20.2890625,17.913913 Z M19.703125,17.5069565 L19.3984375,17.8982609 C17.7421875,20.0269565 15.234375,21.2556522 12.53125,21.2556522 C9.828125,21.2556522 7.3203125,20.0347826 5.6640625,17.8982609 L5.359375,17.5069565 C5.3359375,17.4756522 5.3359375,17.4365217 5.359375,17.4130435 L5.65625,17.0217391 C6.0625,16.4895652 6.28125,15.8556522 6.28125,15.1826087 L6.28125,12.5217391 C6.28125,11.6373913 6.46875,10.7530435 6.8359375,9.94695652 L7.0078125,9.57130435 C7.0234375,9.54 7.046875,9.52434783 7.078125,9.52434783 L12.8046875,9.52434783 C12.953125,9.52434783 13.0859375,9.43043478 13.140625,9.28956522 C13.390625,8.60869565 13.5859375,7.89652174 13.7109375,7.17652174 L13.84375,6.43304348 C13.84375,6.40956522 13.859375,6.39391304 13.8828125,6.37826087 C13.90625,6.3626087 13.9296875,6.3626087 13.9453125,6.37043478 L14.65625,6.62869565 C17.125,7.52869565 18.7734375,9.89217391 18.7734375,12.513913 L18.7734375,15.1747826 C18.7734375,15.8478261 18.9921875,16.4817391 19.3984375,17.013913 L19.6953125,17.4052174 C19.7265625,17.4365217 19.7265625,17.4756522 19.703125,17.5069565 Z M19.4921875,15.1826087 L19.4921875,12.5217391 C19.4921875,9.09391304 16.9375,6.12782609 13.5546875,5.62695652 C13.4609375,5.61913043 13.359375,5.6426087 13.28125,5.70521739 C13.203125,5.76782609 13.15625,5.86173913 13.1484375,5.95565217 C13.0859375,6.75391304 12.9453125,7.54434783 12.71875,8.30347826 L12.5859375,8.7573913 C12.578125,8.78869565 12.546875,8.81217391 12.5078125,8.81217391 L6.8359375,8.81217391 C6.7109375,8.81217391 6.59375,8.87478261 6.53125,8.98434783 C6.53125,8.98434783 6.53125,8.98434783 6.53125,8.99217391 C5.90625,10.0565217 5.5703125,11.2773913 5.5703125,12.5217391 L5.5703125,15.1826087 C5.5703125,15.8947826 5.25,16.5521739 4.6875,16.9982609 C4.6875,16.9982609 4.6875,16.9982609 4.6875,16.9982609 L4.5625,17.0921739 C4.1796875,17.3504348 3.734375,17.4913043 3.2734375,17.4913043 C2.0078125,17.4913043 0.96875,16.4582609 0.96875,15.1826087 L0.96875,12.5217391 C0.96875,6.1826087 5.921875,1.09565217 12.2578125,0.939130435 C12.4921875,0.931304348 12.734375,0.939130435 13,0.946956522 C19.21875,1.18956522 24.09375,6.27652174 24.09375,12.5217391 L24.09375,15.1826087 C24.09375,16.4504348 23.0625,17.4913043 21.7890625,17.4913043 C21.328125,17.4913043 20.8828125,17.3582609 20.5,17.1 L20.375,17.006087 C19.8125,16.5521739 19.4921875,15.8947826 19.4921875,15.1826087 Z" id="Shape"></path>
                        </g>
                        <path d="M49.7265625,8.95304348 C49.765625,8.8826087 49.78125,8.79652174 49.765625,8.71043478 C49.421875,6.83217391 48.5703125,5.08695652 47.2890625,3.6626087 C46.6328125,2.91913043 45.546875,1.90173913 44.109375,1.26 C42.671875,0.571304348 41.15625,0.219130435 39.59375,0.219130435 C37.28125,0.219130435 35.1015625,0.970434783 33.2734375,2.37913043 C31.6875,3.62347826 30.6328125,5.40782609 30.5234375,5.60347826 C29.6953125,7.12173913 29.2578125,8.84347826 29.2578125,10.5730435 C29.2578125,10.9330435 29.2734375,11.2930435 29.3125,11.6530435 C29.3203125,11.7704348 29.3984375,11.88 29.5,11.9347826 C29.6640625,12.0208696 29.8359375,12.0913043 30.015625,12.146087 L30.328125,12.2478261 C30.3515625,12.2556522 30.3671875,12.2713043 30.375,12.2947826 L30.4765625,12.6 C31.2578125,14.9869565 32.9921875,16.9982609 35.25,18.1173913 L36.3203125,18.6495652 L37.03125,18.7904348 C38.4921875,19.1817391 40.0390625,19.2052174 41.5,18.8765217 L42.3203125,18.6886957 C42.3515625,18.6808696 42.3671875,18.6886957 42.390625,18.7043478 C42.40625,18.72 42.421875,18.7434783 42.421875,18.7669565 L42.375,19.6121739 C42.265625,21.4591304 40.9296875,22.9695652 39.3828125,22.9695652 L39.2265625,22.9695652 C37.5625,22.9695652 36.1484375,21.3965217 36.1484375,19.5417391 L36.1484375,18.9469565 L35.265625,19.4008696 C34.3125,19.886087 33.4609375,20.5356522 32.71875,21.3182609 C32.65625,21.3886957 32.6171875,21.4826087 32.625,21.5765217 C32.625,21.6704348 32.671875,21.7643478 32.734375,21.8269565 C32.8203125,21.9052174 32.921875,21.9208696 32.9921875,21.9208696 C33.0859375,21.9208696 33.171875,21.8817391 33.234375,21.8113043 C33.6484375,21.3652174 34.109375,20.973913 34.6015625,20.6295652 L35.2890625,20.1521739 C35.3125,20.1365217 35.3359375,20.1365217 35.359375,20.1443478 C35.3828125,20.1521739 35.3984375,20.1678261 35.40625,20.1913043 L35.6796875,20.9817391 C36.25,22.6017391 37.671875,23.6895652 39.21875,23.6895652 L39.3828125,23.6895652 C40.9140625,23.6895652 42.3515625,22.5 42.8828125,20.793913 L43.1328125,20.0034783 C43.140625,19.98 43.15625,19.9643478 43.1796875,19.9565217 C43.1875,19.9565217 43.1953125,19.9486957 43.203125,19.9486957 C43.21875,19.9486957 43.234375,19.9486957 43.2421875,19.9565217 L43.9375,20.3947826 C46.4296875,21.96 47.9765625,24.7382609 47.9765625,27.6495652 L47.9765625,39.1304348 C47.9765625,39.153913 47.9609375,39.1852174 47.9453125,39.1930435 L37.921875,45.7043478 C37.84375,45.7591304 37.7890625,45.8373913 37.765625,45.9313043 C37.7421875,46.0252174 37.765625,46.1191304 37.8125,46.1973913 C37.9140625,46.353913 38.1484375,46.4086957 38.3046875,46.2991304 L48.5234375,39.6547826 C48.625,39.5921739 48.6875,39.4747826 48.6875,39.3573913 L48.6875,27.6573913 C48.6875,24.1513043 46.7421875,20.9895652 43.6171875,19.4008696 L42.4921875,18.8295652 C42.46875,18.813913 42.4453125,18.7904348 42.453125,18.7591304 C42.453125,18.7278261 42.46875,18.7043478 42.4921875,18.6886957 L43.625,18.1252174 C46.65625,16.6147826 48.65625,13.586087 48.859375,10.2286957 L48.875,9.97043478 C48.875,9.94695652 48.8828125,9.93130435 48.8984375,9.91565217 L49.09375,9.74347826 C49.34375,9.50869565 49.5546875,9.2426087 49.7265625,8.95304348 Z M47.984375,11.433913 C47.1484375,15.4643478 43.5625,18.3991304 39.453125,18.3991304 C35.9765625,18.3991304 32.84375,16.3408696 31.4609375,13.1556522 L31.171875,12.4904348 C31.1640625,12.4669565 31.1640625,12.4434783 31.171875,12.4278261 C31.1796875,12.4043478 31.203125,12.3886957 31.21875,12.3886957 L31.921875,12.1930435 C33.15625,11.8408696 34.078125,10.8 34.2734375,9.53217391 L34.3671875,8.92173913 C34.375,8.8826087 34.4140625,8.85130435 34.453125,8.85913043 L35.0703125,8.9373913 C35.6796875,9.01565217 36.296875,9.05478261 36.9140625,9.05478261 C38.9921875,9.05478261 40.9609375,8.63217391 42.765625,7.78695652 L43.4375,7.47391304 C43.4609375,7.46608696 43.484375,7.46608696 43.5,7.47391304 C43.5234375,7.48173913 43.5390625,7.50521739 43.5390625,7.52086957 L43.7421875,8.23304348 C44.1484375,9.62608696 45.4453125,10.6043478 46.8984375,10.6043478 C47,10.6043478 47.109375,10.5965217 47.21875,10.5886957 L48.078125,10.5026087 C48.1015625,10.5026087 48.125,10.5104348 48.140625,10.526087 C48.15625,10.5417391 48.1640625,10.5730435 48.15625,10.5965217 L47.984375,11.433913 Z M49.03125,8.76521739 L48.8125,9.00782609 C48.3203125,9.56347826 47.6171875,9.88434783 46.890625,9.88434783 C45.4765625,9.88434783 44.3203125,8.73391304 44.3203125,7.30956522 L44.3203125,6.71478261 C44.3203125,6.58173913 44.25,6.46434783 44.1328125,6.40173913 C44.0234375,6.33913043 43.8828125,6.34695652 43.7734375,6.40956522 C41.78125,7.66173913 39.3984375,8.32695652 36.8984375,8.32695652 C35.921875,8.32695652 34.953125,8.22521739 34.015625,8.02173913 C33.9140625,7.99826087 33.8046875,8.02173913 33.71875,8.09217391 C33.6328125,8.1626087 33.5859375,8.26434783 33.5859375,8.37391304 L33.5859375,9.02347826 C33.5859375,10.44 32.4375,11.5982609 31.015625,11.5982609 C30.921875,11.5982609 30.8203125,11.5904348 30.7265625,11.5826087 L30.5625,11.5591304 L30.0546875,11.4652174 C30.015625,11.4573913 29.9921875,11.426087 29.9921875,11.3869565 L29.9765625,10.8704348 C29.9765625,10.7686957 29.96875,10.6747826 29.96875,10.5730435 C29.96875,8.96869565 30.3671875,7.38 31.1328125,5.97130435 C31.140625,5.95565217 32.15625,4.17130435 33.6796875,2.96608696 L33.7109375,2.9426087 C35.4140625,1.62782609 37.4453125,0.931304348 39.59375,0.931304348 C41.046875,0.931304348 42.4453125,1.24434783 43.75,1.87043478 L43.8203125,1.90173913 C45.1328125,2.48869565 46.125,3.42 46.734375,4.10086957 C47.828125,5.32173913 48.6015625,6.79304348 48.96875,8.36608696 L49.046875,8.68695652 C49.0546875,8.71826087 49.046875,8.74173913 49.03125,8.76521739 Z" id="Shape"></path>
                        <path d="M26,53.9373913 C26.1171875,54.0078261 26.265625,54.0078261 26.3828125,53.9373913 L34.375,48.873913 C34.4765625,48.8113043 34.5390625,48.693913 34.5390625,48.5686957 L34.5234375,44.6321739 C34.5078125,41.493913 32.7734375,38.6530435 30.0078125,37.2208696 L28.984375,36.6886957 C28.9609375,36.6730435 28.9453125,36.6495652 28.9453125,36.6182609 C28.9453125,36.5869565 28.9609375,36.5634783 28.984375,36.5478261 L29.9765625,35.9608696 C32.2578125,34.6147826 33.6796875,32.133913 33.6796875,29.4886957 C33.6796875,28.2756522 33.3984375,27.1173913 32.84375,26.0530435 C32.8203125,25.9982609 32.8125,25.9826087 32.796875,25.9669565 C31.46875,23.5173913 28.9375,21.9913043 26.1875,21.9913043 C23.4375,21.9913043 20.9140625,23.5017391 19.6015625,25.9356522 L19.53125,26.0608696 C18.9765625,27.1330435 18.6953125,28.2913043 18.6953125,29.5043478 C18.6953125,32.1495652 20.1171875,34.6304348 22.3984375,35.9765217 L23.390625,36.5634783 C23.3984375,36.5713043 23.40625,36.5791304 23.4140625,36.5869565 C23.4140625,36.5869565 23.4140625,36.5869565 23.4140625,36.5869565 C23.4296875,36.5713043 23.453125,36.5634783 23.484375,36.5713043 L24.3828125,36.7826087 C25.5390625,37.0721739 26.7578125,37.0721739 27.921875,36.7982609 L28.8203125,36.5869565 C28.84375,36.5869565 28.875,36.5869565 28.890625,36.6026087 C28.90625,36.6182609 28.921875,36.6417391 28.9140625,36.6730435 L28.7890625,37.5886957 C28.6171875,38.8643478 27.484375,39.9052174 26.2578125,39.9052174 L26.125,39.9052174 C24.8359375,39.9052174 23.65625,38.8565217 23.5,37.5573913 L23.390625,36.6808696 C23.390625,36.6808696 23.3828125,36.6808696 23.3828125,36.6886957 L22.359375,37.2208696 C19.578125,38.6608696 17.84375,41.5017391 17.84375,44.64 L17.84375,48.5452174 C17.84375,48.6704348 17.90625,48.78 18.0078125,48.8426087 L26,53.9373913 Z M20.3671875,25.8965217 L21,25.1452174 C22.296875,23.6034783 24.1875,22.7191304 26.1875,22.7191304 C28.1875,22.7191304 30.0859375,23.6034783 31.375,25.1452174 L32,25.8965217 C32.015625,25.92 32.0234375,25.9434783 32.015625,25.9669565 C32.0078125,25.9904348 31.984375,26.013913 31.9609375,26.0217391 L31.0234375,26.2878261 C29.5,26.726087 27.875,26.9452174 26.1875,26.9452174 C24.5,26.9452174 22.8671875,26.726087 21.34375,26.2878261 L20.40625,26.0217391 C20.3828125,26.013913 20.359375,25.9982609 20.3515625,25.9669565 C20.34375,25.9356522 20.3515625,25.9121739 20.3671875,25.8965217 Z M26.1875,36.2895652 C22.453125,36.2895652 19.4140625,33.2452174 19.4140625,29.5043478 C19.4140625,28.7452174 19.5390625,27.993913 19.7890625,27.2817391 L19.9921875,26.6947826 C20.0078125,26.6556522 20.0546875,26.64 20.0859375,26.6478261 L20.6796875,26.8356522 C24.078125,27.9234783 28.3046875,27.9234783 31.703125,26.8356522 L32.296875,26.6478261 C32.3359375,26.64 32.3828125,26.6556522 32.390625,26.6947826 L32.59375,27.2817391 C32.84375,27.993913 32.96875,28.7452174 32.96875,29.5043478 C32.9609375,33.2452174 29.921875,36.2895652 26.1875,36.2895652 Z M18.5703125,44.64 C18.5703125,42.0652174 19.8515625,39.686087 22.0078125,38.2695652 L22.6328125,37.8547826 C22.6484375,37.8391304 22.6796875,37.8391304 22.6953125,37.8469565 C22.71875,37.8547826 22.734375,37.8704348 22.7421875,37.893913 L23.046875,38.5826087 C23.578125,39.7878261 24.84375,40.6330435 26.1328125,40.6330435 L26.265625,40.6330435 C27.5390625,40.6330435 28.7421875,39.7956522 29.265625,38.5513043 L29.5625,37.8547826 C29.5703125,37.8313043 29.5859375,37.8156522 29.609375,37.8078261 C29.6328125,37.8 29.65625,37.8078261 29.671875,37.8156522 L30.3046875,38.2226087 C32.484375,39.6313043 33.796875,42.033913 33.8046875,44.64 L33.8203125,48.333913 C33.8203125,48.3573913 33.8046875,48.3886957 33.78125,48.3965217 L26.21875,53.1782609 C26.203125,53.186087 26.1875,53.186087 26.1796875,53.186087 C26.171875,53.186087 26.1484375,53.186087 26.140625,53.1704348 L18.59375,48.3573913 C18.5703125,48.3417391 18.5546875,48.3182609 18.5546875,48.2947826 L18.5546875,44.64 L18.5703125,44.64 Z" id="Shape"></path>
                    </g>
                    <path d="M0.458649509,19.7682792 L0.237232504,19.8623393 C0.0948930018,19.9250459 0,20.0661359 0,20.2229026 L0,40.1165952 C0,46.9516228 1.81087478,53.3006736 5.36936235,58.9913043 C8.2161524,63.5375383 12.185843,67.6761788 17.1598178,71.2896509 C25.668557,77.4662584 33.9321559,79.8804654 34.2800969,79.9823637 C34.3512666,80.0058788 34.4303441,80.0058788 34.5015139,79.9823637 C34.8652704,79.8804654 43.5321646,77.3800367 52.222782,71.2974893 C57.3707273,67.6918555 61.4827574,63.5532149 64.4323482,59.006981 C68.109452,53.3712186 70.0389431,46.8418861 69.9994043,40.1322719 L69.9994043,20.2229026 C69.9994043,20.0661359 69.9045113,19.9250459 69.7621718,19.8623393 L69.5328471,19.7604409 C57.3707273,14.5793019 45.8333199,7.95590937 35.2369347,0.0783833435 C35.1657649,0.0313533374 35.0866874,0 34.9997022,0 C34.9127169,0 34.8336394,0.0313533374 34.7624697,0.0783833435 C29.4880003,3.99755052 23.9130364,7.65021433 18.2036408,10.9266381 C12.4863375,14.2109002 6.51598612,17.1816289 0.458649509,19.7682792 Z M34.6122224,1.16007348 L34.9997022,0.877893448 L35.3871819,1.16007348 C45.7384269,8.77893448 56.9911553,15.2220453 68.8290573,20.3091243 L69.216537,20.4737293 L69.216537,40.1165952 C69.2560758,46.6694427 67.381939,53.0420086 63.7918204,58.5523576 C60.9054916,63.0123699 56.8804468,67.0726271 51.8273945,70.6233925 C44.0303528,76.1023882 36.1067872,78.6812002 34.5964069,79.143662 L34.3987131,79.2063686 L34.2089271,79.143662 C32.7539011,78.6812002 25.1387377,76.1102266 17.6263751,70.6625842 C12.7314777,67.1039804 8.83295692,63.0437232 6.04152111,58.583711 C2.5542033,53.0184936 0.782867265,46.8026944 0.782867265,40.1165952 L0.782867265,20.4737293 L1.17034702,20.3091243 C7.12488288,17.7538273 12.9845257,14.8222903 18.5911206,11.6085732 C24.1028225,8.4418861 29.4959081,4.93031231 34.6122224,1.16007348 Z" id="Shape"></path>
                </g>
            </g>
        </g>
    </g>
</svg>