<?xml version="1.0" encoding="UTF-8"?>
<svg width="60px" height="60px" viewBox="0 0 60 60" version="1.1" xmlns="http://www.w3.org/2000/svg" xmlns:xlink="http://www.w3.org/1999/xlink">
    <!-- Generator: Sketch 49.3 (51167) - http://www.bohemiancoding.com/sketch -->
    <title>Icone / Categorie / Colore / In città</title>
    <desc>Created with Sketch.</desc>
    <defs></defs>
    <g id="Icone-/-Categorie-/-Colore-/-In-città" stroke="none" stroke-width="1" fill="none" fill-rule="evenodd">
        <g>
            <g>
                <path d="M52.7998,51.039 L52.7998,45.72 C52.7998,45.167 52.3528,44.72 51.7998,44.72 C51.2468,44.72 50.7998,45.167 50.7998,45.72 L50.7998,51.023 C49.7728,50.81 48.8048,50.277 48.0538,49.485 C47.0718,48.449 46.5438,47.069 46.6038,45.697 C46.6448,44.756 46.9428,43.844 47.4638,43.06 C48.5368,41.447 48.8398,39.529 48.3178,37.663 C48.1698,37.133 48.1448,36.578 48.2418,36.015 C48.4838,34.617 49.6168,33.436 50.9998,33.144 C51.2738,33.086 51.5448,33.058 51.8128,33.058 C52.6408,33.058 53.4268,33.333 54.0808,33.863 C54.9358,34.555 55.4248,35.581 55.4248,36.679 C55.4248,37.025 55.3758,37.37 55.2788,37.702 C54.7628,39.471 55.0898,41.406 56.1978,43.154 C56.7228,43.981 56.9998,44.94 56.9998,45.929 C56.9998,47.331 56.4518,48.646 55.4578,49.631 C54.7188,50.363 53.7988,50.848 52.7998,51.039 Z M47.1148,55.088 L32.2088,55.088 L32.2088,48.08 L43.0738,48.08 C43.6268,48.08 44.0738,47.633 44.0738,47.08 L44.0738,43.72 C44.0738,43.167 43.6268,42.72 43.0738,42.72 L32.2088,42.72 L32.2088,41.405 L43.0738,41.405 C43.6268,41.405 44.0738,40.958 44.0738,40.405 L44.0738,37.045 C44.0738,36.492 43.6268,36.045 43.0738,36.045 L32.2088,36.045 L32.2088,34.74 L43.0738,34.74 C43.6268,34.74 44.0738,34.293 44.0738,33.74 L44.0738,30.38 C44.0738,29.827 43.6268,29.38 43.0738,29.38 L32.2088,29.38 L32.2088,28.065 L43.0738,28.065 C43.6268,28.065 44.0738,27.618 44.0738,27.065 L44.0738,23.705 C44.0738,23.152 43.6268,22.705 43.0738,22.705 L26.2708,22.705 C25.7188,22.705 25.2708,23.152 25.2708,23.705 L25.2708,26.154 L22.2308,26.661 L22.2308,21.362 C22.2308,20.06 23.2898,19.001 24.5908,19.001 L27.1108,19.001 C27.1128,19.001 27.1138,19.002 27.1158,19.002 C27.1168,19.002 27.1188,19.001 27.1208,19.001 L42.2338,19.001 C42.2358,19.001 42.2368,19.002 42.2378,19.002 C42.2398,19.002 42.2408,19.001 42.2428,19.001 L44.7548,19.001 C46.0568,19.001 47.1148,20.06 47.1148,21.362 L47.1148,33.584 C46.7018,34.209 46.4038,34.914 46.2718,35.674 C46.1228,36.531 46.1628,37.381 46.3918,38.201 C46.7548,39.499 46.5438,40.832 45.7988,41.953 C45.0748,43.039 44.6628,44.304 44.6058,45.609 C44.5218,47.52 45.2498,49.435 46.6018,50.861 C46.7658,51.034 46.9378,51.197 47.1148,51.351 L47.1148,55.088 Z M32.2088,32.74 L42.0738,32.74 L42.0738,31.38 L32.2088,31.38 L32.2088,32.74 Z M32.2088,39.405 L42.0738,39.405 L42.0738,38.045 L32.2088,38.045 L32.2088,39.405 Z M32.2088,46.08 L42.0738,46.08 L42.0738,44.72 L32.2088,44.72 L32.2088,46.08 Z M32.1838,26.065 C32.1538,25.815 32.0498,25.58 31.8558,25.416 C31.6308,25.226 31.3338,25.146 31.0448,25.192 L27.2708,25.821 L27.2708,24.705 L42.0738,24.705 L42.0738,26.065 L32.1838,26.065 Z M21.2308,55.088 L16.2688,55.088 C15.8898,52.777 14.2338,50.893 12.0458,50.196 L12.0458,30.386 L30.2098,27.359 L30.2098,55.088 L21.2308,55.088 Z M8.1848,51.904 L10.1728,51.904 C12.1348,51.904 13.7858,53.263 14.2368,55.088 L11.0458,55.088 C11.0428,55.088 11.0398,55.09 11.0358,55.09 L4.1208,55.09 C4.5708,53.264 6.2218,51.904 8.1848,51.904 Z M33.6768,11.525 L33.6768,13.452 C33.6768,14.005 34.1238,14.452 34.6768,14.452 C35.2298,14.452 35.6768,14.005 35.6768,13.452 L35.6768,11.525 C38.4928,11.96 40.7198,14.185 41.1538,17.001 L28.1998,17.001 C28.6338,14.185 30.8608,11.96 33.6768,11.525 Z M58.9998,45.929 C58.9998,44.56 58.6148,43.231 57.8878,42.083 C57.0908,40.828 56.8468,39.471 57.1988,38.262 C57.3488,37.747 57.4248,37.215 57.4248,36.679 C57.4248,34.975 56.6648,33.382 55.3398,32.309 C54.0158,31.235 52.2818,30.828 50.5848,31.187 C50.0648,31.298 49.5718,31.488 49.1148,31.736 L49.1148,21.362 C49.1148,18.957 47.1588,17.001 44.7548,17.001 L43.1748,17.001 C42.7148,13.08 39.5988,9.964 35.6768,9.505 L35.6768,4 C35.6768,3.447 35.2298,3 34.6768,3 C34.1238,3 33.6768,3.447 33.6768,4 L33.6768,9.505 C29.7558,9.964 26.6388,13.08 26.1798,17.001 L24.5908,17.001 C22.1868,17.001 20.2308,18.957 20.2308,21.362 L20.2308,26.995 L10.8818,28.553 C10.3998,28.633 10.0458,29.05 10.0458,29.539 L10.0458,49.904 L8.1848,49.904 C4.7748,49.904 1.9998,52.679 1.9998,56.09 C1.9998,56.643 2.4478,57.09 2.9998,57.09 L15.3578,57.09 C15.3608,57.09 15.3638,57.088 15.3668,57.088 L21.2308,57.088 L31.2098,57.088 L48.1148,57.088 C48.6678,57.088 49.1148,56.641 49.1148,56.088 L49.1148,52.586 C49.6558,52.81 50.2228,52.967 50.7998,53.053 L50.7998,56.09 C50.7998,56.643 51.2468,57.09 51.7998,57.09 C52.3528,57.09 52.7998,56.643 52.7998,56.09 L52.7998,53.058 C54.3308,52.847 55.7468,52.159 56.8648,51.052 C58.2418,49.688 58.9998,47.869 58.9998,45.929 Z" id="Fill-1" fill="#5073D3"></path>
                <path d="M16.039,37.1498 L18.45,37.1498 L18.45,34.7388 L16.039,34.7388 L16.039,37.1498 Z M19.45,32.7378 L15.039,32.7378 C14.487,32.7378 14.039,33.1858 14.039,33.7378 L14.039,38.1498 C14.039,38.7018 14.487,39.1498 15.039,39.1498 L19.45,39.1498 C20.002,39.1498 20.45,38.7018 20.45,38.1498 L20.45,33.7378 C20.45,33.1858 20.002,32.7378 19.45,32.7378 Z" id="Fill-4" fill="#5073D3"></path>
                <path d="M23.81,37.1498 L26.221,37.1498 L26.221,34.7388 L23.81,34.7388 L23.81,37.1498 Z M27.221,32.7378 L22.811,32.7378 C22.258,32.7378 21.811,33.1858 21.811,33.7378 L21.811,38.1498 C21.811,38.7018 22.258,39.1498 22.811,39.1498 L27.221,39.1498 C27.773,39.1498 28.221,38.7018 28.221,38.1498 L28.221,33.7378 C28.221,33.1858 27.773,32.7378 27.221,32.7378 Z" id="Fill-6" fill="#5073D3"></path>
                <path d="M16.039,44.9208 L18.45,44.9208 L18.45,42.5098 L16.039,42.5098 L16.039,44.9208 Z M19.45,40.5098 L15.039,40.5098 C14.487,40.5098 14.039,40.9568 14.039,41.5098 L14.039,45.9208 C14.039,46.4738 14.487,46.9208 15.039,46.9208 L19.45,46.9208 C20.002,46.9208 20.45,46.4738 20.45,45.9208 L20.45,41.5098 C20.45,40.9568 20.002,40.5098 19.45,40.5098 Z" id="Fill-7" fill="#5073D3"></path>
                <path d="M23.81,44.9208 L26.221,44.9208 L26.221,42.5098 L23.81,42.5098 L23.81,44.9208 Z M27.221,40.5098 L22.811,40.5098 C22.258,40.5098 21.811,40.9568 21.811,41.5098 L21.811,45.9208 C21.811,46.4738 22.258,46.9208 22.811,46.9208 L27.221,46.9208 C27.773,46.9208 28.221,46.4738 28.221,45.9208 L28.221,41.5098 C28.221,40.9568 27.773,40.5098 27.221,40.5098 Z" id="Fill-8" fill="#5073D3"></path>
                <rect id="Rectangle" fill-opacity="0" fill="#FFFFFF" x="0" y="0" width="60" height="60"></rect>
            </g>
        </g>
    </g>
</svg>