<svg width="94" height="82" xmlns="http://www.w3.org/2000/svg"><g fill="none" fill-rule="evenodd"><path d="M28-47h160v160H28z"/><circle cx="30" cy="30" r="30" fill="#4A90E2" fill-opacity=".35"/><g fill="#000" fill-rule="nonzero"><path d="M50.375 44.844a.105.105 0 01.047-.054.076.076 0 01.07.007l.711.415c.07.04.14.078.203.125.078.047.18.063.266.047a.388.388 0 00.226-.156.358.358 0 00-.117-.493 8.33 8.33 0 00-.937-.509l-1.172-.556s-.008 0-.008-.007l-.039.767c-.086 1.76-1.453 3.89-3.04 3.89h-.155c-1.602 0-3.11-1.793-3.11-3.687 0-.031 0-.063-.008-.094l-.117-.438-.554.297A9.252 9.252 0 0037.68 52.6v8.773c0 .125.062.235.164.297l9.703 6.308a.389.389 0 00.266.047.388.388 0 00.226-.148.32.32 0 00.047-.267.389.389 0 00-.156-.227l-9.508-6.182a.071.071 0 01-.031-.063V52.6a8.463 8.463 0 013.367-6.793l.695-.532c.024-.016.047-.024.07-.016.024.008.04.024.055.047l.29.83c.585 1.698 2.054 2.887 3.57 2.887h.156c1.797 0 3.101-1.76 3.554-3.396l.227-.783z"/><path d="M54.29 39.914c.023-.031.054-.04.085-.024l.43.15a3.02 3.02 0 004-2.857v-2.661c0-3.201-1.22-6.23-3.438-8.53a12.218 12.218 0 00-8.351-3.757c-.29-.008-.547-.008-.79-.008a12.252 12.252 0 00-8.398 3.616c-2.312 2.308-3.578 5.392-3.578 8.687v2.66a3.02 3.02 0 004 2.857l.438-.164h.023c.023 0 .047.007.062.03l.282.369a9.433 9.433 0 003.554 2.84l.766.345.805.203a9.504 9.504 0 004.57.032l.82-.196c.024 0 .047 0 .07.016l.016.015c.008-.007.008-.007.016-.007l1.148-.587A9.317 9.317 0 0054 40.282l.29-.368zm-.587-.407l-.305.391a8.655 8.655 0 01-6.867 3.358 8.632 8.632 0 01-6.867-3.358l-.305-.391c-.023-.031-.023-.07 0-.094l.297-.391a3.006 3.006 0 00.625-1.84v-2.66c0-.885.188-1.769.555-2.575l.172-.376c.015-.031.039-.047.07-.047h5.727a.363.363 0 00.336-.234c.25-.681.445-1.393.57-2.113l.133-.744c0-.023.015-.04.039-.055.023-.015.047-.015.062-.008l.711.259a6.278 6.278 0 014.117 5.885v2.66c0 .674.22 1.308.625 1.84l.297.391c.032.032.032.07.008.102zm-.21-2.324v-2.661c0-3.428-2.556-6.394-5.938-6.895a.388.388 0 00-.274.078.363.363 0 00-.133.25 11.306 11.306 0 01-.43 2.348l-.132.454c-.008.032-.04.055-.078.055h-5.672a.347.347 0 00-.305.172v.008a6.98 6.98 0 00-.96 3.53v2.66a2.3 2.3 0 01-.883 1.816l-.126.094a2.3 2.3 0 01-1.289.4 2.31 2.31 0 01-2.304-2.31v-2.66c0-6.34 4.953-11.426 11.289-11.583.234-.008.476 0 .742.008 6.219.243 11.094 5.33 11.094 11.575v2.66A2.311 2.311 0 0154.5 39.1l-.125-.094a2.327 2.327 0 01-.883-1.823zm30.234-6.23a.367.367 0 00.039-.243 10.312 10.312 0 00-2.477-5.047c-.656-.744-1.742-1.761-3.18-2.403a10.369 10.369 0 00-4.515-1.04c-2.313 0-4.492.75-6.32 2.16-1.587 1.243-2.641 3.028-2.75 3.223a10.417 10.417 0 00-1.212 6.05.36.36 0 00.188.282c.164.086.336.156.516.211l.312.102a.07.07 0 01.047.047l.102.305a9.482 9.482 0 004.773 5.517l1.07.533.711.14a9.385 9.385 0 004.469.087l.82-.188c.032-.008.047 0 .07.015.016.016.032.04.032.063l-.047.845c-.11 1.847-1.445 3.358-2.992 3.358h-.156c-1.665 0-3.079-1.573-3.079-3.428v-.595l-.882.454a9.363 9.363 0 00-2.547 1.917.37.37 0 00.016.509.376.376 0 00.257.094.32.32 0 00.242-.11 8.524 8.524 0 011.368-1.181l.687-.478a.076.076 0 01.07-.008.07.07 0 01.047.047l.274.79c.57 1.62 1.992 2.709 3.539 2.709h.164c1.531 0 2.969-1.19 3.5-2.896l.25-.79a.07.07 0 01.047-.047c.007 0 .015-.008.023-.008.016 0 .031 0 .04.008l.695.438c2.492 1.565 4.039 4.343 4.039 7.255v11.48c0 .024-.016.055-.032.063l-10.023 6.511a.389.389 0 00-.156.227.352.352 0 00.046.266c.102.157.336.212.493.102l10.218-6.644a.355.355 0 00.165-.298v-11.7a9.223 9.223 0 00-5.07-8.256l-1.126-.571c-.023-.016-.047-.04-.039-.07 0-.032.016-.056.04-.071l1.132-.564a9.49 9.49 0 005.234-7.896l.016-.259c0-.023.008-.039.023-.054l.196-.173c.25-.234.46-.5.633-.79zm-1.743 2.48c-.836 4.031-4.421 6.966-8.53 6.966a8.705 8.705 0 01-7.993-5.243l-.29-.666a.093.093 0 010-.062c.009-.024.032-.04.048-.04l.703-.195a3.295 3.295 0 002.351-2.66l.094-.611c.008-.04.047-.07.086-.063l.617.078c.61.079 1.227.118 1.844.118 2.078 0 4.047-.423 5.852-1.268l.671-.313c.024-.008.047-.008.063 0 .023.008.04.031.04.047l.202.712a3.308 3.308 0 003.156 2.371c.102 0 .211-.007.32-.015l.86-.086c.024 0 .047.007.063.023a.075.075 0 01.015.07l-.172.838zm1.047-2.668l-.219.243a2.58 2.58 0 01-1.921.876 2.575 2.575 0 01-2.57-2.574v-.595a.35.35 0 00-.188-.313.368.368 0 00-.36.008c-1.992 1.252-4.375 1.917-6.875 1.917a13.63 13.63 0 01-2.882-.305.344.344 0 00-.297.07.36.36 0 00-.133.282v.65a2.575 2.575 0 01-2.86 2.559l-.163-.024-.508-.094a.076.076 0 01-.063-.078l-.015-.517c0-.101-.008-.195-.008-.297a9.65 9.65 0 011.164-4.602c.008-.015 1.023-1.8 2.547-3.005l.03-.023a9.542 9.542 0 015.884-2.012c1.453 0 2.851.313 4.156.94l.07.03c1.313.588 2.305 1.519 2.914 2.2a9.727 9.727 0 012.235 4.265l.078.321a.091.091 0 01-.016.078z"/><path d="M60 75.937c.117.07.266.07.383 0l7.992-5.063a.358.358 0 00.164-.305l-.016-3.937a8.365 8.365 0 00-4.515-7.411l-1.024-.532a.082.082 0 01-.039-.07c0-.032.016-.056.04-.071l.992-.587a7.552 7.552 0 003.703-6.472 7.367 7.367 0 00-.836-3.436c-.024-.055-.031-.07-.047-.086-1.328-2.45-3.86-3.976-6.61-3.976a7.48 7.48 0 00-6.585 3.945l-.07.125a7.421 7.421 0 00-.837 3.443 7.552 7.552 0 003.703 6.473l.993.586.023.024c.016-.016.04-.024.07-.016l.899.212c1.156.29 2.375.29 3.539.015l.898-.211c.024 0 .055 0 .07.016.016.015.032.039.024.07l-.125.916c-.172 1.275-1.305 2.316-2.531 2.316h-.133c-1.29 0-2.469-1.048-2.625-2.348l-.11-.876s-.007 0-.007.008l-1.024.532a8.327 8.327 0 00-4.515 7.419v3.905c0 .125.062.235.164.298L60 75.937zm-5.633-28.04l.633-.752a6.757 6.757 0 0110.375 0l.625.752c.016.023.023.046.016.07a.094.094 0 01-.055.055l-.938.266a17.478 17.478 0 01-4.835.657c-1.688 0-3.32-.219-4.844-.657l-.938-.266c-.023-.008-.047-.024-.054-.055-.008-.031 0-.055.015-.07zm5.82 10.393c-3.734 0-6.773-3.045-6.773-6.786 0-.759.125-1.51.375-2.222l.203-.587c.016-.04.063-.055.094-.047l.594.188c3.398 1.087 7.625 1.087 11.023 0l.594-.188c.039-.008.086.008.094.047l.203.587c.25.712.375 1.463.375 2.222-.008 3.741-3.047 6.786-6.781 6.786zm-7.617 8.35a7.595 7.595 0 013.438-6.37l.625-.415c.015-.016.047-.016.062-.008a.07.07 0 01.047.047l.305.689c.531 1.205 1.797 2.05 3.086 2.05h.133c1.273 0 2.476-.837 3-2.082l.297-.696a.07.07 0 01.046-.047.083.083 0 01.063.008l.633.407a7.647 7.647 0 013.5 6.417l.015 3.694c0 .023-.015.055-.039.063l-7.562 4.781c-.016.008-.032.008-.04.008-.007 0-.03 0-.038-.016l-7.547-4.813c-.024-.015-.04-.039-.04-.062V66.64h.016z"/><path d="M24.459 21.768l-.222.094a.396.396 0 00-.237.36v19.895c0 6.835 1.81 13.184 5.37 18.874 2.846 4.547 6.816 8.685 11.79 12.299 8.509 6.176 16.772 8.59 17.12 8.692.071.024.15.024.222 0 .363-.102 9.03-2.602 17.72-8.685 5.149-3.605 9.26-7.744 12.21-12.29A34.092 34.092 0 0094 42.132v-19.91a.396.396 0 00-.237-.36l-.23-.102A167.744 167.744 0 0159.238 2.078.429.429 0 0059 2a.429.429 0 00-.238.078 168.483 168.483 0 01-34.303 19.69zM58.612 3.16L59 2.878l.387.282A169.163 169.163 0 0092.83 22.31l.388.164v19.643a33.306 33.306 0 01-5.425 18.435c-2.887 4.46-6.912 8.52-11.965 12.071-7.797 5.48-15.72 8.058-17.23 8.52l-.198.063-.19-.062c-1.455-.463-9.07-3.034-16.583-8.481-4.895-3.559-8.793-7.62-11.584-12.08-3.488-5.565-5.26-11.78-5.26-18.466V22.474l.388-.165a169.91 169.91 0 0017.421-8.7A169.15 169.15 0 0058.612 3.16z"/></g></g></svg>