<?xml version="1.0" encoding="UTF-8"?>
<svg width="60px" height="60px" viewBox="0 0 60 60" version="1.1" xmlns="http://www.w3.org/2000/svg" xmlns:xlink="http://www.w3.org/1999/xlink">
    <!-- Generator: Sketch 49.3 (51167) - http://www.bohemiancoding.com/sketch -->
    <title>Icone / Categorie / Colore / Salute</title>
    <desc>Created with Sketch.</desc>
    <defs></defs>
    <g id="Icone-/-Categorie-/-Colore-/-Salute" stroke="none" stroke-width="1" fill="none" fill-rule="evenodd">
        <g>
            <g>
                <path d="M52.1191,51.0918 L20.6791,51.0918 L20.6791,46.9528 L21.9251,48.8908 C21.9511,48.9298 21.9841,48.9608 22.0141,48.9958 C22.0361,49.0218 22.0541,49.0498 22.0781,49.0728 C22.1561,49.1468 22.2451,49.2028 22.3411,49.2478 C22.3701,49.2628 22.3991,49.2728 22.4301,49.2828 C22.5301,49.3198 22.6351,49.3448 22.7441,49.3468 C22.7531,49.3468 22.7601,49.3518 22.7681,49.3518 L50.0391,49.3518 C50.5921,49.3518 51.0391,48.9038 51.0391,48.3518 L51.0391,12.2718 C51.0391,11.7198 50.5921,11.2718 50.0391,11.2718 L44.0011,11.2718 L44.0011,9.9718 L52.1191,9.9718 L52.1191,51.0918 Z M16.8061,35.1768 C17.1651,35.1768 17.4961,34.9858 17.6741,34.6738 L18.3201,33.5468 L20.5491,38.0318 C20.7191,38.3738 21.0681,38.5868 21.4441,38.5868 C21.4741,38.5868 21.5051,38.5858 21.5351,38.5828 C21.9461,38.5458 22.2911,38.2598 22.4061,37.8628 L23.9291,32.5708 L25.1581,36.8718 C25.2691,37.2608 25.6021,37.5438 26.0031,37.5908 C26.4041,37.6368 26.7941,37.4388 26.9921,37.0868 L28.0621,35.1768 L30.0491,35.1768 L22.7661,46.5008 L15.4841,35.1768 L16.8061,35.1768 Z M12.1271,29.9568 C11.3731,28.7848 11.1391,27.3938 11.4681,26.0398 C11.7961,24.6858 12.6411,23.5558 13.8481,22.8598 C15.9841,21.6268 18.6761,22.1098 20.2511,24.0058 L21.9971,26.1088 C22.0041,26.1168 22.0161,26.1198 22.0241,26.1288 C22.2071,26.3308 22.4651,26.4628 22.7591,26.4628 C22.9071,26.4628 23.0441,26.4268 23.1701,26.3698 C23.2261,26.3468 23.2681,26.3018 23.3191,26.2698 C23.3741,26.2308 23.4331,26.1988 23.4791,26.1508 C23.4961,26.1338 23.5201,26.1268 23.5361,26.1088 L25.2821,24.0058 C26.8561,22.1088 29.5511,21.6268 31.6851,22.8598 C32.8911,23.5558 33.7371,24.6858 34.0651,26.0398 C34.3931,27.3938 34.1591,28.7848 33.4061,29.9568 L31.3361,33.1768 L27.4761,33.1768 C27.1151,33.1768 26.7811,33.3718 26.6041,33.6878 L26.4211,34.0138 L24.8941,28.6678 C24.7721,28.2378 24.3661,27.9258 23.9331,27.9418 C23.4871,27.9418 23.0951,28.2368 22.9721,28.6658 L21.1951,34.8378 L19.2791,30.9818 C19.1151,30.6518 18.7821,30.4388 18.4131,30.4268 C18.0431,30.4408 17.7001,30.6098 17.5151,30.9298 L16.2271,33.1768 L14.1981,33.1768 L12.1271,29.9568 Z M20.6791,9.9718 L28.8011,9.9718 L28.8011,11.2718 L22.7591,11.2718 C22.2071,11.2718 21.7591,11.7198 21.7591,12.2718 L21.7591,22.6968 C21.4321,22.3088 21.0661,21.9768 20.6791,21.6758 L20.6791,9.9718 Z M30.8011,6.9998 L42.0011,6.9998 L42.0011,8.9618 C42.0011,8.9658 41.9991,8.9678 41.9991,8.9718 C41.9991,8.9748 42.0011,8.9778 42.0011,8.9818 L42.0011,12.2618 C42.0011,12.2658 41.9991,12.2688 41.9991,12.2718 C41.9991,12.2758 42.0011,12.2788 42.0011,12.2818 L42.0011,12.9198 L30.8011,12.9198 L30.8011,6.9998 Z M28.6241,41.0908 L44.6771,41.0908 C45.2291,41.0908 45.6771,40.6438 45.6771,40.0908 C45.6771,39.5378 45.2291,39.0908 44.6771,39.0908 L29.9101,39.0908 L32.4271,35.1768 L37.8901,35.1768 C38.4421,35.1768 38.8901,34.7298 38.8901,34.1768 C38.8901,33.6238 38.4421,33.1768 37.8901,33.1768 L33.7131,33.1768 L35.0881,31.0388 C35.4441,30.4848 35.7111,29.8918 35.8991,29.2808 L41.4901,29.2808 C42.0431,29.2808 42.4901,28.8328 42.4901,28.2808 C42.4901,27.7288 42.0431,27.2808 41.4901,27.2808 L36.2031,27.2808 C36.2061,26.7118 36.1471,26.1378 36.0101,25.5688 C35.8161,24.7728 35.4891,24.0378 35.0571,23.3758 L44.6771,23.3758 C45.2291,23.3758 45.6771,22.9278 45.6771,22.3758 C45.6771,21.8228 45.2291,21.3758 44.6771,21.3758 L33.0691,21.3758 C32.9421,21.2908 32.8181,21.2038 32.6851,21.1278 C29.7081,19.4088 25.9611,20.0768 23.7591,22.7128 L23.7591,13.2718 L28.8011,13.2718 L28.8011,13.9198 C28.8011,14.4718 29.2481,14.9198 29.8011,14.9198 L43.0011,14.9198 C43.5541,14.9198 44.0011,14.4718 44.0011,13.9198 L44.0011,13.2718 L49.0391,13.2718 L49.0391,47.3518 L24.5981,47.3518 L28.6241,41.0908 Z M53.1191,7.9718 L44.0011,7.9718 L44.0011,5.9998 C44.0011,5.4478 43.5541,4.9998 43.0011,4.9998 L29.8011,4.9998 C29.2481,4.9998 28.8011,5.4478 28.8011,5.9998 L28.8011,7.9718 L19.6791,7.9718 C19.1271,7.9718 18.6791,8.4198 18.6791,8.9718 L18.6791,20.5768 C16.8031,19.9248 14.6801,20.0708 12.8481,21.1278 C11.1621,22.1008 9.9821,23.6778 9.5241,25.5688 C9.0651,27.4598 9.3921,29.4028 10.4451,31.0388 L11.8191,33.1768 L5.0001,33.1768 C4.4481,33.1768 4.0001,33.6238 4.0001,34.1768 C4.0001,34.7298 4.4481,35.1768 5.0001,35.1768 L13.1061,35.1768 L18.6791,43.8428 L18.6791,52.0918 C18.6791,52.6448 19.1271,53.0918 19.6791,53.0918 L53.1191,53.0918 C53.6721,53.0918 54.1191,52.6448 54.1191,52.0918 L54.1191,8.9718 C54.1191,8.4198 53.6721,7.9718 53.1191,7.9718 Z" id="Fill-1" fill="#5073D3"></path>
                <rect id="Rectangle" fill-opacity="0" fill="#FFFFFF" x="0" y="0" width="60" height="60"></rect>
            </g>
        </g>
    </g>
</svg>