<?xml version="1.0" encoding="UTF-8"?>
<svg width="60px" height="60px" viewBox="0 0 60 60" version="1.1" xmlns="http://www.w3.org/2000/svg" xmlns:xlink="http://www.w3.org/1999/xlink">
    <!-- Generator: Sketch 49.3 (51167) - http://www.bohemiancoding.com/sketch -->
    <title>Icone / Categorie / Colore / Sport</title>
    <desc>Created with Sketch.</desc>
    <defs></defs>
    <g id="Icone-/-Categorie-/-Colore-/-Sport" stroke="none" stroke-width="1" fill="none" fill-rule="evenodd">
        <g>
            <g>
                <path d="M36.4307,41.904 L32.8177,42.282 L33.2757,40.869 C33.4117,40.449 33.2557,39.988 32.8907,39.737 L28.2317,36.532 C26.7127,35.485 25.8417,33.849 25.7337,32.127 C27.5387,33.161 29.5977,33.723 31.6897,33.723 L33.6147,33.723 L38.5447,37.652 L36.4307,41.904 Z M32.5657,50.707 C32.7397,50.999 33.0497,51.182 33.3887,51.194 L36.5227,51.306 L36.7307,52.736 L29.4327,52.736 L32.1557,44.326 C32.1907,44.33 32.2227,44.345 32.2587,44.345 C32.2937,44.345 32.3287,44.343 32.3637,44.34 L35.3757,44.024 L32.5297,49.75 C32.3777,50.054 32.3917,50.415 32.5657,50.707 Z M22.9497,42.734 L21.3937,41.221 L23.4667,37.541 L24.8817,35.853 C25.4377,36.748 26.1777,37.546 27.0977,38.179 L27.4287,38.406 L22.9497,42.734 Z M14.9477,36.087 L12.0757,38.107 L10.7007,37.571 L14.9387,32.796 L21.3247,37.269 L19.9107,39.778 L16.2207,36.187 C15.8767,35.852 15.3417,35.808 14.9477,36.087 Z M29.1767,23.258 C29.3947,23.365 29.6177,23.46 29.8397,23.529 C30.8387,23.835 31.9217,23.786 32.8897,23.391 C33.4007,23.182 33.6457,22.598 33.4367,22.087 C33.2277,21.577 32.6437,21.331 32.1327,21.54 C31.5837,21.764 30.9957,21.792 30.4277,21.617 C30.2257,21.555 30.0097,21.456 29.8207,21.339 L25.7127,18.771 C25.3597,18.55 24.9087,18.57 24.5767,18.823 L21.5257,21.145 L20.1577,19.802 L24.1967,15.7 C24.4717,15.421 24.8737,15.316 25.2487,15.432 L34.8297,18.594 C37.2147,19.385 38.6297,21.837 38.1207,24.296 C37.7447,26.11 36.9047,27.809 35.6907,29.209 L33.5077,31.723 L31.6897,31.723 C29.6697,31.723 27.6837,31.094 26.0267,29.951 C26.1057,29.711 26.1827,29.47 26.2957,29.236 L29.1767,23.258 Z M18.6977,23.298 C18.4057,23.52 18.0067,23.532 17.7687,23.326 C17.5667,23.151 17.5177,22.948 17.5117,22.809 C17.5037,22.614 17.5767,22.424 17.7137,22.285 L18.7547,21.227 L19.9167,22.37 L18.6977,23.298 Z M41.7317,28.715 L44.8227,28.61 L44.9267,30.592 L40.1457,31.491 C39.7567,31.565 39.3687,31.419 39.1267,31.112 L37.9007,29.599 C38.7217,28.461 39.3507,27.197 39.7627,25.854 L40.7867,28.127 C40.9527,28.496 41.3327,28.742 41.7317,28.715 Z M48.5497,28.485 C48.7327,28.47 48.9177,28.541 49.0567,28.669 C49.1957,28.796 49.2767,28.968 49.2847,29.157 C49.3017,29.505 49.0557,29.816 48.7167,29.881 L46.9097,30.22 L46.8217,28.544 L48.5497,28.485 Z M35.4027,32.591 L36.6167,31.192 L37.5567,32.352 C38.1437,33.092 39.0247,33.51 39.9447,33.51 C40.1347,33.51 40.3267,33.493 40.5167,33.456 L49.0867,31.845 C50.4007,31.596 51.3447,30.401 51.2837,29.065 C51.2497,28.343 50.9377,27.678 50.4047,27.191 C49.8707,26.704 49.1767,26.455 48.4707,26.487 L42.3347,26.693 L39.9937,21.502 C39.9917,21.496 39.9857,21.492 39.9827,21.486 C39.3907,19.296 37.7427,17.453 35.4587,16.696 L26.3197,13.669 L25.8357,13.52 C24.7457,13.185 23.5697,13.484 22.7707,14.298 L18.0327,19.111 C18.0317,19.112 18.0307,19.112 18.0297,19.113 C18.0287,19.114 18.0287,19.115 18.0277,19.116 L16.2887,20.882 C15.7667,21.411 15.4837,22.142 15.5137,22.888 C15.5437,23.644 15.8807,24.338 16.4617,24.84 C17.4147,25.663 18.8647,25.683 19.9087,24.889 L25.2387,20.833 L27.4557,22.218 L24.4937,28.368 C23.6447,30.131 23.5057,32.054 23.9857,33.81 L22.4637,35.625 L15.3567,30.646 C14.9397,30.356 14.3717,30.422 14.0347,30.801 L8.2517,37.316 C8.0347,37.561 7.9517,37.896 8.0277,38.215 C8.1047,38.532 8.3317,38.793 8.6367,38.912 L11.8477,40.166 C12.1597,40.288 12.5127,40.246 12.7867,40.051 L15.4197,38.199 L22.2497,44.843 C22.4437,45.032 22.6957,45.127 22.9467,45.127 C23.1977,45.127 23.4477,45.033 23.6417,44.845 L29.1087,39.563 L31.1427,40.963 L27.1067,53.428 C27.0077,53.732 27.0607,54.065 27.2487,54.324 C27.4367,54.583 27.7377,54.736 28.0577,54.736 L37.8877,54.736 C38.1777,54.736 38.4537,54.61 38.6437,54.39 C38.8337,54.171 38.9187,53.88 38.8767,53.592 L38.3817,50.192 C38.3117,49.715 37.9097,49.354 37.4277,49.338 L35.0117,49.251 L40.6957,37.819 C40.9057,37.397 40.7917,36.885 40.4227,36.592 L35.4027,32.591 Z" id="Fill-1" fill="#5073D3"></path>
                <path d="M37.4092,7.5192 C37.9712,7.1772 38.6022,7.0002 39.2432,7.0002 C39.5222,7.0002 39.8032,7.0342 40.0812,7.1012 C41.7792,7.5112 42.8822,9.0922 42.7652,10.7802 L36.4142,8.4292 C36.6812,8.0702 37.0152,7.7592 37.4092,7.5192 M41.0912,13.5512 C40.2862,14.0422 39.3362,14.1932 38.4202,13.9702 C37.5022,13.7482 36.7262,13.1822 36.2342,12.3762 C35.8502,11.7472 35.6832,11.0292 35.7312,10.3082 L42.0732,12.6562 C41.8082,13.0082 41.4792,13.3142 41.0912,13.5512 M37.9492,15.9142 C38.3842,16.0192 38.8242,16.0712 39.2612,16.0712 C40.2652,16.0712 41.2542,15.7952 42.1342,15.2582 C43.1682,14.6262 43.9312,13.6852 44.3702,12.5782 C44.3912,12.5402 44.4192,12.5062 44.4342,12.4642 C44.4502,12.4222 44.4452,12.3802 44.4542,12.3382 C44.5122,12.1702 44.5862,12.0112 44.6292,11.8362 C45.3462,8.8712 43.5162,5.8752 40.5522,5.1582 C39.1152,4.8092 37.6292,5.0422 36.3672,5.8122 C35.1062,6.5822 34.2202,7.7972 33.8722,9.2342 C33.5252,10.6702 33.7572,12.1572 34.5272,13.4182 C35.2972,14.6802 36.5132,15.5662 37.9492,15.9142" id="Fill-3" fill="#5073D3"></path>
                <path d="M47.0024,52.736 C45.0544,52.736 43.4694,51.151 43.4694,49.203 C43.4694,47.255 45.0544,45.67 47.0024,45.67 C48.9504,45.67 50.5364,47.255 50.5364,49.203 C50.5364,51.151 48.9504,52.736 47.0024,52.736 M47.0024,43.67 C43.9514,43.67 41.4694,46.152 41.4694,49.203 C41.4694,52.254 43.9514,54.736 47.0024,54.736 C50.0534,54.736 52.5364,52.254 52.5364,49.203 C52.5364,46.152 50.0534,43.67 47.0024,43.67" id="Fill-5" fill="#5073D3"></path>
                <rect id="Rectangle" fill-opacity="0" fill="#FFFFFF" x="0" y="0" width="60" height="60"></rect>
            </g>
        </g>
    </g>
</svg>