<?xml version="1.0" encoding="UTF-8"?>
<svg width="60px" height="60px" viewBox="0 0 60 60" version="1.1" xmlns="http://www.w3.org/2000/svg" xmlns:xlink="http://www.w3.org/1999/xlink">
    <!-- Generator: Sketch 49.3 (51167) - http://www.bohemiancoding.com/sketch -->
    <title>Icone / Categorie / Colore / Tecnologia</title>
    <desc>Created with Sketch.</desc>
    <defs></defs>
    <g id="Icone-/-Categorie-/-Colore-/-Tecnologia" stroke="none" stroke-width="1" fill="none" fill-rule="evenodd">
        <g>
            <g>
                <rect id="Rectangle" fill-opacity="0" fill="#FFFFFF" x="0" y="0" width="60" height="60"></rect>
                <path d="M53.7227,48.3027 L6.2497,48.3027 C4.8067,48.3027 3.5797,47.3567 3.1577,46.0527 L6.2727,46.0527 L53.7007,46.0527 L56.8157,46.0527 C56.3927,47.3567 55.1657,48.3027 53.7227,48.3027 Z M10.6457,43.7557 L49.3277,43.7557 L49.3277,15.6407 L10.6457,15.6407 L10.6457,43.7557 Z M7.2727,15.2567 C7.2727,13.4607 8.7337,11.9997 10.5297,11.9997 L49.4437,11.9997 C51.2397,11.9997 52.7007,13.4607 52.7007,15.2567 L52.7007,44.0527 L51.3267,44.0527 L51.3267,14.6407 C51.3267,14.0887 50.8797,13.6407 50.3267,13.6407 L9.6457,13.6407 C9.0937,13.6407 8.6457,14.0887 8.6457,14.6407 L8.6457,44.0527 L7.2727,44.0527 L7.2727,15.2567 Z M57.9727,44.0527 L54.7007,44.0527 L54.7007,15.2567 C54.7007,12.3577 52.3417,9.9997 49.4437,9.9997 L10.5297,9.9997 C7.6307,9.9997 5.2727,12.3577 5.2727,15.2567 L5.2727,44.0527 L1.9997,44.0527 C1.4477,44.0527 0.9997,44.5007 0.9997,45.0527 C0.9997,47.9477 3.3547,50.3027 6.2497,50.3027 L53.7227,50.3027 C56.6177,50.3027 58.9727,47.9477 58.9727,45.0527 C58.9727,44.5007 58.5247,44.0527 57.9727,44.0527 Z" id="Fill-1" fill="#5073D3"></path>
                <path d="M28.77,23.4204 C29.812,23.4204 30.659,24.2684 30.659,25.3094 C30.659,26.3514 29.812,27.1984 28.77,27.1984 C27.728,27.1984 26.881,26.3514 26.881,25.3094 C26.881,24.2684 27.728,23.4204 28.77,23.4204 M28.77,29.1984 C30.914,29.1984 32.659,27.4534 32.659,25.3094 C32.659,23.1654 30.914,21.4204 28.77,21.4204 C26.625,21.4204 24.881,23.1654 24.881,25.3094 C24.881,27.4534 26.625,29.1984 28.77,29.1984" id="Fill-4" fill="#5073D3"></path>
                <path d="M35.343,40.1027 L42.629,40.1027 L42.629,34.4677 L35.343,34.4677 L35.343,40.1027 Z M33.223,36.7937 C33.165,36.8257 33.107,36.8597 32.992,36.9127 C32.009,37.4177 30.971,37.7367 29.896,37.8597 C29.756,37.8777 29.608,37.8947 29.45,37.9057 C29.226,37.9227 29.002,37.9317 28.77,37.9317 C28.477,37.9317 28.186,37.9167 27.897,37.8897 C27.802,37.8807 27.708,37.8637 27.614,37.8517 C27.422,37.8277 27.229,37.8037 27.04,37.7677 C26.929,37.7467 26.82,37.7177 26.71,37.6927 C26.54,37.6547 26.369,37.6147 26.202,37.5667 C26.086,37.5337 25.974,37.4937 25.859,37.4557 C25.701,37.4037 25.542,37.3487 25.386,37.2877 C25.271,37.2417 25.158,37.1927 25.044,37.1417 C24.894,37.0757 24.745,37.0067 24.598,36.9327 C24.484,36.8747 24.373,36.8147 24.262,36.7517 C24.119,36.6727 23.979,36.5887 23.839,36.5007 C23.73,36.4327 23.622,36.3617 23.515,36.2877 C23.379,36.1947 23.246,36.0957 23.114,35.9947 C23.01,35.9147 22.907,35.8347 22.806,35.7507 C22.761,35.7137 22.72,35.6737 22.676,35.6357 C23.954,33.5347 26.272,32.2117 28.77,32.2117 C30.458,32.2117 32.064,32.8067 33.343,33.8827 L33.343,36.7227 C33.301,36.7457 33.268,36.7697 33.223,36.7937 Z M28.77,19.2917 C33.198,19.2917 36.944,22.3687 37.868,26.5957 C35.5,27.0737 33.667,29.0387 33.384,31.4717 C31.998,30.6567 30.415,30.2117 28.77,30.2117 C25.763,30.2117 22.966,31.7187 21.281,34.1357 C20.098,32.5607 19.449,30.6447 19.449,28.6117 C19.449,23.4727 23.63,19.2917 28.77,19.2917 Z M42.629,32.1257 L42.629,32.4677 L35.343,32.4677 L35.343,32.1257 C35.343,30.1177 36.977,28.4837 38.986,28.4837 C40.995,28.4837 42.629,30.1177 42.629,32.1257 Z M39.897,26.5637 C38.928,21.2257 34.286,17.2917 28.77,17.2917 C22.527,17.2917 17.449,22.3697 17.449,28.6117 C17.449,31.6047 18.592,34.4007 20.668,36.4947 C20.679,36.5077 20.686,36.5127 20.696,36.5247 C20.752,36.5897 20.806,36.6447 20.848,36.6847 C22.977,38.7787 25.79,39.9317 28.77,39.9317 C29.057,39.9317 29.333,39.9207 29.59,39.8997 C29.771,39.8887 29.963,39.8667 30.134,39.8457 C31.251,39.7167 32.336,39.4047 33.343,38.9507 L33.343,41.1027 C33.343,41.6547 33.791,42.1027 34.343,42.1027 L43.629,42.1027 C44.181,42.1027 44.629,41.6547 44.629,41.1027 L44.629,33.4677 L44.629,32.1257 C44.629,29.3257 42.576,27.0017 39.897,26.5637 Z" id="Fill-6" fill="#5073D3"></path>
                <path d="M38.9858,39.0073 C39.5378,39.0073 39.9858,38.5593 39.9858,38.0073 L39.9858,36.4593 C39.9858,35.9073 39.5378,35.4593 38.9858,35.4593 C38.4338,35.4593 37.9858,35.9073 37.9858,36.4593 L37.9858,38.0073 C37.9858,38.5593 38.4338,39.0073 38.9858,39.0073" id="Fill-8" fill="#5073D3"></path>
            </g>
        </g>
    </g>
</svg>