<?xml version="1.0" encoding="UTF-8"?>
<svg width="101px" height="85px" viewBox="0 0 101 85" version="1.1" xmlns="http://www.w3.org/2000/svg" xmlns:xlink="http://www.w3.org/1999/xlink">
    <!-- Generator: Sketch 54.1 (76490) - https://sketchapp.com -->
    <title>Product Icon/Fido/Big</title>
    <desc>Created with Sketch.</desc>
    <g id="Preventivatore-viaggi" stroke="none" stroke-width="1" fill="none" fill-rule="evenodd">
        <g id="viaggi-plus---desktop-New" transform="translate(-912.000000, -210.000000)">
            <g id="Product-Icon/Volo/Big" transform="translate(912.000000, 208.000000)">
                <g id="Group-5" transform="translate(0.000000, 3.000000)">
                    <circle id="Oval" fill="#FFD505" opacity="0.35" cx="30" cy="38" r="30"></circle>
                    <g id="Viaggi_Silver" transform="translate(21.000000, 0.000000)" stroke="#4A4A4A">
                        <path d="M58.5375394,32.0979275 C58.1453835,32.3141844 57.7532275,32.4032761 57.3717321,32.4032761 C56.1853651,32.4032761 55.1185486,31.5329183 54.5809523,30.8727257 C54.3715486,30.6176339 54.3464202,30.2582211 54.5162275,29.9757165 L56.3498422,26.9092853 C52.0536404,24.023322 46.8840349,22.3397165 41.319989,22.3397165 C26.4127321,22.3397165 14.3267138,34.4249734 14.3267138,49.3322303 C14.3267138,64.2402486 26.4127321,76.324744 41.319989,76.324744 C56.2280073,76.324744 68.3132642,64.2402486 68.3132642,49.3322303 C68.3132642,41.9056339 65.3115578,35.1803495 60.4579615,30.3001018 C59.6241541,31.2054872 58.927411,31.885478 58.5375394,32.0979275 Z" id="Stroke-1"></path>
                        <path d="M41.3196844,22.3394119 L41.3196844,76.3244394" id="Stroke-3"></path>
                        <path d="M41.4691606,76.2058028 C31.0614174,71.7276101 25.5742798,61.3807844 25.5742798,49.332078 C25.5742798,37.2582431 31.0926376,26.8931422 41.5346468,22.4301789" id="Stroke-5"></path>
                        <path d="M41.8350459,76.2058028 C52.242789,71.7276101 57.7306881,61.3807844 57.7306881,49.332078 C57.7306881,37.2582431 52.2123303,26.8931422 41.7695596,22.4301789" id="Stroke-7"></path>
                        <path d="M68.6455688,48.9996972 L14.6597798,48.9996972" id="Stroke-9"></path>
                        <path d="M18.9025266,64.520545 C25.1633156,61.1061229 33.0627835,60.5791872 41.6483339,60.5791872 C49.9483339,60.5791872 57.6064165,60.9926642 63.7636459,64.1877835" id="Stroke-11"></path>
                        <path d="M18.8489193,34.1145991 C25.1180844,37.5488193 33.0388734,38.0848927 41.6480294,38.0848927 C49.9807725,38.0848927 57.6662679,37.6584706 63.8349193,34.4397459" id="Stroke-13"></path>
                        <path d="M57.3715037,32.4035807 C56.1851367,32.4035807 55.1183202,31.5324615 54.5807239,30.8722688 C54.3720817,30.6171771 54.3461917,30.2585257 54.5159991,29.9760211 L61.5595771,18.1968743 L56.5879532,14.7436174 L52.1683936,17.1270119 C51.8622835,17.2922505 51.4845954,17.2359018 51.2401642,16.9884248 L49.3684761,15.0969385 C49.2047606,14.9324615 49.122522,14.7024982 49.1453661,14.4710119 C49.1689716,14.2395257 49.2915679,14.030122 49.4849807,13.8991495 C50.4383385,13.2503789 53.0608339,11.3535624 53.7271183,10.3956358 C54.3050725,9.57325046 54.8952101,6.13065413 55.1312651,4.15236055 C55.1662927,3.86376422 55.3581826,3.61628716 55.6300266,3.51425046 C55.9033936,3.40992936 56.2102651,3.46551651 56.428045,3.65969083 L58.6012743,5.58925046 C58.7680358,5.73545229 58.8632193,5.94561743 58.8655037,6.16720459 L58.9005312,10.3179661 L64.8719624,12.9107642 L71.4411459,0.790479817 C71.6254211,0.448580734 72.032045,0.29476422 72.3967881,0.428021101 C72.4851183,0.46076422 74.5426046,1.23136972 74.9903477,3.24697523 C75.3368156,4.85367248 72.5818248,13.0973239 71.4289624,16.4295073 C72.8696596,17.3067183 76.6929899,19.6330028 77.3173936,20.0213514 C79.5599165,21.3950394 79.3550817,23.3040394 78.7885495,24.6647826 C77.7110725,27.251489 75.5051,26.5501771 74.6735771,26.2874706 C74.5616413,26.2509202 74.4603661,26.2174156 74.3773661,26.1991404 C73.6798615,26.0415165 69.3821367,23.6817275 67.0314853,22.3720028 C65.2077697,24.6975257 59.9346046,31.3352413 58.537311,32.0982321 C58.1459165,32.314489 57.7529991,32.4035807 57.3715037,32.4035807 Z" id="Stroke-15"></path>
                        <path d="M18.9010037,82.8991817 C7.75539817,75.6857963 0.380581651,63.1459431 0.380581651,48.8821266 C0.380581651,26.5208606 18.5080862,8.3925945 40.8701138,8.3925945 C45.298811,8.3925945 49.5622697,9.10456697 53.5508385,10.4180991" id="Stroke-17"></path>
                    </g>
                </g>
            </g>
        </g>
    </g>
</svg>