<?xml version="1.0" encoding="UTF-8"?>
<svg width="60px" height="60px" viewBox="0 0 60 60" version="1.1" xmlns="http://www.w3.org/2000/svg" xmlns:xlink="http://www.w3.org/1999/xlink">
    <!-- Generator: Sketch 49.3 (51167) - http://www.bohemiancoding.com/sketch -->
    <title>Icone / Categorie / Colore / Viaggi</title>
    <desc>Created with Sketch.</desc>
    <defs></defs>
    <g id="Icone-/-Categorie-/-Colore-/-Viaggi" stroke="none" stroke-width="1" fill="none" fill-rule="evenodd">
        <g>
            <g>
                <path d="M49.3523,17.1773 C48.7633,17.9673 48.0603,18.6353 47.2793,19.1543 C47.1263,19.2513 46.9733,19.3493 46.8173,19.4393 L30.7803,28.6983 L30.6443,28.7773 L21.5163,34.0473 C21.2123,34.2223 21.0223,34.5453 21.0163,34.8963 L20.9253,40.2773 L18.2793,41.8053 L17.1843,34.2063 C17.1473,33.9513 17.0143,33.7213 16.8123,33.5633 L10.7793,28.8153 L13.4253,27.2863 L18.9983,30.3803 C19.3053,30.5503 19.6793,30.5473 19.9833,30.3713 L44.8393,16.0203 C44.9983,15.9293 45.1583,15.8453 45.3013,15.7713 C46.9273,14.9663 48.7383,14.7153 50.4913,15.0383 C50.2183,15.8013 49.8373,16.5173 49.3523,17.1773 Z M37.5113,41.5763 L35.1953,28.4593 L40.1233,25.6143 L37.5113,41.5763 Z M32.2503,30.1583 L33.3523,29.5233 L36.4433,47.0223 L35.3413,47.6573 L32.2503,30.1583 Z M11.8943,36.8313 L13.5633,33.5513 L15.2613,34.8873 L15.5693,37.0253 L11.8943,36.8313 Z M15.7683,11.2123 L29.3773,22.6373 L28.2753,23.2743 L14.6663,11.8483 L15.7683,11.2123 Z M31.2193,21.5733 L21.0193,13.0103 L36.1473,18.7293 L31.2193,21.5733 Z M52.0353,13.3613 C49.5063,12.5793 46.7993,12.7983 44.3973,13.9873 C44.2103,14.0843 44.0253,14.1813 43.8413,14.2863 L38.3853,17.4373 L16.2283,9.0603 C16.2193,9.0563 16.2083,9.0593 16.2003,9.0563 C16.0773,9.0133 15.9503,8.9963 15.8223,9.0033 C15.8113,9.0043 15.8013,8.9993 15.7903,9.0003 C15.6543,9.0113 15.5213,9.0553 15.3993,9.1223 C15.3913,9.1263 15.3823,9.1253 15.3743,9.1293 L12.4303,10.8293 C12.1483,10.9933 11.9623,11.2833 11.9343,11.6083 C11.9063,11.9333 12.0383,12.2523 12.2883,12.4613 L26.4333,24.3383 L19.4733,28.3563 L13.9013,25.2623 C13.5933,25.0923 13.2183,25.0963 12.9153,25.2713 L8.4993,27.8213 C8.2123,27.9873 8.0263,28.2853 8.0023,28.6163 C7.9783,28.9473 8.1213,29.2683 8.3813,29.4733 L11.9603,32.2893 L9.4143,37.2953 C9.2603,37.5963 9.2703,37.9553 9.4393,38.2483 C9.6093,38.5413 9.9143,38.7293 10.2523,38.7473 L15.8603,39.0433 L16.5093,43.5523 C16.5573,43.8813 16.7643,44.1643 17.0633,44.3093 C17.2013,44.3763 17.3503,44.4093 17.4993,44.4093 C17.6723,44.4093 17.8453,44.3643 17.9993,44.2763 L22.4153,41.7263 C22.7193,41.5503 22.9103,41.2283 22.9153,40.8773 L23.0063,35.4963 L30.4083,31.2223 L33.6213,49.4113 C33.6773,49.7333 33.8873,50.0063 34.1823,50.1443 C34.3173,50.2063 34.4613,50.2383 34.6053,50.2383 C34.7783,50.2383 34.9513,50.1933 35.1053,50.1043 L38.0493,48.4043 C38.0563,48.4003 38.0603,48.3913 38.0673,48.3873 C38.1873,48.3143 38.2913,48.2213 38.3703,48.1083 C38.3763,48.0983 38.3783,48.0853 38.3843,48.0753 C38.4533,47.9703 38.5003,47.8533 38.5253,47.7273 C38.5273,47.7173 38.5353,47.7093 38.5373,47.6993 L42.3613,24.3223 L47.8173,21.1713 C47.9983,21.0673 48.1753,20.9543 48.3693,20.8313 C49.3593,20.1753 50.2293,19.3473 50.9593,18.3673 C51.8073,17.2163 52.3983,15.9273 52.7143,14.5393 C52.8313,14.0293 52.5353,13.5163 52.0353,13.3613 Z" id="Fill-1" fill="#5073D3"></path>
                <rect id="Rectangle" fill-opacity="0" fill="#FFFFFF" x="0" y="0" width="60" height="60"></rect>
            </g>
        </g>
    </g>
</svg>