<?xml version="1.0" encoding="UTF-8"?>
<svg width="90px" height="181px" viewBox="0 0 90 181" version="1.1" xmlns="http://www.w3.org/2000/svg" xmlns:xlink="http://www.w3.org/1999/xlink">
    <!-- Generator: Sketch 54.1 (76490) - https://sketchapp.com -->
    <title>Group</title>
    <desc>Created with Sketch.</desc>
    <g id="PET-NET-INtesa" stroke="none" stroke-width="1" fill="none" fill-rule="evenodd">
        <g id="Step-1---Dati-assicurazione" transform="translate(-49.000000, -232.000000)">
            <g id="Group" transform="translate(49.000000, 232.000000)">
                <g transform="translate(21.000000, 4.000000)" fill-rule="nonzero" id="Path">
                    <path d="M47.5688742,170.809585 C47.7059603,170.763731 47.8430464,170.763731 47.9344371,170.717876 C47.9344371,171.268135 47.9344371,171.772539 47.9344371,172.322798 L27.0516556,176.72487 C27.1430464,176.312176 27.2801325,175.899482 27.4629139,175.532642 C30.7072848,174.477979 34.1344371,173.83601 37.4701987,173.102332 C38.018543,173.010622 38.5211921,172.873057 39.0695364,172.735492 C41.902649,172.139378 44.7357616,171.497409 47.5688742,170.809585 Z" fill="#E6E5E5"></path>
                    <path d="M46.1066225,165.994819 C46.3350993,165.903109 46.5635762,165.857254 46.792053,165.811399 C46.9291391,165.811399 47.0205298,165.765544 47.1576159,165.765544 C47.294702,167.462176 47.4317881,169.158808 47.6145695,170.809585 C44.781457,171.451554 41.9483444,172.093523 39.1152318,172.781347 C38.5668874,172.918912 38.0642384,173.010622 37.515894,173.148187 C37.7443709,172.873057 38.1099338,172.689637 38.4754967,172.506218 C39.5721854,171.910104 40.4403974,170.94715 40.897351,169.800777 C41.3086093,168.791969 41.4,167.599741 41.1258278,166.545078 C41.5370861,166.774352 41.902649,167.095337 42.0854305,167.508031 C42.405298,168.104145 42.5423841,168.975389 43.2278146,169.158808 C43.8218543,169.296373 44.3701987,168.791969 44.5986755,168.24171 C44.8271523,167.691451 44.918543,167.049482 45.3298013,166.590933 C45.5125828,166.315803 45.786755,166.132383 46.1066225,165.994819 Z" fill="#263E83"></path>
                    <path d="M62.7397351,139.215544 C63.0139073,138.71114 63.2423841,138.252591 63.5165563,137.748187 C64.8874172,135.042746 66.3039735,132.337306 67.6748344,129.631865 C68.0860927,129.95285 68.497351,130.319689 68.9086093,130.686528 L58.8099338,149.532902 C58.5357616,149.211917 58.3529801,148.845078 58.1701987,148.478238 C59.4039735,145.314249 61.1403974,142.241969 62.7397351,139.215544 Z" fill="#E6E5E5"></path>
                    <path d="M41.0801325,166.545078 C40.897351,166.453368 40.7145695,166.361658 40.4860927,166.315803 C40.5317881,165.35285 40.5774834,164.389896 40.6688742,163.426943 C42.405298,163.656218 44.1874172,163.702073 45.9238411,163.564508 C45.9695364,164.389896 46.0152318,165.16943 46.1066225,165.994819 C45.786755,166.132383 45.4668874,166.315803 45.284106,166.590933 C44.918543,167.049482 44.8271523,167.691451 44.5529801,168.24171 C44.3245033,168.791969 43.7304636,169.342228 43.1821192,169.158808 C42.4966887,168.975389 42.3596026,168.104145 42.0397351,167.508031 C41.8112583,167.141192 41.4913907,166.774352 41.0801325,166.545078 Z" fill="#F8D0A3"></path>
                    <path d="M60.6377483,133.529534 C60.2721854,133.208549 59.8609272,132.84171 59.4953642,132.520725 C59.6781457,132.383161 59.8609272,132.291451 60.0437086,132.245596 C61.0490066,132.75 61.8715232,133.529534 62.3741722,134.538342 C62.9682119,135.63886 63.105298,136.922798 62.8768212,138.115026 C62.7854305,138.481865 62.6940397,138.89456 62.7397351,139.261399 C61.1403974,142.287824 59.4039735,145.360104 58.1245033,148.524093 C57.6218543,147.46943 57.4390728,146.231347 57.4847682,145.039119 C57.5304636,143.342487 58.0331126,141.69171 58.581457,140.086788 C58.8556291,139.307254 59.1298013,138.52772 59.4039735,137.702332 C59.586755,137.106218 59.9980132,136.234974 59.9523179,135.593005 C59.9066225,134.905181 59.3582781,134.079793 58.6728477,133.575389 C58.7642384,133.391969 58.8556291,133.254404 58.9470199,133.116839 L58.9470199,133.116839 C59.4039735,133.391969 59.9066225,133.667098 60.3635762,133.942228 L60.6377483,133.529534 Z" fill="#263E83"></path>
                    <path d="M45.9238411,163.564508 C44.1874172,163.702073 42.405298,163.656218 40.6688742,163.426943 C40.0291391,163.335233 39.3437086,163.197668 38.7039735,163.060104 C36.4649007,149.395337 34.4086093,135.684715 33.7231788,121.836528 L33.7231788,121.836528 C34.6370861,122.249223 35.5509934,122.661917 36.4649007,123.028756 C38.7039735,123.99171 40.9430464,124.908808 43.2278146,125.871762 C42.1311258,136.143264 43.2278146,146.644041 46.4721854,156.456995 C46.6092715,158.795596 46.792053,161.134197 46.9748344,163.472798 C46.6092715,163.518653 46.2437086,163.564508 45.9238411,163.564508 Z" fill="#CCCBCB"></path>
                    <path d="M62.8311258,127.981088 C62.9225166,127.751813 63.0139073,127.568394 63.105298,127.339119 C63.2423841,127.06399 63.4708609,126.834715 63.6536424,126.60544 C65.0245033,127.568394 66.3039735,128.577202 67.5834437,129.631865 C66.2125828,132.337306 64.7960265,135.042746 63.4251656,137.748187 C63.1966887,138.252591 62.9225166,138.71114 62.6483444,139.215544 C62.5569536,138.848705 62.6940397,138.43601 62.7854305,138.069171 C63.0596026,136.876943 62.8768212,135.593005 62.2827815,134.492487 C61.7801325,133.529534 60.9576159,132.704145 59.9523179,132.199741 C60.4092715,132.016321 60.8662252,131.970466 61.3231788,132.062176 C62.0086093,132.199741 62.7397351,132.65829 63.3337748,132.245596 C63.8364238,131.878756 63.7907285,131.145078 63.5165563,130.594819 C63.2423841,130.04456 62.8311258,129.58601 62.6940397,128.989896 C62.6940397,128.668912 62.7397351,128.302073 62.8311258,127.981088 Z" fill="#263E83"></path>
                    <path d="M40.4860927,166.315803 C40.6688742,166.361658 40.897351,166.453368 41.0801325,166.545078 C41.3543046,167.599741 41.2629139,168.746114 40.8516556,169.800777 C40.394702,170.94715 39.5264901,171.910104 38.4298013,172.506218 C38.1099338,172.689637 37.6986755,172.873057 37.4701987,173.148187 C34.1344371,173.881865 30.7072848,174.523834 27.4629139,175.578497 C27.9655629,174.523834 28.7423841,173.560881 29.7019868,172.827202 C31.0271523,171.772539 32.6264901,171.084715 34.1801325,170.488601 C34.9569536,170.167617 35.7337748,169.892487 36.510596,169.571503 C37.1046358,169.342228 38.018543,169.067098 38.4754967,168.608549 C38.9781457,168.104145 39.2523179,167.141192 39.2066225,166.315803 C39.2066225,166.315803 39.2523179,166.315803 39.2523179,166.315803 C39.6635762,166.224093 40.0748344,166.224093 40.4860927,166.315803 Z" fill="#263E83"></path>
                    <path d="M60.0437086,132.199741 C59.8609272,132.291451 59.6781457,132.383161 59.4953642,132.47487 C58.8556291,131.878756 58.215894,131.282642 57.5761589,130.640674 C58.0331126,129.76943 58.581457,128.944041 59.084106,128.118653 C59.4953642,127.476684 59.9523179,126.834715 60.4092715,126.192746 C61.1860927,126.78886 61.9629139,127.384974 62.7854305,127.935233 C62.6940397,128.256218 62.6483444,128.623057 62.6940397,128.989896 C62.8311258,129.58601 63.2423841,130.04456 63.5165563,130.594819 C63.7907285,131.145078 63.8364238,131.924611 63.3337748,132.245596 C62.7854305,132.65829 62.0086093,132.199741 61.3231788,132.062176 C60.9576159,131.970466 60.4549669,132.062176 60.0437086,132.199741 Z" fill="#F8D0A3"></path>
                    <path d="M60.6377483,133.529534 L60.3178808,133.896373 C59.8609272,133.621244 59.4039735,133.346114 58.9013245,133.070984 C59.0384106,132.84171 59.2668874,132.65829 59.4496689,132.520725 C59.8609272,132.84171 60.2721854,133.208549 60.6377483,133.529534 Z" fill="#263E83"></path>
                    <path d="M46.7463576,127.430829 C45.7410596,137.014508 45.8781457,146.781606 46.4721854,156.50285 C43.2278146,146.689896 42.1311258,136.189119 43.2278146,125.917617 C44.3701987,126.376166 45.5582781,126.88057 46.7463576,127.430829 Z" fill="#989898"></path>
                    <path d="M57.5761589,130.686528 C57.3476821,131.099223 57.1192053,131.557772 56.8907285,131.970466 C54.194702,130.640674 51.4529801,129.494301 48.7112583,128.256218 C48.0715232,127.981088 47.3860927,127.660104 46.7463576,127.384974 C46.9748344,125.046373 47.294702,122.707772 47.6602649,120.369171 C51.7271523,122.570207 55.5655629,125.183938 59.084106,128.118653 C58.581457,128.989896 58.0788079,129.815285 57.5761589,130.686528 Z" fill="#CCCBCB"></path>
                    <path d="M61.2317881,125.183938 C60.9576159,125.504922 60.6834437,125.871762 60.4549669,126.238601 C59.7238411,125.642487 58.9927152,125.046373 58.2615894,124.358549 L58.7642384,123.579016 C59.6324503,124.08342 60.4549669,124.633679 61.2317881,125.183938 Z" fill="#989898"></path>
                    <path d="M60.4549669,126.238601 C59.9980132,126.88057 59.5410596,127.522539 59.1298013,128.164508 C55.5655629,125.229793 51.7271523,122.616062 47.7059603,120.415026 C47.8887417,119.222798 48.1172185,118.076425 48.3456954,116.884197 C51.8642384,119.039378 55.3827815,121.286269 58.8099338,123.533161 L58.3072848,124.312694 C58.9927152,125.000518 59.7238411,125.642487 60.4549669,126.238601 Z" fill="#989898"></path>
                    <path d="M48.3,116.884197 C48.0715232,118.03057 47.8430464,119.222798 47.6602649,120.415026 C47.294702,122.753627 46.9748344,125.092228 46.7463576,127.430829 C45.5582781,126.926425 44.3701987,126.422021 43.1821192,125.917617 C43.5476821,122.570207 44.0960265,119.268653 44.918543,116.012953 C47.3403974,106.245855 50.1278146,99.5968912 54.3317881,91.3888601 C52.3668874,99.4593264 50.9046358,105.282902 48.8940397,114.041192 C48.7112583,114.95829 48.4827815,115.921244 48.3,116.884197 Z" fill="#989898"></path>
                    <path d="M33.4490066,93.9108808 C33.8602649,89.2336788 34.6370861,84.5564767 35.9622517,79.65 C36.510596,79.7875648 37.1046358,79.8792746 37.6986755,79.9251295 C38.9781457,79.9709845 40.2119205,79.7875648 41.4456954,79.65 C44.6443709,79.2831606 47.8430464,79.3748705 51.0417219,79.8334197 C52.4125828,80.0168394 53.7377483,80.2919689 55.0172185,80.842228 C55.4741722,81.0256477 55.9311258,81.3007772 56.3423841,81.5759067 C56.0682119,83.8227979 55.702649,86.0238342 55.1543046,88.1790155 C54.8801325,89.3253886 54.6059603,90.4259067 54.3317881,91.434715 C50.1278146,99.688601 47.3403974,106.337565 44.918543,116.058808 C44.0960265,119.314508 43.5476821,122.616062 43.1821192,125.963472 C40.9430464,125.000518 38.6582781,124.08342 36.4192053,123.120466 C35.505298,122.753627 34.5913907,122.340933 33.6774834,121.928238 L33.6774834,121.928238 C33.6774834,121.698964 33.6774834,121.515544 33.6317881,121.286269 C33.494702,118.168135 33.3119205,115.187565 33.2205298,112.25285 C33.0377483,105.879016 32.9006623,99.8720207 33.4490066,93.9108808 Z" fill="#CCCBCB"></path>
                    <path d="M33.6774834,121.240415 C33.6774834,121.469689 33.6774834,121.653109 33.7231788,121.882383 C32.6721854,121.423834 31.6211921,120.91943 30.5701987,120.415026 C26.5490066,118.443264 22.710596,116.150518 19.2377483,113.307513 C18.5523179,112.757254 17.4556291,112.06943 17.0443709,111.244041 C16.7245033,110.693782 16.6331126,109.776684 16.5417219,109.134715 C16.2675497,107.346373 16.6331126,105.466321 17.318543,103.769689 C18.1410596,101.706218 19.4662252,99.8720207 20.7456954,98.0378238 C26.0006623,90.5634715 29.0622517,86.3906736 34.3172185,78.9163212 L34.3172185,78.9163212 C34.8198675,79.2373057 35.3225166,79.4665803 35.9165563,79.65 C35.9165563,79.65 35.9165563,79.65 35.9165563,79.65 C34.5456954,84.5564767 33.7688742,89.2336788 33.4033113,93.9108808 C31.6668874,96.5704663 30.5701987,98.3129534 28.1940397,101.889637 C27.5543046,102.852591 26.9145695,103.815544 26.7774834,104.961917 C26.5033113,107.208808 28.2854305,109.18057 30.2046358,110.418653 C31.1642384,111.060622 32.2152318,111.565026 33.2205298,112.206995 C33.4033113,115.095855 33.5403974,118.12228 33.6774834,121.240415 Z" fill="#CCCBCB"></path>
                    <path d="M36.7390728,77.0362694 L35.8708609,76.7611399 C35.3682119,77.4948187 34.8655629,78.1826425 34.3629139,78.9163212 L34.3629139,78.9163212 C34.3172185,78.8704663 34.2258278,78.8246114 34.1801325,78.7787565 C34.0430464,78.6870466 33.9059603,78.5494819 33.7688742,78.4119171 C34.9569536,74.330829 36.0536424,70.203886 36.3735099,65.9393782 C36.5562914,63.142228 36.4192053,60.3450777 36.2364238,57.5479275 C37.9728477,56.2639896 40.0291391,55.484456 42.1768212,55.2551813 C43.6847682,55.1176166 45.2384106,55.2551813 46.792053,55.2551813 C48.3,55.2551813 49.8993377,55.1176166 51.2701987,54.4297927 C52.0927152,54.0170984 52.8238411,53.4209845 53.3264901,52.6414508 L53.3264901,52.6414508 C53.6463576,52.4121762 53.9662252,52.1829016 54.2860927,51.907772 C55.3370861,50.8989637 56.0682119,49.4316062 56.2509934,48.0101036 C56.2966887,47.6432642 56.3423841,47.3222798 56.3423841,47.0012953 L56.5708609,47.0012953 C56.5708609,47.184715 56.5708609,47.3222798 56.5708609,47.5056995 C56.6622517,51.6784974 56.7993377,55.8512953 56.8907285,60.0699482 C57.0735099,67.0857513 57.2562914,74.4225389 56.3880795,81.5300518 C55.9768212,81.2549223 55.5198675,81.0256477 55.0629139,80.7963731 C53.8291391,80.246114 52.4582781,79.9709845 51.0874172,79.7875648 C47.9344371,79.3290155 44.6900662,79.2831606 41.4913907,79.6041451 C40.2576159,79.7417098 38.9781457,79.9251295 37.7443709,79.8792746 C37.1503311,79.8792746 36.5562914,79.7875648 36.007947,79.6041451 C36.1907285,78.7787565 36.4649007,77.907513 36.7390728,77.0362694 Z" fill="#263E83"></path>
                    <path d="M33.2662252,112.206995 C32.2609272,111.610881 31.2099338,111.060622 30.2503311,110.418653 C28.3311258,109.18057 26.5490066,107.208808 26.8231788,104.961917 C26.9602649,103.815544 27.6,102.852591 28.2397351,101.889637 C30.615894,98.3129534 31.7125828,96.5704663 33.4490066,93.9108808 C32.9006623,99.8720207 33.0377483,105.879016 33.2662252,112.206995 Z" fill="#989898"></path>
                    <path d="M35.9622517,79.6041451 C35.9622517,79.6041451 35.9622517,79.6041451 35.9622517,79.6041451 C35.3682119,79.4207254 34.8198675,79.1914508 34.3629139,78.8704663 C34.8655629,78.1367876 35.3682119,77.4489637 35.8708609,76.715285 L36.7390728,76.9904145 C36.4649007,77.907513 36.1907285,78.7787565 35.9622517,79.6041451 Z" fill="#263E83"></path>
                    <path d="M7.12847682,28.0632124 C7.21986755,28.0173575 7.26556291,27.9256477 7.35695364,27.8339378 C9.87019868,31.6857513 13.5258278,34.4370466 17.5013245,36.5463731 C18.5523179,37.0966321 19.6490066,37.6468912 20.7,38.1054404 C21.3854305,38.4264249 22.0708609,38.7015544 22.8019868,39.0225389 C26.3205298,40.4440415 30.0218543,41.5445596 33.8145695,41.865544 C34.4543046,41.911399 35.0940397,41.9572539 35.7337748,41.9572539 C36.6476821,41.9572539 37.5615894,41.9572539 38.4754967,41.911399 C39.8463576,41.865544 41.1715232,41.7738342 42.5423841,41.7738342 C45.0556291,41.7279793 47.5231788,41.7738342 50.0364238,41.8196891 C51.4529801,41.865544 52.8695364,41.9572539 54.194702,42.3699482 C55.4741722,43.4704663 56.3423841,44.9378238 56.2966887,47.0012953 C56.2966887,47.3222798 56.2509934,47.6432642 56.205298,48.0101036 C56.0225166,49.4316062 55.2913907,50.8989637 54.2403974,51.907772 C53.9662252,52.1370466 53.692053,52.2746114 53.4178808,52.4580311 C52.0013245,53.2375648 50.3562914,53.3292746 48.7569536,53.3751295 C45.0099338,53.5126943 41.2172185,53.696114 37.4701987,53.5126943 C36.9675497,53.5126943 36.4649007,53.4668394 35.9165563,53.4209845 C33.0377483,53.2375648 30.2046358,52.8248705 27.4172185,52.0911917 C16.8615894,49.2481865 7.81390728,41.0860104 3.15298013,30.4018135 C3.24437086,30.3559585 3.33576159,30.3559585 3.42715232,30.3101036 C4.84370861,29.8056995 6.07748344,29.0261658 7.12847682,28.0632124 Z" fill="#263E83"></path>
                    <path d="M53.3264901,52.6414508 C52.8238411,53.4209845 52.0927152,54.0170984 51.2701987,54.4297927 C49.8993377,55.1176166 48.3,55.2551813 46.792053,55.2551813 C45.2384106,55.2551813 43.7304636,55.1176166 42.1768212,55.2551813 C40.0291391,55.484456 37.9728477,56.2639896 36.2364238,57.5479275 C36.1907285,56.5391192 36.0993377,55.5761658 36.0536424,54.5673575 C36.0536424,54.2005181 36.007947,53.8336788 36.007947,53.4668394 C36.510596,53.5126943 37.013245,53.5126943 37.5615894,53.5585492 C41.3086093,53.696114 45.1013245,53.5585492 48.8483444,53.4209845 C50.4019868,53.3751295 52.0927152,53.2375648 53.5092715,52.503886 C53.4178808,52.503886 53.3721854,52.5955959 53.3264901,52.6414508 L53.3264901,52.6414508 Z" fill="#242F5E"></path>
                    <path d="M54.194702,42.4158031 C54.0576159,42.2782383 53.9205298,42.1865285 53.7834437,42.0948187 C52.0013245,40.8108808 49.6251656,40.123057 47.4774834,39.7103627 C46.8377483,39.5727979 46.1980132,39.4352332 45.5582781,39.2518135 C45.0099338,39.2059585 44.4615894,39.1601036 43.8675497,39.1142487 C43.2278146,39.0225389 42.6337748,38.9766839 42.0397351,38.8391192 C42.3139073,38.5639896 42.6337748,38.2430052 42.9536424,37.9678756 C43.7761589,37.188342 44.5529801,36.4088083 45.3754967,35.6292746 C48.2543046,37.784456 51.4986755,37.784456 54.8344371,37.8761658 C54.8801325,37.9220207 54.8801325,37.9220207 54.8801325,37.9678756 C55.3370861,38.5639896 55.6569536,39.2518135 55.9311258,39.9396373 C56.707947,42.1406736 56.5708609,44.5709845 56.6165563,47.0012953 L56.3880795,47.0012953 C56.2966887,44.9836788 55.4741722,43.4704663 54.194702,42.4158031 Z" fill="#263E83"></path>
                    <path d="M41.9940397,38.8391192 C42.5880795,38.930829 43.2278146,39.0225389 43.8218543,39.1142487 C44.3701987,39.1601036 44.918543,39.2518135 45.5125828,39.2518135 C46.1523179,39.4352332 46.792053,39.5727979 47.4317881,39.7103627 C49.5794702,40.0772021 52.0013245,40.7650259 53.7377483,42.0948187 C53.8748344,42.1865285 54.0119205,42.3240933 54.1490066,42.4158031 C52.8238411,41.9572539 51.4072848,41.865544 49.9907285,41.865544 C47.4774834,41.7738342 45.0099338,41.7738342 42.4966887,41.8196891 C41.1258278,41.8196891 39.8006623,41.911399 38.4298013,41.9572539 C39.5264901,40.7650259 40.7145695,39.6645078 41.9940397,38.8391192 Z" fill="#242F5E"></path>
                    <path d="M45.3298013,35.5834197 C45.4668874,35.1707254 45.6039735,34.7580311 45.6953642,34.3453368 C46.1523179,34.3453368 46.5635762,34.2994819 47.0205298,34.2994819 L47.0205298,34.2994819 C48.3,34.207772 49.5337748,34.1160622 50.813245,34.1160622 C52.184106,34.1160622 53.5549669,34.1619171 54.8801325,34.4829016 C55.4284768,34.5746114 55.9311258,34.7580311 56.4337748,34.9414508 C55.702649,35.8126943 55.2,36.8673575 54.7887417,37.9678756 C54.7430464,37.9678756 54.7430464,37.9678756 54.697351,37.9678756 C51.3615894,37.8761658 48.1172185,37.8761658 45.2384106,35.7209845 C45.284106,35.6292746 45.3298013,35.5834197 45.3298013,35.5834197 Z" fill="#242F5E"></path>
                    <path d="M53.3721854,25.5870466 C53.5549669,25.9997409 53.7377483,26.3665803 54.0119205,26.6875648 C54.4231788,27.2836788 54.9258278,27.7880829 55.4741722,28.2466321 C55.2913907,29.2554404 55.2,30.3101036 55.1086093,31.273057 C55.0172185,32.2818653 54.9258278,33.3365285 54.8801325,34.3453368 C53.5549669,34.0702073 52.184106,33.9784974 50.813245,33.9784974 C49.5337748,33.9784974 48.2543046,34.1160622 47.0205298,34.1619171 L47.0205298,34.1619171 C47.6602649,32.7404145 47.9801325,31.1354922 47.9344371,29.5764249 C50.0364238,28.5217617 51.9099338,26.9168394 53.189404,24.9450777 C53.2350993,25.2202073 53.2807947,25.4036269 53.3721854,25.5870466 Z" fill="#F8D0A3"></path>
                    <path d="M55.4741722,28.292487 C54.9258278,27.8339378 54.4231788,27.2836788 54.0119205,26.7334197 C53.7834437,26.3665803 53.5549669,25.9997409 53.3721854,25.6329016 C53.4635762,25.4036269 53.6006623,25.2202073 53.7377483,24.9909326 C54.6516556,23.4318653 55.7483444,22.0103627 56.5251656,20.3595855 C57.3019868,18.7088083 57.8046358,16.9204663 57.4847682,15.1321244 C57.1192053,13.2979275 55.9311258,11.6930052 54.7887417,10.2715026 C53.9205298,9.17098446 52.9609272,8.07046632 52.3668874,6.7865285 C54.2403974,8.20803109 56.6165563,8.98756477 58.3529801,10.592487 C60.7291391,12.8393782 60.8662252,16.3702073 60.1807947,19.5341969 C59.8152318,21.230829 59.0384106,22.8357513 57.9417219,24.165544 C57.1192053,25.2202073 56.0225166,26.1831606 55.702649,27.4670984 C55.5655629,27.7880829 55.5198675,28.0173575 55.4741722,28.292487 Z" fill="#2A2A55"></path>
                    <path d="M43.2278146,14.3067358 C41.902649,13.7564767 40.7602649,12.7476684 39.9834437,11.5095855 C39.892053,11.1427461 39.8006623,10.7759067 39.8463576,10.4090674 C39.8463576,9.12512953 40.7602649,7.84119171 41.9940397,7.65777202 C42.405298,7.6119171 42.8622517,7.65777202 43.1364238,7.38264249 C43.3649007,7.15336788 43.3649007,6.74067358 43.410596,6.3738342 C43.5019868,5.27331606 44.1417219,4.26450777 45.0556291,3.66839378 C45.9695364,3.07227979 47.2033113,2.93471503 48.2086093,3.34740933 C49.7165563,3.89766839 50.6304636,5.31917098 51.818543,6.41968912 C52.0013245,6.55725389 52.1384106,6.69481865 52.3211921,6.83238342 C52.9152318,8.07046632 53.8291391,9.21683938 54.7430464,10.3173575 C55.9311258,11.784715 57.1192053,13.3437824 57.4390728,15.1779793 C57.7589404,16.9663212 57.2562914,18.7546632 56.4794702,20.4054404 C55.702649,22.0562176 54.6059603,23.4777202 53.692053,25.0367876 C53.5549669,25.2202073 53.4635762,25.4494819 53.3264901,25.6787565 C53.2350993,25.4953368 53.189404,25.3119171 53.1437086,25.0826425 C53.0066225,24.5782383 52.9609272,24.0738342 53.0066225,23.5694301 C53.0980132,23.3401554 53.2350993,23.1108808 53.3721854,22.9274611 C53.6463576,22.5147668 53.9662252,22.1020725 54.2403974,21.6893782 C54.5145695,21.230829 54.697351,20.7264249 54.6059603,20.2220207 C54.5602649,19.7176166 54.194702,19.2132124 53.692053,19.1215026 C53.1437086,19.0297927 52.6410596,19.3966321 52.2754967,19.8093264 C51.9556291,20.2220207 51.7271523,20.7722798 51.315894,21.1391192 C50.9503311,21.5518135 50.3562914,21.826943 49.8536424,21.5518135 C49.3509934,21.3225389 49.1682119,20.634715 49.3509934,20.084456 C49.4880795,19.5341969 49.8536424,19.0756477 50.1735099,18.6170984 C50.4933775,18.1585492 50.7675497,17.6082902 50.7218543,17.0580311 C50.6304636,16.1409326 49.6708609,15.5448187 48.7569536,15.315544 C47.2490066,14.9028497 45.6496689,15.0404145 44.1417219,14.6277202 C43.8218543,14.5360104 43.5019868,14.4443005 43.2278146,14.3067358 Z" fill="#2A2A55"></path>
                    <path d="M53.189404,25.0367876 C51.9099338,27.0085492 50.0821192,28.6593264 47.9344371,29.6681347 C47.9344371,29.0261658 47.8430464,28.3841969 47.7059603,27.7880829 C47.7516556,27.7880829 47.797351,27.742228 47.8430464,27.742228 C48.6655629,27.5129534 49.4880795,27.2836788 50.2649007,26.9626943 C50.9960265,26.6875648 51.5443709,26.1373057 52.0013245,25.4494819 C52.0470199,25.357772 52.1384106,25.2660622 52.184106,25.1743523 C52.5039735,24.6240933 52.7324503,24.0738342 53.0066225,23.5235751 C52.9609272,24.0279793 53.0066225,24.5323834 53.189404,25.0367876 Z" fill="#DFB58B"></path>
                    <path d="M25.2238411,10.6841969 C25.2238411,10.592487 25.2238411,10.5007772 25.2238411,10.4090674 C26.0006623,13.8481865 26.8231788,17.2414508 28.0112583,20.4512953 C29.3364238,23.9821244 31.118543,27.3295337 33.6774834,29.9432642 C36.6933775,33.061399 40.7602649,34.9873057 45.1470199,35.5375648 C45.1470199,35.5375648 45.1470199,35.5375648 45.1470199,35.5375648 C45.1927152,35.5834197 45.2384106,35.5834197 45.2384106,35.6292746 C44.4615894,36.4088083 43.6390728,37.188342 42.8165563,37.9678756 C42.4966887,38.2430052 42.2225166,38.5639896 41.902649,38.8391192 C40.6231788,39.7103627 39.4350993,40.7650259 38.384106,41.9572539 C37.4701987,42.0031088 36.5562914,42.0031088 35.6423841,42.0031088 C35.002649,42.0031088 34.3629139,41.9572539 33.7231788,41.911399 C31.3927152,40.3064767 29.3821192,38.1971503 27.7370861,35.8585492 C24.9496689,31.9608808 22.1165563,27.8797927 21.0198675,23.019171 C20.4715232,20.4971503 20.4258278,17.8375648 20.197351,15.2238342 C20.197351,15.1779793 20.197351,15.1321244 20.197351,15.0404145 C20.197351,14.4443005 20.1516556,13.8481865 20.1059603,13.2520725 C20.0602649,12.6559585 20.1059603,12.1056995 20.1516556,11.5095855 C21.8880795,11.3720207 23.5788079,11.0968912 25.2238411,10.6841969 Z" fill="#242F5E"></path>
                    <path d="M53.0066225,23.5235751 C52.7324503,24.0738342 52.5039735,24.6699482 52.184106,25.1743523 C52.1384106,25.2660622 52.0927152,25.357772 52.0013245,25.4494819 C51.5900662,26.0914508 51.0417219,26.6875648 50.2649007,26.9626943 C49.4880795,27.2378238 48.6655629,27.5129534 47.8430464,27.742228 C47.797351,27.742228 47.7516556,27.7880829 47.7059603,27.7880829 C46.1523179,28.2007772 44.5072848,28.5217617 42.8622517,28.4759067 C42.3139073,28.4759067 41.8112583,28.4300518 41.3086093,28.2007772 C40.8059603,28.0173575 40.394702,27.6505181 40.2119205,27.146114 C39.9377483,26.3665803 40.4403974,25.9080311 40.8516556,25.357772 C41.1715232,24.9450777 41.2629139,24.5782383 41.1715232,24.1196891 C41.0344371,23.615285 41.3543046,23.2025907 41.5370861,22.7440415 C41.6741722,22.423057 41.7655629,22.0103627 41.5370861,21.7352332 C41.3543046,21.5059585 41.0801325,21.4142487 40.8059603,21.3225389 C40.4403974,21.1391192 40.1662252,20.8181347 39.9834437,20.4512953 C40.6231788,19.6717617 41.2629139,18.892228 41.902649,18.1126943 C42.7708609,17.0580311 42.7708609,16.0033679 43.1364238,14.7194301 C43.1821192,14.5818653 43.2278146,14.4443005 43.2735099,14.3067358 C43.5933775,14.4443005 43.8675497,14.5360104 44.2331126,14.6277202 C45.7410596,14.9945596 47.3403974,14.9028497 48.8483444,15.315544 C49.7622517,15.5448187 50.7218543,16.1409326 50.813245,17.0580311 C50.8589404,17.6082902 50.5847682,18.1585492 50.2649007,18.6170984 C49.9450331,19.0756477 49.5794702,19.5341969 49.4423841,20.084456 C49.305298,20.634715 49.4423841,21.2766839 49.9450331,21.5518135 C50.4476821,21.7810881 51.0417219,21.5059585 51.4072848,21.1391192 C51.7728477,20.7264249 52.0013245,20.2220207 52.3668874,19.8093264 C52.686755,19.3966321 53.2350993,19.0297927 53.7834437,19.1215026 C54.2860927,19.2132124 54.6516556,19.7176166 54.697351,20.2220207 C54.7430464,20.7264249 54.5602649,21.230829 54.3317881,21.6893782 C54.0576159,22.1479275 53.7377483,22.5147668 53.4635762,22.9274611 C53.2350993,23.0650259 53.1437086,23.2943005 53.0066225,23.5235751 Z" fill="#F8D0A3"></path>
                    <path d="M20.197351,11.5095855 C20.1516556,11.5095855 20.1059603,11.5095855 20.0602649,11.5095855 C20.0602649,11.234456 20.0602649,10.9134715 20.0602649,10.638342 C20.0602649,8.75829016 20.4258278,6.92409326 20.6543046,5.04404145 C20.8370861,3.34740933 21.1569536,1.78834197 21.8880795,0.366839378 C22.8019868,1.10051813 23.6701987,1.97176166 24.218543,3.02642487 C24.9496689,4.40207254 25.1781457,5.9611399 25.2238411,7.42849741 C25.2695364,8.39145078 25.2695364,9.40025907 25.2238411,10.4090674 C25.2238411,10.5007772 25.2238411,10.592487 25.2238411,10.6841969 C23.5788079,11.0968912 21.8880795,11.3720207 20.197351,11.5095855 Z" fill="#F5D5BE"></path>
                    <path d="M6.9,27.1002591 C6.99139073,27.4212435 7.03708609,27.742228 7.12847682,28.0632124 C6.03178808,29.0261658 4.84370861,29.8056995 3.51854305,30.3101036 C3.24437086,30.0349741 3.01589404,29.7139896 2.83311258,29.3930052 C1.78211921,27.8339378 1.14238411,25.8621762 0.639735099,24.0279793 C0.274172185,22.5606218 3.27515792e-15,21.0474093 0.31986755,19.5341969 C0.685430464,17.7 1.78211921,16.1867876 2.92450331,14.7194301 C3.51854305,17.1497409 4.06688742,19.5800518 4.66092715,22.0103627 C5.39205298,21.1849741 5.98609272,20.1761658 6.39735099,19.1215026 C6.80860927,20.9098446 6.16887417,22.6064767 6.39735099,24.3948187 C6.53443709,25.2660622 6.67152318,26.1831606 6.9,27.1002591 Z" fill="#F5D5BE"></path>
                </g>
                <g>
                    <path d="M52.3438017,35.8203008 C52.2512397,36.3706767 51.9272727,36.9210526 51.5107438,37.4255639 C51.5107438,37.2421053 51.4644628,37.0586466 51.3719008,36.9669173 C51.2793388,36.5541353 51.0942149,36.1413534 50.8628099,35.8203008 C50.585124,35.4075188 50.307438,35.0406015 49.9834711,34.6736842 C50.4,34.4902256 50.8628099,34.1233083 51.0942149,33.6646617 C51.2793388,33.343609 51.4181818,32.9308271 51.4181818,32.5639098 C51.6495868,32.7932331 51.8347107,33.1142857 52.0198347,33.3894737 C52.4363636,34.0315789 52.4826446,34.9030075 52.3438017,35.8203008 Z" id="Path" fill="#C9C8C8" fill-rule="nonzero"></path>
                    <path d="M51.3719008,36.9210526 C51.4181818,37.1045113 51.4181818,37.2879699 51.4181818,37.5172932 C51.4644628,37.4714286 51.4644628,37.4255639 51.5107438,37.4255639 C51.5107438,37.7466165 51.3719008,38.1593985 51.1404959,38.4345865 C49.4280992,40.4526316 48.1785124,37.5172932 47.2066116,36.9669173 C47.1140496,36.9210526 47.0214876,36.8293233 46.8826446,36.7834586 C47.2066116,36.5082707 47.5305785,36.187218 47.8082645,35.8203008 C48.3636364,35.0406015 48.5950413,34.0774436 48.5024793,33.2518797 C48.7338843,33.4353383 49.0115702,33.618797 49.2429752,33.8481203 C49.5206612,34.0774436 49.7520661,34.3526316 49.9834711,34.6278195 C50.307438,34.9947368 50.585124,35.4075188 50.8628099,35.7744361 C51.0942149,36.1413534 51.2793388,36.5082707 51.3719008,36.9210526 Z" id="Path" fill="#C9C8C8" fill-rule="nonzero"></path>
                    <path d="M46.6975207,26.9225564 C46.8826446,28.1150376 47.6231405,28.8030075 48.2247934,29.5827068 C48.5487603,30.0413534 48.9190083,30.4082707 49.3818182,30.8210526 C49.4743802,30.912782 49.5669421,30.9586466 49.6595041,31.0503759 C50.261157,31.5090226 50.9090909,31.9676692 51.4644628,32.5180451 C51.4644628,32.8849624 51.3256198,33.2518797 51.1404959,33.618797 C50.8628099,34.0774436 50.446281,34.4443609 50.0297521,34.6278195 C49.7983471,34.3526316 49.5669421,34.0774436 49.2892562,33.8481203 C49.0578512,33.618797 48.8264463,33.4353383 48.5487603,33.2518797 C47.7619835,32.6556391 46.8826446,32.1511278 45.9570248,31.6924812 C45.7256198,31.4631579 45.4942149,31.2338346 45.3553719,30.9586466 C44.846281,30.087218 44.846281,28.8488722 44.892562,27.656391 C44.985124,25.5466165 45.077686,23.3451128 45.5404959,21.1894737 C45.5404959,23.2075188 46.0033058,25.1796992 46.6975207,26.9225564 L46.6975207,26.9225564 Z" id="Shape" fill="#71B1D8" fill-rule="nonzero"></path>
                    <path d="M45.9570248,31.6924812 C46.8363636,32.1511278 47.7157025,32.6556391 48.5487603,33.2518797 C48.6413223,34.0774436 48.3636364,35.0406015 47.8545455,35.8203008 C47.6231405,36.187218 47.2991736,36.5082707 46.9289256,36.7834586 C44.985124,35.6827068 42.6247934,35.0864662 40.5421488,34.2150376 C39.7090909,33.893985 38.8297521,33.5270677 37.8115702,33.7105263 C36.5619835,32.8849624 35.4975207,31.8300752 34.6181818,30.5458647 C34.0628099,29.7661654 33.6,28.8488722 32.9057851,28.2067669 C32.2115702,27.518797 31.2859504,27.106015 30.2677686,27.2894737 C29.1570248,27.518797 28.092562,28.4360902 27.1206612,29.3075188 C24.6214876,31.5548872 22.0760331,33.8481203 19.5768595,36.0954887 C18.0495868,37.4714286 16.522314,38.8932331 15.1801653,40.4526316 C15.3652893,39.856391 15.5041322,39.2142857 15.7355372,38.6180451 C16.1983471,37.2421053 16.846281,35.8661654 17.8644628,34.7654135 C17.9570248,34.6736842 18.0033058,34.6278195 18.0958678,34.5360902 C21.6132231,31.1421053 24.6677686,27.106015 27.3983471,22.9323308 C29.9438017,19.0796992 32.0264463,14.4473684 34.9884298,10.9157895 C35.9603306,9.76917293 36.9785124,8.71428571 38.0429752,7.79699248 C38.7371901,7.20075188 39.431405,6.60451128 40.1719008,6.1 C40.0793388,5.09097744 39.5239669,4.26541353 38.6909091,3.80676692 C38.3206612,3.57744361 37.9041322,3.3481203 37.5338843,3.11879699 C39.2,2.20150376 40.9586777,1.69699248 42.6247934,1.65112782 C43.4115702,1.60526316 44.1520661,1.69699248 44.892562,1.88045113 C45.3090909,1.97218045 45.7256198,2.10977444 46.0958678,2.29323308 C46.2347107,2.24736842 46.3735537,2.24736842 46.5123967,2.20150376 C46.7900826,2.33909774 47.0677686,2.47669173 47.3454545,2.70601504 C48.4099174,3.43984962 49.2429752,4.67819549 49.2892562,6.28345865 C49.3355372,8.62255639 47.6231405,10.6864662 45.6330579,11.7413534 C44.1520661,12.475188 42.6247934,12.9338346 41.2826446,14.0804511 C39.246281,15.7774436 38.2280992,18.8045113 38.3669421,21.2353383 C38.4595041,22.8406015 38.968595,24.262406 39.6165289,25.5007519 C39.6165289,25.5007519 39.6165289,25.5007519 39.6165289,25.5007519 C39.6628099,25.6383459 39.7090909,25.8218045 39.7553719,25.9593985 C40.3570248,27.9315789 41.7917355,29.2616541 43.3652893,30.2706767 C44.1520661,30.7293233 45.077686,31.1879699 45.9570248,31.6924812 Z" id="Path" fill="#CBE6F9" fill-rule="nonzero"></path>
                    <path d="M39.5702479,25.4548872 C39.5702479,25.4548872 39.5702479,25.4548872 39.5702479,25.4548872 C38.8760331,24.1706767 38.4132231,22.7947368 38.3206612,21.1894737 C38.1818182,18.7586466 39.2,15.7774436 41.2363636,14.0345865 C42.5785124,12.9338346 44.1057851,12.475188 45.5867769,11.6954887 C47.5768595,10.6406015 49.2892562,8.57669173 49.2429752,6.23759398 C49.2429752,4.63233083 48.4099174,3.43984962 47.2991736,2.66015038 C47.0214876,2.47669173 46.7438017,2.33909774 46.4661157,2.1556391 C48.5024793,1.65112782 50.538843,1.23834586 52.6214876,0.82556391 C52.8066116,0.779699248 52.9454545,0.779699248 53.1305785,0.733834586 C53.1305785,0.871428571 53.0842975,0.963157895 53.0842975,1.10075188 C53.0380165,1.33007519 53.0842975,1.5593985 53.2231405,1.92631579 C53.4545455,2.38496241 53.9173554,2.70601504 54.3801653,2.84360902 C54.4727273,2.88947368 54.5652893,2.88947368 54.6578512,2.88947368 C54.7041322,2.88947368 54.7966942,2.93533835 54.8429752,2.93533835 C54.8892562,2.93533835 54.9355372,2.93533835 54.9818182,2.93533835 C55.0280992,2.93533835 55.0280992,2.93533835 55.0743802,2.93533835 C55.0743802,2.93533835 55.1206612,2.93533835 55.1206612,2.93533835 C55.2132231,2.93533835 55.2595041,2.93533835 55.3057851,2.93533835 C55.3057851,3.07293233 55.3520661,3.21052632 55.3983471,3.30225564 C55.3057851,3.71503759 55.1669421,4.17368421 55.0280992,4.58646617 C55.0280992,4.58646617 55.0280992,4.58646617 55.0280992,4.58646617 C54.2876033,5.73308271 53.4545455,6.55864662 52.4826446,7.47593985 C52.4363636,7.52180451 52.4363636,7.52180451 52.3900826,7.56766917 C52.3900826,7.56766917 52.3438017,7.61353383 52.3438017,7.6593985 C52.0661157,7.93458647 51.8347107,8.16390977 51.6033058,8.48496241 C51.3719008,8.76015038 51.1404959,9.08120301 50.9553719,9.4481203 C50.677686,9.81503759 50.446281,10.1819549 50.168595,10.5030075 C48.3636364,12.7962406 46.6512397,15.3646617 45.9107438,18.162406 C45.6330579,19.1255639 45.5404959,20.1804511 45.5404959,21.1894737 C45.031405,23.3451128 44.938843,25.5007519 44.892562,27.656391 C44.846281,28.8488722 44.846281,30.087218 45.3553719,30.9586466 C45.5404959,31.2338346 45.7256198,31.4631579 45.9570248,31.6924812 C45.077686,31.2338346 44.1520661,30.775188 43.3190083,30.224812 C41.7917355,29.2616541 40.3570248,27.8857143 39.7090909,25.9135338 C39.6628099,25.7300752 39.6165289,25.5924812 39.5702479,25.4548872 Z" id="Path" fill="#FFFFFF" fill-rule="nonzero"></path>
                    <path d="M55.6297521,2.52255639 C55.6297521,2.47669173 55.6297521,2.43082707 55.6760331,2.38496241 C55.5834711,2.43082707 55.4446281,2.52255639 55.3983471,2.70601504 C55.3983471,2.79774436 55.3983471,2.88947368 55.3983471,2.93533835 C55.3057851,2.93533835 55.2132231,2.93533835 55.1206612,2.93533835 C55.0743802,2.93533835 55.0743802,2.93533835 55.0280992,2.93533835 C54.9818182,2.93533835 54.9355372,2.93533835 54.8892562,2.93533835 C54.8429752,2.93533835 54.7504132,2.93533835 54.7041322,2.88947368 C54.6115702,2.88947368 54.5190083,2.84360902 54.4264463,2.84360902 C53.9173554,2.70601504 53.5008264,2.38496241 53.2694215,1.92631579 C53.1768595,1.69699248 53.1305785,1.46766917 53.0842975,1.1924812 C53.0842975,1.14661654 53.0842975,1.14661654 53.0842975,1.10075188 C53.1768595,0.55037594 53.8710744,0.366917293 54.5652893,0.458646617 C56.046281,0.642105263 55.953719,1.14661654 55.6297521,2.52255639 Z" id="Path" fill="#263E83" fill-rule="nonzero"></path>
                    <path d="M23.7884298,43.112782 C23.3256198,43.3421053 22.8628099,43.5714286 22.446281,43.8007519 C22.4,43.8466165 22.307438,43.8924812 22.214876,43.8924812 C22.122314,43.9383459 22.0760331,43.9383459 21.9834711,43.9842105 C18.9752066,45.3601504 15.9206612,46.1398496 13.0975207,46.2774436 C13.4214876,45.543609 13.7454545,44.8097744 14.0231405,44.0759398 C14.0231405,44.0300752 14.0231405,44.0300752 14.0694215,43.9842105 C14.2082645,43.5714286 14.3933884,43.1586466 14.4859504,42.7 C14.7173554,41.9203008 14.9024793,41.1864662 15.1338843,40.4067669 C16.4760331,38.8473684 18.0495868,37.4255639 19.5305785,36.0496241 C22.0297521,33.8022556 24.5752066,31.5090226 27.0743802,29.2616541 C28.046281,28.3902256 29.1107438,27.4729323 30.2214876,27.243609 C31.2859504,27.0142857 32.2115702,27.4729323 32.8595041,28.1609023 C33.553719,28.8488722 34.0165289,29.7203008 34.5719008,30.5 C35.4512397,31.7842105 36.5157025,32.8390977 37.7652893,33.6646617 C37.7190083,33.6646617 37.7190083,33.6646617 37.6727273,33.6646617 C36.7471074,33.8481203 35.8214876,34.4902256 34.9421488,35.1323308 C34.4793388,35.4533835 34.0628099,35.7744361 33.6,36.1413534 C30.9157025,38.2052632 28.3239669,40.4526316 25.5008264,42.1037594 C24.9917355,42.4706767 24.3900826,42.837594 23.7884298,43.112782 Z" id="Path" fill="#FFFFFF" fill-rule="nonzero"></path>
                    <path d="M38.6446281,3.80676692 C39.477686,4.26541353 40.0330579,5.09097744 40.1256198,6.1 C39.385124,6.60451128 38.6909091,7.20075188 37.9966942,7.79699248 C37.9504132,7.75112782 37.9041322,7.6593985 37.8578512,7.61353383 C37.5338843,7.06315789 37.4876033,6.60451128 37.0247934,6.14586466 C36.5619835,5.64135338 36.0991736,5.13684211 35.6826446,4.63233083 C34.7570248,3.53157895 33.9239669,2.38496241 33.1834711,1.14661654 L33.2297521,0.963157895 C33.507438,1.05488722 33.785124,1.1924812 34.0165289,1.28421053 C35.2198347,1.83458647 36.3768595,2.47669173 37.4876033,3.11879699 C37.8578512,3.3481203 38.2743802,3.57744361 38.6446281,3.80676692 Z" id="Path" fill="#71B1D8" fill-rule="nonzero"></path>
                    <path d="M37.8578512,7.61353383 C37.9041322,7.6593985 37.9504132,7.75112782 37.9966942,7.79699248 C36.9322314,8.76015038 35.8677686,9.81503759 34.9421488,10.9157895 C34.2479339,10.6864662 33.646281,10.1360902 33.2297521,9.53984962 C32.9057851,9.08120301 32.6280992,8.57669173 32.4429752,7.98045113 C31.9338843,6.51278195 31.8413223,4.72406015 32.2578512,2.93533835 C32.3966942,2.24736842 32.6280992,1.51353383 32.9520661,0.82556391 C33.0446281,0.871428571 33.1834711,0.917293233 33.2760331,0.963157895 L33.2297521,1.14661654 C33.9239669,2.33909774 34.7570248,3.53157895 35.6363636,4.58646617 C36.0991736,5.13684211 36.5157025,5.64135338 36.9785124,6.1 C37.4876033,6.60451128 37.5338843,7.06315789 37.8578512,7.61353383 Z" id="Path" fill="#F1F1F1" fill-rule="nonzero"></path>
                    <path d="M21.1966942,55.7255639 C21.1041322,56.5969925 20.6876033,57.5142857 19.7619835,57.3308271 C19.4842975,57.2849624 19.2991736,57.0556391 19.1140496,56.8263158 C18.2809917,55.7255639 17.4016529,54.6706767 16.568595,53.5699248 C16.985124,53.6616541 17.4016529,53.7075188 17.8644628,53.6157895 C18.4198347,53.5240602 19.0677686,53.2030075 19.4842975,52.6526316 C19.6694215,52.4233083 19.8082645,52.1022556 19.8545455,51.781203 C20.4561983,52.6526316 21.0578512,53.6616541 21.1966942,54.8082707 C21.2429752,55.0834586 21.2429752,55.4045113 21.1966942,55.7255639 Z" id="Path" fill="#C9C8C8" fill-rule="nonzero"></path>
                    <path d="M19.3454545,47.6075188 C18.9289256,48.0203008 18.6049587,48.4330827 18.5586777,48.8 C18.3735537,49.6714286 19.0677686,50.4511278 19.4380165,51.0473684 C19.5768595,51.2766917 19.7619835,51.506015 19.9008264,51.781203 C19.8545455,52.056391 19.7157025,52.3774436 19.5305785,52.6526316 C19.1140496,53.2030075 18.5123967,53.5240602 17.9107438,53.6157895 C17.4479339,53.7075188 17.031405,53.6616541 16.614876,53.5699248 C15.2727273,51.8270677 13.8842975,50.0842105 12.5421488,48.2954887 C12.4495868,48.2037594 12.3570248,48.1120301 12.2644628,48.0203008 C12.5421488,47.5157895 12.7735537,47.0112782 13.0049587,46.5526316 L13.0049587,46.5526316 C13.0512397,46.4609023 13.0975207,46.3691729 13.1438017,46.2774436 C16.0132231,46.1398496 19.0214876,45.3601504 22.0297521,43.9842105 C22.0760331,43.9383459 22.168595,43.9383459 22.261157,43.8924812 C22.307438,43.8466165 22.4,43.8466165 22.492562,43.8007519 L22.492562,43.8007519 C22.9553719,43.5714286 23.4181818,43.3421053 23.8347107,43.112782 C23.6958678,43.3421053 23.5107438,43.5714286 23.3719008,43.7548872 C23.3256198,43.8007519 23.3256198,43.8466165 23.2793388,43.8924812 C23.2793388,43.8924812 23.2793388,43.8924812 23.2793388,43.8924812 C23.2793388,43.8924812 23.2793388,43.8924812 23.2793388,43.8924812 C23.2793388,43.8924812 23.2330579,43.9383459 23.2330579,43.9383459 C22.631405,44.7180451 21.9371901,45.406015 21.2429752,46.0022556 C20.7338843,46.3691729 19.9471074,46.9654135 19.3454545,47.6075188 Z" id="Path" fill="#71B1D8" fill-rule="nonzero"></path>
                    <path d="M12.9123967,46.3233083 C12.9586777,46.4150376 12.9586777,46.5067669 13.0049587,46.5984962 L13.0049587,46.5984962 C12.7735537,47.1030075 12.4958678,47.6075188 12.2644628,48.0661654 C12.1719008,48.2954887 12.0330579,48.4789474 11.8942149,48.7082707 C11.014876,50.2218045 9.39504132,51.3225564 9.76528926,53.0654135 C9.90413223,53.7075188 10.2743802,54.2578947 10.6446281,54.7165414 C10.5983471,54.9917293 10.5057851,55.2669173 10.3206612,55.4962406 C9.95041322,55.9548872 9.39504132,56.1383459 8.9322314,56.0466165 C8.46942149,56.0007519 8.09917355,55.7255639 7.68264463,55.5421053 C7.12727273,55.2669173 6.52561983,55.0834586 5.87768595,55.037594 C5.46115702,54.1661654 5.09090909,53.2947368 4.81322314,52.3315789 C6.06280992,49.7172932 6.98842975,46.9654135 7.12727273,44.3052632 C7.12727273,44.2593985 7.12727273,44.2593985 7.12727273,44.2135338 C7.2661157,42.287218 6.98842975,40.4526316 7.21983471,38.4804511 C7.45123967,36.5082707 8.05289256,34.3526316 9.11735537,32.4263158 C9.85785124,31.0503759 10.8297521,29.7661654 11.9404959,28.8030075 C13.1900826,27.7022556 14.5785124,26.8766917 16.0132231,26.0511278 C16.0595041,26.0052632 16.1520661,25.9593985 16.1983471,25.9135338 C18.8826446,24.3082707 21.2429752,22.2443609 23.0479339,19.6300752 C25.2694215,17.9789474 27.2595041,15.9609023 28.9256198,13.0714286 C28.8330579,13.3007519 28.7404959,13.5300752 28.6942149,13.7593985 C29.9438017,11.8789474 31.1008264,9.86090226 32.3966942,8.02631579 C32.5818182,8.57669173 32.8595041,9.12706767 33.1834711,9.58571429 C33.646281,10.2278195 34.2016529,10.7323308 34.8958678,10.9616541 C31.9338843,14.4473684 29.8975207,19.0338346 27.3520661,22.9323308 C24.6214876,27.106015 21.5669421,31.0962406 18.0495868,34.5360902 C17.9570248,34.6278195 17.9107438,34.6736842 17.8181818,34.7654135 C16.8,35.8203008 16.1520661,37.2421053 15.6892562,38.6180451 C15.5041322,39.2142857 15.3190083,39.856391 15.1338843,40.4526316 C14.9487603,41.2323308 14.7173554,42.0120301 14.4859504,42.7458647 C14.3471074,43.1586466 14.2082645,43.5714286 14.0694215,44.0300752 C14.0694215,44.0759398 14.0694215,44.0759398 14.0231405,44.1218045 C13.7454545,44.8556391 13.4214876,45.5894737 13.0975207,46.3233083 C13.0512397,46.2774436 12.9586777,46.3233083 12.9123967,46.3233083 Z" id="Path" fill="#CBE6F9" fill-rule="nonzero"></path>
                    <path d="M12.6809917,59.0278195 C12.3570248,61.6879699 9.76528926,60.3120301 8.9322314,59.4406015 C8.00661157,58.5233083 7.2661157,57.4684211 6.57190083,56.3676692 C6.29421488,55.9090226 6.06280992,55.4503759 5.83140496,54.9917293 C6.47933884,55.0834586 7.08099174,55.2210526 7.63636364,55.4962406 C8.05289256,55.6796992 8.4231405,55.9548872 8.88595041,56.0007519 C9.34876033,56.0466165 9.90413223,55.9090226 10.2743802,55.4503759 C10.4595041,55.2210526 10.5520661,54.9458647 10.5983471,54.6706767 C10.6446281,54.762406 10.6909091,54.8082707 10.7834711,54.9 C11.5702479,55.8631579 12.8198347,57.0556391 12.7272727,58.7067669 C12.7272727,58.7984962 12.7272727,58.9360902 12.6809917,59.0278195 Z" id="Path" fill="#C9C8C8" fill-rule="nonzero"></path>
                    <path d="M5.27603306,35.1323308 C5.55371901,34.5819549 5.87768595,34.0774436 6.20165289,33.5270677 C6.84958678,32.4721805 7.59008264,31.4172932 8.4231405,30.4541353 C9.44132231,29.2616541 10.5057851,28.1609023 11.6628099,27.1518797 C13.1438017,25.9135338 14.7636364,24.8586466 16.3834711,23.8496241 C18.7438017,22.4278195 20.9652893,21.1894737 23.0479339,19.6300752 C21.1966942,22.2443609 18.8826446,24.3541353 16.1983471,25.9135338 C16.1520661,25.9593985 16.0595041,26.0052632 16.0132231,26.0511278 C14.6247934,26.8766917 13.2363636,27.7022556 11.9404959,28.8030075 C10.7834711,29.8120301 9.85785124,31.0503759 9.11735537,32.4263158 C8.09917355,34.3526316 7.45123967,36.5082707 7.21983471,38.4804511 C6.98842975,40.4526316 7.2661157,42.287218 7.12727273,44.2135338 C7.12727273,44.2593985 7.12727273,44.2593985 7.12727273,44.3052632 C6.94214876,46.9654135 6.06280992,49.7172932 4.81322314,52.3315789 C4.44297521,51.0932331 4.11900826,49.8090226 3.88760331,48.4330827 C3.70247934,47.1947368 3.51735537,45.956391 3.47107438,44.6721805 C3.47107438,44.5345865 3.47107438,44.4428571 3.47107438,44.3052632 C3.42479339,42.9293233 3.42479339,41.5533835 3.60991736,40.1315789 C3.60991736,40.0857143 3.60991736,40.0398496 3.60991736,39.993985 C3.70247934,39.3977444 3.79504132,38.8473684 3.9338843,38.2511278 C3.98016529,38.1135338 4.02644628,37.9300752 4.02644628,37.7924812 C4.21157025,37.0586466 4.58181818,36.3706767 4.95206612,35.6827068 C5.09090909,35.4533835 5.13719008,35.2699248 5.27603306,35.1323308 Z" id="Path" fill="#71B1D8" fill-rule="nonzero"></path>
                    <path d="M8.79338843,22.9323308 C9.20991736,23.0240602 9.62644628,23.1616541 10.0429752,23.2533835 C9.30247934,23.9413534 8.65454545,24.7210526 8.09917355,25.5924812 C7.91404959,25.5007519 7.72892562,25.4548872 7.54380165,25.4548872 C6.75702479,25.4548872 5.97024793,26.1428571 5.41487603,26.9225564 C4.85950413,27.7022556 4.53553719,28.6195489 4.21157025,29.4909774 C3.19338843,28.9864662 1.71239669,29.3533835 0.601652893,30.362406 C0.879338843,29.0323308 1.48099174,27.656391 2.2677686,26.4180451 C3.60991736,24.3541353 5.41487603,22.7030075 7.2661157,21.143609 C7.96033058,20.5473684 8.9322314,19.9511278 9.39504132,20.5015038 C9.85785124,21.006015 9.30247934,22.1067669 8.79338843,22.9323308 Z" id="Path" fill="#FFFFFF" fill-rule="nonzero"></path>
                    <path d="M6.20165289,33.5270677 C5.87768595,34.0315789 5.55371901,34.5819549 5.27603306,35.1323308 C5.18347107,35.3157895 5.09090909,35.4992481 4.99834711,35.6368421 C4.62809917,36.324812 4.25785124,37.012782 4.07272727,37.7466165 C4.02644628,37.8842105 3.98016529,38.0676692 3.98016529,38.2052632 C3.84132231,38.8015038 3.74876033,39.3518797 3.65619835,39.9481203 C1.94380165,38.3428571 0.694214876,36.2330827 0.0462809917,33.756391 C-7.45500998e-18,33.5270677 -0.0462809917,33.2518797 0.0925619835,33.0225564 C0.185123967,32.8390977 0.462809917,32.7932331 0.555371901,32.8849624 C0.555371901,32.9308271 0.555371901,32.9766917 0.601652893,33.0225564 C0.601652893,32.9766917 0.601652893,32.9308271 0.555371901,32.8849624 C0.370247934,32.1052632 0.416528926,31.2338346 0.601652893,30.362406 C1.71239669,29.3533835 3.19338843,28.9864662 4.21157025,29.4909774 C4.53553719,28.6195489 4.85950413,27.7022556 5.41487603,26.9225564 C5.97024793,26.1428571 6.80330579,25.5007519 7.54380165,25.4548872 C7.72892562,25.4548872 7.96033058,25.5007519 8.09917355,25.5924812 C6.57190083,28.0691729 5.78512397,31.0503759 6.20165289,33.5270677 Z" id="Path" fill="#71B1D8" fill-rule="nonzero"></path>
                    <g transform="translate(43.966942, 4.127820)" id="Path">
                        <path d="M1.01818182,1.05488722 C0.925619835,1.33007519 0.647933884,1.46766917 0.416528926,1.37593985 C0.138842975,1.28421053 1.11022302e-16,1.00902256 0.0925619835,0.779699248 C0.185123967,0.504511278 0.462809917,0.366917293 0.694214876,0.458646617 C0.971900826,0.504511278 1.1107438,0.779699248 1.01818182,1.05488722 Z" fill="#2A2A55" fill-rule="nonzero"></path>
                        <path d="M5.27603306,3.71503759 C6.89586777,3.85263158 8.56198347,3.21052632 9.62644628,1.97218045" stroke="#2A2A55" stroke-width="0.9213" stroke-linecap="round" stroke-linejoin="round"></path>
                    </g>
                </g>
                <g transform="translate(21.000000, 19.000000)" fill-rule="nonzero" id="Path">
                    <path d="M7.17096774,13.3976471 C7.26290323,13.3517647 7.30887097,13.26 7.40080645,13.1682353 C9.92903226,17.0223529 13.6064516,19.7752941 17.6056452,21.8858824 C18.6629032,22.4364706 19.766129,22.9870588 20.8233871,23.4458824 C21.5129032,23.7670588 22.2024194,24.0423529 22.9379032,24.3635294 C26.4774194,25.7858824 30.2008065,26.8870588 34.016129,27.2082353 C34.6596774,27.2541176 35.3032258,27.3 35.9467742,27.3 C36.866129,27.3 37.7854839,27.3 38.7048387,27.2541176 C40.083871,27.2082353 41.4169355,27.1164706 42.7959677,27.1164706 C45.3241935,27.0705882 47.8064516,27.1164706 50.3346774,27.1623529 C51.7596774,27.2082353 53.1846774,27.3 54.5177419,27.7129412 C55.8048387,28.8141176 56.6782258,30.2823529 56.6322581,32.3470588 C56.6322581,32.6682353 56.5862903,32.9894118 56.5403226,33.3564706 C56.3564516,34.7788235 55.6209677,36.2470588 54.5637097,37.2564706 C54.2879032,37.4858824 54.0120968,37.6235294 53.7362903,37.8070588 C52.3112903,38.5870588 50.6564516,38.6788235 49.0475806,38.7247059 C45.2782258,38.8623529 41.4629032,39.0458824 37.6935484,38.8623529 C37.1879032,38.8623529 36.6822581,38.8164706 36.1306452,38.7705882 C33.2346774,38.5870588 30.3846774,38.1741176 27.5806452,37.44 C16.9620968,34.5952941 7.86048387,26.4282353 3.17177419,15.7376471 C3.26370968,15.6917647 3.35564516,15.6917647 3.44758065,15.6458824 C4.87258065,15.1411765 6.11370968,14.3611765 7.17096774,13.3976471 Z" fill="#263E83"></path>
                    <path d="M6.94112903,12.4341176 C7.03306452,12.7552941 7.07903226,13.0764706 7.17096774,13.3976471 C6.06774194,14.3611765 4.87258065,15.1411765 3.53951613,15.6458824 C3.26370968,15.3705882 3.03387097,15.0494118 2.85,14.7282353 C1.79274194,13.1682353 1.14919355,11.1952941 0.643548387,9.36 C0.275806452,7.89176471 3.08086889e-15,6.37764706 0.321774194,4.86352941 C0.689516129,3.02823529 1.79274194,1.51411765 2.94193548,0.0458823529 C3.53951613,2.47764706 4.09112903,4.90941176 4.68870968,7.34117647 C5.42419355,6.51529412 6.02177419,5.50588235 6.43548387,4.45058824 C6.84919355,6.24 6.20564516,7.93764706 6.43548387,9.72705882 C6.5733871,10.5988235 6.71129032,11.5164706 6.94112903,12.4341176 Z" fill="#F8D0A3"></path>
                </g>
            </g>
        </g>
    </g>
</svg>