<?xml version="1.0" encoding="UTF-8"?>
<svg width="69px" height="185px" viewBox="0 0 69 185" version="1.1" xmlns="http://www.w3.org/2000/svg" xmlns:xlink="http://www.w3.org/1999/xlink">
    <!-- Generator: Sketch 54.1 (76490) - https://sketchapp.com -->
    <title>Group</title>
    <desc>Created with Sketch.</desc>
    <defs>
        <linearGradient x1="-0.63375%" y1="49.6717949%" x2="99.9840625%" y2="49.6717949%" id="linearGradient-1">
            <stop stop-color="#F1EDF5" offset="0%"></stop>
            <stop stop-color="#F1EDF5" offset="100%"></stop>
        </linearGradient>
        <linearGradient x1="-0.107104558%" y1="50.5242404%" x2="99.7851206%" y2="50.5242404%" id="linearGradient-2">
            <stop stop-color="#F1EDF5" offset="0%"></stop>
            <stop stop-color="#F1EDF5" offset="100%"></stop>
        </linearGradient>
    </defs>
    <g id="PET-NET-INtesa" stroke="none" stroke-width="1" fill="none" fill-rule="evenodd">
        <g id="Step-1---Dati-assicurazione" transform="translate(-252.000000, -232.000000)" fill-rule="nonzero">
            <g id="Group" transform="translate(252.000000, 232.000000)">
                <path d="M22.9622067,45.9621451 C22.9622067,45.8675079 22.7718859,45.7728707 22.7243057,45.9148265 C22.6767255,46.0567823 22.8670463,46.1514196 22.9622067,46.0567823 C22.9622067,46.0094637 22.9622067,46.0094637 22.9622067,45.9621451 L22.9622067,45.9621451 Z M3.83496448,54.1009464 C3.02610101,53.7223975 2.40755835,53.3438486 1.83659589,52.5867508 C1.36079385,51.9716088 0.932572008,51.214511 0.694670986,50.4574132 C0.218868941,48.8485804 0.0761283272,47.0977918 0.0285481227,45.4416404 C-0.0666122863,43.0757098 0.0761283272,40.7570978 0.456769963,38.4384858 C0.884991804,35.7413249 1.64627508,33.0914826 3.07368121,30.8201893 C4.64382796,28.3596215 6.92767778,26.466877 9.54458902,25.5678233 C10.4486129,25.2839117 11.3526368,25.0473186 12.2566607,25 C11.3050566,25.9463722 10.4010327,26.9873817 9.49700882,28.0757098 C9.3542682,28.0757098 9.21152759,28.0283912 9.02120677,28.0283912 C8.83088596,28.0283912 8.73572555,28.2176656 8.78330575,28.4069401 C8.87846616,28.6908517 8.97362657,28.9274448 9.11636718,29.1640379 C7.59380064,33.044164 7.45106002,37.3974763 8.16476309,41.5141956 C8.35508391,42.555205 8.64056514,43.6435331 9.40184841,44.3059937 C10.2107119,44.9684543 11.3526368,44.9684543 12.3994013,44.8264984 C12.6848825,44.7791798 13.017944,44.7318612 13.3034252,44.6845426 C14.2074491,44.5425868 15.1114729,44.3059937 16.0154968,44.0694006 C16.5864593,43.9747634 17.2050019,43.8801262 17.7759644,43.785489 C18.6799883,43.6435331 19.536432,43.4542587 20.4404559,43.2649842 L20.4880361,43.5015773 C21.4872204,43.9274448 22.3912442,44.637224 23.2952681,45.2050473 C24.0089712,45.6309148 24.7702545,46.0567823 25.6266981,46.1987382 C27.6250667,46.5772871 28.7669916,45.1104101 27.1968449,43.4542587 C27.0065241,43.2649842 26.7210428,43.0757098 26.3404012,42.8391167 C26.0073398,42.6498423 25.6266981,42.4132492 25.2460565,42.2239748 C25.3887971,42.1766562 25.4839575,42.1766562 25.6266981,42.1293375 C27.5774865,41.70347 29.5758551,41.2302839 31.2887425,40.2365931 C31.2887425,40.2365931 31.2887425,40.2365931 31.2887425,40.2365931 C32.0024455,41.0883281 32.4782476,42.0820189 32.7637288,43.170347 C33.0016298,44.1167192 33.04921,45.1104101 32.9540496,46.0567823 C32.097606,46.6719243 31.2411623,47.2870662 30.3371384,47.807571 C29.8613363,48.0914826 29.3379541,48.3753943 28.862152,48.659306 C26.292821,50.126183 23.5807494,51.3564669 20.8210975,52.3974763 C19.0130497,53.0599369 17.1098415,53.6750789 15.2542136,54.148265 C14.6356709,54.2902208 13.969548,54.4794953 13.3510054,54.5741325 C11.7808586,54.9053628 10.0679713,55 8.49782452,55 C7.68896105,55 6.92767778,54.9526814 6.1188143,54.8107256 C5.30995082,54.6687697 4.54866755,54.4321767 3.83496448,54.1009464 Z" id="Shape" fill="#71B1D8"></path>
                <path d="M39.5984282,83.3200683 C40.6729666,81.7775494 40.9532809,79.6273716 41,77.5239368 C39.1312376,77.6641658 37.2624752,77.4304508 35.4404319,76.8695349 C32.8708837,76.121647 30.4414926,74.8128431 28.0588205,73.3638102 C24.8819245,71.4473474 21.8451856,69.3439126 18.9018849,67.0535058 C17.3601559,65.838188 15.7249888,64.4358981 15.1176411,62.4259493 C14.7438886,61.2573744 14.7438886,59.9953135 14.1832599,58.9669676 C13.2488787,57.3309628 11.2399591,56.9570188 9.46463486,57.0037618 C8.53025367,57.0505048 7.59587248,57.1439908 6.66149129,57.1439908 C6.47461506,60.8366874 6.28773882,64.5293841 6.10086258,68.2220807 C5.91398634,72.1952353 5.77382916,76.6358199 7.73602966,79.7676006 C8.10978214,80.3752595 8.57697273,80.9361755 9.09088239,81.3568625 C10.7260495,82.8993813 12.8751262,83.6005262 14.8840458,84.1614422 C17.406875,84.8158441 19.9764232,85.3300171 22.5459715,85.610475 L22.5459715,85.610475 C26.3769344,86.077905 30.2546163,86.124648 34.0855792,85.750704 C36.0477797,85.563732 38.1501374,85.1897881 39.458271,83.3668113 C39.5517092,83.3668113 39.5984282,83.3200683 39.5984282,83.3200683 Z" id="Path" fill="#71B1D8"></path>
                <path d="M5,159.448115 C5,159.448115 7.43404255,166.914958 8.13617021,173.386222 C8.13617021,173.386222 9.63404255,179.26919 13.8468085,180.988826 C13.8468085,180.988826 15.4851064,181.215094 16,179.631218 L16,179.631218 C15.3446809,179.495458 14.7361702,179.133429 14.2680851,178.726147 C13.612766,178.13785 13.0978723,177.413792 12.6765957,176.689735 C11.7404255,175.060605 11.0382979,173.295715 10.6170213,171.440318 C10.1021277,169.041877 10.0553191,166.552929 9.72765957,164.109235 C9.44680851,161.982316 8.93191489,159.810144 7.80851064,158 C6.73191489,158.181014 5.70212766,158.588297 5,159.448115 Z" id="Path" fill="#CCCBCB"></path>
                <path d="M19.8095238,62.2279624 L19.8095238,62.2279624 C19.4285714,61.7247499 19.0952381,61.2672839 18.7619048,60.7640713 C17.4761905,58.9342074 16.3333333,57.0128503 15.2857143,55 C14.6666667,55.1372398 14,55.3202262 13.3809524,55.4117194 C11.8095238,55.7319456 10.0952381,55.8234388 8.52380952,55.8234388 C7.71428571,55.8234388 6.95238095,55.7776922 6.14285714,55.6404524 C6.0952381,56.4181445 6.04761905,57.2415833 6,58.0192754 C6.95238095,58.0192754 7.9047619,57.9277822 8.85714286,57.8820357 C10.6666667,57.8362891 12.7142857,58.2022618 13.6666667,59.8033928 C14.2380952,60.8098179 14.2380952,62.0907226 14.6190476,63.188641 C15.2380952,65.1099981 16.8571429,66.482396 18.4761905,67.7175541 C21.4761905,69.9591374 24.5714286,72.0634809 27.8095238,73.8933448 C30.1904762,75.2657427 32.6666667,76.5466475 35.3333333,77.3243396 C37.1904762,77.8275522 39.0952381,78.1020318 41,77.964792 C41,77.8275522 41,77.6445658 41,77.507326 C41,76.7753805 41,75.9976883 41,75.2657427 L41,75.2657427 C39.1428571,75.4944757 37.2380952,75.128503 35.4285714,74.5337972 C33.6666667,73.9390914 31.952381,73.1613993 30.3809524,72.1549741 C29.2380952,71.4687751 28.1428571,70.919816 27.047619,70.0506306 C25.3333333,68.6324861 23.7619048,67.0313552 22.2857143,65.2929845 C21.3809524,64.3323059 20.5714286,63.2801342 19.8095238,62.2279624 Z" id="Path" fill="#4FA0C9"></path>
                <path d="M8.47562673,29 C6.83040008,32.9446996 6.67616008,37.3704602 7.44736007,41.5556903 C7.6530134,42.6140244 7.9614934,43.7204645 8.78410672,44.3939498 C9.65813338,45.0674351 10.8920534,45.0674351 12.0231467,44.9231168 C12.3316267,44.8750107 12.69152,44.8269046 13,44.7787986 C12.3316267,43.6242523 11.8689067,42.4216 11.5604267,41.1227355 C10.9434667,38.6212186 10.4807467,36.0715957 10.06944,33.5219728 C9.91520004,32.607957 9.86378671,31.6458351 9.96661337,30.7318194 C9.34965338,30.2988645 8.83552006,29.7215914 8.47562673,29 Z" id="Path" fill="#4FA0C9"></path>
                <path d="M9.32260693,82 C8.66003426,89.9881832 9.03864722,95.5184638 10.2691393,104.593796 C11.5469581,113.763663 13.2033897,122.93353 15.0491279,132.008863 C15.9956603,136.688331 16.9895193,141.320532 18.0307049,146 L22.9053468,136.262925 C18.3619913,114.378139 22.8580201,87.3412112 22.8580201,87.3412112 L23,86.3013294 L23,86.3013294 C20.3970359,86.0177253 17.7940718,85.4977843 15.2384344,84.8360414 C13.1560631,84.2688331 11.0263652,83.5125554 9.32260693,82 Z" id="Path" fill="#E6E5E5"></path>
                <path d="M16.8,164.666981 C16.2851064,164.571466 15.6765957,164.571466 15.0212766,164.714738 C15.0212766,164.714738 12.9148936,160.941907 12.8212766,158.363009 C12.8212766,158.363009 10.293617,157.694406 8,158.171979 C9.12340426,160.082274 9.63829787,162.374628 9.91914894,164.619224 C10.2468085,167.198121 10.293617,169.824777 10.8085106,172.355917 C11.2297872,174.313969 11.9319149,176.176506 12.8680851,177.895771 C13.2893617,178.659889 13.8042553,179.471764 14.4595745,180.044853 C14.9744681,180.522426 15.5829787,180.856728 16.1914894,181 C16.3319149,180.617941 16.3787234,180.09261 16.3319149,179.424007 C16.1914894,177.991286 16.1446809,176.224263 16.1446809,174.552756 C16.1446809,173.979667 16.1914894,173.406579 16.1914894,172.833491 C16.2382979,172.069373 16.3319149,171.353012 16.4255319,170.732166 C16.5191489,170.159078 16.706383,169.681504 16.893617,169.347203 C17.8297872,167.77121 19,165.813158 19,165.813158 C19,165.813158 18.2042553,164.905768 16.8,164.666981 Z" id="Path" fill="#263E83"></path>
                <path d="M10.3433468,30.0322581 C10.522434,29.5 10.7015213,28.9677419 11,28.483871 C10.3433468,28.2419355 9.62699775,28.0967742 8.91064875,28.0483871 C8.7315615,28.0483871 8.55247426,28 8.31369126,28 C8.07490826,28 7.95551676,28.1935484 8.01521251,28.3870968 C8.13460401,28.6774194 8.25399551,28.9193548 8.43308276,29.1612903 C8.850953,29.8387097 9.4479105,30.4677419 10.1642595,31 C10.1642595,30.6612903 10.283651,30.3709677 10.3433468,30.0322581 L10.3433468,30.0322581 Z" id="Path" fill="#CCCBCB"></path>
                <path d="M13.3562019,13.1576394 C14.0627996,12.040132 15.0991428,11.1554385 16.2768055,10.7363732 C18.1610659,10.0844939 20.3750718,10.6432476 21.7882671,12.1332576 C22.1651191,12.040132 22.4948647,11.8538807 22.7775038,11.5745038 C23.6254209,10.782936 24.2378056,9.66542856 25.3212553,9.24636325 C26.7815571,8.6410467 28.3831784,9.66542856 29.4195216,10.8760617 C30.4558648,12.0866948 31.3037819,13.5767047 32.6698707,14.4148354 C33.89464,15.1598404 35.5433678,15.3926544 36.2970719,16.6498503 C37.5218412,18.698614 35.4491548,21.5389456 36.3441784,23.7739605 C37.0978826,25.5899102 39.3118885,25.9158499 40.8192968,26.9867946 C42.1382791,27.9180508 42.9861962,29.5477492 43.0804093,31.2240104 C43.1275158,32.1552667 42.9390897,33.0865229 42.5622377,33.8780907 C44.352285,35.0887238 45.7654803,36.9046735 46.754717,39 C49.2042555,38.254995 51.5595809,36.9046735 52.9727762,34.6230957 C54.527291,32.062141 54.3859715,28.1508648 52.0777525,26.3349152 C50.6174507,25.1708449 48.6389774,25.0311565 46.84893,24.6120911 C45.0588826,24.1930258 43.0804093,23.0289555 42.7977702,21.0733175 C42.5622377,19.3504934 43.6927939,17.7673578 43.9283264,15.997971 C44.163859,14.3217097 43.4572613,12.5988857 42.2795986,11.4348154 C41.1490424,10.2707451 39.5945276,9.61886575 38.0400128,9.33948887 C36.485498,9.060112 34.7896636,9.15323763 33.3293618,8.50135826 C30.5971843,7.29072515 29.278202,4.03132833 27.0170896,2.02912742 C24.3320186,-0.299013171 20.3750718,-0.578390042 17.2660422,0.958182748 C14.6751842,2.26194148 11.7545806,5.28852425 11.142196,8.40823264 C10.6711309,10.6432476 11.424835,13.017951 12.6024978,14.9270263 C12.7438173,14.3217097 12.9793498,13.7163932 13.3562019,13.1576394 Z" id="Path" fill="#263E83"></path>
                <path d="M16.0784277,44.3287671 C16.7016403,44.2328767 17.3767873,44.1369863 18,44.0410959 C17.1171154,43.5616438 16.2861652,42.9383562 15.5590838,42.2191781 C13.8971834,40.6369863 12.7546268,38.5753425 11.9236766,36.4178082 C11.300464,34.7876712 10.8849889,33.0616438 10.4695138,31.3356164 C10.3137106,31.239726 10.1579075,31.0958904 10.0540387,31 C9.95016991,31.9109589 10.0021043,32.869863 10.1579075,33.7808219 C10.5733826,36.3219178 11.040792,38.8630137 11.6640047,41.3561644 C11.975611,42.6027397 12.4949549,43.8493151 13.1181676,45 C14.1049209,44.8082192 15.1436087,44.6164384 16.0784277,44.3287671 Z" id="Path" fill="#F1F1F1"></path>
                <path d="M10.4,30 C10.3,30.2307692 10.1,30.5 10.1,30.7307692 C10.4,30.8461538 10.7,30.9230769 10.9,31 C10.8,30.6923077 10.6,30.3461538 10.4,30 Z" id="Path" fill="#F1F1F1"></path>
                <path d="M9,28.5156352 C9.58741259,28.5694535 10.1748252,28.7309084 10.7132867,29 L10.7132867,29 C10.7622378,28.8923634 10.8111888,28.7847268 10.8601399,28.6770901 C11.986014,26.4705394 13.993007,25.4479915 16,25.4479915 C14.6293706,25.017445 13.2097902,24.9098084 11.7902098,25.0712633 L11.7902098,25.0712633 C10.8111888,26.1476296 9.88111888,27.2778141 9,28.5156352 Z" id="Path" fill="#4FA0C9"></path>
                <path d="M13.078125,156 L12,157.849711 C12.140625,160.346821 14.203125,164 14.203125,164 C14.859375,163.861272 15.46875,163.861272 15.984375,163.953757 L18,160.346821 C16.640625,158.589595 14.953125,157.063584 13.078125,156 Z" id="Path" fill="#FFFFFF"></path>
                <path d="M12.8,14 C12.45,14.5581395 12.15,15.1627907 12,15.8139535 C12.55,16.6511628 13.2,17.3953488 13.9,18 L14,17.9534884 C13.5,16.6511628 13.1,15.3488372 12.8,14 Z" id="Path" fill="#2A2A55"></path>
                <path d="M13.8227848,155.163194 C17.3670886,156.517361 19.3417722,159 19.3417722,159 L20,158.052083 C18.8860759,154.034722 17.8227848,150.017361 16.8101266,146 L12,154.621528 C12.7088608,154.756944 13.2658228,154.9375 13.8227848,155.163194 Z" id="Path" fill="#CCCBCB"></path>
                <path d="M21.1859756,11.7157692 C19.8140244,10.1811245 17.6646341,9.60563274 15.8353659,10.2770398 C14.6920732,10.7086586 13.6402439,11.6198539 13,12.7708374 C13.2743902,14.1616092 13.6402439,15.5044233 14.097561,16.8472374 C15.1493902,19.8206116 16.7042683,22.6021551 18.8079268,24.6643339 C19.0365854,24.2327151 19.3109756,23.8490539 19.6310976,23.4174351 C19.722561,23.2735622 19.8597561,23.1296892 19.9969512,23.1776469 C20.179878,23.1776469 20.2713415,23.4174351 20.3170732,23.561308 C20.5914634,24.376588 20.6829268,25.2877833 20.5914634,26.1989786 C21.0030488,26.4867245 21.4603659,26.7265127 21.9176829,26.8703857 C22.6036585,27.0622163 23.3353659,27.0622163 23.9756098,26.7265127 C24.6158537,26.3428516 25.0731707,25.6714445 25.4847561,24.9520798 C26.7195122,22.746028 27.4054878,20.300188 28,17.7584327 C27.7713415,16.7513222 27.4969512,15.8401269 27.4969512,14.8330163 C27.4969512,13.7299904 27.8170732,12.8187951 27.4054878,11.7637269 C26.9939024,10.660701 25.6219512,9.89337862 24.7987805,10.7086586 C24.1585366,11.332108 24.0670732,12.6749221 23.2439024,12.962668 C22.4664634,13.2504139 21.7804878,12.3871763 21.1859756,11.7157692 C21.1859756,11.7157692 21.1859756,11.7157692 21.1859756,11.7157692 Z" id="Path" fill="#F8D0A3"></path>
                <path d="M13.9301005,155 L13,156.627907 C14.9067061,157.744186 16.580887,159.232558 17.8830277,161 L18.9991484,158.953488 C19.0456534,158.953488 17.1854523,156.395349 13.9301005,155 Z" id="Path" fill="#F8D0A3"></path>
                <path d="M16.4104683,32.0890052 C15.8595041,32.1361257 15.3636364,32.2774869 14.9779614,32.513089 C14.4269972,32.8900524 14.1515152,33.4554974 14.0413223,34.0680628 C13.9862259,34.4450262 13.9862259,34.8219895 14.0413223,35.1989529 C14.2066116,35.4816754 14.4269972,35.7172775 14.6473829,35.9528796 C14.6473829,35.9528796 14.6473829,35.9528796 14.6473829,35.9528796 C14.8677686,36 15.0330579,36 15.2534435,36 C16.1349862,36 17.1267218,35.6230366 17.7327824,35.104712 C18.3939394,34.5863874 18.8347107,33.8795812 19,33.078534 C18.8347107,32.9842932 18.6694215,32.8429319 18.5592287,32.7015707 C18.338843,32.513089 18.1184573,32.3246073 18.1184573,32.0418848 C17.677686,31.947644 17.3471074,32.0418848 16.7961433,32.0418848 C16.630854,32.0890052 16.5206612,32.0890052 16.4104683,32.0890052 Z" id="Path" fill="#FFFFFF"></path>
                <path d="M14,35 C14,35.25 14.0909091,35.5625 14.0909091,35.8125 C14.3636364,35.875 14.7272727,35.9375 15,36 C14.6363636,35.6875 14.2727273,35.375 14,35 Z" id="Path" fill="#F1F1F1"></path>
                <path d="M28.0177515,34.2352941 C27.0710059,34.0470588 26.1242604,34.0470588 25.3668639,33.2 C24.4674556,32.1176471 23.8047337,30.9882353 22.8579882,30 C22.8579882,30 22.8579882,30.0470588 22.8579882,30.0470588 C22.9053254,30.2352941 22.9053254,30.4235294 22.9053254,30.5647059 C22.9526627,31.0823529 22.8579882,31.6 22.6213018,32.0705882 C21.816568,33.8588235 19.9704142,33.5294118 18.739645,32.5411765 C18.5976331,33.2941176 18.2189349,34.0470588 17.6508876,34.5647059 C17.0828402,35.0823529 16.2307692,35.4588235 15.5207101,35.4588235 C15.3313609,35.4588235 15.1893491,35.4588235 15,35.4117647 C15.5207101,35.9764706 16.2307692,36.4 16.9408284,36.6352941 C18.1242604,37.0117647 19.3550296,37.0117647 20.5857988,36.9176471 C21.816568,36.8235294 23.0473373,36.6823529 24.2307692,36.8705882 C24.8934911,36.9647059 25.5088757,37.1058824 26.1242604,37.4352941 C26.8343195,37.4352941 27.591716,37.5764706 28.2071006,37.7176471 C28.443787,37.7647059 28.7278107,37.9058824 29.0118343,38 C29.2485207,36.8235294 30.0059172,35.7411765 31,35.1294118 C30.0532544,34.8 29.0591716,34.4705882 28.0177515,34.2352941 C28.0177515,34.2352941 28.0177515,34.2352941 28.0177515,34.2352941 C28.0177515,34.2352941 28.0177515,34.2352941 28.0177515,34.2352941 Z" id="Path" fill="#CCCBCB"></path>
                <path d="M17,32 C17.091954,32 17.2298851,32 17.3218391,32 C17.7816092,32 18.0114943,31.9487179 18.4252874,32 C18.4252874,32 18.4252874,31.9487179 18.4252874,31.9487179 C18.4252874,31.6410256 18.6551724,31.3333333 18.8850575,31.4358974 C19.2068966,30.7692308 19.7586207,30.3076923 20.4022989,30.1025641 C20.5862069,30.0512821 20.7701149,30 21,30 L21,30.0512821 C20.1264368,30 19.2068966,30.1538462 18.4252874,30.6153846 C17.8275862,30.9230769 17.3218391,31.4358974 17,32 Z" id="Path" fill="#F1F1F1"></path>
                <path d="M17,145.016913 C18.0344828,149.344609 19.1206897,153.672304 20.2586207,158 L26,149.490486 C24.862069,144.773784 23.4655172,140.154334 22.3275862,135 L17,145.016913 Z" id="Path" fill="#E6E5E5"></path>
                <path d="M19,31.0316571 C18.5,30.8702667 18,31.3544381 18,31.8386095 C18,31.8386095 18,31.9193048 18,31.9193048 C18.2,31.9193048 18.3,32 18.5,32 C18.7,31.677219 18.8,31.3544381 19,31.0316571 Z" id="Path" fill="#97C4E3"></path>
                <path d="M18.3001767,31.6875 C18.180106,31.625 18.0600353,31.625 18,31.625 C18.0600353,32 18.2401414,32.25 18.4802828,32.5 C18.6603888,32.6875 18.7804595,32.8125 18.9605655,33 C19.0206009,32.5 19.0206009,32 18.9005302,31.5 C18.8404948,31.3125 18.7804595,31.0625 18.6003535,31 C18.6003535,31 18.6003535,31 18.6003535,31 C18.4802828,31.1875 18.4202474,31.4375 18.3001767,31.6875 Z" id="Path" fill="#FFFFFF"></path>
                <path d="M15,54.7076923 C16.0050761,56.7384615 17.1015228,58.6769231 18.3350254,60.5230769 C18.6548223,61.0307692 18.9746193,61.5384615 19.3401015,62 L19.3401015,62 C20.1624365,61.5384615 20.893401,60.9384615 21.5786802,60.2461538 C22.6751269,59.0923077 23.5431472,57.6153846 24,56 C22.7208122,55.1230769 21.4873096,54.1538462 20.3451777,53 C18.6091371,53.6923077 16.8274112,54.2461538 15,54.7076923 Z" id="Path" fill="#F8D0A3"></path>
                <path d="M20.4468085,30 C20.2340426,30 19.9680851,30.0518542 19.7553191,30.1037084 C19.0106383,30.3111252 18.3723404,30.777813 18,31.4519176 C18,31.4519176 18,31.4519176 18,31.4519176 C18.1595745,31.5037718 18.212766,31.7111886 18.2659574,31.8667512 C18.3723404,32.2815848 18.3723404,32.6964184 18.3191489,33.1112519 C19.7021277,34.2001901 21.7765957,34.5631695 22.6808511,32.59271 C22.893617,32.074168 23,31.5037718 23,30.9333756 C22.6276596,30.4666878 22.1489362,30.2074168 21.5106383,30.1037084 C21.1382979,30.0518542 20.7659574,30 20.4468085,30 L20.4468085,30 Z" id="Path" fill="#FFFFFF"></path>
                <path d="M19.4020101,24.7464789 C19.281407,25.028169 19.120603,25.3661972 19,25.7042254 C19.4020101,25.8732394 19.8040201,26.0985915 20.1658291,26.3239437 C20.4472362,26.4929577 20.6884422,26.7746479 20.9296482,27 C20.9698492,26.8309859 20.9698492,26.6619718 20.9698492,26.5492958 C21.0502513,25.5352113 20.9698492,24.4647887 20.7286432,23.4507042 C20.6884422,23.2253521 20.6080402,23 20.4472362,23 C20.3266332,23 20.2060302,23.1690141 20.1256281,23.2816901 C19.8844221,23.7323944 19.6432161,24.2394366 19.4020101,24.7464789 Z" id="Path" fill="#CCCBCB"></path>
                <path d="M21.9473684,161.767025 L28,160.089606 L27.8947368,159.670251 C27.4736842,155.896057 26.6842105,152.401434 25.8421053,149 L20,157.154122 C20.4736842,158.784946 20.8947368,160.369176 21.3684211,162 L21.9473684,161.767025 Z" id="Path" fill="#E6E5E5"></path>
                <path d="M21,43.047619 L21.0487805,43.2857143 C22.0731707,43.7142857 23,44.4285714 23.9268293,45 C24.6097561,43.8571429 25.7317073,43 27,42.6190476 C26.6585366,42.4285714 26.2682927,42.1904762 25.8780488,42 C24.2195122,42.3333333 22.6097561,42.7142857 21,43.047619 Z" id="Path" fill="#F1F1F1"></path>
                <path d="M21.048,27.2111437 C21.048,27.3519062 21,27.4926686 21,27.5865103 C22.008,28.3372434 22.728,29.4164223 22.968,30.7771261 L22.968,30.7771261 C23.976,31.7624633 24.6,32.888563 25.512,33.9677419 C26.232,34.8123167 27.192,34.7653959 28.2,35 C28.2,35 28.2,35 28.2,35 C29.112,34.6715543 30.024,34.1085044 30.744,33.4516129 C31.8,32.4662757 32.568,31.1994135 33,29.7917889 C31.752,28.4780059 30.84,26.7888563 30.312,24.9589443 C29.736,22.9882698 29.304,21.0175953 28.776,19 C28.152,21.4398827 27.432,23.8797654 26.136,26.0381232 C25.704,26.7419355 25.224,27.398827 24.552,27.7741935 C23.88,28.1495601 23.112,28.1495601 22.392,27.914956 C21.912,27.7272727 21.48,27.4926686 21.048,27.2111437 Z" id="Path" fill="#DFB58B"></path>
                <path d="M32.5315455,29.8390681 C32.9694523,30.3082437 33.4560154,30.6835842 33.9912348,31.0589247 C36.5700192,32.8417921 39.829992,33.3109677 42.4574327,35 C42.4574327,35 42.4574327,35 42.4574327,35 C42.8466832,34.1554839 43.0413085,33.2171326 42.9926522,32.3256989 C42.8953395,30.6366667 42.019526,28.994552 40.6571493,28.0562007 C39.051491,26.9770968 36.8133008,26.6017563 36.0347998,24.8188889 C35.1103299,22.5668459 37.2512076,19.7048745 35.9861435,17.6405018 C35.2076425,16.32681 33.5046717,16.1391397 32.2396076,15.3884587 C30.8772309,14.5439426 30.0014174,13.0425806 28.8823222,11.822724 C27.7632271,10.6028673 26.1575689,9.57068095 24.6492233,10.1806093 C23.5787844,10.6028673 22.9462524,11.7758064 22.0217825,12.5264874 C21.7298447,12.7610752 21.3892505,12.9487455 21,13.0894982 C21,13.0894982 21,13.0894982 21,13.0894982 C21.632532,13.746344 22.3623767,14.5908602 23.189534,14.3093548 C24.0653475,14.0278494 24.1626602,12.7141577 24.8438485,12.1042293 C25.7196621,11.3535483 27.1793514,12.0573118 27.6172582,13.1364157 C28.055165,14.1686021 27.7145708,15.0600358 27.7145708,16.1391397 C27.7145708,17.1244086 28.0065087,18.0627598 28.2497902,19.0011111 C28.7363533,20.9716487 29.2229164,22.9891039 29.8067921,24.9596416 C30.3420115,26.8363441 31.2664814,28.5253763 32.5315455,29.8390681 Z" id="Path" fill="#2A2A55"></path>
                <path d="M40.5487603,74.9277344 C40.5487603,74.9277344 40.5950413,74.9277344 40.5950413,74.9277344 C45.1768595,74.2074549 47.1669421,69.2615352 48,64.6037274 C47.2595041,64.4116529 46.5190083,64.2195783 45.7785124,63.9314665 C43.4181818,63.1151497 41.1504132,62.0587397 38.9289256,60.8582737 C34.9950413,60.4741246 31.014876,58.6013978 27.5438017,56.7286709 C26.5719008,56.2004659 25.646281,55.6242423 24.7206612,55 C24.2115702,56.6806523 23.3785124,58.2172487 22.2677686,59.4177146 C21.6198347,60.1379942 20.8330579,60.7622365 20,61.2424228 C20.7404959,62.3468515 21.5272727,63.4032615 22.3603306,64.4596715 C23.7487603,66.2363611 25.2760331,67.965032 26.9884298,69.4536098 C28.0066116,70.3659639 29.1173554,70.9421875 30.2280992,71.6624671 C31.8016529,72.6708585 33.4214876,73.5351939 35.1338843,74.1594362 C36.892562,74.7836785 38.7438017,75.1678276 40.5487603,74.9277344 L40.5487603,74.9277344 Z" id="Path" fill="#71B1D8"></path>
                <path d="M22.2678319,86 C22.2678319,86 17.1293395,113.03285 22.3219213,135 L26,128.51401 C25.0804803,111.044444 25.0263909,93.5748792 25.0263909,93.5748792 L22.2678319,86 Z" id="Path" fill="#CCCBCB"></path>
                <path d="M27.5645161,160 L22,161.873388 C22.1935484,162.549889 22.3387097,163.22639 22.4354839,163.95493 C24.3709677,164.163084 26.3548387,163.642698 28,162.549889 L27.5645161,160 Z" id="Path" fill="#F8D0A3"></path>
                <path d="M22.140943,86.295754 L22,87.3265007 L24.4430128,94.8228404 L27.9665889,115.203514 C28.5773421,119.701318 27.8256459,124.292826 25.8054622,128.322108 L25.2886711,129.399707 C25.5705571,135.912152 25.9933863,142.424597 26.5571585,148 L36.7990197,131.976574 C39.5239186,127.24451 40.9803301,121.856515 40.9803301,116.374817 C41.0742921,103.63104 40.8863681,95.8535871 39.1950515,84 C39.1950515,84.0468521 39.1480705,84.0468521 39.1480705,84.0937042 C37.8326021,85.920937 35.6714754,86.295754 33.7452538,86.4831625 C29.8458295,86.7642753 25.9933863,86.7174231 22.140943,86.295754 Z" id="Path" fill="#E6E5E5"></path>
                <path d="M25.5789474,128 L22,134.613793 C23.1578947,139.682759 24.5789474,144.317241 25.7368421,149 L27,147.165517 C26.3684211,141.42069 25.8947368,134.710345 25.5789474,128 Z" id="Path" fill="#CCCBCB"></path>
                <path d="M30.8127516,175.392196 C30.6319772,174.412883 30.4060093,173.713374 30.4060093,173.713374 L29.3213629,169.656219 C29.3213629,169.656219 29.2761693,167.930762 28.2819101,166.858181 L28.2819101,166.858181 C27.6943934,166.25194 26.835715,165.832234 25.4799071,166.065404 C25.4799071,166.065404 23.6269695,165.7856 22.903872,169.376415 C22.8586784,169.702853 22.7682912,170.029291 22.7230976,170.448996 C22.1807744,175.159026 22,176.791215 22,176.791215 C22,176.791215 22,177.024385 22,177.444091 L22,177.490725 L22.0451936,177.770528 L22.0451936,177.817162 C22.225968,179.402717 23.1750336,182.340657 27.3328446,181.967585 C31.3098812,181.641147 31.219494,177.723894 30.8127516,175.392196 L30.8127516,175.392196 Z" id="Path" fill="#263E83"></path>
                <path d="M22,178.390132 L22.3275279,181.653582 C23.1229527,184.825104 25.3688582,184.871068 26.7257594,184.962996 C27.5679739,185.054924 28.316609,184.962996 28.9248751,184.825104 C31.0772011,184.273535 32.340523,182.113223 31.9194157,179.906947 L31.1239908,176 C31.5450981,178.298204 31.6386775,182.113223 27.5211842,182.480936 C23.1697424,182.802684 22.1871588,179.952911 22,178.390132 Z" id="Path" fill="#CCCBCB"></path>
                <path d="M23.2078929,45.9467191 C23.1078929,46.0872254 23.5078929,46.1808963 23.7078929,46.0872254 C23.7078929,46.04039 23.7078929,46.04039 23.8078929,45.9935545 L23.8078929,45.9935545 C23.7078929,45.8998836 23.3078929,45.8062127 23.2078929,45.9467191 Z" id="Path" fill="#0B6FB6"></path>
                <path d="M22,163.303448 C22.3712121,165.186207 22.530303,167.068966 22.6893939,169 C23.5378788,165.282759 25.7121212,165.572414 25.7121212,165.572414 C27.3030303,165.331034 28.3636364,165.765517 29,166.393103 L28.0454545,162 C26.2424242,163.013793 24.0681818,163.496552 22,163.303448 Z" id="Path" fill="#FFFFFF"></path>
                <path d="M31.6733429,39.8712871 C31.8133388,39.4752475 31.9533347,39.0792079 32,38.6336634 C31.1133594,38.4851485 30.1333882,37.9405941 29.2934129,37.5940594 C29.0134211,37.4950495 28.7334293,37.3465347 28.5001029,37.2970297 C27.893454,37.1485149 27.1934746,37 26.4468299,37 C25.5601893,37 24.6735487,37.1980198 24.0202345,37.6930693 C21.6869698,39.4257426 23.8335733,40.8613861 25.7001851,42 C25.840181,41.950495 25.9335116,41.950495 26.0735075,41.9009901 C28.0334499,41.4059406 29.9933923,40.9108911 31.6733429,39.8712871 C31.6733429,39.8712871 31.6733429,39.8712871 31.6733429,39.8712871 Z" id="Path" fill="#FFFFFF"></path>
                <g transform="translate(12.000000, 25.000000)" id="Path">
                    <path d="M12.5625,12.9974026 C13.265625,12.5298701 14.109375,12.3428571 15,12.3428571 C14.4375,12.0623377 13.78125,11.8753247 13.125,11.7818182 C11.90625,11.6415584 10.6875,11.7818182 9.515625,11.8285714 C8.296875,11.9220779 7.078125,11.9220779 5.90625,11.5480519 C5.203125,11.3142857 4.5,10.8935065 3.984375,10.3324675 C3.984375,10.3324675 3.984375,10.3324675 3.984375,10.3324675 C3.84375,10.2857143 3.65625,10.238961 3.515625,10.1922078 C3.515625,10.0051948 3.46875,9.77142857 3.46875,9.58441558 C3.421875,9.21038961 3.421875,8.83636364 3.46875,8.46233766 C3.5625,7.9012987 3.796875,7.29350649 4.265625,6.91948052 C4.59375,6.63896104 5.0625,6.4987013 5.484375,6.4987013 C5.8125,5.93766234 6.328125,5.51688312 6.890625,5.18961039 C7.734375,4.76883117 8.625,4.62857143 9.515625,4.67532468 C9.84375,4.67532468 10.125,4.72207792 10.453125,4.76883117 C11.015625,4.86233766 11.4375,5.14285714 11.765625,5.51688312 C11.765625,5.32987013 11.71875,5.14285714 11.71875,5.0025974 C11.71875,5.0025974 11.71875,4.95584416 11.71875,4.95584416 L11.71875,4.95584416 C11.484375,3.6 10.78125,2.52467532 9.796875,1.77662338 C9.515625,1.58961039 9.234375,1.35584416 8.90625,1.21558442 C8.484375,0.981818182 8.015625,0.794805195 7.546875,0.701298701 C6.890625,0.514285714 6.234375,0.420779221 5.578125,0.420779221 C5.578125,0.420779221 5.578125,0.420779221 5.578125,0.420779221 C3.609375,0.420779221 1.734375,1.30909091 0.65625,3.22597403 C0.609375,3.31948052 0.5625,3.41298701 0.515625,3.50649351 L0.515625,3.50649351 C0.28125,3.97402597 0.09375,4.48831169 -2.84217094e-14,5.0025974 L-2.84217094e-14,5.0025974 C0.09375,5.42337662 0.1875,5.84415584 0.234375,6.26493506 C0.609375,7.94805195 0.984375,9.58441558 1.546875,11.2207792 C2.296875,13.3246753 3.328125,15.3350649 4.828125,16.8779221 C5.484375,17.5792208 6.234375,18.1402597 7.03125,18.6545455 C7.921875,18.5142857 8.765625,18.3272727 9.65625,18.1402597 C11.203125,17.812987 12.796875,17.4857143 14.34375,17.1116883 C12.328125,15.9896104 10.21875,14.6337662 12.5625,12.9974026 Z" fill="url(#linearGradient-1)"></path>
                    <path d="M42.1875,24.1246753 C41.203125,24.4987013 40.453125,25.3402597 39.65625,26.0883117 C39.09375,26.6025974 38.53125,27.0233766 37.921875,27.3974026 C37.828125,27.4441558 37.734375,27.5376623 37.640625,27.5844156 C37.171875,27.8649351 36.65625,28.1454545 36.140625,28.3324675 C35.53125,28.5662338 34.921875,28.8 34.265625,28.7064935 C33.375,28.5662338 32.625,27.9116883 31.921875,27.3038961 C31.828125,27.2103896 31.734375,27.1636364 31.640625,27.0701299 C30,25.761039 28.078125,24.7324675 26.015625,24.4519481 C24.796875,24.2649351 23.4375,24.4051948 22.265625,24.8727273 C21.140625,25.3402597 20.109375,25.4337662 19.125,24.5454545 C18.703125,24.1714286 18.28125,23.7974026 17.859375,23.3766234 C15.328125,24.825974 12.65625,26.0415584 9.9375,27.0701299 C11.0625,28.238961 12.328125,29.2207792 13.6875,30.1090909 C14.625,30.7168831 15.5625,31.2779221 16.546875,31.7922078 C20.0625,33.6155844 24.09375,35.438961 28.078125,35.812987 C28.78125,35.8597403 29.484375,35.9064935 30.1875,35.8597403 C31.078125,35.812987 32.015625,35.6727273 32.90625,35.438961 C34.640625,35.0181818 36.328125,34.2701299 37.828125,33.2415584 C38.0625,33.1012987 38.25,32.961039 38.484375,32.774026 C39.84375,31.7922078 41.109375,30.6233766 42.234375,29.361039 C42.796875,28.7532468 43.3125,28.0519481 43.828125,27.3974026 C44.390625,26.6493506 44.625,25.9480519 44.90625,25.012987 C44.484375,24.0779221 43.171875,23.7506494 42.1875,24.1246753 Z" fill="url(#linearGradient-2)"></path>
                </g>
                <path d="M26.2323604,43 C24.8983704,43.4427754 23.7183023,44.43902 23,45.7673461 C23.7696096,46.2654684 24.5905266,46.7635908 25.5140581,46.9296315 C27.6689651,47.3724069 28.9003405,45.6566523 27.2071993,43.71951 C26.9506628,43.4981223 26.6428189,43.2213877 26.2323604,43 Z" id="Path" fill="#FFFFFF"></path>
                <path d="M26.0746269,148 L25,149.789855 C25.761194,153.275362 26.3880597,156.76087 26.7462687,160.576087 L26.8358209,161 L28,160.623188 C27.1940299,157.797101 26.5671642,153.322464 26.0746269,148 Z" id="Path" fill="#CCCBCB"></path>
                <path d="M30.0732861,35.2073881 C30.2624113,35.3028864 30.4515366,35.3506355 30.5933806,35.4461338 C30.7825059,35.5416321 30.9716312,35.6371304 31.1607565,35.7326286 C31.3026005,35.159639 31.4917258,34.5866493 31.822695,34.156907 C32.7210402,32.9631786 34.5177305,32.8199311 35.6997636,33.6794156 C36.8817967,34.5389002 37.5437352,36.1146217 37.4964539,37.6903433 C37.4964539,38.8840718 37.1654846,40.0300512 36.6453901,41.0805322 C38.1111111,41.1282814 39.5768322,41.6535219 40.7588652,42.6085047 C41.3735225,43.0859961 41.9408983,43.7067349 42.5555556,44.1842263 C43.1702128,44.6617177 43.9267139,45.0437108 44.6832151,44.9959617 C45.5815603,44.9482125 46.3380615,44.3752228 47,43.6112366 C47,43.5157383 46.9527187,43.3724909 46.9054374,43.2769926 C46.5744681,41.9877659 46.1489362,40.6985391 45.5815603,39.5048106 C44.5886525,37.4038485 43.2174941,35.5416321 41.3735225,34.2524053 C41.3735225,34.2524053 41.3735225,34.2524053 41.3735225,34.2524053 C38.820331,32.4856872 35.6524823,32.0559449 33.1465721,30.2414776 C32.6264775,29.8594845 32.1536643,29.4774914 31.7281324,29 C31.3026005,30.4324742 30.498818,31.7217009 29.5059102,32.7244329 C28.749409,33.44067 27.8983452,33.9659105 27,34.3001545 C27,34.3001545 27,34.3001545 27,34.3001545 C28.0874704,34.4434019 29.0803783,34.7776459 30.0732861,35.2073881 Z" id="Path" fill="#4FA0C9"></path>
                <path d="M31.0865863,36 C29.9936125,36.6291069 29.2484031,37.7421423 29,38.9519633 C29.8942513,39.2907132 30.9375445,39.8230344 31.8814764,39.968213 C32.2789214,40.0166058 32.6763664,40.0166058 33.0241308,39.9198201 C34.464869,39.4842845 34.1171046,37.9841065 33.2228533,37.1614282 C32.9247695,36.8710711 32.6266858,36.6774998 32.2789214,36.4839284 C32.0801989,36.3871427 31.8814764,36.290357 31.6827539,36.1935714 C31.4840314,36.1451785 31.2853089,36.0483928 31.0865863,36 Z" id="Path" fill="#CCCBCB"></path>
                <path d="M32.0952381,46.0591133 C31.2380952,46.635468 30.3809524,47.2118227 29.4761905,47.6995074 C29,47.9655172 28.4761905,48.2315271 28,48.4975369 C28.4285714,48.8522167 28.8571429,49.2512315 29.2857143,49.6059113 C30.3333333,50.4482759 31.3809524,50.3152709 32.4761905,49.9162562 C33.6666667,49.4729064 35,49.3842365 36.2857143,49.5172414 C38.3333333,49.7832512 40.2857143,50.7142857 42,52 C42.2857143,51.1576355 42.8571429,50.3596059 43.5714286,49.7832512 C43.7142857,49.6502463 43.8571429,49.5615764 44,49.4729064 C41.952381,46.591133 38.952381,44.3300493 35.4761905,43 C34.5238095,44.1527094 33.3809524,45.1724138 32.0952381,46.0591133 Z" id="Path" fill="#FFFFFF"></path>
                <path d="M35.9798658,42.770917 C36.2147651,42.4385114 36.4496644,42.1535923 36.6375839,41.8211867 C36.8255034,41.5362676 37.0134228,41.203862 37.1543624,40.8714564 C37.6711409,39.8267531 38,38.6870768 38,37.4999139 C38,35.9328589 37.3892617,34.3658039 36.2147651,33.5110467 C35.0402685,32.7037759 33.2550336,32.8462355 32.3624161,33.9859118 C32.033557,34.460777 31.7986577,34.9831286 31.704698,35.5529668 C32.033557,35.7429128 32.3154362,35.9328589 32.5973154,36.217778 C33.442953,37.0250487 33.7718121,38.4971307 32.409396,38.9245093 C32.0805369,39.0194824 31.704698,39.0194824 31.3288591,38.9719958 C31.2348993,39.3993745 31.1409396,39.7792666 31,40.1591587 C31,40.1591587 31,40.1591587 31,40.1591587 C31.704698,41.013916 32.1744966,42.0111328 32.4563758,43.1033226 C32.6912752,44.0530529 32.738255,45.0502697 32.6442953,46 C33.9127517,45.0977562 35.0402685,44.0055664 35.9798658,42.770917 Z" id="Path" fill="#F8D0A3"></path>
                <path d="M48.2110228,47.7408798 C50.0896417,46.5171897 51.7334332,44.8699146 52.6727426,42.7519894 C52.9545355,42.1401443 53.1423974,41.3871043 52.8606045,40.7752592 C52.4848807,39.9280891 51.3577094,39.8339591 50.5592964,40.2104792 C49.4790905,40.7752592 48.7746084,41.9518843 48.0701264,42.9873144 C47.8822645,43.2697044 47.6944026,43.5050294 47.4595752,43.7403545 C46.8490241,44.4933945 46.0506111,45.0581746 45.1582671,45.1052396 C44.4068195,45.1523046 43.655372,44.7757846 43.0448208,44.3051345 C42.4342697,43.8344845 41.870684,43.2226394 41.2601329,42.7519894 C40.0859961,41.8106893 38.6300664,41.2929743 37.1741368,41.2459093 C37.0332404,41.5753643 36.8453785,41.8577543 36.6575166,42.1872093 C36.4696547,42.5166644 36.2348274,42.8461194 36,43.1285094 C39.381514,44.4933945 42.3873042,46.9407747 44.4068195,50 C45.3930944,49.2469599 46.4733003,48.7763099 47.5535062,48.1644648 C47.7413681,48.0703348 47.9292299,47.9291398 48.1170918,47.8350098 C48.1640573,47.7879448 48.1640573,47.7879448 48.2110228,47.7408798 Z" id="Path" fill="#CCCBCB"></path>
                <path d="M40.9852941,61.3764706 C40.3235294,61.4235294 39.6617647,61.3764706 39,61.3294118 C41.1176471,62.4588235 43.2794118,63.5411765 45.5294118,64.3411765 C46.2352941,64.5764706 46.9411765,64.8117647 47.6470588,65 C47.7794118,64.2470588 47.8676471,63.4470588 47.9558824,62.7411765 C48,62.5529412 48,62.3176471 48,62.1294118 C46.4558824,62.1294118 44.9117647,61.7058824 43.5,61 C42.7058824,61.2352941 41.8676471,61.3764706 40.9852941,61.3764706 Z" id="Path" fill="#CCCBCB"></path>
                <path d="M44.19156,50.3911143 C44.03502,50.4907441 43.87848,50.6401887 43.72194,50.7398185 C42.93924,51.3874119 42.2609,52.2840798 42,53.2305625 C42.10436,53.3301923 42.20872,53.3800072 42.31308,53.4796369 C43.09578,54.1272304 43.93066,54.8246387 44.92208,54.9740834 C45.6526,55.0737131 46.33094,54.8744536 47.00928,54.5755643 C47.58326,54.3264899 48.15724,54.0774155 48.67904,53.7785262 C48.7834,53.7287113 48.88776,53.6290816 48.99212,53.5792667 C49.0443,51.6863012 48.83558,49.7933357 48.41814,48 C48.36596,48.0498149 48.31378,48.0498149 48.31378,48.0996298 C48.10506,48.2490744 47.89634,48.3487042 47.68762,48.4483339 C46.48748,49.0959274 45.28734,49.6438911 44.19156,50.3911143 Z" id="Path" fill="#4FA0C9"></path>
                <path d="M49,58 C47.4285714,59.1830986 45.7619048,60.084507 44,60.6478873 C45.5238095,61.4929577 47.1904762,62 48.8571429,62 C48.952381,60.6478873 49,59.3521127 49,58 Z" id="Path" fill="#4FA0C9"></path>
                <path d="M48.3376383,63.0721347 C48.2411702,63.8295126 48.1447021,64.5868905 48,65.3442684 C50.6046384,65.959638 53.3539789,66.1963186 56.0068514,65.8176296 C57.4056387,65.6282852 58.900894,65.2022601 59.8655749,64.2082016 C60.9267239,63.1194708 61.3125963,61.4627067 62.5666814,60.5633204 C63.8207666,59.616598 65.6536603,59.7586064 67.0042135,59.0012284 C68.7406391,58.0545061 69.4641498,55.6877001 68.6924051,53.8889276 C67.9206604,52.090155 65.8948305,50.9540882 63.8690006,51.0014243 C61.8914048,51.0487604 60.0102771,52.2321634 58.900894,53.8415914 C58.0326812,55.1196667 57.5985748,56.6344225 56.8268301,57.9598338 C55.4280428,60.3266398 52.8234044,61.9360678 50.0740639,62.3620929 C49.4952554,62.4567652 48.9646809,62.5041013 48.3858724,62.5041013 C48.3858724,62.6934458 48.3376383,62.8827902 48.3376383,63.0721347 Z" id="Path" fill="#CCCBCB"></path>
                <g transform="translate(14.000000, 28.000000)" id="Path">
                    <path d="M5.50909091,0.8 C5.18181818,0.85 4.90909091,0.95 4.58181818,1.05 C4.47272727,0.85 4.47272727,0.6 4.63636364,0.4 C4.85454545,0.15 5.18181818,0.1 5.45454545,0.35 C5.61818182,0.45 5.67272727,0.65 5.67272727,0.8 C5.61818182,0.8 5.56363636,0.8 5.50909091,0.8 Z" fill="#2A2A55"></path>
                    <path d="M1.2,2.4 C0.927272727,2.55 0.654545455,2.75 0.436363636,2.95 C0.272727273,2.8 0.163636364,2.6 0.218181818,2.35 C0.327272727,2.05 0.654545455,1.9 0.927272727,2 C1.09090909,2.05 1.25454545,2.2 1.30909091,2.3 C1.30909091,2.35 1.25454545,2.4 1.2,2.4 Z" fill="#2A2A55"></path>
                    <path d="M4.74545455,3.65 C4.69090909,3.55 4.74545455,3.4 4.74545455,3.25 C4.74545455,3.1 4.74545455,2.95 4.69090909,2.9 C4.63636364,2.8 4.47272727,2.8 4.41818182,2.85 C4.30909091,2.85 4.2,2.9 4.14545455,3 C4.03636364,3.05 3.92727273,3.1 3.87272727,3.2 C3.81818182,3.3 3.76363636,3.4 3.81818182,3.5 C3.87272727,3.6 3.92727273,3.6 4.03636364,3.65 C4.25454545,3.75 4.47272727,3.8 4.69090909,3.8" fill="#0B6FB6"></path>
                </g>
            </g>
        </g>
    </g>
</svg>