<svg width="25" height="24" viewBox="0 0 25 24" fill="none" xmlns="http://www.w3.org/2000/svg">
    <g clip-path="url(#a)">
        <path fill-rule="evenodd" clip-rule="evenodd" d="M19.5-.001a1 1 0 0 1 1 1v1h1.495A2.508 2.508 0 0 1 24.5 4.505v16.99A2.507 2.507 0 0 1 21.996 24H3.004A2.507 2.507 0 0 1 .5 21.496V4.505a2.509 2.509 0 0 1 2.505-2.506H4.5v-1a1.001 1.001 0 0 1 2 0v1h12v-1a1 1 0 0 1 1-1zm3 8H2.499v13.498c0 .278.227.504.505.504h18.992a.504.504 0 0 0 .504-.504V7.999zM7.5 19c0 1.333-2 1.333-2 0 0-1.334 2-1.334 2 0zm3 0c0 1.333-2 1.333-2 0 0-1.334 2-1.334 2 0zm6 0c0 1.333-2 1.333-2 0 0-1.334 2-1.334 2 0zm-3 0c0 1.333-2 1.333-2 0 0-1.334 2-1.334 2 0zm-6-4c0 1.333-2 1.333-2 0s2-1.333 2 0zm3 0c0 1.333-2 1.333-2 0s2-1.333 2 0zm6 0c0 1.333-2 1.333-2 0s2-1.333 2 0zm3 0c0 1.333-2 1.333-2 0s2-1.333 2 0zm-6 0c0 1.333-2 1.333-2 0s2-1.333 2 0zm-3-4c0 1.334-2 1.334-2 0 0-1.333 2-1.333 2 0zm6 0c0 1.334-2 1.334-2 0 0-1.333 2-1.333 2 0zm3 0c0 1.334-2 1.334-2 0 0-1.333 2-1.333 2 0zm-6 0c0 1.334-2 1.334-2 0 0-1.333 2-1.333 2 0zm-9-7.001H3.005a.506.506 0 0 0-.505.506l-.001 1.494h20V4.506A.506.506 0 0 0 21.996 4H20.5l-.006.116A1 1 0 0 1 18.5 4H6.5l-.006.116A1 1 0 0 1 4.5 3.999z" fill="#707070"/>
    </g>
    <defs>
        <clipPath id="a">
            <path fill="#fff" d="M0 0h25v24H0z"/>
        </clipPath>
    </defs>
</svg>
