<svg width="25" height="25" viewBox="0 0 25 25" fill="none" xmlns="http://www.w3.org/2000/svg">
    <path fill-rule="evenodd" clip-rule="evenodd" d="M12.5 1.042A11.46 11.46 0 0 1 23.958 12.5 11.46 11.46 0 0 1 12.5 23.958a11.463 11.463 0 0 1-8.102-3.356A11.46 11.46 0 0 1 12.5 1.042zm0 1.703a9.75 9.75 0 0 0-9.013 6.022 9.75 9.75 0 0 0 0 7.466 9.75 9.75 0 0 0 5.28 5.28 9.749 9.749 0 0 0 7.466 0 9.75 9.75 0 0 0 5.28-5.28 9.75 9.75 0 0 0-2.117-10.629A9.759 9.759 0 0 0 12.5 2.745zm0 7.672c.575 0 1.042.466 1.042 1.041v6.25a1.042 1.042 0 0 1-2.084 0v-6.25c0-.575.467-1.041 1.042-1.041zm0-4.167a1.042 1.042 0 1 1 .064 2.084A1.042 1.042 0 0 1 12.5 6.25z" fill="#DB003D"/>
</svg>
