<svg width="194" height="174" viewBox="0 0 194 174" fill="none" xmlns="http://www.w3.org/2000/svg">
    <g clip-path="url(#a)">
        <path d="M21.5 173.07h158.14" stroke="#737471" stroke-linecap="round" stroke-linejoin="round"/>
        <path d="M160.74 79.24a17.41 17.41 0 0 0 13.79-12l-14.69-19-11.54 10.4-1.11 7.21 13 13.44.55-.05z" fill="#E9EAEB" stroke="#E9EAEB" stroke-linecap="round" stroke-linejoin="round"/>
        <path d="m190.384 33.964-16.08-6.726a4.38 4.38 0 0 0-5.731 2.35l-13.711 32.778a4.38 4.38 0 0 0 2.35 5.73l16.08 6.727a4.38 4.38 0 0 0 5.731-2.35l13.711-32.778a4.38 4.38 0 0 0-2.35-5.731z" fill="#fff" stroke="#737471" stroke-linecap="round" stroke-linejoin="round"/>
        <path d="m156.8 57.74-2.07 4.94A4.063 4.063 0 0 0 156.9 68l16.7 7a4 4 0 0 0 5.29-2.17l2.07-5-24.16-10.09z" fill="#E9EAEB" stroke="#737471" stroke-linecap="round" stroke-linejoin="round"/>
        <path d="M167.03 69.71a2.51 2.51 0 1 0 0-5.02 2.51 2.51 0 0 0 0 5.02z" fill="#fff" stroke="#737471" stroke-linecap="round" stroke-linejoin="round"/>
        <path d="M170.68 73.84a28.677 28.677 0 0 1-10.51 6.58" stroke="#737471" stroke-linecap="round" stroke-linejoin="round"/>
        <path d="m162.93 70.83 6.24 4.21.77-1.1-7.01-3.11z" fill="#737371"/>
        <path opacity=".1" d="M161.45 67.11a4.05 4.05 0 0 1-2.17-5.3l14-33.39c.159-.365.375-.703.64-1a4 4 0 0 0-5.19 2.2l-14 33.4a4.003 4.003 0 0 0-.027 3.101 3.987 3.987 0 0 0 2.197 2.189l16.7 7a3.999 3.999 0 0 0 4.66-1.16h-.11l-16.7-7.04z" fill="#737371"/>
        <path d="M147.62 66c-1.76-4.94-3.12-14.63 4.42-17.7 8-3.25 13.18 4 14.06 7.07.88 3.07-2.49 5.07-5.38 1.68-2.32-2.73-4.06-1.45-4.06-1.45" fill="#E9EAEB"/>
        <path d="M147.62 66c-1.76-4.94-3.12-14.63 4.42-17.7 8-3.25 13.18 4 14.06 7.07.88 3.07-2.49 5.07-5.38 1.68-2.32-2.73-4.06-1.45-4.06-1.45M158.16 74.49a15.37 15.37 0 0 1 2.63 5.34" stroke="#737471" stroke-linecap="round" stroke-linejoin="round"/>
        <path d="M74.85 61.24s2.6 37.3 3.2 37.3c.6 0 27.8-3.69 27.8-3.69l-3.16-15s12.88 10 29.06 10.85c9.26.47 18.53-3.1 27.93-9.58 2-1.38-2.17-8.21-4.25-10.46s-5.94-6-8.57-4.57c-4.44 2.42-16.24 9.36-26.53 6.88-13.72-3.33-22.72-13.57-22.72-13.57l-22.76 1.84z" fill="#fff" stroke="#737471" stroke-linecap="round" stroke-linejoin="round"/>
        <path opacity=".1" d="M155.38 70.91c2 2.62 3.67 5.46 2.73 6.21-8.88 7.18-19.7 11-29 10.52-16.17-.83-29-10.84-29-10.84l3.16 15S84 94.42 77.53 95.25c.036 1.16.21 2.311.52 3.43.59 0 27.8-3.69 27.8-3.69l-3.16-15s12.88 10 29.06 10.84c9.26.48 19.08-2.55 28-9.72 1.32-1.11-1.86-7.38-4.37-10.2z" fill="#737371"/>
        <path d="M154.8 80.37a1.84 1.84 0 1 0 0-3.68 1.84 1.84 0 0 0 0 3.68zM46.43 111.78a4.155 4.155 0 0 1 1.57-1.33 4.004 4.004 0 0 0-4.89 1.32L30 130.42a6.712 6.712 0 0 0-.89 5.94l.16-.26 17.16-24.32z" fill="#fff" stroke="#737471" stroke-linecap="round" stroke-linejoin="round"/>
        <path d="M31.51 139.72a6.717 6.717 0 0 0 8.16-.16l8.33-7.08a4.916 4.916 0 0 1 4.73-.78l1.86.66 7.66 2.74.19-.33 8.06-13.86L48 110.46a4.149 4.149 0 0 0-1.56 1.33L29.25 136.1l-.16.26a6.69 6.69 0 0 0 2.42 3.36v0z" fill="#E9EAEB" stroke="#737471" stroke-linecap="round" stroke-linejoin="round"/>
        <path d="M65.55 128.57 56 125.25s-3.49-1.15-5.61 1.24c-1.59 1.79-2.25 5.85-2.25 5.85M58.51 126.11l-.93 7.32M58.51 126.11l-7.03 5.18" stroke="#737471" stroke-linecap="round" stroke-linejoin="round"/>
        <path d="M120.94 169.68a4.62 4.62 0 0 1-2.28-.23 4.443 4.443 0 0 0 4.86 2.92l23.9-3.71a7.484 7.484 0 0 0 5.48-3.88c-.11 0-.22.05-.33.06l-31.63 4.84z" fill="#fff" stroke="#737471" stroke-linecap="round" stroke-linejoin="round"/>
        <path d="M153.72 160.21a7.513 7.513 0 0 0-6.46-6.44l-10.89-1.44a5.5 5.5 0 0 1-4.3-3.2l-.91-2-8.87-17.48-.41.1-12.29 13.45 9.07 26.24a4.62 4.62 0 0 0 2.28.23l31.63-4.84c.11 0 .22 0 .33-.06a7.481 7.481 0 0 0 .82-4.56v0z" fill="#E9EAEB" stroke="#737471" stroke-linecap="round" stroke-linejoin="round"/>
        <path d="m119.61 141.25 4.71 10.23s1.79 3.71 5.35 3.56c2.68-.11 6.46-2.73 6.46-2.73M123.1 148.83l6.6-4.93M123.1 148.83l9.63 1.64" stroke="#737471" stroke-linecap="round" stroke-linejoin="round"/>
        <path d="m101.3 119.84 9.32 26.28 18-4.1-23.46-50.73-19.27 3.19.75 3.12c1.36 9.32 2.25 15.4-2.45 21.4-4 5.12-10.23 3.8-13.67 1.94-3.44-1.86-11.82 12.21-8.25 14.16 21 11.5 34.92-6.64 37.76-12.4a27.306 27.306 0 0 0 .64-20.56" fill="#fff"/>
        <path d="m101.3 119.84 9.32 26.28 18-4.1-23.46-50.73-19.27 3.19.75 3.12c1.36 9.32 2.25 15.4-2.45 21.4-4 5.12-10.23 3.8-13.67 1.94-3.44-1.86-11.82 12.21-8.25 14.16 21 11.5 34.92-6.64 37.76-12.4a27.306 27.306 0 0 0 .64-20.56" stroke="#737471" stroke-linecap="round" stroke-linejoin="round"/>
        <path opacity=".1" d="m86.17 97.55.18.12c1.4 9.32 2.25 15.38-2.45 21.38-4 5.11-10.22 3.79-13.67 1.93l-22.52-10.45a4.004 4.004 0 0 0-2.68-.213 4.005 4.005 0 0 0-2.21 1.533s4.82 3.09 6.55 3.89L71.9 126.2c3.45 1.86 9.67 3.18 13.68-1.94 4.69-6 3.84-12.06 2.44-21.37l-.18-.13M125.17 169.89l-8.63-25s-13.37-30-13.53-29.68c-.53 1.07-.13 3-1.39 4.65l9.06 26.77 8.64 25a4.493 4.493 0 0 0 2.28.22l31.62-4.85.33-.07c.146-.286.276-.58.39-.88l-26.5 4.05a4.683 4.683 0 0 1-2.27-.21z" fill="#737371"/>
        <path d="M79.38 69.78a16.79 16.79 0 0 0 9.79 5 8.862 8.862 0 0 0 10-9.14 19.369 19.369 0 0 0-.35-3.05l-10.93-1.78-8.51 8.97z" fill="#E9EAEB" stroke="#737471" stroke-linecap="round" stroke-linejoin="round"/>
        <path d="M81.11 66.52c5.47 3.9 12.19 3 15.1.52 2.3-3.65-.09-9.29-.09-9.29l-9.32.15-5.69 8.62z" fill="#E9EAEB" stroke="#737471" stroke-linecap="round" stroke-linejoin="round"/>
        <path d="M103.13 53.7a1.519 1.519 0 0 1 1.25.6c.294.385.511.823.64 1.29a12.558 12.558 0 0 1-2.78 12.12 7.545 7.545 0 0 1-2.6 1.88 4.24 4.24 0 0 1-3.15 0c-2.45-1-1.32-3.39-7.22-6.51-.5-.26-.8-.35-.79-.9a1.82 1.82 0 0 1 .28-.84 17 17 0 0 1 11.14-8.42" fill="#E9EAEB"/>
        <path d="M103.13 53.7a1.519 1.519 0 0 1 1.25.6c.294.385.511.823.64 1.29a12.558 12.558 0 0 1-2.78 12.12 7.545 7.545 0 0 1-2.6 1.88 4.24 4.24 0 0 1-3.15 0c-2.45-1-1.32-3.39-7.22-6.51-.5-.26-.8-.35-.79-.9a1.82 1.82 0 0 1 .28-.84 17 17 0 0 1 11.14-8.42" stroke="#737471" stroke-linecap="round" stroke-linejoin="round"/>
        <path d="M75.35 53.7a1.52 1.52 0 0 0-1.25.6 3.8 3.8 0 0 0-.64 1.29 12.56 12.56 0 0 0 2.78 12.12 7.541 7.541 0 0 0 2.6 1.88 4.24 4.24 0 0 0 3.15 0c2.45-1 1.32-3.39 7.22-6.51.49-.26.8-.35.79-.9a1.819 1.819 0 0 0-.28-.84 17 17 0 0 0-11.14-8.47" fill="#E9EAEB"/>
        <path d="M75.35 53.7a1.52 1.52 0 0 0-1.25.6 3.8 3.8 0 0 0-.64 1.29 12.56 12.56 0 0 0 2.78 12.12 7.541 7.541 0 0 0 2.6 1.88 4.24 4.24 0 0 0 3.15 0c2.45-1 1.32-3.39 7.22-6.51.49-.26.8-.35.79-.9a1.819 1.819 0 0 0-.28-.84 17 17 0 0 0-11.14-8.47" stroke="#737471" stroke-linecap="round" stroke-linejoin="round"/>
        <path opacity=".1" d="M80.46 67.31a7.489 7.489 0 0 1-2.37-2.15 12.51 12.51 0 0 1-1.43-12.35c0-.05 0-.1.07-.16a1.562 1.562 0 0 0-1.32.46c-.332.35-.594.76-.77 1.21a12.54 12.54 0 0 0 1.43 12.35 7.45 7.45 0 0 0 2.38 2.16 4.21 4.21 0 0 0 3.12.4 5.22 5.22 0 0 0 2.3-1.63c-.083.042-.17.076-.26.1a4.19 4.19 0 0 1-3.15-.39v0z" fill="#737471" stroke="#737471" stroke-linecap="round" stroke-linejoin="round"/>
        <path d="M105.53 37.43c2.45-3.78 11.84-3.46 12 5.79a8.14 8.14 0 0 1-12.12 7l.12-12.79z" fill="#fff"/>
        <path d="M105.53 37.43c2.45-3.78 11.84-3.46 12 5.79a8.14 8.14 0 0 1-12.12 7l.12-12.79z" stroke="#737371" stroke-miterlimit="10"/>
        <path d="M114.06 42.6a4.342 4.342 0 0 0-1.934-3.18 4.352 4.352 0 0 0-3.686-.52" fill="#fff"/>
        <path d="M113.6 42.6a4.33 4.33 0 0 0-5.6-3.7" stroke="#737371" stroke-linecap="round" stroke-linejoin="round"/>
        <path opacity=".1" d="M106.94 47.74c1.21 2.2 5.36 1.58 7.77 1.49a7.719 7.719 0 0 1-8.47 1.37l.7-2.86z" fill="#737371"/>
        <path d="M74.88 39.44C72.68 35.9 64 36 63.67 44.59a7.541 7.541 0 0 0 11.1 6.72l.11-11.87z" fill="#fff"/>
        <path d="M74.88 39.44C72.68 35.9 64 36 63.67 44.59a7.541 7.541 0 0 0 11.1 6.72l.11-11.87z" stroke="#737371" stroke-miterlimit="10"/>
        <path d="M66.89 44.08a4 4 0 0 1 5.27-3.32" fill="#fff"/>
        <path d="M66.89 44.08a4 4 0 0 1 1.85-2.91 4.77 4.77 0 0 1 4.17-.46" stroke="#737371" stroke-linecap="round" stroke-linejoin="round"/>
        <path d="M108.77 42c.12-12.39-6-21.47-17.7-21.59-11.7-.12-17.99 8.89-18.07 21.27-.08 12.38 6 21.48 17.69 21.59 11.69.11 18-8.85 18.11-21.24" fill="#fff"/>
        <path d="M108.578 41.967c.113-11.824-7.808-21.486-17.694-21.58C81 20.292 72.893 29.8 72.78 41.623c-.113 11.823 7.809 21.486 17.694 21.58 9.886.095 17.991-9.413 18.105-21.237z" fill="#fff" stroke="#737371" stroke-linecap="round" stroke-linejoin="round"/>
        <path d="M86.81 38.78a3.65 3.65 0 0 0-6.17-.3M100.75 38.91a3.669 3.669 0 0 0-6.18-.3" fill="#fff"/>
        <path opacity=".1" d="M73.33 37.08c-2.11 11.76 3.11 25.53 17.33 26.19C72.25 61.17 76.47 34 76.47 34a17.483 17.483 0 0 1-3.14 3.08z" fill="#737371"/>
        <path opacity=".1" d="M63.87 44.56c1.12 7.33 7.33 8 10.25 7.1l-.54-1.94c-6.82 1.16-9.71-5.16-9.71-5.16z" fill="#737371"/>
        <path d="M86.32 42.33a4.73 4.73 0 0 0-4.12-1.75 4.8 4.8 0 0 0-3.68 2M103.79 41a5.002 5.002 0 0 0-7.8.26M88 53.39a4.7 4.7 0 0 0 4.09 1.36 4.77 4.77 0 0 0 3.48-2.07" stroke="#737371" stroke-linecap="round" stroke-linejoin="round"/>
        <path d="M89.46 50a7.94 7.94 0 0 0 2.38.16 3.69 3.69 0 0 0 2.15-1 2.42 2.42 0 0 0 .72-2.16 3.43 3.43 0 0 0-.93-1.53c-.42-.43-1.89-1.4-2.2-2.88" fill="#fff"/>
        <path d="M89.46 50a7.94 7.94 0 0 0 2.38.16 3.69 3.69 0 0 0 2.15-1 2.42 2.42 0 0 0 .72-2.16 3.43 3.43 0 0 0-.93-1.53c-.42-.43-1.89-1.4-2.2-2.88" stroke="#737371" stroke-linecap="round" stroke-linejoin="round"/>
        <path d="M76.74 33.31a9.38 9.38 0 0 0 10.68-2 7.34 7.34 0 0 0 4.2 2.1c3.408.841 6.965.879 10.39.11 1.71-.44 5.36-1.33 4.69-5.38-.19-1.15.69-2.27-.22-3a7.251 7.251 0 0 0-3.18-1.37c-3.2-.64-6.5.13-9.67.91l-14 3.4c-1.722.31-3.365.963-4.83 1.92-.367.26-.702.563-1 .9-.29.34-1.81.89-2 1.3-1.31 3.42 1.09 6.06 1.27 5.94a10.92 10.92 0 0 0 3.67-4.83z" fill="#fff" stroke="#737371" stroke-linecap="round" stroke-linejoin="round"/>
        <path d="M86.87 12.37a5.8 5.8 0 1 0 0-11.6 5.8 5.8 0 0 0 0 11.6z" fill="#D80A45" stroke="#737471" stroke-linecap="round" stroke-linejoin="round"/>
        <path d="m71.3 25.18.43-2.95A17.43 17.43 0 0 1 87.89 7.37v0a17.43 17.43 0 0 1 18 13.06l.47 1.84-35.06 2.91z" fill="#D80A45" stroke="#737471" stroke-linecap="round" stroke-linejoin="round"/>
        <path d="m105.142 19.675-33.226 3.592a4.29 4.29 0 0 0 .922 8.53l33.226-3.591a4.29 4.29 0 1 0-.922-8.53z" fill="#D80A45" stroke="#737471" stroke-linecap="round" stroke-linejoin="round"/>
        <path opacity=".1" d="M73.38 28.07a4.28 4.28 0 0 1 3.46-4.67l.16-1.09a17.41 17.41 0 0 1 9.87-13.24 5.79 5.79 0 0 1 3-7.78.47.47 0 0 0-.09-.06 5.79 5.79 0 0 0-8.07 7.49A17.41 17.41 0 0 0 71.89 22l-.16 1.1A4.29 4.29 0 0 0 73 31.53l2.42-.27a4.25 4.25 0 0 1-2.04-3.19v0z" fill="#737471" stroke="#737471" stroke-linecap="round" stroke-linejoin="round"/>
        <path d="M74.56 54a13.3 13.3 0 0 0 3.38 3.89z" fill="#E9EAEB"/>
        <path d="M74.56 54a13.3 13.3 0 0 0 3.38 3.89" stroke="#737471" stroke-linecap="round" stroke-linejoin="round"/>
        <path d="M73.06 63.29c-7.55 7.25-13.52 18.06-14.37 27.05-.73 7.77 2.74 14.18 8 16 15.1 5.21 24.83-9.91 24.83-9.91l-9.95-12.58.89-3.52-13.2-12.27" fill="#fff"/>
        <path d="M73.06 63.29c-7.55 7.25-13.52 18.06-14.37 27.05-.73 7.77 2.74 14.18 8 16 15.1 5.21 24.83-9.91 24.83-9.91l-9.95-12.58.89-3.52-13.2-12.27" stroke="#737471" stroke-linecap="round" stroke-linejoin="round"/>
        <path opacity=".1" d="M70.73 103.3c-10.66-3.68-8.93-19.61.52-34l-1.34-1.25-3.39.87c-11.1 14.94-10.48 33.5.78 37.39 7.64 2.64 13.91.07 18.23-3.12a22.909 22.909 0 0 1-14.8.11z" fill="#737471"/>
        <path d="M65.83 62.63c-10.07 5.12-22.83-1.54-23.34-1.7-.51-.16-4 18.47-4 18.47s21.87 8.87 36.56-3.69l5-3.67S69.67 61 69.33 60.92c-.34-.08-3.5 1.71-3.5 1.71z" fill="#E9EAEB" stroke="#737471" stroke-linecap="round" stroke-linejoin="round"/>
        <path opacity=".1" d="M43.6 77.74s1.79-9.58 3-14.94c-2.33-.82-3.85-1.59-4-1.64-.48-.16-4 18.47-4 18.47s17 6.87 31-.06c-12.76 3.54-26-1.83-26-1.83z" fill="#737371"/>
        <path d="M3.67 20.73A1.78 1.78 0 0 0 .51 22c.8 7.59 4.05 13.41 12.66 18.68 9.56 5.85 109.17 67.3 132.88 81.92a5.784 5.784 0 0 0 4.418.674 5.806 5.806 0 0 0 3.582-2.674v0a5.812 5.812 0 0 0-2-7.92L17.52 32.19A44.001 44.001 0 0 1 3.67 20.73v0z" fill="#fff" stroke="#737471" stroke-linecap="round" stroke-linejoin="round"/>
        <path d="M12.83 10.58a1.78 1.78 0 0 0-3.28.91c-.07 7.63 2.5 13.79 10.46 20 8.83 6.9 100.83 79.26 122.72 96.48a5.793 5.793 0 0 0 4.337 1.189 5.81 5.81 0 0 0 3.883-2.269 5.798 5.798 0 0 0-1.12-8.09L25.29 23.54a43.998 43.998 0 0 1-12.46-12.96v0z" fill="#fff" stroke="#737471" stroke-linecap="round" stroke-linejoin="round"/>
        <path d="m113.86 86.33-.19-.13a6.823 6.823 0 0 0-1-4 .27.27 0 0 0 0-.12 6.87 6.87 0 0 0-2.42-5.77 11.88 11.88 0 0 0-7.43-2.64 5.872 5.872 0 0 0-4.82-4.1c-4.63-.7-7.9 2.54-9.45 4.53a17.002 17.002 0 0 0-1.82 3.44c-1.21 2.72-2.61 6.17-5.36 6.65a17.62 17.62 0 0 0 3.28 7.12 24.78 24.78 0 0 0 6.47 5.33.52.52 0 0 0 .33.18.47.47 0 0 0 .31-.11c.07-.06 6.84-5.65 12.43-5.8 3.484-.069 6.951.514 10.22 1.72a.441.441 0 0 0 .39 0 .502.502 0 0 0 .26-.29c.19-.23 1.44-3.96-1.2-6.01z" fill="#E9EAEB"/>
        <path d="M102.27 84.39a13.699 13.699 0 0 1 12 2.33c2.49 1.94 1.22 5.63 1.22 5.63a29.27 29.27 0 0 0-10.89-1.84c-6.09.16-13.29 6.17-13.29 6.17s-2.55.11-6.56-5.34-3.41-7.28-3.41-7.28c5-3 5.13-7.49 7.29-10.28 2.16-2.79 5.41-5.14 9.4-4.54a5.609 5.609 0 0 1 4.71 4.27" stroke="#737471" stroke-linecap="round" stroke-linejoin="round"/>
        <path d="M100.57 78.11c7.12-1.32 13.75 2.12 13.37 8" stroke="#737471" stroke-linecap="round" stroke-linejoin="round"/>
        <path d="M113 81.77c.38-5.88-5.79-9-13-8a19.728 19.728 0 0 0-5.08 1.39M73.11 82.54a11.28 11.28 0 0 0-2.56 3.76c-1 3 .36 4.36 4.26 2.23 1-.57 3.4-2.2 6.62-4.46" stroke="#737471" stroke-linecap="round" stroke-linejoin="round"/>
        <path d="M30.13 74.61a76.226 76.226 0 0 0 8.53 3.76z" fill="#E9EAEB"/>
        <path d="M30.13 74.61a76.226 76.226 0 0 0 8.53 3.76" stroke="#737471" stroke-linecap="round" stroke-linejoin="round"/>
        <path d="M31 69.78a77.047 77.047 0 0 0 8.53 3.77z" fill="#E9EAEB"/>
        <path d="M31 69.78a77.047 77.047 0 0 0 8.53 3.77" stroke="#737471" stroke-linecap="round" stroke-linejoin="round"/>
        <path d="M31.72 64.66a75.044 75.044 0 0 0 8.53 3.77z" fill="#E9EAEB"/>
        <path d="M31.72 64.66a75.044 75.044 0 0 0 8.53 3.77" stroke="#737471" stroke-linecap="round" stroke-linejoin="round"/>
        <path d="M33.05 59.61a76.898 76.898 0 0 0 8.54 3.76z" fill="#E9EAEB"/>
        <path d="M33.05 59.61a76.898 76.898 0 0 0 8.54 3.76" stroke="#737471" stroke-linecap="round" stroke-linejoin="round"/>
        <path d="m120.71 26.22 13.6-17.03M146.16 42.31l-21.47-1.7M145.26 22.86l-22.36 9.61" stroke="#737371" stroke-linecap="round" stroke-linejoin="round"/>
    </g>
    <defs>
        <clipPath id="a">
            <path fill="#fff" d="M0 0h193.57v173.57H0z"/>
        </clipPath>
    </defs>
</svg>
