<?xml version="1.0" encoding="utf-8"?>
<!-- Generator: Adobe Illustrator 23.1.1, SVG Export Plug-In . SVG Version: 6.00 Build 0)  -->
<svg version="1.1" id="Livello_1" xmlns="http://www.w3.org/2000/svg" xmlns:xlink="http://www.w3.org/1999/xlink" x="0px" y="0px"
	 viewBox="0 0 68.6 61.9" style="enable-background:new 0 0 68.6 61.9;" xml:space="preserve">
<style type="text/css">
	.st0{fill:#002A67;}
</style>
<g>
	<path class="st0" d="M10.7,16L10.7,16c2.8,0,5.1-2.2,5.1-5V9.3c0-2.8-2.2-5-5-5h-0.1c-2.8,0-5,2.2-5,5V11C5.7,13.7,8,15.9,10.7,16z
		 M7.9,9.3c0-1.6,1.3-2.9,2.9-2.9h0.1c1.6,0,2.9,1.3,2.9,2.9V11c0,1.6-1.3,2.9-2.9,2.9h-0.1c-1.6,0-2.9-1.3-2.9-2.9V9.3z"/>
	<path class="st0" d="M16.6,15.9h-2.1c-0.3,0-0.5,0.1-0.7,0.3l-2.9,2.7l-2.8-2.7c-0.2-0.2-0.5-0.3-0.7-0.3H5.2
		c-1.5,0-2.8,0.6-3.8,1.7c-1,1.1-1.5,2.5-1.3,4v12.1c0,1.8,1.5,3.2,3.2,3.2h0c0.4,0,0.9-0.1,1.3-0.3l0.6,22c0,1.4,0.9,2.5,2.1,3.1
		c1.3,0.5,2.7,0.2,3.7-0.7c1,0.9,2.4,1.2,3.7,0.7c1.3-0.5,2.1-1.7,2.1-3.1l0.6-21.9c1,0.4,2.2,0.3,3.1-0.3c0.9-0.6,1.5-1.6,1.5-2.7
		V21.5c0.1-1.4-0.4-2.9-1.3-4C19.5,16.5,18.1,15.9,16.6,15.9z M13.3,59.8c-0.7,0-1.3-0.6-1.3-1.3v-22H9.9v22c0,0.7-0.6,1.3-1.3,1.3
		s-1.3-0.5-1.3-1.3L6.6,33.7h8.6l-0.6,24.8C14.6,59.2,14,59.8,13.3,59.8z M19.7,21.4c0,0,0,0.1,0,0.1v12.2c0,0.6-0.5,1.1-1.1,1.1
		c-0.6,0-1.1-0.5-1.1-1.1v-2.6l0-0.5h0v-5.1h-2.1V31l0,0.5H6.6l0-1.1h0v-5H4.4v8.1c0,0.6-0.5,1.2-1.1,1.2c-0.3,0-0.6-0.1-0.8-0.3
		c-0.2-0.2-0.3-0.5-0.3-0.8V21.5c0,0,0-0.1,0-0.1C2,20.5,2.3,19.6,2.9,19c0.6-0.6,1.4-1,2.3-1H7l3.2,3.1c0,0,0,0,0,0
		c0,0,0.1,0.1,0.1,0.1c0,0,0,0,0,0c0,0,0.1,0.1,0.1,0.1c0,0,0,0,0,0c0,0,0.1,0,0.1,0.1c0,0,0,0,0,0c0,0,0.1,0,0.1,0c0,0,0,0,0,0
		c0,0,0.1,0,0.1,0c0,0,0,0,0,0c0,0,0.1,0,0.1,0c0,0,0,0,0,0c0,0,0.1,0,0.1,0l0,0c0,0,0.1,0,0.1,0c0,0,0,0,0,0c0,0,0,0,0,0
		c0.1,0,0.2-0.1,0.2-0.1c0,0,0,0,0,0c0,0,0,0,0,0L15,18h1.7c0.9,0,1.7,0.4,2.3,1C19.5,19.6,19.8,20.5,19.7,21.4z"/>
	<path class="st0" d="M57.5,16L57.5,16c2.8,0,5.1-2.2,5.1-5V9.3c0-2.8-2.2-5-5-5h-0.1c-2.8,0-5,2.2-5,5V11
		C52.5,13.7,54.8,15.9,57.5,16z M54.6,9.3c0-1.6,1.3-2.9,2.9-2.9h0.1c1.6,0,2.9,1.3,2.9,2.9V11c0,1.6-1.3,2.9-2.9,2.9h-0.1
		c-1.6,0-2.9-1.3-2.9-2.9V9.3z"/>
	<path class="st0" d="M63.4,15.9h-2.1c-0.3,0-0.5,0.1-0.7,0.3l-2.9,2.7l-2.8-2.7c-0.2-0.2-0.5-0.3-0.7-0.3H52
		c-1.5,0-2.8,0.6-3.8,1.7c-1,1.1-1.5,2.5-1.3,4v12.1c0,1.8,1.5,3.2,3.2,3.2h0c0.4,0,0.9-0.1,1.3-0.3l0.6,22c0,1.4,0.9,2.5,2.1,3.1
		c1.3,0.5,2.7,0.2,3.7-0.7c1,0.9,2.4,1.2,3.7,0.7c1.3-0.5,2.1-1.7,2.1-3.1l0.6-21.9c1,0.4,2.2,0.3,3.1-0.3c0.9-0.6,1.5-1.6,1.5-2.7
		V21.5c0.1-1.4-0.4-2.9-1.3-4C66.3,16.5,64.9,15.9,63.4,15.9z M60.1,59.8c-0.7,0-1.3-0.6-1.3-1.3v-22h-2.1v22c0,0.7-0.6,1.3-1.3,1.3
		c-0.7,0-1.3-0.5-1.3-1.3l-0.6-24.8H62l-0.6,24.8C61.4,59.2,60.8,59.8,60.1,59.8z M66.5,21.4c0,0,0,0.1,0,0.1v12.2
		c0,0.6-0.5,1.1-1.1,1.1c-0.6,0-1.1-0.5-1.1-1.1v-2.6l0-0.5h0v-5.1h-2.1V31l0,0.5h-8.7l0-1.1h0v-5h-2.1v8.1c0,0.6-0.5,1.2-1.1,1.2
		c-0.3,0-0.6-0.1-0.8-0.3c-0.2-0.2-0.3-0.5-0.3-0.8V21.5c0,0,0-0.1,0-0.1c-0.1-0.9,0.2-1.7,0.8-2.4c0.6-0.6,1.4-1,2.3-1h1.8l3.2,3.1
		c0,0,0,0,0,0c0,0,0.1,0.1,0.1,0.1c0,0,0,0,0,0c0,0,0.1,0.1,0.1,0.1c0,0,0,0,0,0c0,0,0.1,0,0.1,0.1l0,0c0,0,0.1,0,0.1,0c0,0,0,0,0,0
		c0,0,0.1,0,0.1,0c0,0,0,0,0,0c0,0,0.1,0,0.1,0c0,0,0,0,0,0c0,0,0.1,0,0.1,0c0,0,0,0,0,0c0,0,0.1,0,0.1,0c0,0,0,0,0,0c0,0,0,0,0,0
		c0.1,0,0.2-0.1,0.2-0.1c0,0,0,0,0,0c0,0,0,0,0,0l3.3-3.1h1.7c0.9,0,1.7,0.4,2.3,1C66.3,19.6,66.6,20.5,66.5,21.4L66.5,21.4z"/>
	<path class="st0" d="M34.1,16L34.1,16c2.8,0,5.1-2.2,5.1-5V9.3c0-2.8-2.2-5-5-5h-0.1c-2.8,0-5,2.2-5,5V11
		C29.1,13.7,31.4,15.9,34.1,16z M31.3,9.3c0-1.6,1.3-2.9,2.9-2.9h0.1c1.6,0,2.9,1.3,2.9,2.9V11c0,1.6-1.3,2.9-2.9,2.9h-0.1
		c-1.6,0-2.9-1.3-2.9-2.9V9.3L31.3,9.3z"/>
	<path class="st0" d="M40,15.9h-2.1c-0.3,0-0.5,0.1-0.7,0.3l-2.9,2.7l-2.8-2.7c-0.2-0.2-0.5-0.3-0.7-0.3h-2.2
		c-1.5,0-2.8,0.6-3.8,1.7c-1,1.1-1.5,2.5-1.3,4v12.1c0,1.8,1.5,3.2,3.2,3.2h0c0.4,0,0.9-0.1,1.3-0.3l0.6,22c0,1.4,0.9,2.5,2.1,3.1
		c1.3,0.5,2.7,0.2,3.7-0.7c1,0.9,2.4,1.2,3.7,0.7c1.3-0.5,2.1-1.7,2.1-3.1l0.6-21.9c1,0.4,2.2,0.3,3.1-0.3s1.5-1.6,1.5-2.7V21.5
		c0.1-1.4-0.4-2.9-1.3-4C42.9,16.5,41.5,15.9,40,15.9z M36.7,59.8c-0.7,0-1.3-0.6-1.3-1.3v-22h-2.1v22c0,0.7-0.6,1.3-1.3,1.3
		s-1.3-0.5-1.3-1.3L30,33.7h8.6L38,58.5C38,59.2,37.4,59.8,36.7,59.8z M43.1,21.4c0,0,0,0.1,0,0.1v12.2c0,0.6-0.5,1.1-1.1,1.1
		s-1.1-0.5-1.1-1.1v-2.6l0-0.5h0v-5.1h-2.1V31l0,0.5h-8.7l0-1.1h0v-5h-2.1v8.1c0,0.6-0.5,1.2-1.1,1.2c-0.3,0-0.6-0.1-0.8-0.3
		c-0.2-0.2-0.3-0.5-0.3-0.8V21.5c0,0,0-0.1,0-0.1c-0.1-0.9,0.2-1.7,0.8-2.4c0.6-0.6,1.4-1,2.3-1h1.8l3.2,3.1c0,0,0,0,0,0
		c0,0,0.1,0.1,0.1,0.1c0,0,0,0,0,0c0,0,0.1,0.1,0.1,0.1c0,0,0,0,0,0c0,0,0.1,0,0.1,0.1c0,0,0,0,0,0c0,0,0.1,0,0.1,0c0,0,0,0,0,0
		c0,0,0.1,0,0.1,0c0,0,0,0,0,0c0,0,0.1,0,0.1,0c0,0,0,0,0,0c0,0,0.1,0,0.1,0l0,0c0,0,0.1,0,0.1,0c0,0,0,0,0,0c0,0,0,0,0,0
		c0.1,0,0.2-0.1,0.2-0.1c0,0,0,0,0,0c0,0,0,0,0,0l3.3-3.1H40c0.9,0,1.7,0.4,2.3,1C42.9,19.6,43.2,20.5,43.1,21.4z"/>
	<path class="st0" d="M27.6,6.6V5c0-2.8-2.2-5-5-5h-0.1c-2.8,0-5,2.2-5,5v1.7c0,2.8,2.2,5,5,5h0.1C25.4,11.6,27.6,9.4,27.6,6.6z
		 M25.5,6.6c0,1.6-1.3,2.9-2.9,2.9h-0.1c-1.6,0-2.9-1.3-2.9-2.9V5c0-1.6,1.3-2.9,2.9-2.9h0.1c1.6,0,2.9,1.3,2.9,2.9V6.6z"/>
	<path class="st0" d="M51,6.6V5c0-2.8-2.2-5-5-5H46c-2.8,0-5,2.2-5,5v1.7c0,2.8,2.2,5,5,5H46C48.8,11.6,51,9.4,51,6.6z M48.9,6.6
		c0,1.6-1.3,2.9-2.9,2.9H46c-1.6,0-2.9-1.3-2.9-2.9V5c0-1.6,1.3-2.9,2.9-2.9H46c1.6,0,2.9,1.3,2.9,2.9V6.6z"/>
</g>
</svg>
