<?xml version="1.0" encoding="utf-8"?>
<!-- Generator: Adobe Illustrator 23.1.1, SVG Export Plug-In . SVG Version: 6.00 Build 0)  -->
<svg version="1.1" id="Livello_1" xmlns="http://www.w3.org/2000/svg" xmlns:xlink="http://www.w3.org/1999/xlink" x="0px" y="0px"
	 viewBox="0 0 62.5 62.5" style="enable-background:new 0 0 62.5 62.5;" xml:space="preserve">
<style type="text/css">
	.st0{fill:#002A67;}
</style>
<g>
	<g>
		<path class="st0" d="M25.2,31.2H13.1V20.1h-2v16.1h-0.3v0H4.3v0H0v12.1h11.1v14.1h16.1V20.1h-2V31.2z M12.3,38.3l-3.1,2.6
			c-0.6,0.5-1.6,0.5-2.3,0l-3.1-2.6H12.3z M2,46.3v-6.9l3.6,3c0.7,0.6,1.5,0.9,2.4,0.9c0.9,0,1.7-0.3,2.4-0.9l3.6-3v6.9H2z
			 M25.2,60.4h-5V37.3h-2v23.2h-5V48.4h3V36.3h-3v-3h12.1V60.4z"/>
		<path class="st0" d="M27.4,15.4l-4.2-1.1v-1.8c1.2-1.1,2-2.7,2-4.5V6c0-3.3-2.7-6-6-6c-3.3,0-6,2.7-6,6v2c0,1.8,0.8,3.4,2,4.5v1.8
			l-4.2,1.1c-2.2,0.6-3.8,2.6-3.8,4.9v13.9h2V20.3c0-1.4,0.9-2.6,2.3-2.9l4.5-1.1l1.3,1.3l-1,9.1l3.1,3.1l3.1-3.1l-1-9.1l1.3-1.3
			l4.5,1.1c1.3,0.3,2.3,1.5,2.3,2.9v17h2v-17C31.2,18,29.7,15.9,27.4,15.4z M19.1,26.8l-1-1l1-8.6l1,8.6L19.1,26.8z M21.2,14.7l-2,2
			l-2-2v-0.9c0.6,0.2,1.3,0.4,2,0.4c0.7,0,1.4-0.1,2-0.4V14.7z M19.1,12.1c-2.2,0-4-1.8-4-4V6c0-2.2,1.8-4,4-4c2.2,0,4,1.8,4,4v2
			C23.2,10.3,21.4,12.1,19.1,12.1z"/>
	</g>
	<path class="st0" d="M58.6,15.4l-4.2-1.1v-1.8c1.2-1.1,2-2.7,2-4.5V6c0-3.3-2.7-6-6-6s-6,2.7-6,6v2c0,1.8,0.8,3.4,2,4.5v1.8
		l-4.2,1.1c-2.2,0.6-3.8,2.6-3.8,4.9v17h2v-17c0-1.4,0.9-2.6,2.3-2.9l5.8-1.4v-2.1c0.6,0.2,1.3,0.4,2,0.4s1.4-0.1,2-0.4v2.1l5.8,1.4
		c1.3,0.3,2.3,1.5,2.3,2.9v17h2v-17C62.5,18,60.9,15.9,58.6,15.4z M46.3,8.1V6c0-2.2,1.8-4,4-4s4,1.8,4,4v2c0,2.2-1.8,4-4,4
		S46.3,10.3,46.3,8.1z"/>
	<path class="st0" d="M56.4,31.2H44.3V20.1h-2v42.3h16.1V20.1h-2V31.2z M51.4,60.4V37.3h-2v23.2h-5V33.2h12.1v27.2H51.4z"/>
	<path class="st0" d="M30.2,10.1h8.2l3.9,3.1V2c0-1.1-0.9-2-2-2H30.2c-1.1,0-2,0.9-2,2v6C28.2,9.2,29.1,10.1,30.2,10.1z M30.2,2
		h10.1v7l-1.2-0.9h-8.9V2z"/>
	<path class="st0" d="M32.2,4h2v2h-2V4z"/>
	<path class="st0" d="M36.3,4h2v2h-2V4z"/>
	<path class="st0" d="M11.7,36.5H9.7v-1.1c0-0.1-0.1-0.2-0.2-0.2H6.3c-0.1,0-0.2,0.1-0.2,0.2v1.1H4.2v-1.1c0-1.2,0.9-2.1,2.1-2.1
		h3.3c1.2,0,2.1,0.9,2.1,2.1V36.5z"/>
</g>
</svg>
