<?xml version="1.0" encoding="utf-8"?>
<!-- Generator: Adobe Illustrator 22.1.0, SVG Export Plug-In . SVG Version: 6.00 Build 0)  -->
<svg version="1.1" id="Livello_1" xmlns="http://www.w3.org/2000/svg" xmlns:xlink="http://www.w3.org/1999/xlink" x="0px" y="0px"
	 viewBox="0 0 250 100" style="enable-background:new 0 0 250 100;" xml:space="preserve">
<style type="text/css">
	.st0{fill:#FFFFFF;stroke:#218AE5;stroke-width:1.6423;stroke-linecap:round;stroke-linejoin:round;stroke-miterlimit:10;}
	.st1{fill:#FFFFFF;}
	.st2{fill:#218AE5;}
	.st3{fill:none;stroke:#218AE5;stroke-width:1.6423;stroke-linecap:round;stroke-linejoin:round;stroke-miterlimit:10;}
</style>
<g>
	<g>
		<g>
			<g>
				<path class="st0" d="M214.9,82.6v-1.2h7.1v-8.1v-30c0-1.3-0.3-2.6-0.9-4.2c-0.6-1.5-1.4-2.8-2.3-3.7l-12.1-12.5
					c-0.9-0.9-2.1-1.7-3.7-2.3c-1.5-0.6-2.9-0.9-4.2-0.9h-11.5v4.6v2.8v18.4v5.6v31.3H214.9 M192.5,27.3h6.1
					c0.7,0.1,1.2,0.3,1.6,0.6l14,14c0.3,0.6,0.6,1.1,0.6,1.6v2.2h-22.3V27.3z"/>
				<g>
					<path class="st1" d="M90.5,83.4c-1.5,0-2.8-0.5-3.8-1.6c-1.1-1.1-1.6-2.4-1.6-3.8V7.6c0-1.5,0.5-2.7,1.6-3.8
						c1.1-1.1,2.4-1.6,3.8-1.6h92.2c1.5,0,2.8,0.5,3.8,1.6c1.1,1.1,1.6,2.4,1.6,3.8v75c0,0.5-0.4,0.8-0.8,0.8H90.5z"/>
					<path class="st2" d="M182.7,3c1.2,0,2.3,0.5,3.2,1.4c0.9,0.9,1.4,2,1.4,3.2V16v2v9.2v18.4v36.9h-9.2h-27.6h-46.1H90.5
						c-1.2,0-2.3-0.5-3.2-1.4c-0.9-0.9-1.4-2-1.4-3.2V7.6c0-1.2,0.5-2.3,1.4-3.2c0.9-0.9,2-1.4,3.2-1.4H182.7 M182.7,1.4H90.5
						c-1.7,0-3.2,0.6-4.4,1.9c-1.2,1.2-1.8,2.7-1.8,4.4V78c0,1.7,0.6,3.2,1.8,4.4c1.2,1.2,2.7,1.9,4.4,1.9h13.8h46.1h27.6h9.2
						c0.9,0,1.6-0.7,1.6-1.6V45.7V27.3v-9.2v-2V7.6c0-1.7-0.6-3.2-1.8-4.4C185.9,2,184.4,1.4,182.7,1.4L182.7,1.4z"/>
				</g>
				<g>
					<path class="st1" d="M193.4,56.2c-1.1,0-2-0.9-2-2c0-1.1,0.9-2,2-2h9.3c1.1,0,2,0.9,2,2c0,1.1-0.9,2-2,2H193.4z"/>
					<path class="st2" d="M202.7,53c0.7,0,1.2,0.5,1.2,1.2c0,0.7-0.5,1.2-1.2,1.2h-9.3c-0.7,0-1.2-0.5-1.2-1.2
						c0-0.7,0.5-1.2,1.2-1.2H202.7 M202.7,51.3h-9.3c-1.6,0-2.8,1.3-2.8,2.9c0,1.6,1.3,2.8,2.8,2.8h9.3c1.6,0,2.8-1.3,2.8-2.8
						C205.6,52.6,204.3,51.3,202.7,51.3L202.7,51.3z"/>
				</g>
				<g>
					<g>
						<path class="st1" d="M138,64.4c-13.4,0-24.2-10.9-24.2-24.2s10.9-24.2,24.2-24.2c13.4,0,24.2,10.9,24.2,24.2
							S151.4,64.4,138,64.4z"/>
						<path class="st2" d="M138,16.7c12.9,0,23.4,10.5,23.4,23.4c0,12.9-10.5,23.4-23.4,23.4c-12.9,0-23.4-10.5-23.4-23.4
							C114.6,27.2,125.1,16.7,138,16.7 M138,15C124.2,15,113,26.3,113,40.1c0,13.8,11.2,25.1,25.1,25.1c13.8,0,25.1-11.2,25.1-25.1
							C163.1,26.3,151.9,15,138,15L138,15z"/>
					</g>
					<g>
						<path class="st1" d="M135.1,54.4c-1.1,0-2-0.9-2-2V45h-7.4c-1.1,0-2-0.9-2-2v-5.8c0-1.1,0.9-2,2-2h7.4v-7.4c0-1.1,0.9-2,2-2
							h5.9c1.1,0,2,0.9,2,2v7.4h7.4c1.1,0,2,0.9,2,2V43c0,1.1-0.9,2-2,2H143v7.4c0,1.1-0.9,2-2,2H135.1z"/>
						<path class="st2" d="M141,26.7c0.6,0,1.2,0.5,1.2,1.2V36h8.2c0.6,0,1.2,0.5,1.2,1.2V43c0,0.6-0.5,1.2-1.2,1.2h-8.2v8.2
							c0,0.6-0.5,1.2-1.2,1.2h-5.9c-0.6,0-1.2-0.5-1.2-1.2v-8.2h-8.2c-0.6,0-1.2-0.5-1.2-1.2v-5.8c0-0.6,0.5-1.2,1.2-1.2h8.2v-8.2
							c0-0.6,0.5-1.2,1.2-1.2H141 M141,25h-5.9c-1.5,0-2.8,1.3-2.8,2.8v6.6h-6.5c-1.6,0-2.8,1.3-2.8,2.8V43c0,1.5,1.3,2.8,2.8,2.8
							h6.5v6.6c0,1.6,1.3,2.8,2.8,2.8h5.9c1.6,0,2.8-1.3,2.8-2.8v-6.6h6.5c1.6,0,2.8-1.3,2.8-2.8v-5.8c0-1.6-1.3-2.8-2.8-2.8h-6.5
							v-6.6C143.8,26.3,142.5,25,141,25L141,25z"/>
					</g>
				</g>
			</g>
			<g>
				<path class="st1" d="M85.3,83.4c-1.7,0-3.1-1.4-3.1-3.1c0-1.7,1.4-3.1,3.1-3.1h137.3c1.7,0,3.1,1.4,3.1,3.1
					c0,1.7-1.4,3.1-3.1,3.1H85.3z"/>
				<path class="st2" d="M222.6,78c1.3,0,2.3,1,2.3,2.3c0,1.3-1,2.3-2.3,2.3H85.3c-1.3,0-2.3-1-2.3-2.3c0-1.3,1-2.3,2.3-2.3H222.6
					 M222.6,76.3H85.3c-2.2,0-3.9,1.8-3.9,3.9c0,2.2,1.8,3.9,3.9,3.9h137.3c2.2,0,3.9-1.8,3.9-3.9C226.6,78.1,224.8,76.3,222.6,76.3
					L222.6,76.3z"/>
			</g>
		</g>
		<g>
			<g>
				<g>
					<circle class="st1" cx="186" cy="81.4" r="16.3"/>
					<path class="st2" d="M186,65.9c8.6,0,15.5,6.9,15.5,15.5c0,8.6-6.9,15.5-15.5,15.5c-8.6,0-15.5-6.9-15.5-15.5
						C170.5,72.9,177.5,65.9,186,65.9 M186,64.3c-9.5,0-17.1,7.7-17.1,17.1c0,9.5,7.7,17.1,17.1,17.1c9.5,0,17.1-7.7,17.1-17.1
						C203.2,72,195.5,64.3,186,64.3L186,64.3z"/>
				</g>
				<g>
					<circle class="st1" cx="186" cy="81.4" r="11.5"/>
					<path class="st2" d="M186,70.7c5.9,0,10.7,4.8,10.7,10.7c0,5.9-4.8,10.7-10.7,10.7c-5.9,0-10.7-4.8-10.7-10.7
						C175.3,75.5,180.1,70.7,186,70.7 M186,69.1c-6.8,0-12.4,5.5-12.4,12.4c0,6.8,5.5,12.4,12.4,12.4c6.8,0,12.4-5.5,12.4-12.4
						C198.4,74.6,192.9,69.1,186,69.1L186,69.1z"/>
				</g>
				<g>
					<path class="st1" d="M186,85.8c-2.4,0-4.4-2-4.4-4.4c0-2.4,2-4.4,4.4-4.4s4.4,2,4.4,4.4C190.4,83.8,188.4,85.8,186,85.8z"/>
					<path class="st2" d="M186,77.9c2,0,3.5,1.6,3.5,3.5c0,2-1.6,3.5-3.5,3.5c-2,0-3.5-1.6-3.5-3.5C182.5,79.5,184.1,77.9,186,77.9
						 M186,76.2c-2.9,0-5.2,2.3-5.2,5.2c0,2.9,2.3,5.2,5.2,5.2c2.9,0,5.2-2.3,5.2-5.2C191.2,78.6,188.9,76.2,186,76.2L186,76.2z"/>
				</g>
			</g>
			<g>
				<g>
					<path class="st1" d="M114.6,97.8c-9,0-16.3-7.3-16.3-16.3s7.3-16.3,16.3-16.3c9,0,16.3,7.3,16.3,16.3S123.6,97.8,114.6,97.8z"
						/>
					<path class="st2" d="M114.6,65.9c8.6,0,15.5,6.9,15.5,15.5c0,8.6-6.9,15.5-15.5,15.5c-8.6,0-15.5-6.9-15.5-15.5
						C99.1,72.9,106.1,65.9,114.6,65.9 M114.6,64.3c-9.5,0-17.2,7.7-17.2,17.1c0,9.5,7.7,17.1,17.2,17.1c9.5,0,17.1-7.7,17.1-17.1
						C131.8,72,124.1,64.3,114.6,64.3L114.6,64.3z"/>
				</g>
				<g>
					<path class="st1" d="M114.6,93c-6.4,0-11.5-5.2-11.5-11.5s5.2-11.5,11.5-11.5c6.4,0,11.5,5.2,11.5,11.5S121,93,114.6,93z"/>
					<path class="st2" d="M114.6,70.7c5.9,0,10.7,4.8,10.7,10.7c0,5.9-4.8,10.7-10.7,10.7c-5.9,0-10.7-4.8-10.7-10.7
						C103.9,75.5,108.7,70.7,114.6,70.7 M114.6,69.1c-6.8,0-12.4,5.5-12.4,12.4c0,6.8,5.5,12.4,12.4,12.4c6.8,0,12.4-5.5,12.4-12.4
						C127,74.6,121.5,69.1,114.6,69.1L114.6,69.1z"/>
				</g>
				<g>
					<path class="st1" d="M114.6,85.8c-2.4,0-4.4-2-4.4-4.4c0-2.4,2-4.4,4.4-4.4s4.4,2,4.4,4.4C119,83.8,117,85.8,114.6,85.8z"/>
					<path class="st2" d="M114.6,77.9c2,0,3.5,1.6,3.5,3.5c0,2-1.6,3.5-3.5,3.5c-2,0-3.5-1.6-3.5-3.5
						C111.1,79.5,112.7,77.9,114.6,77.9 M114.6,76.2c-2.9,0-5.2,2.3-5.2,5.2c0,2.9,2.3,5.2,5.2,5.2c2.9,0,5.2-2.3,5.2-5.2
						C119.8,78.6,117.5,76.2,114.6,76.2L114.6,76.2z"/>
				</g>
			</g>
		</g>
	</g>
	<line class="st3" x1="241.3" y1="98" x2="9.4" y2="98"/>
	<line class="st3" x1="76" y1="50" x2="50.7" y2="50"/>
	<line class="st3" x1="76" y1="57.3" x2="39.8" y2="57.3"/>
	<path class="st3" d="M190.4,19.5v-4.4c0-1,0.8-1.8,1.8-1.8h4.4c1,0,1.8,0.8,1.8,1.8v4.4H190.4z"/>
</g>
</svg>
