<?xml version="1.0" encoding="UTF-8"?>
<svg width="108px" height="95px" viewBox="0 0 108 95" version="1.1" xmlns="http://www.w3.org/2000/svg" xmlns:xlink="http://www.w3.org/1999/xlink">
    <!-- Generator: Sketch 55.2 (78181) - https://sketchapp.com -->
    <title>Group 2</title>
    <desc>Created with Sketch.</desc>
    <g id="area-privata" stroke="none" stroke-width="1" fill="none" fill-rule="evenodd">
        <g id="Area-privata---Il-mio-account" transform="translate(-628.000000, -257.000000)">
            <g id="Group-6" transform="translate(289.000000, 225.000000)">
                <g id="Group-5" transform="translate(243.000000, 32.000000)">
                    <g id="Group-2" transform="translate(96.000000, 0.000000)">
                        <circle id="Oval" fill="#DBE9F9" cx="68" cy="47" r="40"></circle>
                        <g id="noun_Ok_1659535" fill="#032C4E">
                            <g id="Group">
                                <path d="M57.8295,46.5464 C57.3569,46.5464 56.8889,46.5776 56.4279,46.6395 C56.4898,46.1802 56.521,45.7138 56.521,45.2433 C56.521,40.7188 53.6612,36.7476 49.4044,35.3622 C47.445,34.7241 44.453,34 40.971,34 L40.9049,34 C42.0725,32.0763 43.7177,29.5329 45.7191,26.8843 C49.6745,21.6499 49.3092,16.4383 44.741,12.9438 C42.6755,11.3634 38.6834,9.641 33.229,13.3437 C33.2801,13.0043 33.3337,12.6508 33.393,12.2667 C34.4164,5.6289 30.1709,1.73 25.7935,0.9161 C20.8978,0.0037 16.6223,3.943 15.4684,8.1129 C14.9687,9.9189 14.2848,12.7919 13.5524,16.3469 C12.4928,16.0059 11.1486,15.8274 9.3345,15.976 C5.5266,16.289 0.9606,19.066 0.6235,25.8638 C0.2167,34.0825 4.457,56.4242 9.1289,70.4778 C9.7263,72.7325 10.546,74.9997 11.6307,77.2688 C16.6939,87.8611 25.1896,93.5516 37.6026,94.666 C38.4373,94.7408 39.3658,94.7895 40.3684,94.7895 C47.0415,94.7895 56.9721,92.6206 63.9909,81.4995 C68.7174,74.0105 70.3489,61.7809 67.7049,53.6571 C66.3202,49.4041 62.3519,46.5464 57.8295,46.5464 Z M19.571,9.2485 C20.2115,6.932 22.6772,4.6658 25.0154,5.101 C27.3365,5.5325 29.8217,7.4981 29.1866,11.6182 C28.6151,15.3241 28.4143,17.0075 28.3432,17.7429 C24.6669,21.6206 19.0019,28.2916 14.5609,36.5953 C15.9538,24.816 18.3368,13.7075 19.571,9.2485 Z M9.2749,49.9231 C9.0531,50.7943 8.8525,51.6735 8.679,52.5612 C6.2784,41.88 4.6287,31.0435 4.8749,26.0741 C5.1268,20.9864 8.6188,20.3055 9.6829,20.2182 C11.2568,20.0886 12.109,20.2787 12.7205,20.5894 C11.1338,29.0817 9.5549,40.0079 9.266,49.7972 C9.2647,49.8402 9.2736,49.8807 9.2749,49.9231 Z M60.3912,79.2275 C53.8703,89.56 44.6043,91.0194 37.9832,90.4267 C31.3559,89.8316 22.0053,87.7412 16.1355,76.742 C16.0991,76.5877 16.0495,76.4348 15.9763,76.2866 C15.0825,74.4743 14.1633,72.1186 13.2545,69.4118 C7.3498,47.0747 26.4632,25.5979 32.9253,19.1358 C35.4081,16.6535 37.6194,15.4086 39.5339,15.4086 C40.4812,15.4086 41.3562,15.7137 42.1551,16.3243 C43.1282,17.0688 46.0893,19.3341 42.323,24.3179 C38.962,28.7663 36.5885,32.8677 35.6325,34.601 C30.3224,35.8364 24.5763,39.219 19.8456,46.91 C19.2296,47.9109 19.5422,49.2219 20.5435,49.8375 C21.544,50.4535 22.855,50.1409 23.471,49.1396 C31.3831,36.2765 42.2897,37.5206 48.0866,39.4093 C50.9725,40.3487 52.2644,43.016 52.2644,45.2431 C52.2644,46.8833 51.618,48.435 50.4484,49.6084 C48.8157,51.237 46.394,51.8401 44.2787,51.1464 C40.3099,49.8445 35.5232,51.2275 32.0815,54.6683 C27.1305,59.6197 26.4301,67.0152 30.4866,71.5043 C33.0155,74.3025 36.8566,76.0321 40.7614,76.131 C43.8622,76.2008 46.5699,75.261 48.3701,73.4608 C52.7208,69.1105 53.2882,62.9541 51.9207,58.7817 C51.2253,56.6631 51.8272,54.2452 53.4562,52.6199 C54.6284,51.4481 56.1813,50.8026 57.8294,50.8026 C60.5449,50.8026 62.8327,52.4403 63.6574,54.9742 C65.9162,61.9151 64.451,72.7951 60.3912,79.2275 Z M47.8764,60.1086 C48.8382,63.0428 48.4334,67.3785 45.3608,70.4511 C44.4069,71.405 42.7775,71.9234 40.8691,71.876 C38.1074,71.8062 35.4069,70.6003 33.6449,68.6505 C30.8521,65.56 32.2213,60.5484 35.0914,57.6782 C36.8692,55.9004 39.0992,54.912 41.1514,54.912 C41.7736,54.912 42.3801,55.003 42.9521,55.1909 C44.4319,55.6764 45.9677,55.8073 47.4554,55.6091 C47.2588,57.0955 47.3909,58.6293 47.8764,60.1086 Z" id="Shape"></path>
                                <path d="M55.5687,25.858 C55.8464,25.9798 56.1361,26.0372 56.4208,26.0372 C57.2405,26.0372 58.0219,25.5608 58.3715,24.7619 L64.1405,11.58 C64.6119,10.503 64.121,9.2481 63.0444,8.7772 C61.9674,8.305 60.7125,8.7972 60.2416,9.8733 L54.4726,23.0552 C54.0012,24.1322 54.4921,25.387 55.5687,25.858 Z" id="Path"></path>
                                <path d="M82.6001,24.3487 C81.908,23.3981 80.5767,23.1898 79.6269,23.8802 L68.1039,32.2674 C67.1537,32.9595 66.9438,34.2904 67.6354,35.2406 C68.0523,35.813 68.7003,36.1164 69.3579,36.1164 C69.7923,36.1164 70.2308,35.9838 70.6086,35.7091 L82.1316,27.3219 C83.0818,26.6299 83.2917,25.2989 82.6001,24.3487 Z" id="Path"></path>
                                <path d="M90.6427,47.7123 C90.4706,46.5501 89.3903,45.7458 88.2252,45.92 L75.8684,47.7552 C74.7058,47.9277 73.9031,49.0101 74.0761,50.1727 C74.2328,51.2293 75.141,51.9887 76.1785,51.9887 C76.2824,51.9887 76.3876,51.9808 76.4936,51.965 L88.8504,50.1298 C90.013,49.9573 90.8157,48.8749 90.6427,47.7123 Z" id="Path"></path>
                            </g>
                        </g>
                    </g>
                </g>
            </g>
        </g>
    </g>
</svg>