<svg width="12" height="7" viewBox="0 0 12 7" fill="none" xmlns="http://www.w3.org/2000/svg">
<path d="M6 6.95C5.86667 6.95 5.74167 6.929 5.625 6.887C5.50833 6.84567 5.4 6.775 5.3 6.675L0.675001 2.05C0.491668 1.86667 0.404335 1.63733 0.413001 1.362C0.421001 1.08733 0.516668 0.858333 0.700001 0.674999C0.883334 0.491666 1.11667 0.399999 1.4 0.399999C1.68333 0.399999 1.91667 0.491666 2.1 0.674999L6 4.575L9.925 0.649999C10.1083 0.466665 10.3377 0.378999 10.613 0.386999C10.8877 0.395666 11.1167 0.491666 11.3 0.674999C11.4833 0.858333 11.575 1.09167 11.575 1.375C11.575 1.65833 11.4833 1.89167 11.3 2.075L6.7 6.675C6.6 6.775 6.49167 6.84567 6.375 6.887C6.25833 6.929 6.13333 6.95 6 6.95Z" fill="#00257A"/>
</svg>
