<?xml version="1.0" encoding="utf-8"?>
<!-- Generator: Adobe Illustrator 22.1.0, SVG Export Plug-In . SVG Version: 6.00 Build 0)  -->
<svg version="1.1" id="Livello_1" xmlns="http://www.w3.org/2000/svg" xmlns:xlink="http://www.w3.org/1999/xlink" x="0px" y="0px"
	 viewBox="0 0 100 100" style="enable-background:new 0 0 100 100;" xml:space="preserve">
<style type="text/css">
	.st0{fill:none;stroke:#218AE5;stroke-width:1.2229;stroke-linecap:round;stroke-linejoin:round;stroke-miterlimit:10;}
</style>
<g>
	<path class="st0" d="M9.7,29.1C9.7,14.7,20.1,3,34.5,3s25.4,11.7,25.4,26.1s-11,33.3-25.4,33.3S9.7,43.5,9.7,29.1z"/>
	<path class="st0" d="M32.5,64.7c0-1.2,1-2.1,2.3-2.1s2.3,1,2.3,2.1v2.6h-4.6V64.7z"/>
	<path class="st0" d="M63.2,83.9c0-1.2,1-2.1,2.3-2.1c1.3,0,2.3,1,2.3,2.1v2.6h-4.6V83.9z"/>
	<path class="st0" d="M34.5,67.6c0,0-1.3,7.2-1.3,10.4c0,2.6,2.6,4.6,2.6,8.5c0,3.3-2.6,5.9-2.6,11.1"/>
	<path class="st0" d="M29.3,54.7c-6.2-2.6-10.9-9.7-12.9-17"/>
	<path class="st0" d="M48.2,15.1c3.8,3.7,6.1,9,6.1,14.8c0,2.7-0.5,5.5-1.4,8.3"/>
	<path class="st0" d="M39.9,10.3c2.1,0.6,4.1,1.5,5.9,2.7"/>
	<path class="st0" d="M65.1,86.8c0,0-3.1,8.1-2.6,11.4"/>
	<path class="st0" d="M47,57.4c-0.1,0.1-0.2,0.2-0.3,0.2c2.2,6.9,6.7,13.5,12.6,16"/>
	<path class="st0" d="M78.3,34c3.8,3.7,6.1,9,6.1,14.8c0,2.7-0.5,5.5-1.4,8.3"/>
	<path class="st0" d="M69.9,29.2c2.1,0.6,4.1,1.5,5.9,2.7"/>
	<path class="st0" d="M64.5,21.9c-1.9,0-3.7,0.2-5.4,0.6c0.5,2.1,0.8,4.3,0.8,6.6c0,11.8-7.4,26.7-17.9,31.7
		c3.8,10.9,12.1,20.8,22.5,20.8c14.4,0,25.4-19,25.4-33.5C89.9,33.7,78.9,21.9,64.5,21.9z"/>
</g>
</svg>
