<?xml version="1.0" encoding="utf-8"?>
<!-- Generator: Adobe Illustrator 22.1.0, SVG Export Plug-In . SVG Version: 6.00 Build 0)  -->
<svg version="1.1" id="Livello_1" xmlns="http://www.w3.org/2000/svg" xmlns:xlink="http://www.w3.org/1999/xlink" x="0px" y="0px"
	 viewBox="0 0 100 100" style="enable-background:new 0 0 100 100;" xml:space="preserve">
<style type="text/css">
	.st0{fill:none;stroke:#218AE5;stroke-width:1.3303;stroke-linecap:round;stroke-linejoin:round;stroke-miterlimit:10;}
	.st1{fill:none;stroke:#218AE5;stroke-width:1.3009;stroke-linecap:round;stroke-linejoin:round;stroke-miterlimit:10;}
	.st2{fill:none;stroke:#218AE5;stroke-width:1.2968;stroke-linecap:round;stroke-linejoin:round;stroke-miterlimit:10;}
</style>
<g>
	<path class="st0" d="M30,41.8C30,24.4,44.6,9,62.5,9S95,24.4,95,41.8"/>
	<polyline class="st0" points="43.3,41.4 95,41.4 95,98 30,98 30,41.4 	"/>
	<polyline class="st1" points="36.3,41.4 5.6,41.4 5.6,70.4 36.3,70.4 	"/>
	<line class="st2" x1="69.1" y1="70.8" x2="69.1" y2="98"/>
	<line class="st2" x1="56.6" y1="70.8" x2="56.6" y2="98"/>
	<line class="st0" x1="43.3" y1="70.4" x2="81.7" y2="70.4"/>
	<path class="st0" d="M56.2,41.4c0,0-0.4-10.7,1-18.5c1.3-7,5.1-13.5,5.6-14c-6.3,2.8-11.2,6.3-15.4,13.3s-4.2,19.5-4.2,19.5v55.9"
		/>
	<path class="st0" d="M68.8,41.4c0,0,0.4-10.7-1-18.5c-1.3-7-4.4-13.5-4.9-14c6.3,2.8,10.5,6.3,14.7,13.3c4.2,7,4.2,19.5,4.2,19.5
		v55.9"/>
	<line class="st0" x1="18.2" y1="41.8" x2="18.2" y2="70.4"/>
	<path class="st0" d="M59.3,5.5c0-1.9,1.6-3.5,3.5-3.5c1.9,0,3.5,1.6,3.5,3.5S64.8,9,62.8,9"/>
</g>
</svg>
