<?xml version="1.0" encoding="UTF-8"?>
<svg width="112px" height="112px" viewBox="0 0 112 112" version="1.1" xmlns="http://www.w3.org/2000/svg" xmlns:xlink="http://www.w3.org/1999/xlink">
    <!-- Generator: Sketch 54.1 (76490) - https://sketchapp.com -->
    <title>noun_1016667_cc</title>
    <desc>Created with Sketch.</desc>
    <g id="Checkout---sport" stroke="none" stroke-width="1" fill="none" fill-rule="evenodd">
        <g id="Checkout---sport---5" transform="translate(-208.000000, -253.000000)" fill="#032C4E">
            <g id="Group-2" transform="translate(208.000000, 253.000000)">
                <g id="noun_1016667_cc">
                    <path d="M110.133333,74.6666667 L104.533333,74.6666667 L104.533333,70.9333333 C104.533333,65.7869333 100.3464,61.6 95.2,61.6 C90.0536,61.6 85.8666667,65.7869333 85.8666667,70.9333333 L85.8666667,74.6666667 L80.2666667,74.6666667 C79.2362667,74.6666667 78.4,75.5010667 78.4,76.5333333 L78.4,85.8666667 L65.3333333,85.8666667 L65.3333333,78.4 L72.8,78.4 C73.3245333,78.4 73.8248,78.1797333 74.1776,77.7914667 C74.5322667,77.4050667 74.7058667,76.888 74.6592,76.3634667 L71.5026667,41.8264 L78.7733333,51.52 C79.1317333,51.9997333 79.6898667,52.2666667 80.2666667,52.2666667 C80.4458667,52.2666667 80.6250667,52.2405333 80.8024,52.1882667 L99.4690667,46.5882667 L98.3976,43.0117333 L80.9778667,48.2384 L70.9165333,34.8226667 C70.9016,34.5296 70.8437333,34.2477333 70.8101333,33.9584 C70.7896,33.7848 70.7746667,33.6093333 70.7466667,33.4376 C70.6608,32.9 70.5376,32.3754667 70.3864,31.8602667 C70.364,31.7874667 70.3490667,31.7109333 70.3266667,31.6381333 C70.1474667,31.0650667 69.9290667,30.5088 69.6733333,29.9712 C69.6602667,29.9432 69.6509333,29.9152 69.6378667,29.8890667 C69.3709333,29.3384 69.0685333,28.8082667 68.7269333,28.3005333 C68.712,28.28 68.7008,28.2576 68.6877333,28.2370667 C68.3554667,27.748 67.9877333,27.2869333 67.5882667,26.8464 C67.5546667,26.8090667 67.5266667,26.768 67.4930667,26.7306667 C67.1178667,26.3256 66.7109333,25.9522667 66.2834667,25.5938667 C66.2144,25.536 66.1528,25.4688 66.0818667,25.4109333 C65.6749333,25.0861333 65.2362667,24.7930667 64.7864,24.5149333 C64.6818667,24.4496 64.5885333,24.3712 64.4821333,24.3096 C64.1498667,24.1173333 63.7914667,23.9605333 63.4386667,23.7944 C66.8341333,21.4349333 69.0666667,17.5093333 69.0666667,13.0666667 C69.0666667,5.8632 63.2053333,0 56,0 C48.7946667,0 42.9333333,5.8632 42.9333333,13.0666667 C42.9333333,17.5093333 45.1658667,21.4349333 48.5650667,23.7981333 C48.216,23.9624 47.8594667,24.1154667 47.5309333,24.3058667 C47.3144,24.4309333 47.124,24.5858667 46.9168,24.7221333 C46.5938667,24.9349333 46.2653333,25.1402667 45.9648,25.3792 C45.6941333,25.5938667 45.4552,25.8384 45.2032,26.0736 C45.0016,26.2621333 44.7888,26.4376 44.6002667,26.6373333 C44.3034667,26.9509333 44.0421333,27.2925333 43.7789333,27.6322667 C43.6706667,27.7741333 43.5474667,27.9048 43.4448,28.0522667 C43.1536,28.4629333 42.9016,28.896 42.6608,29.3365333 C42.6104,29.428 42.5506667,29.5138667 42.504,29.6072 C42.2594667,30.0813333 42.056,30.5741333 41.8730667,31.0762667 C41.8450667,31.1528 41.8096,31.2256 41.7834667,31.3021333 C41.6210667,31.7744 41.4997333,32.2597333 41.3933333,32.7506667 C41.3634667,32.8869333 41.3242667,33.0176 41.3,33.1557333 C41.2309333,33.5365333 41.1936,33.9229333 41.16,34.3130667 C41.1394667,34.5221333 41.0946667,34.7237333 41.0853333,34.9365333 L31.0296,48.2402667 L13.6061333,43.0117333 L12.5346667,46.5882667 L31.2013333,52.1882667 C31.3749333,52.2405333 31.5541333,52.2666667 31.7333333,52.2666667 C32.3082667,52.2666667 32.8626667,51.9997333 33.2229333,51.5256 L40.4805333,41.9234667 L37.3408,76.3634667 C37.2941333,76.8861333 37.4677333,77.4050667 37.8224,77.7914667 C38.1752,78.1797333 38.6754667,78.4 39.2,78.4 L46.6666667,78.4 L46.6666667,85.8666667 L33.6,85.8666667 L33.6,72.8 C33.6,71.7677333 32.7637333,70.9333333 31.7333333,70.9333333 L26.1333333,70.9333333 L26.1333333,67.2 C26.1333333,62.0536 21.9464,57.8666667 16.8,57.8666667 C11.6536,57.8666667 7.46666667,62.0536 7.46666667,67.2 L7.46666667,70.9333333 L1.86666667,70.9333333 C0.836266667,70.9333333 0,71.7677333 0,72.8 L0,110.133333 C0,111.1656 0.836266667,112 1.86666667,112 L18.6666667,112 L48.5333333,112 L63.4666667,112 L80.2666667,112 L110.133333,112 C111.163733,112 112,111.1656 112,110.133333 L112,76.5333333 C112,75.5010667 111.163733,74.6666667 110.133333,74.6666667 Z M89.6,70.9333333 C89.6,67.8458667 92.1125333,65.3333333 95.2,65.3333333 C98.2874667,65.3333333 100.8,67.8458667 100.8,70.9333333 L100.8,74.6666667 L89.6,74.6666667 L89.6,70.9333333 Z M61.6,87.7333333 L61.6,108.266667 L57.8666667,108.266667 L57.8666667,78.4 L61.6,78.4 L61.6,87.7333333 Z M46.6666667,13.0666667 C46.6666667,7.92026667 50.8536,3.73333333 56,3.73333333 C61.1464,3.73333333 65.3333333,7.92026667 65.3333333,13.0666667 C65.3333333,18.2130667 61.1464,22.4 56,22.4 C50.8536,22.4 46.6666667,18.2130667 46.6666667,13.0666667 Z M44.8,35.5824 C44.8,31.7426667 47.1034667,28.3416 50.6669333,26.9154667 L52.6269333,26.1314667 L59.3730667,26.1314667 L61.3330667,26.9154667 C64.8965333,28.3416 67.2,31.7426667 67.2074667,35.7504 L70.756,74.6666667 L63.4666667,74.6666667 L48.5333333,74.6666667 L41.244,74.6666667 L44.8,35.5824 Z M11.2,67.2 C11.2,64.1125333 13.7125333,61.6 16.8,61.6 C19.8874667,61.6 22.4,64.1125333 22.4,67.2 L22.4,70.9333333 L11.2,70.9333333 L11.2,67.2 Z M7.46666667,74.6666667 L7.46666667,78.4 L11.2,78.4 L11.2,74.6666667 L22.4,74.6666667 L22.4,78.4 L26.1333333,78.4 L26.1333333,74.6666667 L29.8666667,74.6666667 L29.8666667,85.8666667 L18.6666667,85.8666667 C17.6362667,85.8666667 16.8,86.7010667 16.8,87.7333333 L16.8,98.9333333 L3.73333333,98.9333333 L3.73333333,74.6666667 L7.46666667,74.6666667 Z M3.73333333,102.666667 L16.8,102.666667 L16.8,108.266667 L3.73333333,108.266667 L3.73333333,102.666667 Z M20.5333333,102.666667 L20.5333333,98.9333333 L20.5333333,89.6 L31.7333333,89.6 L46.6666667,89.6 L46.6666667,108.266667 L20.5333333,108.266667 L20.5333333,102.666667 Z M50.4,87.7333333 L50.4,78.4 L54.1333333,78.4 L54.1333333,108.266667 L50.4,108.266667 L50.4,87.7333333 Z M65.3333333,89.6 L78.4,89.6 L78.4,98.9333333 C75.3125333,98.9333333 72.8,96.4208 72.8,93.3333333 L69.0666667,93.3333333 C69.0666667,98.4797333 73.2536,102.666667 78.4,102.666667 L78.4,108.266667 L65.3333333,108.266667 L65.3333333,89.6 Z M108.266667,108.266667 L82.1333333,108.266667 L82.1333333,87.7333333 L82.1333333,78.4 L85.8666667,78.4 L85.8666667,82.1333333 L89.6,82.1333333 L89.6,78.4 L100.8,78.4 L100.8,82.1333333 L104.533333,82.1333333 L104.533333,78.4 L108.266667,78.4 L108.266667,108.266667 Z" id="Shape"></path>
                    <path d="M96.8255422,86.5498266 C96.092463,85.8167245 94.907537,85.8167245 94.1744578,86.5498266 L88.5498094,92.1746508 C87.8167302,92.9077529 87.8167302,94.0927159 88.5498094,94.8258179 L94.1744578,100.450642 C94.54006,100.816256 95.02003,101 95.5,101 C95.97997,101 96.45994,100.816256 96.8255422,100.450642 L102.450191,94.8258179 C103.18327,94.0927159 103.18327,92.9077529 102.450191,92.1746508 L96.8255422,86.5498266 Z M95.5,96.4738914 L92.5264358,93.5002344 L95.5,90.5265773 L98.4735642,93.5002344 L95.5,96.4738914 Z" id="Shape"></path>
                    <polygon id="Rectangle-path" points="17 15 21 15 21 21 17 21"></polygon>
                    <polygon id="Rectangle-path" points="0 32 6 32 6 36 0 36"></polygon>
                    <polygon id="Rectangle-path" transform="translate(5.600000, 20.222222) rotate(-45.000000) translate(-5.600000, -20.222222) " points="3.73333333 17.4222222 7.46666667 17.4222222 7.46666667 23.0222222 3.73333333 23.0222222"></polygon>
                    <polygon id="Rectangle-path" transform="translate(106.711111, 20.533333) rotate(-45.000000) translate(-106.711111, -20.533333) " points="103.911111 18.6666667 109.511111 18.6666667 109.511111 22.4 103.911111 22.4"></polygon>
                    <polygon id="Rectangle-path" points="106 32 112 32 112 36 106 36"></polygon>
                    <polygon id="Rectangle-path" points="89 15 93 15 93 21 89 21"></polygon>
                    <path d="M33.5,98.4 C30.3574,98.4 27.8,95.9772 27.8,93 L24,93 C24,97.9626 28.2617,102 33.5,102 C38.7383,102 43,97.9626 43,93 L39.2,93 C39.2,95.9772 36.6426,98.4 33.5,98.4 Z" id="Shape"></path>
                </g>
            </g>
        </g>
    </g>
</svg>