<svg xmlns="http://www.w3.org/2000/svg" width="49" height="58" viewBox="0 0 49 58">
    <g fill="#208DE8" fill-rule="nonzero">
        <path d="M48.097 19.358l-8.272-1.586c.343-.955.545-1.96.588-3.004L48.1 13.28a.938.938 0 0 0 .742-1.096.957.957 0 0 0-1.097-.742l-7.459 1.445c-.146-1.035-.41-2.041-.866-2.992V.936a.935.935 0 0 0-1.453-.78l-6.207 4.112c-.525-.083-1.042-.158-1.532-.158h-3.223c-.49 0-1.005.076-1.528.158L19.42.16a.936.936 0 0 0-1.46.768l-.073 8.904c-.476.945-.75 1.985-.902 3.06l-7.49-1.45a.954.954 0 0 0-1.097.741.938.938 0 0 0 .742 1.096l7.704 1.493a10.24 10.24 0 0 0 .582 2.998l-8.284 1.588a.936.936 0 0 0 .35 1.837l8.749-1.677a10.038 10.038 0 0 0 3.637 3.625L20.38 24.95a21.448 21.448 0 0 0-4.126 19.506l2.214 7.837c-4.808-.066-8.498-1.38-9.387-3.333-1.199-2.619-.047-4.073 1.697-6.277.985-1.244 2.102-2.655 2.868-4.48 1.652-3.897.592-8.101-1.307-10.237-3.192-3.627-7.27-3.826-7.442-3.833a.872.872 0 0 0-.52.135c-.286.172-2.702 1.84-.306 7.418 1.384 3.282-.205 5.6-1.738 7.844-.503.73-.974 1.421-1.314 2.121-1.457 3.028-1.464 7.822 2.876 12.2 2.7 2.779 7.293 4.131 14.038 4.131l.795.007c.358.007.746.011 1.117.011.34 0 .66-.005.937-.017h.012l2.394-.022.013.002h.037l.014-.002 5.373-.05 5.37.05h.04a4.143 4.143 0 0 0 3.978-3.01l.3-1.064.018-.061 2.653-9.395a21.439 21.439 0 0 0-4.097-19.472l-1.518-1.838c.721-.425 1.422-.922 2.066-1.568.624-.61 1.123-1.306 1.561-2.035l8.75 1.677a.936.936 0 0 0 .351-1.837zM17.93 56.112c-6.213 0-10.366-1.165-12.702-3.57-3.66-3.692-3.705-7.628-2.526-10.074.276-.572.713-1.208 1.173-1.88 1.561-2.28 3.7-5.405 1.916-9.633-1.342-3.122-.861-4.465-.585-4.907a9.68 9.68 0 0 1 5.728 3.159c1.476 1.659 2.322 5.12.986 8.271-.67 1.591-1.657 2.84-2.612 4.045-1.773 2.243-3.607 4.56-1.933 8.215 1.487 3.27 6.866 4.442 11.62 4.43l.554 1.96a103.7 103.7 0 0 1-.798-.007l-.82-.009zM39.18 43.924l-2.764 9.79-.205.712a2.273 2.273 0 0 1-2.175 1.639 2.264 2.264 0 0 1-2.263-2.26v-.901a.935.935 0 1 0-1.873 0v.9c0 .85.32 1.597.763 2.255l-2.04-.02-2.035.02c.432-.654.746-1.39.746-2.227v-.928a.935.935 0 1 0-1.873 0v.928c0 1.23-.998 2.237-2.23 2.257h-.053a2.259 2.259 0 0 1-2.157-1.644l-.413-1.462c0-.003-.003-.003-.004-.005l-2.55-9.028a19.567 19.567 0 0 1 3.765-17.804l1.835-2.213c1.042.38 2.167.627 3.349.627h3.222c1.198 0 2.325-.243 3.383-.627l1.833 2.22a19.56 19.56 0 0 1 3.739 17.771zm-3.062-23.7c-.797.8-1.654 1.391-2.576 1.77a7.992 7.992 0 0 1-3.315.695h-3.223c-1.175 0-2.305-.238-3.298-.702-1.436-.613-2.605-1.626-3.47-2.85l.91-.176a.936.936 0 0 0 .745-1.094.948.948 0 0 0-1.095-.743l-1.457.279a8.254 8.254 0 0 1-.537-2.252l1.287.25a.937.937 0 0 0 1.097-.742.938.938 0 0 0-.743-1.097l-1.629-.315c.129-.99.37-1.95.829-2.797.072-.132.107-.315.11-.467 0-.004.003-.006.003-.01l.06-7.282 4.886 3.312.007.001c.123.083.278.07.426.087.094.01.181.072.273.054a8.243 8.243 0 0 1 1.596-.166h3.223c.504 0 1.027.055 1.595.166.06.013.123.018.183.018.127 0 .23-.074.342-.121.057-.023.12.001.174-.034l5.027-3.331v7.363c0 .081.067.133.086.207.017.075-.018.15.019.22.448.873.679 1.81.803 2.772l-1.663.322a.938.938 0 0 0-.742 1.096.937.937 0 0 0 1.097.742l1.358-.263c-.075.79-.232 1.56-.52 2.282l-1.544-.296a.937.937 0 0 0-.35 1.838l.935.18a8.25 8.25 0 0 1-.909 1.085z"/>
        <path d="M29.146 16.356H28.12a.935.935 0 1 0 0 1.871h1.026a.935.935 0 1 0 0-1.871zM26.19 12.333l-1.932-.241c-.482-.075-.981.297-1.044.813-.063.512.3.98.814 1.043l1.932.241a.936.936 0 0 0 .23-1.857zM33.009 12.092l-1.933.24a.935.935 0 1 0 .23 1.857l1.932-.24a.935.935 0 0 0 .814-1.044c-.063-.517-.575-.888-1.043-.813z"/>
    </g>
</svg>
