<?xml version="1.0" encoding="UTF-8"?>
<svg width="24px" height="18px" viewBox="0 0 24 18" version="1.1" xmlns="http://www.w3.org/2000/svg" xmlns:xlink="http://www.w3.org/1999/xlink">
    <!-- Generator: Sketch 54.1 (76490) - https://sketchapp.com -->
    <title>Shape Copy</title>
    <desc>Created with Sketch.</desc>
    <g id="Symbols" stroke="none" stroke-width="1" fill="none" fill-rule="evenodd">
        <g id="checkbox/checked" transform="translate(-6.000000, 0.000000)" fill="#4A90E2">
            <g id="Group-5">
                <path d="M27.4222811,0.466807225 C22.4210936,5.47882423 18.6779292,9.61473824 13.904794,14.4525626 L8.47282454,9.86348498 C8.06321067,9.51544671 7.49875595,9.41301521 6.99297048,9.59493611 C6.48718501,9.77685701 6.11729171,10.2153548 6.02320606,10.7445637 C5.92912042,11.2737726 6.12520735,11.8128934 6.53729521,12.1579988 L13.030684,17.6524047 C13.6282897,18.1542903 14.5110322,18.1135483 15.0598679,17.55875 C20.4187373,12.1884178 24.2481828,7.88245197 29.5451197,2.57403674 C30.0099964,2.12280213 30.1322816,1.42393272 29.8482444,0.841656302 C29.5642071,0.259379886 28.9381652,-0.0744519037 28.2963911,0.0141431058 C27.962364,0.0623047392 27.6543709,0.221801159 27.4222811,0.466807225 Z" id="Shape-Copy"></path>
            </g>
        </g>
    </g>
</svg>