<?xml version="1.0" encoding="UTF-8"?>
<svg width="56px" height="62px" viewBox="0 0 56 62" version="1.1" xmlns="http://www.w3.org/2000/svg" xmlns:xlink="http://www.w3.org/1999/xlink">
    <!-- Generator: Sketch 54.1 (76490) - https://sketchapp.com -->
    <title>Product Icon/Viaggio Europa/Big</title>
    <desc>Created with Sketch.</desc>
    <g id="Checkout---sport" stroke="none" stroke-width="1" fill="none" fill-rule="evenodd">
        <g id="Checkout---sport---4.1" transform="translate(-168.000000, -539.000000)" fill="#4A4A4A">
            <g id="Group-2" transform="translate(128.000000, 458.000000)">
                <g id="Icon/User" transform="translate(24.000000, 76.000000)">
                    <g id="noun_User_2360795" transform="translate(16.000000, 5.000000)">
                        <g id="Group">
                            <path d="M40.882441,44.1642361 L36.6199795,44.1642361 C36.3089641,44.1642361 36.0568205,43.9122176 36.0568205,43.6015 C36.0568205,43.2906389 36.3089641,43.0386204 36.6199795,43.0386204 L40.3192821,43.0386204 L40.3192821,25.6434583 L39.4798564,25.3142269 C39.1902359,25.2005602 39.0476513,24.8740556 39.1612308,24.5847222 C39.2746667,24.2952454 39.6017641,24.152588 39.8910974,24.2663981 L41.0879179,24.7358472 C41.3035897,24.8203796 41.4453128,25.028338 41.4453128,25.2596898 L41.4453128,43.6015 C41.4454564,43.9122176 41.1933128,44.1642361 40.882441,44.1642361 Z M19.3909333,44.1642361 L15.117559,44.1642361 C14.8065436,44.1642361 14.5544,43.9122176 14.5544,43.6015 L14.5544,25.2596898 C14.5544,25.0281944 14.6962667,24.8203796 14.9119385,24.7358472 L22.5721641,21.731287 C22.8360821,21.6278102 23.1354667,21.7364537 23.2717333,21.9847407 L26.1033231,27.1468148 L27.6024,25.6565185 C27.8166359,25.443537 28.1609641,25.4375093 28.3825231,25.6428843 L29.7388718,26.900537 L32.6907897,22.0438704 C32.8521846,21.7782176 33.1986667,21.6935417 33.4645949,21.8551435 C33.7303795,22.0166019 33.8148103,22.362625 33.6534154,22.6282778 L30.343241,28.0745185 C30.2553641,28.2190417 30.1070359,28.3164907 29.9396103,28.3397407 C29.7718974,28.3627037 29.6028923,28.3098889 29.4788308,28.1949306 L28.0130667,26.8359537 L26.3665231,28.4727824 C26.2410256,28.5976435 26.0645538,28.655912 25.8889436,28.6307963 C25.7137641,28.605537 25.5606974,28.4994769 25.4756923,28.3443333 L22.5224821,22.9602361 L15.6807179,25.6436019 L15.6807179,43.0387639 L19.3910769,43.0387639 C19.7020923,43.0387639 19.9540923,43.2907824 19.9540923,43.6016435 C19.9539487,43.9122176 19.7018051,44.1642361 19.3909333,44.1642361 Z" id="Shape"></path>
                            <path d="M36.5410051,61.9005417 L19.843959,61.9005417 C19.5329436,61.9005417 19.2808,61.6485231 19.2808,61.3378056 C19.2808,61.0269444 19.5329436,60.7749259 19.843959,60.7749259 L35.9779897,60.7749259 L35.9779897,28.7800556 C35.9779897,28.4691944 36.2301333,28.2171759 36.5411487,28.2171759 C36.8520205,28.2171759 37.1043077,28.4691944 37.1043077,28.7800556 L37.1043077,61.3378056 C37.1041641,61.6485231 36.8518769,61.9005417 36.5410051,61.9005417 Z M19.4634462,55.245588 C19.1524308,55.245588 18.9004308,54.9935694 18.9004308,54.6828519 L18.9004308,28.7800556 C18.9004308,28.4691944 19.1525744,28.2171759 19.4634462,28.2171759 C19.7743179,28.2171759 20.0264615,28.4691944 20.0264615,28.7800556 L20.0264615,54.6827083 C20.0266051,54.9935694 19.7744615,55.245588 19.4634462,55.245588 Z" id="Shape"></path>
                            <path d="M27.9994256,20.777463 C23.4394462,20.777463 21.0539897,14.3824213 21.0539897,10.9541944 C21.0539897,7.12626852 24.1697436,4.01177315 27.9994256,4.01177315 C31.8322667,4.01177315 34.9507487,7.126125 34.9507487,10.9541944 C34.9507487,14.3824213 32.5632821,20.777463 27.9994256,20.777463 Z M27.9994256,5.13753241 C24.7906256,5.13753241 22.1803077,7.74684259 22.1803077,10.9541944 C22.1803077,13.9062269 24.2342154,19.6518472 27.9994256,19.6518472 C31.7683692,19.6518472 33.8244308,13.9062269 33.8244308,10.9541944 C33.8244308,7.74698611 31.2113846,5.13753241 27.9994256,5.13753241 Z" id="Shape"></path>
                            <path d="M29.8617846,28.3449074 C29.7209231,28.3449074 29.5836513,28.2918056 29.4788308,28.194787 L27.6164718,26.4681157 C27.4069744,26.2737917 27.3762462,25.9533148 27.5452513,25.7228241 L31.3091692,20.5883056 C31.4037949,20.4592824 31.5488205,20.3766157 31.7079179,20.3608287 C31.8674462,20.3451852 32.0256821,20.3978565 32.1435692,20.5059259 L33.6011487,21.8402176 C33.7994462,22.021625 33.8418051,22.3178472 33.7022359,22.5474769 L30.3429538,28.074375 C30.2550769,28.2188981 30.1067487,28.3163472 29.9393231,28.3395972 C29.9136205,28.3430417 29.8876308,28.3449074 29.8617846,28.3449074 Z M28.7501128,25.9837407 L29.7388718,26.9003935 L32.4998154,22.3580324 L31.8463385,21.7599907 L28.7501128,25.9837407 Z" id="Shape"></path>
                            <path d="M25.9693538,28.6363935 C25.9426462,28.6363935 25.9157949,28.6343843 25.8889436,28.6305093 C25.7137641,28.60525 25.5606974,28.4991898 25.4756923,28.3440463 L22.2842667,22.525662 C22.1592,22.2978981 22.2065846,22.014162 22.3987077,21.8390694 L23.8633231,20.5047778 C23.9813538,20.3971389 24.1393026,20.3444676 24.2989744,20.3606852 C24.4579282,20.3766157 24.6028103,20.4594259 24.6971487,20.5884491 L28.4540308,25.7231111 C28.618441,25.9475741 28.5938872,26.2582917 28.3965949,26.454338 L26.3666667,28.4724954 C26.2601231,28.578125 26.1171077,28.6363935 25.9693538,28.6363935 Z M23.4845333,22.3728148 L26.1031795,27.1466713 L27.2593641,25.997375 L24.1582564,21.7591296 L23.4845333,22.3728148 Z" id="Shape"></path>
                            <path d="M27.9994256,61.9005417 C27.6884103,61.9005417 27.4364103,61.6485231 27.4364103,61.3378056 L27.4364103,45.6078889 C27.4364103,45.2971713 27.6885538,45.0451528 27.9994256,45.0451528 C28.310441,45.0451528 28.5625846,45.2971713 28.5625846,45.6078889 L28.5625846,61.3378056 C28.5625846,61.6485231 28.310441,61.9005417 27.9994256,61.9005417 Z" id="Path"></path>
                            <path d="M19.4634462,54.6580231 C19.4047179,54.6580231 19.345559,54.648838 19.2882667,54.6301806 C13.7296205,52.8103657 8.94951795,49.3505648 5.46488205,44.6249306 C1.90830769,39.8018472 0.0284307692,34.0745972 0.0284307692,28.0626065 C0.0284307692,26.5677176 0.147610256,25.067375 0.382523077,23.6030556 C0.431774359,23.296213 0.720102564,23.0876806 1.02781538,23.1364769 C1.33481026,23.1857037 1.54387692,23.474463 1.49462564,23.7813056 C1.26904615,25.1869259 1.15460513,26.6274213 1.15460513,28.0626065 C1.15460513,39.4335787 8.25282051,49.4808796 18.9004308,53.3069398 L18.9004308,43.6015 C18.9004308,43.2906389 19.1525744,43.0386204 19.4634462,43.0386204 C19.7743179,43.0386204 20.0264615,43.2906389 20.0264615,43.6015 L20.0264615,54.0951435 C20.0264615,54.2756898 19.9398769,54.4450417 19.7938462,54.5509583 C19.6966359,54.6214259 19.580759,54.6580231 19.4634462,54.6580231 Z M39.7940308,53.3560231 C39.5836718,53.3560231 39.3820718,53.2379074 39.2852923,53.0355463 C39.1514667,52.7551111 39.270359,52.4191343 39.5512205,52.285088 C48.8420513,47.8528056 54.8455385,38.3449907 54.8455385,28.0626065 C54.8455385,21.9355139 52.8326974,16.1657824 49.024841,11.377287 C48.8314256,11.1340231 48.8719179,10.779963 49.1153026,10.5865 C49.3589744,10.393037 49.7132103,10.4336528 49.9066256,10.6769167 C53.8745846,15.6664815 55.9717128,21.6783287 55.9717128,28.0626065 C55.9717128,33.444838 54.4383179,38.6699167 51.5372308,43.1730972 C48.7131077,47.5567269 44.7361026,51.0590093 40.0361231,53.3010556 C39.9577231,53.3380833 39.875159,53.3560231 39.7940308,53.3560231 Z M36.5410051,51.1277546 C36.2299897,51.1277546 35.9778462,50.8757361 35.9778462,50.564875 L35.9778462,43.6013565 C35.9778462,43.2904954 36.2299897,43.0384769 36.5410051,43.0384769 C36.8518769,43.0384769 37.1041641,43.2904954 37.1041641,43.6013565 L37.1041641,50.564875 C37.1041641,50.8757361 36.8518769,51.1277546 36.5410051,51.1277546 Z M2.93368205,17.5283472 C2.8574359,17.5283472 2.77989744,17.5127037 2.70566154,17.479838 C2.42149744,17.3538287 2.29312821,17.0212963 2.41934359,16.7371296 C6.90508718,6.630125 16.9458872,0.0993148148 27.9994256,0.0993148148 C34.1034256,0.0993148148 39.9035897,2.03093056 44.7732923,5.68548611 C45.0218462,5.87206019 45.0722462,6.22497222 44.8855795,6.4735463 C44.6986256,6.72197685 44.3456821,6.77235185 44.0971282,6.58563426 C39.424,3.07861574 33.8574564,1.22493056 27.9994256,1.22493056 C17.3907282,1.22507407 7.75384615,7.49310185 3.44873846,17.193662 C3.35554872,17.4036296 3.14964103,17.5283472 2.93368205,17.5283472 Z" id="Shape"></path>
                            <path d="M39.4410872,51.1261759 C39.2358974,51.1261759 39.0381744,51.0136574 38.9388103,50.8181852 C38.7979487,50.5410509 38.9082256,50.2023472 39.185641,50.0615556 C45.7008821,46.7502963 50.3948308,40.7733241 52.0637744,33.6632731 C52.1348513,33.3605926 52.4378256,33.1725833 52.7406564,33.2437685 C53.0433436,33.3148102 53.231159,33.6174907 53.1602256,33.9201713 C51.4154667,41.354 46.508,47.6030833 39.695959,51.0648935 C39.6142564,51.1066574 39.5269538,51.1261759 39.4410872,51.1261759 Z M15.9974769,50.8463148 C15.9074462,50.8463148 15.8159795,50.8246435 15.7311179,50.7790046 C7.33398974,46.2608981 2.11737436,37.5405694 2.11737436,28.0208426 C2.11737436,27.8900972 2.11837949,27.7592083 2.12038974,27.6280324 C2.23138462,20.149713 5.5734359,13.0896065 11.2897436,8.25834259 C11.5270974,8.0577037 11.8823385,8.087125 12.0832205,8.32464815 C12.2841026,8.56202778 12.2543795,8.91709259 12.0168821,9.11773148 C6.54912821,13.7388843 3.35253333,20.4917176 3.24627692,27.6448241 C3.24441026,27.7704028 3.24340513,27.895838 3.24340513,28.0208426 C3.24340513,37.1256574 8.23286154,45.4662361 16.2646974,49.7877222 C16.5385231,49.9351157 16.6410462,50.2764028 16.4935795,50.5502361 C16.3920615,50.738963 16.1979282,50.8463148 15.9974769,50.8463148 Z M53.2512615,27.3714213 C52.9523077,27.3714213 52.7034667,27.136338 52.6892513,26.8348056 C52.0820103,13.8188241 41.3888821,3.47573148 28.3453333,3.28786574 C28.2162462,3.286 28.0878769,3.28485185 27.9595077,3.28485185 C24.4266256,3.28485185 21.0137846,4.01622222 17.8157538,5.45843981 C17.5323077,5.5861713 17.1987487,5.46030556 17.0709538,5.17685648 C16.9430154,4.89355093 17.0690872,4.56030093 17.3525333,4.43228241 C20.818359,2.86936574 24.5201026,2.10312037 28.3617026,2.16225 C41.9989949,2.35872685 53.1791795,13.1731343 53.8141333,26.7822778 C53.8286359,27.0928519 53.5885538,27.3562083 53.2779692,27.3707037 C53.2690667,27.3712778 53.2601641,27.3714213 53.2512615,27.3714213 Z" id="Shape"></path>
                        </g>
                    </g>
                </g>
            </g>
        </g>
    </g>
</svg>