<svg xmlns="http://www.w3.org/2000/svg" viewBox="0 0 236.8 188.19"><defs><style>.cls-1{fill:none;stroke:#fff;stroke-miterlimit:10;}</style></defs><title>Risorsa 4</title><g id="Livello_2" data-name="Livello 2"><g id="Visori"><path class="cls-1" d="M118.05,73.7l-28.31-34,32.1-25.81,6-11.15a4.33,4.33,0,0,1,8.09,1.48l1.44,10.61A13.21,13.21,0,0,1,131.1,28L113.25,38.71l19.52,18.86-10.1-4.13a3.06,3.06,0,0,0-3.81,1.3h0A5.78,5.78,0,0,0,120,62l5.17,4.59Zm4.24.29L142.6,82.5a3.32,3.32,0,0,0,2.42,0l23.33-8.62a3.36,3.36,0,0,0,1.8-1.58L171.4,70a3.36,3.36,0,0,0-1-4.28l-9.3-6.84c-5.56,6.43-17.27-5.77-12.53-4.68s10.23-3.1,10.23-3.1L154,46.35l4.44-1.5a1,1,0,0,0,.22-1.77l-15.48-9.86,1.22-3.35L137,24.55m8.13,10L121.7,46.87l6.87,6.64,24.82-13.28Zm-2.71,3.92-7.94,5,4.79-.47a3,3,0,0,0,2.65-2.33Zm55.65,58-5,23.65.14,0L180,109.35a41.94,41.94,0,0,0-19.93-8.91l-20.62-3.26a9.28,9.28,0,0,1-1.81-.48L131,94.18a20.14,20.14,0,0,0-21.88,5.24h0a14.46,14.46,0,0,0-3.67,11.75l.13,1a20.13,20.13,0,0,0,16.06,17l39,14.36c2.34,1,47.21,8.94,47.21,8.94a11,11,0,0,0,13.76-10.58l.08-9.1,7.58-24.48a79.66,79.66,0,0,0,1.89-10.69M150.55,96.1l-1.88-13.57M155,142l-1,9-4.35,4.53-7.42,32.57m49.61-138.2,13.24-1L194.79,94.91l41.31,1.75-22.73-68.9-22.11.09-5.68,9.43a1.65,1.65,0,0,0,1.7,2.47l1.82-.32a6.59,6.59,0,0,0,3.9-2.25l3.14-3.73s7.72,2.47,7.79,4.92-2.92,4.5-2.92,4.5l-4.44.73m-11.76-7.2,3.46-12.24a2.12,2.12,0,0,1,2.56-1.49L207.94,28M184,32.68l-.5-4.89a2.55,2.55,0,0,1,1.83-2.7l2.94-.92m6,11.66c2.61,3.51.74,9.32-4.18,13s-11,3.77-13.64.25-.74-9.32,4.18-13a16.2,16.2,0,0,1,2.68-1.6m-6.47,15.05c2.61,3.51,9.46,4.46,14.38.81s6.1-10.17,3.49-13.68m-7.07,10c-1.53.76-3.45.75-3.07,1.52m-3.66-4.68c.54-.08,2.3-1.14,1.69-1.6s.62-1.45,1.31-2.37m5.5,4.15s1.37.08,1.22-1a4.71,4.71,0,0,1,1-2.6m-14.25,3.63a1.34,1.34,0,0,1,.46,1.3c-.16.84,1.53,1.15,1.53,1.15m3.32-9.47s-1.61.22-1.54.76a1.86,1.86,0,0,1-.38,1.14m-63.1,34.46-7.32,12.7M131,87.16S109.43,80,94.85,95.5c-12.29,13-20.45,21.86-44.52,20.8-12-.54-40,10.77-49.92,25.09m104.18,7.47a73.19,73.19,0,0,1-14.73,12.66c-8.19,5.07-7.37,12.66-7.37,12.66"/></g></g></svg>