<?xml version="1.0" encoding="utf-8"?>
<!-- Generator: Adobe Illustrator 22.1.0, SVG Export Plug-In . SVG Version: 6.00 Build 0)  -->
<svg version="1.1" id="Livello_1" xmlns="http://www.w3.org/2000/svg" xmlns:xlink="http://www.w3.org/1999/xlink" x="0px" y="0px"
	 viewBox="0 0 120 100" style="enable-background:new 0 0 120 100;" xml:space="preserve">
<style type="text/css">
	.st0{fill:none;stroke:#FFFFFF;stroke-width:0.3937;stroke-linecap:round;stroke-linejoin:round;stroke-miterlimit:10;}
	.st1{fill:none;stroke:#FFFFFF;stroke-width:0.3937;stroke-miterlimit:10;}
	.st2{fill:#FFFFFF;}
	.st3{fill:none;stroke:#FFFFFF;stroke-width:0.3937;stroke-linejoin:round;stroke-miterlimit:10;}
	.st4{fill:none;stroke:#FFFFFF;stroke-width:1.181;stroke-linecap:round;stroke-linejoin:round;stroke-miterlimit:10;}
</style>
<g>
	<g>
		<path class="st0" d="M68.1,95.9h27.1V84.4c0-0.5,0.4-0.8,0.8-0.8h6.8v-8.1c0-1.3-1-2.3-2.3-2.3h-35c-1.3,0-2.3,1-2.3,2.3v14
			c0,0,0,0,0,0c3.7,0,6.1,0.5,6.2,0.5c0.6,0.1,0.9,0.6,0.8,1.2c-0.1,0.6-0.6,0.9-1.2,0.8c0,0-0.4-0.1-1-0.2c0,0.1,0,0.1,0,0.2v3
			C68.2,95.2,68.2,95.6,68.1,95.9z"/>
		<g id="XMLID_51_">
			<g id="XMLID_83_">
				<g id="XMLID_85_">
					<path id="XMLID_87_" class="st1" d="M53.1,67l-1-0.9c-0.2-0.2-0.5-0.2-0.7,0l0,0c-0.2,0.2-0.2,0.5,0,0.7l0.6,0.5L53.1,67z"/>
					<path id="XMLID_86_" class="st1" d="M50.5,67.9l-1-0.9c-0.2-0.2-0.5-0.2-0.7,0l0,0c-0.2,0.2-0.2,0.5,0,0.7l0.6,0.5L50.5,67.9z"
						/>
				</g>
				<polygon id="XMLID_84_" class="st1" points="46.2,69.4 46.1,69.5 49.3,72.3 49.4,72.2 57.1,67 56,66.1 				"/>
			</g>
			<g id="XMLID_54_">
				<g id="XMLID_80_">
					<path id="XMLID_82_" class="st1" d="M42.3,79.5l-1-0.9c-0.2-0.2-0.2-0.5,0-0.7l0,0c0.2-0.2,0.5-0.2,0.7,0l0.6,0.5L42.3,79.5z"
						/>
					<path id="XMLID_81_" class="st1" d="M42.9,76.7l-1-0.9c-0.2-0.2-0.2-0.5,0-0.7l0,0c0.2-0.2,0.5-0.2,0.7,0l0.6,0.5L42.9,76.7z"
						/>
				</g>
				<polygon id="XMLID_79_" class="st1" points="43.7,72.4 43.8,72.3 47,75.1 46.9,75.2 44.2,80.7 42.1,80.7 				"/>
			</g>
			<path class="st1" d="M39.1,65.8c0.6-0.7,2.8,0,4.7,1.7l5,4.3c2.8,2.5,5.1,4.9,6.4,6.5l3.5-1.2l0.6,0.5l-3.2,2.2
				c0.1,0.3,0.2,0.6,0,0.7c-0.1,0.1-0.4,0.2-0.7,0.1l-1.7,3.5l-0.6-0.5l0.7-3.7c-1.8-1-4.5-3-7.4-5.4l-5-4.3
				C39.5,68.5,38.4,66.5,39.1,65.8z"/>
			<g id="XMLID_52_">
				<path class="st2" d="M42,67.1c-0.4,0-0.7,0.1-1,0.4c-0.3,0.4-0.3,0.9-0.1,1.6c0-0.5,0.2-0.9,0.5-1.2c0.3-0.3,0.7-0.6,1.1-0.7
					C42.4,67.1,42.2,67.1,42,67.1L42,67.1z"/>
			</g>
		</g>
		<g>
			<path class="st0" d="M95.2,98.7v-2.8H68.1c-0.5,2-2.3,3.5-4.4,3.5h-1.5c-0.2,0-0.4,0-0.6-0.1c0.3,0.1,0.5,0.1,0.8,0.1h33.3
				C95.4,99.3,95.2,99,95.2,98.7z"/>
			<rect id="XMLID_50_" x="78" y="95.9" class="st0" width="10.2" height="1.8"/>
			<path class="st0" d="M68.1,95.9c0-0.2,0.1-0.3,0.1-0.5c0,0,0,0,0,0c0-0.2,0-0.3,0-0.5v-3c0-0.1,0-0.1,0-0.2c0.6,0.1,1,0.2,1,0.2
				c0.6,0.1,1.1-0.2,1.2-0.8c0.1-0.6-0.2-1.1-0.8-1.2c-0.1,0-2.4-0.5-6.2-0.5c0,0,0,0,0,0l0,0c-2.4,0-4.3,0.7-5.7,1.1
				C57,90.7,56.4,91,56.1,91c-0.4,0-1-0.2-1.7-0.5c-0.9-0.4-2.1-0.8-3.6-1c-1.9-0.3-4.1-0.1-5.7,0.1c-0.7,0.1-1.3,0.1-1.7,0.1
				c-0.6,0-1,0.5-1,1c0,0.6,0.5,1,1,1c0.3,0,0.8,0,1.2-0.1c0,0.1,0,0.2,0,0.3v3c0,2.5,2,4.5,4.5,4.5h1.5c2.5,0,4.5-2,4.5-4.5
				c0,0,0.2-1,1.3-1c1.1,0,1.3,1,1.3,1c0,2.5,2,4.5,4.5,4.5h1.5C65.8,99.4,67.6,97.9,68.1,95.9L68.1,95.9z"/>
			<path class="st0" d="M65.4,75.2v14.3c2.6,0.1,4.1,0.4,4.2,0.4c0.6,0.1,0.9,0.6,0.8,1.2c-0.1,0.6-0.6,0.9-1.2,0.8
				c0,0-0.4-0.1-1-0.2c0,0.1,0,0.1,0,0.2v2h27v-9.5c0-0.5,0.4-0.8,0.8-0.8h4.8v-8.4H65.4z"/>
		</g>
		<g>
			<g>
				<path class="st1" d="M99.3,83.4h-2.1c-0.4,0-0.8-0.4-0.8-0.8v-0.1c0-0.4,0.4-0.8,0.8-0.8h2.1c0.4,0,0.8,0.4,0.8,0.8v0.1
					C100,83.1,99.7,83.4,99.3,83.4z"/>
				<path class="st1" d="M111.7,83.5V83c0-0.2,0.1-0.3,0.3-0.3h2c0.2,0,0.3,0.1,0.3,0.3v0.5"/>
				<path class="st1" d="M115.7,83.5V83c0-0.2,0.1-0.3,0.3-0.3h1.6c0.2,0,0.3,0.1,0.3,0.3v0.5"/>
			</g>
			<path class="st1" d="M117.4,99.4H96.8c-0.9,0-1.6-0.7-1.6-1.6V85.2c0-0.9,0.7-1.6,1.6-1.6h20.5c0.9,0,1.6,0.7,1.6,1.6v12.6
				C119,98.7,118.3,99.4,117.4,99.4z"/>
			<g>
				<path class="st1" d="M119,87.3h-7.7c1.1,1.1,1.8,2.5,1.8,4.2c0,1.8-0.8,3.4-2.1,4.5h8V87.3z"/>
				<path class="st1" d="M101.3,91.4c0-1.6,0.7-3.1,1.8-4.2h-7.9v8.6h8.2C102.1,94.8,101.3,93.2,101.3,91.4z"/>
				<path class="st1" d="M111.3,87.3c-1.1-1-2.5-1.6-4.1-1.6c-1.6,0-3,0.6-4.1,1.6"/>
				<path class="st1" d="M103.4,95.9c1,0.9,2.3,1.4,3.8,1.4c1.4,0,2.8-0.5,3.8-1.4"/>
				<path class="st1" d="M111,95.9c1.3-1.1,2.1-2.7,2.1-4.5c0-1.6-0.7-3.1-1.8-4.2"/>
				<path class="st1" d="M103.1,87.3c-1.1,1.1-1.8,2.5-1.8,4.2c0,1.8,0.8,3.4,2.1,4.5"/>
			</g>
			<ellipse class="st1" cx="107.2" cy="91.4" rx="5.9" ry="5.8"/>
			<ellipse class="st1" cx="107.2" cy="91.4" rx="4.8" ry="4.8"/>
			<g>
				<path class="st1" d="M109,90.9c-0.8,0-1.4-0.6-1.4-1.4c0-0.4,0.2-0.7,0.4-1c-0.2-0.1-0.5-0.1-0.8-0.1c-1.7,0-3,1.3-3,3
					c0,1.7,1.4,3,3,3c1.7,0,3-1.3,3-3c0-0.3-0.1-0.7-0.2-1C109.8,90.8,109.4,90.9,109,90.9z"/>
				<path class="st1" d="M110,90.5c0.2-0.3,0.4-0.6,0.4-0.9c0-0.8-0.6-1.4-1.4-1.4c-0.4,0-0.8,0.2-1,0.4"/>
				<path class="st1" d="M107.9,88.5c-0.2,0.3-0.4,0.6-0.4,1c0,0.8,0.6,1.4,1.4,1.4c0.4,0,0.8-0.2,1.1-0.5"/>
			</g>
		</g>
		<g>
			<g>
				<g>
					<path class="st1" d="M5.8,66.7v-4c0-1.9,1.5-3.4,3.4-3.4h4.6c1.9,0,3.4,1.5,3.4,3.4v4 M15.2,66.7v-4c0-0.8-0.6-1.4-1.4-1.4H9.2
						c-0.8,0-1.4,0.6-1.4,1.4v4"/>
				</g>
				<g>
					<path class="st1" d="M8.9,97.2c0,0.1,0,0.3,0,0.4c0,1.1-0.7,1.9-1.7,1.9c-1.8,0-2.1-0.9-2.1-1.9c0-0.2,0-0.3,0.1-0.5"/>
					<path class="st1" d="M18.2,97.1c0,0.1,0.1,0.3,0.1,0.5c0,1.1-0.3,1.9-1.9,1.9c-1.1,0-1.9-0.9-1.9-1.9c0-0.2,0-0.3,0.1-0.5"/>
				</g>
				<path class="st1" d="M11.9,90.4h-0.9c-3.7,0-6.8-3-6.8-6.8v-4.9c0-3.7,3-6.8,6.8-6.8h0.9c3.7,0,6.8,3,6.8,6.8v4.9
					C18.7,87.3,15.7,90.4,11.9,90.4z"/>
				<path class="st1" d="M20.5,83.7c0-1.1,0.6-2.1,1.5-2.6V70.6c0-2.1-1.7-3.8-3.8-3.8H4.8c-2.1,0-3.8,1.7-3.8,3.8v22.8
					c0,2.1,1.7,3.8,3.8,3.8h13.4c0.9,0,1.7-0.3,2.3-0.8V83.7z"/>
			</g>
			<line class="st0" x1="4.3" y1="76" x2="18.7" y2="76"/>
			<line class="st0" x1="1.1" y1="93.8" x2="20.5" y2="93.8"/>
		</g>
		<g>
			<path class="st0" d="M44.6,94.9v-3c0-0.1,0-0.2,0-0.3c-0.5,0-0.9,0.1-1.2,0.1c-0.6,0-1-0.5-1-1c0-0.6,0.5-1,1-1
				c0.4,0,1-0.1,1.7-0.1c1-0.1,2.2-0.2,3.5-0.2v-5.6c0-1.7-1.4-3-3-3H23.6c-1.7,0-3,1.4-3,3v12.7c0,1.7,1.4,3,3,3h21.9
				c0.6,0,1.2-0.2,1.7-0.5C45.6,98.2,44.6,96.7,44.6,94.9z"/>
			<path class="st0" d="M44.6,94.9v-3c0-0.1,0-0.2,0-0.3c-0.5,0-0.9,0.1-1.2,0.1c-0.6,0-1-0.5-1-1c0-0.6,0.5-1,1-1
				c0.3,0,0.8,0,1.4-0.1V82H24.3v16.2h20.5v-2C44.6,95.8,44.6,95.3,44.6,94.9z"/>
			<circle id="XMLID_49_" class="st0" cx="22.6" cy="90.1" r="0.9"/>
			<path class="st0" d="M46.9,89.4c-0.1-0.1-0.2-0.2-0.4-0.2c-0.2,0-0.3,0.1-0.4,0.2C46.4,89.4,46.7,89.4,46.9,89.4z"/>
			<g id="XMLID_45_">
				<line id="XMLID_48_" class="st0" x1="37.8" y1="88.9" x2="35.5" y2="91.2"/>
				<line id="XMLID_47_" class="st0" x1="33.5" y1="88.9" x2="31.2" y2="91.2"/>
				<line id="XMLID_46_" class="st0" x1="36.6" y1="88" x2="32.5" y2="92.1"/>
			</g>
		</g>
		<g>
			<path class="st0" d="M69.6,89.9c-0.1,0-2.4-0.5-6.2-0.5c-2.5,0-4.3,0.6-5.7,1.1C57,90.7,56.4,91,56.1,91c-0.4,0-1-0.2-1.7-0.5
				c-0.9-0.4-2.1-0.8-3.6-1c-1.9-0.3-4.1-0.1-5.7,0.1c-0.7,0.1-1.3,0.1-1.7,0.1c-0.6,0-1,0.5-1,1c0,0.6,0.5,1,1,1
				c0.3,0,0.8,0,1.2-0.1c0,0.1,0,0.2,0,0.3v3c0,2.5,2,4.5,4.5,4.5h1.5c2.5,0,4.5-2,4.5-4.5c0,0,0.2-1,1.3-1c1.1,0,1.3,1,1.3,1
				c0,2.5,2,4.5,4.5,4.5h1.5c2.5,0,4.5-2,4.5-4.5v-3c0-0.1,0-0.1,0-0.2c0.6,0.1,1,0.2,1,0.2c0.6,0.1,1.1-0.2,1.2-0.8
				C70.5,90.5,70.1,90,69.6,89.9z"/>
			<path class="st1" d="M50.4,98.1h-1.2c-1.9,0-3.5-1.6-3.5-3.5v-2.3c0-1.9,1.6-1.5,3.5-1.5h1.2c1.9,0,3.5,1.6,3.5,3.5v0.3
				C54,96.5,52.4,98.1,50.4,98.1z"/>
			<path class="st1" d="M62.3,98.1h1.2c1.9,0,3.5-1.6,3.5-3.5v-2.3c0-1.9-1.6-1.5-3.5-1.5h-1.2c-1.9,0-3.5,1.6-3.5,3.5v0.3
				C58.8,96.5,60.3,98.1,62.3,98.1z"/>
			<g>
				<line class="st0" x1="46.6" y1="96.8" x2="52.2" y2="91.2"/>
				<path class="st0" d="M51.3,94.3c0.7-0.7,1.3-1.3,2-2"/>
				<path class="st0" d="M47.9,97.7c0.6-0.7,1.3-1.3,1.9-2"/>
			</g>
			<g>
				<line class="st0" x1="59.5" y1="96.6" x2="65.1" y2="90.9"/>
				<path class="st0" d="M64.2,94c0.7-0.7,1.3-1.3,2-2"/>
				<path class="st0" d="M60.7,97.6c0.7-0.7,1.4-1.4,2.1-2.1"/>
			</g>
		</g>
		<g>
			<path class="st3" d="M93.5,16.1c-2.7-0.3-6.8,6-5.1,9c-3.5-0.2-13.6,3.6-16,8.8c-1.4-1.5-7.2-1.1-13,0.5
				c-5.8,1.9-10.8,4.8-11.1,6.8c-4.9-3-15.4-0.6-18.2,1.5c-0.3-3.4-7.1-6.4-9.2-4.7"/>
			<g>
				<g>
					<g>
						<g>
							<path class="st2" d="M60.8,17.5c0.1,0,0.8,0.8,2,2.2c1.2,1.4,2.7,3.4,4.3,5.7c1.6,2.2,3.1,4.3,4,5.9c1,1.5,1.4,2.6,1.3,2.7
								c0,0-0.1-0.2-0.4-0.7c-0.3-0.4-0.7-1-1.2-1.8c-1-1.5-2.5-3.5-4.1-5.8c-1.6-2.2-3.1-4.3-4.2-5.7
								C61.4,18.4,60.7,17.5,60.8,17.5z"/>
						</g>
					</g>
				</g>
				<g>
					<g>
						<g>
							<path class="st2" d="M76.2,14.1c0-0.1,0.8,0.4,2,1.3c1.2,0.9,2.8,2.1,4.4,3.6c1.7,1.5,3.1,3,4.1,4c1,1.1,1.6,1.8,1.5,1.8
								c-0.1,0.1-0.7-0.6-1.8-1.6c-1.1-1-2.5-2.4-4.2-3.9c-1.6-1.5-3.2-2.8-4.3-3.7C76.8,14.7,76.1,14.1,76.2,14.1z"/>
						</g>
					</g>
				</g>
				<path class="st0" d="M72.5,33.8c0.2,0.6,0.5,1.1,0.5,1.1"/>
				<path class="st0" d="M88.3,24.9c0,0,0.8,0.8,0.8,0.8"/>
			</g>
			<g>
				<g>
					<g>
						<path class="st2" d="M48.7,21.2c0.1,0,0,1.1-0.1,2.9c-0.1,1.8-0.2,4.3-0.3,7.1c-0.1,2.8-0.2,5.2-0.2,7.1c0,0.9,0,1.6,0,2.1
							c0,0.5,0.1,0.8,0,0.8c-0.1,0-0.4-1.1-0.4-2.9c-0.1-1.8-0.1-4.3,0-7.1c0.1-2.8,0.3-5.3,0.5-7.1C48.5,22.3,48.7,21.2,48.7,21.2z
							"/>
					</g>
				</g>
			</g>
			<g>
				<g>
					<g>
						<path class="st2" d="M34.2,26.7c0.1,0-0.2,0.9-0.6,2.3c-0.4,1.4-1,3.3-1.5,5.5c-0.5,2.2-1,4.1-1.3,5.6
							c-0.3,1.4-0.5,2.3-0.6,2.3c-0.1,0,0-0.9,0.2-2.4c0.2-1.5,0.6-3.4,1.2-5.6c0.5-2.2,1.2-4.1,1.7-5.5
							C33.7,27.5,34.1,26.7,34.2,26.7z"/>
					</g>
				</g>
			</g>
			<path class="st0" d="M48.1,41.1c0.1,0.6,0.2,1.2,0.2,1.2"/>
			<path class="st0" d="M30,42.4c0,0-0.3,1.1-0.3,1.1"/>
			<path class="st0" d="M54.7,19.4C57.8,29.6,65.1,53.3,65.3,54"/>
			<path class="st0" d="M49.3,0.7c0,0,0.5,1.6,1.4,4.7"/>
			<path class="st4" d="M65.3,54c1.4,4.7,2.3,7.7,3,10c1.2,4.1,7.7,2.3,6.3-2.1"/>
			<g>
				<g>
					<path class="st3" d="M42.2,9.8c1-1.9,1.4-2.8,5.1-3.1c1.5-0.1,5.6-1.4,6.9-2.1c3.2-1.7,4.1-1.2,6-0.2
						C62.5,5.9,71.9-1.9,94,16.3c-4.5-1.7-19.2-4.2-21.9-0.4c-2.6-0.3-10.1,1-17.3,3.2c-7.2,2.2-14.2,5.3-16.2,6.9
						c-4.4-1.7-15.2,8.5-18,12.4C28.9,11,41,12.3,42.2,9.8z"/>
					<g>
						<g>
							<g>
								<path class="st2" d="M72.1,16c0,0-0.8-0.6-2-1.8c-1.1-1.2-2.7-2.9-4.4-4.7c-1.8-1.8-3.4-3.4-4.8-4.3c-1.3-1-2.3-1.4-2.2-1.4
									c0,0,0.3,0,0.7,0.2c0.4,0.2,1,0.5,1.7,0.9c1.4,0.9,3.2,2.4,4.9,4.2c1.8,1.8,3.2,3.6,4.3,4.8C71.5,15.2,72.1,15.9,72.1,16z"
									/>
							</g>
						</g>
					</g>
					<line class="st0" x1="93.8" y1="16.2" x2="94.9" y2="16.8"/>
					<path class="st0" d="M72.1,16c0.4,0.4,1.1,1,1.1,1"/>
				</g>
			</g>
			<g>
				<g>
					<g>
						<g>
							<g>
								<path class="st2" d="M38.6,26.1c-0.1,0,0.1-1,0.3-2.7c0.2-1.6,0.5-3.9,0.9-6.4c0.5-2.5,1.1-4.7,1.8-6.3
									c0.3-0.8,0.7-1.4,0.9-1.7C42.8,8.6,43,8.4,43,8.4c0.1,0.1-0.5,0.9-1.1,2.4c-0.6,1.5-1.1,3.7-1.6,6.2
									c-0.4,2.5-0.8,4.7-1.1,6.4C39,25.1,38.7,26.1,38.6,26.1z"/>
							</g>
						</g>
					</g>
					<line class="st0" x1="20.6" y1="38.2" x2="20.1" y2="39.3"/>
					<path class="st0" d="M38.7,26.1c-0.1,0.6-0.3,1.5-0.3,1.5"/>
				</g>
			</g>
		</g>
	</g>
	<line class="st0" x1="99.3" y1="28.3" x2="107.5" y2="33.9"/>
	<line class="st0" x1="85.6" y1="36.7" x2="106.8" y2="57.9"/>
	<line class="st0" x1="77.1" y1="43.6" x2="80.7" y2="51"/>
	<line class="st0" x1="22.6" y1="46.2" x2="18.7" y2="54"/>
	<line class="st0" x1="50.5" y1="50.1" x2="50.5" y2="54.7"/>
	<line class="st0" x1="34.2" y1="49.1" x2="30.1" y2="68.3"/>
</g>
</svg>
