<?xml version="1.0" encoding="utf-8"?>
<!-- Generator: Adobe Illustrator 22.1.0, SVG Export Plug-In . SVG Version: 6.00 Build 0)  -->
<svg version="1.1" id="Livello_1" xmlns="http://www.w3.org/2000/svg" xmlns:xlink="http://www.w3.org/1999/xlink" x="0px" y="0px"
	 viewBox="0 0 200 100" style="enable-background:new 0 0 200 100;" xml:space="preserve">
<style type="text/css">
	.st0{fill:none;stroke:#218AE5;stroke-width:1.5;stroke-miterlimit:10;}
</style>
<g>
	<g>
		<g>
			<path class="st0" d="M119.6,91.9V80.8l-117.5,0v5.3c0,3.4,2.8,6.2,6.2,6.2l112.6,0.1C120.8,92.4,119.6,92.1,119.6,91.9z"/>
			<rect id="XMLID_8_" x="64" y="80.9" class="st0" width="33.2" height="5.8"/>
			<path class="st0" d="M119.6,74.3H23V13.6h115v26.9h6.6V11.4c0-2.4-2-4.4-4.4-4.4H20.8c-2.4,0-4.4,2-4.4,4.4v69.5h103.1V74.3z"/>
		</g>
	</g>
	<g>
		<g>
			<g>
				<path class="st0" d="M133.8,40.5h-8.6c-0.9,0-1.7-0.8-1.7-1.7v-1.9c0-0.9,0.8-1.7,1.7-1.7h8.5c0.9,0,1.7,0.8,1.7,1.7v1.9
					C135.5,39.8,134.7,40.5,133.8,40.5z"/>
				<path class="st0" d="M182,40.8v-2.5c0-0.1-0.1-0.3-0.3-0.3h-8c-0.1,0-0.3,0.1-0.3,0.3v2.5H182z"/>
				<path class="st0" d="M193.5,40.8v-2.5c0-0.1-0.1-0.3-0.3-0.3h-6.8c-0.1,0-0.3,0.1-0.3,0.3v2.5H193.5z"/>
			</g>
			<g>
				<path class="st0" d="M194.3,92.6h-71.8c-1.5,0-2.7-1.2-2.7-2.7V43.6c0-1.5,1.2-2.7,2.7-2.7h71.8c1.5,0,2.7,1.2,2.7,2.7v46.3
					C197,91.4,195.8,92.6,194.3,92.6z"/>
			</g>
			<g>
				<path class="st0" d="M139.6,66.7c0-5.4,2.2-10.2,5.8-13.7h-25.6v28.2h26.5C142.2,77.7,139.6,72.5,139.6,66.7z"/>
				<path class="st0" d="M171.9,53c3.6,3.5,5.8,8.3,5.8,13.7c0,5.8-2.6,11.1-6.8,14.6H197V53H171.9z"/>
			</g>
			
				<ellipse transform="matrix(0.9239 -0.3827 0.3827 0.9239 -13.4458 65.775)" class="st0" cx="158.6" cy="66.7" rx="19.1" ry="19.1"/>
			<g>
				<circle class="st0" cx="158.6" cy="66.7" r="15.7"/>
			</g>
			<path class="st0" d="M164.4,65c-2.6,0-4.6-2.1-4.6-4.6c0-1.2,0.5-2.4,1.3-3.2c-0.8-0.2-1.6-0.3-2.5-0.3c-5.4,0-9.8,4.4-9.8,9.8
				c0,5.4,4.4,9.8,9.8,9.8c5.4,0,9.8-4.4,9.8-9.8c0-1.1-0.2-2.2-0.5-3.2C167,64.4,165.8,65,164.4,65z"/>
			<g>
				<path class="st0" d="M169,60.4c0,2.6-2.1,4.6-4.6,4.6c-2.6,0-4.6-2.1-4.6-4.6c0-2.6,2.1-4.6,4.6-4.6C167,55.8,169,57.9,169,60.4
					z"/>
			</g>
		</g>
	</g>
</g>
</svg>
