<svg xmlns="http://www.w3.org/2000/svg" viewBox="0 0 94.44 105.13"><defs><style>.cls-1{isolation:isolate;}.cls-2,.cls-3{fill:none;stroke:#218ae5;stroke-miterlimit:10;}.cls-3{mix-blend-mode:multiply;}</style></defs><title>Risorsa 5</title><g class="cls-1"><g id="Livello_2" data-name="Livello 2"><g id="Livello_1-2" data-name="Livello 1"><rect class="cls-2" x="40" y="50.74" width="71.41" height="36.29" rx="5.53" ry="5.53" transform="translate(6.61 144.4) rotate(-89.84)"/><path class="cls-3" d="M71,37.43l9.51,0A.49.49,0,0,1,81,38a.48.48,0,0,1-.49.48L71,38.4a.47.47,0,0,1-.48-.48A.49.49,0,0,1,71,37.43Z"/><path class="cls-2" d="M75.62,100.51a3.2,3.2,0,1,1,3.21-3.19A3.19,3.19,0,0,1,75.62,100.51Z"/><rect class="cls-2" x="52.43" y="51.61" width="46.57" height="31.44" transform="translate(8.17 142.85) rotate(-89.84)"/><path class="cls-2" d="M75.63,95.09a2.22,2.22,0,1,0,2.22,2.23A2.22,2.22,0,0,0,75.63,95.09Z"/><polygon class="cls-2" points="91.37 90.66 82.05 90.64 69.64 44.03 91.5 44.09 91.37 90.66"/><line class="cls-2" x1="74.1" y1="73.06" x2="78.85" y2="90.68"/><path class="cls-2" d="M57.48,99l.17-60.35a5.54,5.54,0,0,1,5.55-5.52h3.87l.07-27.38A5.09,5.09,0,0,0,62.07.66L5.88.5A5.09,5.09,0,0,0,.77,5.58L.5,99a5.1,5.1,0,0,0,5.08,5.11l55.57.16A5.54,5.54,0,0,1,57.48,99Z"/><path class="cls-2" d="M57.65,38.66a5.53,5.53,0,0,1,4.9-5.48l.07-22.63L5.26,10.38,5,92.88,57.5,93Z"/><path class="cls-3" d="M29.2,5.14l9.51,0a.48.48,0,0,1,.48.48.49.49,0,0,1-.48.49l-9.51,0a.49.49,0,0,1,0-1Z"/><path class="cls-2" d="M37.73,99.11c0,.76-.47,1.37-1,1.37l-6,0c-.56,0-1-.61-1-1.37v-1a1.24,1.24,0,0,1,1-1.36l6,0c.56,0,1,.61,1,1.36Z"/><polygon class="cls-2" points="5.11 92.7 5.35 10.36 27.21 10.43 44.29 92.82 5.11 92.7"/><line class="cls-2" x1="33.06" y1="59.6" x2="39.9" y2="92.7"/></g></g></g></svg>