<?xml version="1.0" encoding="utf-8"?>
<!-- Generator: Adobe Illustrator 22.1.0, SVG Export Plug-In . SVG Version: 6.00 Build 0)  -->
<svg version="1.1" id="Livello_1" xmlns="http://www.w3.org/2000/svg" xmlns:xlink="http://www.w3.org/1999/xlink" x="0px" y="0px"
	 viewBox="0 0 100 100" style="enable-background:new 0 0 100 100;" xml:space="preserve">
<style type="text/css">
	.st0{fill:none;stroke:#0C5494;stroke-width:1.5;stroke-miterlimit:10;}
</style>
<g>
	<g>
		<path class="st0" d="M88.7,32.3l-23.6-0.1c-2.9,0-5.2,2.3-5.2,5.2l-0.2,56.4c0,2.9,2.3,5.2,5.2,5.2h23.7c2.9,0,5.2-2.3,5.2-5.2
			L94,37.4C93.9,34.6,91.6,32.3,88.7,32.3z"/>
		<path class="st0" d="M72.5,36.2h8.9c0.2,0,0.5,0.2,0.5,0.5s-0.2,0.5-0.5,0.5h-8.9c-0.3,0-0.4-0.2-0.4-0.5
			C72,36.4,72.3,36.2,72.5,36.2z"/>
		<path class="st0" d="M76.8,95.2c-1.7,0-3-1.4-3-3c0-1.7,1.3-3,3-3s3,1.3,3,3C79.8,93.8,78.4,95.2,76.8,95.2z"/>
		
			<rect x="55.1" y="49.4" transform="matrix(2.860209e-03 -1 1 2.860209e-03 12.4675 140.8007)" class="st0" width="43.5" height="29.4"/>
		<path class="st0" d="M76.8,90.1c-1.1,0-2.1,0.9-2.1,2.1c0,1.1,0.9,2.1,2.1,2.1c1.1,0,2.1-0.9,2.1-2.1S77.9,90.1,76.8,90.1z"/>
		<polygon class="st0" points="91.5,85.9 82.8,85.9 71.2,42.4 91.6,42.4 		"/>
		<line class="st0" x1="75.4" y1="69.5" x2="79.8" y2="86"/>
	</g>
	<g>
		<path class="st0" d="M59.8,93.7L60,37.3c0-2.9,2.3-5.2,5.2-5.2h3.6l0.1-25.6c0-2.6-2.1-4.8-4.7-4.8H11.6C9,1.7,6.8,3.8,6.8,6.4
			L6.6,93.7c0,2.6,2.1,4.8,4.8,4.8l51.9,0.1C61.2,97.9,59.8,96,59.8,93.7z"/>
		<path class="st0" d="M60,37.3c0-2.6,2-4.8,4.6-5.1L64.7,11L11,10.9L10.8,88l49,0.1L60,37.3z"/>
		<path class="st0" d="M33.4,6h8.9c0.2,0,0.5,0.2,0.5,0.5S42.6,7,42.3,7h-8.9C33.1,7,33,6.8,33,6.5C32.9,6.2,33.1,6,33.4,6z"/>
		<path class="st0" d="M41.4,93.8c0,0.7-0.4,1.3-1,1.3h-5.6c-0.5,0-1-0.6-1-1.3v-0.9c0-0.7,0.4-1.3,1-1.3h5.6c0.5,0,1,0.6,1,1.3
			V93.8z"/>
		<polygon class="st0" points="10.9,87.9 11.1,10.9 31.5,11 47.5,88 		"/>
		<line class="st0" x1="37" y1="56.9" x2="43.4" y2="87.9"/>
	</g>
</g>
</svg>
