<svg xmlns="http://www.w3.org/2000/svg" width="60" height="48" viewBox="0 0 60 48">
    <path fill="#4A90E2" fill-rule="nonzero" d="M59.608 5.75c-.662-1.105-2.055-1.642-4.26-1.642-.275 0-.567.008-.872.024-.665-1.26-2.681-3.695-8.423-4.127L45.983 0l-.071.006c-.136.01-3.085.305-5.478 5.035a3.377 3.377 0 0 0-.596 1.308c-.032.078-.065.153-.096.233-2.11 5.303-5.039 8.085-14.632 7.862-1.37-.032-2.923-.067-4.294-.067-4.866 0-8.942.326-11.224 3.476-1.361-.565-4.514-2.289-4.41-6.119.067-2.477 1.62-3.602 3.05-3.828 1.29-.203 2.84.28 3.308 1.6.741 2.09 2.188 2.515 3.2 2.243 1.28-.343 2.081-1.702 1.823-3.094-.269-1.453-1.662-3.543-3.805-4.724-1.483-.817-3.915-1.526-7.08-.26-2.427.972-4.17 2.602-5.04 4.715-.928 2.255-.84 5.08.237 7.561.775 1.79 3.62 5.377 7.014 6.42-.012.075-.026.147-.038.224-.42 2.827-.388 5.013-.362 6.77.045 3.081.068 4.625-2.145 6.54l-.235.198-.062.295c-.148.733-1.393 7.209.725 9.752l.274.29H19.858l-.014-.887c-.029-2.106-.619-3.447-1.751-4.061-1.084-.589-2.292-.27-3.035.044-.139-.196-.237-.41-.226-.625.022-.415.427-.797.583-.91 5.003-3.566 6.284-7.233 6.605-9.084 2.785.76 6.64 1.578 10.33 1.578 1.572 0 3-.145 4.263-.446l-.13 7.578c-.011.535-.05 5.316 1.948 7.356.616.628 1.386 1.021 2.23 1.021h11.263v-1.033c0-2.193-.588-3.7-1.804-4.478-1.123-.719-2.422-.588-3.297-.372-1.917-6.488 2.314-16.687 2.36-16.793l-.072-.03c.81-2.328 1.386-5.606.957-9.991 2.137-.251 7.01-1.115 8.487-3.874 1.017-1.9 2.02-4.063 1.053-5.68zM49.172 44.09c.592.381.844 1.043.939 2.086h-2.943c.018-.609-.032-1.398-.295-2.145.558-.19 1.606-.389 2.299.058zM45.537 1.996c1.258 2.39 2.542 5.862 1.78 6.916-.32.442-1.197.37-1.876.232-3.036-.618-3.667-1.53-3.797-1.894a.9.9 0 0 1-.045-.39c1.43-3.368 3.108-4.496 3.938-4.864zM2.547 15.223c-.884-2.037-.967-4.333-.223-6.142.687-1.67 2.044-2.92 4.031-3.715 2.009-.804 3.867-.75 5.522.164 1.73.953 2.733 2.596 2.892 3.459.1.538-.228.927-.502 1-.346.093-.74-.335-1.01-1.09-.706-1.994-2.94-3.168-5.311-2.793-2.056.325-4.49 1.982-4.588 5.58-.118 4.322 3.016 6.784 5.33 7.78-.148.35-.282.721-.4 1.118-2.789-.922-5.194-4.1-5.741-5.361zm11.818 23.283c-.13.09-1.27.92-1.352 2.283-.055.906.362 1.76 1.238 2.543l.513.453.581-.377c.244-.154 1.277-.681 1.879-.355.372.202.624.777.735 1.56h-4.456c-.02-.845-.186-1.995-.86-2.762-.493-.56-1.175-.835-1.975-.787-.037-.59.203-1.611 1.762-2.837 2.799-2.2 5.685-4.465 6.597-8.221.34.114.756.25 1.234.397-.18 1.345-1.115 4.696-5.896 8.103zM44.907 42a3.882 3.882 0 0 0-1.289-.206c-.312 0-.645.03-.997.091.299-2.842 1.119-7.694 2.764-10.563-.77 3.31-1.276 7.305-.478 10.678zm.283-13.423c-3.778 3.697-4.47 14.023-4.498 14.46l-.085 1.36 1.283-.414c1.453-.486 2.479-.42 2.973.173.41.494.497 1.237.48 2.02H40.66c-.356 0-.65-.19-.925-.472-1.245-1.268-1.454-4.832-1.43-6.077l.174-10.11-1.235.433c-1.346.47-2.992.71-4.895.71-6.404 0-13.632-2.698-13.704-2.726l-1.078-.407-.147 1.143c-.444 3.43-2.71 5.441-6.118 8.119-3.044 2.392-2.654 4.847-2.023 5.812l.378.575.658-.211c.2-.063.379-.104.528-.104.243 0 .349.064.429.154.28.317.394 1.074.409 1.596H6.953c-.871-1.564-.605-5.273-.176-7.578 2.612-2.39 2.58-4.607 2.534-7.696-.025-1.691-.055-3.796.343-6.476.85-5.735 3.987-6.66 11.16-6.66 1.254 0 2.553.027 4.252.066 5.974.138 9.655-.853 12.153-2.794 1.394 1.361 4.978 4.223 10.46 4.223.229 0 .463-.009.699-.018.143 7.632-3.136 10.85-3.188 10.899zM56.946 10.57c-1.125 2.104-6.119 2.882-7.949 3.004l-.964.065.12.961c.055.432.095.848.13 1.256a13.218 13.218 0 0 1-9.73-3.628c.836-.928 1.517-2.006 2.112-3.221.853.862 2.31 1.497 4.412 1.925.462.093.89.14 1.283.14 1.094 0 1.91-.364 2.434-1.09 1.376-1.904-.106-5.712-1.195-7.954 4.682.806 5.377 3.17 5.404 3.265l.178.773.79-.069c2.225-.195 3.696.063 4.072.69.519.864-.613 2.98-1.097 3.883z"/>
</svg>
