<svg xmlns="http://www.w3.org/2000/svg" viewBox="0 0 133.44 129.82"><defs><style>.cls-1,.cls-2{fill:none;stroke:#4a90e2;stroke-miterlimit:10;}.cls-2{stroke-linecap:round;}</style></defs><title>dogprint</title><g id="Livello_2" data-name="Livello 2"><g id="Menù"><path class="cls-1" d="M114.13,109.2a25.12,25.12,0,0,1-11.74,2.47l-.19,0a17.71,17.71,0,0,0-8.75,1.69A16.83,16.83,0,0,0,87,118.82l-.21.29c-1.55,2.2-3.5,4.93-9.31,7.73A25,25,0,0,1,46,90.14l.05-.07c.15-.21,3.89-5.51,1.72-16.1A25,25,0,0,1,61.51,46.8c9.9-4.77,21.85-2.31,29.73,6.11,7.66,8.17,15.63,9,15.71,9l.14,0a25,25,0,0,1,7,47.27"/><path class="cls-1" d="M25.72,96.84a17.59,17.59,0,1,1,8.22-23.48,17.61,17.61,0,0,1-8.22,23.48"/><path class="cls-1" d="M40,54a17.59,17.59,0,1,1,8.21-23.49A17.63,17.63,0,0,1,40,54"/><path class="cls-1" d="M123,49.8a17.59,17.59,0,1,1,8.22-23.49A17.61,17.61,0,0,1,123,49.8"/><path class="cls-1" d="M80.69,33.94a17.59,17.59,0,1,1,8.22-23.48,17.61,17.61,0,0,1-8.22,23.48"/><path class="cls-2" d="M94.32,63.64c4.76,3.44,7.14,1.85,15.07,5.29,4.69,2.18,7.92,7.66,7.92,7.66"/><path class="cls-2" d="M119.69,81.61c4,5,0,11.63,0,11.63"/></g></g></svg>