<svg xmlns="http://www.w3.org/2000/svg" viewBox="0 0 177.16 167.85"><defs><style>.cls-1,.cls-3{fill:none;}.cls-1,.cls-2,.cls-3{stroke:#4a90e2;stroke-miterlimit:10;}.cls-1{fill-rule:evenodd;}.cls-2{fill:#4a90e2;stroke-width:0.5px;}</style></defs><title>flyingslim</title><g id="Livello_2" data-name="Livello 2"><g id="Menù"><path class="cls-1" d="M86.44,80.62l25.22-18a10.94,10.94,0,0,1,15.21,2.54l47.77,67a10.94,10.94,0,0,1-2.54,15.22l-25.22,18a10.94,10.94,0,0,1-15.21-2.54L83.9,95.84A10.94,10.94,0,0,1,86.44,80.62Z"/><path class="cls-1" d="M86.54,91.27,121.7,66.18a.16.16,0,0,1,.22,0l49.61,69.54a.15.15,0,0,1,0,.21l-35.17,25.1a.16.16,0,0,1-.21,0L86.5,91.49A.16.16,0,0,1,86.54,91.27Z"/><path class="cls-1" d="M94,78.37l13-9.3a.79.79,0,0,1,1.1.19h0a.79.79,0,0,1-.18,1.1L95,79.65a.79.79,0,0,1-1.1-.18h0A.79.79,0,0,1,94,78.37Z"/><path class="cls-1" d="M155.07,150.13a2.67,2.67,0,1,1-.63,3.72A2.67,2.67,0,0,1,155.07,150.13Z"/><path class="cls-2" d="M63.92,48.31a.23.23,0,0,1-.18,0l-.09,0-.34-.11A11.28,11.28,0,0,0,50.17,53.6a.22.22,0,0,1-.12.11l-.12,0a.25.25,0,0,1-.33-.13l-.09-.2c0-.1-.09-.21-.14-.31a38.31,38.31,0,0,1,20.77-50,.26.26,0,0,1,.34.13.27.27,0,0,1-.14.34C58.55,8.48,54.54,26,61.4,42.58A44.51,44.51,0,0,0,64,48a.28.28,0,0,1,0,.29A.3.3,0,0,1,63.92,48.31Zm-8.33-.22a11.8,11.8,0,0,1,7.69-.46,44.35,44.35,0,0,1-2.35-4.86c-6-14.41-3.81-29.49,4.46-36.68A37.83,37.83,0,0,0,49.84,52.92l.06.13A11.86,11.86,0,0,1,55.59,48.09Z"/><path class="cls-2" d="M106.42,30.76a.17.17,0,0,1-.12,0,.26.26,0,0,1-.23-.19,44.29,44.29,0,0,0-1.91-5.66C97.3,8.31,82.13-1.25,70.34,3.62A.25.25,0,0,1,70,3.48a.24.24,0,0,1,.13-.33,38.3,38.3,0,0,1,50,20.77c0,.1.08.2.11.3l.09.22a.27.27,0,0,1-.14.33l-.13.05a.32.32,0,0,1-.17,0,11.28,11.28,0,0,0-13.14,5.42c-.06.11-.11.22-.16.33l0,.06A.25.25,0,0,1,106.42,30.76ZM75.59,1.88c10.93-.73,23.09,8.44,29,22.85a46.47,46.47,0,0,1,1.76,5.1,11.8,11.8,0,0,1,13.31-5.58.78.78,0,0,1,0-.14A37.83,37.83,0,0,0,75.59,1.88Z"/><path class="cls-2" d="M78.11,42.49l-.09,0a.25.25,0,0,1-.23-.12C64,19.19,69.94,3.44,70,3.29a.25.25,0,0,1,.33-.14c.16.06,15.5,7,22.06,33.2a.24.24,0,0,1,0,.2.26.26,0,0,1-.3.11l-.13,0-.34-.12a11.14,11.14,0,0,0-7.53.38,11.32,11.32,0,0,0-5.61,5c-.06.1-.11.21-.16.31l-.06.13A.25.25,0,0,1,78.11,42.49Zm5.76-6.08a11.82,11.82,0,0,1,7.87-.4l.06,0C85.7,12.27,72.37,4.74,70.39,3.73c-.7,2.11-4.82,16.87,7.6,38l0,0A11.85,11.85,0,0,1,83.87,36.41Z"/><path class="cls-2" d="M92.25,36.65l-.12,0a.27.27,0,0,1-.22-.2C85.4,10.53,70.29,3.68,70.14,3.61A.25.25,0,0,1,70,3.38a.24.24,0,0,1,.15-.23c12-5,27.53,4.71,34.49,21.58a47.08,47.08,0,0,1,1.94,5.73.28.28,0,0,1,0,.18.32.32,0,0,1-.34.18l-.14-.05-.33-.11A11.3,11.3,0,0,0,92.6,36.09a3.78,3.78,0,0,0-.17.35l0,.08A.29.29,0,0,1,92.25,36.65ZM98,30.57a11.88,11.88,0,0,1,7.87-.39l.08,0a46.74,46.74,0,0,0-1.81-5.27C97.4,8.55,82.58-1,70.86,3.41c2.73,1.46,15.42,9.35,21.38,32.29A11.84,11.84,0,0,1,98,30.57Z"/><path class="cls-2" d="M78.11,42.49a.23.23,0,0,1-.18,0l-.12,0-.35-.12a11.28,11.28,0,0,0-13.14,5.42c-.06.11-.11.21-.16.32l-.06.13a.26.26,0,0,1-.32.12.38.38,0,0,1-.18-.12,45.64,45.64,0,0,1-2.67-5.44C54,25.9,58.1,8.12,70.14,3.15a.26.26,0,0,1,.28.05.25.25,0,0,1,.06.27c-.06.16-5.92,15.67,7.71,38.6a.15.15,0,0,1,.06.09.24.24,0,0,1-.13.33ZM69.82,3.84C58.43,9,54.64,26.21,61.4,42.58a46.21,46.21,0,0,0,2.43,5l0-.07a11.78,11.78,0,0,1,13.58-5.71C65.49,21.35,68.92,6.8,69.82,3.84Z"/><path class="cls-2" d="M93.89,75.31,50,53.32a.26.26,0,0,0-.36.06.25.25,0,0,0,0,.35L93.43,75.64Z"/><path class="cls-2" d="M95.57,74.11,64,47.91a.25.25,0,0,0-.38.34L95.15,74.41Z"/><path class="cls-2" d="M97.2,73l.42-.3L78.23,42.13a.25.25,0,0,0-.44.25Z"/><path class="cls-2" d="M106.29,66.46l14-41.89a.26.26,0,0,0-.21-.29.27.27,0,0,0-.3.21L105.59,67Z"/><path class="cls-2" d="M102.92,68.86l3.66-38.34a.24.24,0,0,0-.26-.24.26.26,0,0,0-.25.26l-3.69,38.71Z"/><path class="cls-2" d="M100,70.93,92.41,36.35a.25.25,0,0,0-.49.13l7.66,34.77Z"/><path class="cls-3" d="M.21,117.43s32.63,15.3,83.65,10.79"/><path class="cls-3" d="M24.37,110.4a201.76,201.76,0,0,0,55,5.54"/><path class="cls-3" d="M42,142.39a205.26,205.26,0,0,0,44.74-.09"/></g></g></svg>