<svg width="96" height="24" viewBox="0 0 96 24" fill="none" xmlns="http://www.w3.org/2000/svg">
    <path d="M20.466 16.143a.75.75 0 0 0-.54.232.81.81 0 0 0-.225.562 5.591 5.591 0 0 1-1.546 3.868 5.182 5.182 0 0 1-3.725 1.605 5.168 5.168 0 0 1-3.485-1.37 5.549 5.549 0 0 1-1.744-3.42h.493a.752.752 0 0 0 .524-.241.81.81 0 0 0 .214-.552.81.81 0 0 0-.214-.552.752.752 0 0 0-.524-.241H6.987a.75.75 0 0 0-.54.232.81.81 0 0 0-.225.562c0 .21.08.412.224.561a.75.75 0 0 0 .54.233h.674C7.991 21.196 10.9 24 14.43 24c3.75 0 6.802-3.169 6.802-7.064a.82.82 0 0 0-.225-.562.764.764 0 0 0-.541-.232zm0-11.844a.74.74 0 0 0-.54.232.796.796 0 0 0-.225.562v1.009a5.55 5.55 0 0 0-1.837-1.334 5.37 5.37 0 0 0-2.195-.47 5.467 5.467 0 0 0-3.932 1.694 5.899 5.899 0 0 0-1.631 4.083c.001 1.532.588 3 1.631 4.084a5.467 5.467 0 0 0 3.932 1.693 5.468 5.468 0 0 0 3.932-1.694 5.898 5.898 0 0 0 1.63-4.083v-4.98a.812.812 0 0 0-.224-.563.753.753 0 0 0-.541-.233zm-4.797 9.965a3.963 3.963 0 0 1-2.85-1.227 4.276 4.276 0 0 1-1.184-2.96c.001-1.111.427-2.176 1.183-2.962a3.963 3.963 0 0 1 2.851-1.228 3.963 3.963 0 0 1 2.851 1.229 4.276 4.276 0 0 1 1.182 2.96 4.276 4.276 0 0 1-1.182 2.96 3.963 3.963 0 0 1-2.85 1.228zm15.25-9.002c-.742-.46-1.622-.69-2.644-.69-1.035 0-1.944.24-2.733.72a5.092 5.092 0 0 0-1.858 1.967c-.45.833-.675 1.796-.675 2.887 0 1.079.236 2.038.714 2.876a5.122 5.122 0 0 0 1.969 1.968c.835.471 1.793.708 2.881.708.622 0 1.268-.12 1.938-.36.67-.24 1.23-.547 1.68-.919a.638.638 0 0 0 .247-.53c-.006-.205-.102-.394-.289-.569a.766.766 0 0 0-.526-.17.863.863 0 0 0-.547.21c-.278.24-.653.44-1.122.6a4.296 4.296 0 0 1-1.38.24c-.783 0-1.475-.176-2.078-.53a3.771 3.771 0 0 1-1.304-1.24 3.95 3.95 0 0 1-.603-1.727h7.88a.774.774 0 0 0 .558-.21.716.716 0 0 0 .218-.549c0-1.038-.202-1.963-.606-2.775a4.627 4.627 0 0 0-1.72-1.907zm-4.611 1.339c.557-.354 1.213-.53 1.968-.53.715 0 1.328.166 1.84.5.51.335.92.812 1.182 1.378.203.433.333.9.382 1.379h-7.06c.07-.462.203-.887.398-1.279.29-.599.737-1.101 1.29-1.449zm16.265-1.458c-.735-.393-1.573-.589-2.513-.589a4.81 4.81 0 0 0-2.345.578 4.615 4.615 0 0 0-1.192.933v-.536c0-.266-.076-.476-.23-.63-.154-.153-.353-.23-.606-.23a.851.851 0 0 0-.617.232c-.16.152-.24.362-.24.628v9.23c0 .253.08.457.24.61.16.154.365.231.617.231.253 0 .453-.077.606-.23.151-.154.23-.356.23-.61V8.947c0-.546.145-1.029.436-1.448.29-.42.688-.749 1.192-.989a3.822 3.822 0 0 1 1.67-.36c.662 0 1.25.128 1.76.379.506.25.931.65 1.222 1.15.305.511.457 1.175.457 1.986v5.094c0 .24.08.44.238.6.16.16.364.24.616.24a.8.8 0 0 0 .595-.24.797.797 0 0 0 .238-.6V9.667c0-1.105-.213-2.037-.634-2.797a4.257 4.257 0 0 0-1.74-1.727zm12.096.12c-.742-.46-1.625-.69-2.644-.69-1.033 0-1.944.24-2.733.72a5.077 5.077 0 0 0-1.857 1.966c-.451.833-.676 1.796-.676 2.887 0 1.079.24 2.038.714 2.876a5.123 5.123 0 0 0 1.969 1.968c.835.471 1.795.708 2.882.708a5.71 5.71 0 0 0 1.937-.36c.67-.24 1.23-.547 1.68-.919a.646.646 0 0 0 .247-.53c-.006-.205-.102-.394-.288-.569a.766.766 0 0 0-.527-.17.864.864 0 0 0-.546.21c-.279.24-.654.44-1.123.6-.445.156-.911.237-1.38.24-.783 0-1.476-.176-2.078-.53a3.77 3.77 0 0 1-1.303-1.24 3.952 3.952 0 0 1-.603-1.727h7.878a.77.77 0 0 0 .556-.21.717.717 0 0 0 .22-.549c0-1.038-.203-1.963-.606-2.775a4.622 4.622 0 0 0-1.719-1.907zM50.056 6.6c.557-.354 1.212-.53 1.969-.53.715 0 1.327.166 1.839.5.51.334.92.812 1.182 1.378.204.433.333.9.382 1.379h-7.06c.07-.462.203-.887.397-1.279a3.56 3.56 0 0 1 1.29-1.449zM65.17 4.854c-.35-.2-.864-.3-1.54-.3a4.12 4.12 0 0 0-2.127.56 4.304 4.304 0 0 0-1.252 1.108v-.708c0-.266-.073-.473-.218-.619-.146-.148-.35-.22-.617-.22-.264 0-.471.072-.617.22-.145.147-.219.353-.219.618v9.249c0 .266.071.473.219.618.146.148.35.22.617.22.264 0 .47-.072.617-.219.145-.148.218-.353.218-.618V8.828c0-.612.178-1.137.537-1.578.358-.44.842-.755 1.45-.948.609-.194 1.299-.236 2.068-.13.21.013.4.02.565.02a.839.839 0 0 0 .436-.112c.124-.072.208-.21.248-.41.096-.345-.033-.619-.385-.816zm7.82 9.049h-.576a1.77 1.77 0 0 1-1.38-.609c-.365-.406-.547-.921-.547-1.548V6.531h2.067a.795.795 0 0 0 .557-.2.66.66 0 0 0 .219-.52.715.715 0 0 0-.22-.53.77.77 0 0 0-.556-.21h-2.066V2.057a.854.854 0 0 0-.238-.619.823.823 0 0 0-.595-.24c-.253 0-.455.08-.607.24a.854.854 0 0 0-.23.619v3.016h-1.171a.77.77 0 0 0-.557.21.695.695 0 0 0-.22.53c0 .213.072.388.22.52a.79.79 0 0 0 .557.2h1.172v5.213c0 .731.155 1.391.466 1.978.311.587.74 1.046 1.283 1.378.542.335 1.159.5 1.847.5h.397c.28 0 .507-.077.686-.23a.749.749 0 0 0 .204-.272.776.776 0 0 0 .065-.338.883.883 0 0 0-.219-.619.734.734 0 0 0-.557-.24zm9.5-8.64c-.742-.46-1.623-.69-2.644-.69-1.033 0-1.944.24-2.732.72a5.093 5.093 0 0 0-1.858 1.966c-.45.833-.676 1.796-.676 2.887 0 1.079.237 2.038.714 2.876a5.122 5.122 0 0 0 1.969 1.968c.836.471 1.794.708 2.882.708a5.71 5.71 0 0 0 1.938-.36c.669-.24 1.229-.547 1.68-.919a.638.638 0 0 0 .247-.53c-.007-.205-.103-.394-.29-.569a.766.766 0 0 0-.526-.17.864.864 0 0 0-.546.21c-.278.24-.653.44-1.123.6a4.285 4.285 0 0 1-1.38.24c-.782 0-1.476-.176-2.078-.53a3.77 3.77 0 0 1-1.303-1.24 3.952 3.952 0 0 1-.603-1.727h7.878a.774.774 0 0 0 .556-.21.738.738 0 0 0 .22-.548c0-1.04-.203-1.964-.606-2.776a4.608 4.608 0 0 0-1.718-1.907zM77.88 6.6c.557-.354 1.213-.53 1.969-.53.715 0 1.327.166 1.84.5.51.335.92.812 1.181 1.378.204.433.333.9.382 1.379h-7.06c.07-.462.204-.887.398-1.279.291-.598.738-1.1 1.29-1.449zm12.366 7.55a.676.676 0 0 0-.537-.23h-.496c-.331 0-.606-.172-.825-.518-.22-.347-.328-.791-.328-1.338V.838c0-.253-.075-.455-.229-.61C87.68.079 87.476 0 87.225 0c-.253 0-.455.077-.606.23-.154.153-.23.357-.23.608v11.227c0 .694.118 1.306.359 1.838.24.531.573.948 1.004 1.248.431.3.94.457 1.46.449h.177c.319 0 .575-.077.767-.23a.723.723 0 0 0 .217-.268.753.753 0 0 0 .071-.342c0-.251-.067-.452-.198-.61z" fill="#fff"/>
</svg>
