<svg width="50" height="50" viewBox="0 0 50 50" fill="none" xmlns="http://www.w3.org/2000/svg">
    <g clip-path="url(#a)">
        <path d="M49.366 14.16a9.18 9.18 0 0 0-17.75-3.31 11.803 11.803 0 0 0-13.162.16 9.185 9.185 0 0 0-17.82 3.15 10.3 10.3 0 0 0 3.132 7.394A8.861 8.861 0 0 1 5.934 29.8a13.735 13.735 0 0 0-.316 2.423 8.517 8.517 0 0 0 7.275 9.087 8.202 8.202 0 0 0 9.121-9.16c1.945.55 4.001.58 5.96.083a8.22 8.22 0 0 0 9.135 9.078 8.518 8.518 0 0 0 7.275-9.088 13.742 13.742 0 0 0-.317-2.423 8.86 8.86 0 0 1 2.169-8.246 10.297 10.297 0 0 0 3.13-7.394z" fill="#fff"/>
        <path d="M36.185 41.997a8.873 8.873 0 0 1-8.897-8.874v-.097a12.028 12.028 0 0 1-4.577-.057v.154a8.877 8.877 0 0 1-9.888 8.818 9.171 9.171 0 0 1-7.839-9.747c.034-.853.144-1.702.33-2.535a8.236 8.236 0 0 0-2.001-7.662A10.847 10.847 0 0 1 0 14.156 9.938 9.938 0 0 1 3.304 6.82a9.74 9.74 0 0 1 7.602-2.433 9.869 9.869 0 0 1 7.843 5.678 12.62 12.62 0 0 1 12.577-.137 9.898 9.898 0 0 1 7.768-5.541 9.72 9.72 0 0 1 7.605 2.433 9.939 9.939 0 0 1 3.3 7.336 10.837 10.837 0 0 1-3.31 7.841 8.236 8.236 0 0 0-2.003 7.662c.186.833.297 1.68.33 2.534a8.875 8.875 0 0 1-8.831 9.804zM27.975 31.6a.635.635 0 0 1 .63.704 7.463 7.463 0 0 0-.048.82 7.62 7.62 0 0 0 2.536 5.67 7.544 7.544 0 0 0 5.945 1.887 7.902 7.902 0 0 0 6.713-8.428 13.023 13.023 0 0 0-.301-2.31 9.501 9.501 0 0 1 2.331-8.832 9.608 9.608 0 0 0 2.95-6.946 8.659 8.659 0 0 0-2.879-6.397 8.499 8.499 0 0 0-6.624-2.117 8.626 8.626 0 0 0-7.02 5.43.635.635 0 0 1-.94.3 11.34 11.34 0 0 0-12.455.153.634.634 0 0 1-.957-.303 8.6 8.6 0 0 0-7.084-5.581A8.493 8.493 0 0 0 4.15 7.767a8.663 8.663 0 0 0-2.88 6.397 9.615 9.615 0 0 0 2.949 6.946 9.5 9.5 0 0 1 2.333 8.832c-.17.76-.27 1.532-.301 2.309a7.902 7.902 0 0 0 6.713 8.427 7.54 7.54 0 0 0 5.943-1.887 7.523 7.523 0 0 0 2.478-6.567.634.634 0 0 1 .798-.688c1.84.52 3.786.548 5.64.08a.662.662 0 0 1 .153-.019l-.002.002z" fill="#717270"/>
        <path d="M21.764 28.134a44.392 44.392 0 0 0-.085 7.838 9.925 9.925 0 0 0 9.613 9.065 9.283 9.283 0 0 0 9.493-9.113 32.548 32.548 0 0 0-.095-4.961c-.138-.914-.73-1.744-3.76-1.744-3.031 0-3.482.906-3.516 1.898-.036.969-.084 3.616-.123 4.284-.084 1.437-.87 2.003-1.688 1.985-.663-.014-1.447-.396-1.673-1.985a50.751 50.751 0 0 1-.04-8.986l-8.126 1.719z" fill="#fff"/>
        <path d="M31.29 45.671a10.522 10.522 0 0 1-10.245-9.65 45.195 45.195 0 0 1 .089-7.966.634.634 0 0 1 1.259.157 43.39 43.39 0 0 0-.082 7.712 9.232 9.232 0 0 0 8.979 8.478 8.67 8.67 0 0 0 8.861-8.516c.091-1.61.062-3.224-.089-4.83-.063-.42-.181-1.203-3.132-1.203-2.838 0-2.866.775-2.883 1.286-.014.395-.03 1.066-.049 1.77-.016.843-.041 1.687-.076 2.53-.112 1.94-1.29 2.602-2.335 2.582-.58-.013-1.967-.285-2.285-2.531a50.624 50.624 0 0 1-.045-9.127.634.634 0 1 1 1.264.107 50.559 50.559 0 0 0 .038 8.842c.2 1.422.844 1.434 1.056 1.44.64.057.988-.48 1.04-1.388.026-.393.051-1.472.077-2.486.016-.71.033-1.386.045-1.783.061-1.737 1.342-2.51 4.153-2.51 2.796 0 4.15.704 4.386 2.284.165 1.693.2 3.396.102 5.094a9.896 9.896 0 0 1-10.128 9.708zM20.133 22.354a1.145 1.145 0 1 0 0-2.29 1.145 1.145 0 0 0 0 2.29zM22.88 16.569a.632.632 0 0 1-.437-.178 3.414 3.414 0 0 0-4.686-.027.634.634 0 1 1-.864-.929 4.744 4.744 0 0 1 3.336-1.256 4.67 4.67 0 0 1 3.09 1.296.635.635 0 0 1-.438 1.094zM30.759 22.354a1.145 1.145 0 1 0 0-2.29 1.145 1.145 0 0 0 0 2.29zM33.502 16.569a.632.632 0 0 1-.44-.178 3.408 3.408 0 0 0-2.253-.942 3.446 3.446 0 0 0-2.43.914.635.635 0 0 1-.866-.926 4.68 4.68 0 0 1 6.427.038.634.634 0 0 1-.438 1.094z" fill="#717270"/>
    </g>
    <defs>
        <clipPath id="a">
            <path fill="#fff" d="M0 0h50v50H0z"/>
        </clipPath>
    </defs>
</svg>
