<svg xmlns="http://www.w3.org/2000/svg" viewBox="0 0 204.74 137.21"><defs><style>.cls-1{fill:none;stroke:#4a90e2;stroke-linecap:round;stroke-linejoin:round;}</style></defs><title>handshaking</title><g id="Livello_2" data-name="Livello 2"><g id="Menù"><path class="cls-1" d="M148.43,35.42,124.26,16.18a21.4,21.4,0,0,0-8.87-4.2L83.15,5.07A13.94,13.94,0,0,0,72,7.49L42.82,29a8,8,0,0,1-7.44,1.09L13.89,21.42.5,74.14,39,89.66l45.8-47.24s13.33-.46,24.09-5.48c0,0,19.21,19.41,36.22,11.48C153,44.73,151.64,37.91,148.43,35.42Z"/><path class="cls-1" d="M99.66,116.7l16.83,15.14c3.91,3.53,10.66,3.65,14.22-.53s3.65-10.47-.53-14.23l-16.82-15.15c-3.92-3.52-10.67-3.65-14.23.54s-3.65,10.46.53,14.23Z"/><path class="cls-1" d="M113.46,101.69l16.78,15.19c3.77,3.42,10.08,4,13.76,0,3.42-3.72,4-10.11,0-13.76l-16.78-15.2c-3.77-3.41-10.09-4-13.76,0-3.42,3.73-4,10.12,0,13.77Z"/><path class="cls-1" d="M129.88,90.12l16.78,15.2c3.9,3.53,10.43,4.14,14.24,0,3.54-3.86,4.17-10.46,0-14.24l-16.78-15.2c-3.9-3.53-10.44-4.14-14.24,0-3.54,3.86-4.17,10.47,0,14.24Z"/><path class="cls-1" d="M148.92,80.29l12.34,11.1c2.87,2.58,7.65,3,10.44,0,2.59-2.82,3.07-7.68,0-10.44l-12.34-11.1c-2.87-2.58-7.64-3-10.44,0-2.59,2.82-3.06,7.68,0,10.44Z"/><path class="cls-1" d="M161.26,91.39l-2.95-2.65,2.59,2.34a8.48,8.48,0,0,1,.83.87l.11-.09C161.64,91.71,161.45,91.56,161.26,91.39Z"/><path class="cls-1" d="M99.66,116.7c-4.18-3.77-4-10.13-.53-14.23s10.31-4.06,14.23-.54l16.82,15.15c.22.19.42.4.62.61l.2-.18c-.26-.2-.52-.41-.76-.63l-16.78-15.19c-4-3.65-3.42-10,0-13.77,3.67-4,10-3.41,13.76,0L144,103.12a8.54,8.54,0,0,1,1.66,2.07l.45-.37-16.23-14.7c-4.17-3.77-3.54-10.38,0-14.24,3.8-4.14,10.34-3.53,14.24,0l4.28,3.88c-2.48-2.82-1.91-7.26.52-9.91,2.8-3,7.57-2.58,10.44,0L171.7,81a6.35,6.35,0,0,1,1.37,1.76l.45-.36,30.72-9.6-13.1-53.28-18.77,5.76A12.38,12.38,0,0,1,162.2,23.9L128.94,3.15a17.5,17.5,0,0,0-15-1.68l-18.1,6.3L115.39,12a21.38,21.38,0,0,1,8.87,4.19L148.43,35.4c3.21,2.49,4.55,9.31-3.36,13-17,7.93-36.22-11.48-36.22-11.48-10.76,5-24.09,5.49-24.09,5.49L51.1,77.12,38.66,90.06c-6.84,7.11-1,19.15,8.79,17.74A20.18,20.18,0,0,0,53,106.07s1.8,15,17.57,13.81c0,0,2.15,15.16,19.61,11.45,0,0,6.74,12.45,25.17-.51Z"/><line class="cls-1" x1="53" y1="106.09" x2="79.35" y2="79.73"/><line class="cls-1" x1="70.39" y1="119.87" x2="96.74" y2="93.51"/><line class="cls-1" x1="89.99" y1="131.52" x2="102.37" y2="119.13"/></g></g></svg>