<?xml version="1.0" encoding="utf-8"?>
<!-- Generator: Adobe Illustrator 22.1.0, SVG Export Plug-In . SVG Version: 6.00 Build 0)  -->
<svg version="1.1" id="Livello_1" xmlns="http://www.w3.org/2000/svg" xmlns:xlink="http://www.w3.org/1999/xlink" x="0px" y="0px"
	 viewBox="0 0 500 400" style="enable-background:new 0 0 500 400;" xml:space="preserve">
<style type="text/css">
	.st0{fill:none;stroke:#FFFFFF;stroke-width:1.7299;stroke-miterlimit:10;}
</style>
<g id="Livello_2_1_">
	<g id="Visori">
		<path class="st0" d="M286.2,152.4C286.2,152.4,286.2,152.4,286.2,152.4c-0.9,6.8-7.2,11.5-13.9,10.6l0,0c-4.1-0.6-7.6-3.1-9.4-6.8
			 M293.8,197.3L293.8,197.3c-4.9-12.9-16.4-22.1-30.1-23.9l-5.2-0.7l4.8-25l24.6-11.5c0.2-0.1,0.3-0.2,0.5-0.2
			c6.5-3.4,9-11.4,5.6-17.9l0,0c-3.2-6.2-10.7-8.8-17.1-6l-42.3,18.7 M318.9,169.4C318.9,169.4,318.8,169.4,318.9,169.4
			c-5.3-0.8-8.9-5.6-8.1-10.9l5.3-38.7c0,0,0,0,0,0c0.7-5.2,5.6-8.9,10.8-8.2l5.5,0.8c5.2,0.8,8.8,5.6,8.1,10.9l-5.3,38.7
			c-0.7,5.2-5.6,8.9-10.8,8.2L318.9,169.4L318.9,169.4z M291.4,113.8l2.6-19c0,0,0,0,0,0c0.9-6.8,7.2-11.5,13.9-10.6l0,0
			c6.8,0.9,11.5,7.2,10.6,13.9l-7.9,57.6c0,0,0,0,0,0c-0.9,6.8-7.2,11.5-13.9,10.5l0,0c-6.8-0.9-11.5-7.2-10.6-13.9l2.2-16.2
			 M266.8,110.5l1.7-12c0.9-6.8,7.2-11.5,13.9-10.6l0,0c6.8,0.9,11.5,7.2,10.6,13.9l-1.1,8 M335.6,159.1l-5.6,39.3
			c-0.2,1.8-0.6,3.6-1.2,5.3c-5.3,17.1-23.5,26.6-40.6,21.2l-64-20l21.2-154.3c1-7.3,7.8-12.4,15.1-11.4l2.6,0.4c0,0,0,0,0,0
			c7.3,1,12.4,7.8,11.4,15.1l-8.5,62 M154.4,415l65.5-210.1L323,234.8l-60,203.6"/>
		<path class="st0" d="M69.1,267.6c0.6,3.2-1.5,6.3-4.8,6.9l0,0c-2,0.3-3.9-0.3-5.3-1.7 M79.4,287L79.4,287
			c-4.2-5.1-10.8-7.6-17.3-6.4l-2.5,0.5L58,268.9l9.5-9c0.1-0.1,0.1-0.1,0.2-0.2c2.4-2.5,2.4-6.6-0.2-9l0,0
			c-2.4-2.3-6.2-2.4-8.6-0.2l-16.5,14.9 M88,270.2C88,270.2,88,270.2,88,270.2c-3.3,0.6-6.4-1.5-7-4.8l-2.9-15.8c0,0,0,0,0,0
			c-0.6-3.2,1.6-6.3,4.8-6.9l0,0c3.2-0.6,6.3,1.5,6.9,4.8l2.9,15.8C93.3,266.6,91.1,269.6,88,270.2L88,270.2L88,270.2z M65.9,249.3
			l-1.7-9.1c0,0,0,0,0,0c-0.6-3.2,1.6-6.3,4.8-6.9l0,0c0,0,0,0,0,0c3.2-0.6,6.3,1.6,6.9,4.8l5,27.5c0,0,0,0,0,0
			c0.6,3.2-1.6,6.3-4.8,6.9l0,0c-3.2,0.6-6.3-1.5-6.9-4.8l-1.4-7.7 M54.2,251.4l-1-5.7c-0.6-3.2,1.5-6.3,4.8-6.9l0,0c0,0,0,0,0,0
			c3.2-0.6,6.3,1.6,6.9,4.8l0.7,3.8 M92.7,263.3l3.5,18.7c0.2,0.8,0.2,1.7,0.2,2.6c0.1,8.6-6.7,15.7-15.3,15.8l-32.2,0.4l-13.5-73.6
			c0,0,0,0,0,0c-0.6-3.5,1.7-6.8,5.2-7.5l1.3-0.2c0,0,0,0,0,0c3.5-0.6,6.8,1.7,7.4,5.2l5.4,29.6 M38.6,411.1l8.2-109.5l51.5-1.8
			l3.2,101.9"/>
		<path class="st0" d="M428.4,303.8l0.2-2.2c0.3-3.9,3.1-7.2,6.9-8.1l0,0c4.5-1.1,7.6-5.1,7.6-9.7v-8.9c0,0,0,0,0,0
			c0-3.5,2.8-6.4,6.4-6.4l0,0l0,0c3.5,0,6.4,2.9,6.4,6.4v17.5c0,17.2-11.8,29.8-28.9,29.8l0,0c-12.3,0-24.4-8.8-24.4-21.1v-47.5
			c0,0,0,0,0,0c0-3.1,2.5-5.7,5.7-5.7l0,0c3.1,0,5.6,2.5,5.7,5.6l0.2,20 M449.6,268.1v-25.9l0,0c0-3.3-2.7-6-6-6l0,0l0,0
			c-3.3,0-6,2.7-6,6v28.1 M425.8,269.4v-29.2c0-3.3-2.7-5.9-5.9-6l0,0l0,0c-3.3,0-6,2.7-6,6v33.3 M437.7,262.7v-29.2l0,0
			c0-3.3-2.7-6-6-6l0,0l0,0c-3.3,0-6,2.7-6,6v33.4 M462.7,456.2L458,320.5l-58.8,3.5l4.6,133.6"/>
	</g>
</g>
</svg>
