<?xml version="1.0" encoding="utf-8"?>
<!-- Generator: Adobe Illustrator 22.1.0, SVG Export Plug-In . SVG Version: 6.00 Build 0)  -->
<svg version="1.1" id="Livello_1" xmlns="http://www.w3.org/2000/svg" xmlns:xlink="http://www.w3.org/1999/xlink" x="0px" y="0px"
	 viewBox="0 0 500 400" style="enable-background:new 0 0 500 400;" xml:space="preserve">
<style type="text/css">
	.st0{fill:none;stroke:#FFFFFF;stroke-width:1.7299;stroke-miterlimit:10;}
</style>
<g id="Livello_2_1_">
	<g id="Visori">
		<path class="st0" d="M235.2,156.1c-1.8,3.7-5.3,6.3-9.4,6.8l0,0c-6.8,0.9-13-3.8-13.9-10.6c0,0,0,0,0,0 M263.4,130.6L221.1,112
			c-6.4-2.8-13.9-0.2-17.1,6l0,0c-3.4,6.5-0.9,14.5,5.6,17.9c0.2,0.1,0.3,0.2,0.5,0.2l24.6,11.5l4.8,25l-5.2,0.7
			c-13.7,1.9-25.2,11.1-30.1,23.9l0,0 M179.2,169.4l-5.5,0.8c-5.2,0.7-10.1-3-10.8-8.2l-5.3-38.7c-0.8-5.2,2.9-10.1,8.1-10.9
			l5.5-0.8c5.2-0.7,10.1,3,10.8,8.2c0,0,0,0,0,0l5.3,38.7C188.1,163.7,184.4,168.6,179.2,169.4C179.2,169.4,179.2,169.4,179.2,169.4
			L179.2,169.4z M209.7,136.2l2.2,16.2c0.9,6.8-3.8,13-10.6,13.9l0,0c-6.8,0.9-13-3.8-13.9-10.5c0,0,0,0,0,0l-7.9-57.6
			c-0.9-6.8,3.8-13,10.6-13.9l0,0c6.8-0.9,13,3.8,13.9,10.6c0,0,0,0,0,0l2.6,19 M206.1,109.9l-1.1-8c-0.9-6.8,3.8-13,10.6-13.9l0,0
			c6.8-0.9,13,3.8,13.9,10.6l1.7,12 M232,116.6l-8.5-62c-1-7.3,4.1-14.1,11.4-15.1c0,0,0,0,0,0l2.6-0.4c7.3-1,14.1,4.1,15.1,11.4
			l21.2,154.3l-64,20c-17.1,5.3-35.2-4.2-40.6-21.2c-0.5-1.7-0.9-3.5-1.2-5.3l-5.6-39.3 M235.1,438.4l-60-203.6l103.1-29.9
			L343.6,415"/>
		<path class="st0" d="M439,272.8c-1.4,1.4-3.4,2.1-5.3,1.7l0,0c-3.2-0.6-5.4-3.7-4.8-6.9 M455.7,265.5l-16.5-14.9
			c-2.5-2.2-6.3-2.1-8.6,0.2l0,0c-2.5,2.4-2.6,6.5-0.2,9c0.1,0.1,0.1,0.1,0.2,0.2l9.5,9l-1.6,12.1l-2.5-0.5
			c-6.5-1.2-13.1,1.3-17.3,6.4l0,0 M410.1,270.2L410.1,270.2c-3.2-0.6-5.4-3.7-4.8-6.9l2.9-15.8c0.6-3.2,3.7-5.4,6.9-4.8l0,0
			c3.2,0.6,5.4,3.7,4.8,6.9c0,0,0,0,0,0l-2.9,15.8C416.4,268.7,413.3,270.8,410.1,270.2C410.1,270.2,410.1,270.2,410.1,270.2
			L410.1,270.2z M430.3,259.9l-1.4,7.7c-0.6,3.2-3.7,5.4-6.9,4.8l0,0c-3.2-0.6-5.4-3.7-4.8-6.9c0,0,0,0,0,0l5-27.5
			c0.6-3.2,3.7-5.4,6.9-4.8c0,0,0,0,0,0l0,0c3.2,0.6,5.4,3.7,4.8,6.9c0,0,0,0,0,0l-1.7,9.1 M432.5,247.4l0.7-3.8
			c0.6-3.2,3.7-5.4,6.9-4.8c0,0,0,0,0,0l0,0c3.2,0.6,5.4,3.7,4.8,6.9l-1,5.7 M443.3,254.3l5.4-29.6c0.6-3.5,4-5.8,7.4-5.2
			c0,0,0,0,0,0l1.3,0.2c3.5,0.6,5.8,4,5.2,7.5c0,0,0,0,0,0l-13.5,73.6l-32.2-0.4c-8.6-0.1-15.5-7.2-15.3-15.8c0-0.9,0.1-1.7,0.2-2.6
			l3.5-18.7 M396.5,401.7l3.2-101.9l51.5,1.8l8.2,109.5"/>
		<path class="st0" d="M83.9,273.5l0.2-20c0-3.1,2.6-5.6,5.7-5.6l0,0c3.1,0,5.7,2.5,5.7,5.7c0,0,0,0,0,0v47.5
			c0,12.3-12.1,21.1-24.4,21.1l0,0c-17.2,0-28.9-12.7-28.9-29.8v-17.5c0-3.5,2.9-6.4,6.4-6.4l0,0l0,0c3.5,0,6.4,2.9,6.4,6.4
			c0,0,0,0,0,0v8.9c0,4.6,3.1,8.6,7.6,9.7l0,0c3.8,1,6.6,4.2,6.9,8.1l0.2,2.2 M60.3,270.2v-28.1c0-3.3-2.7-6-6-6l0,0l0,0
			c-3.3,0-6,2.7-6,6l0,0v25.9 M84.1,273.5v-33.3c0-3.3-2.7-6-6-6l0,0l0,0c-3.3,0-5.9,2.7-5.9,6v29.2 M72.2,266.9v-33.4
			c0-3.3-2.7-6-6-6l0,0l0,0c-3.3,0-6,2.7-6,6l0,0v29.2 M94.2,457.5l4.6-133.6L40,320.5l-4.7,135.7"/>
	</g>
</g>
</svg>
