<svg xmlns="http://www.w3.org/2000/svg" viewBox="0 0 420 150.98"><defs><style>.cls-1{fill:#fff;}</style></defs><title>hcovering</title><g id="Livello_2" data-name="Livello 2"><g id="Livello_1-2" data-name="Livello 1"><path class="cls-1" d="M322.39,137.57V138H374a.4.4,0,0,0,.4-.41V115.72a1.18,1.18,0,0,1,1.18-1.17h13a.41.41,0,0,0,.41-.4h0V98.69A4.72,4.72,0,0,0,384.28,94H317.72A4.72,4.72,0,0,0,313,98.69v26.54a.41.41,0,0,0,.41.41h.09v0a64.29,64.29,0,0,1,11.68.92,1.53,1.53,0,0,1-.61,3h0s-.7-.14-1.91-.3a.41.41,0,0,0-.46.35.21.21,0,0,0,0,.08c0,.14,0,.24,0,.34v5.66a8.45,8.45,0,0,1-.22,1.81.41.41,0,0,0,.31.49h.09v-.41l.4.09a8.87,8.87,0,0,0,.23-2V130c0-.16,0-.28,0-.39l-.41,0,0,.41c1.19.15,1.85.28,1.86.28h0a2.34,2.34,0,0,0,.94-4.58,65.26,65.26,0,0,0-11.84-.93h-.09v.41h.41V98.69a3.91,3.91,0,0,1,3.9-3.9h66.56a3.91,3.91,0,0,1,3.9,3.9v15H375.56a2,2,0,0,0-2,2v21.45H322.39v.4l.4.09-.4-.09m53.82-75.28.26.26L379.4,60a1.64,1.64,0,0,0,.6-1.27,1.69,1.69,0,0,0-.51-1.2,2,2,0,0,0-2.65-.08L375,59.05,376,63l.49-.43-.26-.26.37-.08-.72-2.92L377.37,58a1.11,1.11,0,0,1,.75-.28,1.13,1.13,0,0,1,.81.33,1,1,0,0,1,.29.7,1,1,0,0,1-.35.75L375.94,62l.27.26.37-.08-.37.08m-3-8,.26.26L376.4,52a1.64,1.64,0,0,0,.6-1.27,1.69,1.69,0,0,0-.51-1.2,2,2,0,0,0-2.65-.08L372,51.05,373,55l.49-.43-.26-.26.37-.08-.72-2.92L374.37,50a1.16,1.16,0,0,1,.75-.28,1.13,1.13,0,0,1,.81.33,1,1,0,0,1-.06,1.45L372.94,54l.27.26.37-.08-.37.08"/><path class="cls-1" d="M371.55,41l.32-.28-.38-.39L371.2,40,360,50l.64.66L375.75,78,380,74.16,372,40.76l-.08-.08-.32.28-.42.1L379,73.88,376,76.63,361.35,50.21l-.12-.13,9.92-8.92.09.09.31-.29-.42.1.42-.1"/><path class="cls-1" d="M383.91,19.23l-.3.29a2.46,2.46,0,0,1,.57,1.74,12,12,0,0,1-2.07,5.63,34.78,34.78,0,0,1-5.7,6.88L360.78,48.55c-8.85,8.37-17.32,15.09-23.13,18.61l-.26.16,2.75,12-1.35,1.28L333,69.54l-.32.09a4.39,4.39,0,0,1-1.27.23.93.93,0,0,1-.73-.23.82.82,0,0,1-.18-.61,4.4,4.4,0,0,1,.31-1.41l.12-.32-10.54-6.65,1.36-1.28L333.37,63l.17-.25C337.41,57.08,344.6,49,353.45,40.6l15.63-14.78A34.8,34.8,0,0,1,376,20.66a12.69,12.69,0,0,1,5.62-1.85,2.57,2.57,0,0,1,2,.71l.3-.29.3-.28a3.39,3.39,0,0,0-2.59-1,13.4,13.4,0,0,0-6,1.95,35.6,35.6,0,0,0-7.09,5.28L352.89,40c-8.89,8.41-16.1,16.53-20,22.24l.34.24.12-.4-11.84-3.65L319,60.77l11.16,7,.22-.35-.39-.15a5.14,5.14,0,0,0-.36,1.7,1.63,1.63,0,0,0,.4,1.18,1.73,1.73,0,0,0,1.33.49,5.26,5.26,0,0,0,1.5-.26l-.11-.4-.37.2L338.57,82l2.48-2.35-2.79-12.2-.4.09.21.36c5.9-3.58,14.39-10.32,23.27-18.73L377,34.37a35,35,0,0,0,5.84-7A12.64,12.64,0,0,0,385,21.26a3.3,3.3,0,0,0-.79-2.31l-.3.28"/><path class="cls-1" d="M374.85,23a6.8,6.8,0,0,0-1.85.29,5.63,5.63,0,0,1,3.15,1.95A7.17,7.17,0,0,1,377.61,29c.59-2.12.53-3.9-.34-5a3,3,0,0,0-2.42-1ZM376,24a1.81,1.81,0,0,1,.77.56,2.35,2.35,0,0,1,.43.93,6.3,6.3,0,0,0-.55-.8A7.07,7.07,0,0,0,376,24Zm-37.2,1.5.28.29,3.15-2.72a1.19,1.19,0,0,1,1.64.08,1.07,1.07,0,0,1,0,1.52l-.06.05-1.62,1.4-3.24-1-.13.37.28.29-.28-.29-.12.37L342.37,27l2-1.7a1.86,1.86,0,0,0,.65-1.41,1.82,1.82,0,0,0-.52-1.27,2.05,2.05,0,0,0-2.8-.13L338,25.64l.68.21.12-.37m8,2,.28.29,3.15-2.72a1.19,1.19,0,0,1,1.64.08,1,1,0,0,1,.31.74,1.08,1.08,0,0,1-.39.83l-1.62,1.4-3.24-1-.13.38.28.29-.28-.29-.12.37L350.37,29l2-1.7a1.87,1.87,0,0,0,.65-1.41,1.84,1.84,0,0,0-.52-1.27A2,2,0,0,0,351,24a2,2,0,0,0-1.33.49L346,27.64l.68.21.12-.37"/><path class="cls-1" d="M360.06,32.74l-.3.28.07.09-9.55,8.7-.07-.09,0,0L325.35,25.6l2.94-2.68,31.65,10.22.12-.4-.3.28.3-.28.13-.39L328.09,22,324,25.71l25.63,16.61.32.35.28.31L361,33.16l-.71-.78-.1,0-.13.39m13.58,109.52h.41v-4.9a.4.4,0,0,0-.12-.27.44.44,0,0,0-.29-.11H321.86a.4.4,0,0,0-.4.29,8.1,8.1,0,0,1-8,5.86h-2.86a8.77,8.77,0,0,1-1.15-.08.4.4,0,0,0-.46.3.37.37,0,0,0,.3.43,7.37,7.37,0,0,0,1.69.2h63.59a.4.4,0,0,0,.4-.3.36.36,0,0,0-.24-.42,1.09,1.09,0,0,1-.7-1h-.82a1.85,1.85,0,0,0,1.19,1.69l.17-.35v-.37H311a6.68,6.68,0,0,1-1.49-.18l-.1.37-.06.37a10.4,10.4,0,0,0,1.27.09h2.86a8.91,8.91,0,0,0,8.78-6.44l-.4-.08v.37h51.37v4.53h.41"/><path class="cls-1" d="M360.6,141.49V141H341.8V138h18.39v3.54h.41v0h.4v-4a.55.55,0,0,0-.12-.35.35.35,0,0,0-.28-.14H341.4a.35.35,0,0,0-.28.14.55.55,0,0,0-.12.35v4a.53.53,0,0,0,.12.35.37.37,0,0,0,.28.14h19.2a.35.35,0,0,0,.28-.14.55.55,0,0,0,.12-.35h-.4m-39.4-3.6.4.09a7.53,7.53,0,0,0,.16-.95l-.4-.05.4.06v0h0a8.47,8.47,0,0,0,.06-1v-5.69a3.84,3.84,0,0,0,0-.39l-.4,0-.06.4c1.19.16,1.85.29,1.85.29h0a2.33,2.33,0,0,0,2.75-1.82h0a2.35,2.35,0,0,0-1.82-2.78,64.59,64.59,0,0,0-11.79-.93h-.1l0,.41v-.41a31.49,31.49,0,0,0-10.86,2.16c-.63.22-1.23.43-1.75.59a5.25,5.25,0,0,1-1.2.24,10.09,10.09,0,0,1-3.1-.9,28.59,28.59,0,0,0-7-1.93,29,29,0,0,0-4-.24c-2.49,0-4.93.23-6.89.41-1.33.13-2.48.23-3.2.23a2.36,2.36,0,0,0,0,4.71c.66,0,1.46-.06,2.34-.14l0-.4-.41,0c0,.15,0,.32,0,.52V136a9,9,0,0,0,8.93,9H288a9,9,0,0,0,8.94-9h-.41l.4.07-.12,0,.12,0h0l-.12,0,.12,0a2,2,0,0,1,.37-.78,2,2,0,0,1,1.71-.72,2.06,2.06,0,0,1,1.76.76,2.2,2.2,0,0,1,.29.53l.06.17v0h0l.11,0-.11,0h0l.11,0-.11,0,.4-.08h-.41a9,9,0,0,0,8.94,9h2.84a9,9,0,0,0,8.71-7l-.4-.09-.39-.09a8.17,8.17,0,0,1-7.92,6.36h-2.84a8.09,8.09,0,0,1-5.74-2.4,8.21,8.21,0,0,1-2.39-5.79v-.07a2.81,2.81,0,0,0-2.92-2.18,2.83,2.83,0,0,0-2.38,1.08,2.74,2.74,0,0,0-.5,1.11V136a8.23,8.23,0,0,1-2.38,5.79,8.11,8.11,0,0,1-5.74,2.4h-2.85a8.07,8.07,0,0,1-5.73-2.4A8.21,8.21,0,0,1,277,136v-5.69c0-.15,0-.29,0-.47a.4.4,0,0,0-.38-.43h-.06c-.87.07-1.65.13-2.27.13a1.54,1.54,0,0,1,0-3.07c.79,0,1.94-.11,3.28-.23,1.95-.19,4.37-.41,6.81-.41a28.65,28.65,0,0,1,3.85.23,27.93,27.93,0,0,1,6.78,1.89,10.71,10.71,0,0,0,3.39,1,5.5,5.5,0,0,0,1.43-.28c.54-.16,1.16-.37,1.78-.59a30.68,30.68,0,0,1,10.61-2.12h.09v0a62.06,62.06,0,0,1,11.63.93,1.53,1.53,0,0,1-.6,3h0s-.7-.14-1.9-.3a.41.41,0,0,0-.46.35v.08c0,.14,0,.24,0,.35V136a7,7,0,0,1-.06.92l.41.05-.4-.06v0h0q-.06.44-.15.87l.39.09"/><path class="cls-1" d="M317.41,98.4H317V126a.41.41,0,0,0,.39.41,56.34,56.34,0,0,1,8,.85,1.55,1.55,0,0,1,1.21,1.83h0a1.57,1.57,0,0,1-1.51,1.25,1.1,1.1,0,0,1-.31,0h0s-.7-.14-1.93-.3a.41.41,0,0,0-.46.36v.07c0,.15,0,.25,0,.36v3.78a.41.41,0,0,0,.41.41h51.91a.41.41,0,0,0,.41-.41V116.24a1.21,1.21,0,0,1,1.2-1.2h9.26a.41.41,0,0,0,.41-.4h0V98.4a.41.41,0,0,0-.41-.42H317.41a.41.41,0,0,0-.41.42h.41v.41h67.76v15.4h-8.84a2,2,0,0,0-2,2v17.91H323.22v-3.36c0-.17,0-.29,0-.4l-.41,0-.05.41c1.2.16,1.87.3,1.87.3h0a2.61,2.61,0,0,0,.48,0,2.39,2.39,0,0,0,.47-4.73,58.8,58.8,0,0,0-8.13-.86l0,.42h.41V98.4h-.41v0"/><path class="cls-1" d="M383.57,115.56v-.41h-6.14a.47.47,0,0,1-.49-.43v-1.48a.47.47,0,0,1,.49-.43h6.14a.47.47,0,0,1,.49.43v1.48a.47.47,0,0,1-.49.43V116a1.36,1.36,0,0,0,1.43-1.26v-1.47a1.36,1.36,0,0,0-1.43-1.27h-6.14a1.36,1.36,0,0,0-1.43,1.26v1.48a1.36,1.36,0,0,0,1.43,1.26h6.14v-.42M405.7,114v-.49s.07-.1.17-.1h3.26c.1,0,.17,0,.17.1V114h.7v-.49c0-.28-.39-.51-.87-.51h-3.26c-.48,0-.87.23-.87.51V114h.7m8.09,0v-.49s.09-.1.2-.1h3c.11,0,.19,0,.19.1V114h.8v-.49c0-.28-.45-.51-1-.51h-3c-.55,0-1,.23-1,.51V114h.79"/><path class="cls-1" d="M418.29,144.57v-.41H376.71a.91.91,0,0,1-.91-.93v-27.5a.91.91,0,0,1,.91-.93h41.58a.92.92,0,0,1,.91.93v27.5a.92.92,0,0,1-.91.93V145a1.73,1.73,0,0,0,1.71-1.75v-27.5a1.73,1.73,0,0,0-1.71-1.75H376.71a1.72,1.72,0,0,0-1.71,1.75v27.5a1.72,1.72,0,0,0,1.71,1.75h41.58v-.41"/><path class="cls-1" d="M419.61,121.38V121h-15l.69.69a10.71,10.71,0,0,1-.52,15.6L404,138h16V121h-.39v.4h-.39v15.8H405.06v.4l.25.31a11.55,11.55,0,0,0,.56-16.8l-.27.29v.4h14v-.4h0M387,129.23h.4a10.41,10.41,0,0,1,3.26-7.56l.72-.69H375v17h17l-.85-.71a10.43,10.43,0,0,1-3.8-8h-.81a11.27,11.27,0,0,0,4.08,8.66l.27-.31v-.4H375.81v-15.4h14.51v-.4l-.28-.29a11.26,11.26,0,0,0-3.5,8.14h.4"/><path class="cls-1" d="M405,122.37a11.13,11.13,0,0,0-16,0l.56.61a10.36,10.36,0,0,1,14.88,0l.56-.61m-16,15.36a10.28,10.28,0,0,0,15,0l-.53-.75a9.53,9.53,0,0,1-13.94,0l-.53.75"/><path class="cls-1" d="M404.57,138a11.12,11.12,0,0,0,4.43-8.76,11,11,0,0,0-3.8-8.24l-.61.59a10.08,10.08,0,0,1-.59,15.79l.57.62M389.8,121a11,11,0,0,0-3.8,8.24,11.12,11.12,0,0,0,4.43,8.76l.57-.62a10.32,10.32,0,0,1-4.12-8.14,10.2,10.2,0,0,1,3.53-7.65l-.61-.59"/><path class="cls-1" d="M408.59,130.48h-.4a10.69,10.69,0,1,1-3.13-7.55,10.65,10.65,0,0,1,3.13,7.55H409a11.51,11.51,0,1,0-3.37,8.13,11.46,11.46,0,0,0,3.37-8.13h-.41"/><path class="cls-1" d="M407.58,130h-.43a9.15,9.15,0,1,1-2.68-6.46,9.13,9.13,0,0,1,2.68,6.46H408a10,10,0,1,0-2.93,7.07A10,10,0,0,0,408,130h-.42"/><path class="cls-1" d="M399.32,129v-.4a2.25,2.25,0,0,1-1.63-3.8l.47-.49-.66-.17a5.83,5.83,0,0,0-1.5-.2,6,6,0,1,0,5.66,4l-.22-.64-.45.5a2.22,2.22,0,0,1-1.67.76v.8a3,3,0,0,0,2.26-1l-.29-.27-.38.13a5.18,5.18,0,0,1-1.23,5.38,5.21,5.21,0,0,1-7.36,0,5.21,5.21,0,0,1,3.68-8.88,5.74,5.74,0,0,1,1.31.17l.1-.38-.29-.28a3,3,0,0,0-.85,2.1,3.06,3.06,0,0,0,3.05,3V129m2.93-1.06a3,3,0,0,0,.75-2,3,3,0,0,0-2.9-3,2.83,2.83,0,0,0-2.1.94l.55.54a2.12,2.12,0,0,1,1.55-.69,2.18,2.18,0,0,1,2.14,2.21,2.22,2.22,0,0,1-.55,1.47l.56.53"/><path class="cls-1" d="M397.8,124a3,3,0,0,0-.8,2,2.92,2.92,0,0,0,2.87,3,2.82,2.82,0,0,0,2.13-1l-.56-.52a2.06,2.06,0,0,1-1.57.73,2.15,2.15,0,0,1-2.12-2.18,2.2,2.2,0,0,1,.59-1.5l-.54-.54M235.56,54V42.8a4.26,4.26,0,0,0-4.22-4.29H218.66a4.26,4.26,0,0,0-4.22,4.29V54h.81V42.8a3.47,3.47,0,0,1,1-2.45,3.37,3.37,0,0,1,2.41-1h12.68a3.36,3.36,0,0,1,2.41,1,3.47,3.47,0,0,1,1,2.45V54Zm-25.75,0V42.8a9.06,9.06,0,0,1,2.59-6.36,8.77,8.77,0,0,1,6.26-2.64h12.68a8.77,8.77,0,0,1,6.26,2.64,9.1,9.1,0,0,1,2.59,6.36V54H241V42.8A9.75,9.75,0,0,0,231.34,33H218.66A9.75,9.75,0,0,0,209,42.8V54Zm8.24,85.38a5.15,5.15,0,0,1,.1,1,5.05,5.05,0,0,1-1.24,3.45,4.37,4.37,0,0,1-3.34,1.4,9.67,9.67,0,0,1-3-.39,3.54,3.54,0,0,1-2.19-1.7,5.9,5.9,0,0,1-.54-2.76,4.45,4.45,0,0,1,.15-1.16l-.83-.19a6.53,6.53,0,0,0,1.08,5.33,4.88,4.88,0,0,0,2.05,1.24,10.8,10.8,0,0,0,3.27.43,5.25,5.25,0,0,0,4-1.68,5.84,5.84,0,0,0,1.45-4,5.38,5.38,0,0,0-.12-1.14l-.83.16m13.08-24.81h.42a5.55,5.55,0,0,1,1.59-3.91A5.4,5.4,0,0,1,237,109h8V73.07A6.06,6.06,0,0,0,239,67H210a6.06,6.06,0,0,0-6,6.09v40.82a6.06,6.06,0,0,0,6,6.09h21.54v-5.44h-.83v4.6H210a5.13,5.13,0,0,1-3.66-1.54,5.22,5.22,0,0,1-1.52-3.71V73.07a5.29,5.29,0,0,1,1.52-3.71A5.13,5.13,0,0,1,210,67.82h29a5.13,5.13,0,0,1,3.66,1.54,5.26,5.26,0,0,1,1.52,3.71v35.1H237a6.32,6.32,0,0,0-6.28,6.37h.41"/><path class="cls-1" d="M231.08,115.64h.41a5.47,5.47,0,0,1,1.59-3.88,5.31,5.31,0,0,1,3.82-1.6h16.78v-1.64c0-2.35.08-7.82.32-14V65.07A11.05,11.05,0,0,0,243.05,54H206A11,11,0,0,0,195,65.07v63.82A11,11,0,0,0,206,140h25.54V115.64h-.82v23.51H206a10,10,0,0,1-7.15-3,10.31,10.31,0,0,1-3-7.25V65.07a10.31,10.31,0,0,1,3-7.25,10,10,0,0,1,7.15-3h37.1a10,10,0,0,1,7.15,3,10.31,10.31,0,0,1,3,7.25V94.55h.41l-.41,0c-.32,8.2-.32,15.21-.32,15.21h.41v-.41H236.9a6.27,6.27,0,0,0-6.23,6.31h.41"/><path class="cls-1" d="M204.41,81h40.18a.51.51,0,0,0,0-1H204.41a.51.51,0,0,0,0,1m-8,49h36.16a.51.51,0,0,0,0-1H196.42a.51.51,0,0,0,0,1"/><path class="cls-1" d="M277.07,135.74h.41V130c0-.16,0-.3,0-.47a.4.4,0,0,0-.38-.44h-.06c-.88.08-1.66.13-2.28.13a1.54,1.54,0,0,1,0-3.08c.8,0,2-.11,3.29-.24,1.87-.18,4.18-.39,6.53-.41a.41.41,0,0,0,.4-.41V114.25a6.24,6.24,0,0,0-6.2-6.27H237.2a6.24,6.24,0,0,0-6.2,6.27v24.46a6.24,6.24,0,0,0,6.2,6.27h41.6a6.08,6.08,0,0,0,3.46-1.07.41.41,0,0,0,.18-.37.4.4,0,0,0-.23-.34,8.26,8.26,0,0,1-4.73-7.46h-.82a9.08,9.08,0,0,0,5.2,8.2l.17-.37-.23-.34a5.34,5.34,0,0,1-3,.93H237.2a5.37,5.37,0,0,1-3.81-1.6,5.48,5.48,0,0,1-1.58-3.85V114.25a5.49,5.49,0,0,1,1.58-3.85,5.36,5.36,0,0,1,3.81-1.59h41.6a5.33,5.33,0,0,1,3.81,1.59,5.43,5.43,0,0,1,1.57,3.85v10.84h.41v-.41c-2.39,0-4.72.23-6.6.41-1.33.13-2.49.23-3.21.23a2.37,2.37,0,0,0,0,4.74c.67,0,1.46-.06,2.35-.14l0-.41-.41,0c0,.16,0,.32,0,.53v5.73h.41"/><path class="cls-1" d="M276.24,137.24h.4v-5.73c0-.16,0-.3,0-.47a.41.41,0,0,0-.11-.32.39.39,0,0,0-.32-.12c-.86.08-1.63.13-2.24.13a1.53,1.53,0,0,1-1.5-1.54,1.55,1.55,0,0,1,1.5-1.55c.66,0,1.58-.08,2.64-.18a.41.41,0,0,0,.37-.41V112.39a.4.4,0,0,0-.12-.29.36.36,0,0,0-.28-.12H238.4a.36.36,0,0,0-.28.12.4.4,0,0,0-.12.29v31.18a.4.4,0,0,0,.12.29.36.36,0,0,0,.28.12h38.2a.36.36,0,0,0,.28-.12.4.4,0,0,0,.12-.29v-3.84l0-.12a8.23,8.23,0,0,1-.34-2.37h-.8a9,9,0,0,0,.38,2.61l.38-.12h-.4v3.43H238.8V112.81h37.4v14.24h.4l0-.41c-1.05.1-2,.18-2.57.18a2.37,2.37,0,0,0,0,4.74c.65,0,1.44-.06,2.31-.14l0-.41-.4,0c0,.16,0,.32,0,.53v5.73h.4M235,125.38v.4a1.2,1.2,0,1,1-1.21,1.2,1.2,1.2,0,0,1,1.21-1.2V125a2,2,0,0,0-.09,4H235a2,2,0,0,0,0-4v.4m45.82.19.14-.21c-.11-.22-.26-.38-.44-.38s-.39.22-.49.5a.5.5,0,0,0,0,.34c0,.11.1.17.17.16l.63-.08c.07,0,.13-.09.15-.2a.56.56,0,0,0,0-.34l-.14.21v-.33l-.64.09v.32l.16.18c0-.12.1-.19.18-.19s.11,0,.16.14l.14-.21v0"/><path class="cls-1" d="M263.33,124.1l-4.22,4.21a.4.4,0,0,0,.05.55.39.39,0,0,0,.51,0l4.21-4.22a.39.39,0,0,0-.55-.55m-7,0-4.22,4.21a.4.4,0,0,0,0,.55.39.39,0,0,0,.51,0l4.21-4.22a.39.39,0,0,0-.55-.55m5.95-1-8.16,8.16a.44.44,0,0,0,0,.6.43.43,0,0,0,.56,0l8.16-8.16a.44.44,0,0,0,0-.6.43.43,0,0,0-.56,0m61.77,3.3.08-.41a64.73,64.73,0,0,0-11.79-.93,31.62,31.62,0,0,0-10.95,2.16c-.63.22-1.23.43-1.75.59a5.25,5.25,0,0,1-1.2.24,10.09,10.09,0,0,1-3.1-.9,28.59,28.59,0,0,0-7-1.93,29,29,0,0,0-4-.24c-2.49,0-4.93.23-6.89.41-1.33.13-2.48.23-3.2.23a2.36,2.36,0,0,0,0,4.71c.66,0,1.46-.06,2.34-.14l0-.4-.41,0c0,.15,0,.32,0,.52V136a9,9,0,0,0,8.93,9H288a9,9,0,0,0,8.94-9h-.41l.4.07-.12,0,.12,0h0l-.12,0,.12,0a2,2,0,0,1,.37-.78,2,2,0,0,1,1.71-.72,2.06,2.06,0,0,1,1.76.76,2.2,2.2,0,0,1,.29.53l.06.17v0h0l.11,0-.11,0h0l.11,0-.11,0,.4-.08h-.41a9,9,0,0,0,8.94,9h2.84a9,9,0,0,0,8.94-9v-5.69a3.84,3.84,0,0,0,0-.39l-.4,0-.06.4c1.19.16,1.85.29,1.85.29h0a2.33,2.33,0,0,0,2.75-1.82h0a2.33,2.33,0,0,0-1.82-2.77h0l-.08.4-.08.4a1.53,1.53,0,0,1-.6,3h0s-.7-.14-1.9-.3a.44.44,0,0,0-.33.11.39.39,0,0,0-.13.32c0,.14,0,.24,0,.35V136a8.2,8.2,0,0,1-2.39,5.79,8.07,8.07,0,0,1-5.74,2.4h-2.84a8.09,8.09,0,0,1-5.74-2.4,8.21,8.21,0,0,1-2.39-5.79v-.07a2.81,2.81,0,0,0-2.92-2.18,2.83,2.83,0,0,0-2.38,1.08,2.74,2.74,0,0,0-.5,1.11V136a8.23,8.23,0,0,1-2.38,5.79,8.11,8.11,0,0,1-5.74,2.4h-2.85a8.07,8.07,0,0,1-5.73-2.4A8.21,8.21,0,0,1,277,136v-5.69c0-.15,0-.29,0-.47a.4.4,0,0,0-.38-.43h-.06c-.87.07-1.65.13-2.27.13a1.54,1.54,0,0,1,0-3.07c.79,0,1.94-.11,3.28-.23,1.95-.19,4.37-.41,6.81-.41a28.65,28.65,0,0,1,3.85.23,27.93,27.93,0,0,1,6.78,1.89,10.71,10.71,0,0,0,3.39,1,5.5,5.5,0,0,0,1.43-.28c.54-.16,1.16-.37,1.78-.59a30.77,30.77,0,0,1,10.69-2.13,62.06,62.06,0,0,1,11.63.93l.08-.4"/><path class="cls-1" d="M289.09,142.57v-.41h-2.18a6,6,0,0,1-4.32-1.87,6.48,6.48,0,0,1-1.8-4.49v-4.49A3.72,3.72,0,0,1,281,130a1.53,1.53,0,0,1,.92-.91,4.94,4.94,0,0,1,1.77-.24c.93,0,2,.1,3.22.1h2.18a6,6,0,0,1,4.32,1.87,6.48,6.48,0,0,1,1.8,4.49v.54a6.47,6.47,0,0,1-1.8,4.49,6,6,0,0,1-4.32,1.87V143A7.07,7.07,0,0,0,296,135.8v-.54a7.07,7.07,0,0,0-6.91-7.18h-2.18c-1.15,0-2.24-.1-3.22-.1a4.4,4.4,0,0,0-2.61.59,2.34,2.34,0,0,0-.81,1.07,4.57,4.57,0,0,0-.27,1.67v4.49a7.07,7.07,0,0,0,6.91,7.18h2.18v-.41m21.82,0V143h2.18A7.07,7.07,0,0,0,320,135.8v-4.49a4.57,4.57,0,0,0-.27-1.67,2.31,2.31,0,0,0-1.38-1.37,5.69,5.69,0,0,0-2-.29c-1,0-2.07.1-3.22.1h-2.18a7.07,7.07,0,0,0-6.91,7.18v.54a7.07,7.07,0,0,0,6.91,7.18v-.82a6,6,0,0,1-4.32-1.87,6.48,6.48,0,0,1-1.8-4.49v-.54a6.45,6.45,0,0,1,1.8-4.49,6,6,0,0,1,4.32-1.87h2.18c1.19,0,2.29-.1,3.22-.1a3.8,3.8,0,0,1,2.16.45,1.49,1.49,0,0,1,.53.7,3.72,3.72,0,0,1,.21,1.36v4.49a6.47,6.47,0,0,1-1.8,4.49,6,6,0,0,1-4.32,1.87h-2.18v.41"/><path class="cls-1" d="M280.73,140.85l11.15-11.15a.42.42,0,0,0,0-.59h0a.43.43,0,0,0-.6,0l-11.15,11.15a.43.43,0,0,0,0,.6h0a.43.43,0,0,0,.6,0m10-6,4.11-4.12a.44.44,0,0,0,0-.62h0a.45.45,0,0,0-.63,0l-4.11,4.12a.44.44,0,0,0,0,.62h0a.45.45,0,0,0,.63,0m-6,7,4.1-4.11a.45.45,0,0,0,0-.63h0a.47.47,0,0,0-.64,0l-4.1,4.11a.45.45,0,0,0,0,.63h0a.46.46,0,0,0,.64,0m22-1,11.15-11.16a.42.42,0,0,0,0-.59h0a.43.43,0,0,0-.6,0l-11.15,11.15a.44.44,0,0,0,0,.6h0a.43.43,0,0,0,.6,0m8-6,4.11-4.12a.44.44,0,0,0,0-.62h0a.45.45,0,0,0-.63,0l-4.11,4.12a.44.44,0,0,0,0,.62h0a.45.45,0,0,0,.63,0m-6,7,4.16-4.17a.41.41,0,0,0,0-.58h0a.42.42,0,0,0-.59,0l-4.16,4.17a.42.42,0,0,0,0,.59h0a.43.43,0,0,0,.6,0"/><path class="cls-1" d="M162,33l-.44,0a7.3,7.3,0,0,0-4.14,1.6A20.23,20.23,0,0,0,152,41a17.51,17.51,0,0,0-2.4,8.12,7.84,7.84,0,0,0,.92,3.86l.41-.22,0-.46c-.21,0-.42,0-.63,0a31.74,31.74,0,0,0-8.16,1.43,64.23,64.23,0,0,0-15.33,6.74c-4.91,3-9.12,6.75-11.11,11l.43.2.34-.32a6.65,6.65,0,0,0-3.39-1.63,24.8,24.8,0,0,0-5.38-.49,81.56,81.56,0,0,0-19.93,3h0a85.4,85.4,0,0,0-16.58,7.27,30.61,30.61,0,0,0-5.42,3.91,7.24,7.24,0,0,0-2.45,3.73l.46.08.24-.39c-3.7-2.26-8.73-3.12-14-3.12a63,63,0,0,0-15.34,2C30,87,26.09,88.59,24,90.15l.28.37.47,0A8.3,8.3,0,0,0,22.78,86,19.5,19.5,0,0,0,16,80.91a19.21,19.21,0,0,0-7.89-2A6.42,6.42,0,0,0,4,80.08l.59.71a5.54,5.54,0,0,1,3.53-1,20,20,0,0,1,10,3.29,16.29,16.29,0,0,1,4,3.47,7.35,7.35,0,0,1,1.75,4,.47.47,0,0,0,.51.43.5.5,0,0,0,.23-.09c1.93-1.43,5.76-3,10.36-4.2a62.4,62.4,0,0,1,15.11-2c5.19,0,10.07.86,13.53,3a.48.48,0,0,0,.65-.15.49.49,0,0,0,.06-.17,6.48,6.48,0,0,1,2.17-3.22,39.33,39.33,0,0,1,8.77-5.71,95,95,0,0,1,12.88-5.26l-.15-.43.12.44a80.94,80.94,0,0,1,19.69-3,23.8,23.8,0,0,1,5.17.47A5.67,5.67,0,0,1,115.8,72a.46.46,0,0,0,.66,0,.49.49,0,0,0,.11-.14c2.46-5.3,8.9-10,15.75-13.33a62.86,62.86,0,0,1,10.09-3.9,31,31,0,0,1,7.91-1.4l.58,0a.47.47,0,0,0,.42-.22.44.44,0,0,0,0-.47,6.85,6.85,0,0,1-.8-3.41c0-3.19,1.6-7.06,3.82-10.08A17.2,17.2,0,0,1,158,35.33a6.41,6.41,0,0,1,3.59-1.43l.34,0L162,33"/><path class="cls-1" d="M90,36c.12-.1,1.79,1.66,4.27,4.67s5.82,7.25,9.34,12.05,6.58,9.23,8.62,12.57a37.2,37.2,0,0,1,2.24,4.07,5.89,5.89,0,0,1,.44,1.2c.08.28.1.43.06.44s-.14-.11-.28-.36-.33-.61-.64-1.06c-.56-.92-1.43-2.23-2.54-3.82-2.2-3.2-5.36-7.55-8.88-12.33l-9-12.23C91.3,38,89.88,36.09,90,36m35-7c.09-.12,1.81.79,4.39,2.53A106.53,106.53,0,0,1,139,38.93c3.58,3.08,6.64,6,8.77,8.26S151.11,50.87,151,51s-5.7-5.07-12.81-11.19q-4.56-3.91-9.31-7.61c-2.43-1.89-4-3-3.87-3.18M114,72.56c.34.74.7,1.47,1.09,2.19a.5.5,0,0,0,.63.19.41.41,0,0,0,.2-.57l-.34-.65c-.21-.4-.47-.93-.72-1.48a.48.48,0,0,0-.6-.23.42.42,0,0,0-.26.55m35.13-20.67,2,2a.49.49,0,0,0,.69,0l0,0a.55.55,0,0,0,0-.75l-2-2a.48.48,0,0,0-.69,0l0,0a.54.54,0,0,0,0,.74M63.92,45c.15,0,.06,2.43-.08,6.32s-.35,9.26-.57,15.2-.36,11.31-.39,15.19c0,2,0,3.52,0,4.59,0,.55.05,1,.06,1.24s0,.45,0,.46-.09-.12-.18-.4a6.7,6.7,0,0,1-.27-1.24,41.55,41.55,0,0,1-.38-4.63c-.17-3.91-.14-9.31.07-15.26s.54-11.33.89-15.21.7-6.28.85-6.26M35,57c.19.07-.5,2-1.53,5.13q-2,6.09-3.72,12.29C27.07,84.07,25.47,92,25.07,92c-.18,0,0-2.06.53-5.31S27.06,79,28.39,74.09a106,106,0,0,1,4.13-12.28C33.8,58.74,34.81,56.92,35,57M64,87.46a16.21,16.21,0,0,1,.6,2.17c0,.22.39.37.78.35s.65-.23.61-.44a22.83,22.83,0,0,0-.62-2.24c-.08-.21-.44-.35-.82-.31s-.62.25-.55.47"/><path class="cls-1" d="M24.78,90.3,24,92.47c-.08.23.12.45.45.5a.66.66,0,0,0,.74-.31s.74-2.08.77-2.17-.12-.45-.45-.5a.69.69,0,0,0-.75.31M78,40.58c6.72,22.11,22.61,73.58,23.06,75.07a.47.47,0,0,0,.9-.27h0c-.46-1.5-16.34-53-23.06-75.07a.48.48,0,0,0-.6-.29.47.47,0,0,0-.3.56M64,.57C64,.62,65.1,4,67.11,10.66a.44.44,0,0,0,.57.29.47.47,0,0,0,.3-.56C66,3.74,64.91.35,64.89.3A.44.44,0,0,0,64.31,0,.45.45,0,0,0,64,.57"/><path class="cls-1" d="M99,114.19l6.38,22a8,8,0,0,0,3,4.37,7.38,7.38,0,0,0,4.39,1.39,8.45,8.45,0,0,0,5.62-2.14,7.79,7.79,0,0,0,2.62-5.93,9.81,9.81,0,0,0-.42-2.8.89.89,0,0,0-1.1-.63h0a1,1,0,0,0-.6,1.18,8.26,8.26,0,0,1,.34,2.25,5.91,5.91,0,0,1-2,4.51,6.77,6.77,0,0,1-4.44,1.68,5.7,5.7,0,0,1-3.36-1,6.15,6.15,0,0,1-2.24-3.38l-6.38-22a.91.91,0,0,0-1.11-.64h0a.94.94,0,0,0-.61,1.17m-49-95.08.41.22c.56-1,1-1.9,1.53-2.64a6.77,6.77,0,0,1,2.88-2.55A18.88,18.88,0,0,1,61,12.8,48.92,48.92,0,0,0,68.73,11a48.58,48.58,0,0,0,7.4-2.73c3.23-1.73,5.29-2.36,6.92-2.36a6.8,6.8,0,0,1,2.62.55,28.26,28.26,0,0,1,2.89,1.43l.22-.41-.25.39a4,4,0,0,0,2.14.48,44.21,44.21,0,0,0,5.51-.69A54.49,54.49,0,0,1,104.6,7c11.48,0,29.59,4.05,56.64,26.36l.3-.35.16-.43a82.59,82.59,0,0,0-13.76-3.44,106.07,106.07,0,0,0-17.89-1.74,41,41,0,0,0-9.77,1c-2.76.71-5,1.83-6.18,3.58l.38.27,0-.46c-.62-.06-1.23-.09-1.85-.09-6.89,0-21.49,2.64-35.65,6.9a204,204,0,0,0-21.67,7.88c-6.25,2.71-11.1,5.26-13.37,7.13l.29.36.17-.43A6.85,6.85,0,0,0,39.86,53c-2.77,0-6.06,1.25-9.56,3.19-10.52,5.86-23,18.16-27.21,24l.37.27.44.13c9-29.33,19.94-43.24,28.94-50.5a52.31,52.31,0,0,1,11.6-7c1.54-.71,2.84-1.28,3.86-1.85a4.84,4.84,0,0,0,2.18-2l-.42-.2.41.22-.41-.22-.42-.19a4,4,0,0,1-1.79,1.57c-1.67.94-4.37,2-7.67,3.71A54.62,54.62,0,0,0,22.29,39.79C15.72,48.34,8.92,61.06,3,80.38a.47.47,0,0,0,.31.58.49.49,0,0,0,.51-.17C6.56,77,13,70.23,20.09,64.47A75.44,75.44,0,0,1,30.74,57C34.18,55.12,37.37,54,39.86,54a6.18,6.18,0,0,1,2.25.39.43.43,0,0,0,.46-.07c2.12-1.74,7-4.31,13.15-7a202.9,202.9,0,0,1,21.57-7.84c14.08-4.24,28.7-6.87,35.39-6.86a14.94,14.94,0,0,1,1.75.08.48.48,0,0,0,.43-.2c1-1.47,3-2.54,5.65-3.21a39.69,39.69,0,0,1,9.54-1A106.55,106.55,0,0,1,147.78,30a82.91,82.91,0,0,1,13.59,3.4.46.46,0,0,0,.46-.79C134.68,10.2,116.31,6,104.6,6a55.53,55.53,0,0,0-8.55.7,44.92,44.92,0,0,1-5.38.69A3.07,3.07,0,0,1,89,7.07h0a32.51,32.51,0,0,0-3-1.47,7.72,7.72,0,0,0-3-.61C81.17,5,79,5.69,75.7,7.44a47.72,47.72,0,0,1-7.24,2.67A48.24,48.24,0,0,1,61,11.88c-4,.37-6.22,1-7.8,2.21a8.29,8.29,0,0,0-1.93,2.08c-.53.8-1,1.7-1.57,2.72l0,0,.42.19"/><path class="cls-1" d="M114,33c-.11.12-1.8-1.31-4.29-3.84s-5.81-6.11-9.59-9.95a83,83,0,0,0-10.28-9.11C87,8,84.93,7.19,85,7s2.26.43,5.32,2.37a63,63,0,0,1,10.67,9c3.81,3.86,7,7.55,9.35,10.21S114.11,32.85,114,33m47.22.75,2.13,1.2a.45.45,0,0,0,.6-.13.39.39,0,0,0-.11-.53l0,0L161.66,33a.45.45,0,0,0-.6.13.39.39,0,0,0,.11.53l0,0m-47.08,0,2.15,2.11a.41.41,0,0,0,.6,0,.46.46,0,0,0,0-.63l-2.15-2.11a.42.42,0,0,0-.59,0v0a.45.45,0,0,0,0,.63M43.05,55c-.18,0,.13-2.22.58-5.76s1.09-8.43,2.12-13.81a60.29,60.29,0,0,1,4-13.49c1.51-3.32,3.13-5,3.22-4.94s-1.12,1.95-2.39,5.27A80.58,80.58,0,0,0,47,35.64c-1,5.33-1.79,10.2-2.49,13.72S43.22,55,43.05,55M4.14,80.22,3,82.39a.4.4,0,0,0,.22.55.47.47,0,0,0,.6-.2L5,80.57A.4.4,0,0,0,4.74,80a.47.47,0,0,0-.6.2M42.9,55.33,42,58.42a.47.47,0,0,0,.42.55.57.57,0,0,0,.67-.34L44,55.54a.46.46,0,0,0-.41-.55.58.58,0,0,0-.67.34m128.3,3.48,17.13,11.1a.44.44,0,0,0,.6-.13h0a.46.46,0,0,0-.13-.62l-17.13-11.1a.44.44,0,0,0-.6.13h0a.46.46,0,0,0,.13.62m-29.06,18,46.1,44.08a.44.44,0,0,0,.63,0h0a.47.47,0,0,0,0-.65l-46.1-44.07a.44.44,0,0,0-.63,0h0a.47.47,0,0,0,0,.65M125.06,93.67l9,16.06a.53.53,0,0,0,.69.2.47.47,0,0,0,.23-.61l0,0-9-16.06a.54.54,0,0,0-.69-.2.47.47,0,0,0-.23.61l0,0m-117,8.58L0,119.32a.47.47,0,0,0,.23.61h0a.5.5,0,0,0,.64-.23l8-17.07a.47.47,0,0,0-.23-.61h0a.5.5,0,0,0-.64.23M68,109.42l.53,9.15c0,.23.35.42.76.41s.72-.21.71-.44l-.53-9.15c0-.23-.36-.42-.76-.41s-.72.21-.71.44m-34-1-8,42.06a.46.46,0,0,0,.4.54.49.49,0,0,0,.58-.38l8-42.06a.47.47,0,0,0-.4-.54.49.49,0,0,0-.58.38"/></g></g></svg>