<?xml version="1.0" encoding="UTF-8"?>
<svg width="70px" height="57px" viewBox="0 0 70 57" version="1.1" xmlns="http://www.w3.org/2000/svg" xmlns:xlink="http://www.w3.org/1999/xlink">
    <!-- Generator: Sketch 54.1 (76490) - https://sketchapp.com -->
    <title>Icone app Yolo_Metodo di pagamento 3</title>
    <desc>Created with Sketch.</desc>
    <g id="Sport" stroke="none" stroke-width="1" fill="none" fill-rule="evenodd">
        <g id="sport-bike-step-3" transform="translate(-1181.000000, -930.000000)" fill-rule="nonzero">
            <g id="Icone-app-Yolo_Metodo-di-pagamento-3" transform="translate(1181.000000, 930.000000)">
                <g id="Icone-app-Yolo_Metodo-di-pagamento-2">
                    <path d="M70,57 C70,56.7463768 70,56.4927536 70,56.2391304 C70,37.3442029 54.3148148,22 35,22 C15.6851852,22 0,37.3442029 0,56.2391304 C0,56.4927536 0,56.7463768 0,57 L70,57 L70,57 Z" id="Path" fill="#F7C3C0"></path>
                    <g id="Group" transform="translate(8.000000, 0.000000)">
                        <path d="M53.8909091,25.0022727 L25.3909091,53.3727273 C24.8727273,53.8909091 24.225,54.15 23.4477273,54.15 L23.4477273,54.15 C22.6704545,54.15 22.0227273,53.8909091 21.5045455,53.3727273 L6.60681818,38.475 L33.9409091,11.2704545 C34.4590909,10.7522727 34.4590909,10.1045455 33.9409091,9.58636364 C33.4227273,9.06818182 32.775,9.06818182 32.2568182,9.58636364 L4.92272727,36.9204545 L3.49772727,35.4954545 C2.97954545,34.9772727 2.72045455,34.3295455 2.72045455,33.5522727 C2.72045455,32.775 2.97954545,32.1272727 3.49772727,31.6090909 L31.9977273,3.10909091 C32.5159091,2.59090909 33.1636364,2.33181818 33.9409091,2.33181818 C34.7181818,2.33181818 35.3659091,2.59090909 35.8840909,3.10909091 L42.2318182,9.45681818 L15.0272727,36.7909091 C14.5090909,37.3090909 14.5090909,37.9568182 15.0272727,38.475 C15.2863636,38.7340909 15.5454545,38.8636364 15.8045455,38.8636364 C16.0636364,38.8636364 16.4522727,38.7340909 16.5818182,38.475 L43.9159091,11.2704545 L53.7613636,21.1159091 C54.9272727,22.1522727 54.9272727,23.9659091 53.8909091,25.0022727 Z" id="Path" fill="#FFFFFF"></path>
                        <g fill="#4C0804">
                            <path d="M55.4454545,19.4318182 L37.5681818,1.55454545 C36.6613636,0.518181818 35.3659091,0 33.9409091,0 C32.5159091,0 31.2204545,0.518181818 30.3136364,1.55454545 L1.94318182,29.925 C1.03636364,30.8318182 0.388636364,32.1272727 0.388636364,33.5522727 C0.388636364,34.9772727 0.906818182,36.2727273 1.94318182,37.1795455 L4.14545455,39.3818182 C4.14545455,39.3818182 4.14545455,39.3818182 4.14545455,39.3818182 C4.14545455,39.3818182 4.14545455,39.3818182 4.14545455,39.3818182 L19.0431818,54.2795455 L16.9704545,54.2795455 C16.3227273,54.2795455 15.8045455,54.7977273 15.8045455,55.4454545 C15.8045455,56.0931818 16.3227273,56.6113636 16.9704545,56.6113636 L23.4477273,56.6113636 C23.4477273,56.6113636 23.4477273,56.6113636 23.4477273,56.6113636 C23.4477273,56.6113636 23.4477273,56.6113636 23.4477273,56.6113636 L40.4181818,56.6113636 C41.0659091,56.6113636 41.5840909,56.0931818 41.5840909,55.4454545 C41.5840909,54.7977273 41.0659091,54.2795455 40.4181818,54.2795455 L27.8522727,54.2795455 L55.4454545,26.6863636 C57.5181818,24.6136364 57.5181818,21.375 55.4454545,19.4318182 Z M3.62727273,35.4954545 C3.10909091,34.9772727 2.85,34.3295455 2.85,33.5522727 C2.85,32.775 3.10909091,32.1272727 3.62727273,31.6090909 L31.9977273,3.10909091 C32.5159091,2.59090909 33.1636364,2.33181818 33.9409091,2.33181818 C34.7181818,2.33181818 35.3659091,2.59090909 35.8840909,3.10909091 L37.3090909,4.53409091 L4.92272727,36.9204545 L3.62727273,35.4954545 Z M38.9931818,6.21818182 L42.3613636,9.58636364 L9.975,41.9727273 L6.60681818,38.6045455 L38.9931818,6.21818182 Z M53.8909091,25.0022727 L25.3909091,53.3727273 C24.8727273,53.8909091 24.225,54.15 23.4477273,54.15 L23.4477273,54.15 C22.6704545,54.15 22.0227273,53.8909091 21.5045455,53.3727273 L11.6590909,43.5272727 L44.0454545,11.1409091 L53.8909091,20.9863636 C54.9272727,22.1522727 54.9272727,23.9659091 53.8909091,25.0022727 Z" id="Shape"></path>
                            <path d="M29.4068182,34.0704545 C28.8886364,33.5522727 28.2409091,33.5522727 27.7227273,34.0704545 L18.3954545,43.3977273 C17.8772727,43.9159091 17.8772727,44.5636364 18.3954545,45.0818182 C18.6545455,45.3409091 18.9136364,45.4704545 19.1727273,45.4704545 C19.4318182,45.4704545 19.8204545,45.3409091 19.95,45.0818182 L29.2772727,35.7545455 C29.925,35.2363636 29.925,34.4590909 29.4068182,34.0704545 Z" id="Path"></path>
                            <path d="M25.65,42.8795455 L21.8931818,46.6363636 C21.375,47.1545455 21.375,47.8022727 21.8931818,48.3204545 C22.1522727,48.5795455 22.4113636,48.7090909 22.6704545,48.7090909 C22.9295455,48.7090909 23.3181818,48.5795455 23.4477273,48.3204545 L27.2045455,44.5636364 C27.7227273,44.0454545 27.7227273,43.3977273 27.2045455,42.8795455 C26.8159091,42.3613636 26.1681818,42.3613636 25.65,42.8795455 Z" id="Path"></path>
                            <path d="M29.1477273,39.3818182 L28.6295455,39.9 C28.1113636,40.4181818 28.1113636,41.0659091 28.6295455,41.5840909 C28.8886364,41.8431818 29.1477273,41.9727273 29.4068182,41.9727273 C29.6659091,41.9727273 30.0545455,41.8431818 30.1840909,41.5840909 L30.7022727,41.0659091 C31.2204545,40.5477273 31.2204545,39.9 30.7022727,39.3818182 C30.3136364,38.8636364 29.6659091,38.8636364 29.1477273,39.3818182 Z" id="Path"></path>
                            <path d="M45.3409091,18.1363636 C45.0818182,17.8772727 44.8227273,17.7477273 44.5636364,17.7477273 C44.3045455,17.7477273 43.9159091,17.8772727 43.7863636,18.1363636 L38.7340909,23.1886364 C38.475,23.4477273 38.3454545,23.7068182 38.3454545,23.9659091 C38.3454545,24.225 38.475,24.6136364 38.7340909,24.7431818 L42.1022727,28.1113636 C42.3613636,28.3704545 42.6204545,28.5 42.8795455,28.5 C43.1386364,28.5 43.5272727,28.3704545 43.6568182,28.1113636 L48.7090909,23.0590909 C49.2272727,22.5409091 49.2272727,21.8931818 48.7090909,21.375 L45.3409091,18.1363636 Z M42.8795455,25.65 L41.1954545,23.9659091 L44.5636364,20.5977273 L46.2477273,22.2818182 L42.8795455,25.65 Z" id="Shape"></path>
                        </g>
                        <polygon id="Rectangle" fill="#E63027" transform="translate(24.380046, 24.018654) rotate(-45.000000) translate(-24.380046, -24.018654) " points="1.51549302 21.6868577 47.2445999 21.6868577 47.2445999 26.3504493 1.51549302 26.3504493"></polygon>
                        <polygon id="Rectangle" fill="#E63027" transform="translate(43.652997, 23.130354) rotate(-45.000000) translate(-43.652997, -23.130354) " points="41.3212008 21.964456 45.9847924 21.964456 45.9847924 24.2962518 41.3212008 24.2962518"></polygon>
                    </g>
                </g>
            </g>
        </g>
    </g>
</svg>