<?xml version="1.0" encoding="utf-8"?>
<!-- Generator: Adobe Illustrator 23.0.1, SVG Export Plug-In . SVG Version: 6.00 Build 0)  -->
<svg version="1.1" id="Livello_3" xmlns="http://www.w3.org/2000/svg" xmlns:xlink="http://www.w3.org/1999/xlink" x="0px" y="0px"
	 viewBox="0 0 118.5 119.5" style="enable-background:new 0 0 118.5 119.5;" xml:space="preserve">
<style type="text/css">
	.st0{fill:#032C4E;}
</style>
<g>
	<path class="st0" d="M72.92,67.54c1.42,0.46,2.54,1.58,3,3c0.26,0.8,0.72,1.52,1.34,2.1c0.89,0.83,2.08,1.29,3.34,1.29
		c1.35,0,2.67-0.54,3.62-1.49l16.56-16.56c1.91-1.91,2-5.02,0.2-6.95c-0.58-0.62-1.3-1.08-2.1-1.34c-1.42-0.46-2.54-1.58-3-3
		c-0.26-0.8-0.72-1.52-1.34-2.1c-1.51-1.41-3.8-1.69-5.7-0.72l-0.58,0.3l-0.19-0.19L69.22,23.04l0.3-0.58
		c0.98-1.9,0.69-4.19-0.72-5.7c-0.58-0.62-1.3-1.08-2.1-1.34c-1.42-0.46-2.54-1.58-3-3c-0.26-0.8-0.72-1.53-1.34-2.1
		c-1.93-1.8-5.05-1.71-6.95,0.2L38.85,27.08c-1.91,1.91-2,5.03-0.2,6.95c0.58,0.62,1.3,1.08,2.1,1.34c1.42,0.46,2.54,1.58,3,3
		c0.26,0.8,0.72,1.53,1.34,2.1c1.46,1.36,3.86,1.67,5.7,0.72l0.58-0.3l6.18,6.18l-0.26,0.27L9.66,94.97c-1.01,1-1.56,2.35-1.56,3.77
		c0,1.43,0.55,2.77,1.56,3.78c1.01,1.01,2.35,1.56,3.77,1.56s2.77-0.55,3.78-1.56L65.1,54.63l5.29,5.29l-0.3,0.58
		c-0.98,1.9-0.69,4.19,0.72,5.7C71.39,66.82,72.12,67.28,72.92,67.54z M96.58,47.69l0.6,0.38c0.42,0.26,0.86,0.47,1.32,0.62
		c0.62,0.2,1.16,0.54,1.61,1.03c1.37,1.48,1.3,3.87-0.17,5.34L83.39,71.62c-0.73,0.73-1.75,1.15-2.79,1.15
		c-0.96,0-1.87-0.35-2.55-0.98c-0.48-0.45-0.83-0.99-1.03-1.61c-0.15-0.46-0.36-0.9-0.62-1.32l-0.38-0.6l0.21-0.21L96.58,47.69z
		 M43.03,35.27l-0.6-0.38c-0.42-0.26-0.86-0.47-1.32-0.62c-0.62-0.2-1.16-0.55-1.61-1.03c-1.37-1.47-1.3-3.87,0.17-5.34l16.56-16.56
		c1.42-1.42,3.91-1.5,5.34-0.17c0.48,0.45,0.83,0.99,1.03,1.61c0.15,0.46,0.36,0.9,0.62,1.32l0.38,0.6l-0.21,0.21L43.03,35.27z
		 M51.22,39.45c-0.73,0.73-1.75,1.15-2.79,1.15c-0.96,0-1.87-0.35-2.55-0.98c-0.48-0.45-0.83-0.99-1.03-1.61
		c-0.15-0.46-0.36-0.9-0.62-1.32l-0.38-0.6l0.21-0.21l20.35-20.35l0.6,0.38c0.42,0.26,0.86,0.47,1.32,0.62
		c0.62,0.2,1.16,0.55,1.61,1.03c1.37,1.48,1.3,3.87-0.17,5.34L51.22,39.45z M64.01,54.07l-47.63,47.62
		c-0.79,0.79-1.84,1.22-2.95,1.22c-1.12,0-2.17-0.43-2.95-1.22c-0.79-0.79-1.22-1.84-1.22-2.95s0.43-2.16,1.22-2.95L58.38,47.9
		l5.9,5.9L64.01,54.07z M52.22,40.1l16.2-16.2l0.27,0.26l18.7,18.7l-16.2,16.2l-0.27-0.26L52.22,40.1z M71.84,60.07l16.56-16.56
		c1.42-1.42,3.91-1.5,5.34-0.17c0.48,0.45,0.83,0.99,1.03,1.61c0.15,0.46,0.36,0.9,0.62,1.32l0.38,0.6l-0.21,0.21L75.2,67.43
		l-0.6-0.38c-0.42-0.26-0.86-0.47-1.32-0.62c-0.62-0.2-1.16-0.55-1.61-1.03C70.29,63.93,70.37,61.54,71.84,60.07z"/>
	<path class="st0" d="M53.46,103.71l0,6.27c0,0.32,0.26,0.58,0.58,0.58h53.81c0.32,0,0.58-0.26,0.58-0.58l0-6.27
		c0-0.13-0.04-0.25-0.12-0.35l-6.17-8.07v-3.88c0-0.32-0.26-0.58-0.58-0.58H60.34c-0.32,0-0.58,0.26-0.58,0.58v3.88l-6.17,8.06
		C53.5,103.45,53.46,103.58,53.46,103.71z M60.92,91.99h40.06v2.91H60.92V91.99z M60.62,96.07h40.65l5.4,7.06H55.22L60.62,96.07z
		 M54.63,104.29h52.65v5.11H54.63V104.29z"/>
	<path class="st0" d="M68.71,29.89c-0.16,0-0.3,0.06-0.41,0.17c-0.23,0.23-0.23,0.59,0,0.82l12.11,12.11
		c0.1,0.1,0.25,0.16,0.41,0.16h0c0.16,0,0.31-0.06,0.41-0.16c0.23-0.23,0.23-0.6,0-0.82L69.12,30.06
		C69.01,29.95,68.86,29.89,68.71,29.89z"/>
</g>
</svg>
