<svg xmlns="http://www.w3.org/2000/svg" width="94" height="212" viewBox="0 0 94 212">
    <g fill="none" fill-rule="evenodd">
        <path fill="#FFFFFE" d="M33 48V0"/>
        <path stroke="#C8C7C8" stroke-linejoin="round" d="M33 48V0"/>
        <path fill="#FFFFFE" d="M-9 211h84v-96H-9z"/>
        <path stroke="#C8C7C8" stroke-linejoin="round" d="M-9 211h84v-96H-9z"/>
        <path fill="#FFFFFE" d="M93.318 77.931l-19.43 36.525-83.759-.001-19.428-36.524H93.318"/>
        <path stroke="#C8C7C8" stroke-linejoin="round" d="M93.318 77.931l-19.43 36.525-83.759-.001-19.428-36.524z"/>
        <path fill="#FFFFFE" d="M31.581 30.312l54.637 47.612H-23.057l54.638-47.612"/>
        <path stroke="#C8C7C8" stroke-linejoin="round" d="M31.581 30.312l54.637 47.612H-23.057z"/>
        <path fill="#FFFFFE" d="M93.318 77.931v8.099"/>
        <path stroke="#C8C7C8" stroke-linejoin="round" d="M93.318 77.931v8.099"/>
        <path fill="#FFFFFE" d="M82.172 77.931v8.099"/>
        <path stroke="#C8C7C8" stroke-linejoin="round" d="M82.172 77.931v8.099"/>
        <path fill="#FFFFFE" d="M71 79v7"/>
        <path stroke="#C8C7C8" stroke-linejoin="round" d="M71 79v7"/>
        <path fill="#FFFFFE" d="M60 79v7"/>
        <path stroke="#C8C7C8" stroke-linejoin="round" d="M60 79v7"/>
        <path fill="#FFFFFE" d="M51 79v7"/>
        <path stroke="#C8C7C8" stroke-linejoin="round" d="M51 79v7"/>
        <path fill="#FFFFFE" d="M38 79v7"/>
        <path stroke="#C8C7C8" stroke-linejoin="round" d="M38 79v7"/>
        <path fill="#FFFFFE" d="M27 79v7"/>
        <path stroke="#C8C7C8" stroke-linejoin="round" d="M27 79v7"/>
        <path fill="#FFFFFE" d="M16 79v7"/>
        <path stroke="#C8C7C8" stroke-linejoin="round" d="M16 79v7"/>
        <path fill="#FFFFFE" d="M33 129v16"/>
        <path stroke="#C8C7C8" stroke-linejoin="round" d="M33 129v16"/>
        <path fill="#FFFFFE" d="M33 165v16"/>
        <path stroke="#C8C7C8" stroke-linejoin="round" d="M33 165v16"/>
    </g>
</svg>
