<?xml version="1.0" encoding="utf-8"?>
<!-- Generator: Adobe Illustrator 22.1.0, SVG Export Plug-In . SVG Version: 6.00 Build 0)  -->
<svg version="1.1" id="Livello_1" xmlns="http://www.w3.org/2000/svg" xmlns:xlink="http://www.w3.org/1999/xlink" x="0px" y="0px"
	 viewBox="0 0 50 50" style="enable-background:new 0 0 50 50;" xml:space="preserve">
<style type="text/css">
	.st0{fill:#FFFFFF;}
</style>
<g>
	<path class="st0" d="M49,29.1v19.1h-9.5V30.9c0-4.3-1.6-7.3-5.5-7.3c-3,0-4.8,2-5.5,3.9c-0.3,0.7-0.4,1.6-0.4,2.6v18H17.3
		c0,0,0.1-29.2,0-32.2h10.8l0,3.7c0,0,0,0.1-0.1,0.1h0.1v-0.1c1.4-2.3,3.8-5.5,9.2-5.5C44,14.1,49,18.9,49,29.1L49,29.1z M6.2,1.3
		c-3.6,0-5.9,2.3-5.9,5.4c0,3,2.3,5.4,5.8,5.4h0.1c3.6,0,5.9-2.4,5.9-5.4C12,3.6,9.8,1.3,6.2,1.3L6.2,1.3z M1.6,48.2h9.5V15.9H1.6
		V48.2z"/>
</g>
</svg>
