<?xml version="1.0" encoding="UTF-8"?>
<svg width="21px" height="18px" viewBox="0 0 21 18" version="1.1" xmlns="http://www.w3.org/2000/svg" xmlns:xlink="http://www.w3.org/1999/xlink">
    <!-- Generator: Sketch 55.2 (78181) - https://sketchapp.com -->
    <title>logout</title>
    <desc>Created with Sketch.</desc>
    <g id="Home" stroke="none" stroke-width="1" fill="none" fill-rule="evenodd">
        <g id="vetrina---desktop" transform="translate(-1050.000000, -31.000000)" fill="#FFFFFF" fill-rule="nonzero" stroke="#FFFFFF">
            <g id="logout" transform="translate(1051.000000, 32.000000)">
                <path d="M18.4939815,8.34583333 L14.7902778,12.049537 C14.699537,12.1402778 14.5810185,12.1856482 14.4625,12.1856482 C14.3449074,12.1856482 14.2263889,12.1402778 14.1356482,12.049537 C13.9550926,11.8689815 13.9550926,11.575463 14.1356482,11.3949074 L17.0486111,8.48194444 L9.83287038,8.48194444 C9.57731482,8.48194444 9.3699074,8.27453704 9.3699074,8.01898149 C9.3699074,7.7625 9.57731482,7.55601851 9.83287038,7.55601851 L17.0486111,7.55601851 L14.1356482,4.64212962 C13.9550926,4.46157407 13.9550926,4.16805556 14.1356482,3.9875 C14.3162037,3.80694444 14.6097222,3.80694444 14.7902778,3.9875 L18.4939815,7.69120371 C18.674537,7.87175927 18.674537,8.16527778 18.4939815,8.34583333 Z M7.98148149,15.8888889 C3.64166667,15.8888889 0.111111111,12.3583333 0.111111111,8.01851851 C0.111111111,3.67870371 3.64166667,0.148148156 7.98148149,0.148148156 C9.33888889,0.148148156 10.6833333,0.505555556 11.8685185,1.18055556 C12.0907407,1.30648149 12.1685185,1.58981482 12.0425926,1.81203704 C11.9157407,2.03333333 11.6324074,2.11018518 11.4111111,1.98518518 C10.3638889,1.38888889 9.17870371,1.07407407 7.98148149,1.07407407 C4.15185184,1.07407407 1.03703704,4.18888889 1.03703704,8.01851851 C1.03703704,11.8481482 4.15185184,14.962963 7.98148149,14.962963 C9.17870371,14.962963 10.3638889,14.6481482 11.4111111,14.0527778 C11.6324074,13.9268518 11.9157407,14.0027778 12.0425926,14.2259259 C12.1685185,14.4481482 12.0907407,14.7305556 11.8685185,14.8574074 C10.6824074,15.5314815 9.33888889,15.8888889 7.98148149,15.8888889 Z" id="Shape"></path>
            </g>
        </g>
    </g>
</svg>