<?xml version="1.0" encoding="utf-8"?>
<!-- Generator: Adobe Illustrator 22.1.0, SVG Export Plug-In . SVG Version: 6.00 Build 0)  -->
<svg version="1.1" id="Livello_1" xmlns="http://www.w3.org/2000/svg" xmlns:xlink="http://www.w3.org/1999/xlink" x="0px" y="0px"
	 viewBox="0 0 952.5 274" style="enable-background:new 0 0 952.5 274;" xml:space="preserve">
<style type="text/css">
	.st0{fill:none;stroke:#FFFFFF;stroke-linejoin:round;}
	.st1{fill:none;stroke:#FFFFFF;stroke-linejoin:round;stroke-dasharray:12.07,12.07;}
	.st2{fill:none;stroke:#FFFFFF;stroke-linejoin:round;stroke-dasharray:11.84,11.84;}
	.st3{fill:none;stroke:#FFFFFF;stroke-linejoin:round;stroke-dasharray:12;}
	.st4{fill:none;stroke:#FFFFFF;stroke-miterlimit:10;}
</style>
<title>Risorsa 1</title>
<g id="Livello_2_1_">
	<g id="Livello_1-2">
		<g id="Livello_2-2">
			<g id="Visori">
				<path class="st0" d="M563.9,169.6l-36.6,46.9l-12-21.3l-14.8,6l5-19l-22.1-5.9L563.9,169.6z M515.6,195l47.3-24.9l-57,11.8"/>
				<path class="st0" d="M809.5,15.1l-19.8,2.7l2.3,17L779.8,28l-12.7,17.2L740.5,0.5L809.5,15.1z M789.4,17.6L741.3,1.1l38.3,26.7"
					/>
				<line class="st0" x1="586.5" y1="171" x2="592.1" y2="168.8"/>
				<path class="st1" d="M603.4,164.4l39.8-15.5c43.9-19.4,94.4-16.6,135.8,7.5l6.8,4c44.3,25.8,38.6,91.5-9.5,109.2l0,0
					c-36.6,13.5-76.4-10.6-87.4-38.6s13.4-76.9,54.9-84.4c69.3-23.6,124.8,75.1,208.4,40.1"/>
				<line class="st0" x1="483" y1="207.1" x2="477.4" y2="209.2"/>
				<path class="st2" d="M466.4,213.5l-36.2,14.1c-48.4,21.5-105.2,1.6-129.4-45.5l0,0c-14.1-27.4-28.6-57.3-54.2-67.1"/>
				<path class="st0" d="M240.9,113.2c-1.9-0.5-3.9-0.9-5.9-1.2"/>
				<path class="st3" d="M807.8,37.5c0,0,64,20,137.5,21.9"/>
				<path class="st4" d="M183.9,226.4H0.5v-25.9h158.3c13.8,0,25,11.1,25,24.9c0,0,0,0,0,0.1L183.9,226.4L183.9,226.4z M113.5,60.2
					v37.6l48.7,21.3V38L113.5,60.2z M113.2,60.4h-21v37.2h21V60.4z M92.2,60.4h-8c-9.9,0-18,8.1-18,18v1.2c0,9.9,8.1,18,18,18h8
					V60.4z M140.1,48v34.7 M140.1,90.3v7.6 M55,142.1v7.6 M188.5,59.5l13.7-13.2 M188.5,98.6l13.7,14.2 M190.5,79.1h21 M89.5,97.9
					l2.7,18.3 M117.6,119.2l-4.4-21.5 M69.7,115.7H17.9v46.9h51.8V115.7z M69.7,150l10.6,5.8c8.7,7,19.4,7.4,30.6,7.4h5.5
					c11,0,19.9-8.3,19.9-16.5v-9.5c0-9.8-7.9-17.8-17.7-17.8l0,0h-0.3l-7.8,0.2l-0.6-0.7c-4.8-5.6-13.2-6.4-18.9-1.6
					c-0.5,0.5-1.1,1-1.5,1.5l-1.5,1.8l-18.1,0.7 M39.4,115.7v46.9 M9.6,32.1H9c-4.6,0-8.3,3.7-8.3,8.3v160.4h17.1V40.3
					C17.9,35.8,14.2,32.1,9.6,32.1L9.6,32.1z M9.1,213.5h63.1 M79.7,213.4h15.6 M105.6,213.5h15.7"/>
			</g>
		</g>
	</g>
</g>
</svg>
