<svg width="300" height="300" viewBox="0 0 300 300" fill="none" xmlns="http://www.w3.org/2000/svg">
<path d="M150 0C67.29 0 0 67.29 0 150C0 232.71 67.29 300 150 300C232.71 300 300 232.71 300 150C300 67.29 232.71 0 150 0ZM150 270C83.831 270 30 216.168 30 150C30 83.832 83.831 30 150 30C216.169 30 270 83.832 270 150C270 216.168 216.169 270 150 270Z" fill="#8C0000"/>
<path d="M215.606 84.394C209.749 78.537 200.251 78.537 194.393 84.394L150 128.787L105.606 84.394C99.749 78.537 90.251 78.537 84.393 84.394C78.535 90.251 78.535 99.749 84.393 105.607L128.787 150L84.394 194.394C78.536 200.251 78.536 209.749 84.394 215.607C87.322 218.535 91.161 220 95 220C98.839 220 102.678 218.535 105.606 215.606L150 171.213L194.394 215.606C197.322 218.535 201.161 220 205 220C208.839 220 212.678 218.535 215.606 215.606C221.464 209.749 221.464 200.251 215.606 194.393L171.213 150L215.606 105.606C221.464 99.749 221.464 90.251 215.606 84.394Z" fill="#8C0000"/>
</svg>
