<?xml version="1.0" encoding="utf-8"?>
<!-- Generator: Adobe Illustrator 22.1.0, SVG Export Plug-In . SVG Version: 6.00 Build 0)  -->
<svg version="1.1" id="Livello_1" xmlns="http://www.w3.org/2000/svg" xmlns:xlink="http://www.w3.org/1999/xlink" x="0px" y="0px"
	 viewBox="0 0 120 100" style="enable-background:new 0 0 120 100;" xml:space="preserve">
<style type="text/css">
	.st0{fill:#FFFFFF;stroke:#0571C1;stroke-width:0.1;stroke-miterlimit:10;}
	.st1{fill:#218AE5;stroke:#0571C1;stroke-width:0.1;stroke-miterlimit:10;}
</style>
<g>
	<g>
		<path class="st0" d="M47.1,16.9c-0.1,0-0.3-0.1-0.4-0.2l-1.6-2.5c0-0.1-0.1-0.1-0.1-0.2l-0.4-2.8c0-0.2,0.1-0.4,0.3-0.5l3-0.8H48
			c0.2,0,0.3,0.1,0.4,0.2l0.1,0.2h0.2c0.2,0,0.3,0.1,0.3,0.3l0.6,2.1c0,0.1,0,0.1,0,0.2l-0.4,3c0,0.2-0.1,0.3-0.3,0.4L47,16.8
			C47.2,16.9,47.1,16.9,47.1,16.9z"/>
		<path class="st1" d="M48.2,10.4l0.2,0.4l0.4,0.1l0.6,2.1L49,16l-1.9,0.5L45.6,14l-0.4-2.8L48.2,10.4 M48.2,9.5c-0.1,0-0.1,0-0.2,0
			l-3,0.8c-0.4,0.1-0.7,0.5-0.6,0.9l0.4,2.8c0,0.1,0.1,0.2,0.1,0.3l1.6,2.5c0.2,0.3,0.4,0.4,0.7,0.4c0.1,0,0.1,0,0.2,0l1.9-0.5
			c0.3-0.1,0.6-0.4,0.6-0.7l0.4-3c0-0.1,0-0.2,0-0.3l-0.6-2.1c-0.1-0.3-0.3-0.5-0.6-0.6l0,0C48.8,9.7,48.5,9.5,48.2,9.5L48.2,9.5z"
			/>
	</g>
	<g>
		<path class="st0" d="M59,28.8c-1.4,0-5.1,0-6-0.2l-1.2-0.3c-0.5-0.1-0.8-0.2-1.2-0.4c-0.7-0.2-1.4-0.9-2-2.2l-2.8-10.2
			c0-0.1,0-0.2,0.1-0.3s0.2-0.2,0.3-0.2l3.2-0.5c0,0,0,0,0.1,0c0.2,0,0.3,0.1,0.4,0.3l3.4,8.5c0.9,0,1.9-0.1,2.9-0.3
			c0.8-0.1,1.5-0.2,2.3-0.2l0.9-0.1h0.5h0.6h0.2c0.1,0,0.6,0,0.6,0c0.1,0,0.3,0,0.4,0h0.2c0.2,0,0.3,0.1,0.5,0.1
			c1.9,0,2.7,0.9,3,1.5c0.5,0.9,0.5,2-0.1,2.8c-0.8,1.3-2.4,1.5-5.6,1.5L59,28.8z"/>
		<path class="st1" d="M49.3,15l3.5,8.8c1.6,0,3.6-0.3,5.5-0.5c0.1,0,0.1,0,0.2,0c0.2,0,0.3,0,0.5,0c0.1,0,0.2,0,0.2,0
			c0.1,0,0.3,0,0.4,0c0.1,0,0.2,0,0.2,0h0.1c0.1,0,0.2,0,0.3,0s0.2,0,0.2,0c0.1,0,0.2,0,0.4,0c0.1,0,0.1,0,0.2,0c0.1,0,0.2,0,0.4,0
			c0.1,0,0.1,0,0.2,0c0.2,0,0.3,0.1,0.5,0.1l0,0c2.9,0,3.4,2.4,2.6,3.6c-0.7,1.1-2.3,1.3-5.2,1.3c-0.2,0-0.3,0-0.5,0
			c-1.9,0-5.1-0.1-5.9-0.2c-0.2,0-0.4-0.1-0.6-0.1h-0.1c-0.1,0-0.1,0-0.2,0c-0.1,0-0.1,0-0.2,0h-0.1h-0.1l0,0
			c-0.4-0.1-0.8-0.2-1.1-0.3c-0.6-0.1-1.2-0.7-1.8-2l-2.8-10.1L49.3,15 M49.3,14.2L49.3,14.2L46,14.6c-0.2,0-0.4,0.2-0.6,0.4
			c-0.1,0.2-0.2,0.4-0.1,0.7l2.8,10.1c0,0,0,0.1,0.1,0.1c0.7,1.4,1.4,2.2,2.3,2.4c0.4,0.1,0.7,0.2,1.2,0.4h0.1h0.1H52h0.2h0.1h0.1
			h0.1l0.4,0.1H53c1.1,0.2,6,0.2,6,0.2h0.5c2.8,0,4.9-0.2,5.9-1.7c0.6-0.9,0.6-2.2,0.1-3.2c-0.4-0.6-1.2-1.7-3.3-1.7
			c-0.1,0-0.3-0.1-0.5-0.1h-0.1h-0.1c-0.1,0-0.3,0-0.4-0.1c-0.1,0-0.1,0-0.2,0c-0.2,0-0.3,0-0.4,0c-0.1,0-0.2,0-0.3,0h-0.3h-0.1
			h-0.3c-0.1,0-0.3,0-0.4,0H59h-0.2c-0.2,0-0.3,0-0.5,0h-0.1h-0.1c-0.8,0.1-1.5,0.1-2.3,0.2c-0.9,0.1-1.8,0.2-2.6,0.2l-3.3-8.2
			C50,14.4,49.7,14.2,49.3,14.2L49.3,14.2z"/>
	</g>
	<g>
		<path class="st0" d="M72.4,69.7c-0.1,0-0.1,0-0.2,0c-1-0.2-1.5-1.4-1.7-2.2c-2-2.4-3.5-2.9-4.4-3.2c-0.1,0-0.3-0.2-0.3-0.3
			l-0.7-3.8c0-0.2,0.1-0.4,0.3-0.5l1-0.2c0.3-0.2,0.5-0.4,0.7-0.6c0.3-0.3,0.7-0.6,1.1-0.8c0.2-0.1,0.4-0.1,0.5-0.1
			c0.6,0,1.1,0.4,1.5,1.1c0.3,0.5,0.4,1,0.5,1.4s0.2,0.8,0.4,1.1c1.6,2.8,2.3,5,2.1,6.7C73.3,69.6,72.7,69.7,72.4,69.7z"/>
		<path class="st1" d="M68.9,58.5c0.4,0,0.8,0.2,1.2,0.9c0.5,0.9,0.4,1.7,0.9,2.5c1.3,2.4,2.2,4.7,2.1,6.5c-0.1,0.6-0.3,0.9-0.6,0.9
			h-0.1c-0.8-0.1-1.3-1.3-1.3-1.9c-2.1-2.6-3.6-3.1-4.7-3.4l-0.7-3.8l1.1-0.2c0.7-0.4,1.2-1.2,1.8-1.4
			C68.6,58.5,68.8,58.5,68.9,58.5 M68.9,57.6L68.9,57.6c-0.2,0-0.5,0-0.7,0.1c-0.5,0.2-0.9,0.5-1.2,0.9c-0.2,0.2-0.4,0.4-0.6,0.5
			l-0.9,0.2c-0.4,0.1-0.7,0.5-0.6,1l0.7,3.8c0.1,0.3,0.3,0.6,0.6,0.7c1,0.3,2.2,0.7,4.2,3c0.2,0.9,0.8,2.2,2,2.4c0.1,0,0.2,0,0.2,0
			c0.6,0,1.3-0.4,1.4-1.6c0.2-1.8-0.5-4.1-2.2-7c-0.2-0.3-0.3-0.7-0.4-1c-0.1-0.4-0.2-0.9-0.5-1.5C70.2,57.9,69.4,57.6,68.9,57.6
			L68.9,57.6z"/>
	</g>
	<g>
		<path class="st0" d="M66.5,64.7l-15.4-2.2c-1.6-0.3-2.7-0.8-3.3-1.6c-0.4-0.4-1.1-1.5-0.5-3.6c1.1-3.7,3.2-6.2,5.7-9.1
			c1-1.1,1.9-2.3,2.9-3.6c0.2-0.6,0.4-1,0.5-1.4c0.2-0.6,0.3-1.3,1-2.4c0.1-0.1,0.2-0.2,0.4-0.2c0,0,0,0,0.1,0
			c2.4,0.4,4.9,0.6,7.9,0.7c0.2,0,0.4,0.2,0.4,0.4c0.1,0.6,0.2,1.2,0.2,1.8c0,0,0,0,0,0.1v0.6c0,0,0,0.5,0,0.6v0.3
			c0,0.1,0,0.2,0,0.3c0,0-0.1,0.5-0.1,0.6v0.1c-0.1,0.4-0.2,0.8-0.4,1.2l-0.1,0.2c0,0.1-0.2,0.4-0.2,0.4c0,0.1-0.2,0.4-0.2,0.4
			c0,0.1-0.2,0.3-0.2,0.3l-0.3,0.3c-0.1,0.1-0.1,0.1-0.2,0.2l-0.3,0.3l-0.3,0.3l-0.3,0.2l-0.3,0.2l-0.3,0.2
			c-0.6,0.3-1.1,0.6-1.7,0.8l-0.7,0.3l-0.2,0.1L60.1,51l0.2,0.4l-0.1,0.1l-0.3-0.3l0.2,0.4l-0.2,0.1l-0.3-0.3l0.2,0.4L59.6,52
			l-0.2,0L59,51.7l0.3,0.3l-0.1,0.1l-0.4-0.2l0.3,0.3c-0.1,0.1-0.1,0.1-0.2,0.2c-1,1.2-2.6,2.8-4.1,4.3c1.2,0,2.1,0.1,2.8,0.2
			c1.5,0.3,2.8,0.7,4.1,1.1c1.6,0.5,3.1,1,4.9,1.2c0.2,0,0.4,0.2,0.4,0.4l-0.1,4.6c0,0.1-0.1,0.2-0.1,0.3
			C66.7,64.7,66.6,64.7,66.5,64.7L66.5,64.7z"/>
		<path class="st1" d="M57.8,41c2.3,0.4,4.7,0.6,8,0.7c0.1,0.7,0.2,1.3,0.2,1.8l0,0c0,0.1,0,0.1,0,0.2c0,0.1,0,0.2,0,0.4
			c0,0.1,0,0.2,0,0.3s0,0.2,0,0.3s0,0.2,0,0.3s0,0.2,0,0.3s0,0.1,0,0.2c0,0.1,0,0.2-0.1,0.3c0,0.1,0,0.1,0,0.2
			c-0.1,0.4-0.2,0.7-0.3,1c0,0,0,0.1-0.1,0.1c0,0.1-0.1,0.2-0.1,0.2s0,0.1-0.1,0.1c0,0.1-0.1,0.1-0.1,0.2l-0.1,0.1
			c0,0.1-0.1,0.1-0.1,0.2L64.9,48c0,0.1-0.1,0.1-0.1,0.2l-0.1,0.1c-0.1,0.1-0.1,0.1-0.2,0.2l-0.1,0.1c-0.1,0.1-0.1,0.1-0.2,0.2
			l-0.1,0.1C64,48.9,64,49,63.9,49l-0.1,0.1c-0.1,0-0.1,0.1-0.2,0.1c0,0-0.1,0-0.1,0.1c-0.1,0-0.1,0.1-0.2,0.1c0,0-0.1,0-0.1,0.1
			c-0.1,0-0.1,0.1-0.2,0.1l0,0c-0.6,0.4-1.3,0.7-1.9,0.9l0,0c-0.1,0-0.2,0.1-0.3,0.1h-0.1c-0.1,0-0.1,0.1-0.2,0.1c0,0-0.1,0-0.1,0.1
			c-0.1,0-0.1,0.1-0.2,0.1c0,0-0.1,0-0.1,0.1c-0.1,0-0.1,0.1-0.2,0.1c0,0-0.1,0-0.1,0.1c-0.1,0-0.1,0.1-0.2,0.1c0,0-0.1,0-0.1,0.1
			c-0.1,0-0.1,0.1-0.2,0.1c0,0-0.1,0-0.1,0.1c-0.1,0-0.1,0.1-0.2,0.1c0,0-0.1,0-0.1,0.1c-0.1,0.1-0.1,0.1-0.2,0.2
			c-1.1,1.3-3,3.3-4.8,5c0.2,0,0.5,0,0.7,0c1.1,0,2.2,0.1,3,0.2c3.6,0.7,5.9,2,9,2.3l-0.1,4.6l-15.4-2.2c-1.7-0.3-2.6-0.9-3-1.4
			c-0.5-0.6-0.9-1.6-0.4-3.2c1.5-4.9,4.9-7.8,8.6-12.6C57,43.3,56.7,42.8,57.8,41 M57.8,40.1c-0.3,0-0.6,0.2-0.7,0.4
			c-0.7,1.2-0.8,1.8-1,2.5c-0.1,0.4-0.2,0.8-0.5,1.4c-1,1.3-1.9,2.4-2.9,3.5c-2.5,3-4.7,5.6-5.8,9.3c-0.7,2.2,0.1,3.4,0.6,4
			c0.7,0.9,1.9,1.4,3.5,1.7l15.4,2.2h0.1c0.2,0,0.4-0.1,0.5-0.2c0.2-0.2,0.3-0.4,0.3-0.6l0.1-4.6c0-0.4-0.3-0.8-0.8-0.8
			c-1.7-0.2-3.1-0.6-4.8-1.1c-1.3-0.4-2.6-0.8-4.1-1.1c-0.5-0.1-1.2-0.2-1.9-0.2c1.3-1.3,2.5-2.6,3.4-3.7c0-0.1,0.1-0.1,0.2-0.2l0,0
			l0.1-0.1l0,0c0.1-0.1,0.1-0.1,0.2-0.1h0.1c0.1,0,0.1-0.1,0.2-0.1h0.1l0.2-0.1h0.1l0.2-0.1l0.1-0.1l0.2-0.1H61l0.2-0.1l0.4-0.2
			c0.5-0.2,1.1-0.5,1.7-0.8l0,0l0,0c0.1,0,0.2-0.1,0.2-0.1L63.1,50l0.4,0.7h0.1c0.1-0.1,0.2-0.1,0.2-0.1l0.1-0.1
			c0.1,0,0.1-0.1,0.2-0.1h0.1l0.1-0.1c0.1,0,0.1-0.1,0.2-0.2l0.1-0.1c0.1-0.1,0.1-0.1,0.2-0.2l0.1-0.1c0.1-0.1,0.1-0.1,0.2-0.2
			l0.1-0.1c0.1-0.1,0.1-0.1,0.2-0.2l0.1-0.1l0,0c0.1-0.1,0.1-0.1,0.2-0.2l0.1-0.1c0.1-0.1,0.1-0.2,0.2-0.3c0-0.1,0.1-0.1,0.1-0.1
			c0.1-0.1,0.1-0.2,0.2-0.3c0,0,0-0.1,0.1-0.1c0.2-0.4,0.3-0.8,0.4-1.2v-0.2c0-0.1,0-0.2,0-0.3v-0.1v-0.1v-0.2c0-0.1,0-0.2,0-0.3
			v-0.1c0-0.1,0-0.2,0-0.3s0-0.2,0-0.3s0-0.2,0-0.3s0-0.3,0-0.4v-0.1V44v-0.1c0-0.6-0.1-1.2-0.2-1.8c-0.1-0.4-0.4-0.7-0.8-0.7
			c-3-0.1-5.5-0.3-7.9-0.6C57.9,40.1,57.8,40.1,57.8,40.1L57.8,40.1z"/>
	</g>
	<g>
		<path class="st0" d="M82.5,60.9c-0.8,0-1.7-0.7-2.1-1.3c-1.5-0.7-2.8-1-4-1c-0.5,0-0.9,0.1-1.4,0.1c0,0,0,0-0.1,0
			s-0.3-0.1-0.3-0.2l-2.3-3.1c-0.1-0.2-0.1-0.4,0.1-0.6l0.8-0.6c0.2-0.3,0.3-0.6,0.4-0.9c0.1-0.4,0.3-0.9,0.6-1.2
			c0.3-0.3,0.7-0.5,1.1-0.5s0.8,0.2,1.3,0.5c0.6,0.4,1,0.9,1.4,1.3c0.4,0.4,0.7,0.8,1.2,1.1c2.3,1.6,3.8,3.1,4.4,4.5
			c0.2,0.5,0.2,0.9,0.1,1.2c-0.1,0.2-0.3,0.4-0.6,0.5C82.8,60.9,82.7,60.9,82.5,60.9z"/>
		<path class="st1" d="M75.2,52.3c0.3,0,0.6,0.1,1,0.4c1.2,0.8,1.6,1.7,2.6,2.4c2,1.3,3.6,2.8,4.2,4.3c0.3,0.7,0.1,1-0.2,1.1
			c-0.1,0-0.2,0-0.3,0c-0.7,0-1.5-0.7-1.8-1.2c-1.9-0.8-3.3-1-4.3-1c-0.6,0-1.1,0.1-1.5,0.1l-2.3-3.1l0.8-0.7c0.5-0.7,0.5-1.6,1-2.1
			C74.7,52.4,74.9,52.3,75.2,52.3 M75.2,51.5c-0.4,0-0.9,0.1-1.4,0.6c-0.4,0.4-0.5,0.9-0.7,1.3c-0.1,0.3-0.2,0.5-0.3,0.7l-0.7,0.6
			c-0.4,0.3-0.4,0.8-0.1,1.2l2.3,3.1c0.2,0.2,0.4,0.3,0.7,0.3h0.1c0.4-0.1,0.8-0.1,1.3-0.1c1.1,0,2.3,0.3,3.7,0.9
			c0.4,0.5,1.3,1.3,2.3,1.3c0.2,0,0.4,0,0.5-0.1c0.4-0.1,0.7-0.4,0.8-0.7c0.2-0.4,0.2-0.9-0.1-1.5c-0.6-1.5-2.1-3-4.5-4.6
			c-0.4-0.3-0.7-0.6-1.1-1s-0.8-0.9-1.5-1.4C76.2,51.6,75.7,51.5,75.2,51.5L75.2,51.5z"/>
	</g>
	<g>
		<path class="st0" d="M56.9,42.7c-0.1,0-0.1,0-0.2,0c-0.1-0.1-0.2-0.2-0.2-0.3l-0.7-3c0-0.2,0.1-0.4,0.3-0.5l7.5-1.9h0.1
			c0.1,0,0.2,0.1,0.3,0.1l1.1,1.3c0.1,0.1,0.1,0.2,0.1,0.4c0,0.1-0.1,0.2-0.2,0.3l-8,3.5C57,42.7,56.9,42.7,56.9,42.7z"/>
		<path class="st1" d="M63.7,37.4l1.1,1.3l-7.9,3.5l-0.7-3L63.7,37.4 M63.7,36.6c-0.1,0-0.1,0-0.2,0L56,38.5c-0.4,0.1-0.7,0.6-0.6,1
			l0.7,3c0.1,0.2,0.2,0.5,0.4,0.6c0.1,0.1,0.2,0.1,0.4,0.1c0.1,0,0.2,0,0.3-0.1l7.9-3.5c0.2-0.1,0.4-0.3,0.5-0.6s0-0.5-0.2-0.7
			L64.3,37C64.1,36.7,63.9,36.6,63.7,36.6L63.7,36.6z"/>
	</g>
	<g>
		<path class="st0" d="M67.4,21.9C67.3,21.9,67.3,21.9,67.4,21.9l-2.1-0.5l-4.8,0.4c-0.2,0-0.3-0.1-0.4-0.3c-0.1-0.2,0-0.4,0.1-0.5
			c0.2-0.1,0.4-0.3,0.6-0.4c0.6-0.4,1.2-0.8,1.3-1.3s0.1-0.9-1.1-1.5c-1.2-0.3-1.8-0.6-1.8-1.1c-0.1-0.6,0.3-0.9,0.6-1.1l0,0
			c0-0.1-0.1-0.1-0.1-0.2c0-0.3,0.1-0.5,0.3-0.6c0-0.2,0.1-0.4,0.2-0.6l0.1-0.1C60,13.8,59.9,13.3,60,13c0.1-0.2,0.3-0.3,0.6-0.5
			c0.3-0.1,0.8-0.3,1-0.7c0,0,0,0,0-0.1c0.1-0.4,0.2-0.7,0.6-1.1c0.1-0.1,0.2-0.2,0.3-0.4c0.3-0.4,0.8-1,1.6-1.4
			c0.5-0.2,0.9-0.4,1.4-0.5c0.3-0.1,0.7-0.2,1-0.3c0.1,0,0.1,0,0.2,0s0.1,0,0.2,0c3.1,1.5,3.2,1.5,3.3,1.6c0.2,0.2,0.2,0.2-0.7,5
			c0,0.1-0.1,0.2-0.2,0.3l-0.5,0.3c-0.5,0.4-0.9,0.7-1.5,1l0.5,0.6c0.1,0.1,0.1,0.3,0.1,0.4l-0.1,0.4c-0.6,1.8-0.7,1.9-0.1,3.9
			c0,0.1,0,0.3-0.1,0.4C67.6,21.9,67.5,21.9,67.4,21.9z"/>
		<path class="st1" d="M66.8,8.4c0,0,3.1,1.4,3.1,1.5c0.1,0.1-0.8,4.6-0.8,4.6c-0.9,0.6-1.5,1.1-2.4,1.5l0.9,1
			c-0.8,2.2-0.9,2.2-0.3,4.5l-2-0.5l-4.8,0.4c0.8-0.5,1.9-1,2.1-1.9c0.2-0.8,0-1.4-1.4-2c-0.8-0.2-1.5-0.4-1.6-0.8
			c-0.1-0.6,0.6-0.7,0.7-1c0-0.1,0-0.2-0.1-0.3c0-0.3,0.2-0.4,0.4-0.4c-0.1-0.2-0.1-0.4,0-0.5c0.3,0,0.4-0.1,0.5-0.4
			c-0.5-0.3-0.7-0.7-0.6-0.9c0.1-0.2,1.2-0.4,1.6-1.1c0.1-0.1,0.1-0.2,0.1-0.3c0-0.2,0.1-0.4,0.4-0.7c0.4-0.3,0.8-1.2,1.8-1.8
			C65.2,8.9,66.1,8.7,66.8,8.4 M66.8,7.6c-0.1,0-0.2,0-0.4,0.1c-0.3,0.1-0.6,0.2-0.9,0.3c-0.5,0.1-1,0.3-1.5,0.6
			c-0.9,0.5-1.4,1.1-1.7,1.6c-0.1,0.1-0.2,0.3-0.3,0.3c-0.5,0.5-0.6,0.8-0.7,1.2v0.1c-0.2,0.2-0.5,0.3-0.7,0.4
			c-0.3,0.2-0.7,0.3-0.9,0.7c-0.1,0.3-0.1,0.8,0.2,1.2c-0.1,0.2-0.2,0.3-0.2,0.5c-0.2,0.2-0.3,0.5-0.3,0.8v0.1
			c-0.3,0.3-0.6,0.7-0.5,1.3C59,17.7,60,18,61,18.3c1,0.5,0.9,0.8,0.8,1c-0.1,0.4-0.6,0.7-1.2,1c-0.2,0.1-0.4,0.3-0.6,0.4
			c-0.3,0.2-0.4,0.6-0.3,1c0.1,0.3,0.4,0.5,0.8,0.5c0,0,0,0,0.1,0l4.7-0.4l1.9,0.4c0.1,0,0.1,0,0.2,0c0.2,0,0.4-0.1,0.6-0.3
			c0.2-0.2,0.3-0.5,0.2-0.8c-0.5-1.8-0.5-1.9,0.1-3.6l0.1-0.4c0.1-0.3,0-0.6-0.2-0.9L68,16c0.4-0.2,0.7-0.5,1.1-0.7
			c0.1-0.1,0.3-0.2,0.5-0.3s0.3-0.3,0.3-0.5c1-4.9,1-4.9,0.6-5.3c-0.1-0.1-0.2-0.2-3.4-1.7C67,7.6,66.9,7.6,66.8,7.6L66.8,7.6z"/>
	</g>
	<g>
		<path class="st0" d="M67,19.5c-0.1,0-0.2,0-0.3-0.1c-0.8-0.8-1-2.3-1-2.7c0.1-0.4,0.4-0.8,0.8-1.1c0.5-0.3,0.9-0.7,0.9-0.8
			c-0.1-0.1-0.2-0.1-0.4-0.1c-0.5,0-1.3,0.3-1.5,0.4h-0.1c0,0,0,0-0.1,0L64.8,15c-0.1,0-0.2-0.1-0.3-0.2c-0.1-0.1-0.1-0.2-0.1-0.3
			c0.1-0.6,0.3-0.9,0.5-1.1c0.1-0.1,0.2-0.3,0.2-0.4c0-0.1,0-0.2,0-0.4s0-0.5,0.2-0.8c0.2-0.4,0.5-0.6,0.6-0.7
			c-0.1-0.1-0.4-0.2-0.6-0.3c-0.8-0.4-2.2-1.1-1.6-3c0-0.1,0.1-0.2,0.3-0.3h0.1c0.1,0,0.2,0,0.2,0.1C64.9,8,65.5,8,66.2,8
			c0.9,0.1,1.9,0.1,3.1,0.8c1.6,1,2.4,2.4,2.4,4.3c0.3,0.6,0.2,1.4-0.1,2.2c-0.5,1.3-1.5,2.4-2.6,2.9c-0.2,0.1-0.3,0.1-0.5,0.2
			c-0.7,0.3-1.1,0.4-1.2,0.9C67.3,19.5,67.2,19.6,67,19.5C67.1,19.5,67.1,19.5,67,19.5z"/>
		<path class="st1" d="M64.2,7.8c1.4,0.9,3,0.1,5,1.3c1.3,0.8,2.2,2,2.2,4c0.7,1.5-0.8,3.9-2.4,4.6c-0.9,0.4-1.7,0.5-1.9,1.4
			c-0.7-0.7-0.9-2.1-0.9-2.4c0-0.2,0.2-0.6,0.6-0.8c0.7-0.4,1.3-1.1,1-1.5c-0.2-0.2-0.4-0.2-0.7-0.2c-0.6,0-1.3,0.2-1.7,0.4
			l-0.5-0.1c0.2-0.9,0.5-1,0.7-1.5c0.1-0.4,0-0.7,0.2-1.1c0.3-0.6,0.8-0.5,0.7-0.8C66.5,10.1,63.4,10.3,64.2,7.8 M64.2,6.9
			c-0.1,0-0.2,0-0.3,0.1c-0.2,0.1-0.4,0.3-0.5,0.5c-0.7,2.3,1,3.1,1.9,3.5l0,0c-0.1,0.1-0.2,0.3-0.3,0.5c-0.2,0.4-0.2,0.7-0.2,0.9
			c0,0.1,0,0.2,0,0.3s-0.1,0.2-0.2,0.3c-0.2,0.3-0.4,0.6-0.5,1.3c0,0.2,0,0.4,0.1,0.6c0.1,0.2,0.3,0.3,0.5,0.3l0.5,0.1h0.1
			c0.1,0,0.2,0,0.3,0c0.3-0.1,0.6-0.2,0.8-0.3l-0.1,0.1c-0.5,0.3-0.9,0.8-1,1.3c-0.1,0.6,0.2,2.1,1.1,3.1c0.2,0.2,0.4,0.3,0.6,0.3
			c0.1,0,0.1,0,0.2,0c0.3-0.1,0.5-0.3,0.6-0.6c0.1-0.2,0.2-0.3,0.9-0.6c0.2-0.1,0.3-0.1,0.5-0.2c1.2-0.5,2.4-1.8,2.9-3.1
			c0.3-0.9,0.4-1.7,0.1-2.4c0-2-0.9-3.6-2.6-4.6c-1.3-0.8-2.4-0.8-3.3-0.9c-0.7,0-1.2-0.1-1.7-0.4C64.5,7,64.3,6.9,64.2,6.9
			L64.2,6.9z"/>
	</g>
	<g>
		<path class="st0" d="M56,42.7c-0.2,0-0.3-0.1-0.4-0.3c-0.8-2.7-1.3-6.7-1.3-8.6c0-7.2,1.1-9.5,6.2-13.2c0.1-0.1,0.2-0.1,0.2-0.1
			h0.1c0.3,0.1,0.6,0.1,1,0.1c1.8,0,4.1-0.6,5.1-1c0.1,0,0.1,0,0.2,0c0.2,0,0.3,0.1,0.4,0.2c2.2,4.7,1.2,7.2-1.1,10.1
			c-0.5,0.5-0.9,1-1.2,1.4c-1.4,1.7-1.9,2.2-1.8,2.9c0.1,0.6,0.6,1.4,1.4,2.7c0.2,0.3,0.4,0.7,0.7,1.1c0.1,0.2,0.1,0.4,0,0.5
			c-1.6,1.8-7.4,3.6-9.2,4.1C56.1,42.7,56.1,42.7,56,42.7z"/>
		<path class="st1" d="M67.1,20c2.1,4.6,1.2,7-1.1,9.6c-2.3,2.8-3.3,3.5-3.1,4.7c0.1,0.8,0.9,1.9,2.1,4c-1.3,1.5-5.9,3.1-9,3.9
			c-0.8-2.6-1.3-6.6-1.3-8.5c0-7.2,1.2-9.4,6-12.9c0.3,0.1,0.7,0.1,1.1,0.1C63.7,21,66.1,20.4,67.1,20 M67.1,19.2
			c-0.1,0-0.2,0-0.3,0.1c-1,0.4-3.3,0.9-4.9,0.9c-0.4,0-0.7,0-0.9-0.1c-0.1,0-0.1,0-0.2,0c-0.2,0-0.3,0.1-0.5,0.2
			c-5.2,3.7-6.4,6.3-6.4,13.5c0,1.9,0.6,6,1.3,8.7c0.1,0.4,0.4,0.6,0.8,0.6c0.1,0,0.2,0,0.2,0c2.3-0.7,7.7-2.4,9.4-4.2
			c0.2-0.3,0.3-0.7,0.1-1c-0.2-0.4-0.5-0.8-0.7-1.1c-0.7-1.3-1.2-2.1-1.3-2.6s0.4-1.1,1.7-2.6c0.4-0.4,0.8-0.9,1.2-1.4
			c2.5-3,3.5-5.7,1.2-10.5C67.7,19.4,67.4,19.2,67.1,19.2L67.1,19.2z"/>
	</g>
	<g>
		<path class="st0" d="M58.8,64.4c-1.1,0-1.7-0.4-2.1-0.7c-0.1-0.1-0.2-0.2-0.3-0.3c-0.5-0.6-0.8-1.3-1-2.4c-0.9-4.9-0.3-8.5,0.3-12
			l0.2-1.3c0-0.3,0-0.5-0.2-0.8c-0.1-0.3-0.3-0.7-0.2-1.2c0-0.6,0.2-1.2,0.4-1.9s0.4-1.4,0.4-2c0-0.2,0.1-0.3,0.3-0.4
			c1.9-0.6,4.3-1.7,6.7-2.9l1.1-0.5c0.1,0,0.1,0,0.2,0h0.1c0.1,0,0.2,0.1,0.2,0.2c1.2,2.5,2,4.2,2,5.9c-0.1,2.1-1.1,3.6-2,4.9
			c-0.6,0.8-1.1,1.6-1.3,2.3c-0.1,0.2-0.1,0.5-0.2,0.8L63,53.3l-0.3,0.9l-0.4,1.1l-0.4,1.1c0.7-0.4,1.5-0.8,2.2-1
			c1.7-0.4,3.1-0.6,4.5-0.7c1.6-0.1,3.1-0.2,4.6-0.8c0,0,0.1,0,0.2,0c0.2,0,0.3,0.1,0.4,0.2l2,4.1c0.1,0.1,0.1,0.2,0,0.3
			c0,0.1-0.1,0.2-0.3,0.2L61,64C60.2,64.3,59.5,64.4,58.8,64.4L58.8,64.4z"/>
		<path class="st1" d="M64.7,38.5c1.2,2.5,2,4.2,1.9,5.8c-0.1,3.3-2.8,5-3.3,7.1c-0.1,0.2-0.1,0.5-0.2,0.8c0,0.1-0.1,0.2-0.1,0.3
			c-0.1,0.2-0.1,0.4-0.2,0.6c0,0.1-0.1,0.2-0.1,0.3c-0.1,0.2-0.1,0.4-0.2,0.6c0,0.1-0.1,0.2-0.1,0.3c-0.1,0.3-0.2,0.6-0.3,1v0.1
			c-0.1,0.3-0.2,0.6-0.3,0.9c0,0.1-0.1,0.2-0.1,0.4c-0.1,0.2-0.2,0.5-0.2,0.7c0,0.1-0.1,0.2-0.1,0.3c1-0.7,2.1-1.3,3.1-1.6
			c3.5-0.9,6.2-0.4,9.1-1.5l2,4.1l-14.7,5c-0.8,0.2-1.5,0.3-2,0.3c-0.9,0-1.5-0.3-1.8-0.6c-0.1-0.1-0.1-0.2-0.2-0.3
			c-0.4-0.5-0.8-1.2-1-2.2c-1-5.4-0.2-9.2,0.5-13.1c0.1-0.8-0.5-1.1-0.4-2c0.1-1.1,0.8-2.7,0.9-3.9c1.9-0.6,4.3-1.7,6.8-2.9
			L64.7,38.5 M64.7,37.6c-0.1,0-0.2,0-0.4,0.1l-1.1,0.5c-2.4,1.2-4.8,2.3-6.7,2.9c-0.3,0.1-0.6,0.4-0.6,0.7c0,0.6-0.2,1.3-0.4,1.9
			c-0.2,0.7-0.4,1.4-0.4,2s0.1,1,0.3,1.4c0.1,0.3,0.2,0.4,0.1,0.5c-0.1,0.4-0.1,0.9-0.2,1.3c-0.6,3.5-1.2,7.2-0.3,12.1
			c0.2,1.1,0.6,1.9,1.1,2.5c0.1,0.2,0.2,0.3,0.3,0.4c0.4,0.3,1.1,0.8,2.3,0.8c0.7,0,1.4-0.1,2.2-0.4l14.7-5c0.2-0.1,0.4-0.2,0.5-0.5
			c0.1-0.2,0.1-0.5,0-0.7l-2-4.1c-0.1-0.3-0.4-0.5-0.7-0.5c-0.1,0-0.2,0-0.3,0.1c-1.4,0.6-2.8,0.7-4.4,0.8c-1.4,0.1-2.9,0.2-4.6,0.7
			c-0.4,0.1-0.9,0.3-1.3,0.5v-0.1v-0.1c0.1-0.4,0.2-0.7,0.3-1l0.1-0.2v-0.1c0.1-0.2,0.1-0.4,0.2-0.7l0.1-0.2v-0.1
			c0.1-0.2,0.1-0.4,0.2-0.6v-0.1v-0.1c0.1-0.3,0.1-0.6,0.2-0.8c0.2-0.7,0.7-1.4,1.2-2.2c0.9-1.3,2.1-2.9,2.1-5.1
			c0.1-1.8-0.8-3.6-2-6.1c-0.1-0.2-0.3-0.4-0.5-0.4C64.9,37.7,64.8,37.6,64.7,37.6L64.7,37.6z"/>
	</g>
	<g>
		<path class="st0" d="M55.3,32.8c-0.1,0-0.1,0-0.2,0l-2.6-1.3c-0.2-0.1-0.3-0.3-0.2-0.5l1.1-2.9c0.1-0.2,0.2-0.3,0.4-0.3
			c0,0,0,0,0.1,0h0.3l0.1-0.1c0.1-0.1,0.2-0.1,0.3-0.1h0.1l2.1,0.7c0.1,0,0.1,0,0.1,0.1l2.3,2.1c0.1,0.1,0.2,0.3,0.1,0.5l-0.7,1.9
			c-0.1,0.2-0.2,0.3-0.4,0.3C58.3,33,55.3,32.8,55.3,32.8z"/>
		<path class="st1" d="M54.7,28l2.1,0.7l2.3,2.1l-0.7,1.9l-3-0.2l-2.6-1.3l1.1-2.9l0.5,0.1L54.7,28 M54.7,27.2
			c-0.2,0-0.4,0.1-0.6,0.2l0,0c-0.1,0-0.1,0-0.2,0c-0.3,0-0.7,0.2-0.8,0.5L52,30.8c-0.2,0.4,0,0.8,0.4,1l2.6,1.3
			c0.1,0.1,0.2,0.1,0.3,0.1l3,0.2c0,0,0,0,0.1,0c0.3,0,0.7-0.2,0.8-0.5l0.7-1.9c0.1-0.3,0-0.7-0.2-0.9L57.4,28c-0.2,0-0.3,0-0.4-0.1
			l-2.1-0.7C54.9,27.2,54.8,27.2,54.7,27.2L54.7,27.2z"/>
	</g>
	<g>
		<path class="st0" d="M68.1,36.9c-0.4,0-0.8,0-1.3-0.1l-10-3.6c-0.1,0-0.2-0.1-0.2-0.2c0-0.1,0-0.2,0-0.3l1.5-2.9
			c0.1-0.1,0.2-0.2,0.4-0.2h0.1l5.3,1.3c-0.2-0.5-0.5-1-0.7-1.4c-1.4-2.8-2-4.3-1.2-5.6c0.5-0.8,1.4-1.3,2.4-1.3
			c0.7,0,1.9,0.3,2.8,2c0.4,1.3,1.3,3.2,2.1,5c0.3,0.7,0.6,1.4,0.9,2.1c0.6,1.3,0.7,2.6,0.4,3.6v0.1C70.1,36.4,69.4,36.9,68.1,36.9
			L68.1,36.9z"/>
		<path class="st1" d="M64.3,23c0.9,0,1.8,0.5,2.4,1.7c0.5,1.7,1.9,4.6,3,7.1c0.6,1.3,0.6,2.5,0.3,3.3v0.1c-0.2,0.7-0.7,1.2-2,1.2
			c-0.3,0-0.7,0-1.2-0.1l-10-3.5l1.5-2.9l6.2,1.5c-0.4-0.8-0.7-1.6-1.1-2.2c-1.3-2.5-1.9-4-1.2-5.2C62.6,23.5,63.4,23,64.3,23
			 M64.3,22.2c-1.1,0-2.2,0.6-2.8,1.5c-1,1.6-0.1,3.6,1.2,6c0.1,0.2,0.2,0.4,0.3,0.6l-4.5-1.1c-0.1,0-0.1,0-0.2,0
			c-0.3,0-0.6,0.2-0.7,0.5l-1.5,2.9c-0.1,0.2-0.1,0.5,0,0.7s0.3,0.4,0.5,0.5l10,3.5h0.1c0.5,0.1,0.9,0.1,1.3,0.1
			c1.5,0,2.4-0.6,2.8-1.8c0-0.1,0-0.1,0-0.2c0.4-1.1,0.2-2.5-0.4-3.9c-0.3-0.7-0.6-1.4-0.9-2.1c-0.8-1.9-1.7-3.8-2-4.9
			c0,0,0-0.1-0.1-0.1C66.5,22.4,65.1,22.2,64.3,22.2L64.3,22.2z"/>
	</g>
	<g>
		<path class="st0" d="M12.8,40.2c-0.1,0-0.3,0-0.4,0c-0.2,0-0.3-0.1-0.3-0.3c0-0.1,0-0.3,0.1-0.4c0.7-0.7,1.1-1.9,1.4-3.1
			c0.3-1,0.5-1.9,1-2.5c1.2-1.5,2.1-1.7,3.4-2c0.4-0.1,0.9-0.2,1.5-0.4c0.4-0.1,0.6-0.7,0.9-1.6c0.4-1.5,1-3.6,4.2-4.4
			c0.6-0.1,1.1-0.2,1.7-0.2c2,0,3.6,0.7,4.4,1.9c1.3,2.1,1.7,4.5,1,6.7c-0.5,3.1-4,5.5-8.1,5.5l0,0c-1.4,0-2.8-0.3-4.3-0.8
			c-0.2-0.1-0.3-0.1-0.5-0.1c-0.8,0-1.8,0.5-3,1c-0.4,0.2-0.8,0.4-1.2,0.5c-0.1,0-0.1,0-0.2,0c-0.1,0-0.3-0.1-0.4-0.2l0,0
			C13.6,40.1,13.2,40.2,12.8,40.2z"/>
		<path class="st1" d="M26.2,25.8c1.6,0,3.3,0.6,4,1.7c1.4,2.1,1.6,4.5,1,6.4c-0.5,2.8-3.6,5.2-7.7,5.2c-1.3,0-2.7-0.2-4.1-0.8
			c-0.2-0.1-0.4-0.1-0.7-0.1c-1.2,0-2.6,0.9-4.4,1.6c2.1-1.5,3.2-2.3,4.4-2.3c0.2,0,0.4,0,0.7,0.1c1,0.2,2.1,0.3,3.1,0.3
			c0.7,0,1.5-0.1,2.2-0.2c-2-0.1-4.5-0.6-6.3-0.7l0,0c-1.6,0-3.9,2.8-5.6,2.8c-0.1,0-0.2,0-0.3,0c1.4-1.4,1.5-4.4,2.4-5.7
			c1.5-1.9,2.3-1.6,4.6-2.2c1.8-0.5,0.3-4.8,5-5.9C25.1,25.8,25.7,25.8,26.2,25.8 M26.2,24.9c-0.6,0-1.2,0.1-1.8,0.2
			c-3.4,0.8-4,3.1-4.5,4.7c-0.2,0.6-0.3,1.2-0.6,1.3c-0.5,0.2-1,0.3-1.4,0.4c-1.4,0.3-2.3,0.5-3.6,2.2c-0.5,0.7-0.8,1.6-1.1,2.7
			c-0.3,1.1-0.6,2.3-1.3,2.9c-0.2,0.2-0.3,0.5-0.2,0.8s0.3,0.5,0.6,0.6c0.1,0,0.3,0,0.5,0c0.3,0,0.7-0.1,1-0.2
			c0.1,0.1,0.3,0.2,0.5,0.2c0.1,0,0.2,0,0.3-0.1c0.4-0.2,0.8-0.4,1.2-0.6c1.2-0.5,2.1-1,2.9-1c0.2,0,0.3,0,0.4,0.1
			c1.5,0.6,2.9,0.8,4.4,0.8c4.3,0,8-2.5,8.5-5.9c0.7-2.3,0.3-4.8-1.1-7C30.1,25.7,28.4,24.9,26.2,24.9L26.2,24.9z"/>
	</g>
	<g>
		<path class="st0" d="M15.8,47.9c-0.4,0-0.6-0.2-1.1-0.5l-0.4-0.3L6,42.9l-2-0.2c-0.1,0-0.2-0.1-0.3-0.1L2.2,41
			c-0.1-0.1-0.2-0.4,0-0.5l0.7-1c0.1-0.1,0.2-0.2,0.3-0.2l0.9-0.1L4.3,39c0.1-0.1,0.2-0.1,0.3-0.1c0.1,0,0.1,0,0.2,0l1.5,0.6
			c0.1,0,0.2,0.1,0.2,0.2L7.3,41l8.6,3.4l6.2-3.6c0.7-0.7,1.3-1.2,1.8-1.5s1-0.4,1.4-0.5s0.7-0.1,0.9-0.3c0.2-0.2,0.2-0.8,0-1.7
			c-0.4-0.2-0.8-0.5-1.3-1c-0.3-0.3-0.5-0.5-0.7-0.8c-0.4,0-0.7-0.5-0.8-0.7c-0.1-0.2-0.2-0.4-0.3-0.6c-0.1-0.2-0.3-0.5-0.4-0.7
			c-0.2-0.3-0.2-0.7,0-0.9c0.1-0.1,0.1-0.2,0.2-0.2c-0.1-0.3-0.1-0.5-0.1-0.8c-0.1-1.7,0.6-3,1.9-3.6c0,0,0,0,0.1,0
			c0.2-0.1,0.4-0.1,0.6-0.2c0.4-0.1,0.8-0.2,1.2-0.2c1.3,0,2.2,0.7,2.8,2.1c0.1,0.4,0.3,0.7,0.3,1c0.4,0,0.6,0.4,0.7,0.9
			c0,0.2,0,0.5,0,0.8c0,0.2,0,0.5,0,0.7c0,0.5-0.1,0.8-0.3,0.9c0,0.5-0.1,0.9-0.3,1.3c-0.1,0.2-0.1,0.3-0.2,0.5l0.1,0.4
			c0.4,1.1,0.6,1.4,0.8,1.4c0.4-0.1,0.7-0.2,1-0.4C32,36.4,32.7,36,34,36c0.2,0,0.3,0,0.5,0c0.1,0,0.9-0.3,1.7-0.6l4.7-3l-4.4-5.9
			L35,26c-0.1,0-0.1-0.1-0.2-0.2L34,24.7c-0.1-0.1-0.1-0.3,0-0.4l0,0l-0.6-1c-0.1-0.2-0.1-0.4,0-0.5l0.6-0.7
			c0.1-0.1,0.2-0.1,0.3-0.1s0.2,0,0.2,0.1l2.2,1.4c0.1,0,0.1,0.1,0.1,0.2l1,1.8l6.3,6.6c0.3,0.3,0.3,0.7,0.3,1
			c-0.1,0.5-0.4,1-0.9,1.4L38.3,39c-2.1,1.7-2.1,1.7-2.2,3.9v0.9c0,0.2-0.1,0.3-0.3,0.4c-0.1,0-0.1,0-0.2,0c-0.1,0-0.2,0-0.3-0.1
			L35.2,44l0,0c0,0.1-0.1,0.2-0.2,0.3l-4.6,3.2c-0.1,0-0.2,0.1-0.2,0.1c-0.1,0-0.1,0-0.2,0l-3.8-1.5c-0.1,0-0.1-0.1-0.1-0.1
			c-0.8-0.9-1.2-1-1.9-1.2l0,0l-6.9,2.8c-0.2,0.1-0.4,0.2-0.6,0.2C16.3,47.8,16,47.9,15.8,47.9z"/>
		<path class="st1" d="M34.5,22.3l2.2,1.4l1,1.9l6.4,6.6c0.4,0.5,0.1,1.3-0.6,1.8L38,38.7c-2.5,2.1-2.2,2-2.4,5l-0.7-0.6l-0.1,0.8
			l-2.1,1.5l-2.5,1.7l-3.8-1.5c-1-1-1.4-1.1-2.2-1.4l-7,2.8c-0.8,0.3-1.1,0.5-1.4,0.5c-0.3,0-0.6-0.2-1.4-0.7l-8.2-4.3l-2.1-0.2
			l-1.6-1.6l0.7-1l1.1-0.1l0.3-0.2L6,39.9l0.8,1.5l0,0l8.9,3.6l6.4-3.7c0.6-0.6,1.2-1.2,1.8-1.5c0.8-0.5,1.9-0.4,2.4-0.9
			c0.4-0.4,0.4-1.1,0-2.3c0,0-0.1,0-0.1-0.1c-0.4-0.2-0.8-0.5-1.2-0.9c-0.3-0.3-0.6-0.6-0.8-1c-0.1,0-0.1,0-0.2,0
			c-0.2,0-0.3-0.2-0.4-0.4c-0.2-0.4-0.5-0.9-0.7-1.3c-0.2-0.4-0.1-0.6,0.1-0.6c0.1,0,0.2,0,0.3,0.1c-0.1-0.4-0.2-0.9-0.3-1.3
			c-0.1-1.4,0.5-2.7,1.7-3.2l0,0c0.2-0.1,0.3-0.1,0.5-0.2c0.4-0.1,0.8-0.1,1.1-0.1c1.2,0,1.9,0.6,2.4,1.9c0.2,0.5,0.4,1,0.4,1.4
			c0.1-0.1,0.1-0.1,0.2-0.1c0.2,0,0.3,0.2,0.3,0.5c0,0.4-0.1,1-0.1,1.5c0,0.3-0.1,0.6-0.3,0.6c0,0.5-0.1,1-0.3,1.5
			c-0.1,0.2-0.2,0.4-0.3,0.6c0.6,1.5,0.8,2.2,1.4,2.2c0,0,0.1,0,0.2,0c1-0.2,1.4-1.1,3.3-1.1c0.2,0,0.3,0,0.5,0l0,0
			c0.2,0,1.1-0.3,1.9-0.7l5.1-3.3l-4.7-6.3l-1.5-0.6L34,24.6l0.1-0.3L33.8,23L34.5,22.3 M34.5,21.5c-0.2,0-0.5,0.1-0.6,0.3l-0.6,0.7
			c-0.2,0.3-0.3,0.7-0.1,1l0.5,0.8c-0.1,0.2,0,0.5,0.1,0.7l0.8,1.1c0.1,0.1,0.2,0.2,0.4,0.3l1.3,0.5l4.1,5.4l-4.3,2.8
			c-0.7,0.3-1.3,0.5-1.5,0.6c-0.2,0-0.3,0-0.5,0c-1.4,0-2.1,0.5-2.7,0.8c-0.3,0.2-0.5,0.3-0.7,0.3c-0.1-0.2-0.3-0.7-0.5-1.1
			l-0.1-0.2c0-0.1,0.1-0.2,0.1-0.3c0.2-0.4,0.3-0.8,0.3-1.3c0.2-0.2,0.4-0.6,0.4-1.1c0-0.2,0-0.4,0-0.7s0-0.5,0-0.8
			c0-0.6-0.3-1.1-0.7-1.2c-0.1-0.3-0.2-0.5-0.3-0.8c-0.7-1.6-1.7-2.4-3.2-2.4c-0.4,0-0.8,0.1-1.3,0.2c-0.2,0.1-0.5,0.1-0.7,0.2h-0.1
			c-1.5,0.7-2.3,2.2-2.2,4c0,0.2,0,0.4,0.1,0.6c0,0.1-0.1,0.1-0.1,0.2c-0.2,0.4-0.2,0.9,0,1.3c0.1,0.2,0.3,0.5,0.4,0.7
			s0.2,0.4,0.3,0.6c0.2,0.5,0.5,0.7,0.9,0.8c0.2,0.3,0.4,0.5,0.7,0.8c0.5,0.5,0.8,0.7,1.2,0.9c0.2,0.9,0.1,1.1,0.1,1.1
			c-0.1,0.1-0.4,0.1-0.7,0.2c-0.5,0.1-1,0.2-1.6,0.5c-0.7,0.4-1.4,1.1-1.9,1.6l-6,3.5l-8.3-3.3l-0.7-1.2c-0.1-0.2-0.2-0.3-0.4-0.4
			l-1.5-0.6c-0.1,0-0.2-0.1-0.3-0.1c-0.2,0-0.4,0.1-0.5,0.2L4,38.8l-0.8,0.1c-0.2,0-0.4,0.1-0.6,0.3l-0.7,1C1.6,40.5,1.7,41,2,41.3
			l1.6,1.6c0,0.1,0.2,0.2,0.4,0.2l1.9,0.2l8.1,4.3c0.1,0.1,0.3,0.2,0.4,0.2c0.5,0.3,0.9,0.5,1.4,0.5c0.4,0,0.7-0.1,1.1-0.3
			c0.2-0.1,0.4-0.1,0.6-0.2l6.8-2.7c0.6,0.2,0.9,0.3,1.6,1c0.1,0.1,0.2,0.1,0.3,0.2l3.8,1.5c0.1,0,0.2,0.1,0.3,0.1
			c0.2,0,0.3-0.1,0.5-0.2l2.5-1.7l2.1-1.5c0,0,0,0,0.1,0s0.2,0,0.3,0s0.2,0,0.3-0.1c0.3-0.1,0.5-0.4,0.5-0.7s0-0.6,0-0.9
			c0.1-1.9,0.1-1.9,2-3.5l5.4-4.6c0.6-0.4,1-1,1.1-1.7c0.1-0.5-0.1-0.9-0.3-1.3c0,0,0,0-0.1-0.1l-6.3-6.5l-0.9-1.8
			c-0.1-0.1-0.2-0.2-0.3-0.3L35,21.6C34.8,21.5,34.6,21.5,34.5,21.5L34.5,21.5z"/>
	</g>
	<g>
		<path class="st0" d="M38.3,59.9L27,58.2c-0.1,0-0.3-0.1-0.3-0.2c-0.1-0.1,0-0.3,0-0.4l4.2-5.9c0.1-0.1,0.2-0.2,0.3-0.2h6.5
			c0.2,0,0.4,0.2,0.4,0.4l0.6,7.6c0,0.1,0,0.3-0.1,0.3C38.6,59.9,38.5,59.9,38.3,59.9C38.4,59.9,38.3,59.9,38.3,59.9z"/>
		<path class="st1" d="M37.8,51.9l0.6,7.6l-4.9-0.7l-6.4-0.9l4.2-5.9h3L37.8,51.9 M37.8,51.1h-3.5h-3c-0.3,0-0.5,0.1-0.7,0.4
			l-4.2,5.9c-0.2,0.2-0.2,0.5-0.1,0.8s0.4,0.5,0.6,0.5l6.4,0.9l4.9,0.7h0.1c0.2,0,0.4-0.1,0.6-0.2c0.2-0.2,0.3-0.4,0.3-0.7l-0.6-7.6
			C38.6,51.4,38.2,51.1,37.8,51.1L37.8,51.1z"/>
	</g>
	<g>
		<path class="st0" d="M29.9,53.8c-0.1,0-0.2,0-0.3-0.1c-0.1-0.2-0.1-0.4,0-0.5l1-1.3l-3-4.1c-0.2-0.1-0.4-0.1-0.6-0.2
			c-0.2-0.1-0.3-0.3-0.2-0.5c0-0.2,0.2-0.3,0.4-0.3c2.3-0.1,4.3-0.7,5.3-1.7c0.1-0.1,0.2-0.1,0.3-0.1c1.9-0.1,3.4-0.5,4.3-1.2
			c0.1-0.1,0.2-0.1,0.2-0.1c0.1,0,0.2,0,0.3,0.1s0.2,0.4,0,0.5c-0.1,0.1-0.1,0.1-0.2,0.2l0.1,1.1c0,0.1,0,0.2-0.1,0.3
			C35,50,33.7,51.5,29.9,53.8C30.1,53.8,30,53.8,29.9,53.8z"/>
		<path class="st1" d="M37.4,44.1L37.4,44.1 M37.4,44.1c-0.1,0.1-0.2,0.2-0.3,0.3l0.1,1.3c-2.4,4.1-3.7,5.5-7.3,7.7l1.2-1.5
			l-3.3-4.4c-0.2-0.1-0.4-0.1-0.6-0.2c1.9-0.1,4.2-0.6,5.6-1.8C34.7,45.3,36.3,44.9,37.4,44.1 M37.4,43.3L37.4,43.3
			c-0.2,0-0.4,0.1-0.5,0.2c-0.9,0.6-2.3,1-4.1,1.1c-0.2,0-0.4,0.1-0.5,0.2c-1,0.9-2.9,1.5-5.1,1.6c-0.4,0-0.7,0.3-0.8,0.6
			c-0.1,0.4,0.1,0.7,0.4,0.9c0.2,0.1,0.3,0.2,0.5,0.2l2.7,3.7l-0.8,1c-0.2,0.3-0.2,0.8,0,1.1c0.2,0.2,0.4,0.3,0.6,0.3
			c0.1,0,0.3,0,0.4-0.1c3.8-2.3,5.1-3.8,7.6-8c0.1-0.2,0.1-0.3,0.1-0.5l0.1-0.9l0,0c0.1-0.1,0.2-0.3,0.2-0.5
			C38.2,43.6,37.9,43.3,37.4,43.3L37.4,43.3L37.4,43.3L37.4,43.3z M37.4,44.9L37.4,44.9L37.4,44.9L37.4,44.9z"/>
	</g>
	<g>
		<path class="st0" d="M36.6,40.4L36.6,40.4c-0.7-0.2-0.9-0.4-1.3-0.8c-0.1-0.1-0.2-0.2-0.4-0.3c-0.1-0.1-0.2-0.3-0.1-0.4
			s0.2-0.3,0.3-0.3c2.9-0.7,3.7-1.3,5.7-2.7l0.3-0.2c0.1-0.1,0.2-0.1,0.2-0.1c0.1,0,0.2,0.1,0.3,0.2c0.1,0.2,0.1,0.4-0.1,0.6
			l-4.6,3.9C36.8,40.4,36.7,40.4,36.6,40.4z"/>
		<path class="st1" d="M41.2,36L41.2,36 M41.2,36l-4.6,4l0,0c-0.7-0.2-0.7-0.4-1.5-1C38.2,38.3,39,37.6,41.2,36 M41.2,35.2
			c-0.1,0-0.1,0-0.2,0c-0.1,0-0.2,0.1-0.3,0.1l-0.3,0.2c-2,1.4-2.8,2-5.5,2.6c-0.3,0.1-0.5,0.3-0.6,0.6s0,0.6,0.3,0.8
			c0.1,0.1,0.3,0.2,0.4,0.3c0.4,0.4,0.7,0.6,1.4,0.9c0.1,0,0.2,0,0.3,0c0.2,0,0.5-0.1,0.6-0.3l4.5-3.9c0.2-0.2,0.3-0.4,0.3-0.7
			C42,35.6,41.7,35.2,41.2,35.2L41.2,35.2L41.2,35.2z M41.2,36.9L41.2,36.9L41.2,36.9L41.2,36.9z"/>
	</g>
	<g>
		<path class="st0" d="M29.5,54.3c-0.2,0-0.3-0.1-0.3-0.3s0-0.3,0.1-0.4l1.4-1.7l-3-4.1c-1.2-0.4-2.1-1.4-2.2-2.7
			c-0.2-0.1-0.4-0.2-0.7-0.3l-0.2-0.1L18.4,47h-0.1c-0.2,0-0.3-0.1-0.4-0.3l-1-2.6c-0.1-0.2,0-0.4,0.2-0.5l3.9-2.2
			c0.7-0.4,1.2-0.8,1.6-1.2c0.4-0.3,0.8-0.7,1.3-1s1-0.4,1.4-0.5s0.7-0.1,0.9-0.3c0.1-0.1,0.2-0.1,0.3-0.1c0.1,0,0.1,0,0.2,0.1
			c0.4,0.2,0.8,0.3,1.3,0.3c0.3,0,0.7-0.1,1-0.2h0.1l0.3,0.3l-0.2-0.4l0.1-0.1l0.3,0.3l-0.2-0.4l0.1-0.1l0.4,0.3l-0.2-0.3l0.2-0.1
			l0.2-0.2l0.1-0.1l0.1-0.1c0-0.1,0-0.1,0-0.2c0-0.2,0.1-0.4,0.4-0.4s0.6-0.2,0.9-0.4c0.4-0.2,1-0.5,1.8-0.7c0.4,0,0.6-0.1,0.9-0.1
			c0.6,0,0.7,0,1.9-0.7c0.5-0.3,1.2-0.7,1.7-1c1-0.6,1.6-0.9,1.8-1c0.1,0,0.1,0,0.2,0c0.1,0,0.2,0,0.3,0.1l2.2,1.7
			c0.1,0.1,0.2,0.2,0.2,0.3s-0.1,0.2-0.1,0.3L37.2,40c0.3,0.3,0.6,0.6,0.8,1c0.6,1.1,0.5,2.3-0.2,3.3c0,0,0,0,0,0.1
			c-0.1,0.1-0.1,0.1-0.2,0.2l0.6,6.9l0.4,3.3c0,0.1,0,0.3-0.1,0.3c-0.1,0.1-0.2,0.1-0.3,0.1C38.1,55.2,29.5,54.3,29.5,54.3z"/>
		<path class="st1" d="M39.6,33.7l2.2,1.7L36.6,40c0.4,0.3,0.8,0.6,1.1,1.1c0.5,1,0.4,2.1-0.2,3l0,0c-0.1,0.1-0.2,0.2-0.3,0.3
			l0.6,7.1l0.4,3.3l-3.9-0.4l0,0l-4.6-0.5l1.6-2L28,47.5c-1.1-0.3-2-1.3-2.1-2.5l0,0c-0.4-0.4-0.7-0.4-1.3-0.6l-6.3,2.4l-1-2.6
			l3.9-2.2c1.3-0.7,1.9-1.5,3-2.2c0.8-0.5,1.9-0.4,2.4-0.9c0.4,0.3,1,0.4,1.5,0.4c0.4,0,0.8-0.1,1.2-0.2c0.1,0,0.1,0,0.2-0.1h0.1
			c0.1,0,0.1-0.1,0.2-0.1c0,0,0.1,0,0.1-0.1c0.1,0,0.1-0.1,0.2-0.1c0,0,0.1,0,0.1-0.1c0.1,0,0.1-0.1,0.1-0.1s0.1,0,0.1-0.1l0.1-0.1
			c0,0,0,0,0.1-0.1l0.1-0.1c0,0,0,0,0-0.1s0-0.1,0.1-0.2c0,0,0,0,0-0.1s0-0.2,0-0.2c0.9-0.1,1.3-0.9,2.7-1c1.5-0.2,1.3,0.1,2.9-0.8
			C37.4,35.1,39.4,33.9,39.6,33.7 M37.4,44.1L37.4,44.1 M39.6,32.9c-0.1,0-0.2,0-0.4,0.1s-0.7,0.4-1.8,1c-0.6,0.4-1.2,0.7-1.8,1
			c-1,0.6-1.1,0.6-1.7,0.6c-0.2,0-0.5,0-0.9,0.1c-1,0.1-1.5,0.4-2,0.7c-0.3,0.2-0.5,0.3-0.7,0.3c-0.4,0.1-0.7,0.4-0.7,0.9l0,0l0,0
			l0,0l0,0l0,0l-0.1,0.1h-0.1l-0.1,0.1c0,0,0,0-0.1,0s-0.1,0.1-0.1,0.1H29c-0.1,0-0.1,0.1-0.1,0.1h-0.1c-0.1,0-0.1,0-0.1,0.1
			c-0.3,0.1-0.6,0.1-0.9,0.1c-0.4,0-0.8-0.1-1.1-0.3c-0.1-0.1-0.3-0.1-0.4-0.1c-0.2,0-0.4,0.1-0.6,0.2c-0.1,0.1-0.4,0.1-0.7,0.2
			c-0.5,0.1-1,0.2-1.6,0.5c-0.5,0.3-1,0.7-1.4,1c-0.5,0.4-0.9,0.8-1.6,1.1L16.5,43c-0.4,0.2-0.5,0.6-0.4,1l1,2.6
			c0.1,0.3,0.4,0.5,0.8,0.5c0.1,0,0.2,0,0.3-0.1l6.1-2.3h0.1c0.2,0.1,0.3,0.1,0.4,0.1c0.2,1.3,1.1,2.3,2.3,2.8l2.7,3.7l-1.2,1.5
			c-0.2,0.2-0.2,0.6-0.1,0.8c0.1,0.3,0.4,0.5,0.7,0.5l4.6,0.5l3.9,0.4h0.1c0.2,0,0.4-0.1,0.6-0.2c0.2-0.2,0.3-0.4,0.2-0.7l-0.4-3.3
			L38,44.7l0,0l0.1-0.1c0.8-1.1,0.9-2.5,0.2-3.7c-0.1-0.3-0.3-0.5-0.5-0.8l4.6-3.9c0.2-0.2,0.3-0.4,0.3-0.7c0-0.2-0.1-0.5-0.3-0.6
			l-2.2-1.7C40,33,39.8,32.9,39.6,32.9L39.6,32.9z"/>
	</g>
	<g>
		<path class="st0" d="M27,89.4c-0.1,0-0.3-0.1-0.4-0.2l-0.1-0.1c-0.8-1.2-1.2-2-1.1-3.6c-0.2-0.6-0.4-1-0.6-1.3
			c-0.2-0.5-0.4-0.8-0.2-1.3c0.5-1,1-1,1.6-1c0.2,0,0.5,0,0.8-0.1c0.6-0.2,1.1-0.6,1.8-1l0.2-0.1c0.1,0,0.1-0.1,0.2-0.1h0.1
			c0.1,0,0.2,0.1,0.3,0.2l1,1.9c0.1,0.2,0.1,0.4-0.1,0.5c-1.2,1.1-1.3,1.3-2.1,2.8c-0.3,0.7-0.5,1.1-0.6,1.4
			c-0.2,0.5-0.3,0.7-0.5,1.7C27.4,89.3,27.3,89.4,27,89.4C27.1,89.4,27,89.4,27,89.4z"/>
		<path class="st1" d="M29.4,81l1,1.9c-1.2,1.1-1.4,1.4-2.2,2.9c-0.8,2-0.9,1.5-1.2,3.3c-0.8-1.3-1.2-1.9-1.1-3.5
			c-0.6-1.7-1.1-1.9-0.8-2.4c0.7-1.3,1.1-0.6,2.1-1C28,81.9,28.6,81.4,29.4,81 M29.4,80.2c-0.2,0-0.3,0-0.4,0.1l-0.2,0.1
			c-0.6,0.4-1.2,0.7-1.7,0.9c-0.2,0.1-0.4,0.1-0.6,0.1c-0.7,0-1.3,0.1-2,1.3c-0.4,0.7-0.1,1.2,0.2,1.7c0.1,0.3,0.3,0.6,0.5,1.2
			c-0.1,1.7,0.4,2.5,1.2,3.8l0.1,0.1c0.2,0.3,0.4,0.4,0.7,0.4c0.1,0,0.1,0,0.2,0c0.3-0.1,0.6-0.3,0.7-0.7c0.2-1,0.2-1.1,0.5-1.6
			c0.1-0.3,0.3-0.7,0.6-1.4c0.7-1.4,0.9-1.6,2-2.6c0.3-0.3,0.4-0.7,0.2-1l-1-1.9c-0.1-0.2-0.3-0.4-0.5-0.4
			C29.5,80.2,29.5,80.2,29.4,80.2L29.4,80.2z"/>
	</g>
	<g>
		<path class="st0" d="M28,90.9c-0.4,0-0.7-0.3-1.1-0.9c-0.5-0.9-1.5-2.6-1.5-4.1c-0.2-0.5-0.4-0.9-0.6-1.2
			c-0.4-0.7-0.7-1.2-0.4-1.9c0.2-0.7,0.8-1.1,1.6-1.1c0.3,0,0.5,0,0.8,0.1H27c0.2,0,0.3,0.1,0.3,0.3l1.3,3.7c0,0.1,0,0.2,0,0.3
			c-0.1,0.2,0,1.3,0.1,1.9c0.1,0.5,0.1,1,0.1,1.4C28.8,89.7,28.7,90.9,28,90.9L28,90.9z"/>
		<path class="st1" d="M26,82c0.3,0,0.6,0,0.9,0.1l1.3,3.7c-0.3,0.6,0.2,2.6,0.2,3.4s-0.2,1.2-0.4,1.2c-0.2,0-0.4-0.2-0.8-0.7
			c-0.7-1.2-1.4-2.7-1.4-4c-0.7-1.6-1.3-2.1-1.1-2.9C24.9,82.2,25.4,82,26,82 M26,81.2c-1.3,0-1.8,0.8-2,1.4
			c-0.3,0.9,0.1,1.5,0.5,2.2c0.2,0.3,0.4,0.6,0.6,1.1c0,1.5,0.9,3.1,1.5,4.2c0.3,0.5,0.8,1.1,1.5,1.1c0.8,0,1.2-0.7,1.2-2
			c0-0.4-0.1-0.9-0.1-1.4c-0.1-0.5-0.2-1.5-0.1-1.7s0.1-0.4,0-0.6l-1.3-3.7c-0.1-0.3-0.4-0.5-0.7-0.6h-0.2
			C26.6,81.2,26.3,81.2,26,81.2L26,81.2z"/>
	</g>
	<g>
		<path class="st0" d="M19.2,68.3c-0.1,0-0.1,0-0.2,0c-1.5-0.6-1.8-0.6-3.4-0.7c-0.5,0-0.8,0-1.1,0h-0.7c-0.4,0-0.6,0-1.5,0.3h-0.1
			c-0.1,0-0.3-0.1-0.3-0.2c-0.1-0.1-0.1-0.3,0-0.5l0.1-0.1c0.8-1.2,1.3-1.9,2.8-2.5c0.5-0.5,0.8-0.8,1-1.1c0.3-0.4,0.5-0.7,1-0.7
			c1.2,0.1,1.5,0.5,1.7,1c0.1,0.2,0.2,0.4,0.4,0.6c0.5,0.4,1,0.8,1.6,1.2l0.2,0.1c0.1,0.1,0.2,0.2,0.2,0.3c0,0.1,0,0.2-0.1,0.3
			L19.5,68C19.5,68.2,19.4,68.3,19.2,68.3z"/>
		<path class="st1" d="M16.8,63.3L16.8,63.3c1.5,0.1,1.1,0.7,1.8,1.5c0.5,0.5,1.2,0.9,1.9,1.4l-1.3,1.7c-1.5-0.6-1.9-0.7-3.5-0.8
			c-0.5,0-0.9,0-1.1,0c-0.3,0-0.5,0-0.7,0c-0.4,0-0.7,0-1.6,0.3c0.9-1.3,1.3-1.9,2.8-2.5C16.2,63.8,16.2,63.3,16.8,63.3 M16.8,62.4
			c-0.7,0-1.1,0.4-1.4,0.9c-0.2,0.2-0.4,0.6-0.9,1c-1.6,0.6-2.1,1.4-2.9,2.6V67c-0.2,0.3-0.2,0.7,0,0.9c0.2,0.2,0.4,0.3,0.7,0.3
			c0.1,0,0.1,0,0.2,0c0.9-0.2,1.1-0.3,1.4-0.3h0.2c0.1,0,0.3,0,0.4,0c0.3,0,0.6,0,1.1,0c1.6,0.1,1.8,0.1,3.2,0.7
			c0.1,0,0.2,0.1,0.3,0.1c0.3,0,0.5-0.1,0.7-0.3l1.3-1.7c0.1-0.2,0.2-0.4,0.2-0.6s-0.2-0.4-0.4-0.6l-0.2-0.1
			c-0.6-0.4-1.1-0.8-1.6-1.2C19,64,19,63.9,18.9,63.7c-0.3-0.6-0.7-1.2-2-1.2C16.8,62.4,16.8,62.4,16.8,62.4L16.8,62.4z"/>
	</g>
	<g>
		<path class="st0" d="M29,84.8L29,84.8c-0.2,0-0.3-0.1-0.4-0.2l-1.5-2.5c-0.1-0.2-0.1-0.4,0.1-0.5l7.7-7.1l0.1-0.1l3.5-1.5
			l-6.2-10.7c-0.1-0.1-0.1-0.2,0-0.3l0.2-0.7c0.4-2,0.8-3.8,1.1-5.6c0-0.2,0.2-0.4,0.4-0.4c0,0,0,0,0.1,0l4.1,0.6
			c0.2,0,0.3,0.2,0.4,0.4l0.3,3.1l0.2,1L43.7,72c0.5,1.2,0.9,2.9-1,4.1l-13.4,8.6C29.2,84.8,29.1,84.8,29,84.8z"/>
		<path class="st1" d="M34,55.8l4.1,0.6l0.3,3.1l0.2,1.1l4.6,11.8c0.6,1.4,0.6,2.7-0.8,3.6L29,84.4L27.5,82l7.7-7.1l4-1.7l-6.5-11.1
			C33.2,59.8,33.7,57.7,34,55.8 M34,54.9c-0.4,0-0.8,0.3-0.8,0.7c-0.3,1.7-0.7,3.6-1.1,5.5l-0.2,0.7c0,0.2,0,0.4,0.1,0.6l6,10.3
			l-3.1,1.4c-0.1,0-0.2,0.1-0.2,0.2l-7.7,7c-0.3,0.3-0.4,0.7-0.1,1l1.5,2.5c0.1,0.2,0.3,0.3,0.5,0.4c0.1,0,0.1,0,0.2,0
			c0.2,0,0.3,0,0.4-0.1l13.4-8.6c2.3-1.5,1.4-3.8,1.1-4.6l-4.6-11.7l-0.2-0.9l-0.2-3c0-0.4-0.3-0.7-0.7-0.8l-4.1-0.6
			C34.1,54.9,34.1,54.9,34,54.9L34,54.9z"/>
	</g>
	<g>
		<path class="st0" d="M29,84.8L29,84.8c-0.2,0-0.3-0.1-0.4-0.2l-1.5-2.5c-0.1-0.2-0.1-0.4,0.1-0.5l7.7-7.1l0.1-0.1l3.5-1.5
			l-5.6-9.5l0.5,10.3c-0.1,0.8-0.3,1.4-0.5,1.9c-0.1,0.1-0.1,0.3-0.2,0.4l-0.1,0.1c-0.1,0.1-0.2,0.2-0.3,0.3
			c-0.2,0.1-0.3,0.2-0.4,0.2c-0.2,0.1-0.3,0.1-0.5,0.1h-0.1c-0.2,0-0.3,0-0.4-0.1L17,67.7c-0.1-0.1-0.2-0.2-0.2-0.3
			c0-0.1,0-0.2,0.1-0.3l1.6-2.4c0.1-0.1,0.2-0.2,0.3-0.2c0.1,0,0.1,0,0.2,0l8.8,3.7l-1.6-6.6c-0.4-1.7-0.3-2.9,0.4-3.8l2.1-3
			c0.1-0.1,0.2-0.2,0.3-0.2c0,0,0,0,0.1,0l9.1,1.4c0.2,0,0.3,0.2,0.4,0.4l0.3,3.1l0.2,1l4.6,11.7c0.5,1.2,0.9,2.9-1,4.1l-13.4,8.6
			C29.2,84.8,29.1,84.8,29,84.8z"/>
		<path class="st1" d="M29.1,55l9.1,1.4l0.3,3.1l0.2,1.1l4.6,11.8c0.6,1.4,0.6,2.7-0.8,3.6L29,84.4l-0.5-0.8l0,0l-1-1.7l7.7-7.1
			l4-1.7L32.7,62l-0.1,0l0.6,11.7c-0.1,0.7-0.2,1.2-0.5,1.6l0,0c-0.1,0.1-0.1,0.2-0.2,0.3c0,0,0,0,0,0.1c-0.1,0.1-0.2,0.2-0.2,0.2
			l0,0C32.2,76,32.1,76,32.1,76l0,0c-0.1,0-0.2,0-0.3,0l0,0c0,0,0,0-0.1,0s-0.2,0-0.3-0.1l-14-8.7l1.6-2.4l9.6,4l-1.8-7.4
			C26.2,60,26.3,58.9,27,58L29.1,55 M29.1,54.2c-0.3,0-0.5,0.1-0.7,0.4l-2.1,3c-0.8,1.1-0.9,2.4-0.5,4.2l1.4,5.8l-8-3.3
			c-0.1,0-0.2-0.1-0.3-0.1c-0.3,0-0.5,0.1-0.7,0.4L16.6,67c-0.1,0.2-0.2,0.4-0.1,0.6c0,0.2,0.2,0.4,0.4,0.5l14,8.7
			c0,0,0.1,0,0.1,0.1c0.2,0.1,0.3,0.1,0.5,0.1h0.1l0,0h0.1L27,81.3c-0.3,0.3-0.4,0.7-0.1,1l1,1.7l0.5,0.8c0.1,0.2,0.3,0.3,0.5,0.4
			c0.1,0,0.1,0,0.2,0c0.2,0,0.3,0,0.4-0.1l13.4-8.6c2.3-1.5,1.4-3.8,1.1-4.6l-4.6-11.7l-0.2-0.9l-0.2-3c0-0.4-0.3-0.7-0.7-0.8
			L29.1,54.2C29.1,54.2,29.1,54.2,29.1,54.2L29.1,54.2z M33.7,75.2c0.1-0.4,0.3-0.9,0.3-1.4v-0.1l-0.4-8.6l4.5,7.7L35,74.2
			c-0.1,0-0.2,0.1-0.2,0.2L33.7,75.2L33.7,75.2z"/>
	</g>
	<g>
		<path class="st0" d="M11.6,69.5c-0.4,0-0.6-0.2-0.7-0.3c-0.2-0.3-0.1-0.8,0.4-1.4c0.6-0.9,1.7-2.4,3.1-3.1c0.4-0.4,0.6-0.8,0.8-1
			c0.5-0.6,0.8-1.1,1.5-1.2c0.1,0,0.2,0,0.2,0c1.1,0,1.5,1.1,1.7,1.8v0.1c0,0.2,0,0.3-0.1,0.4l-2.8,2.8c-0.1,0.1-0.2,0.1-0.3,0.1
			l0,0c-0.3,0-1.2,0.6-1.7,0.9s-0.9,0.5-1.2,0.7C12.3,69.4,11.9,69.5,11.6,69.5z"/>
		<path class="st1" d="M17.1,62.8c0.9,0,1.1,0.9,1.4,1.7l-2.8,2.7l0,0c-0.6,0-2.3,1.3-3,1.6c-0.4,0.2-0.7,0.3-0.9,0.3
			c-0.4,0-0.4-0.4,0.1-1.1c0.8-1.2,1.9-2.4,3-3c1.2-1.4,1.3-2.1,2.1-2.2C16.9,62.8,17,62.8,17.1,62.8 M17.1,61.9c-0.1,0-0.2,0-0.3,0
			c-0.9,0.1-1.3,0.7-1.8,1.4c-0.2,0.3-0.4,0.6-0.7,1c-1.4,0.7-2.5,2.1-3.2,3.2c-0.4,0.5-0.7,1.2-0.4,1.9c0.1,0.2,0.4,0.6,1,0.6
			c0.3,0,0.7-0.1,1.3-0.3c0.3-0.1,0.8-0.4,1.2-0.7c0.4-0.3,1.3-0.8,1.5-0.8l0,0c0.2,0,0.4-0.1,0.5-0.2l2.8-3
			c0.2-0.2,0.3-0.6,0.2-0.9V64C19,63.3,18.5,61.9,17.1,61.9L17.1,61.9z"/>
	</g>
	<g>
		<path class="st0" d="M15.2,38.2c-0.1,0-0.2,0-0.3-0.1c-0.2-0.1-0.2-0.4-0.1-0.6c1.5-2.2,2.9-3.2,4.5-3.2h0.2c0.1,0,0.3,0,0.4,0
			c0.8,0,1.4-0.1,1.7-0.4c0.4-0.4,0.4-1.2,0.3-2.1c0-0.4,0-0.8,0-1.2c0.1-2.7,2.6-4.3,4.8-4.3c1.3,0,2.4,0.6,2.9,1.6
			c0.5,1.1,0.4,1.9,0.3,2.6c-0.1,0.6-0.1,1.1,0.1,1.8c0.1,0.2,0,0.4-0.2,0.5c-0.1,0-0.1,0-0.2,0s-0.3-0.1-0.3-0.2
			c-0.6-0.7-0.8-1.5-1-2.2c-0.3-0.9-0.4-1.5-1.1-1.9c-0.8,0.2-1.1,1.1-1.6,2.4c-0.7,2-1.7,4.7-5.6,4.7l0,0c-0.2,0-0.3,0-0.5,0h-0.1
			c-1,0-2.2,0.7-3.8,2.3C15.4,38.2,15.3,38.2,15.2,38.2z"/>
		<path class="st1" d="M26.8,26.8c1.1,0,2.1,0.4,2.5,1.4c0.8,1.9-0.2,2.6,0.3,4.4c-1.2-1.6-0.7-3.5-2.4-4.3
			c-2.8,0.5-1.2,7.2-7.2,7.2c-0.2,0-0.3,0-0.5,0h-0.1c-1.3,0-2.7,1-4.1,2.4c1.3-1.9,2.6-3,4.2-3c0.1,0,0.1,0,0.2,0
			c0.2,0,0.3,0,0.4,0c3.1,0,2.3-2,2.4-4.1C22.5,28.2,24.8,26.8,26.8,26.8 M26.8,25.9c-2.4,0-5.1,1.8-5.2,4.7c0,0.4,0,0.8,0,1.2
			c0,0.8,0.1,1.5-0.2,1.8C21.2,33.8,20.7,34,20,34c-0.1,0-0.3,0-0.4,0s-0.1,0-0.2,0c-2.2,0-3.8,1.9-4.9,3.4
			c-0.2,0.4-0.2,0.8,0.1,1.1c0.2,0.1,0.3,0.2,0.5,0.2s0.4-0.1,0.6-0.2c1.5-1.5,2.6-2.1,3.5-2.1h0.1c0.2,0,0.4,0,0.5,0
			c4.2,0,5.3-3,6-5c0.4-1.1,0.7-1.9,1.1-2.1c0.4,0.3,0.6,0.7,0.8,1.5c0.2,0.7,0.4,1.5,1.1,2.3c0.2,0.2,0.4,0.3,0.7,0.3
			c0.1,0,0.3,0,0.4-0.1c0.4-0.2,0.5-0.6,0.4-1c-0.2-0.6-0.1-1.1-0.1-1.6c0.1-0.8,0.2-1.6-0.3-2.9C29.5,26.6,28.3,25.9,26.8,25.9
			L26.8,25.9z"/>
	</g>
	<g>
		<path class="st0" d="M105.3,94.5c-0.1,0-0.3,0-0.4-0.1s-0.1-0.2-0.1-0.3c0-0.6,0.1-1.2,0.2-1.8c0.2-1.4,0.4-2.9-0.5-4.6
			c-1.4-2.7-6.4-6.7-8.9-8.7c-0.4-0.3-0.7-0.6-1-0.8c-2.8-2.3-3.5-4.4-2.9-5.4c0.2-0.3,0.5-0.6,1.2-0.6c1,0,2.7,0.7,5.2,2.2
			c3.4,2.1,5.1,5,6.6,7.5c0.9,1.5,1.7,2.8,2.8,4c0.2,0.2,0.5,0.3,0.8,0.5c0.4,0.2,0.8,0.3,1.1,0.7c0.8,1.1,0,1.6-0.5,2
			c-0.2,0.2-0.5,0.4-0.8,0.7c-0.4,0.5-0.5,1-0.5,1.5s-0.1,0.9-0.4,1.4C106.3,93.9,105.8,94.5,105.3,94.5z"/>
		<path class="st1" d="M92.9,72.6c1,0,2.7,0.7,5,2.1c5.3,3.3,6.2,8.2,9.3,11.4c0.6,0.6,1.4,0.6,1.8,1.1c0.8,1.1-0.4,1.2-1.2,2.2
			c-0.9,1-0.4,2.1-0.9,2.9c-0.4,0.6-1.1,1.7-1.5,1.7h-0.1c0-2,1-4-0.4-6.6c-1.7-3.2-8.1-8-9.9-9.6c-2.7-2.2-3.2-4.1-2.8-4.8
			C92.2,72.7,92.5,72.6,92.9,72.6 M92.9,71.8L92.9,71.8c-0.9,0-1.4,0.5-1.5,0.8c-0.7,1.1,0,3.4,3,5.9c0.3,0.2,0.6,0.5,1,0.8
			c2.4,1.9,7.4,6,8.7,8.5c0.8,1.6,0.7,3,0.5,4.4c-0.1,0.6-0.2,1.2-0.2,1.9c0,0.2,0.1,0.5,0.3,0.6c0.2,0.2,0.4,0.2,0.6,0.2
			c0.7,0,1.2-0.6,2.2-2.1c0.3-0.5,0.4-1.1,0.4-1.5c0.1-0.5,0.1-0.9,0.4-1.3c0.2-0.3,0.5-0.4,0.7-0.6c0.5-0.4,1.6-1.2,0.6-2.6
			c-0.4-0.5-0.9-0.7-1.3-0.9c-0.3-0.1-0.5-0.2-0.7-0.4c-1-1.1-1.8-2.4-2.7-3.9c-1.5-2.5-3.2-5.4-6.7-7.6
			C95.8,72.5,94,71.8,92.9,71.8L92.9,71.8z"/>
	</g>
	<g>
		<path class="st0" d="M105.3,94.5c-0.1,0-0.3,0-0.4-0.1s-0.2-0.2-0.2-0.4l0.2-1.9c0-0.1,0-0.1,0-0.2l0.1-0.2c0.4-0.7,1.1-2,1.4-3.1
			c0.3-0.8,0.5-1.6,0.9-2.4c0.1-0.2,0.2-0.3,0.4-0.3h0.1c1.1,0,1.8,0.6,1.9,1.7c0,0.6-0.4,1-0.8,1.3c-0.2,0.2-0.5,0.4-0.8,0.7
			c-0.4,0.5-0.5,1-0.5,1.5s-0.1,0.9-0.4,1.4C106,94.5,105.4,94.5,105.3,94.5z"/>
		<path class="st1" d="M107.9,86.5c0.8,0,1.4,0.4,1.4,1.3c0,0.6-0.8,0.9-1.5,1.7c-0.9,1-0.4,2.1-0.9,2.9c-0.4,0.6-1.2,1.7-1.6,1.7
			h-0.1l0.2-1.9c0.3-0.6,1.2-2.2,1.6-3.3C107.2,88.1,107.5,87.4,107.9,86.5C107.8,86.5,107.8,86.5,107.9,86.5 M107.9,85.6
			L107.9,85.6c-0.4,0-0.7,0.2-0.8,0.5c-0.3,0.8-0.6,1.6-0.9,2.4c-0.3,1-1,2.4-1.4,3l-0.1,0.2c-0.1,0.1-0.1,0.2-0.1,0.3l-0.2,1.9
			c0,0.3,0.1,0.6,0.3,0.7c0.2,0.1,0.4,0.2,0.6,0.2c0.3,0,0.9,0,2.3-2.1c0.3-0.5,0.4-1.1,0.4-1.5c0.1-0.5,0.1-0.9,0.4-1.3
			c0.2-0.3,0.5-0.5,0.7-0.6c0.5-0.4,1.1-0.8,1-1.7C110.1,86.5,109.2,85.6,107.9,85.6L107.9,85.6z"/>
	</g>
	<g>
		<path class="st0" d="M96.1,75.5c-0.5,0-0.8-0.3-1-0.7c-0.5-1.1,0.4-3.2,2.5-5.9c2.5-3.2,5.4-4.6,8.1-5.8c1.5-0.7,3-1.4,4.2-2.3
			c0.2-0.2,0.4-0.5,0.5-0.7c0.2-0.4,0.4-0.8,0.8-1c0.3-0.2,0.6-0.2,0.8-0.2c0.6,0,0.9,0.5,1.2,0.9c0.2,0.3,0.3,0.6,0.6,0.8
			c0.4,0.5,0.9,0.6,1.5,0.7c0.5,0.1,0.9,0.2,1.3,0.5c1.1,0.9,1.7,1.4,1.7,1.9c0,0.2-0.1,0.3-0.2,0.5c-0.1,0.1-0.2,0.1-0.3,0.1l0,0
			c-0.6-0.1-1.2-0.2-1.8-0.4c-0.8-0.2-1.6-0.4-2.5-0.4c-0.7,0-1.4,0.1-2.1,0.4c-2.8,1.1-7.3,5.7-9.5,7.9c-0.4,0.4-0.7,0.7-0.9,0.9
			c-1.8,1.8-3.5,2.8-4.7,2.8C96.2,75.5,96.1,75.5,96.1,75.5z"/>
		<path class="st1" d="M112,59.2c0.6,0,0.7,0.9,1.5,1.7c0.9,1,2.1,0.6,2.8,1.2c0.6,0.5,1.8,1.4,1.5,1.7c-1.4-0.1-2.7-0.8-4.3-0.8
			c-0.7,0-1.5,0.1-2.3,0.5c-3.3,1.3-8.8,7.2-10.6,8.9c-2,2-3.5,2.7-4.4,2.7h-0.1c-1.4-0.1-0.8-2.5,1.8-5.9c3.8-4.9,8.8-5.4,12.2-8
			c0.6-0.5,0.7-1.4,1.3-1.7C111.7,59.2,111.8,59.2,112,59.2 M112,58.3c-0.3,0-0.6,0.1-1,0.3c-0.5,0.3-0.8,0.8-1,1.2
			c-0.1,0.3-0.3,0.5-0.4,0.6c-1.2,0.9-2.6,1.6-4.1,2.3c-2.7,1.2-5.7,2.6-8.2,5.9c-1.3,1.7-3.2,4.7-2.5,6.3c0.2,0.5,0.7,0.9,1.3,0.9
			c0.1,0,0.1,0,0.2,0c1.3,0,3.1-1.1,5-2.9c0.2-0.2,0.5-0.5,0.9-0.9c2.2-2.2,6.7-6.7,9.4-7.8c0.7-0.3,1.3-0.4,2-0.4
			c0.8,0,1.6,0.2,2.4,0.4c0.6,0.1,1.2,0.3,1.8,0.4h0.1c0.2,0,0.4-0.1,0.6-0.2c0.2-0.2,0.3-0.5,0.3-0.8c0-0.7-0.6-1.2-1.9-2.2
			c-0.5-0.4-1-0.5-1.5-0.6s-0.9-0.2-1.3-0.6c-0.2-0.2-0.4-0.5-0.5-0.8C113.2,59,112.8,58.3,112,58.3L112,58.3z"/>
	</g>
	<g>
		<path class="st0" d="M117.9,64.3l-1.9-0.4c-0.1,0-0.1,0-0.1-0.1l-0.2-0.1c-0.6-0.4-1.9-1.3-3-1.7c-0.8-0.3-1.5-0.7-2.3-1.1
			c-0.1-0.1-0.2-0.2-0.2-0.4c0.1-1.1,0.8-1.8,1.8-1.8h0.1c0.6,0,0.9,0.5,1.2,1c0.2,0.3,0.3,0.6,0.6,0.8c0.4,0.5,1,0.6,1.5,0.7
			c0.5,0.1,0.9,0.2,1.3,0.5c1.7,1.4,1.7,1.9,1.7,2c0,0.2-0.1,0.3-0.2,0.5C118.2,64.2,118.1,64.3,117.9,64.3L117.9,64.3z"/>
		<path class="st1" d="M111.9,59.1C112,59.1,112,59.1,111.9,59.1c0.7,0,0.9,0.9,1.6,1.7c0.9,1,2.1,0.6,2.9,1.2
			c0.7,0.5,1.8,1.6,1.5,1.9l-1.9-0.4c-0.6-0.4-2-1.4-3.2-1.9c-0.8-0.3-1.5-0.7-2.3-1.1C110.6,59.7,111.1,59.1,111.9,59.1
			 M111.9,58.2L111.9,58.2c-1.2,0-2.1,0.9-2.2,2.2c0,0.3,0.2,0.6,0.5,0.8c0.8,0.4,1.5,0.8,2.3,1.1c1,0.4,2.3,1.3,2.9,1.7l0.2,0.1
			c0.1,0.1,0.2,0.1,0.3,0.1l1.9,0.4c0.1,0,0.1,0,0.2,0c0.2,0,0.4-0.1,0.6-0.2c0.2-0.2,0.3-0.5,0.3-0.8s0-0.9-1.9-2.3
			c-0.5-0.4-1-0.5-1.5-0.6s-0.9-0.2-1.3-0.6c-0.2-0.2-0.4-0.5-0.6-0.8c-0.3-0.5-0.7-1.1-1.5-1.2L111.9,58.2L111.9,58.2z"/>
	</g>
	<g>
		<path class="st0" d="M105.3,89.1c-0.2,0-0.3-0.1-0.3-0.3c-1.1-3.1-7.8-8.6-10.3-10.7c-1.3-1.1-2.3-2.2-2.7-3.2
			c-0.1-0.2-0.2-0.4-0.2-0.7c-0.1-0.2-0.1-0.5-0.1-0.7c0-0.1,0-0.2,0-0.4c-0.2-6.3,1.2-11.2,2.8-16.9c0.2-0.7,0.2-1.5,0.1-2.2
			c0-0.1,0-0.2,0.1-0.3s0.2-0.2,0.3-0.2l0.8-0.1c0,0,0,0,0.1,0H96l5.5,1.6c0.2,0.1,0.3,0.3,0.3,0.5v0.1c-1.8,6-3.4,11.7-4.9,17.7
			c0.5,0.3,1,0.6,1.6,0.9c3.5,2.1,5.2,4.9,6.7,7.4c0.9,1.4,1.7,2.7,2.7,3.9c0.1,0.1,0.2,0.4,0,0.5l-1.8,2.7
			C105.6,89,105.5,89.1,105.3,89.1C105.4,89.1,105.3,89.1,105.3,89.1z"/>
		<path class="st1" d="M95.6,53.9l5.5,1.6c-1.8,6.2-3.5,12-5,18.2c0.6,0.3,1.2,0.6,1.9,1.1c5.3,3.3,6.3,8,9.3,11.2l-1.8,2.7
			c-1.2-3.1-7.5-8.4-10.5-10.9c-1.4-1.2-2.2-2.2-2.6-3.1c-0.1-0.2-0.2-0.4-0.2-0.6C92,73.9,92,73.7,92,73.6s0-0.3,0-0.4
			c-0.2-6.2,1.1-10.9,2.8-16.8c0.2-0.7,0.2-1.6,0.1-2.4L95.6,53.9 M95.6,53L95.6,53l-0.9,0.1c-0.2,0-0.4,0.2-0.6,0.3
			C94,53.6,93.9,53.8,94,54c0.1,0.7,0.1,1.4,0,2c-1.6,5.7-3,10.6-2.8,17c0,0.1,0,0.3,0,0.4c0,0.2,0,0.5,0.1,0.8s0.2,0.5,0.3,0.7
			c0.5,1.1,1.5,2.2,2.8,3.4c2.3,1.9,9.1,7.6,10.2,10.5c0.1,0.3,0.4,0.5,0.7,0.5h0.1c0.3,0,0.5-0.1,0.7-0.4l1.8-2.7
			c0.2-0.3,0.2-0.8-0.1-1c-1-1.1-1.8-2.4-2.7-3.8c-1.5-2.5-3.3-5.3-6.8-7.5c-0.5-0.3-0.9-0.5-1.3-0.8c1.4-5.9,3.1-11.5,4.8-17.4
			v-0.1c0.1-0.4-0.1-0.9-0.6-1L95.6,53C95.7,53,95.7,53,95.6,53L95.6,53z"/>
	</g>
	<g>
		<path class="st0" d="M96.2,75.5c-0.3,0-0.5,0-0.7-0.1c-1.4-0.4-1.4-1.8-1.5-4.8V70c-0.1-4.7,0.4-10,0.8-12.8
			c0-0.3,0.1-0.5,0.2-0.8c0.2-0.8,0.3-1.4,0-2.4c0-0.1,0-0.2,0.1-0.3s0.2-0.2,0.3-0.2c1.5-0.3,2.6-0.5,5.4-1.5h0.1
			c0.1,0,0.2,0.1,0.3,0.1c0.2,0.3,0.5,0.5,0.7,0.8c0.4,0.4,0.9,0.9,1.2,1.5c1.3,2.2,0.1,4.3-0.9,6.1c-0.1,0.2-0.2,0.4-0.4,0.6
			c-0.8,1.5-1,2.9-1.1,4.3c0,0.1,0,0.2,0,0.3c1.7-1.3,3.5-2.2,5.2-3c1.3-0.6,2.6-1.3,3.7-2c0.1,0,0.2-0.1,0.2-0.1
			c0.1,0,0.2,0,0.3,0.1l2.2,2.4c0.1,0.1,0.1,0.2,0.1,0.4c0,0.1-0.1,0.2-0.3,0.3c-3.1,1.3-9.2,6.9-11.3,8.9c-1.7,1.7-3.3,2.6-4.4,2.8
			H96.2C96.3,75.5,96.2,75.5,96.2,75.5z"/>
		<path class="st1" d="M100.9,52.3c0.7,0.8,1.4,1.3,1.9,2.2c1.3,2.2-0.2,4.4-1.3,6.3c-1.1,2.1-1.1,3.8-1.4,5.8
			c3.3-2.8,6.8-3.7,9.7-5.7l2.2,2.4c-3.3,1.3-9.7,7.3-11.4,9c-1.9,1.8-3.3,2.6-4.3,2.7l0,0h-0.1c0,0,0,0-0.1,0c-0.2,0-0.3,0-0.5-0.1
			l0,0c-1.3-0.4-1.2-1.7-1.2-5c-0.1-4.5,0.3-9.8,0.8-12.7c0.2-1.4,0.5-1.9,0.1-3.3C96.9,53.6,98,53.4,100.9,52.3 M100.9,51.5
			c-0.1,0-0.2,0-0.3,0c-2.9,1-4,1.2-5.3,1.5c-0.2,0-0.4,0.2-0.6,0.4c-0.1,0.2-0.2,0.4-0.1,0.7c0.2,0.9,0.2,1.4,0,2.2
			c0,0.2-0.1,0.5-0.2,0.8c-0.5,2.8-0.9,8.2-0.8,12.9v0.6c0,3,0,4.6,1.7,5.2c0.2,0.1,0.5,0.2,0.8,0.2l0,0l0,0h0.1c0.1,0,0.2,0,0.3,0
			c1.2-0.2,2.9-1.2,4.6-2.9c2.1-2,8.1-7.6,11.2-8.8c0.3-0.1,0.4-0.3,0.5-0.6s0-0.5-0.2-0.7l-2.2-2.4c-0.2-0.2-0.4-0.3-0.6-0.3
			s-0.3,0-0.5,0.1c-1.1,0.8-2.3,1.4-3.7,2c-1.5,0.7-3,1.5-4.5,2.5c0.1-1.2,0.3-2.3,1-3.6c0.1-0.2,0.2-0.4,0.4-0.6
			c1-1.8,2.4-4.1,0.9-6.5c-0.4-0.6-0.8-1.1-1.3-1.5c-0.3-0.3-0.5-0.5-0.7-0.8C101.4,51.6,101.1,51.5,100.9,51.5L100.9,51.5z"/>
	</g>
	<g>
		<path class="st0" d="M100,34.2c-1,0-1.8-0.3-2.5-0.8c-1.4-1.2-2.2-2.9-2.3-4.9c-0.1-2.3,0.7-4.8,2.1-6.2c1.2-1.3,2.7-1.9,4.8-1.9
			c1.1,0,2.3,0.2,3.4,0.3c1.1,0.2,2.2,0.3,3.1,0.3l0,0c1.9,0,4-0.5,5.1-4.2c0.1-0.2,0.2-0.3,0.4-0.3c0,0,0,0,0.1,0
			c0.2,0,0.4,0.2,0.4,0.4c0,0.4,0,0.9,0,1.3c0,1.4,0,2.7-0.1,4.1c0.1,0,0.1-0.1,0.2-0.1l0,0c0.2,0,0.4,0.2,0.4,0.4
			c0.1,4.4-1.9,7.3-5.9,8.4c-0.5,0.1-0.9,0.3-1.3,0.4c-0.7,0.3-1.3,0.6-1.9,0.9c-0.6,0.3-1.2,0.7-2,0.9c-0.3,0.1-0.6,0.2-0.9,0.3
			s-0.6,0.2-0.8,0.3c-0.5,0.2-0.9,0.3-1.3,0.3c-0.1,0-0.2,0-0.3,0C100.5,34.2,100.3,34.2,100,34.2z"/>
		<path class="st1" d="M114.2,16.9c0,1.9,0.1,3.7-0.2,5.7c-0.5,4.1-2.2,5-5.5,6.2c3.2-0.4,5.6-1.2,6.2-6.2c0.2,5.6-3.1,7.3-5.6,8
			c-0.5,0.1-0.9,0.3-1.4,0.4c-1.5,0.6-2.5,1.3-3.9,1.9c-0.3,0.1-0.5,0.2-0.8,0.3c-0.8,0.3-1.5,0.6-1.9,0.6c-0.1,0-0.2,0-0.3,0
			c-0.2,0-0.5,0.1-0.7,0.1c-0.8,0-1.5-0.2-2.2-0.8c-3.5-3-2.3-8.4-0.2-10.6c1.3-1.3,2.9-1.7,4.5-1.7c2.2,0,4.5,0.6,6.6,0.6
			C111.1,21.4,113.1,20.6,114.2,16.9 M114.2,16.1c-0.4,0-0.7,0.2-0.8,0.6c-1,3.4-2.8,3.9-4.7,3.9c-1,0-2-0.1-3.1-0.3
			c-1.1-0.2-2.3-0.3-3.5-0.3c-2.2,0-3.8,0.6-5.1,2c-1.4,1.5-2.3,4.1-2.2,6.5c0.1,2.1,1,4,2.5,5.2c0.7,0.6,1.7,0.9,2.7,0.9
			c0.2,0,0.4,0,0.7,0c0.1,0,0.2,0,0.3,0c0.5,0,0.9-0.2,1.4-0.4c0.2-0.1,0.5-0.2,0.8-0.3s0.6-0.2,0.9-0.3c0.8-0.3,1.4-0.6,2-1
			c0.6-0.3,1.2-0.6,1.9-0.9c0.4-0.2,0.8-0.3,1.3-0.4c4.2-1.1,6.3-4.2,6.2-8.8c0-0.4-0.3-0.7-0.6-0.8c0.1-1.3,0.1-2.5,0.1-3.7
			c0-0.4,0-0.8,0-1.3c0-0.4-0.3-0.8-0.7-0.8C114.2,16.1,114.2,16.1,114.2,16.1L114.2,16.1z M114.2,17.7L114.2,17.7L114.2,17.7
			L114.2,17.7z"/>
	</g>
	<g>
		<path class="st0" d="M104.3,44.7c-0.1,0-0.3-0.1-0.4-0.2l-1.3-2.2c0,0-0.1,0-0.2,0.1l0,0c-0.2,0-0.4-0.1-0.5-0.3
			c-0.1,0-0.2-0.1-0.2-0.2c0,0,0,0-0.1,0s-0.2,0-0.3-0.1c-0.1-0.1-0.2-0.3-0.1-0.4c0.1-0.3,0.1-0.6,0.2-0.8c0.1-0.5,0.2-0.9,0.3-1.3
			c0-0.2,0.2-0.3,0.4-0.3l0,0c0.2,0,0.3,0.1,0.4,0.3c0.2,0.4,0.3,0.8,0.4,1.1c0.2,0.6,0.4,1.1,0.7,1.8l1,1.9c0.1,0.2,0,0.4-0.2,0.6
			C104.4,44.7,104.4,44.7,104.3,44.7z"/>
		<path class="st1" d="M102.1,39.4c0.4,1,0.6,1.9,1.1,2.9l1.1,2l-1.4-2.3c-0.1-0.1-0.2-0.2-0.3-0.2l-0.2,0.3l0,0
			c-0.1,0-0.5-0.5-0.7-0.5c0,0,0,0-0.1,0C101.8,40.8,102,40,102.1,39.4 M102.1,38.6L102.1,38.6c-0.4,0-0.7,0.3-0.8,0.6
			c-0.1,0.4-0.2,0.9-0.3,1.3c-0.1,0.3-0.1,0.5-0.2,0.8s0,0.6,0.3,0.9c0.1,0.1,0.3,0.2,0.4,0.2l0.1,0.1c0.2,0.2,0.4,0.4,0.8,0.4l0,0
			l1.2,1.9c0.2,0.3,0.4,0.4,0.7,0.4c0.1,0,0.3,0,0.4-0.1c0.4-0.2,0.5-0.7,0.3-1.1l-1-1.9c-0.3-0.6-0.5-1.1-0.7-1.7
			c-0.1-0.4-0.3-0.8-0.4-1.2S102.5,38.6,102.1,38.6L102.1,38.6z"/>
	</g>
	<g>
		<path class="st0" d="M94.6,54.6c-0.1,0-0.2,0-0.2-0.1c-0.1-0.1-0.2-0.2-0.2-0.3c-0.1-1.2-0.2-1.7-0.5-2.6c-0.7-2.7-1-4.5-0.6-8.9
			c-0.2-0.2-0.4-0.4-0.6-0.7c-0.8,0.5-1.5,0.8-1.9,1h-0.1L81,44.5c0,0,0,0-0.1,0c0,0,0,0-0.1,0l-1.5,0.3h-0.1c-0.1,0-0.2,0-0.3-0.1
			l-1.3-1.5l-2.2-0.4c-0.2,0-0.4-0.2-0.3-0.5l0.1-0.6c0-0.2,0.2-0.4,0.4-0.4c0,0,2.9-0.2,3-0.2s0.2,0,0.2,0.1l1.8,1.1H81l8.6-2.6
			c1.8-0.7,3.2-1.9,4.3-2.9c0.7-0.5,1.2-1,1.7-1.3c0.7-0.3,1.1-0.5,1.5-0.5c0.1,0,0.1,0,0.2,0c0.2-0.3,0.4-0.8,0.5-1.6
			c-0.2-0.3-0.4-0.6-0.5-1c-0.1-0.3-0.2-0.6-0.3-1c-0.2-0.1-0.4-0.4-0.4-0.9c0-0.2,0-0.5-0.1-0.7c0-0.3-0.1-0.5-0.1-0.7
			c0-0.3,0.1-0.6,0.3-0.8c0.1-0.1,0.3-0.2,0.4-0.2c0.1-0.3,0.1-0.5,0.2-0.7c0.6-1.5,1.7-2.4,3.1-2.4c0.2,0,0.4,0,0.6,0.1l0,0
			c2,0.4,2.9,1.4,2.8,3.4c0,0.4,0,0.7-0.1,1c0.1,0.1,0.2,0.1,0.2,0.2c0.1,0.2,0.1,0.5,0,0.9c-0.1,0.2-0.2,0.4-0.3,0.7
			c-0.1,0.2-0.2,0.4-0.3,0.6c0,0,0,0.1-0.1,0.1c-0.1,0.2-0.3,0.5-0.6,0.6l0,0c-0.2,0.3-0.3,0.5-0.5,0.7c-0.1,0.1-0.2,0.2-0.3,0.3
			c-0.3,0.3-0.6,0.5-0.9,0.7c-0.3,1.1-0.2,1.1,0.1,1.3c0.2,0.1,0.4,0.1,0.6,0.1s0.5,0,0.7-0.1h0.2c0.1,0,0.2,0,0.3,0
			c0.9,0,1.3,0.4,1.5,0.8c0.3,0.4,0.6,1.2,0.8,2c0.1,0.3,0.2,0.6,0.2,0.8l2.5,5.6l5.3,6.4l0.4,0.2l2,0.1c0.1,0,0.2,0,0.2,0.1
			l2.2,1.6c0.2,0.1,0.2,0.3,0.1,0.5l-0.2,0.5c-0.1,0.1-0.2,0.2-0.4,0.2c-0.1,0-0.1,0-0.2,0l-1.9-0.8l-1.8,0.5h-0.1
			c-0.1,0-0.2,0-0.3-0.1l-1-1c0,0-0.1,0-0.1-0.1l-6.7-6.1l-0.1-0.1l-2.7-4.3c-0.1,0.1-0.1,0.2-0.2,0.3c-0.4,0.5-0.7,0.9-1,1.3
			c-1.1,1.4-1.6,2.1-1.6,3.6c0,0.3,0,2.9,1.7,4.7c0.1,0.1,0.1,0.3,0.1,0.4c0,0.1-0.2,0.2-0.3,0.3L94.6,54.6
			C94.7,54.6,94.7,54.6,94.6,54.6z"/>
		<path class="st1" d="M100.5,25.6c0.2,0,0.4,0,0.6,0.1l0,0l0,0c1.8,0.3,2.5,1.2,2.4,2.9c0,0.5-0.1,1-0.2,1.4c0.1,0,0.1-0.1,0.2-0.1
			l0,0c0.2,0,0.2,0.3,0.1,0.6c-0.2,0.4-0.4,0.8-0.6,1.3v0.1c-0.1,0.2-0.2,0.3-0.3,0.3c0,0,0,0-0.1,0h-0.1c-0.2,0.4-0.4,0.6-0.6,0.9
			c-0.1,0.1-0.2,0.2-0.2,0.3c-0.4,0.3-0.6,0.6-0.9,0.7c0,0,0,0-0.1,0c-0.3,1.1-0.5,1.6,0.3,1.9c0.3,0.1,0.5,0.2,0.8,0.2
			s0.6,0,0.9-0.1c0.1,0,0.2,0,0.3,0c0.4,0,0.8,0.1,1.1,0.6c0.5,0.6,0.7,2.2,1,2.7l2.5,5.7l5.4,6.5l0.5,0.3l2.1,0.1l2.2,1.6l-0.2,0.5
			l-2.1-0.9l-1.9,0.5l-1.1-1.1l0,0l-6.7-6.1l-2.8-4.6c-0.1-0.1-0.2-0.2-0.3-0.2c-0.2,0.3-0.3,0.5-0.5,0.7c-1.7,2.3-2.7,3.1-2.7,5.1
			c0,1,0.3,3.4,1.8,5l-6.6,1.6c-0.1-1.2-0.2-1.7-0.5-2.6c-0.7-2.6-1-4.4-0.6-9c-0.4-0.3-0.7-0.7-0.8-1.1c-1,0.6-1.9,1-2.3,1.2
			L81,44.1l0,0l-1.6,0.3L78,42.8l-2.4-0.5l0.1-0.6l2.9-0.2l1.9,1.1l0.6,0.1l8.6-2.6c2.9-1.2,4.9-3.5,6.1-4.2c0.6-0.3,1-0.4,1.3-0.4
			c0.1,0,0.2,0,0.3,0.1c0.4-0.4,0.7-1.1,0.8-2.2c-0.2-0.3-0.4-0.6-0.6-1.1c-0.2-0.4-0.2-0.7-0.3-1.2l0,0c-0.3,0-0.4-0.2-0.4-0.6
			c0-0.5-0.1-1-0.1-1.4c0-0.3,0.1-0.5,0.3-0.5c0.1,0,0.2,0.1,0.3,0.3c0.1-0.4,0.1-0.9,0.3-1.2C98.2,26.5,99.2,25.6,100.5,25.6
			 M100.5,24.8c-1.6,0-2.9,1-3.5,2.7c-0.1,0.2-0.1,0.3-0.2,0.5c-0.1,0.1-0.3,0.1-0.4,0.2c-0.3,0.3-0.4,0.6-0.4,1.1
			c0,0.3,0,0.5,0.1,0.8c0,0.2,0,0.4,0.1,0.6c0,0.6,0.2,0.9,0.4,1.1c0.1,0.3,0.2,0.6,0.3,0.9c0.1,0.4,0.3,0.7,0.5,1
			c-0.1,0.5-0.2,0.9-0.3,1.1c-0.4,0-1,0.2-1.7,0.5c-0.5,0.3-1.1,0.8-1.8,1.3c-1.1,0.9-2.5,2.1-4.2,2.8L80.9,42h-0.3L79,41
			c-0.1-0.1-0.3-0.1-0.4-0.1l0,0l-3,0.1c-0.4,0-0.7,0.3-0.8,0.7l-0.1,0.6c0,0.4,0.2,0.8,0.7,0.9l2.1,0.4l1.2,1.4
			c0.2,0.2,0.4,0.3,0.6,0.3h0.1l1.5-0.3l0,0H81l9.5-1.5c0.1,0,0.2,0,0.2-0.1c0.4-0.2,0.9-0.5,1.6-0.8c0.1,0.1,0.2,0.2,0.3,0.3
			c-0.4,4.4-0.1,6.2,0.6,8.9c0.2,0.9,0.3,1.3,0.5,2.5c0,0.2,0.2,0.5,0.4,0.6c0.1,0.1,0.3,0.1,0.5,0.1c0.1,0,0.1,0,0.2,0l6.6-1.6
			c0.3-0.1,0.5-0.3,0.6-0.6s0-0.6-0.2-0.8c-1.3-1.4-1.6-3.4-1.6-4.4c0-1.3,0.5-1.9,1.6-3.3c0.2-0.3,0.5-0.7,0.8-1.1L105,47
			c0,0.1,0.1,0.1,0.2,0.2l6.7,6.1l0.1,0.1l1,0.9c0.2,0.2,0.4,0.2,0.6,0.2c0.1,0,0.1,0,0.2,0l1.7-0.4l1.8,0.8c0.1,0,0.2,0.1,0.3,0.1
			c0.3,0,0.6-0.2,0.7-0.5l0.2-0.5c0.2-0.4,0.1-0.8-0.3-1l-2.2-1.6c-0.1-0.1-0.3-0.2-0.5-0.2l-1.9-0.1l-0.2-0.1l-5.3-6.3l-2.5-5.6
			c-0.1-0.1-0.1-0.4-0.2-0.7c-0.2-0.7-0.4-1.6-0.8-2.1c-0.4-0.6-1-0.9-1.8-0.9c-0.1,0-0.3,0-0.4,0h-0.2c-0.2,0-0.5,0.1-0.7,0.1
			s-0.4,0-0.5-0.1l0,0c0-0.1,0.1-0.4,0.1-0.6c0.3-0.2,0.6-0.4,0.9-0.7c0.1-0.1,0.2-0.2,0.3-0.3c0.2-0.2,0.3-0.4,0.5-0.7
			c0.4-0.2,0.6-0.6,0.7-0.7c0,0,0-0.1,0.1-0.1c0.1-0.2,0.2-0.4,0.3-0.6c0.1-0.2,0.2-0.5,0.3-0.7c0.2-0.4,0.2-0.9,0-1.2
			c0-0.1-0.1-0.1-0.1-0.2c0-0.3,0.1-0.5,0.1-0.8c0.1-2.1-0.9-3.4-3.1-3.8c0,0,0,0-0.1,0C100.9,24.8,100.7,24.8,100.5,24.8
			L100.5,24.8z"/>
	</g>
	<g>
		<path class="st0" d="M102.8,31.7c-0.1,0-0.1,0-0.2,0c-0.2-0.1-0.3-0.3-0.2-0.5c0.2-0.6,0.2-0.7,0.2-1c-0.1,0-0.5-0.1-0.6-0.1h-0.1
			h-0.1c-0.6-0.1-1.2-0.3-1.8-0.4c0,0-0.6-0.1-0.9-0.2s-0.7-0.2-1-0.2c-0.2,0.3-0.2,0.3-0.3,0.9v0.1c0,0.2-0.2,0.4-0.4,0.4l0,0
			c-0.2,0-0.4-0.2-0.4-0.4c0-0.9,0-0.9,0-1.5c0-0.1,0-0.2,0-0.3c0-0.1,0.1-0.4,0.1-0.4c0.5-1.9,1.7-2.9,3.4-2.9c0.2,0,0.5,0,0.7,0.1
			c0.9,0.1,1.7,0.6,2.2,1.3c0.5,0.7,0.7,1.7,0.6,2.7c0,0-0.1,1.5-0.9,2.4C103,31.6,102.9,31.7,102.8,31.7z"/>
		<path class="st1" d="M100.5,25.4c0.2,0,0.4,0,0.6,0c1.2,0.2,2.8,1.3,2.4,3.6c0,0-0.1,1.4-0.8,2.2c0.2-0.8,0.2-0.8,0.2-1.4
			c-0.3-0.1-0.7-0.2-0.9-0.2l0.3-1.9l-0.5,1.9c-0.6-0.1-1.2-0.3-1.8-0.4l0.2-0.8l-0.3,0.8c-0.6-0.1-1.5-0.4-2.1-0.5
			c-0.4,0.6-0.4,0.5-0.5,1.5c0-0.9,0-0.9,0-1.5c0,0,0-0.1,0-0.2s0.1-0.4,0.1-0.4C98.1,25.9,99.4,25.4,100.5,25.4 M100.5,24.6
			c-1.1,0-3.1,0.4-3.8,3.2c0,0.1-0.1,0.3-0.1,0.5c0,0.1,0,0.2,0,0.3c0,0.6,0,0.7,0,1.5c0,0.4,0.3,0.8,0.8,0.8l0,0
			c0.4,0,0.8-0.3,0.8-0.7v-0.1c0-0.3,0.1-0.4,0.1-0.5c0.2,0.1,0.5,0.1,0.7,0.2c0.3,0.1,0.6,0.1,0.8,0.2l0,0l0,0
			c0.6,0.1,1.2,0.3,1.8,0.4h0.1h0.1c0.1,0,0.2,0,0.2,0.1s-0.1,0.3-0.1,0.5c-0.1,0.4,0.1,0.8,0.4,1c0.1,0.1,0.3,0.1,0.4,0.1
			c0.2,0,0.5-0.1,0.6-0.3c0.8-0.9,1-2.4,1-2.6c0.2-1.5-0.2-2.5-0.7-3c-0.6-0.8-1.5-1.3-2.5-1.5C101,24.6,100.8,24.6,100.5,24.6
			L100.5,24.6z"/>
	</g>
	<g>
		<path class="st0" d="M94.6,54.6c-0.1,0-0.2,0-0.2-0.1c-0.1-0.1-0.2-0.2-0.2-0.3c-0.1-1.2-0.2-1.7-0.5-2.6L93.6,51
			c-0.6-2.2-0.7-4-0.6-6.7c0-0.5,0.1-1,0.1-1.6c-1-0.9-1.1-2.4-0.8-3.2c0.2-0.7,0.9-1.2,1.7-1.7c0.4-0.3,0.8-0.5,1.2-0.9
			c0.3-0.2,0.8-0.8,1.3-1.3l0.4-0.4c0.1-0.1,0.2-0.1,0.3-0.1h0.4c0.1,0,0.3,0.1,0.3,0.2c0.1,0.1,0.1,0.3,0,0.4
			c-0.9,2.4-1.5,4.1-1.6,5.1c0.4-0.5,1-1.1,1.5-1.7c1-1.1,2.1-2.2,2.7-3.3c0.1-0.1,0.2-0.2,0.4-0.2c0.1,0,0.1,0,0.2,0
			s0.2,0.1,0.3,0.1c0.2,0,0.4,0.2,0.4,0.4s0,0.4-0.1,0.8c-0.1,1-0.4,2.7,0.4,3.9c0.1,0.1,0.1,0.2,0.2,0.2l0.1,0.1
			c0.1,0.1,0.2,0.2,0.4,0.3c0.2,0.1,0.2,0.4,0.1,0.6c-0.2,0.3-0.3,0.5-0.4,0.7s-0.5,0.7-0.5,0.7l-0.7,0.9l-0.4-0.2l0.3,0.3l-0.3,0.3
			c-0.7,1-1.1,1.7-1.1,2.9c0,0.3,0,2.9,1.7,4.7c0.1,0.1,0.1,0.3,0.1,0.4c0,0.1-0.2,0.2-0.3,0.3L94.6,54.6
			C94.7,54.6,94.7,54.6,94.6,54.6z"/>
		<path class="st1" d="M97.2,35.6h0.3c-0.6,1.6-2.1,5.3-1.5,6.5c0.9-1.6,3.6-3.7,4.9-6c0.1,0.1,0.3,0.1,0.5,0.1
			c0,0.7-0.8,3.2,0.4,4.9c0.1,0.1,0.1,0.2,0.2,0.3l0.1,0.1c0.1,0.1,0.3,0.2,0.4,0.3c-0.1,0.2-0.3,0.5-0.4,0.6
			c-0.1,0.2-0.3,0.4-0.4,0.5l-0.1,0.1c-0.1,0.1-0.2,0.3-0.3,0.4c-0.1,0.2-0.2,0.3-0.4,0.5l-0.1,0.1c-0.1,0.1-0.2,0.2-0.3,0.3
			c-0.8,1-1.2,1.8-1.2,3.1c0,1,0.3,3.4,1.8,5L94.5,54c-0.1-1.2-0.2-1.7-0.5-2.6c0.1,0,0-0.2,0-0.4c-0.6-2.3-0.7-4-0.6-6.6
			c0-0.6,0.1-1.2,0.1-1.8c-1-0.8-1.1-2.3-0.9-2.9c0.3-0.9,1.6-1.4,2.7-2.4C95.8,37,96.6,36.2,97.2,35.6 M97.2,34.7
			c-0.2,0-0.4,0.1-0.6,0.2l-0.4,0.4c-0.5,0.5-1,1-1.3,1.3c-0.4,0.3-0.7,0.6-1.1,0.8c-0.8,0.5-1.5,1-1.8,1.9s-0.2,2.4,0.8,3.5
			c0,0.5-0.1,1-0.1,1.4c-0.2,2.7,0,4.5,0.6,6.9c0,0.2,0.1,0.4,0.1,0.6c0.2,0.9,0.3,1.3,0.5,2.5c0,0.2,0.2,0.5,0.4,0.6
			c0.1,0.1,0.3,0.1,0.5,0.1c0.1,0,0.1,0,0.2,0l6.6-1.6c0.3-0.1,0.5-0.3,0.6-0.6s0-0.6-0.2-0.8c-1.3-1.4-1.6-3.4-1.6-4.4
			c0-1.1,0.3-1.7,1-2.6c0.1-0.1,0.2-0.2,0.3-0.3l0,0l0,0l0.1-0.2l0.2-0.3l0.3-0.4l0.1-0.1c0.1-0.2,0.3-0.4,0.4-0.6
			c0.1-0.2,0.3-0.4,0.5-0.7c0.2-0.4,0.1-0.9-0.3-1.1c-0.1-0.1-0.2-0.1-0.3-0.3l-0.1-0.1c-0.1-0.1-0.1-0.1-0.2-0.2
			c-0.7-1-0.5-2.6-0.3-3.6c0-0.3,0.1-0.6,0.1-0.8c0-0.4-0.3-0.8-0.7-0.8c-0.1,0-0.2,0-0.2-0.1c-0.1-0.1-0.2-0.1-0.3-0.1
			c-0.3,0-0.6,0.2-0.7,0.4c-0.6,1.1-1.7,2.2-2.7,3.3c-0.1,0.2-0.3,0.3-0.4,0.5c0.2-0.8,0.6-2,1.2-3.5c0.1-0.3,0.1-0.5-0.1-0.8
			c-0.2-0.2-0.4-0.4-0.7-0.4L97.2,34.7L97.2,34.7L97.2,34.7z"/>
	</g>
</g>
</svg>
