<svg width="55" height="46" viewBox="0 0 55 46" fill="none" xmlns="http://www.w3.org/2000/svg">
<g clip-path="url(#clip0_477_61)">
<path d="M55 45.1189C55 44.9152 55 44.7115 55 44.5078C55 29.3319 42.6759 17.0078 27.5 17.0078C12.3241 17.0078 0 29.3319 0 44.5078C0 44.7115 0 44.9152 0 45.1189H55Z" fill="#FFD000" fill-opacity="0.35"/>
<path d="M48.4815 19.6561L26.0741 41.9617C25.6667 42.3691 25.1574 42.5728 24.5463 42.5728C23.9352 42.5728 23.4259 42.3691 23.0185 41.9617L11.3056 30.2487L32.7963 8.85981C33.2037 8.4524 33.2037 7.94314 32.7963 7.53574C32.3889 7.12833 31.8796 7.12833 31.4722 7.53574L9.98148 29.0265L8.86111 27.9061C8.4537 27.4987 8.25 26.9894 8.25 26.3783C8.25 25.7672 8.4537 25.258 8.86111 24.8506L31.2685 2.44314C31.6759 2.03574 32.1852 1.83203 32.7963 1.83203C33.4074 1.83203 33.9167 2.03574 34.3241 2.44314L39.3148 7.43388L17.9259 28.9246C17.5185 29.332 17.5185 29.8413 17.9259 30.2487C18.1296 30.4524 18.3333 30.5543 18.537 30.5543C18.7407 30.5543 19.0463 30.4524 19.1481 30.2487L40.6389 8.85981L48.3796 16.6006C49.2963 17.4154 49.2963 18.8413 48.4815 19.6561Z" fill="white"/>
<path d="M49.704 15.2778L35.6485 1.22222C34.9355 0.407408 33.917 0 32.7966 0C31.6763 0 30.6577 0.407408 29.9448 1.22222L7.63921 23.5278C6.92625 24.2407 6.41699 25.2593 6.41699 26.3796C6.41699 27.5 6.8244 28.5185 7.63921 29.2315L9.3707 30.963L21.0837 42.6759H19.454C18.9448 42.6759 18.5374 43.0833 18.5374 43.5926C18.5374 44.1019 18.9448 44.5093 19.454 44.5093H24.5466H37.8892C38.3985 44.5093 38.8059 44.1019 38.8059 43.5926C38.8059 43.0833 38.3985 42.6759 37.8892 42.6759H28.0096L49.704 20.9815C51.3337 19.3519 51.3337 16.8056 49.704 15.2778ZM8.96329 27.9074C8.55588 27.5 8.35218 26.9907 8.35218 26.3796C8.35218 25.7685 8.55588 25.2593 8.96329 24.8519L31.2688 2.44444C31.6763 2.03704 32.1855 1.83333 32.7966 1.83333C33.4077 1.83333 33.917 2.03704 34.3244 2.44444L35.4448 3.56482L9.98181 29.0278L8.96329 27.9074ZM36.7688 4.88889L39.417 7.53704L13.954 33L11.3059 30.3519L36.7688 4.88889ZM48.4818 19.6574L26.0744 41.963C25.667 42.3704 25.1577 42.5741 24.5466 42.5741C23.9355 42.5741 23.4262 42.3704 23.0188 41.963L15.2781 34.2222L40.7411 8.75926L48.4818 16.5C49.2966 17.4167 49.2966 18.8426 48.4818 19.6574Z" fill="#4A4A4A"/>
<path d="M29.2315 26.786C28.8241 26.3786 28.3149 26.3786 27.9074 26.786L20.5741 34.1194C20.1667 34.5268 20.1667 35.036 20.5741 35.4434C20.7778 35.6471 20.9815 35.749 21.1852 35.749C21.3889 35.749 21.6945 35.6471 21.7963 35.4434L29.1297 28.1101C29.6389 27.7027 29.6389 27.0916 29.2315 26.786Z" fill="#4A4A4A"/>
<path d="M26.2778 33.7118L23.3241 36.6655C22.9167 37.0729 22.9167 37.5822 23.3241 37.9896C23.5278 38.1933 23.7315 38.2951 23.9352 38.2951C24.1389 38.2951 24.4445 38.1933 24.5463 37.9896L27.5 35.0359C27.9074 34.6285 27.9074 34.1192 27.5 33.7118C27.1945 33.3044 26.6852 33.3044 26.2778 33.7118Z" fill="#4A4A4A"/>
<path d="M29.0284 30.9618L28.621 31.3692C28.2136 31.7766 28.2136 32.2859 28.621 32.6933C28.8247 32.897 29.0284 32.9988 29.2321 32.9988C29.4358 32.9988 29.7414 32.897 29.8432 32.6933L30.2506 32.2859C30.658 31.8785 30.658 31.3692 30.2506 30.9618C29.9451 30.5544 29.4358 30.5544 29.0284 30.9618Z" fill="#4A4A4A"/>
<path d="M41.7598 14.2587C41.5561 14.055 41.3524 13.9531 41.1487 13.9531C40.945 13.9531 40.6394 14.055 40.5375 14.2587L36.5653 18.2309C36.3616 18.4346 36.2598 18.6383 36.2598 18.842C36.2598 19.0457 36.3616 19.3513 36.5653 19.4531L39.2135 22.1013C39.4172 22.305 39.6209 22.4068 39.8246 22.4068C40.0283 22.4068 40.3338 22.305 40.4357 22.1013L44.4079 18.1291C44.8153 17.7216 44.8153 17.2124 44.4079 16.805L41.7598 14.2587ZM39.8246 20.1661L38.5005 18.842L41.1487 16.1939L42.4727 17.5179L39.8246 20.1661Z" fill="#4A4A4A"/>
<path d="M36.6943 4.87792L11.2715 30.3008L13.8642 32.8935L39.287 7.47062L36.6943 4.87792Z" fill="#FFD000"/>
<path d="M41.081 16.2393L38.4883 18.832L39.7846 20.1284L42.3773 17.5357L41.081 16.2393Z" fill="#FFD000"/>
</g>
<defs>
<clipPath id="clip0_477_61">
<rect width="55" height="45.1204" fill="white"/>
</clipPath>
</defs>
</svg>
