<?xml version="1.0" encoding="utf-8"?>
<!-- Generator: Adobe Illustrator 22.1.0, SVG Export Plug-In . SVG Version: 6.00 Build 0)  -->
<svg version="1.1" id="Livello_1" xmlns="http://www.w3.org/2000/svg" xmlns:xlink="http://www.w3.org/1999/xlink" x="0px" y="0px"
	 viewBox="0 0 100 100" style="enable-background:new 0 0 100 100;" xml:space="preserve">
<style type="text/css">
	.st0{fill:none;stroke:#218AE5;stroke-miterlimit:10;}
	.st1{fill:none;stroke:#218AE5;stroke-width:1.5;stroke-linecap:round;stroke-miterlimit:10;}
	.st2{fill:none;stroke:#218AE5;stroke-width:1.5;stroke-miterlimit:10;}
</style>
<g>
	<g>
		<path class="st0" d="M22.1,24.7c0.8,0,1.6,0.4,2.1,1s0.5,2.2,0.2,3.8c-1.1,4.6,0.3,3.2,0.3,4.7V41c-0.9,0-2.7-0.3-3.5-0.7
			c-0.6-0.3-1.1-0.7-1.6-1.1c-1.6-1.7-1.9-4-1.7-6.2c0-0.2,0-0.3,0.1-0.5c0,0.1,0,0.1,0,0.1s0-0.1,0-0.2c0-0.2,0-0.2,0-0.2
			s0,0.1,0,0.2c0.3-2,0.9-3.9,1.6-5.8c0.3-1,1.2-1.7,2.3-1.8C22,24.7,22.1,24.7,22.1,24.7 M22.1,23.8L22.1,23.8c-0.1,0-0.2,0-0.3,0
			c-1.4,0.1-2.6,1.1-3.1,2.4c-0.8,2.2-1.4,4.1-1.6,6v0.1c0,0.1,0,0.1,0,0.2s0,0.3,0,0.4c-0.3,2.9,0.4,5.3,1.9,7
			c0.5,0.5,1.1,1,1.8,1.3c1,0.5,3.1,0.8,3.9,0.8h1v-1v-6.8c0-0.8-0.3-1.2-0.6-1.5c-0.1-0.1-0.4-0.4,0.3-3c0.4-1.5,0.5-3.5-0.3-4.6
			C24.3,24.3,23.2,23.8,22.1,23.8L22.1,23.8z"/>
	</g>
	<path class="st1" d="M26.2,28.6v28.7c0,1,0.8,1.8,1.8,1.8h41.5c1,0,1.8-0.8,1.8-1.8v-29c0,0.1,0.1,0.1,0.1,0.2
		c0.1,0.3,0.1,0.6,0.2,0.9c0.1,0.4,0.1,0.8,0.2,1.2c1,3.6-0.6,4.1-0.6,4.1v6c0.9,0,2.8,0.1,3.7-0.3c0.8-0.4,1.4-1,2-1.7
		c1.3-1.8,1.4-4.2,1.1-6.3c-0.3-2-0.9-3.9-1.6-5.7c-0.4-1-1.4-1.8-2.5-1.8s-2.2,0.7-2.6,1.8c0,0.1,0,0.1-0.1,0.2V4.4
		c0-1-0.8-1.8-1.8-1.8H28c-1,0-1.8,0.8-1.8,1.8v21.3 M68.4,39.9v11c-0.1,0-0.1,0-0.2,0c-0.7-0.1-1.3-0.2-2,0
		c-0.8,0.2-1.6,0.7-2.1,1.3c-0.5,0.7-0.8,1.6-0.8,2.5c0,0.5,0.1,1,0.2,1.5H34c0.1-0.4,0.1-0.7,0.2-1.1c0.1-0.8,0-1.6-0.3-2.3
		c-0.7-1.4-2.2-2.2-3.7-2l-1,0.1v-8.3 M46.9,56.2C47,54,47,51,47,49.3c0.8,1.9,1.4,4.9,1.7,6.9h5.4c-0.2-3.4-0.8-7.8-2.1-11
		c-0.9-2.3-2-4.4-3.5-6.4C47.2,37,45.7,35.4,44,34c-2.7-2.3-6.5-2.4-9.7-0.8c-0.7,0.4-1.4,0.8-2.1,1.1c-1,0.5-2,0.9-3,1.3V11h0.1
		c0.6,0,1.3,0.1,1.9-0.1c0.8-0.2,1.6-0.7,2.1-1.4C33.7,8.9,34,8,34,7.1c0-0.5-0.1-1-0.2-1.5h29.6c0,0.1,0,0.2-0.1,0.3
		C63.2,6.6,63,7.3,63.2,8c0.1,0.8,0.6,1.6,1.2,2.2c0.7,0.6,1.5,0.9,2.4,0.9c0.5,0,1.1-0.1,1.6-0.2V33c-0.8-0.4-4.1-2-5.2-2.5
		c-3.2-1.8-7.3-1.6-10.2,0.8c-1.9,1.3-4.6,3.9-6,5.7c1,1.2,1.8,2.2,2.6,3.5c1.5,2.5,2.5,4.6,3.3,7.4c0.6,2.4,1,5.9,1.1,8.4"/>
	<path class="st2" d="M54,59.6h-5.2C49.6,61.7,52.7,62.1,54,59.6z"/>
	<g>
		<path class="st0" d="M57.4,11.9c3.1,0,6,1.8,7.3,4.7c1.3,2.8,0.8,6.3-1.3,8.7c-1.5,1.7-3.7,2.7-6,2.7c-0.8,0-1.6-0.1-2.4-0.4
			c-2.9-0.9-5.2-3.6-5.6-6.6c-0.4-3.1,1.1-6.2,3.7-7.9C54.4,12.3,55.9,11.9,57.4,11.9 M57.4,10.9c-1.7,0-3.3,0.5-4.7,1.4
			c-3,1.8-4.6,5.3-4.2,8.8c0.5,3.4,2.9,6.4,6.2,7.4c0.9,0.3,1.8,0.4,2.7,0.4c2.5,0,5.1-1.1,6.8-3c2.3-2.6,2.9-6.5,1.4-9.7
			C64.1,13,60.9,10.9,57.4,10.9L57.4,10.9z"/>
	</g>
	<g>
		<path class="st0" d="M39.7,15.7c1.3,0,2.5,0.3,3.6,0.9c2.7,1.5,4.3,4.6,3.8,7.7c-0.4,3.1-2.8,5.6-5.8,6.3
			c-0.5,0.1-1.1,0.2-1.7,0.2c-3.1,0-6-2-7.1-4.9c-1.1-2.9-0.2-6.4,2.1-8.4C36.1,16.4,37.9,15.7,39.7,15.7 M39.7,14.8
			c-2,0-4,0.7-5.6,2.1c-2.7,2.3-3.6,6.1-2.4,9.4c1.2,3.3,4.5,5.5,7.9,5.5c0.6,0,1.3-0.1,1.9-0.2c3.4-0.8,6-3.6,6.5-7.1
			s-1.2-7-4.3-8.7C42.5,15.1,41.1,14.8,39.7,14.8L39.7,14.8z"/>
	</g>
	<path class="st2" d="M69.7,67.4c-0.2-2.4-0.5-4.8-0.9-7.2l-0.1-1l-13.9-0.1c-0.7,1.4-1.8,2.4-3.3,2.4c0,0-1.8,0.3-3.3-2.4h-0.6
		l5.6,21.8c0.1,0.7,0,1.5-0.4,2c-0.2,4.8-0.2,4.8-0.4,7.1c-0.2,1.8-0.4,3.5-0.6,5.3v0.1c-0.2,1.7,1,3.3,2.7,3.6
		c1.7,0.3,3.4-0.9,3.7-2.5s0.7-3.1,1-4.7c0.2-1,0.4-2,0.5-3.1c0.2-1,0.3-2.1,0.5-3.1c0.3-2.5,0.6-5,0.8-7.5s0.3-4.9,0.3-7.4
		c0.6,3.7,0.8,7.6,0.7,11.3c0,1.2-0.1,2.4-0.1,3.7c-0.1,1.2-0.2,2.4-0.3,3.6c-0.2,1.8-0.5,3.5-0.8,5.3c-0.3,1.7,0.9,3.4,2.6,3.7
		c1.7,0.4,3.4-0.7,3.9-2.4c0.2-0.9,0.4-1.7,0.6-2.6c0.3-1.3,0.6-2.7,0.8-4c0.9-4.8,1.3-9.8,1.3-14.7C70,72.3,69.9,69.8,69.7,67.4z"
		/>
	<path class="st2" d="M53,80.5l-5.4-21.4H28.7l-6.4,21.7c-0.1,0.5,0,1.1,0.4,1.5c0.3,0.4,0.8,0.6,1.4,0.6h5.2c0.2,2.2,0.6,4.7,1,6.8
		c0.1,0.6,0.2,1.2,0.3,1.7c0.1,0.6,0.3,1.1,0.4,1.7c0.2,0.7,0.3,1.4,0.5,2.1c0.4,1.6,2,2.6,3.6,2.3c1.6-0.3,2.7-1.9,2.4-3.5
		c-0.1-0.6-0.2-1.2-0.3-1.9c-0.2-1.1-0.3-2.2-0.4-3.3c-0.1-1.2-0.2-2.3-0.3-3.5c0-0.7-0.1-1.7-0.1-2.4h1.4c0.3,2.3,0.6,4.9,1,7.2
		c0.3,1.9,0.7,3.7,1.1,5.6c0.3,1.6,1.9,2.7,3.5,2.4c1.6-0.3,2.8-1.8,2.6-3.4l0,0c-0.5-3.8-0.8-7.9-0.9-11.8l6.2,0.1
		c0.5,0,1.2,0.1,1.5-0.3C53.2,82.3,53.6,81.6,53,80.5z"/>
</g>
</svg>
