<svg xmlns="http://www.w3.org/2000/svg" viewBox="0 0 286.19 213.13"><defs><style>.cls-1,.cls-2{fill:none;stroke:#fff;}.cls-1{stroke-linecap:round;stroke-linejoin:round;}.cls-2{stroke-miterlimit:10;}.cls-3{fill:#fff;opacity:0.37;}</style></defs><title>Risorsa 3</title><g id="Livello_2" data-name="Livello 2"><g id="Visori"><path class="cls-1" d="M124.52,22.69l-3.88-5.09a15.32,15.32,0,0,1-3.14-9.3V7a6.49,6.49,0,0,1,7-6.47l15.36,1.3a30.17,30.17,0,0,1,22.67,13.49l1.19,1.81a10.2,10.2,0,0,0,7.74,4.56h0a.62.62,0,0,1,.29,1.13l-4.71,3.67a8.29,8.29,0,0,1-9.72.32L154.68,25a28.08,28.08,0,0,0-20.16-2.7L128,23.91A3.32,3.32,0,0,1,124.52,22.69Zm-6-6.08s-5.73,14.07,1,21.37c0,0,1.57-10.43,5.74-12.51m36.74,3.91s3.13,7.82,0,18.76a29.34,29.34,0,0,0,7-21.8m-7.25,18a1.69,1.69,0,0,0-1.68-1.88H143.92a16.54,16.54,0,0,1-3.29-.33l-19.24-4a1.35,1.35,0,0,0-1.62,1.25l-.45,9.84A2.67,2.67,0,0,0,122,51.79h6.92a10.59,10.59,0,0,0,2.68-.34l6.08-1.59a10.91,10.91,0,0,1,8.59,1.35l5.3,3.37A8.81,8.81,0,0,0,156.29,56h1.82a2.67,2.67,0,0,0,2.66-2.37Zm-26.63.46-12.51-3.12.53,2.39a6,6,0,0,0,10.39,2.59Zm12.88,3.64a6,6,0,0,0,10.68-.76l.93-2.27-12.86.93Zm3.28-6c1.56-3.91,8.34-4.95,8.34-4.95-12.51-2.61-14.07,4.95-14.07,4.95m-9.55-1.28S133.4,33,121.93,33c4.63,1.87,7.2,4.1,7.95,6.63m12.9,18.43.13-7.47M117.24,36.68s-4.17,1-2.09,7.81,4.17,6.84,4.17,6.84M161,55.54s1.61.44,5-5.06.47-7.38.47-7.38m-46.16,9.21.17,3.59"/><path class="cls-2" d="M226.32,52.74l3.13-.05a23.33,23.33,0,0,1,19.26,9.83l27.88,39.31a14,14,0,0,1,1.9,12.42l-8.84,27.32,16,35-12,33-231-3-27,6-8-11A37.43,37.43,0,0,1,.59,177l2.72-39.42a20.88,20.88,0,0,1,2.91-9.31L18.91,107a15.22,15.22,0,0,0-.14-15.82l-2-3.24a4.87,4.87,0,0,1,.81-6.13L44.07,57a9.07,9.07,0,0,1,6.13-2.46l3.95,0"/><path class="cls-2" d="M87.49,54.15l7.37-.08a114.91,114.91,0,0,1,13.88.7l22,2.46a63.56,63.56,0,0,0,23.81-.53l16.13-2.28a95.6,95.6,0,0,1,12.06-1l9.94-.17"/><path class="cls-1" d="M55.07,51.27l3.86,10.58A6.35,6.35,0,0,0,65.27,66l16.85-1a3.88,3.88,0,0,0,3.64-3.64l.62-10.68-4.64-5.79a40,40,0,0,0-26.38,6.19Z"/><path class="cls-1" d="M225.09,51.08a40,40,0,0,0-26.39-6.19l-4.63,5.79.61,10.68A3.88,3.88,0,0,0,198.32,65l16.85,1a6.35,6.35,0,0,0,6.34-4.16l3.87-10.58Z"/><path class="cls-3" d="M138.89,99.35V75.44h-8.1v30.81h1.43A6.78,6.78,0,0,0,138.89,99.35Z"/><path class="cls-3" d="M144.45,80.57v9.49a6.68,6.68,0,0,1,.65.31,18.53,18.53,0,0,1-9,34.11l-.94,0a18.61,18.61,0,0,1-2.6-.18l-.1,0-.85-.14h0c-.28-.05-.56-.11-.83-.18h0l-.82-.23h0l-.7-.22.7.22A18.56,18.56,0,0,1,116.58,106a18.25,18.25,0,0,1,8.3-15.58c.17-.1.35-.21.35-.31V80.57a27.25,27.25,0,1,0,19.22,0Z"/><path class="cls-2" d="M240.15,71.07c-1,4,10,52,17,51"/><line class="cls-2" x1="184.65" y1="132.57" x2="184.65" y2="75.57"/><line class="cls-2" x1="87.65" y1="119.57" x2="86.65" y2="75.57"/><line class="cls-2" x1="225.65" y1="143.57" x2="225.65" y2="94.57"/><path class="cls-2" d="M225.65,60.57s3,4,10,3"/><path class="cls-2" d="M190.65,58.57s-14,6-19,5"/><path class="cls-2" d="M54.65,61.57a10,10,0,0,1-10,2"/></g><g id="Header"><line class="cls-2" x1="46.65" y1="101.57" x2="43.65" y2="147.57"/></g></g></svg>