<?xml version="1.0" encoding="UTF-8"?>
<svg width="54px" height="55px" viewBox="0 0 54 55" version="1.1" xmlns="http://www.w3.org/2000/svg" xmlns:xlink="http://www.w3.org/1999/xlink">
    <!-- Generator: Sketch 54.1 (76490) - https://sketchapp.com -->
    <title>Product Icon/Viaggio Europa/Big</title>
    <desc>Created with Sketch.</desc>
    <g id="Checkout---sport" stroke="none" stroke-width="1" fill="none" fill-rule="evenodd">
        <g id="Checkout---sport---4.1" transform="translate(-176.000000, -739.000000)" fill="#4A4A4A">
            <g id="Group-2-Copy" transform="translate(128.000000, 654.000000)">
                <g id="Icon/test" transform="translate(24.000000, 76.000000)">
                    <g id="Group" transform="translate(24.000000, 9.000000)">
                        <path d="M53.148265,19.1230769 L54,18.0230769 L52.977918,17.2615385 L52.126183,18.3615385 C51.785489,18.1923077 51.3596215,18.1076923 51.0189274,18.1076923 C50.1671924,18.1076923 49.4006309,18.4461538 48.8895899,19.1230769 L48.2933754,19.8846154 L46.5047319,18.4461538 L43.0126183,22.7615385 L43.0126183,1.69230769 L33.3028391,1.69230769 L33.3028391,0 L9.62460568,0 L9.62460568,1.69230769 L0,1.69230769 L0,55 L43.0126183,55 L43.0126183,35.0307692 L53.148265,22.5076923 C53.5741325,21.9153846 53.829653,21.2384615 53.7444795,20.4769231 C53.659306,19.9692308 53.4037855,19.5461538 53.148265,19.1230769 Z M41.7350158,2.96153846 L41.7350158,24.2846154 L39.7760252,26.7384615 L40.7981073,27.5 L46.6750789,20.2230769 L47.5268139,20.9 L38.7539432,31.5615385 L38.7539432,7.02307692 L33.3880126,7.02307692 L33.3880126,2.96153846 L41.7350158,2.96153846 Z M31.1735016,42.6461538 C31.0031546,43.1538462 31.0883281,43.5769231 31.3438486,44 L30.0662461,45.6076923 C29.8107256,45.8615385 29.8958991,46.2846154 30.1514196,46.4538462 C30.2365931,46.5384615 30.6624606,46.7076923 31.0031546,46.3692308 L32.2807571,44.7615385 C32.4511041,44.8461538 32.6214511,44.8461538 32.8769716,44.8461538 C33.1324921,44.8461538 33.4731861,44.7615385 33.7287066,44.6769231 C35.1766562,43.9153846 36.3690852,42.9 37.4763407,41.7153846 L37.4763407,49.8384615 L5.5362776,49.8384615 L5.5362776,8.29230769 L9.62460568,8.29230769 L9.62460568,10.1538462 L33.3028391,10.1538462 L33.3028391,8.29230769 L37.3911672,8.29230769 L37.3911672,33.0846154 L33.6435331,37.7384615 C32.5362776,39.2615385 31.6845426,40.8692308 31.1735016,42.6461538 Z M10.9022082,1.26923077 L32.1104101,1.26923077 L32.1104101,8.96923077 L10.9022082,8.96923077 L10.9022082,1.26923077 Z M41.7350158,53.7307692 L1.27760252,53.7307692 L1.27760252,2.96153846 L9.62460568,2.96153846 L9.62460568,7.10769231 L4.25867508,7.10769231 L4.25867508,51.1923077 L38.7539432,51.1923077 L38.7539432,40.1923077 L41.7350158,36.5538462 L41.7350158,53.7307692 Z M52.126183,21.7461538 L36.9652997,40.4461538 C35.9432177,41.7153846 34.5804416,42.8153846 33.1324921,43.5769231 C32.9621451,43.6615385 32.7066246,43.6615385 32.5362776,43.4923077 C32.3659306,43.3230769 32.2807571,43.1538462 32.3659306,42.9846154 C32.8769716,41.3769231 33.6435331,39.9384615 34.6656151,38.5846154 L49.8264984,19.8846154 C50.6782334,18.9538462 51.615142,19.4615385 51.8706625,19.6307692 C52.2113565,19.8846154 52.7223975,20.7307692 52.126183,21.7461538 Z" id="Shape"></path>
                        <polygon id="Rectangle" transform="translate(45.252690, 27.112368) rotate(-141.096800) translate(-45.252690, -27.112368) " points="44.6180812 26.4777597 45.8872988 26.4777597 45.8872988 27.7469773 44.6180812 27.7469773"></polygon>
                        <polygon id="Path" points="10.4421053 21.0909091 8.84210526 19.3636364 8 20.2727273 10.4421053 23 16 17 15.0736842 16"></polygon>
                        <rect id="Rectangle" x="17" y="20" width="17" height="1"></rect>
                        <polygon id="Path" points="10.4421053 32.0909091 8.84210526 30.3636364 8 31.2727273 10.4421053 34 16 28 15.0736842 27"></polygon>
                        <rect id="Rectangle" x="17" y="30" width="17" height="1"></rect>
                        <polygon id="Path" points="10.4421053 42.0909091 8.84210526 40.3636364 8 41.2727273 10.4421053 44 16 38 15.0736842 37"></polygon>
                        <rect id="Rectangle" x="17" y="41" width="10" height="1"></rect>
                        <rect id="Rectangle" x="22" y="5" width="1" height="1"></rect>
                        <rect id="Rectangle" x="25" y="5" width="1" height="1"></rect>
                        <rect id="Rectangle" x="19" y="5" width="1" height="1"></rect>
                        <rect id="Rectangle" x="16" y="5" width="1" height="1"></rect>
                    </g>
                </g>
            </g>
        </g>
    </g>
</svg>