<svg xmlns="http://www.w3.org/2000/svg" viewBox="0 0 223.59 204.23"><defs><style>.cls-1{fill:none;stroke:#fff;stroke-linecap:round;stroke-linejoin:round;}.cls-2{fill:#fff;opacity:0.37;}</style></defs><title>Risorsa 2</title><g id="Livello_2" data-name="Livello 2"><g id="Visori"><path class="cls-1" d="M95.87,22.69,92,17.6a15.32,15.32,0,0,1-3.14-9.3V7a6.49,6.49,0,0,1,7-6.47l15.36,1.3a30.19,30.19,0,0,1,22.67,13.49l1.18,1.81a10.23,10.23,0,0,0,7.75,4.56h0a.62.62,0,0,1,.29,1.13l-4.71,3.67a8.31,8.31,0,0,1-9.73.32L126,25a28.08,28.08,0,0,0-20.16-2.7l-6.57,1.6A3.32,3.32,0,0,1,95.87,22.69Zm-6-6.08s-5.73,14.07,1,21.37c0,0,1.57-10.43,5.74-12.51m36.74,3.91s3.13,7.82,0,18.76a29.34,29.34,0,0,0,7-21.8m-7.25,18a1.69,1.69,0,0,0-1.68-1.88H115.27a16.47,16.47,0,0,1-3.29-.33L92.74,38a1.35,1.35,0,0,0-1.62,1.25l-.45,9.84a2.67,2.67,0,0,0,2.67,2.66h6.92a10.45,10.45,0,0,0,2.67-.34L109,49.86a10.92,10.92,0,0,1,8.59,1.35l5.3,3.37A8.79,8.79,0,0,0,127.64,56h1.82a2.67,2.67,0,0,0,2.66-2.37Zm-26.63.46L94.06,41.63,94.59,44A6,6,0,0,0,105,46.61Zm12.88,3.64a6,6,0,0,0,10.68-.76l.93-2.27-12.86.93Zm3.28-6c1.56-3.91,8.34-4.95,8.34-4.95C118.56,34.85,117,42.41,117,42.41m-9.54-1.28S104.75,33,93.28,33c4.63,1.87,7.2,4.1,8,6.63m6.12,17.86c3.65,3.13,6.78,1.57,6.78,1.57l.13-8.47M88.59,36.68s-4.17,1-2.09,7.81,4.17,6.84,4.17,6.84m41.71,4.21s1.62.44,5-5.06.48-7.38.48-7.38M91.71,52.31,92,61.12a16.81,16.81,0,0,0,7.11,13.23l2.58,1.82a17.42,17.42,0,0,0,17.47,1.53h0A19.68,19.68,0,0,0,129.9,64.51l1.95-8M95.36,58.57c-.52,2.08,1.57,7.29,1.57,7.29M121.42,68a15.45,15.45,0,0,0,3.13-5.73m-6.25,2.6-16.68-1.56m11.46,5.21s-4.69-1.56-6.77-.52m8.86-4.69-9.9-1m22.35,7.83s9.44,15.62,21.43,16.66l4.36.35m-123.32,13c-4.6,3.32-9.67,8.83-13.43,17.9L.5,182.62m70.63-93.8c2-.64,4-1.34,6-2.11,17.72-6.77,16.16-18.24,16.16-18.24M34,167.31l.42,10.1,75.58,24-1.57-89.13L30.73,89.32l1.87,45.1m159.19-3.92V84.63L123,112.25l1.56,89.13,67.24-26.06V163.07m-83.4-50.82c5,3.13,9.56,3.13,14.6,0M109.7,201.38a13.33,13.33,0,0,0,15.11,0m-16.16-91.21a13.35,13.35,0,0,0,15.12,0H124l67.76-27.63h-2.08l-25.32,3.34A69.15,69.15,0,0,0,125,103.66l-8.24,7.55h-.52l-7.34-5.32A93.36,93.36,0,0,0,57.74,88.23l-25.58-1H30.73l77.66,22.94ZM198,130.5l-10.65,3.67a6.33,6.33,0,0,0-4.26,6.26l.7,16.87a3.88,3.88,0,0,0,3.56,3.71l15.87,1.28.67-5a39.9,39.9,0,0,0-5.7-26.49ZM29.26,167.31l10.27-4.63a6.34,6.34,0,0,0,3.68-6.62L41,139.32A3.88,3.88,0,0,0,37.07,136l-10.7.17-5.43,5.05A40,40,0,0,0,29.05,167Z"/><line class="cls-1" x1="223.09" y1="177.62" x2="206.93" y2="112.99"/><path class="cls-1" d="M206.93,113c-3.76-9.07-8.83-14.58-13.43-17.9"/><path class="cls-2" d="M160,135.92V119.66h-5.51v21h1A4.61,4.61,0,0,0,160,135.92Z"/><path class="cls-2" d="M163.77,123.15v6.45a4.34,4.34,0,0,1,.43.21A12.6,12.6,0,0,1,158.07,153l-.64,0a11.53,11.53,0,0,1-1.77-.13h-.07l-.58-.1h0c-.19,0-.37-.08-.56-.12h0l-.56-.16h0a4.26,4.26,0,0,1-.47-.15c.15.05.31.11.47.15a12.61,12.61,0,0,1-9-12.1,12.41,12.41,0,0,1,5.64-10.59c.11-.07.24-.14.24-.21v-6.45a18.53,18.53,0,1,0,13.07,0Z"/></g></g></svg>