<svg xmlns="http://www.w3.org/2000/svg" width="418" height="513" viewBox="0 0 418 513">
    <g fill="none" fill-rule="evenodd">
        <path fill="#FFFFFE" d="M347 157L344.219 0l-7.438 11.82L334 157h13"/>
        <path stroke="#C8C7C8" stroke-linejoin="round" d="M347 157L344.219 0l-7.438 11.82L334 157z"/>
        <path fill="#FFFFFE" d="M356 203v-71.64L329 114v89h27"/>
        <path stroke="#C8C7C8" stroke-linejoin="round" d="M356 203v-71.64L329 114v89z"/>
        <path fill="#FFFFFE" d="M320 510V186c-49.09 47.297-143 53.548-143 53.548V510h143"/>
        <path stroke="#C8C7C8" stroke-linejoin="round" d="M320 510V186c-49.09 47.297-143 53.548-143 53.548V510h143z"/>
        <path fill="#FFFFFE" d="M389 511h-68V170h50.752L389 511"/>
        <path stroke="#C8C7C8" stroke-linejoin="round" d="M389 511h-68V170h50.752z"/>
        <path fill="#FFFFFE" d="M359 197h-18"/>
        <path stroke="#C8C7C8" stroke-linejoin="round" d="M359 197h-18"/>
        <path fill="#FFFFFE" d="M359 210h-18"/>
        <path stroke="#C8C7C8" stroke-linejoin="round" d="M359 210h-18"/>
        <path fill="#FFFFFE" d="M359 222h-18"/>
        <path stroke="#C8C7C8" stroke-linejoin="round" d="M359 222h-18"/>
        <path fill="#FFFFFE" d="M359 236h-18"/>
        <path stroke="#C8C7C8" stroke-linejoin="round" d="M359 236h-18"/>
        <path fill="#FFFFFE" d="M359 248h-18"/>
        <path stroke="#C8C7C8" stroke-linejoin="round" d="M359 248h-18"/>
        <path fill="#FFFFFE" d="M359 260h-18"/>
        <path stroke="#C8C7C8" stroke-linejoin="round" d="M359 260h-18"/>
        <path fill="#FFFFFE" d="M359 273h-18"/>
        <path stroke="#C8C7C8" stroke-linejoin="round" d="M359 273h-18"/>
        <path fill="#FFFFFE" d="M359 286h-18"/>
        <path stroke="#C8C7C8" stroke-linejoin="round" d="M359 286h-18"/>
        <path fill="#FFFFFE" d="M359 297h-18"/>
        <path stroke="#C8C7C8" stroke-linejoin="round" d="M359 297h-18"/>
        <path fill="#FFFFFE" d="M359 309h-18"/>
        <path stroke="#C8C7C8" stroke-linejoin="round" d="M359 309h-18"/>
        <path fill="#FFFFFE" d="M359 324h-18"/>
        <path stroke="#C8C7C8" stroke-linejoin="round" d="M359 324h-18"/>
        <path fill="#FFFFFE" d="M359 336h-18"/>
        <path stroke="#C8C7C8" stroke-linejoin="round" d="M359 336h-18"/>
        <path fill="#FFFFFE" d="M359 347h-18"/>
        <path stroke="#C8C7C8" stroke-linejoin="round" d="M359 347h-18"/>
        <path fill="#FFFFFE" d="M359 360h-18"/>
        <path stroke="#C8C7C8" stroke-linejoin="round" d="M359 360h-18"/>
        <path fill="#FFFFFE" d="M359 373h-18"/>
        <path stroke="#C8C7C8" stroke-linejoin="round" d="M359 373h-18"/>
        <path fill="#FFFFFE" d="M359 386h-18"/>
        <path stroke="#C8C7C8" stroke-linejoin="round" d="M359 386h-18"/>
        <path fill="#FFFFFE" d="M359 398h-18"/>
        <path stroke="#C8C7C8" stroke-linejoin="round" d="M359 398h-18"/>
        <path fill="#FFFFFE" d="M359 411h-18"/>
        <path stroke="#C8C7C8" stroke-linejoin="round" d="M359 411h-18"/>
        <path fill="#FFFFFE" d="M359 424h-18"/>
        <path stroke="#C8C7C8" stroke-linejoin="round" d="M359 424h-18"/>
        <path fill="#FFFFFE" d="M359 436h-18"/>
        <path stroke="#C8C7C8" stroke-linejoin="round" stroke-width="3" d="M359 436h-18"/>
        <path fill="#FFFFFE" d="M359 447h-18"/>
        <path stroke="#C8C7C8" stroke-linejoin="round" d="M359 447h-18"/>
        <path fill="#FFFFFE" d="M359 461h-18"/>
        <path stroke="#C8C7C8" stroke-linejoin="round" d="M359 461h-18"/>
        <path fill="#FFFFFE" d="M359 474h-18"/>
        <path stroke="#C8C7C8" stroke-linejoin="round" d="M359 474h-18"/>
        <path fill="#FFFFFE" d="M359 485h-18"/>
        <path stroke="#C8C7C8" stroke-linejoin="round" d="M359 485h-18"/>
        <path fill="#FFFFFE" d="M359 499h-18"/>
        <path stroke="#C8C7C8" stroke-linejoin="round" d="M359 499h-18"/>
        <path fill="#FFFFFE" d="M196 248h125"/>
        <path stroke="#C8C7C8" stroke-linejoin="round" d="M196 248h125"/>
        <path fill="#FFFFFE" d="M196 271h125"/>
        <path stroke="#C8C7C8" stroke-linejoin="round" d="M196 271h125"/>
        <path fill="#FFFFFE" d="M196 296h125"/>
        <path stroke="#C8C7C8" stroke-linejoin="round" d="M196 296h125"/>
        <path fill="#FFFFFE" d="M196 321h125"/>
        <path stroke="#C8C7C8" stroke-linejoin="round" d="M196 321h125"/>
        <path fill="#FFFFFE" d="M196 343h125"/>
        <path stroke="#C8C7C8" stroke-linejoin="round" d="M196 343h125"/>
        <path fill="#FFFFFE" d="M196 369h125"/>
        <path stroke="#C8C7C8" stroke-linejoin="round" d="M196 369h125"/>
        <path fill="#FFFFFE" d="M196 392h125"/>
        <path stroke="#C8C7C8" stroke-linejoin="round" d="M196 392h125"/>
        <path fill="#FFFFFE" d="M196 417h125"/>
        <path stroke="#C8C7C8" stroke-linejoin="round" d="M196 417h125"/>
        <path fill="#FFFFFE" d="M196 440h125"/>
        <path stroke="#C8C7C8" stroke-linejoin="round" d="M196 440h125"/>
        <path fill="#FFFFFE" d="M196 463h125"/>
        <path stroke="#C8C7C8" stroke-linejoin="round" d="M196 463h125"/>
        <path fill="#FFFFFE" d="M196 488h125"/>
        <path stroke="#C8C7C8" stroke-linejoin="round" d="M196 488h125"/>
        <path fill="#FFFFFE" d="M397 510h82v-95h-82z"/>
        <path stroke="#C8C7C8" stroke-linejoin="round" d="M397 510h82v-95h-82z"/>
        <path fill="#FFFFFE" d="M241 510h156v-49H241z"/>
        <path stroke="#C8C7C8" stroke-linejoin="round" d="M241 510h156v-49H241z"/>
        <path fill="#FFFFFE" d="M241 460h156v-16H241z"/>
        <path stroke="#C8C7C8" stroke-linejoin="round" d="M241 460h156v-16H241z"/>
        <path fill="#FFFFFE" d="M241 444h156v-9H241z"/>
        <path stroke="#C8C7C8" stroke-linejoin="round" d="M241 444h156v-9H241z"/>
        <path fill="#FFFFFE" d="M498.332 380.602l-19.275 36.274-83.089-.001-19.273-36.273h121.637"/>
        <path stroke="#C8C7C8" stroke-linejoin="round" d="M498.332 380.602l-19.275 36.274-83.089-.001-19.273-36.273z"/>
        <path fill="#FFFFFE" d="M437.089 333.31l54.2 47.285H382.887l54.2-47.285"/>
        <path stroke="#C8C7C8" stroke-linejoin="round" d="M437.089 333.31l54.2 47.285H382.887z"/>
        <path fill="#FFFFFE" d="M409 380v8"/>
        <path stroke="#C8C7C8" stroke-linejoin="round" d="M409 380v8"/>
        <path fill="#FFFFFE" d="M400 380v8"/>
        <path stroke="#C8C7C8" stroke-linejoin="round" d="M400 380v8"/>
        <path fill="#FFFFFE" d="M387 380v8"/>
        <path stroke="#C8C7C8" stroke-linejoin="round" d="M387 380v8"/>
        <path fill="#FFFFFE" d="M376 380v8"/>
        <path stroke="#C8C7C8" stroke-linejoin="round" d="M376 380v8"/>
        <path fill="#FFFFFE" d="M274 491.425V511h-14v-19.575c0-4.1 3.129-7.425 6.988-7.425h.024c3.859 0 6.988 3.325 6.988 7.425"/>
        <path stroke="#C8C7C8" stroke-linejoin="round" d="M274 491.425V511h-14v-19.575c0-4.1 3.129-7.425 6.988-7.425h.024c3.859 0 6.988 3.325 6.988 7.425z"/>
        <path fill="#FFFFFE" d="M324 491.425V511h-14v-19.575c0-4.1 3.129-7.425 6.988-7.425h.024c3.859 0 6.988 3.325 6.988 7.425"/>
        <path stroke="#C8C7C8" stroke-linejoin="round" d="M324 491.425V511h-14v-19.575c0-4.1 3.129-7.425 6.988-7.425h.024c3.859 0 6.988 3.325 6.988 7.425z"/>
        <path fill="#FFFFFE" d="M375 491.425V511h-14v-19.575c0-4.1 3.129-7.425 6.99-7.425h.022c3.859 0 6.988 3.325 6.988 7.425"/>
        <path stroke="#C8C7C8" stroke-linejoin="round" d="M375 491.425V511h-14v-19.575c0-4.1 3.129-7.425 6.99-7.425h.022c3.859 0 6.988 3.325 6.988 7.425z"/>
        <path fill="#FFFFFE" d="M1 510h156v-49H1z"/>
        <path stroke="#C8C7C8" stroke-linejoin="round" d="M1 510h156v-49H1z"/>
        <path fill="#FFFFFE" d="M1 460h156v-16H1z"/>
        <path stroke="#C8C7C8" stroke-linejoin="round" d="M1 460h156v-16H1z"/>
        <path fill="#FFFFFE" d="M1 444h156v-9H1z"/>
        <path stroke="#C8C7C8" stroke-linejoin="round" d="M1 444h156v-9H1z"/>
        <path fill="#FFFFFE" d="M135 491.427V511h-14v-19.573c0-4.102 3.128-7.427 6.989-7.427h.022c3.861 0 6.989 3.325 6.989 7.427"/>
        <path stroke="#C8C7C8" stroke-linejoin="round" d="M135 491.427V511h-14v-19.573c0-4.102 3.128-7.427 6.989-7.427h.022c3.861 0 6.989 3.325 6.989 7.427z"/>
        <path fill="#FFFFFE" d="M198 216v38"/>
        <path stroke="#C8C7C8" stroke-linejoin="round" d="M198 216v38"/>
        <path fill="#FFFFFE" d="M185 318h27v-38h-27z"/>
        <path stroke="#C8C7C8" stroke-linejoin="round" d="M185 318h27v-38h-27z"/>
        <path fill="#FFFFFE" d="M204 290.126V301h-9v-10.874c0-2.278 2.01-4.126 4.492-4.126h.016c2.48 0 4.492 1.848 4.492 4.126"/>
        <path stroke="#C8C7C8" stroke-linejoin="round" d="M204 290.126V301h-9v-10.874c0-2.278 2.01-4.126 4.492-4.126h.016c2.48 0 4.492 1.848 4.492 4.126z"/>
        <path fill="#FFFFFE" d="M157 510h82v-95h-82z"/>
        <path stroke="#C8C7C8" stroke-linejoin="round" d="M157 510h82v-95h-82z"/>
        <path fill="#FFFFFE" d="M172 359h52v-49h-52z"/>
        <path stroke="#C8C7C8" stroke-linejoin="round" d="M172 359h52v-49h-52z"/>
        <path fill="#FFFFFE" d="M225.137 360h-52.273L139 383h120l-33.863-23"/>
        <path stroke="#C8C7C8" stroke-linejoin="round" d="M225.137 360h-52.273L139 383h120z"/>
        <path fill="#FFFFFE" d="M210 335c0 5.524-4.478 10-10 10-5.524 0-10-4.476-10-10 0-5.522 4.476-10 10-10 5.522 0 10 4.478 10 10"/>
        <path stroke="#C8C7C8" stroke-linejoin="round" d="M210 335c0 5.524-4.478 10-10 10-5.524 0-10-4.476-10-10 0-5.522 4.476-10 10-10 5.522 0 10 4.478 10 10z"/>
        <path fill="#FFFFFE" d="M212 483.725V512h-22v-28.275c0-5.923 4.917-10.725 10.981-10.725h.038c6.065 0 10.981 4.802 10.981 10.725"/>
        <path stroke="#C8C7C8" stroke-linejoin="round" d="M212 483.725V512h-22v-28.275c0-5.923 4.917-10.725 10.981-10.725h.038c6.065 0 10.981 4.802 10.981 10.725z"/>
        <path fill="#FFFFFE" d="M150 420h101v-36H150z"/>
        <path stroke="#C8C7C8" stroke-linejoin="round" d="M150 420h101v-36H150z"/>
        <path fill="#FFFFFE" d="M146.07 383l-.07 8"/>
        <path stroke="#C8C7C8" stroke-linejoin="round" d="M146.07 383l-.07 8"/>
        <path fill="#FFFFFE" d="M159.07 383l-.07 8"/>
        <path stroke="#C8C7C8" stroke-linejoin="round" d="M159.07 383l-.07 8"/>
        <path fill="#FFFFFE" d="M170.069 383l-.069 8"/>
        <path stroke="#C8C7C8" stroke-linejoin="round" d="M170.069 383l-.069 8"/>
        <path fill="#FFFFFE" d="M181.069 384l-.069 8"/>
        <path stroke="#C8C7C8" stroke-linejoin="round" d="M181.069 384l-.069 8"/>
        <path fill="#FFFFFE" d="M193.069 384l-.069 8"/>
        <path stroke="#C8C7C8" stroke-linejoin="round" d="M193.069 384l-.069 8"/>
        <path fill="#FFFFFE" d="M205.07 384l-.07 8"/>
        <path stroke="#C8C7C8" stroke-linejoin="round" d="M205.07 384l-.07 8"/>
        <path fill="#FFFFFE" d="M216.07 384l-.07 8"/>
        <path stroke="#C8C7C8" stroke-linejoin="round" d="M216.07 384l-.07 8"/>
        <path fill="#FFFFFE" d="M227.07 384l-.07 8"/>
        <path stroke="#C8C7C8" stroke-linejoin="round" d="M227.07 384l-.07 8"/>
        <path fill="#FFFFFE" d="M237.07 384l-.07 8"/>
        <path stroke="#C8C7C8" stroke-linejoin="round" d="M237.07 384l-.07 8"/>
        <path fill="#FFFFFE" d="M249.069 384l-.069 8"/>
        <path stroke="#C8C7C8" stroke-linejoin="round" d="M249.069 384l-.069 8"/>
        <path fill="#FFFFFE" d="M170 430v11"/>
        <path stroke="#C8C7C8" stroke-linejoin="round" d="M170 430v11"/>
        <path fill="#FFFFFE" d="M181 430v11"/>
        <path stroke="#C8C7C8" stroke-linejoin="round" d="M181 430v11"/>
        <path fill="#FFFFFE" d="M193 430v11"/>
        <path stroke="#C8C7C8" stroke-linejoin="round" d="M193 430v11"/>
        <path fill="#FFFFFE" d="M205 430v11"/>
        <path stroke="#C8C7C8" stroke-linejoin="round" d="M205 430v11"/>
        <path fill="#FFFFFE" d="M216 430v11"/>
        <path stroke="#C8C7C8" stroke-linejoin="round" d="M216 430v11"/>
        <path fill="#FFFFFE" d="M224 430v11"/>
        <path stroke="#C8C7C8" stroke-linejoin="round" d="M224 430v11"/>
        <path fill="#FFFFFE" d="M172 312v-9"/>
        <path stroke="#C8C7C8" stroke-linejoin="round" d="M172 312v-9"/>
        <path fill="#FFFFFE" d="M181 312v-9"/>
        <path stroke="#C8C7C8" stroke-linejoin="round" d="M181 312v-9"/>
        <path fill="#FFFFFE" d="M190 312v-9"/>
        <path stroke="#C8C7C8" stroke-linejoin="round" d="M190 312v-9"/>
        <path fill="#FFFFFE" d="M198 312v-9"/>
        <path stroke="#C8C7C8" stroke-linejoin="round" d="M198 312v-9"/>
        <path fill="#FFFFFE" d="M206 312v-9"/>
        <path stroke="#C8C7C8" stroke-linejoin="round" d="M206 312v-9"/>
        <path fill="#FFFFFE" d="M216 312v-9"/>
        <path stroke="#C8C7C8" stroke-linejoin="round" d="M216 312v-9"/>
        <path fill="#FFFFFE" d="M223 312v-9"/>
        <path stroke="#C8C7C8" stroke-linejoin="round" d="M223 312v-9"/>
        <path fill="#FFFFFE" d="M190 278v-18"/>
        <path stroke="#C8C7C8" stroke-linejoin="round" d="M190 278v-18"/>
        <path fill="#FFFFFE" d="M198 278v-18"/>
        <path stroke="#C8C7C8" stroke-linejoin="round" d="M198 278v-18"/>
        <path fill="#FFFFFE" d="M206 278v-18"/>
        <path stroke="#C8C7C8" stroke-linejoin="round" d="M206 278v-18"/>
        <path fill="#FFFFFE" d="M210.98 260c.013-.208.02-.418.02-.629 0-6.28-5.373-11.371-12-11.371s-12 5.09-12 11.371c0 .211.007.42.02.629h23.96"/>
        <path stroke="#C8C7C8" stroke-linejoin="round" d="M210.98 260c.013-.208.02-.418.02-.629 0-6.28-5.373-11.371-12-11.371s-12 5.09-12 11.371c0 .211.007.42.02.629h23.96z"/>
        <path fill="#FFFFFE" d="M223.498 40a9.55 9.55 0 0 0 .502-3.022c0-4.595-3.281-8.541-7.978-10.29.473-1.195.74-2.468.74-3.797 0-6.567-6.269-11.891-14.004-11.891-6.546 0-12.026 3.817-13.562 8.97-.149-.005-.295-.02-.444-.02C179.5 19.95 172 25.915 172 33.271c0 2.458.851 4.752 2.311 6.729h49.187"/>
        <path stroke="#C8C7C8" stroke-linejoin="round" d="M223.498 40a9.55 9.55 0 0 0 .502-3.022c0-4.595-3.281-8.541-7.978-10.29.473-1.195.74-2.468.74-3.797 0-6.567-6.269-11.891-14.004-11.891-6.546 0-12.026 3.817-13.562 8.97-.149-.005-.295-.02-.444-.02C179.5 19.95 172 25.915 172 33.271c0 2.458.851 4.752 2.311 6.729h49.187z"/>
    </g>
</svg>
