<svg xmlns="http://www.w3.org/2000/svg" viewBox="0 0 162.44 161.5"><defs><style>.cls-1{fill:none;stroke:#4a90e2;stroke-linecap:round;stroke-linejoin:round;}</style></defs><title>shuttle</title><g id="Livello_2" data-name="Livello 2"><g id="Menù"><circle class="cls-1" cx="119.54" cy="44.27" r="11.19"/><circle class="cls-1" cx="95.55" cy="68.26" r="4.8"/><line class="cls-1" x1="76.36" y1="85.85" x2="55.58" y2="106.63"/><path class="cls-1" d="M46,95.44l-9.59,12.79s0,4.8,6.39,11.2,11.2,8,11.2,8l12.79-11.19"/><path class="cls-1" d="M117.58,83.69s2,26.14-2.84,38.93-32,38.38-32,38.38l-3-48"/><path class="cls-1" d="M79,45.79s-26.07-2.85-39,1.5S.5,77.93.5,77.93l47.91,4.68"/><path class="cls-1" d="M30,122.62a48.39,48.39,0,0,0-14.39,9.6C9.2,138.61,9.2,153,9.2,153s16-1.59,22.39-6.39,8-12.79,8-12.79"/><path class="cls-1" d="M43.58,88.24s1.54,6.45,11.2,17.59c10.39,12,17.59,12.8,17.59,12.8s41.57-32,64-49.57,28-64.77,24.78-68S109.94,7.49,90.76,31.48,43.58,88.24,43.58,88.24Z"/></g></g></svg>