<?xml version="1.0" encoding="utf-8"?>
<!-- Generator: Adobe Illustrator 22.1.0, SVG Export Plug-In . SVG Version: 6.00 Build 0)  -->
<svg version="1.1" id="Livello_1" xmlns="http://www.w3.org/2000/svg" xmlns:xlink="http://www.w3.org/1999/xlink" x="0px" y="0px"
	 viewBox="0 0 100 100" style="enable-background:new 0 0 100 100;" xml:space="preserve">
<style type="text/css">
	.st0{fill:none;stroke:#218AE5;stroke-width:1.5;stroke-linecap:round;stroke-linejoin:round;stroke-miterlimit:10;}
</style>
<g>
	<path class="st0" d="M21.4,50.1L9.1,62.3C1,70.4,1,83.6,9.1,91.7l0,0l0,0c8.1,8.1,21.2,8.1,29.3,0l0,0L50,79.3L21.4,50.1z"/>
	<path class="st0" d="M77.5,2.5c-5.5,0-10.8,2.2-14.7,6.1l-12,12.1l28.9,28.9l12.5-11.7c8.1-8.1,8.1-21.2,0-29.3l0,0l0,0
		C88.3,4.7,83,2.5,77.5,2.5L77.5,2.5L77.5,2.5z"/>
	<path class="st0" d="M38.4,8.6c-8.1-8.1-21.2-8.1-29.3,0l0,0l0,0C1,16.7,1,29.8,9.1,37.9l0,0l53.8,53.7c8.6,7.6,21.7,6.8,29.3-1.8
		c6.9-7.8,6.9-19.6,0-27.5L38.4,8.6z M74.8,58.9c1.1-1.1,2.9-1.1,4,0s1.1,2.9,0,4s-2.9,1.1-4,0l0,0C73.7,61.9,73.7,60,74.8,58.9z
		 M37.8,21.9c1.1-1.1,2.9-1.1,4,0s1.1,2.9,0,4s-2.9,1.1-4,0l0,0C36.6,24.8,36.6,23,37.8,21.9z M30.3,14.5c1.1-1.1,2.9-1.1,4,0
		s1.1,2.9,0,4s-2.9,1.1-4,0l0,0C29.2,17.4,29.2,15.6,30.3,14.5z M30.1,29.5c1.1-1.1,2.9-1.1,4,0s1.1,2.9,0,4s-2.9,1.1-4,0l0,0
		C29,32.5,29,30.7,30.1,29.5L30.1,29.5z M11.2,22.8c-1.1-1.1-1.1-2.9,0-4s2.9-1.1,4,0s1.1,2.9,0,4l0,0
		C14.2,23.9,12.4,23.9,11.2,22.8z M19.1,33.8c-1.1,1.1-2.9,1.1-4,0s-1.1-2.9,0-4s2.9-1.1,4,0l0,0C20.2,30.9,20.2,32.7,19.1,33.8z
		 M19.3,14.7c-1.1-1.1-1.1-2.9,0-4s2.9-1.1,4,0s1.1,2.9,0,4l0,0C22.3,15.8,20.4,15.8,19.3,14.7L19.3,14.7L19.3,14.7z M38.4,8.6
		c-8.1-8.1-21.2-8.1-29.3,0l0,0l0,0C1,16.7,1,29.8,9.1,37.9l0,0l53.8,53.7c8.6,7.6,21.7,6.8,29.3-1.8c6.9-7.8,6.9-19.6,0-27.5
		L38.4,8.6z M74.8,58.9c1.1-1.1,2.9-1.1,4,0s1.1,2.9,0,4s-2.9,1.1-4,0l0,0C73.7,61.9,73.7,60,74.8,58.9z M37.8,21.9
		c1.1-1.1,2.9-1.1,4,0s1.1,2.9,0,4s-2.9,1.1-4,0l0,0C36.6,24.8,36.6,23,37.8,21.9z M30.3,14.5c1.1-1.1,2.9-1.1,4,0s1.1,2.9,0,4
		s-2.9,1.1-4,0l0,0C29.2,17.4,29.2,15.6,30.3,14.5z M30.1,29.5c1.1-1.1,2.9-1.1,4,0s1.1,2.9,0,4s-2.9,1.1-4,0l0,0
		C29,32.5,29,30.7,30.1,29.5L30.1,29.5z M11.2,22.8c-1.1-1.1-1.1-2.9,0-4s2.9-1.1,4,0s1.1,2.9,0,4l0,0
		C14.2,23.9,12.4,23.9,11.2,22.8z M19.1,33.8c-1.1,1.1-2.9,1.1-4,0s-1.1-2.9,0-4s2.9-1.1,4,0l0,0C20.2,30.9,20.2,32.7,19.1,33.8z
		 M19.3,14.7c-1.1-1.1-1.1-2.9,0-4s2.9-1.1,4,0s1.1,2.9,0,4l0,0C22.3,15.8,20.4,15.8,19.3,14.7L19.3,14.7L19.3,14.7z M26.5,41.2
		c-1.1,1.1-2.9,1.1-4,0s-1.1-2.9,0-4s2.9-1.1,4,0l0,0C27.6,38.3,27.6,40.1,26.5,41.2L26.5,41.2L26.5,41.2z M26.8,26.2
		c-1.1,1.1-2.9,1.1-4,0s-1.1-2.9,0-4s2.9-1.1,4,0l0,0C27.9,23.3,27.9,25.1,26.8,26.2L26.8,26.2L26.8,26.2z M63.6,78.2
		c-1.1,1.1-2.9,1.1-4,0s-1.1-2.9,0-4s2.9-1.1,4,0l0,0C64.7,75.3,64.7,77.1,63.6,78.2L63.6,78.2L63.6,78.2z M71,85.6
		c-1.1,1.1-2.9,1.1-4,0s-1.1-2.9,0-4s2.9-1.1,4,0l0,0C72.1,82.7,72.1,84.5,71,85.6C71,85.6,71,85.7,71,85.6L71,85.6z M71.2,70.6
		c-1.1,1.1-2.9,1.1-4,0s-1.1-2.9,0-4s2.9-1.1,4,0l0,0C72.3,67.6,72.3,69.4,71.2,70.6L71.2,70.6L71.2,70.6z M74.6,78
		c-1.1-1.1-1.1-2.9,0-4s2.9-1.1,4,0s1.1,2.9,0,4l0,0C77.5,79.1,75.7,79.2,74.6,78C74.6,78.1,74.6,78,74.6,78L74.6,78z M82,89.4
		c-1.1,1.1-2.9,1.1-4,0s-1.1-2.9,0-4s2.9-1.1,4,0l0,0C83.1,86.5,83.2,88.3,82,89.4C82,89.5,82,89.5,82,89.4L82,89.4z M82.2,70.3
		c-1.1-1.1-1.1-2.9,0-4s2.9-1.1,4,0s1.1,2.9,0,4l0,0C85.1,71.5,83.3,71.5,82.2,70.3C82.2,70.4,82.2,70.4,82.2,70.3L82.2,70.3z
		 M90.1,81.3c-1.1,1.1-2.9,1.1-4,0s-1.1-2.9,0-4s2.9-1.1,4,0l0,0C91.2,78.4,91.3,80.2,90.1,81.3C90.1,81.4,90.1,81.4,90.1,81.3
		L90.1,81.3z M26.5,41.2c-1.1,1.1-2.9,1.1-4,0s-1.1-2.9,0-4s2.9-1.1,4,0l0,0C27.6,38.3,27.6,40.1,26.5,41.2L26.5,41.2L26.5,41.2z
		 M26.8,26.2c-1.1,1.1-2.9,1.1-4,0s-1.1-2.9,0-4s2.9-1.1,4,0l0,0C27.9,23.3,27.9,25.1,26.8,26.2L26.8,26.2L26.8,26.2z M63.6,78.2
		c-1.1,1.1-2.9,1.1-4,0s-1.1-2.9,0-4s2.9-1.1,4,0l0,0C64.7,75.3,64.7,77.1,63.6,78.2L63.6,78.2L63.6,78.2z M71,85.6
		c-1.1,1.1-2.9,1.1-4,0s-1.1-2.9,0-4s2.9-1.1,4,0l0,0C72.1,82.7,72.1,84.5,71,85.6C71,85.6,71,85.7,71,85.6L71,85.6z M71.2,70.6
		c-1.1,1.1-2.9,1.1-4,0s-1.1-2.9,0-4s2.9-1.1,4,0l0,0C72.3,67.6,72.3,69.4,71.2,70.6L71.2,70.6L71.2,70.6z M53.4,72.1L28.6,47.3
		L47.9,28l24.8,24.8L53.4,72.1z M74.6,78c-1.1-1.1-1.1-2.9,0-4s2.9-1.1,4,0s1.1,2.9,0,4l0,0C77.5,79.1,75.7,79.2,74.6,78
		C74.6,78.1,74.6,78,74.6,78L74.6,78z M82,89.4c-1.1,1.1-2.9,1.1-4,0s-1.1-2.9,0-4s2.9-1.1,4,0l0,0C83.1,86.5,83.2,88.3,82,89.4
		C82,89.5,82,89.5,82,89.4L82,89.4z M82.2,70.3c-1.1-1.1-1.1-2.9,0-4s2.9-1.1,4,0s1.1,2.9,0,4l0,0C85.1,71.5,83.3,71.5,82.2,70.3
		C82.2,70.4,82.2,70.4,82.2,70.3L82.2,70.3z M90.1,81.3c-1.1,1.1-2.9,1.1-4,0s-1.1-2.9,0-4s2.9-1.1,4,0l0,0
		C91.2,78.4,91.3,80.2,90.1,81.3C90.1,81.4,90.1,81.4,90.1,81.3L90.1,81.3z"/>
	<path class="st0" d="M38.4,8.6c-8.1-8.1-21.2-8.1-29.3,0l0,0l0,0C1,16.7,1,29.8,9.1,37.9l0,0l53.8,53.7c8.6,7.6,21.7,6.8,29.3-1.8
		c6.9-7.8,6.9-19.6,0-27.5L38.4,8.6z M74.8,58.9c1.1-1.1,2.9-1.1,4,0s1.1,2.9,0,4s-2.9,1.1-4,0l0,0C73.7,61.9,73.7,60,74.8,58.9z
		 M37.8,21.9c1.1-1.1,2.9-1.1,4,0s1.1,2.9,0,4s-2.9,1.1-4,0l0,0C36.6,24.8,36.6,23,37.8,21.9z M30.3,14.5c1.1-1.1,2.9-1.1,4,0
		s1.1,2.9,0,4s-2.9,1.1-4,0l0,0C29.2,17.4,29.2,15.6,30.3,14.5z M30.1,29.5c1.1-1.1,2.9-1.1,4,0s1.1,2.9,0,4s-2.9,1.1-4,0l0,0
		C29,32.5,29,30.7,30.1,29.5L30.1,29.5z M11.2,22.8c-1.1-1.1-1.1-2.9,0-4s2.9-1.1,4,0s1.1,2.9,0,4l0,0
		C14.2,23.9,12.4,23.9,11.2,22.8z M19.1,33.8c-1.1,1.1-2.9,1.1-4,0s-1.1-2.9,0-4s2.9-1.1,4,0l0,0C20.2,30.9,20.2,32.7,19.1,33.8z
		 M19.3,14.7c-1.1-1.1-1.1-2.9,0-4s2.9-1.1,4,0s1.1,2.9,0,4l0,0C22.3,15.8,20.4,15.8,19.3,14.7L19.3,14.7L19.3,14.7z M38.4,8.6
		c-8.1-8.1-21.2-8.1-29.3,0l0,0l0,0C1,16.7,1,29.8,9.1,37.9l0,0l53.8,53.7c8.6,7.6,21.7,6.8,29.3-1.8c6.9-7.8,6.9-19.6,0-27.5
		L38.4,8.6z M26.5,41.2c-1.1,1.1-2.9,1.1-4,0s-1.1-2.9,0-4s2.9-1.1,4,0l0,0C27.6,38.3,27.6,40.1,26.5,41.2L26.5,41.2L26.5,41.2z
		 M26.8,26.2c-1.1,1.1-2.9,1.1-4,0s-1.1-2.9,0-4s2.9-1.1,4,0l0,0C27.9,23.3,27.9,25.1,26.8,26.2L26.8,26.2L26.8,26.2z M63.6,78.2
		c-1.1,1.1-2.9,1.1-4,0s-1.1-2.9,0-4s2.9-1.1,4,0l0,0C64.7,75.3,64.7,77.1,63.6,78.2L63.6,78.2L63.6,78.2z M71,85.6
		c-1.1,1.1-2.9,1.1-4,0s-1.1-2.9,0-4s2.9-1.1,4,0l0,0C72.1,82.7,72.1,84.5,71,85.6C71,85.6,71,85.7,71,85.6L71,85.6z M71.2,70.6
		c-1.1,1.1-2.9,1.1-4,0s-1.1-2.9,0-4s2.9-1.1,4,0l0,0C72.3,67.6,72.3,69.4,71.2,70.6L71.2,70.6L71.2,70.6z M74.6,78
		c-1.1-1.1-1.1-2.9,0-4s2.9-1.1,4,0s1.1,2.9,0,4l0,0C77.5,79.1,75.7,79.2,74.6,78C74.6,78.1,74.6,78,74.6,78L74.6,78z M82,89.4
		c-1.1,1.1-2.9,1.1-4,0s-1.1-2.9,0-4s2.9-1.1,4,0l0,0C83.1,86.5,83.2,88.3,82,89.4C82,89.5,82,89.5,82,89.4L82,89.4z M82.2,70.3
		c-1.1-1.1-1.1-2.9,0-4s2.9-1.1,4,0s1.1,2.9,0,4l0,0C85.1,71.5,83.3,71.5,82.2,70.3C82.2,70.4,82.2,70.4,82.2,70.3L82.2,70.3z
		 M90.1,81.3c-1.1,1.1-2.9,1.1-4,0s-1.1-2.9,0-4s2.9-1.1,4,0l0,0C91.2,78.4,91.3,80.2,90.1,81.3C90.1,81.4,90.1,81.4,90.1,81.3
		L90.1,81.3z M53.4,72.1L28.6,47.3L47.9,28l24.8,24.8L53.4,72.1z"/>
</g>
</svg>
