<?xml version="1.0" encoding="utf-8"?>
<!-- Generator: Adobe Illustrator 22.1.0, SVG Export Plug-In . SVG Version: 6.00 Build 0)  -->
<svg version="1.1" id="Livello_1" xmlns="http://www.w3.org/2000/svg" xmlns:xlink="http://www.w3.org/1999/xlink" x="0px" y="0px"
	 viewBox="0 0 100 100" style="enable-background:new 0 0 100 100;" xml:space="preserve">
<style type="text/css">
	.st0{fill:none;stroke:#0C5494;stroke-width:1.5;stroke-linecap:round;stroke-linejoin:round;stroke-miterlimit:10;}
</style>
<g>
	<path class="st0" d="M21.2,49.9L8.8,62.1c-8.1,8.1-8.1,21.3,0,29.4l0,0l0,0c8.1,8.1,21.3,8.1,29.4,0l0,0l11.6-12.4L21.2,49.9z"/>
	<path class="st0" d="M77.4,2.1c-5.5,0-10.8,2.2-14.7,6.1L50.6,20.3l29,29l12.5-11.7c8.1-8.1,8.1-21.3,0-29.4l0,0l0,0
		C88.3,4.2,83,2,77.4,2.1L77.4,2.1L77.4,2.1z"/>
	<path class="st0" d="M38.2,8.2C30.1,0,16.9,0,8.8,8.2l0,0l0,0c-8.1,8.1-8.1,21.3,0,29.4l0,0l54,53.9c8.6,7.6,21.8,6.8,29.4-1.8
		c7-7.9,7-19.7,0-27.6L38.2,8.2z M74.7,58.7c1.1-1.1,2.9-1.1,4.1,0c1.1,1.1,1.1,2.9,0,4.1c-1.1,1.1-2.9,1.1-4.1,0l0,0
		C73.6,61.6,73.6,59.8,74.7,58.7z M37.6,21.6c1.1-1.1,2.9-1.1,4.1,0c1.1,1.1,1.1,2.9,0,4.1c-1.1,1.1-2.9,1.1-4.1,0l0,0
		C36.4,24.5,36.4,22.7,37.6,21.6z M30.1,14.1c1.1-1.1,2.9-1.1,4.1,0c1.1,1.1,1.1,2.9,0,4.1c-1.1,1.1-2.9,1.1-4.1,0l0,0
		C29,17,29,15.2,30.1,14.1z M29.9,29.2c1.1-1.1,2.9-1.1,4.1,0c1.1,1.1,1.1,2.9,0,4.1c-1.1,1.1-2.9,1.1-4.1,0l0,0
		C28.8,32.2,28.8,30.3,29.9,29.2L29.9,29.2z M10.9,22.5c-1.1-1.1-1.1-2.9,0-4.1c1.1-1.1,2.9-1.1,4.1,0c1.1,1.1,1.1,2.9,0,4.1l0,0
		C13.9,23.6,12.1,23.6,10.9,22.5z M18.8,33.5c-1.1,1.1-2.9,1.1-4.1,0c-1.1-1.1-1.1-2.9,0-4.1c1.1-1.1,2.9-1.1,4.1,0l0,0
		C20,30.6,20,32.4,18.8,33.5z M19.1,14.3c-1.1-1.1-1.1-2.9,0-4.1c1.1-1.1,2.9-1.1,4.1,0c1.1,1.1,1.1,2.9,0,4.1l0,0
		C22,15.5,20.2,15.5,19.1,14.3L19.1,14.3L19.1,14.3z M38.2,8.2C30.1,0,16.9,0,8.8,8.2l0,0l0,0c-8.1,8.1-8.1,21.3,0,29.4l0,0l54,53.9
		c8.6,7.6,21.8,6.8,29.4-1.8c7-7.9,7-19.7,0-27.6L38.2,8.2z M74.7,58.7c1.1-1.1,2.9-1.1,4.1,0c1.1,1.1,1.1,2.9,0,4.1
		c-1.1,1.1-2.9,1.1-4.1,0l0,0C73.6,61.6,73.6,59.8,74.7,58.7z M37.6,21.6c1.1-1.1,2.9-1.1,4.1,0c1.1,1.1,1.1,2.9,0,4.1
		c-1.1,1.1-2.9,1.1-4.1,0l0,0C36.4,24.5,36.4,22.7,37.6,21.6z M30.1,14.1c1.1-1.1,2.9-1.1,4.1,0c1.1,1.1,1.1,2.9,0,4.1
		c-1.1,1.1-2.9,1.1-4.1,0l0,0C29,17,29,15.2,30.1,14.1z M29.9,29.2c1.1-1.1,2.9-1.1,4.1,0c1.1,1.1,1.1,2.9,0,4.1
		c-1.1,1.1-2.9,1.1-4.1,0l0,0C28.8,32.2,28.8,30.3,29.9,29.2L29.9,29.2z M10.9,22.5c-1.1-1.1-1.1-2.9,0-4.1c1.1-1.1,2.9-1.1,4.1,0
		c1.1,1.1,1.1,2.9,0,4.1l0,0C13.9,23.6,12.1,23.6,10.9,22.5z M18.8,33.5c-1.1,1.1-2.9,1.1-4.1,0c-1.1-1.1-1.1-2.9,0-4.1
		c1.1-1.1,2.9-1.1,4.1,0l0,0C20,30.6,20,32.4,18.8,33.5z M19.1,14.3c-1.1-1.1-1.1-2.9,0-4.1c1.1-1.1,2.9-1.1,4.1,0
		c1.1,1.1,1.1,2.9,0,4.1l0,0C22,15.5,20.2,15.5,19.1,14.3L19.1,14.3L19.1,14.3z M26.3,40.9c-1.1,1.1-2.9,1.1-4.1,0
		c-1.1-1.1-1.1-2.9,0-4.1c1.1-1.1,2.9-1.1,4.1,0l0,0C27.4,38,27.4,39.8,26.3,40.9C26.3,41,26.3,41,26.3,40.9L26.3,40.9z M26.5,25.8
		c-1.1,1.1-2.9,1.1-4.1,0c-1.1-1.1-1.1-2.9,0-4.1c1.1-1.1,2.9-1.1,4.1,0l0,0C27.6,22.9,27.6,24.7,26.5,25.8L26.5,25.8L26.5,25.8z
		 M63.5,78c-1.1,1.1-2.9,1.1-4.1,0c-1.1-1.1-1.1-2.9,0-4.1c1.1-1.1,2.9-1.1,4.1,0l0,0C64.6,75.1,64.6,76.9,63.5,78
		C63.5,78.1,63.5,78.1,63.5,78L63.5,78z M70.9,85.5c-1.1,1.1-2.9,1.1-4.1,0c-1.1-1.1-1.1-2.9,0-4.1c1.1-1.1,2.9-1.1,4.1,0l0,0
		C72,82.5,72.1,84.4,70.9,85.5L70.9,85.5L70.9,85.5z M71.1,70.4c-1.1,1.1-2.9,1.1-4.1,0c-1.1-1.1-1.1-2.9,0-4.1
		c1.1-1.1,2.9-1.1,4.1,0l0,0C72.3,67.4,72.3,69.3,71.1,70.4L71.1,70.4L71.1,70.4z M74.5,77.8c-1.1-1.1-1.1-2.9,0-4.1
		c1.1-1.1,2.9-1.1,4.1,0c1.1,1.1,1.1,2.9,0,4.1l0,0C77.5,79,75.7,79,74.5,77.8C74.5,77.9,74.5,77.9,74.5,77.8L74.5,77.8z M82,89.3
		c-1.1,1.1-2.9,1.1-4.1,0c-1.1-1.1-1.1-2.9,0-4.1c1.1-1.1,2.9-1.1,4.1,0l0,0C83.1,86.4,83.1,88.2,82,89.3C82,89.3,82,89.4,82,89.3
		L82,89.3z M82.2,70.1c-1.1-1.1-1.1-2.9,0-4.1c1.1-1.1,2.9-1.1,4.1,0c1.1,1.1,1.1,2.9,0,4.1l0,0C85.2,71.3,83.4,71.3,82.2,70.1
		C82.2,70.3,82.2,70.2,82.2,70.1L82.2,70.1z M90.1,81.2c-1.1,1.1-2.9,1.1-4.1,0c-1.1-1.1-1.1-2.9,0-4.1c1.1-1.1,2.9-1.1,4.1,0l0,0
		C91.2,78.2,91.3,80.1,90.1,81.2C90.1,81.2,90.1,81.3,90.1,81.2L90.1,81.2z M26.3,40.9c-1.1,1.1-2.9,1.1-4.1,0
		c-1.1-1.1-1.1-2.9,0-4.1c1.1-1.1,2.9-1.1,4.1,0l0,0C27.4,38,27.4,39.8,26.3,40.9C26.3,41,26.3,41,26.3,40.9L26.3,40.9z M26.5,25.8
		c-1.1,1.1-2.9,1.1-4.1,0c-1.1-1.1-1.1-2.9,0-4.1c1.1-1.1,2.9-1.1,4.1,0l0,0C27.6,22.9,27.6,24.7,26.5,25.8L26.5,25.8L26.5,25.8z
		 M63.5,78c-1.1,1.1-2.9,1.1-4.1,0c-1.1-1.1-1.1-2.9,0-4.1c1.1-1.1,2.9-1.1,4.1,0l0,0C64.6,75.1,64.6,76.9,63.5,78
		C63.5,78.1,63.5,78.1,63.5,78L63.5,78z M70.9,85.5c-1.1,1.1-2.9,1.1-4.1,0c-1.1-1.1-1.1-2.9,0-4.1c1.1-1.1,2.9-1.1,4.1,0l0,0
		C72,82.5,72.1,84.4,70.9,85.5L70.9,85.5L70.9,85.5z M71.1,70.4c-1.1,1.1-2.9,1.1-4.1,0c-1.1-1.1-1.1-2.9,0-4.1
		c1.1-1.1,2.9-1.1,4.1,0l0,0C72.3,67.4,72.3,69.3,71.1,70.4L71.1,70.4L71.1,70.4z M53.3,71.9l-25-24.8l19.4-19.4l24.9,24.9
		L53.3,71.9z M74.5,77.8c-1.1-1.1-1.1-2.9,0-4.1c1.1-1.1,2.9-1.1,4.1,0c1.1,1.1,1.1,2.9,0,4.1l0,0C77.5,79,75.7,79,74.5,77.8
		C74.5,77.9,74.5,77.9,74.5,77.8L74.5,77.8z M82,89.3c-1.1,1.1-2.9,1.1-4.1,0c-1.1-1.1-1.1-2.9,0-4.1c1.1-1.1,2.9-1.1,4.1,0l0,0
		C83.1,86.4,83.1,88.2,82,89.3C82,89.3,82,89.4,82,89.3L82,89.3z M82.2,70.1c-1.1-1.1-1.1-2.9,0-4.1c1.1-1.1,2.9-1.1,4.1,0
		c1.1,1.1,1.1,2.9,0,4.1l0,0C85.2,71.3,83.4,71.3,82.2,70.1C82.2,70.3,82.2,70.2,82.2,70.1L82.2,70.1z M90.1,81.2
		c-1.1,1.1-2.9,1.1-4.1,0c-1.1-1.1-1.1-2.9,0-4.1c1.1-1.1,2.9-1.1,4.1,0l0,0C91.2,78.2,91.3,80.1,90.1,81.2
		C90.1,81.2,90.1,81.3,90.1,81.2L90.1,81.2z"/>
	<path class="st0" d="M38.2,8.2C30.1,0,16.9,0,8.8,8.2l0,0l0,0c-8.1,8.1-8.1,21.3,0,29.4l0,0l54,53.9c8.6,7.6,21.8,6.8,29.4-1.8
		c7-7.9,7-19.7,0-27.6L38.2,8.2z M74.7,58.7c1.1-1.1,2.9-1.1,4.1,0c1.1,1.1,1.1,2.9,0,4.1c-1.1,1.1-2.9,1.1-4.1,0l0,0
		C73.6,61.6,73.6,59.8,74.7,58.7z M37.6,21.6c1.1-1.1,2.9-1.1,4.1,0c1.1,1.1,1.1,2.9,0,4.1c-1.1,1.1-2.9,1.1-4.1,0l0,0
		C36.4,24.5,36.4,22.7,37.6,21.6z M30.1,14.1c1.1-1.1,2.9-1.1,4.1,0c1.1,1.1,1.1,2.9,0,4.1c-1.1,1.1-2.9,1.1-4.1,0l0,0
		C29,17,29,15.2,30.1,14.1z M29.9,29.2c1.1-1.1,2.9-1.1,4.1,0c1.1,1.1,1.1,2.9,0,4.1c-1.1,1.1-2.9,1.1-4.1,0l0,0
		C28.8,32.2,28.8,30.3,29.9,29.2L29.9,29.2z M10.9,22.5c-1.1-1.1-1.1-2.9,0-4.1c1.1-1.1,2.9-1.1,4.1,0c1.1,1.1,1.1,2.9,0,4.1l0,0
		C13.9,23.6,12.1,23.6,10.9,22.5z M18.8,33.5c-1.1,1.1-2.9,1.1-4.1,0c-1.1-1.1-1.1-2.9,0-4.1c1.1-1.1,2.9-1.1,4.1,0l0,0
		C20,30.6,20,32.4,18.8,33.5z M19.1,14.3c-1.1-1.1-1.1-2.9,0-4.1c1.1-1.1,2.9-1.1,4.1,0c1.1,1.1,1.1,2.9,0,4.1l0,0
		C22,15.5,20.2,15.5,19.1,14.3L19.1,14.3L19.1,14.3z M38.2,8.2C30.1,0,16.9,0,8.8,8.2l0,0l0,0c-8.1,8.1-8.1,21.3,0,29.4l0,0l54,53.9
		c8.6,7.6,21.8,6.8,29.4-1.8c7-7.9,7-19.7,0-27.6L38.2,8.2z M26.3,40.9c-1.1,1.1-2.9,1.1-4.1,0c-1.1-1.1-1.1-2.9,0-4.1
		c1.1-1.1,2.9-1.1,4.1,0l0,0C27.4,38,27.4,39.8,26.3,40.9C26.3,41,26.3,41,26.3,40.9L26.3,40.9z M26.5,25.8c-1.1,1.1-2.9,1.1-4.1,0
		c-1.1-1.1-1.1-2.9,0-4.1c1.1-1.1,2.9-1.1,4.1,0l0,0C27.6,22.9,27.6,24.7,26.5,25.8L26.5,25.8L26.5,25.8z M63.5,78
		c-1.1,1.1-2.9,1.1-4.1,0c-1.1-1.1-1.1-2.9,0-4.1c1.1-1.1,2.9-1.1,4.1,0l0,0C64.6,75.1,64.6,76.9,63.5,78
		C63.5,78.1,63.5,78.1,63.5,78L63.5,78z M70.9,85.5c-1.1,1.1-2.9,1.1-4.1,0c-1.1-1.1-1.1-2.9,0-4.1c1.1-1.1,2.9-1.1,4.1,0l0,0
		C72,82.5,72.1,84.4,70.9,85.5L70.9,85.5L70.9,85.5z M71.1,70.4c-1.1,1.1-2.9,1.1-4.1,0c-1.1-1.1-1.1-2.9,0-4.1
		c1.1-1.1,2.9-1.1,4.1,0l0,0C72.3,67.4,72.3,69.3,71.1,70.4L71.1,70.4L71.1,70.4z M74.5,77.8c-1.1-1.1-1.1-2.9,0-4.1
		c1.1-1.1,2.9-1.1,4.1,0c1.1,1.1,1.1,2.9,0,4.1l0,0C77.5,79,75.7,79,74.5,77.8C74.5,77.9,74.5,77.9,74.5,77.8L74.5,77.8z M82,89.3
		c-1.1,1.1-2.9,1.1-4.1,0c-1.1-1.1-1.1-2.9,0-4.1c1.1-1.1,2.9-1.1,4.1,0l0,0C83.1,86.4,83.1,88.2,82,89.3C82,89.3,82,89.4,82,89.3
		L82,89.3z M82.2,70.1c-1.1-1.1-1.1-2.9,0-4.1c1.1-1.1,2.9-1.1,4.1,0c1.1,1.1,1.1,2.9,0,4.1l0,0C85.2,71.3,83.4,71.3,82.2,70.1
		C82.2,70.3,82.2,70.2,82.2,70.1L82.2,70.1z M90.1,81.2c-1.1,1.1-2.9,1.1-4.1,0c-1.1-1.1-1.1-2.9,0-4.1c1.1-1.1,2.9-1.1,4.1,0l0,0
		C91.2,78.2,91.3,80.1,90.1,81.2C90.1,81.2,90.1,81.3,90.1,81.2L90.1,81.2z M53.3,71.9l-25-24.8l19.4-19.4l24.9,24.9L53.3,71.9z"/>
</g>
</svg>
