<svg xmlns="http://www.w3.org/2000/svg" width="26" height="30" viewBox="0 0 26 30">
    <path fill="#032C4E" fill-rule="nonzero" d="M16.883 23.695V8.898c0-.652-.53-1.18-1.185-1.18-.654 0-1.184.528-1.184 1.18v14.797c0 .652.53 1.18 1.184 1.18.654 0 1.185-.528 1.185-1.18zm-5.397 0V8.898c0-.652-.53-1.18-1.185-1.18-.654 0-1.184.528-1.184 1.18v14.797c0 .652.53 1.18 1.184 1.18.654 0 1.185-.528 1.185-1.18zm10.7-15.978c-.654 0-1.184.529-1.184 1.181v17.871c0 .48-.39.87-.87.87H5.87a.872.872 0 0 1-.873-.87V8.898c0-.652-.53-1.18-1.184-1.18-.654 0-1.184.528-1.184 1.18v17.871A3.24 3.24 0 0 0 5.869 30h14.262c1.786 0 3.24-1.45 3.24-3.23V8.897c0-.653-.53-1.18-1.185-1.18zm2.63-3.678h-5.362V1.18c0-.652-.53-1.181-1.185-1.181H7.731c-.655 0-1.185.529-1.185 1.18V4.04H1.184C.53 4.039 0 4.567 0 5.219 0 5.873.53 6.4 1.184 6.4h23.632C25.47 6.4 26 5.872 26 5.22c0-.653-.53-1.181-1.184-1.181zm-7.73 0H8.914V2.36h8.17V4.04z"/>
</svg>
