<?xml version="1.0" encoding="utf-8"?>
<!-- Generator: Adobe Illustrator 22.1.0, SVG Export Plug-In . SVG Version: 6.00 Build 0)  -->
<svg version="1.1" id="Livello_1" xmlns="http://www.w3.org/2000/svg" xmlns:xlink="http://www.w3.org/1999/xlink" x="0px" y="0px"
	 viewBox="0 0 50 50" style="enable-background:new 0 0 50 50;" xml:space="preserve">
<style type="text/css">
	.st0{fill:#FFFFFF;}
</style>
<g>
	<path class="st0" d="M48.8,10.7c-1.8,0.8-3.7,1.3-5.6,1.5c2-1.2,3.6-3.1,4.3-5.4c-1.9,1.1-4,1.9-6.2,2.4c-2.3-2.4-5.8-3.7-9.5-2.8
		c-3.7,0.9-6.7,4-7.3,7.8c-0.2,1.4-0.2,2.7,0.1,3.9C16.3,17.8,9.1,13.9,4.3,7.9c-0.8,1.4-1.3,3.1-1.3,4.9c0,3.4,1.7,6.4,4.4,8.2
		c-1.6-0.1-3.1-0.5-4.4-1.2c0,0,0,0.1,0,0.1c0,4.8,3.4,8.7,7.9,9.6c-0.8,0.2-1.7,0.3-2.6,0.3c-0.6,0-1.2-0.1-1.8-0.2
		c1.2,3.9,4.9,6.7,9.2,6.8c-3.4,2.6-7.6,4.2-12.2,4.2c-0.8,0-1.6,0-2.3-0.1c4.3,2.8,9.5,4.4,15,4.4C34,45,43.9,30,43.9,17.1
		c0-0.4,0-0.8,0-1.3C45.8,14.4,47.5,12.7,48.8,10.7L48.8,10.7z"/>
</g>
</svg>
