<?xml version="1.0" encoding="utf-8"?>
<!-- Generator: Adobe Illustrator 22.1.0, SVG Export Plug-In . SVG Version: 6.00 Build 0)  -->
<svg version="1.1" id="Livello_1" xmlns="http://www.w3.org/2000/svg" xmlns:xlink="http://www.w3.org/1999/xlink" x="0px" y="0px"
	 viewBox="0 0 100 100" style="enable-background:new 0 0 100 100;" xml:space="preserve">
<style type="text/css">
	.st0{fill:none;stroke:#218AE5;stroke-width:1.1818;stroke-linecap:round;stroke-linejoin:round;stroke-miterlimit:10;}
</style>
<g>
	<path class="st0" d="M31.7,74.1"/>
	<path class="st0" d="M13,22.7c9-9.9,22-16.1,36.4-16.1c27.2,0,49.2,22,49.2,49.2c0,14.4-6.2,27.4-16.1,36.4l0-1.4
		c0-9.3-7.5-16.9-16.7-17C65.5,64.5,58,57,48.7,57c0-9.4-7.9-17.3-17.3-17.3c0-9.4-7.6-17-17-17L13,22.7L13,22.7z"/>
</g>
<path class="st0" d="M77,28.8L17.5,88.3C7.4,98.3-5.2,87.6,4.9,77.5"/>
<line class="st0" x1="89" y1="16.7" x2="79.7" y2="26"/>
<path class="st0" d="M49.3,25c-9.9,6.2-17.9,14.7-17.9,14.7"/>
<path class="st0" d="M84.4,21.3c0,0-15.9-5.6-28.5,0.1c-0.5,0.2-1,0.5-1.6,0.7"/>
<path class="st0" d="M84.4,21.4c0,0,5.6,15.9-0.1,28.5C78.7,62.4,66,73.7,66,73.7"/>
</svg>
