<svg xmlns="http://www.w3.org/2000/svg" viewBox="0 0 298.38 278.65"><defs><style>.cls-1{fill:none;stroke:#218ae5;stroke-miterlimit:10;}</style></defs><title>umbrella</title><g id="Livello_2" data-name="Livello 2"><g id="Come_funziona" data-name="Come funziona"><path class="cls-1" d="M143.6,11.75,143,5.62a6,6,0,0,0-11.85,1.73L132,13.8"/><path class="cls-1" d="M174.48,258c1.42,0,2.83,0,4.24.12l1.14.09L158,108.48l-11.85,1.74,21.61,148C170,258.06,172.24,258,174.48,258Z"/><path class="cls-1" d="M174.48,278.15c-8.36,0-16.73-.22-25.07-.94-3.76-.33-8.93-.73-12.57-2a13,13,0,0,1-1.57-.81l-.2-.42.16-.33h-.16A38.32,38.32,0,0,1,138,269.9c4.53-4.55,10.66-7.38,16.72-9.19A69.63,69.63,0,0,1,174.48,258c1.42,0,2.83,0,4.24.12,2.71.22,5.43.45,8.1.9,8.51,1.45,17.93,4.64,24.16,10.92a38.32,38.32,0,0,1,2.91,3.78h-.15l.15.33-.2.42a13,13,0,0,1-1.57.81c-3.63,1.24-8.81,1.64-12.57,2-7,.61-14,.77-21,.92Z"/><path class="cls-1" d="M111.25,36.22A187,187,0,0,0,93.09,69.84c-5,12.4-9.71,25.16-11,38.58l.11.28a6.7,6.7,0,0,0,.2,1.87c.39,3.58,4.45,6.08,9.09,5.58l29-3.13c4.63-.5,8.07-3.81,7.68-7.39L128,105s-.39-4.17-.4-4.67-.08-1-.12-1.55c-.11-3.65-.33-7.29-.32-11,0-11.33.38-16.79.91-27.37A249.7,249.7,0,0,1,132,27.08a72.89,72.89,0,0,1,2.47-9.61c.43-1.2,1.59-4.79,3.43-5.06-4.36.64-8.35,3.48-11.6,6.25C120.46,23.67,115.6,29.9,111.25,36.22Z"/><path class="cls-1" d="M219.36,91.11l-.48-2.67-.32-1.08c-1.8-3.46-3.44-7-5.4-10.4a154.13,154.13,0,0,0-9.75-14.56,189.21,189.21,0,0,0-33.1-34.81c-6-4.8-12.41-9.39-19.46-12.5-3.92-1.74-8.55-3.32-12.92-2.68,1.86-.27,4,2.84,4.74,3.87a71.7,71.7,0,0,1,5.11,8.5c7.64,14.49,14.08,31.91,19,47.35C169.12,79,171,86,172.75,93c.25,1,.58.76.81,2.09.15.81.26,1.61.37,2.42l.1,0,.36,2c.68,3.72,4.92,6.06,9.47,5.2l28.48-5.31C216.9,98.54,220,94.84,219.36,91.11Z"/><path class="cls-1" d="M39.28,109.25,39,111.49a6.83,6.83,0,0,1-7.46,6.13L7.21,116.05a7.27,7.27,0,0,1-5-2.45,6.56,6.56,0,0,1-1.34-2.44,12.62,12.62,0,0,1-.07-5.47A35,35,0,0,1,2,100.24a30.31,30.31,0,0,1,3.43-7.17A80.94,80.94,0,0,1,15.9,80.64c.47-.48.94-1,1.42-1.43A218.22,218.22,0,0,1,44.71,56.57,332.46,332.46,0,0,1,90.14,29.33c14.68-7.28,31.44-14.53,47.79-16.92s34.5-.23,50.64,2.55a321.86,321.86,0,0,1,63.18,17.47C261.88,36.42,272,41,281.13,47a51.78,51.78,0,0,1,11.72,9.8,33.12,33.12,0,0,1,1.91,2.91c.12.17.32.27.42.45a43.76,43.76,0,0,1,2.3,5.94,7.1,7.1,0,0,1-4.29,9L270.3,83.68a6.86,6.86,0,0,1-9-3.94l-.88-2.45"/><path class="cls-1" d="M127.92,104.34s-.29-3.5-.3-4-.08-1-.12-1.55c-.11-3.65-.33-7.29-.32-11,0-11.33.38-16.79.91-27.37A249.7,249.7,0,0,1,132,27.08a72.89,72.89,0,0,1,2.47-9.61c.43-1.2,1.58-4.78,3.43-5.06-6.6,1-13,3.7-18.82,6.76A151.45,151.45,0,0,0,93.69,36.39,221.5,221.5,0,0,0,61.82,68.3c-8.19,10.09-16,21.21-20.53,33.5-1.21,3.26-2.32,6.78-2.09,10.32a7.75,7.75,0,0,0,8.31,7.15l27.2-1.57a7.76,7.76,0,0,0,7.44-8.06l-.08-1.26"/><path class="cls-1" d="M219.37,90.53a7.9,7.9,0,0,0,9.53,6l26.65-6.42a8.07,8.07,0,0,0,5.89-9.69,25.65,25.65,0,0,0-1.35-3.83c-3.2-5.07-1.83-3.07-4-6.12C248.25,60,237.6,51.53,226.86,44.2A221.4,221.4,0,0,0,187.2,22.74a151.84,151.84,0,0,0-29.28-9.24c-6.5-1.25-13.37-2.05-20-1.09,1.85-.26,4,2.84,4.73,3.87a71.7,71.7,0,0,1,5.11,8.5c7.64,14.49,14.08,31.91,19,47.35C169.12,79,171,86,172.75,93c.25,1,.58.76.81,2.09.15.82.27,1.64.38,2.46"/><path class="cls-1" d="M111.25,36.22A187,187,0,0,0,93.09,69.84c-5,12.4-9.71,25.16-11,38.58l.22,0-.11.3a6.7,6.7,0,0,0,.2,1.87c.39,3.58,4.45,6.08,9.09,5.58l29-3.13c4.63-.5,8.07-3.81,7.68-7.39L128,105s-.39-4.17-.4-4.67-.08-1-.12-1.55c-.11-3.65-.33-7.29-.32-11,0-11.33.38-16.79.91-27.37A249.7,249.7,0,0,1,132,27.08a72.89,72.89,0,0,1,2.47-9.61c.43-1.2,1.59-4.79,3.43-5.06-4.36.64-8.35,3.48-11.6,6.25C120.46,23.67,115.6,29.9,111.25,36.22Z"/><path class="cls-1" d="M219.36,91.11l-.08-1-.72-2.8c-1.8-3.46-3.44-7-5.4-10.4a154.13,154.13,0,0,0-9.75-14.56,189.21,189.21,0,0,0-33.1-34.81c-6-4.8-12.41-9.39-19.46-12.5-3.92-1.74-8.55-3.32-12.92-2.68,1.86-.27,4,2.84,4.74,3.87a71.7,71.7,0,0,1,5.11,8.5c7.64,14.49,14.08,31.91,19,47.35,1,3.27,2.09,6.54,3,9.84.55,2,1.14,4,1.68,6,.58,2.15,1.2,4.29,1.75,6.45s.84,4.32,1.57,6.38a5.54,5.54,0,0,0,2.1,2.59,9.09,9.09,0,0,0,6.94,1.36l28.48-5.31C216.9,98.54,220,94.84,219.36,91.11Z"/><path class="cls-1" d="M111.25,36.22A187,187,0,0,0,93.09,69.84c-5,12.4-9.52,25.31-10.85,38.73,0,0,.06,1.37.12,2,.39,3.58,4.45,6.08,9.09,5.58l29-3.13c4.63-.5,8.07-3.81,7.68-7.39L128,105s-.39-4.17-.4-4.67-.08-1-.12-1.55c-.11-3.65-.33-7.29-.32-11,0-11.33.38-16.79.91-27.37A249.7,249.7,0,0,1,132,27.08a72.89,72.89,0,0,1,2.47-9.61c.43-1.2,1.59-4.79,3.43-5.06-4.36.64-8.35,3.48-11.6,6.25C120.46,23.67,115.6,29.9,111.25,36.22Z"/><path class="cls-1" d="M219.43,91.11A13.65,13.65,0,0,0,218,86.23c-.31-.63-.61-1.27-.92-1.9-.78-1.57-1.57-3.13-2.39-4.67l-.2-.37c-.42-.78-.85-1.56-1.29-2.33a154.13,154.13,0,0,0-9.75-14.56,189.21,189.21,0,0,0-33.1-34.81c-6-4.8-12.41-9.39-19.46-12.5-3.92-1.74-8.55-3.32-12.92-2.68,1.86-.27,4,2.84,4.74,3.87a71.7,71.7,0,0,1,5.11,8.5c7.64,14.49,14.08,31.91,19,47.35,1.06,3.3,2.13,6.6,3.1,9.93.87,2.94,1.65,5.91,2.41,8.87s1.51,5.68,2.08,8.57c.68,3.72,4.92,6.06,9.47,5.2l28.48-5.31a9.17,9.17,0,0,0,6.16-4,6.3,6.3,0,0,0,.94-2.85A9.74,9.74,0,0,0,219.43,91.11Z"/><path class="cls-1" d="M111.25,36.22A187,187,0,0,0,93.09,69.84c-5,12.4-9.71,25.16-11,38.58,0,0,.12,1.57.19,2.19.39,3.58,4.57,6,9.21,5.54l29-3.13c4.63-.5,8.07-3.81,7.68-7.39L128,105c-.09-.85-.85-13.18-.84-17.17,0-11.33.38-16.79.91-27.37A249.7,249.7,0,0,1,132,27.08a72.89,72.89,0,0,1,2.47-9.61c.43-1.2,1.59-4.79,3.43-5.06-4.36.64-8.35,3.48-11.6,6.25C120.46,23.67,115.6,29.9,111.25,36.22Z"/><path class="cls-1" d="M219.36,91.11a13.47,13.47,0,0,0-.76-3.68c-.5-1.06-1.25-2.45-1.78-3.5-.76-1.53-1.52-3.05-2.32-4.56-.44-.81-.88-1.61-1.34-2.41a154.13,154.13,0,0,0-9.75-14.56,189.21,189.21,0,0,0-33.1-34.81c-6-4.8-12.41-9.39-19.46-12.5-3.92-1.74-8.55-3.32-12.92-2.68,1.86-.27,4,2.84,4.74,3.87a71.7,71.7,0,0,1,5.11,8.5c7.64,14.49,14.08,31.91,19,47.35,1.06,3.31,2.11,6.63,3.08,10,.81,2.78,1.41,5.61,2.18,8.4.53,1.92,1.07,3.83,1.6,5.74a6.84,6.84,0,0,1,.4,1.57c.51,2,1,4.15,2.78,5.47a9.08,9.08,0,0,0,7,1.42l28.48-5.31C216.9,98.54,220,94.84,219.36,91.11Z"/><path class="cls-1" d="M137.57,111.47c-4.65.68-8.84-1.59-9.35-5.06,0,0-.68-7.1-.72-7.62-.11-3.65-.33-7.29-.32-11,0-11.33.38-16.79.91-27.37A249.7,249.7,0,0,1,132,27.08a72.89,72.89,0,0,1,2.47-9.61c.43-1.2,1.59-4.79,3.43-5.06s4,2.84,4.74,3.87a71.7,71.7,0,0,1,5.11,8.5c7.64,14.49,14.08,31.91,19,47.35,1.06,3.31,2.07,6.65,3,10,.71,2.51,1.17,5.08,1.95,7.56a48.41,48.41,0,0,1,1.67,5.75c.38,1.8,1,3.76.79,5.61-.32,2.34-2.2,4.15-4.23,5.16a10.83,10.83,0,0,1-3.29,1Z"/><path class="cls-1" d="M174.48,278.15c-8.36,0-16.73-.22-25.07-.94-3.76-.33-8.93-.73-12.57-2a13,13,0,0,1-1.57-.81l-.2-.42.16-.33h-.16A38.32,38.32,0,0,1,138,269.9c4.53-4.55,10.66-7.38,16.72-9.19A69.63,69.63,0,0,1,174.48,258c1.42,0,2.83,0,4.24.12,2.71.22,5.43.45,8.1.9,8.51,1.45,17.93,4.64,24.16,10.92a38.32,38.32,0,0,1,2.91,3.78h-.15l.15.33-.2.42a13,13,0,0,1-1.57.81c-3.63,1.24-8.81,1.64-12.57,2-7,.61-14,.77-21,.92Z"/></g></g></svg>