<?xml version="1.0" encoding="UTF-8"?>
<svg width="32px" height="24px" viewBox="0 0 32 24" version="1.1" xmlns="http://www.w3.org/2000/svg" xmlns:xlink="http://www.w3.org/1999/xlink">
    <!-- Generator: Sketch 63.1 (92452) - https://sketch.com -->
    <title>Foundation/Iconography/32x24/Unlogged</title>
    <desc>Created with Sketch.</desc>
    <defs>
        <path d="M16,13.5714286 C12.32875,13.5714286 5,15.3763265 5,18.9591837 L5,23 L27,23 L27,18.9591837 C27,15.3763265 19.67125,13.5714286 16,13.5714286 M16,1 C12.7007857,1 10.0285714,3.67221429 10.0285714,6.97142857 C10.0285714,10.2706429 12.7007857,12.9428571 16,12.9428571 C19.2992143,12.9428571 21.9714286,10.2706429 21.9714286,6.97142857 C21.9714286,3.67221429 19.2992143,1 16,1 M25.1217358,18.7980917 L25.1217358,21.3554709 L6.87634098,21.3554709 L6.87634098,18.7980917 C6.87634098,17.8534018 11.8684309,15.698328 16,15.698328 C20.1315691,15.698328 25.1217358,17.8534018 25.1217358,18.7980917 Z M16,2.88571429 C18.2568707,2.88571429 20.0857143,4.71455782 20.0857143,6.97142857 C20.0857143,9.22829932 18.2568707,11.0571429 16,11.0571429 C13.7431293,11.0571429 11.9142857,9.22829932 11.9142857,6.97142857 C11.9142857,4.71455782 13.7431293,2.88571429 16,2.88571429" id="path-1"></path>
    </defs>
    <g id="Foundation/Iconography/32x24/Unlogged" stroke="none" stroke-width="1" fill="none" fill-rule="evenodd">
        <mask id="mask-2" fill="white">
            <use xlink:href="#path-1"></use>
        </mask>
        <use id="icon" fill="#000000" xlink:href="#path-1"></use>
    </g>
</svg>