<svg xmlns="http://www.w3.org/2000/svg" viewBox="0 0 189.39 105.25"><defs><style>.cls-1{fill:#fff;}.cls-2{fill:#218ae5;}.cls-3,.cls-4{fill:none;stroke:#218ae5;stroke-linecap:round;stroke-linejoin:round;}.cls-4{stroke-dasharray:2.07 4.14;}</style></defs><title>Risorsa 4</title><g id="Livello_2" data-name="Livello 2"><g id="Livello_1-2" data-name="Livello 1"><path class="cls-1" d="M165.71,104.75a.5.5,0,0,1-.5-.5.51.51,0,0,1,.15-.35.47.47,0,0,1,.35-.15h1.11a.51.51,0,0,1,.5.5.5.5,0,0,1-.5.5Z"/><path class="cls-2" d="M165.71,104.25h0m0-1a1,1,0,0,0-1,1h0a1,1,0,0,0,1,1h1.11a1,1,0,0,0,0-2Z"/><path class="cls-1" d="M166.82,104.75a.5.5,0,0,1-.35-.14.55.55,0,0,1-.15-.36V99.79a.48.48,0,0,1,.1-.29L167.84,88a1.11,1.11,0,0,1-.87-1.23,1.13,1.13,0,0,1,1.12-1h.13l.45,0,.79-6.46a1.05,1.05,0,0,1-.57-.38,1,1,0,0,1-.22-.79,1.08,1.08,0,0,1,1.06-1l.79-6.46a1.06,1.06,0,0,1-.58-.37,1.13,1.13,0,0,1-.22-.79,1.1,1.1,0,0,1,1.06-1l.8-6.46a1.09,1.09,0,0,1,.26-2.14l.79-6.46a1.08,1.08,0,0,1-.58-.38,1,1,0,0,1-.21-.79,1.08,1.08,0,0,1,1.06-1H173l1.06.13.64-5.23a1,1,0,0,1-.46-.32,1,1,0,0,1-.2-.72,1,1,0,0,1,1-.88h.11L187.58,46a1,1,0,0,1,.85,1.09,1,1,0,0,1-.89.88l-.65,5.22,1.06.13a1.08,1.08,0,0,1,.71.41,1.06,1.06,0,0,1,.22.79,1.09,1.09,0,0,1-1.06,1L187,61.9a1,1,0,0,1,.57.38,1,1,0,0,1,.22.79,1.08,1.08,0,0,1-1,1l-.8,6.47a1.09,1.09,0,0,1-.26,2.14l-.79,6.45a1.05,1.05,0,0,1,.57.38,1,1,0,0,1,.22.79,1.07,1.07,0,0,1-1.06,1l-.79,6.47.45.05a1.14,1.14,0,0,1-.14,2.26h0L183,99.29h.72a.5.5,0,0,1,.5.5v4.46a.5.5,0,0,1-.5.5ZM170.59,90a.45.45,0,0,0-.44.39L169,100h.9L171,90.46a.46.46,0,0,0-.39-.5Zm9.74,10,1-8.21a.44.44,0,0,0-.39-.5h-.05a.45.45,0,0,0-.45.4l-1,8.32Zm-3.49,0,1.06-8.63a.43.43,0,0,0-.09-.33.4.4,0,0,0-.3-.17h0a.45.45,0,0,0-.45.4l-1.07,8.74Zm-3.48,0,1.11-9.06a.45.45,0,0,0-.39-.5H174a.45.45,0,0,0-.44.39l-1.13,9.17Zm8.77-12.46.62-5a.34.34,0,0,0-.29-.37h0a.32.32,0,0,0-.32.29l-.62,5Zm-2.77-.34.62-5a.32.32,0,0,0-.07-.25.35.35,0,0,0-.21-.12h0a.32.32,0,0,0-.32.29l-.62,5Zm-2.77-.34.62-5a.33.33,0,0,0-.28-.37h-.05a.32.32,0,0,0-.32.29l-.62,5Zm-2.77-.34.62-5a.36.36,0,0,0-.06-.25.4.4,0,0,0-.22-.12h0a.33.33,0,0,0-.33.29l-.62,5Zm-2.77-.34.62-5a.36.36,0,0,0-.06-.25.4.4,0,0,0-.22-.12h0A.33.33,0,0,0,171,81l-.62,5Zm12.14-7.23.62-5a.33.33,0,0,0-.29-.36h0a.33.33,0,0,0-.33.29l-.62,5Zm-2.77-.34.62-5a.36.36,0,0,0-.07-.24.3.3,0,0,0-.22-.12h0a.33.33,0,0,0-.33.29l-.62,5Zm-2.77-.34.62-5a.36.36,0,0,0-.07-.24.3.3,0,0,0-.22-.12h0a.33.33,0,0,0-.33.29l-.62,5Zm-2.77-.34.62-5.05a.36.36,0,0,0-.07-.24.3.3,0,0,0-.22-.12h0a.33.33,0,0,0-.32.29l-.62,5.05Zm-2.77-.34.62-5a.36.36,0,0,0-.07-.24.3.3,0,0,0-.22-.12h0a.33.33,0,0,0-.32.29l-.62,5Zm12.13-7.25.62-5a.36.36,0,0,0-.06-.25.35.35,0,0,0-.22-.12h0a.33.33,0,0,0-.33.29l-.62,5Zm-2.77-.34.62-5a.36.36,0,0,0-.06-.25.35.35,0,0,0-.22-.12h0a.33.33,0,0,0-.33.29l-.62,5Zm-2.77-.34.62-5a.32.32,0,0,0-.28-.37h0a.33.33,0,0,0-.33.29l-.62,5Zm-2.77-.34.62-5a.32.32,0,0,0-.06-.25.32.32,0,0,0-.22-.12h0a.33.33,0,0,0-.33.29l-.62,5Zm-2.77-.34.62-5a.32.32,0,0,0-.28-.37h0a.33.33,0,0,0-.33.29l-.62,5Zm12.14-7.23.62-5a.34.34,0,0,0-.07-.24.3.3,0,0,0-.22-.12h0a.33.33,0,0,0-.32.29l-.62,5Zm-2.77-.34.62-5.05a.33.33,0,0,0-.29-.36h0a.33.33,0,0,0-.32.29l-.62,5.05ZM179.76,61l.62-5a.3.3,0,0,0-.07-.24.3.3,0,0,0-.22-.12h0a.33.33,0,0,0-.32.29l-.62,5ZM177,60.67l.62-5.05a.34.34,0,0,0-.29-.37h0a.33.33,0,0,0-.32.29l-.62,5.05Zm-2.77-.34.62-5a.3.3,0,0,0-.07-.24.3.3,0,0,0-.22-.12h0a.33.33,0,0,0-.32.29l-.62,5Zm10.32-7.48.4-3.21a.3.3,0,0,0-.25-.31l-.15,0a.29.29,0,0,0-.28.25l-.39,3.21Zm-3.71-.45.39-3.21a.29.29,0,0,0-.25-.32l-.14,0a.29.29,0,0,0-.28.25l-.4,3.22Zm-3.72-.46.4-3.21a.27.27,0,0,0-.06-.21.29.29,0,0,0-.19-.11h-.14a.29.29,0,0,0-.29.25l-.39,3.21Z"/><path class="cls-2" d="M175.05,44.93h0l12.41,1.53a.47.47,0,0,1,.42.53v0a.49.49,0,0,1-.48.42h0l-.3,0-.76,6.19h-.08l1.62.2a.56.56,0,0,1,.5.63v0a.57.57,0,0,1-.57.5h-.07l-.36,0-.91,7.43.36,0a.58.58,0,0,1,.5.64v0a.56.56,0,0,1-.56.5h-.07l-.36,0-.91,7.44h0l.38,0a.57.57,0,0,1,.5.64v0a.58.58,0,0,1-.57.5h-.07l-.36,0-.91,7.43.36,0a.59.59,0,0,1,.5.64v0a.56.56,0,0,1-.56.5h-.08l-.35,0-.92,7.43h0l1,.12a.62.62,0,0,1,.53.68v0a.62.62,0,0,1-.61.54h-.08l-.4.07-1.25,10.21h1.28v4.46h-16.9V99.79h.07l1.49-12.15-.38-.1a.62.62,0,0,1-.54-.69v0a.61.61,0,0,1,.61-.54h.07l1,.13-.07,0L170,79l-.36,0a.59.59,0,0,1-.5-.64v0a.56.56,0,0,1,.56-.5h.08l.35.05.92-7.43-.36,0a.56.56,0,0,1-.5-.63v0a.59.59,0,0,1,.57-.51h.07l.39,0h0l.91-7.44-.36,0a.57.57,0,0,1-.49-.64v0a.57.57,0,0,1,.57-.5h.07l.36,0,.91-7.42-.36,0a.57.57,0,0,1-.5-.64v0a.56.56,0,0,1,.56-.5H173l1.64.2-.09,0,.76-6.19-.3,0a.47.47,0,0,1-.41-.53v0a.49.49,0,0,1,.48-.42m2.5,7.57.45-3.71a.77.77,0,0,0-.68-.87l-.11,0h-.09a.79.79,0,0,0-.78.69l-.46,3.71,1.67.2m3.71.46.46-3.71a.79.79,0,0,0-.68-.88h-.21a.8.8,0,0,0-.78.69l-.45,3.71,1.66.21m3.72.45.45-3.71a.78.78,0,0,0-.68-.87h-.21a.78.78,0,0,0-.77.69l-.46,3.71,1.67.2m-10.32,7.48.68-5.55a.83.83,0,0,0-.73-.92h-.1a.83.83,0,0,0-.82.73L173,60.68l1.65.21m2.77.34.68-5.55a.83.83,0,0,0-.73-.92h-.1a.83.83,0,0,0-.82.73L175.78,61l1.65.21m2.76.34.69-5.55a.83.83,0,0,0-.73-.92h-.1a.83.83,0,0,0-.82.73l-.68,5.54,1.64.21m2.77.34.68-5.55a.82.82,0,0,0-.72-.92h-.1a.83.83,0,0,0-.82.73l-.68,5.54,1.64.21m2.77.34.68-5.55a.82.82,0,0,0-.72-.92h-.1a.83.83,0,0,0-.82.73L184.09,62l1.64.21M173.6,69.48l.68-5.54a.83.83,0,0,0-.72-.93h-.1a.83.83,0,0,0-.82.72L172,69.28l1.64.2m2.77.34.68-5.54a.83.83,0,0,0-.72-.93h-.1a.82.82,0,0,0-.82.72l-.68,5.55,1.64.2m2.77.34.68-5.54a.83.83,0,0,0-.72-.93H179a.82.82,0,0,0-.82.72L177.49,70l1.65.2m2.77.34.68-5.54a.83.83,0,0,0-.72-.93h-.1a.84.84,0,0,0-.83.72l-.68,5.55,1.65.2m2.77.34.68-5.54a.83.83,0,0,0-.72-.93h-.1a.84.84,0,0,0-.83.72L183,70.64l1.65.2m-12.14,7.25.68-5.55a.82.82,0,0,0-.72-.92h-.1a.83.83,0,0,0-.82.73l-.68,5.54,1.64.21m2.77.34.68-5.55a.82.82,0,0,0-.72-.92h-.1a.83.83,0,0,0-.82.73l-.68,5.54,1.64.21m2.77.34.68-5.55a.82.82,0,0,0-.72-.92h-.1a.83.83,0,0,0-.82.73l-.68,5.54,1.64.21m2.77.34.68-5.55a.82.82,0,0,0-.72-.92h-.1a.83.83,0,0,0-.82.73l-.68,5.55,1.64.2m2.77.34.68-5.55a.82.82,0,0,0-.72-.92h-.1a.83.83,0,0,0-.82.73L182,79.24l1.64.21m-12.13,7.23.68-5.54a.84.84,0,0,0-.72-.93h-.1a.84.84,0,0,0-.83.73l-.68,5.54,1.65.2m2.77.34.68-5.54a.84.84,0,0,0-.72-.93h-.11a.84.84,0,0,0-.82.73l-.68,5.54,1.65.2m2.77.34.68-5.54a.84.84,0,0,0-.72-.93h-.11a.83.83,0,0,0-.82.73l-.68,5.54,1.65.2m2.77.34.68-5.54a.84.84,0,0,0-.72-.93h-.11a.83.83,0,0,0-.82.73l-.68,5.54,1.65.2m2.77.34.68-5.54a.84.84,0,0,0-.72-.93h-.11a.83.83,0,0,0-.82.73l-.68,5.54,1.65.2m-14,12.4h1.74l1.21-9.92a.93.93,0,0,0-.82-1h-.12a1,1,0,0,0-.94.83l-1.24,10.13.17,0m3.31,0h1.91l1.17-9.5a1,1,0,0,0-.83-1H174a1,1,0,0,0-.94.83l-1.19,9.73m3.48,0h1.91l1.12-9.07a1,1,0,0,0-.83-1.06h-.11a.93.93,0,0,0-.94.83l-1.15,9.31m3.49,0h1.91l1.06-8.65a1,1,0,0,0-.83-1.06h-.11a1,1,0,0,0-.94.84l-1.09,8.88m-3.81-56.51h0a1.49,1.49,0,0,0-.86,2.7L173.65,51l-.56-.07h-.19a1.59,1.59,0,0,0-1.24,2.57,1.4,1.4,0,0,0,.43.38l-.7,5.71a1.61,1.61,0,0,0-.78,2.51,1.69,1.69,0,0,0,.42.38l-.7,5.72a1.58,1.58,0,0,0-1.1,1.31,1.59,1.59,0,0,0,.32,1.19,1.3,1.3,0,0,0,.43.38l-.7,5.72a1.55,1.55,0,0,0-1.1,1.31,1.6,1.6,0,0,0,.74,1.57l-.69,5.59h-.14a1.62,1.62,0,0,0-1.61,1.42,1.65,1.65,0,0,0,.82,1.64l-1.35,11a.9.9,0,0,0-.12.46v4.46a1,1,0,0,0,.29.71,1,1,0,0,0,.71.29h16.9a1,1,0,0,0,1-1V99.79a1,1,0,0,0-1-1h-.15l1-8.33a1.64,1.64,0,0,0-.17-3.19l.68-5.6a1.55,1.55,0,0,0,1.1-1.31,1.61,1.61,0,0,0-.74-1.57l.7-5.71a1.59,1.59,0,0,0,.35-2.88l.71-5.73a1.56,1.56,0,0,0,1.1-1.31A1.59,1.59,0,0,0,188,62a1.73,1.73,0,0,0-.43-.38l.7-5.71a1.58,1.58,0,0,0,1.1-1.31A1.57,1.57,0,0,0,188,52.79l-.56-.07.54-4.39a1.48,1.48,0,0,0,.93-1.2,1.5,1.5,0,0,0-.3-1.11,1.47,1.47,0,0,0-1-.56l-12.41-1.52Z"/><path class="cls-1" d="M32.82,95l-1.46-.22a.5.5,0,0,1-.43-.49v-.78a.51.51,0,0,1,.13-.33,19.89,19.89,0,0,1,2-1.93.52.52,0,0,1,.32-.11.57.57,0,0,1,.18,0,.49.49,0,0,1,.31.4l0,.19a.45.45,0,0,1,0,.23,10.34,10.34,0,0,0-.48,2.55.52.52,0,0,1-.19.36.51.51,0,0,1-.31.11Z"/><path class="cls-2" d="M33.38,91.6l0,.19a11.28,11.28,0,0,0-.51,2.68l-1.47-.22v-.78a19.8,19.8,0,0,1,2-1.87m0-1a1,1,0,0,0-.64.23,20.39,20.39,0,0,0-2.05,2,1,1,0,0,0-.26.68v.77a1,1,0,0,0,.85,1l1.47.23h.15a1,1,0,0,0,1-1,10,10,0,0,1,.46-2.42,1,1,0,0,0,0-.45l0-.19a1,1,0,0,0-.63-.79.92.92,0,0,0-.36-.07Z"/><path class="cls-1" d="M9.33,104.74a.51.51,0,0,1-.5-.5L8.77,81.78h-3a.51.51,0,0,1-.5-.5V79.1a.5.5,0,0,1,.5-.5H7.91V78a.5.5,0,0,1,.5-.5h.36V76H4.56a.51.51,0,0,1-.5-.5V75H3a.51.51,0,0,1-.47-.32l-2-5.07A.5.5,0,0,1,.72,69,.54.54,0,0,1,1,69a.48.48,0,0,1,.34.13c1.12,1,8,2,18.38,2.49.64,0,1.29,0,1.93,0s1.42,0,2.13-.06C34.17,71,41,70,42.15,69a.48.48,0,0,1,.62,0,.51.51,0,0,1,.19.59l-2,5.08a.49.49,0,0,1-.46.32H39.46v.47a.5.5,0,0,1-.5.5h-4.2v1.53h.36a.51.51,0,0,1,.5.5v.59h2.14a.51.51,0,0,1,.5.5V81.2a.5.5,0,0,1-.5.5h-3v5.52a.48.48,0,0,1-.17.37.46.46,0,0,1-.33.13h-.06l-.91-.09.42,3a.5.5,0,0,1-.49.57l-.14,0a16.84,16.84,0,0,0-1.77-.39.5.5,0,0,1-.42-.49l0-8.57-18.25,0,.06,22.46a.51.51,0,0,1-.5.5ZM13,77.5a.5.5,0,0,1,.5.5v.58l16.53,0V78a.47.47,0,0,1,.15-.35.51.51,0,0,1,.35-.15h.36V75.92L12.64,76V77.5Z"/><path class="cls-2" d="M42.49,69.35l-2,5.08H39v1h-4.7v2.53h.86V79h2.64V81.2h-3.5v6a13.16,13.16,0,0,0-1.55-.1l.51,3.56a18,18,0,0,0-1.83-.41l0-9.06-19.25,0,.06,23H9.33l-.06-23H5.77V79.1H8.41V78h.86V75.48H4.56v-1H3L1,69.46c1.69,1.59,12.66,2.33,18.7,2.62.65,0,1.3,0,1.95,0s1.44,0,2.16-.06c6-.33,17-1.12,18.68-2.72M12.14,78H13v1.08l17.52,0V78h.86V75.42l-19.24,0V78m30.35-9.65a1,1,0,0,0-.69.28c-.27.26-2.43,1.6-18,2.44-.69,0-1.4.06-2.1.06s-1.27,0-1.9,0C4.13,70.32,2,69,1.68,68.73A1,1,0,0,0,1,68.46a1,1,0,0,0-.56.17,1,1,0,0,0-.37,1.2l2,5.06a1,1,0,0,0,.93.64h.56a1,1,0,0,0,.29.67,1.05,1.05,0,0,0,.71.29h3.7V77a1,1,0,0,0-.56.28,1,1,0,0,0-.3.71v.09H5.77a1,1,0,0,0-.71.3,1,1,0,0,0-.29.7v2.19a1,1,0,0,0,1,1H8.28l.05,22a1,1,0,0,0,1,1h2.88a1,1,0,0,0,.71-.29,1,1,0,0,0,.29-.71l-.06-22,17.25,0,0,8.07a1,1,0,0,0,.84,1,16.45,16.45,0,0,1,1.72.38.84.84,0,0,0,.27,0,1,1,0,0,0,.66-.25,1,1,0,0,0,.33-.89l-.34-2.36.27,0h.12a1,1,0,0,0,1-1v-5h2.5a1,1,0,0,0,1-1V79a1,1,0,0,0-.29-.71,1,1,0,0,0-.71-.29H36.13v-.09a1,1,0,0,0-.29-.71,1.06,1.06,0,0,0-.57-.28v-.54H39a1,1,0,0,0,1-1h.56a1,1,0,0,0,.93-.64l2-5.08a1,1,0,0,0-.37-1.19,1,1,0,0,0-.56-.17Zm0,2h0ZM13.14,76.47l17.25,0V77a1,1,0,0,0-.57.29,1,1,0,0,0-.29.71V78L14,78.08V78a1,1,0,0,0-.86-1v-.54Z"/><path class="cls-1" d="M65,95.4a.54.54,0,0,1-.28-.08.5.5,0,0,1-.25-.4v0a.5.5,0,0,1,.5-.5.53.53,0,0,1,.52.41.48.48,0,0,1-.27.56A.78.78,0,0,1,65,95.4Z"/><path class="cls-2" d="M65,94.89h0m0,0-.06,0v0H65m0-1h-.07a1,1,0,0,0,0,2,1,1,0,0,0,.35-.06h0a1,1,0,0,0,.67-1,1,1,0,0,0-1-1Zm0,2h0Z"/><path class="cls-1" d="M80.49,104.74a.47.47,0,0,1-.35-.15.51.51,0,0,1-.15-.35V103h-.76a.55.55,0,0,1-.34-.13l-2.3-2.1H74.87a.5.5,0,0,1-.5-.5V99.14l-2.83-1.49a.5.5,0,0,1-.27-.45v-.86A.51.51,0,0,1,71.4,96l1.35-1.47a.57.57,0,0,1,.36-.16v0a.53.53,0,0,1,.13-.34l.32-.34a.46.46,0,0,1-.3-.15.49.49,0,0,1-.35.15l-.77,0h0a.55.55,0,0,1-.33-.12.48.48,0,0,1-.33.17l-.77.1h-.07a.51.51,0,0,1-.3-.1A.52.52,0,0,1,70,94l-.78.16h-.1a.53.53,0,0,1-.3-.09.47.47,0,0,1-.32.24l-.74.2-.13,0a.54.54,0,0,1-.3-.1.51.51,0,0,1-.2-.4l0-16V77.8a1.52,1.52,0,0,1-.55-.75,2.11,2.11,0,0,1-.07-.54h-.23a.53.53,0,0,1-.36-.17.49.49,0,0,1-.12-.37l.54-7.18a31.36,31.36,0,0,0-3.45-1.19h-.2a15.93,15.93,0,0,0-1.74.19,14.28,14.28,0,0,1-1.74.2,1.2,1.2,0,0,1-.55-.1,25.88,25.88,0,0,1-3.1-4.19l-.63-.07a9.29,9.29,0,0,1-1.51.13h-.12c-.21,0-.77-.12-1.84-.34l-.64-.12a.73.73,0,0,1-.49-.28h0a.64.64,0,0,1-.5-.33.69.69,0,0,1-.52-.61.6.6,0,0,1,.16-.48.79.79,0,0,1,.41-.24h0a.92.92,0,0,1,.64-.28l.58,0a.28.28,0,0,1,0-.09.58.58,0,0,1,.59-.49l.16,0h1.06a4.17,4.17,0,0,1,.84.11,3.79,3.79,0,0,1,1.3.56h.62l.14,0a7.72,7.72,0,0,0,1.69.1c1.73,0,4-.14,4.5-.18a10.39,10.39,0,0,0,1.64-.4l1.85-.54,1-.29a11.11,11.11,0,0,1,2.41-.11h.41a4.72,4.72,0,0,0,.42-2.05c-.13-3.53,2-4.17,2.75-4.28a.37.37,0,0,1,.18,0h.17l.18,0,.26.05c.79.19,2.61,1,2.5,4.27a3.94,3.94,0,0,0,.47,2h.48a10.2,10.2,0,0,1,2.29.11l1,.28c1,.3,3.12.91,3.5.94s2.7.17,4.44.17c.49,0,.93,0,1.28,0a3.19,3.19,0,0,0,.47-.07.34.34,0,0,1,.14,0h.63a3.59,3.59,0,0,1,1.29-.57,4.66,4.66,0,0,1,1.11-.12h.71l.24,0a.59.59,0,0,1,.6.53v0L95,61a1,1,0,0,1,.65.29h0a.77.77,0,0,1,.42.23.61.61,0,0,1,.15.48.7.7,0,0,1-.52.62.65.65,0,0,1-.5.33h0a.66.66,0,0,1-.48.28l-.64.13c-1.08.22-1.63.33-1.85.34H92a9.12,9.12,0,0,1-1.5-.13l-.63.08a26.1,26.1,0,0,1-3.09,4.19,1.22,1.22,0,0,1-.56.1,13.65,13.65,0,0,1-1.73-.19,15.93,15.93,0,0,0-1.74-.19h-.2a23.83,23.83,0,0,0-3,1l0,15.46a1.21,1.21,0,0,1-.69.94v9.39H81.3a.48.48,0,0,1,.5.5v1.43a.5.5,0,0,1-.41.49v5.51a.59.59,0,0,1,.27.14.5.5,0,0,1,.14.35v1.44a.5.5,0,0,1-.5.5Z"/><path class="cls-2" d="M72.62,53.84h.17l.32.06c.78.19,2.22.91,2.12,3.76,0,0,.07,2.51.93,2.53h.51a16.34,16.34,0,0,1,2.18.09c.46.11,4,1.2,4.58,1.24.41,0,2.71.17,4.47.17.5,0,1,0,1.32,0a3.09,3.09,0,0,0,.57-.08h.8A2.81,2.81,0,0,1,91.83,61a3.9,3.9,0,0,1,1-.11l.71,0h.24c.21,0,.13.4-.48.53l1.64.07s.35,0,.33.26h0s.44,0,.41.2-.24.22-.41.23c0,0,0,.26-.16.27l-.32,0s0,.24-.2.27-2.11.45-2.44.46H92a6.37,6.37,0,0,1-1.46-.14l-1,.12a31.82,31.82,0,0,1-3,4.21.9.9,0,0,1-.34,0c-.8,0-2.59-.38-3.47-.38l-.28,0a28.48,28.48,0,0,0-3.42,1.17l0,15.8c0,.32-.69.65-.69.65V94.88H81.3v1.43h-.42v6.49h.41v1.44h-.82V102.5H79.23l-2.45-2.23H74.87V98.83l-3.1-1.63v-.86l1.35-1.46h.49v-.53l.79-.86v1.39h.71V84.42l.8.51v9.95h.71v-9.5l.64.4-.64-.4h0l-.71-.45-.8-.51L74.39,84v9.25c-.17,0-.44,0-.79,0v-9.7L72.89,83V93.17c-.24,0-.5,0-.79,0V82.52l-.71-.45v11.2c-.25,0-.52.06-.79.1V81.57l-.71-.45V93.48l-.79.16,0-13-.73-.47V93.81l-.75.2,0-16,0-.47A1.12,1.12,0,0,1,67.09,76h-.83l.56-7.55a36.21,36.21,0,0,0-3.89-1.35l-.28,0c-.88,0-2.68.39-3.48.39a.94.94,0,0,1-.34,0,31.82,31.82,0,0,1-3-4.21l-1-.11a6.91,6.91,0,0,1-1.46.14h-.1c-.33,0-2.23-.43-2.44-.46a.25.25,0,0,1-.2-.26h-.31c-.17,0-.17-.28-.17-.28-.16,0-.39,0-.41-.22s.41-.21.41-.21c0-.24.34-.26.34-.26l1.33-.05.3,0L52,61.41c-.44-.16-.48-.48-.3-.48h.23l.73,0h.24a4,4,0,0,1,.75.09,2.94,2.94,0,0,1,1.23.58h.8a8.8,8.8,0,0,0,1.83.12c1.77,0,4.12-.15,4.54-.18a15.39,15.39,0,0,0,1.73-.42l2.84-.83a18.73,18.73,0,0,1,2.3-.09h.39c.86,0,.93-2.54.93-2.54-.12-3.31,1.84-3.76,2.43-3.81v0m4.79,41h.53V86.33l-.53-.45v9m-4.79-42a1.13,1.13,0,0,0-.32,0c-.87.16-3.24.93-3.11,4.79a5.79,5.79,0,0,1-.25,1.53h-.07a12.6,12.6,0,0,0-2.55.12l-1,.29-1.86.55c-1.22.34-1.5.38-1.54.39-.47,0-2.75.17-4.46.17a7.57,7.57,0,0,1-1.55-.08,1.26,1.26,0,0,0-.28,0h-.47a4.27,4.27,0,0,0-1.33-.55,4.54,4.54,0,0,0-.93-.12h-1l-.27,0a1.1,1.1,0,0,0-1,.6h-.22a1.41,1.41,0,0,0-.9.35,1.3,1.3,0,0,0-.52.34,1.13,1.13,0,0,0-.27.88,1.21,1.21,0,0,0,.69,1,1.12,1.12,0,0,0,.59.39,1.16,1.16,0,0,0,.67.31l.6.12a17.06,17.06,0,0,0,1.94.35h.13a9.33,9.33,0,0,0,1.53-.13l.28,0,1.12,1.66c1.55,2.25,1.84,2.39,2.09,2.51a1.73,1.73,0,0,0,.77.15,14.78,14.78,0,0,0,1.81-.2,14.69,14.69,0,0,1,1.67-.19h.12a25.19,25.19,0,0,1,3,1l-.51,6.81a1,1,0,0,0,.25.74A1,1,0,0,0,66,77a1.12,1.12,0,0,0,.06.23,2,2,0,0,0,.53.85l0,16a1,1,0,0,0,.4.8,1,1,0,0,0,.6.2.84.84,0,0,0,.27,0l.73-.19a1,1,0,0,0,.33-.15h.16l.21,0,.75-.15a1.18,1.18,0,0,0,.33-.12l.21,0h.14l.75-.1a1,1,0,0,0,.34-.09,1.17,1.17,0,0,0,.27,0h.28L71,95.67a1,1,0,0,0-.26.67v.86a1,1,0,0,0,.53.89l2.57,1.35v.83a1,1,0,0,0,1,1h1.52l2.17,2a1,1,0,0,0,.67.26h.26v.74a1,1,0,0,0,1,1h.82a1,1,0,0,0,.71-.3,1,1,0,0,0,.29-.7V102.8a1,1,0,0,0-.41-.8V97.12L82,97a1,1,0,0,0,.3-.71V94.88a1,1,0,0,0-1-1H79.38V85.26a1.56,1.56,0,0,0,.69-1.21l0-15.11a19,19,0,0,1,2.58-.87h.12a14.69,14.69,0,0,1,1.67.19,14.37,14.37,0,0,0,1.8.19,1.7,1.7,0,0,0,.77-.15c.26-.12.55-.26,2.09-2.51.53-.78.88-1.3,1.11-1.67l.29,0A9.23,9.23,0,0,0,92,64.2h.14a17.06,17.06,0,0,0,1.94-.35l.61-.12a1.18,1.18,0,0,0,.65-.32A1.13,1.13,0,0,0,96,63a1.23,1.23,0,0,0,.7-1,1.14,1.14,0,0,0-.28-.87,1.2,1.2,0,0,0-.52-.34,1.43,1.43,0,0,0-.89-.36h-.23a1.1,1.1,0,0,0-1-.59l-.21,0h-.74a5.73,5.73,0,0,0-1.23.13,4.5,4.5,0,0,0-1.33.56h-.47a.8.8,0,0,0-.27,0l-.38.05c-.31,0-.72,0-1.24,0-1.72,0-4-.14-4.4-.17s-2.5-.66-3.4-.92l-1-.29a11.67,11.67,0,0,0-2.43-.12h-.19a5.79,5.79,0,0,1-.25-1.53c.11-3.62-2-4.52-2.89-4.73l-.25,0a.76.76,0,0,0-.3,0h-.17Z"/><path class="cls-1" d="M64.94,96.83a.51.51,0,0,1-.35-.15.47.47,0,0,1-.15-.35v-1.1a.49.49,0,0,1,.42-.49h.08a.51.51,0,0,1,.47.34l.38,1.09a.48.48,0,0,1-.06.45.5.5,0,0,1-.41.22Z"/><path class="cls-2" d="M64.94,95.23l.38,1.1h-.38v-1.1m0-1-.17,0a1,1,0,0,0-.83,1v1.1a1,1,0,0,0,1,1h.38a1,1,0,0,0,.82-.43,1,1,0,0,0,.12-.9l-.38-1.1a1,1,0,0,0-.94-.67Z"/><path class="cls-1" d="M20.84,104.75a.5.5,0,0,1-.5-.5V102.5a.5.5,0,0,1,.5-.5h1.48v-1.61a.51.51,0,0,1,.5-.5h.41v-.84a.5.5,0,0,1,.5-.5h.51v-.47l-.66-.63a.54.54,0,0,1-.14-.47.51.51,0,0,1,.32-.36l2.13-.78,1.49-.26-1.93-5a.53.53,0,0,1,0-.41.54.54,0,0,1,.32-.25,12.56,12.56,0,0,1,3-.31,17.24,17.24,0,0,1,3.9.46l-.4-2.82a.52.52,0,0,1,.11-.4.52.52,0,0,1,.38-.17,17.55,17.55,0,0,1,6.09,1.28c-.81-2.9-1.55-5-1.56-5a.51.51,0,0,1,.08-.49.5.5,0,0,1,.39-.18h.07A17.52,17.52,0,0,1,51.5,91.6a13.93,13.93,0,0,1,8.09-2.38,18.12,18.12,0,0,1,3.55.36.49.49,0,0,1,.34.25.54.54,0,0,1,0,.43l-1.38,3.4a21.83,21.83,0,0,1,2.7.76,23,23,0,0,1,8.4-1.75,8.89,8.89,0,0,1,1.48.09.49.49,0,0,1,.39.33.51.51,0,0,1-.1.5l-2.73,3v.36l2.83,1.49a.5.5,0,0,1,.27.44v.94h1.41a.55.55,0,0,1,.34.13l2.3,2.1h1.07a.5.5,0,0,1,.5.5v1.75a.5.5,0,0,1-.5.5Zm40.39-6.14-.61-1.23-.5,1.23ZM49.61,97.35l.84-3.56L47.1,96.71ZM39.23,94.57a21,21,0,0,1-.07-2.69l-1.47,2.55Zm-6.78-.67a8.26,8.26,0,0,1,.14-.91q-.37.36-.78.81Z"/><path class="cls-2" d="M37.74,82.75c10.58,1.47,13.56,9.63,13.56,9.63L46.05,97,50,98l1.32-5.58a12.86,12.86,0,0,1,8.29-2.66,18.18,18.18,0,0,1,3.45.35l-1.6,4a20.51,20.51,0,0,1,3.4.91l-1.08,2,1.42-.45.24.08L64.84,95a22.93,22.93,0,0,1,8.39-1.78,9.83,9.83,0,0,1,1.4.08l-2.86,3.09v.86l3.1,1.63v1.44h1.91l2.45,2.23h1.26v1.75H20.84V102.5h2v-2.11h.91V99.05h.47l.54.3V97.87l-.81-.78,2.13-.78,2-.35-2.14-5.61a12.09,12.09,0,0,1,2.83-.29,16.88,16.88,0,0,1,4.5.63l-.51-3.56a17.79,17.79,0,0,1,6.85,1.66h0c-.93-3.48-1.85-6-1.85-6M39.8,95.13a20.19,20.19,0,0,1,.05-5.35l0-.07-3,5.14,2.93.28m.27-4.48a1.33,1.33,0,0,1,0-.19,1.33,1.33,0,0,0,0,.19m.17.72,0-.18,0,.18m-7.34,3.1a11.28,11.28,0,0,1,.51-2.68l0-.19a19.1,19.1,0,0,0-2.54,2.56l2.06.31m7.52-2.3,0-.09,0,.09m.18.82a1.16,1.16,0,0,1,0-.18,1.16,1.16,0,0,0,0,.18m.15.75,0-.11,0,.11m.16.87s0-.08,0-.12,0,.08,0,.12m.14.8,0-.16,0,.16m18.33,3.7H62l-1.47-2.94-1.19,2.94m3.24,0h0l0-.1-.05.1M37.74,81.75a1,1,0,0,0-.78.37,1,1,0,0,0-.16,1s.58,1.65,1.28,4a17.09,17.09,0,0,0-5.34-1,1,1,0,0,0-.75.34,1,1,0,0,0-.24.8l.3,2.11a17.49,17.49,0,0,0-3.3-.32,12.47,12.47,0,0,0-3.09.33,1,1,0,0,0-.63.51,1,1,0,0,0-.05.81l1.71,4.48-.8.13-.17.05-2.13.78a1,1,0,0,0-.63.73,1,1,0,0,0,.28.92l.27.27a1,1,0,0,0-.78,1v.35a1,1,0,0,0-.91,1v1.11h-1a1,1,0,0,0-1,1v1.75a1,1,0,0,0,1,1H80.49a1,1,0,0,0,1-1V102.5a1,1,0,0,0-1-1h-.87l-2.17-2a1,1,0,0,0-.67-.26h-.91v-.44a1,1,0,0,0-.53-.88l-2.49-1.31,2.51-2.71a1,1,0,0,0-.56-1.67,11,11,0,0,0-1.57-.09,23.46,23.46,0,0,0-8.41,1.72,18.8,18.8,0,0,0-2-.59L64,90.45a1,1,0,0,0,0-.85,1,1,0,0,0-.68-.51,19.23,19.23,0,0,0-3.65-.37,14.79,14.79,0,0,0-7.89,2.14c-1.3-2.44-5.12-7.89-13.82-9.1ZM38.51,94l.16-.27c0,.09,0,.19,0,.29l-.18,0Zm9.64,2.46,1.46-1.27-.37,1.55-1.09-.28Z"/><path class="cls-1" d="M129.27,104.75a.5.5,0,0,1-.5-.5V102.1c0-.39-.19-.63-.28-.63s-.28.24-.28.63v2.15a.5.5,0,0,1-.5.5h-2.28a.5.5,0,0,1-.5-.5v-2.32c0-.43-.24-.71-.4-.71s-.4.28-.4.71v2.32a.5.5,0,0,1-.5.5h-2.25a.5.5,0,0,1-.5-.5v-2.48c0-.47-.27-.8-.52-.8s-.51.33-.51.8v2.48a.5.5,0,0,1-.5.5h-2.19a.5.5,0,0,1-.5-.5v-2.64c0-.48-.29-.89-.63-.89s-.64.41-.64.89v2.64a.5.5,0,0,1-.5.5h-2a.5.5,0,0,1-.5-.5v-2.81a.78.78,0,1,0-1.51,0v2.81a.5.5,0,0,1-.5.5H108.1a.5.5,0,0,1-.5-.5v-2.94a1.18,1.18,0,0,0-2.34,0v2.94a.5.5,0,0,1-.5.5h-2.35a.5.5,0,0,1-.5-.5v-2.78a.9.9,0,1,0-1.79,0v2.78a.5.5,0,0,1-.5.5h-2a.5.5,0,0,1-.5-.5v-2.62a.77.77,0,1,0-1.53,0v2.62a.5.5,0,0,1-.5.5H92.82a.5.5,0,0,1-.5-.5v-2.46a.65.65,0,1,0-1.27,0v2.46a.5.5,0,0,1-.5.5H88a.5.5,0,0,1-.5-.5V102c0-.38-.23-.71-.5-.71s-.5.33-.5.71v2.29a.5.5,0,0,1-.5.5h-2.8a.5.5,0,0,1-.5-.5v-2.13c0-.35-.2-.62-.37-.62s-.36.27-.36.62v2.13a.5.5,0,0,1-.5.5H79.83a.5.5,0,0,1-.5-.5V102.5a.5.5,0,0,1,.5-.5h.57V96.31a.51.51,0,0,1,.15-.35.47.47,0,0,1,.27-.14v-.44h-1a.51.51,0,0,1-.5-.5V83c0-.3,1-5.09,12-8l.13,0a.46.46,0,0,1,.21.05l1.81.84a.51.51,0,0,1,.23.23l.7,1.42,1,2.39.62,0a.51.51,0,0,1,.35.17l1,1.11a.51.51,0,0,1,.13.33v3L98.33,88l1.94,0h1.5a.49.49,0,0,1,.35.15l1.08,1.07h3.64v-1a.5.5,0,0,1,.5-.5h0c.8,0,19.53.39,22.6,4.69a.56.56,0,0,1,.1.28l0,1.93c0,1.45.07,3.53.09,5.48v4.12a.5.5,0,0,1-.5.49Zm-.74-6.21V97c0-.35-.19-.62-.36-.62s-.37.27-.37.62v1.47Zm-3.5-.37V96.43c0-.38-.23-.72-.5-.72s-.5.34-.5.72V98ZM81.7,96.29s0,.08,0,.12a1.1,1.1,0,0,0,0,.18v1.57L82.4,98V96.59c0-.35-.2-.63-.37-.63s-.2.1-.28.25A.22.22,0,0,1,81.7,96.29Zm39.71,1.5V95.58a.65.65,0,1,0-1.27,0v2Zm-35-2.62c-.27,0-.5.33-.5.71v1.74l1-.16V95.88C86.9,95.5,86.67,95.17,86.4,95.17Zm30.92,2.39V95.24a.77.77,0,1,0-1.53,0v2.19Zm-4.24-.26V94.83a.9.9,0,1,0-1.8,0v2.35Zm-22-2.82a.74.74,0,0,0-.63.8v1.94l1.27-.1V95.28A.74.74,0,0,0,91.06,94.48ZM107.9,97V94.5a1.18,1.18,0,0,0-2.34,0V97Zm-6.31,0V94.67a.9.9,0,1,0-1.79,0V97ZM96.8,97V94.83a.77.77,0,1,0-1.53,0V97Zm30.41-3.56v-.34L127,93v.34ZM123,92.36V92l-.27-.06v.37Zm-4.76-1v-.32l-.2,0v.32ZM82,89c-.17,0-.36.27-.36.63v1.56L82.4,91V89.61C82.4,89.25,82.2,89,82,89ZM114,91v-.39l-.2,0v.4Zm-27.7-3.39c-.27,0-.5.34-.5.71v2l1-.14V88.27C86.76,87.9,86.53,87.56,86.26,87.56Zm4.8-1.12a.74.74,0,0,0-.63.8v2.33l1.27-.14V87.24A.74.74,0,0,0,91.06,86.44ZM81.41,84l.28-.21v-.14l-.28.21Zm4.36-2.35L86,81.5v-.26l-.21.12Zm4.89-2.16.33-.14,0-.3-.3.13Z"/><path class="cls-2" d="M91.48,75.46l1.81.84L94,77.72l1.12,2.65.93.06,1,1.11V84.6l.93,3.93,2.34,0h1.49L103,89.72h4.34V88.26s19.24.34,22.21,4.48c0,0,0,.77,0,1.93,0,1.45.07,3.52.09,5.47,0,.3,0,.59,0,.88v2.38c0,.16,0,.3,0,.45v.4h-.41V102.1c0-.62-.35-1.13-.78-1.13s-.78.51-.78,1.13v2.15h-2.28v-2.32c0-.66-.4-1.21-.9-1.21s-.9.55-.9,1.21v2.32h-2.25v-2.48a1.05,1.05,0,1,0-2,0v2.48h-2.18v-2.64a1.16,1.16,0,1,0-2.27,0v2.64h-2v-2.81a1.27,1.27,0,1,0-2.51,0v2.81H108.1v-2.94a1.67,1.67,0,0,0-3.34,0v2.94h-2.35v-2.78a1.4,1.4,0,1,0-2.79,0v2.78h-2v-2.62a1.27,1.27,0,1,0-2.53,0v2.62H92.82v-2.46a1.14,1.14,0,1,0-2.27,0v2.46H88V102a1,1,0,1,0-2,0v2.29h-2.8v-2.13a.9.9,0,1,0-1.73,0v2.13H79.83V102.5h.66v1.74h.82V102.8H80.9V96.31h.31a1.27,1.27,0,0,0,0,.28v2.16l1.73-.28V96.59A1,1,0,0,0,82,95.46a.84.84,0,0,0-.72.52v-1.1H79.83V83s.83-4.66,11.65-7.56m-1.32,4.75,1.38-.57-.16-1.34-1.22.52v1.39m-4.89,2.25,1.21-.66V80.4l-1.21.66v1.4M80.91,85l1.28-1V82.61l-1.28,1V85m9,5.14,2.27-.24V87.24a1.15,1.15,0,1,0-2.27,0v2.88m-4.67.75,2-.27V88.27a1,1,0,1,0-2,0v2.6m-4.09.89,1.73-.3V89.61a.9.9,0,1,0-1.73,0v2.15m33.29-.26V90.1l-1.2-.1v1.4l1.2.1m4.31.43v-1.3l-1.2-.2v1.35l1.2.15M123.53,93v-1.4l-1.27-.29v1.4l1.27.29m4.18,1.12V92.72l-1.17-.39v1.39l1.17.39m-22.65,3.37h3.34v-3a1.67,1.67,0,0,0-3.34,0v3m-5.76,0h2.79V94.67a1.4,1.4,0,1,0-2.79,0v2.81m14.27.36v-3a1.4,1.4,0,1,0-2.79,0v2.82l2.79.19m-18.8-.36H97.3V94.83a1.27,1.27,0,1,0-2.53,0v2.65m23,.62V95.24a1.27,1.27,0,1,0-2.53,0v2.65l2.53.21m-27.89-.34,2.27-.18v-2.3a1.15,1.15,0,1,0-2.27,0v2.48m32,.6V95.58a1.15,1.15,0,1,0-2.27,0v2.48l2.27.3M85.4,98.2l2-.31v-2a1,1,0,1,0-2,0V98.2m40.13.55V96.43a1,1,0,1,0-2,0v2l2,.28m3.5.37V97a.89.89,0,1,0-1.73,0v1.9l1.73.26M91.48,74.46a1.09,1.09,0,0,0-.25,0c-11.12,3-12.29,7.8-12.38,8.34a1.1,1.1,0,0,0,0,.18V94.88a1,1,0,0,0,1,1H80a1,1,0,0,0-.1.43v5.19h-.07a1,1,0,0,0-1,1v1.75a1,1,0,0,0,1,1h1.66a1,1,0,0,0,.86-.5,1,1,0,0,0,.87.5H86a1,1,0,0,0,1-1v0a1,1,0,0,0,1,1h2.53a1,1,0,0,0,1-1v-2.46a.31.31,0,0,1,.14-.29.34.34,0,0,1,.13.29v2.46a1,1,0,0,0,1,1h2.27a1,1,0,0,0,1-1v-2.62c0-.22.14-.38.26-.38s.27.16.27.38v2.62a1,1,0,0,0,1,1h2a1,1,0,0,0,1-1v-2.78a.4.4,0,1,1,.79,0v2.78a1,1,0,0,0,1,1h2.35a1,1,0,0,0,1-1v-2.94a.68.68,0,0,1,1.34,0v2.94a1,1,0,0,0,1,1h2.33a1,1,0,0,0,1-1v-2.81c0-.28.17-.46.26-.46s.25.18.25.46v2.81a1,1,0,0,0,1,1h2a1,1,0,0,0,1-1v-2.64a.49.49,0,0,1,.15-.39.69.69,0,0,1,.12.39v2.64a1,1,0,0,0,1,1h2.18a1,1,0,0,0,1-1v-2.48a.78.78,0,0,1,0-.16.41.41,0,0,1,0,.16v2.48a1,1,0,0,0,1,1h2.25a1,1,0,0,0,.9-.56,1,1,0,0,0,.9.56h2.28a1,1,0,0,0,.78-.37,1,1,0,0,0,.78.37h.41a1,1,0,0,0,1-1v-4.15c0-1.95-.06-4-.09-5.49,0-1.16,0-1.93,0-1.93a1,1,0,0,0-.19-.55c-3.17-4.42-21-4.87-23-4.9h0a1,1,0,0,0-1,1v.46h-2.93l-.94-.93a1,1,0,0,0-.7-.29h-1.49l-1.56,0-.71-3V81.54a1,1,0,0,0-.25-.66l-1-1.11a1,1,0,0,0-.68-.34l-.32,0-.87-2.07,0-.06-.7-1.42a1,1,0,0,0-.47-.47l-1.81-.83a1,1,0,0,0-.42-.1ZM90.93,89V87.24a.32.32,0,0,1,.14-.3.35.35,0,0,1,.13.3V89l-.27,0Zm-4.59-1Zm-.08,1.68V88.27h0v1.45Zm-4.05-.3h0Zm23.85,7.06v-2a.68.68,0,0,1,1.34,0v2Zm-5.76,0V94.67a.4.4,0,1,1,.79,0v1.81Zm11.48.23V94.83a.4.4,0,1,1,.79,0v1.94l-.79-.06Zm-16-.23V94.83c0-.22.14-.38.26-.38s.27.16.27.38v1.65Zm20.52.49V95.24c0-.22.14-.38.26-.38s.27.16.27.38V97l-.53,0Zm-25.36-.29v-1.4a.32.32,0,0,1,.14-.3.35.35,0,0,1,.13.3v1.38l-.27,0Zm29.71.5v-1.6a.34.34,0,0,1,.14-.3.37.37,0,0,1,.13.3v1.64l-.27,0ZM86.47,95.65h0ZM86.4,97v0Zm38.13.57v0Z"/><path class="cls-1" d="M123.63,104.75a.5.5,0,0,1-.5-.5v-2.32a1.43,1.43,0,1,1,2.8,0v2.32a.5.5,0,0,1-.5.5Z"/><path class="cls-2" d="M124.53,100.72c.5,0,.9.55.9,1.21v2.32h-1.8v-2.32c0-.66.4-1.21.9-1.21m0-1a2,2,0,0,0-1.9,2.21v2.32a1,1,0,0,0,1,1h1.8a1,1,0,0,0,1-1v-2.32a2,2,0,0,0-1.9-2.21Z"/><path class="cls-1" d="M126.75,94.29l-.16,0-.21-.07a.51.51,0,0,1-.34-.48V92.33a.51.51,0,0,1,.21-.41.52.52,0,0,1,.29-.09.41.41,0,0,1,.16,0l.21.07a.51.51,0,0,1,.34.47v1.4a.49.49,0,0,1-.5.5Z"/><path class="cls-2" d="M126.54,92.33l.21.06v1.4l-.21-.07V92.33m0-1a1,1,0,0,0-1,1v1.39a1,1,0,0,0,.68,1l.21.07a1.13,1.13,0,0,0,.32.05,1,1,0,0,0,.58-.19,1,1,0,0,0,.42-.81v-1.4a1,1,0,0,0-.68-.94l-.21-.07a.86.86,0,0,0-.32,0Z"/><path class="cls-1" d="M125.46,99.24,123.53,99a.49.49,0,0,1-.43-.49V96a.77.77,0,0,1,0-.15,1.54,1.54,0,0,1,1.41-1.13,1.62,1.62,0,0,1,1.5,1.72v2.32a.48.48,0,0,1-.17.37.51.51,0,0,1-.33.13Z"/><path class="cls-2" d="M124.53,95.21a1.13,1.13,0,0,1,1,1.22v2.32l-1.93-.27V96a1,1,0,0,1,.93-.78m0-1a2,2,0,0,0-1.88,1.48.79.79,0,0,0-.05.3v2.49a1,1,0,0,0,.86,1l1.93.27h.14a1,1,0,0,0,1-1V96.43a2.13,2.13,0,0,0-2-2.22Z"/><path class="cls-1" d="M114.92,104.75a.5.5,0,0,1-.5-.5v-3A1.74,1.74,0,0,1,116,99.72a1.78,1.78,0,0,1,1.63,1.89v2.64a.5.5,0,0,1-.5.5Z"/><path class="cls-2" d="M116,100.22a1.29,1.29,0,0,1,1.13,1.39v2.64h-2.24v-3a1.22,1.22,0,0,1,1.11-1.08m0-1a2.23,2.23,0,0,0-2.1,1.9,1.09,1.09,0,0,0,0,.18v3a1,1,0,0,0,1,1h2.24a1,1,0,0,0,1-1v-2.64A2.27,2.27,0,0,0,116,99.22Z"/><path class="cls-1" d="M118,92.34l-.5-.06a.51.51,0,0,1-.43-.5V90.43a.49.49,0,0,1,.5-.5h.08l.5.08a.5.5,0,0,1,.42.49v1.33a.54.54,0,0,1-.17.38.52.52,0,0,1-.33.12Z"/><path class="cls-2" d="M117.57,90.43l.5.08v1.33l-.5-.06V90.43m0-1a1,1,0,0,0-.65.24,1,1,0,0,0-.35.76v1.35a1,1,0,0,0,.87,1l.5.07h.13a1,1,0,0,0,.66-.25,1,1,0,0,0,.34-.75V90.51a1,1,0,0,0-.84-1l-.5-.09Z"/><path class="cls-1" d="M158.32,104.75a.5.5,0,0,1-.5-.5V88.11a.51.51,0,0,1-.36-.48v-.31h-3.81v.31a.5.5,0,0,1-.36.48v16.14a.5.5,0,0,1-.5.5h-3.15a.5.5,0,0,1-.5-.5V88.11a.5.5,0,0,1-.36-.48v-.31H145v.31a.5.5,0,0,1-.36.48v16.14a.5.5,0,0,1-.5.5H141a.5.5,0,0,1-.5-.5V88.11a.5.5,0,0,1-.36-.48v-.31h-3.81v.31a.5.5,0,0,1-.36.48v16.14a.5.5,0,0,1-.5.5h-3.15a.5.5,0,0,1-.5-.5V88.11a.5.5,0,0,1-.36-.48v-.31H127.6v.31a.5.5,0,0,1-.35.48v2.81a.51.51,0,0,1-.5.5.52.52,0,0,1-.18,0,23.34,23.34,0,0,0-3.09-.92.5.5,0,0,1-.38-.49V88.11a.5.5,0,0,1-.36-.48v-.31h-3.82v.31a.5.5,0,0,1-.35.48V89a.54.54,0,0,1-.17.38.52.52,0,0,1-.33.12H118c-1.06-.13-2.12-.24-3.13-.34a.49.49,0,0,1-.45-.49v-.59a.5.5,0,0,1-.36-.48V86.49a.5.5,0,0,1,.5-.5h0V84.41h-1.3a.5.5,0,0,1-.5-.5v-1l-.55-.67a.49.49,0,0,1-.07-.53.51.51,0,0,1,.45-.29h2.64V80.3h-.17a.51.51,0,0,1-.47-.34l-.45-1.33a.48.48,0,0,1,.06-.45.49.49,0,0,1,.41-.21h15.49v-.2a.5.5,0,0,1,.5-.5h.06v-.22a.5.5,0,0,1,.5-.5h.4l-.06-.69a.53.53,0,0,1,.16-.41l.05,0a2.63,2.63,0,0,1,.14-1,.7.7,0,0,1-.26-.19,1.17,1.17,0,0,1-.15-.94,1.57,1.57,0,0,0,0-.25,1.25,1.25,0,0,1,.1-1,.89.89,0,0,1,.62-.35h.13c.83,0,1.28,1.13,1.64,2l.17.42a3.22,3.22,0,0,0,.54.69l.17.18a.51.51,0,0,1,0-.1,2.81,2.81,0,0,1,.36-1.08l.16-1.22a.82.82,0,0,1,0-.5.49.49,0,0,1,.08-.18l0-.16a.5.5,0,0,1,.25-.51.53.53,0,0,1,.24-.06.52.52,0,0,1,.33.12h0a.45.45,0,0,1,.3-.1.45.45,0,0,1,.2,0,.49.49,0,0,1,.29.5V72a1,1,0,0,1,.1.29v0l.36-.48v-.42a1.41,1.41,0,0,1-.84-1.29,1.39,1.39,0,0,1,.33-.9.38.38,0,0,1-.08-.17.39.39,0,0,1,0-.15l-.36-.37a.42.42,0,0,1-.14-.27l0,0a.49.49,0,0,1-.12-.46c0-.08-.05-.16-.06-.21a.51.51,0,0,1,.1-.43.5.5,0,0,1,.4-.19c.14,0,.23,0,1,.54a.66.66,0,0,1,.86,0c.75-.54.83-.54,1-.54a.49.49,0,0,1,.39.19.51.51,0,0,1,.1.43s0,.13-.06.21a.49.49,0,0,1-.12.46l-.07.08a.34.34,0,0,1-.11.23l-.36.37a.39.39,0,0,1,0,.15.38.38,0,0,1-.08.17,1.39,1.39,0,0,1,.33.9,1.41,1.41,0,0,1-.84,1.29v.29h0a.74.74,0,0,1,.52.34,1.09,1.09,0,0,1,.16.62l.09,0s.07-.14.07-.14a.89.89,0,0,1,.1-.51v-.19a.49.49,0,0,1,.29-.5.48.48,0,0,1,.2,0,.45.45,0,0,1,.3.1h0a.52.52,0,0,1,.33-.12.53.53,0,0,1,.24.06.5.5,0,0,1,.25.51l0,.16a.49.49,0,0,1,.08.18.82.82,0,0,1,0,.5l.16,1.22a2.81,2.81,0,0,1,.35,1.08c0,.06,0,.24-.18,1.63h.28a1.89,1.89,0,0,1,.16-1.23,5.29,5.29,0,0,1,.41-.48,2.7,2.7,0,0,0,.54-.69c.05-.1.11-.25.18-.42.36-.91.81-2,1.64-2h.12a.91.91,0,0,1,.63.35,1.2,1.2,0,0,1,.09,1,1.38,1.38,0,0,0,0,.25,1.13,1.13,0,0,1-.16.94.76.76,0,0,1-.25.19,2.84,2.84,0,0,1,.14,1l.05,0a.49.49,0,0,1,.15.41l-.05.7a.5.5,0,0,1,.4.49v.22h.06a.5.5,0,0,1,.5.5V78h15.49a.49.49,0,0,1,.41.21.51.51,0,0,1,.06.45L161.79,80a.51.51,0,0,1-.47.34h-.17v1.15h2.64a.51.51,0,0,1,.45.29.49.49,0,0,1-.07.53l-.55.67v1a.5.5,0,0,1-.5.5h-1.3V86h0a.5.5,0,0,1,.5.5v1.14a.5.5,0,0,1-.36.48v16.14a.5.5,0,0,1-.5.5Z"/><path class="cls-2" d="M139.36,67.35h0c0,.09-.1.33-.1.33l0,.11-.22.25.06,0-.53.52c-.08.08,0,.22,0,.22l-.44.21v.11A.91.91,0,0,1,138,71v1h.11v.28a.39.39,0,0,1,.27-.09h.06c.22,0,.31.39.21.69s-.26.35-.09.51a.83.83,0,0,0,.35.2s0-.39.16-.43h0a.42.42,0,0,1,.3.24s0,.27.08.47v-.19a1.8,1.8,0,0,1,0,.4c0,.09,0,.15,0,.15v.45l.29-.7-.09-1.09.16-.32c-.16-.2.07-.39.07-.39l0-.38.17.18h.23l.23-.19-.06.4c.26.12.06.43.06.43l.19,1.45a2.84,2.84,0,0,1,.34.93c0,.23-.17,1.46-.26,2.13h1.41a3,3,0,0,1,0-1.44,8.52,8.52,0,0,0,1-1.24c.25-.51.75-2.18,1.37-2.18h.05c.65.1.18.79.27,1.18s0,.58-.18.58a.29.29,0,0,1-.15-.06c-.13-.1-.21-.19-.25-.19s0,.09,0,.36a3.16,3.16,0,0,1,.23,1.53l.24.23-.1,1.23h.44v.72h.56v.7h16l-.45,1.33h-.67V82h3.14l-.65.78h0v1.18h-1.8v2.58h.51v1.14h-.36v16.62h-3.15V87.63H158v-.81h-4.81v.81h-.36v16.62h-3.15V87.63h-.36v-.81h-4.81v.81h-.36v16.62H141V87.63h-.36v-.81h-4.81v.81h-.36v16.62h-3.15V87.63h-.36v-.81h-4.81v.81h-.36v3.29A23.24,23.24,0,0,0,123.6,90V87.63h-.36v-.81h-4.82v.81h-.35V89c-1.07-.13-2.14-.24-3.15-.33V87.63h-.36V86.49h.51V83.91h-1.8V82.73h0L112.6,82h3.14V79.8h-.67l-.45-1.33h16v-.7h.56v-.72h.94l-.1-1.23.24-.23a3.16,3.16,0,0,1,.22-1.53c.07-.27.08-.36,0-.36a2.21,2.21,0,0,0-.25.19.24.24,0,0,1-.15.06c-.16,0-.24-.27-.17-.58s-.38-1.08.27-1.18h0c.62,0,1.12,1.67,1.36,2.18a9.25,9.25,0,0,0,1,1.24,3.1,3.1,0,0,1,0,1.44h.9c-.09-.67-.26-1.9-.26-2.13a2.84,2.84,0,0,1,.34-.93l.19-1.45s-.2-.31.06-.43l-.06-.4.23.19h.23l.17-.18,0,.38s.23.19.07.39l.16.32-.09,1.09.36.72s-.26-1.21.25-1.53l.33-.65.41-.53V71a.91.91,0,0,1-.17-1.79v-.11l-.44-.21s.1-.14,0-.22l-.53-.52.06,0-.22-.25,0-.11s-.08-.24-.1-.33,0,0,0,0a11.43,11.43,0,0,1,1.09.74l-.06.14s0,.06.13.11h0c.09,0,.12-.26.12-.26-.1-.16-.06-.26,0-.32a.17.17,0,0,1,.22,0c.06.06.09.16,0,.32,0,0,0,.26.11.26h0c.11,0,.13-.11.13-.11l-.06-.14a11.65,11.65,0,0,1,1.1-.74m-1.25,2.54a1.5,1.5,0,0,0,.47-.21.75.75,0,0,0-.26-.27,1.7,1.7,0,0,0-.21.48m-.32,0a1.45,1.45,0,0,0-.21-.48.75.75,0,0,0-.26.27,1.75,1.75,0,0,0,.47.21m.52.78a.75.75,0,0,0,.27-.26,1.75,1.75,0,0,0-.47-.21,1.4,1.4,0,0,0,.2.47m-.72,0a1.4,1.4,0,0,0,.2-.47,1.75,1.75,0,0,0-.47.21.75.75,0,0,0,.27.26m5.86,6.38h1l0-.11v-.76l-.18-.07a11,11,0,0,1-.84.84.15.15,0,0,0-.05.1m-11,0h1s0-.09,0-.1a9.71,9.71,0,0,1-.85-.84l-.18.07v.76l.06.11M163.79,82h0m-24.43-15.6c-.27,0-.44.05-1,.45a1,1,0,0,0-.39-.07,1,1,0,0,0-.39.07c-.58-.4-.75-.45-1-.45h0a1,1,0,0,0-1,1.22,1,1,0,0,0,0,.14,1,1,0,0,0,.21.71,1,1,0,0,0,.24.39l.24.24v0a1.84,1.84,0,0,0-.26,1,1.92,1.92,0,0,0,.14.72h0a1,1,0,0,0-.83.06,1,1,0,0,0-.51,1h0c0,.05,0,.09,0,.14a1.2,1.2,0,0,0,0,.68l-.14,1c0,.08-.08.17-.11.26h0l-.16-.38c-.39-1-.93-2.36-2.1-2.36h-.2a1.37,1.37,0,0,0-1,.57,1.64,1.64,0,0,0-.18,1.34l0,.13a1.58,1.58,0,0,0,.27,1.28l.07.08a2.39,2.39,0,0,0-.08.62,1,1,0,0,0-.2.68l0,.16a1,1,0,0,0-.84.81,1,1,0,0,0-.53.6h-15a1,1,0,0,0-.81.41,1,1,0,0,0-.14.91l.46,1.33a1,1,0,0,0,.61.62V81H112.6a1,1,0,0,0-.9.58,1,1,0,0,0,.13,1.06l.44.53v.79a1,1,0,0,0,1,1h.8v.71a1,1,0,0,0-.51.87v1.14a1,1,0,0,0,.36.77v.3a1,1,0,0,0,.91,1c1.07.1,2.12.21,3.11.34h.13a1,1,0,0,0,.66-.25,1,1,0,0,0,.34-.75V88.4a1.07,1.07,0,0,0,.34-.58h2.85a1,1,0,0,0,.34.58V90a1,1,0,0,0,.77,1,23.14,23.14,0,0,1,3,.9.94.94,0,0,0,.37.07,1,1,0,0,0,1-1V88.4a1,1,0,0,0,.34-.58h2.85a1,1,0,0,0,.34.58v15.85a1,1,0,0,0,1,1h3.15a1,1,0,0,0,1-1V88.4a1,1,0,0,0,.34-.58h2.85a1,1,0,0,0,.34.58v15.85a1,1,0,0,0,1,1h3.15a1,1,0,0,0,1-1V88.4a1,1,0,0,0,.34-.58h2.85a1,1,0,0,0,.34.58v15.85a1,1,0,0,0,1,1h3.15a1,1,0,0,0,1-1V88.4a1,1,0,0,0,.34-.58H157a1,1,0,0,0,.34.58v15.85a1,1,0,0,0,1,1h3.15a1,1,0,0,0,1-1V88.4a1,1,0,0,0,.36-.77V86.49a1,1,0,0,0-.51-.87v-.71h.8a1,1,0,0,0,1-1v-.79l.41-.49a1,1,0,0,0,.26-.68,1,1,0,0,0-1-1h-2.14v-.21a1,1,0,0,0,.61-.62l.46-1.33a1,1,0,0,0-.14-.91,1,1,0,0,0-.81-.41h-15a4.1,4.1,0,0,1-.89-1.2l0-.37a1,1,0,0,0-.2-.68,2.94,2.94,0,0,0-.07-.62l.07-.08a1.58,1.58,0,0,0,.27-1.28s0-.09,0-.13a1.63,1.63,0,0,0-.17-1.34,1.37,1.37,0,0,0-1-.57h-.2c-1.17,0-1.71,1.36-2.11,2.36a3.11,3.11,0,0,1-.16.38,1.9,1.9,0,0,1-.34.45,6.8,6.8,0,0,0-.28-.7l-.14-1a1.2,1.2,0,0,0,0-.68.74.74,0,0,0,0-.14h0a1,1,0,0,0-.51-1,1,1,0,0,0-.83-.06.86.86,0,0,0-.28,0l-.23,0a2,2,0,0,0,.14-.72,1.84,1.84,0,0,0-.26-1v0c.12-.13.24-.24.24-.24a1,1,0,0,0,.24-.39,1,1,0,0,0,.21-.71,1,1,0,0,0,0-.14,1,1,0,0,0-.2-.84,1,1,0,0,0-.78-.38Z"/><path class="cls-1" d="M115.25,98.38a.49.49,0,0,1-.46-.49V95.24a1.77,1.77,0,1,1,3.53,0V98.1a.52.52,0,0,1-.16.37.55.55,0,0,1-.34.13Z"/><path class="cls-2" d="M116.55,93.86a1.33,1.33,0,0,1,1.27,1.38V98.1l-2.53-.21V95.24a1.33,1.33,0,0,1,1.26-1.38m0-1a2.33,2.33,0,0,0-2.26,2.38v2.65a1,1,0,0,0,.92,1l2.52.22h.09a1,1,0,0,0,.68-.26,1,1,0,0,0,.32-.74V95.24a2.33,2.33,0,0,0-2.27-2.38Z"/><path class="cls-1" d="M161.47,104.74a.5.5,0,0,1-.5-.5V87.63a.51.51,0,0,1,.36-.48V87h0a.5.5,0,0,1-.5-.5V83.91a.5.5,0,0,1,.5-.5h1.3v-.68a.54.54,0,0,1,.08-.28h-2a.5.5,0,0,1-.5-.5V79.8a.5.5,0,0,1,.5-.5H161l.11-.33h-6.5a.5.5,0,0,1-.49-.58l.11-.71-.91-1.3a.51.51,0,0,1,0-.49l1.25-2.79-.72-1.18a.46.46,0,0,1-.05-.41l.29-.91-.13-.09a.49.49,0,0,1-.23-.47l.11-1.25-.4-.33a.5.5,0,0,1-.18-.44l.06-.48-.47-.23a1,1,0,0,1-.16-.12c-.89-.85-.06-3,.79-4.65h0v-1L153,61a.47.47,0,0,1-.1-.3l0-3.58a1,1,0,0,1-.3-.7v-.73a.78.78,0,0,1-.49-.72s0,0,0-.08l0,0a.75.75,0,0,1-.15-.46v0a.82.82,0,0,1-.21-.53s0,0,0-.08a.8.8,0,0,1-.15-.47.66.66,0,0,1,0-.14.79.79,0,0,1,.63-.63.32.32,0,0,1,0-.14v-.58a.47.47,0,0,1-.16-.27l-.25-1.1a.46.46,0,0,1,.1-.42.48.48,0,0,1,.39-.19h0a1.71,1.71,0,0,1-.47-.54,2.92,2.92,0,0,1,.06-2.42.49.49,0,0,1,.29-.29v-1.7a.51.51,0,0,1,.26-.44.53.53,0,0,1,.24-.06.57.57,0,0,1,.28.08c.09.06,2.2,1.48,2.32,3.34a2,2,0,0,1,0,.49,2.55,2.55,0,0,1-.62,1.53v0H155a.51.51,0,0,1,.39.19.49.49,0,0,1,.09.42l-.25,1.1a.57.57,0,0,1-.16.26v.59a.5.5,0,0,1-.14.35.54.54,0,0,1-.16.1c.22.22.41.44.41.44a.47.47,0,0,1,.13.34v2.15l.77,3.86v.45l1.06.47-.65-1.81a.5.5,0,0,1,.22-.6.55.55,0,0,1,.25-.07.49.49,0,0,1,.38.18l1.38,1.61.37-2a.49.49,0,0,1,.49-.41h0a.49.49,0,0,1,.49.41l.39,2.15L162,58.32a.5.5,0,0,1,.84.5l-.66,1.8,1.68-.73a.48.48,0,0,1,.2,0,.52.52,0,0,1,.42.22.51.51,0,0,1-.07.64l-2,2-.08.42a.49.49,0,0,1-.21.32l.14,3.88,1.26.81a.51.51,0,0,1,.21.29s.42,1.48.56,2.15a6.86,6.86,0,0,0,1.25,1.61l.76-1.23a.49.49,0,0,1,.42-.23.46.46,0,0,1,.23.05l2.55,1.3a.45.45,0,0,1,.22.21l.27.51a.5.5,0,0,1,0,.49l-.34.57.14.78a.67.67,0,0,1-.08.48c-.37.48-.81,1.07-.87,1.2a1.79,1.79,0,0,1-1.05.67l-1.12,1.5a.54.54,0,0,1-.27.18l-.71.19-.13,0a.45.45,0,0,1-.2,0l1.16,6.56a.48.48,0,0,1,0,.29l-.41.93.19,1.56a.51.51,0,0,1-.18.45l-.76.62v2.23h1.63a.48.48,0,0,1,.5.5l0,12.28a.5.5,0,0,1-.5.5Zm3.23-2.92,0-7.5h-.85v7.5ZM157,64l0-.61a.65.65,0,0,1-.16-.21l.06.18a.55.55,0,0,1,0,.18l0,.38Zm-.15-.93-.11-.62-.1-.09Z"/><path class="cls-2" d="M152.81,44.93s2,1.32,2.11,3a2.55,2.55,0,0,1,0,.39,1.85,1.85,0,0,1-.62,1.35v.76H155l-.25,1.09h-.17v1h-.39V53c.27.27.63.66.63.66v2.16l.78,4v.68l2,.87.3-.22-.9-2.49,1.74,2a3.22,3.22,0,0,1,.42-.13l.46-2.5.45,2.5a4,4,0,0,1,.55.18l1.79-2.06-.94,2.57,0,0h0a1.13,1.13,0,0,1,.22.16l2.41-1-2.15,2.09h0l-.11.58h-.23l.16,4.58h0l1.48,1s.41,1.46.55,2.11A9.83,9.83,0,0,0,165.54,73l1.1-1.77,2.56,1.29.26.52-.44.72.18,1h0l0,.08s-.81,1-.93,1.29-.9.46-.9.46l-1.22,1.63-.71.19-.88-.51,1.35,7.62-.46,1,.2,1.7-.94.77v3h2.13l0,12.28h-5.35V87.63h.36V86.49h-.51V83.91h1.8V82.73h0l.65-.78h-3.14V79.8h.67l.45-1.33h-7.2l.14-.91-1-1.47,1.36-3-.86-1.4.42-1.27-.46-.3.13-1.52-.6-.49.1-.82-.78-.4,0,0c-.77-.73.58-3.46.89-4.06l.06-.11V61.4l-.47-.65,0-3.85h0a.48.48,0,0,1-.31-.44V55.29H153a.29.29,0,0,1-.28-.28h0a.43.43,0,0,1,0,0h0s0,0,0,0a.3.3,0,0,1,.25-.18h-.15a.3.3,0,0,1-.22-.11.27.27,0,0,1-.06-.17.09.09,0,0,1,0-.05s0,0,0,0a.28.28,0,0,1,.22-.17h-.17a.29.29,0,0,1-.28-.28.43.43,0,0,1,0,0v0h0a.29.29,0,0,1,.19-.18h-.14a.21.21,0,0,1-.13-.07.28.28,0,0,1-.08-.2h0V53.3a.28.28,0,0,1,.28-.23h.72v-.63h-.38v-1h-.18l-.24-1.1H153v-.75h0s-1.35-.32-.54-2.53l.31.87v-3m4.56,20.35.16-2.28h-.23l-.14-.77-1.61-1.58V62l.59.54.29,1,0,.58,1,1.17m7.83,37,0-8.5h-1.84l0,8.5h1.85M152.81,43.93a1,1,0,0,0-.47.12,1,1,0,0,0-.53.88v1.43a.93.93,0,0,0-.26.39,3.37,3.37,0,0,0,0,2.82,1,1,0,0,0,.1.17v0a1,1,0,0,0-.2.84l.25,1.1a1,1,0,0,0,.15.34v.22a1.23,1.23,0,0,0-.6.87,1.64,1.64,0,0,0,0,.22,1.24,1.24,0,0,0,.15.6,1.18,1.18,0,0,0,.21.66,1.31,1.31,0,0,0,.16.47,1.29,1.29,0,0,0,.48.93v.45a1.46,1.46,0,0,0,.3.88l0,3.39a1,1,0,0,0,.19.6l.28.39v.69c-1.31,2.57-1.53,4.3-.64,5.14a.6.6,0,0,0,.12.11l.16.1.15.07,0,.12a1,1,0,0,0,.36.9l.2.16-.09,1a1,1,0,0,0,.28.78l-.19.57a1,1,0,0,0,.1.84l.58,1-1.14,2.54a1,1,0,0,0,.09,1l.79,1.14-.08.51a1,1,0,0,0,.23.81,1,1,0,0,0,.76.35h5.14a.88.88,0,0,0-.06.33V82a1,1,0,0,0,1,1H161a1,1,0,0,0-.71,1v2.58a1,1,0,0,0,.27.68.93.93,0,0,0-.12.46v16.61a1,1,0,0,0,1,1h5.35a1,1,0,0,0,1-1l0-12.29a1,1,0,0,0-1-1h-1.14v-1.5l.57-.46a1,1,0,0,0,.36-.9l-.16-1.43.35-.8a1.05,1.05,0,0,0,.07-.58l-1.07-6,.58-.16a1,1,0,0,0,.54-.36l1-1.37c.91-.33,1.12-.73,1.19-.87s.49-.69.83-1.13a1,1,0,0,0,.19-.79v-.08l-.11-.59.24-.41a1,1,0,0,0,0-1l-.27-.51a1,1,0,0,0-.43-.43l-2.55-1.3a1.06,1.06,0,0,0-.46-.1,1,1,0,0,0-.85.47l-.41.66a4.59,4.59,0,0,1-.69-.93c-.14-.64-.54-2.07-.56-2.13a1,1,0,0,0-.42-.58l-1-.67-.12-3.4a.93.93,0,0,0,.19-.43l0-.26,1.93-1.87a1,1,0,0,0,.13-1.28,1,1,0,0,0-.83-.44,1.14,1.14,0,0,0-.4.08l-.61.27.26-.71a1,1,0,0,0-.43-1.2.94.94,0,0,0-.51-.14,1,1,0,0,0-.75.34l-.85,1-.2-1.12a1,1,0,0,0-1-.82h0a1,1,0,0,0-1,.82l-.18.95-.7-.82a1,1,0,0,0-.76-.35,1.06,1.06,0,0,0-.51.14,1.12,1.12,0,0,0-.21.17l-.43-2.21v-2a1,1,0,0,0-.26-.68l-.09-.1a1,1,0,0,0,.11-.45v-.4a.94.94,0,0,0,.14-.34l.26-1.1a1,1,0,0,0-.19-.84.58.58,0,0,0-.18-.17,3.82,3.82,0,0,0,.32-1.21,2.54,2.54,0,0,0,0-.57c-.13-2.07-2.3-3.56-2.55-3.72a1,1,0,0,0-.55-.17Z"/><path class="cls-1" d="M152.79,104.72a.5.5,0,0,1-.5-.5v-1.93a.51.51,0,0,1,.5-.5h.54l0-7.5h-.56a.5.5,0,0,1-.5-.5V91.93a.47.47,0,0,1,.15-.35l.06,0,.46-1.62-.39-2.19a.5.5,0,0,1,.08-.36v-.54a.5.5,0,0,1,.5-.5H158a.5.5,0,0,1,.5.5v.33a.51.51,0,0,1,.36.48v16.6a.48.48,0,0,1-.5.5Zm4.33-2.92,0-7.5h-.84l0,7.5Z"/><path class="cls-2" d="M158,86.82v.81h.36v16.6h-5.53v-1.93h1l0-8.49h-1.06V91.93h.11l.58-2-.42-2.3h.09v-.81H158m-.34,15.48,0-8.5H155.8l0,8.5h1.84M158,85.82h-4.81a1,1,0,0,0-1,1v.41a1,1,0,0,0-.07.58l.37,2.07-.39,1.37a1,1,0,0,0-.27.68v1.86a1,1,0,0,0,1,1h.06l0,6.5h0a1,1,0,0,0-1,1v1.93a1,1,0,0,0,1,1h5.53a1,1,0,0,0,1-1V87.63a1,1,0,0,0-.36-.76v-.05a1,1,0,0,0-1-1Z"/><path class="cls-1" d="M78.13,38.75a3.88,3.88,0,0,1-2.27-1.17c-.44-.47-1.16-3.1-2.6-8.79-.35-1.36-.7-2.76-.86-3.31-.93-.14-3.51-.59-3.83-1.11s.15-1.9.24-2.18c.19-.56.34-.79.58-.89a.62.62,0,0,1,.29-.06,7.88,7.88,0,0,1,1.7.36A14,14,0,0,0,70.28,19l-.8-.17c-1.48-.31-4.24-.89-6.23-1.4-2.21-.57-4.34-2.72-4.14-3.51s2.31-1.35,3.87-1.35a6.59,6.59,0,0,1,1.43.16c2,.48,4.72,1.24,6.18,1.66l.77.21a13.33,13.33,0,0,0,2.19-1.8,4.75,4.75,0,0,1-1.9-.66c-.17-.2-.19-.48-.09-1.06,0-.29.31-1.75.8-2a.72.72,0,0,1,.38-.09,19,19,0,0,1,3.53.87c.4-.41,1.35-1.48,2.28-2.51C82.48,2.91,84.33.92,85,.71A4,4,0,0,1,86.29.5a2,2,0,0,1,1.49.44.68.68,0,0,1,.12.55,33.22,33.22,0,0,1-2.32,3.64c-1.53,2.3-3.44,5.16-3.86,6a23.64,23.64,0,0,0-1.57,5.09c1.51.61,9.93,3.23,11.08,3.5a10.3,10.3,0,0,0,1.18-1.23,8.83,8.83,0,0,1,2.35-2.18A4,4,0,0,1,96.33,16c.24,0,1.49,0,1.69.71.09.31,0,.54-1,2.21a29.28,29.28,0,0,0-1.46,2.57c2.47,1.3,2.67,1.52,2.56,2s-.4.56-3.19.56a29,29,0,0,0,.1,3c.12,2,.12,2.22-.1,2.45a.79.79,0,0,1-.59.22,3.74,3.74,0,0,1-2.48-1.38,8.85,8.85,0,0,1-1.07-3,10,10,0,0,0-.47-1.65c-1.12-.29-9.79-1.87-11.45-2a24.71,24.71,0,0,0-1,5.23c0,1,.34,4.37.62,7.12a30.84,30.84,0,0,1,.37,4.31A.67.67,0,0,1,78.13,38.75Z"/><path class="cls-2" d="M86.29,1c.64,0,1.18.15,1.12.37s-5.36,8-6.14,9.56-1.79,5.33-1.62,5.62,11,3.63,11.6,3.71h0c.59,0,2.53-3,3.69-3.47a3.44,3.44,0,0,1,1.37-.27c.65,0,1.16.17,1.21.35s-3,4.7-2.55,4.93,2.65,1.36,2.59,1.58-2.65.18-3,.18.18,5.34,0,5.56a.33.33,0,0,1-.23.06A3.23,3.23,0,0,1,92.2,28c-.81-1-1.14-4.6-1.68-4.79s-10.84-2.12-11.91-2.12h-.08c-.28.17-1.14,4-1.18,5.73s1.09,11,1,11.32c0,.08-.1.11-.22.11a3.51,3.51,0,0,1-1.91-1c-.67-.73-3.24-12-3.46-12.21A15.2,15.2,0,0,1,69,24.11a4.63,4.63,0,0,1,.58-2.35l.1,0a11.86,11.86,0,0,1,2.33.58c.23-.13-1.11-3.71-1.5-3.8s-4.48-.92-7.13-1.6c-2.23-.57-3.86-2.6-3.79-2.9a5.34,5.34,0,0,1,3.39-1,5.85,5.85,0,0,1,1.31.15C67,13.83,71,15,71.35,15.1h0c.46,0,3.21-2.45,3.07-2.67A9.51,9.51,0,0,1,72,11.8a4.66,4.66,0,0,1,.59-2.35s.06,0,.12,0a18.27,18.27,0,0,1,3.63,1c.3-.09,7.8-8.87,8.74-9.2A3.59,3.59,0,0,1,86.29,1m0-1a4.74,4.74,0,0,0-1.51.23c-.67.24-2,1.56-6.6,6.72-.75.85-1.59,1.78-2.06,2.28a16.48,16.48,0,0,0-3.38-.8,1.19,1.19,0,0,0-.64.16c-.58.35-.89,1.49-1,2.39a1.72,1.72,0,0,0,.2,1.46,2.84,2.84,0,0,0,1.26.62,12.93,12.93,0,0,1-1.23,1l-.58-.16c-1.46-.41-4.17-1.18-6.19-1.65A6.37,6.37,0,0,0,63,12.05c-1.33,0-4.06.52-4.36,1.73s2.23,3.52,4.51,4.11c2,.52,4.77,1.1,6.26,1.41l.58.12a14.27,14.27,0,0,1,.63,1.46,4.91,4.91,0,0,0-.92-.14,1.3,1.3,0,0,0-.49.09c-.44.19-.65.6-.85,1.2a3.75,3.75,0,0,0-.19,2.6c.41.69,2.69,1.12,3.86,1.3.18.67.48,1.88.76,3,1.7,6.72,2.24,8.49,2.72,9a4.35,4.35,0,0,0,2.64,1.33,1.17,1.17,0,0,0,1.19-.87c.07-.28.07-.44-.35-4.48-.27-2.59-.64-6.14-.62-7.06a24.22,24.22,0,0,1,.83-4.7c2.12.29,9,1.55,10.73,1.93.11.33.25.91.35,1.33a8.87,8.87,0,0,0,1.16,3.22,4.21,4.21,0,0,0,2.87,1.56,1.26,1.26,0,0,0,.95-.37c.39-.41.37-.78.24-2.83,0-.66-.11-1.73-.11-2.42,2.2,0,3-.07,3.19-.94s-.44-1.29-2.39-2.32c.32-.61.88-1.53,1.23-2.1,1.06-1.75,1.25-2.07,1.1-2.6-.28-1-1.61-1.08-2.17-1.08a4.57,4.57,0,0,0-1.77.35A8.94,8.94,0,0,0,92,18.18c-.29.32-.69.78-.93,1-1.61-.44-8.37-2.55-10.4-3.28a25.15,25.15,0,0,1,1.45-4.55c.42-.82,2.39-3.79,3.83-6,2.25-3.38,2.32-3.52,2.39-3.8a1.12,1.12,0,0,0-.21-1A2.29,2.29,0,0,0,86.29,0Z"/><path class="cls-1" d="M99.68,24.13c11.19,1.75,23,7.93,29,17.77,1.57,2.55,2.72,5.73,1.58,8.49a7.92,7.92,0,0,1-3.15,3.51,15.89,15.89,0,0,1-8,2.22c-7,.26-10.36-.63-16.8-3"/><path class="cls-3" d="M99.68,24.13l1,.17"/><path class="cls-4" d="M104.7,25.21c9.55,2.59,18.86,8.31,24,16.69,1.57,2.55,2.72,5.73,1.58,8.49a7.92,7.92,0,0,1-3.15,3.51,15.89,15.89,0,0,1-8,2.22,33.4,33.4,0,0,1-13.91-2"/><path class="cls-3" d="M103.35,53.43l-.94-.35"/></g></g></svg>