<?xml version="1.0" encoding="utf-8"?>
<!-- Generator: Adobe Illustrator 22.1.0, SVG Export Plug-In . SVG Version: 6.00 Build 0)  -->
<svg version="1.1" id="Livello_1" xmlns="http://www.w3.org/2000/svg" xmlns:xlink="http://www.w3.org/1999/xlink" x="0px" y="0px"
	 viewBox="0 0 200 100" style="enable-background:new 0 0 200 100;" xml:space="preserve">
<style type="text/css">
	.st0{fill:#FFFFFF;}
	.st1{fill:#218AE5;}
	.st2{fill:none;stroke:#218AE5;stroke-width:1.5;stroke-linecap:round;stroke-linejoin:round;}
	.st3{fill:none;stroke:#218AE5;stroke-width:1.5;stroke-linecap:round;stroke-linejoin:round;stroke-dasharray:1.9052,3.8104;}
</style>
<g>
	<g>
		<g>
			<g>
				<path class="st0" d="M166.1,97.5c-0.3,0-0.5-0.2-0.5-0.5s0.2-0.5,0.5-0.5h1c0.3,0,0.5,0.2,0.5,0.5s-0.2,0.5-0.5,0.5H166.1z"/>
				<path class="st1" d="M166.1,97h1H166.1L166.1,97 M166.1,96.1c-0.2,0-0.5,0.1-0.7,0.3c-0.2,0.2-0.3,0.4-0.3,0.7l0,0
					c0,0.5,0.4,0.9,0.9,0.9h1c0.5,0,0.9-0.4,0.9-0.9s-0.4-0.9-0.9-0.9L166.1,96.1L166.1,96.1L166.1,96.1z"/>
			</g>
			<g>
				<path class="st0" d="M167.1,97.5c-0.1,0-0.2,0-0.3-0.1s-0.1-0.2-0.1-0.3V93c0-0.1,0-0.2,0.1-0.3l1.3-10.6
					c-0.5-0.1-0.9-0.6-0.8-1.1c0.1-0.5,0.5-0.9,1-0.9h0.1h0.4l0.7-6c-0.5-0.1-0.8-0.6-0.7-1.1s0.5-0.9,1-0.9l0.7-5.9
					c-0.2-0.1-0.4-0.2-0.5-0.3c-0.2-0.2-0.2-0.5-0.2-0.7c0.1-0.5,0.5-0.9,1-0.9l0.7-6c-0.2-0.1-0.4-0.2-0.5-0.3
					c-0.2-0.2-0.2-0.5-0.2-0.7c0.1-0.5,0.5-0.9,1-0.9l0.7-5.9c-0.2-0.1-0.4-0.2-0.5-0.3c-0.2-0.2-0.2-0.5-0.2-0.7
					c0.1-0.5,0.5-0.9,1-0.9h0.1l1,0.1l0.6-4.8c-0.2-0.1-0.3-0.2-0.4-0.3c-0.1-0.2-0.2-0.4-0.2-0.7c0.1-0.5,0.4-0.8,0.9-0.8h0.1
					l11.4,1.4c0.2,0,0.5,0.1,0.6,0.3s0.2,0.4,0.2,0.7c-0.1,0.4-0.4,0.8-0.8,0.8l-0.6,4.8l1,0.1c0.5,0.1,0.9,0.6,0.9,1.1
					c-0.1,0.5-0.5,0.9-1,0.9l-0.7,5.9c0.2,0.1,0.4,0.2,0.5,0.3c0.2,0.2,0.2,0.5,0.2,0.7c-0.1,0.5-0.5,0.9-1,0.9l-0.7,6
					c0.2,0.1,0.4,0.2,0.5,0.3c0.2,0.2,0.2,0.5,0.2,0.7c-0.1,0.5-0.5,0.9-1,0.9l-0.7,5.9c0.2,0.1,0.4,0.2,0.5,0.3
					c0.2,0.2,0.2,0.5,0.2,0.7c-0.1,0.5-0.5,0.9-1,0.9l-0.7,6l0.4,0.1c0.3,0,0.5,0.2,0.7,0.4c0.2,0.2,0.2,0.5,0.2,0.8
					c-0.1,0.5-0.5,0.9-1,0.9l0,0l-1,8.5h0.7c0.3,0,0.5,0.2,0.5,0.5V97c0,0.3-0.2,0.5-0.5,0.5H167.1z M170.6,83.8
					c-0.2,0-0.4,0.2-0.4,0.4l-1.1,8.8h0.8l1.1-8.7c0-0.1,0-0.2-0.1-0.3C170.9,83.9,170.8,83.9,170.6,83.8L170.6,83.8z M179.6,93
					l0.9-7.6c0-0.1,0-0.2-0.1-0.3s-0.2-0.1-0.3-0.2H180c-0.2,0-0.4,0.2-0.4,0.4l-0.9,7.7H179.6z M176.4,93l1-8
					c0-0.2-0.1-0.4-0.4-0.5h-0.1c-0.2,0-0.4,0.2-0.4,0.4l-1,8.1H176.4z M173.2,93l1-8.3c0-0.2-0.1-0.4-0.4-0.5l0,0
					c-0.2,0-0.4,0.2-0.4,0.4l-1,8.4H173.2z M181.2,81.6l0.6-4.7c0-0.1,0-0.2-0.1-0.2c-0.1-0.1-0.1-0.1-0.2-0.1l0,0
					c-0.2,0-0.3,0.1-0.3,0.3l-0.6,4.6L181.2,81.6z M178.7,81.2l0.6-4.7c0-0.1,0-0.2-0.1-0.2s-0.1-0.1-0.2-0.1l0,0
					c-0.2,0-0.3,0.1-0.3,0.3l-0.6,4.6L178.7,81.2z M176.1,80.9l0.6-4.7c0-0.2-0.1-0.3-0.3-0.3l0,0c-0.2,0-0.3,0.1-0.3,0.3l-0.6,4.7
					H176.1z M173.6,80.6l0.6-4.6c0-0.2-0.1-0.3-0.3-0.3l0,0c-0.2,0-0.3,0.1-0.3,0.3l-0.6,4.7L173.6,80.6z M171,80.3l0.6-4.6
					c0-0.1,0-0.2-0.1-0.2s-0.1-0.1-0.2-0.1l0,0c-0.2,0-0.3,0.1-0.3,0.3l-0.6,4.7L171,80.3z M182.2,73.6l0.6-4.7
					c0-0.2-0.1-0.3-0.3-0.3l0,0c-0.2,0-0.3,0.1-0.3,0.3l-0.6,4.7H182.2z M179.7,73.3l0.6-4.7c0-0.1,0-0.2-0.1-0.2s-0.1-0.1-0.2-0.1
					l0,0c-0.2,0-0.3,0.1-0.3,0.3l-0.6,4.7L179.7,73.3z M177.1,73l0.6-4.6c0-0.1,0-0.2-0.1-0.2c0-0.1-0.1-0.1-0.2-0.1l0,0
					c-0.2,0-0.3,0.1-0.3,0.3l-0.6,4.6L177.1,73z M174.6,72.7l0.6-4.6c0-0.1,0-0.2-0.1-0.2s-0.1-0.1-0.2-0.1l0,0
					c-0.2,0-0.3,0.1-0.3,0.3l-0.6,4.6L174.6,72.7z M172,72.4l0.6-4.6c0-0.2-0.1-0.3-0.3-0.3l0,0c-0.2,0-0.3,0.1-0.3,0.3l-0.6,4.7
					L172,72.4z M183.2,65.7l0.6-4.6c0-0.2-0.1-0.3-0.3-0.3l0,0c-0.2,0-0.3,0.1-0.3,0.3l-0.6,4.7L183.2,65.7z M180.6,65.4l0.6-4.7
					c0-0.1,0-0.2-0.1-0.2s-0.1-0.1-0.2-0.1l0,0c-0.2,0-0.3,0.1-0.3,0.3l-0.6,4.6L180.6,65.4z M178.1,65.1l0.6-4.7
					c0-0.1,0-0.2-0.1-0.2s-0.1-0.1-0.2-0.1l0,0c-0.2,0-0.3,0.1-0.3,0.3l-0.6,4.6L178.1,65.1z M175.5,64.8l0.6-4.7
					c0-0.1,0-0.2-0.1-0.2s-0.1-0.1-0.2-0.1l0,0c-0.2,0-0.3,0.1-0.3,0.3l-0.6,4.6L175.5,64.8z M173,64.5l0.6-4.6c0-0.1,0-0.2-0.1-0.2
					s-0.1-0.1-0.2-0.1l0,0c-0.2,0-0.3,0.1-0.3,0.3l-0.6,4.7L173,64.5z M184.2,57.8l0.6-4.7c0-0.2-0.1-0.3-0.3-0.3l0,0
					c-0.2,0-0.3,0.1-0.3,0.3l-0.6,4.7H184.2z M181.6,57.5l0.6-4.6c0-0.2-0.1-0.3-0.3-0.3l0,0c-0.2,0-0.3,0.1-0.3,0.3l-0.6,4.7
					L181.6,57.5z M179,57.2l0.6-4.7c0-0.2-0.1-0.3-0.3-0.3l0,0c-0.2,0-0.3,0.1-0.3,0.3l-0.6,4.6L179,57.2z M176.5,56.9l0.6-4.7
					c0-0.1,0-0.2-0.1-0.2c-0.1-0.1-0.1-0.1-0.2-0.1l0,0c-0.2,0-0.3,0.1-0.3,0.3l-0.6,4.6L176.5,56.9z M173.9,56.5l0.6-4.7
					c0-0.1,0-0.2-0.1-0.2s-0.1-0.1-0.2-0.1l0,0c-0.2,0-0.3,0.1-0.3,0.3l-0.6,4.6L173.9,56.5z M183.5,49.7l0.4-3c0-0.1,0-0.1-0.1-0.2
					c0-0.1-0.1-0.1-0.2-0.1h-0.1c-0.1,0-0.2,0.1-0.3,0.2l-0.4,3L183.5,49.7z M180,49.2l0.4-3c0-0.1-0.1-0.3-0.2-0.3h-0.1
					c-0.1,0-0.2,0.1-0.3,0.2l-0.4,3L180,49.2z M176.6,48.8l0.4-3c0-0.1,0-0.1-0.1-0.2s-0.1-0.1-0.2-0.1h-0.1c-0.1,0-0.2,0.1-0.3,0.2
					l-0.4,3L176.6,48.8z"/>
				<path class="st1" d="M174.7,42.3C174.7,42.3,174.7,42.4,174.7,42.3l11.5,1.4c0.2,0,0.4,0.2,0.4,0.5l0,0c0,0.2-0.2,0.4-0.4,0.4
					c0,0,0,0-0.1,0h-0.3l-0.7,5.7H185l1.5,0.2c0.3,0,0.5,0.3,0.5,0.6l0,0c0,0.3-0.3,0.5-0.5,0.5c0,0,0,0-0.1,0h-0.3l-0.8,6.8h0.3
					c0.3,0,0.5,0.3,0.5,0.6l0,0c0,0.3-0.3,0.5-0.5,0.5c0,0,0,0-0.1,0h-0.3l-0.8,6.9l0,0h0.4c0.3,0,0.5,0.3,0.5,0.6l0,0
					c0,0.3-0.3,0.5-0.5,0.5c0,0,0,0-0.1,0h-0.3l-0.8,6.8h0.3c0.3,0,0.5,0.3,0.5,0.6l0,0c0,0.3-0.3,0.5-0.5,0.5c0,0,0,0-0.1,0h-0.3
					l-0.8,6.9l0,0l0.9,0.1c0.3,0,0.5,0.3,0.5,0.6l0,0c0,0.3-0.3,0.5-0.6,0.5c0,0,0,0-0.1,0l-0.4,0.1l-1.2,9.4h1.2v4h-15.6v-4.1h0.1
					l1.4-11.2l-0.4-0.1c-0.3,0-0.5-0.3-0.5-0.6l0,0c0-0.3,0.3-0.5,0.6-0.5c0,0,0,0,0.1,0l0.9,0.1h-0.1l0.8-6.9H170
					c-0.3,0-0.5-0.3-0.5-0.6l0,0c0-0.3,0.3-0.5,0.5-0.5c0,0,0,0,0.1,0h0.3l0.8-6.8h-0.3c-0.3,0-0.5-0.3-0.5-0.6l0,0
					c0-0.3,0.3-0.5,0.5-0.5c0,0,0,0,0.1,0h0.4l0,0l0.8-6.9h-0.3c-0.3,0-0.5-0.3-0.5-0.6l0,0c0-0.3,0.3-0.5,0.5-0.5c0,0,0,0,0.1,0
					h0.3l0.8-6.8h-0.3c-0.3,0-0.5-0.3-0.5-0.6l0,0c0-0.3,0.3-0.5,0.5-0.5c0,0,0,0,0.1,0l1.5,0.2h-0.1l0.7-5.7h-0.3
					c-0.2,0-0.4-0.2-0.4-0.5l0,0C174.3,42.5,174.5,42.3,174.7,42.3 M177,49.3l0.4-3.4c0-0.4-0.2-0.8-0.6-0.8h-0.1h-0.1
					c-0.4,0-0.7,0.3-0.7,0.6l-0.4,3.4L177,49.3 M180.4,49.7l0.4-3.4c0-0.4-0.2-0.8-0.6-0.8h-0.1H180c-0.4,0-0.7,0.3-0.7,0.6
					l-0.4,3.4L180.4,49.7 M183.9,50.2l0.4-3.4c0-0.4-0.2-0.8-0.6-0.8h-0.1h-0.1c-0.4,0-0.7,0.3-0.7,0.6l-0.4,3.4L183.9,50.2
					 M174.3,57.1l0.6-5.1c0.1-0.4-0.2-0.8-0.7-0.9h-0.1c-0.4,0-0.7,0.3-0.8,0.7l-0.6,5.1L174.3,57.1 M176.9,57.4l0.6-5.1
					c0.1-0.4-0.2-0.8-0.7-0.9h-0.1c-0.4,0-0.7,0.3-0.8,0.7l-0.6,5.1L176.9,57.4 M179.5,57.7l0.6-5.1c0.1-0.4-0.2-0.8-0.7-0.9h-0.1
					c-0.4,0-0.7,0.3-0.8,0.7l-0.6,5.1L179.5,57.7 M182,58l0.6-5.1c0.1-0.4-0.2-0.8-0.7-0.9h-0.1c-0.4,0-0.7,0.3-0.8,0.7l-0.6,5.1
					L182,58 M184.6,58.3l0.6-5.1c0.1-0.4-0.2-0.8-0.7-0.9h-0.1c-0.4,0-0.7,0.3-0.8,0.7l-0.6,5.1L184.6,58.3 M173.4,65l0.6-5.1
					c0.1-0.4-0.2-0.8-0.7-0.9h-0.1c-0.4,0-0.7,0.3-0.8,0.7l-0.6,5.1L173.4,65 M175.9,65.3l0.6-5.1c0.1-0.4-0.2-0.8-0.7-0.9h-0.1
					c-0.4,0-0.7,0.3-0.8,0.7l-0.6,5.1L175.9,65.3 M178.5,65.6l0.6-5.1c0.1-0.4-0.2-0.8-0.7-0.9h-0.1c-0.4,0-0.7,0.3-0.8,0.7
					l-0.6,5.1L178.5,65.6 M181,65.9l0.6-5.1c0.1-0.4-0.2-0.8-0.7-0.9h-0.1c-0.4,0-0.7,0.3-0.8,0.7l-0.6,5.1L181,65.9 M183.6,66.2
					l0.6-5.1c0.1-0.4-0.2-0.8-0.7-0.9h-0.1c-0.4,0-0.7,0.3-0.8,0.7L182,66L183.6,66.2 M172.4,72.9l0.6-5.1c0.1-0.4-0.2-0.8-0.7-0.9
					h-0.1c-0.4,0-0.7,0.3-0.8,0.7l-0.6,5.1L172.4,72.9 M175,73.2l0.6-5.1c0.1-0.4-0.2-0.8-0.7-0.9h-0.1c-0.4,0-0.7,0.3-0.8,0.7
					l-0.6,5.1L175,73.2 M177.5,73.5l0.6-5.1c0.1-0.4-0.2-0.8-0.7-0.9h-0.1c-0.4,0-0.7,0.3-0.8,0.7l-0.6,5.1L177.5,73.5 M180.1,73.8
					l0.6-5.1c0.1-0.4-0.2-0.8-0.7-0.9h-0.1c-0.4,0-0.7,0.3-0.8,0.7l-0.6,5.1L180.1,73.8 M182.6,74.2l0.6-5.1
					c0.1-0.4-0.2-0.8-0.7-0.9h-0.1c-0.4,0-0.7,0.3-0.8,0.7L181,74L182.6,74.2 M171.4,80.8l0.6-5.1c0.1-0.4-0.2-0.8-0.7-0.9h-0.1
					c-0.4,0-0.7,0.3-0.8,0.7l-0.6,5.1L171.4,80.8 M174,81.1l0.6-5.1c0.1-0.4-0.2-0.8-0.7-0.9h-0.1c-0.4,0-0.7,0.3-0.8,0.7l-0.6,5.1
					L174,81.1 M176.5,81.4l0.6-5.1c0.1-0.4-0.2-0.8-0.7-0.9h-0.1c-0.4,0-0.7,0.3-0.8,0.7l-0.6,5.1L176.5,81.4 M179.1,81.8l0.6-5.1
					c0.1-0.4-0.2-0.8-0.7-0.9h-0.1c-0.4,0-0.7,0.3-0.8,0.7l-0.6,5.1L179.1,81.8 M181.6,82.1l0.6-5.1c0.1-0.4-0.2-0.8-0.7-0.9h-0.1
					c-0.4,0-0.7,0.3-0.8,0.7l-0.6,5.1L181.6,82.1 M168.8,93.5h1.6l1.1-9.1c0.1-0.5-0.3-0.9-0.8-1h-0.1c-0.4,0-0.8,0.3-0.9,0.8
					l-1.1,9.3L168.8,93.5 M171.8,93.5h1.8l1.1-8.8c0.1-0.5-0.3-0.9-0.8-1h-0.1c-0.4,0-0.8,0.3-0.9,0.8L171.8,93.5 M175,93.5h1.8
					l1-8.4c0.1-0.5-0.3-0.9-0.8-1h-0.1c-0.4,0-0.8,0.3-0.9,0.8L175,93.5 M178.2,93.5h1.8l1-8c0.1-0.5-0.3-0.9-0.8-1h-0.1
					c-0.4,0-0.8,0.3-0.9,0.8L178.2,93.5 M174.7,41.4L174.7,41.4c-0.7,0-1.3,0.5-1.3,1.2c-0.1,0.5,0.2,1,0.6,1.3l-0.5,4l-0.5-0.1
					c-0.1,0-0.1,0-0.2,0c-0.7,0-1.3,0.5-1.4,1.3c-0.1,0.6,0.2,1.2,0.7,1.4l-0.6,5.3c-0.5,0.2-0.9,0.6-1,1.2
					c-0.1,0.4,0.1,0.8,0.3,1.1c0.1,0.1,0.2,0.3,0.4,0.4l-0.6,5.3c-0.5,0.2-0.9,0.6-1,1.2c-0.1,0.4,0.1,0.8,0.3,1.1
					c0.1,0.1,0.2,0.3,0.4,0.4l-0.6,5.3c-0.5,0.2-0.9,0.6-1,1.2s0.2,1.2,0.7,1.4l-0.6,5.2h-0.1c-0.8,0-1.4,0.6-1.5,1.3
					c-0.1,0.6,0.2,1.2,0.7,1.5l-1.2,10.1c-0.1,0.1-0.1,0.3-0.1,0.4V97c0,0.2,0.1,0.5,0.3,0.7s0.4,0.3,0.7,0.3h15.6
					c0.5,0,0.9-0.4,0.9-0.9V93c0-0.5-0.4-0.9-0.9-0.9h-0.1l0.9-7.7c0.6-0.2,1-0.6,1.1-1.3c0.1-0.8-0.5-1.6-1.2-1.7l0.6-5.2
					c0.5-0.2,0.9-0.6,1-1.2s-0.2-1.2-0.7-1.4l0.6-5.3c0.5-0.2,0.9-0.6,1-1.2s-0.2-1.2-0.7-1.4l0.6-5.3c0.5-0.2,0.9-0.6,1-1.2
					c0.1-0.4-0.1-0.8-0.3-1.1c-0.1-0.1-0.2-0.3-0.4-0.4l0.6-5.3c0.5-0.2,0.9-0.6,1-1.2c0.1-0.4-0.1-0.8-0.3-1.1s-0.6-0.5-1-0.5
					l-0.5-0.1l0.5-4c0.5-0.2,0.8-0.6,0.9-1.1c0.1-0.8-0.4-1.4-1.2-1.5l-11.4-1.4C174.8,41.4,174.8,41.4,174.7,41.4L174.7,41.4
					L174.7,41.4z"/>
			</g>
		</g>
		<g>
			<g>
				<path class="st0" d="M43.7,88.5l-1.3-0.2c-0.2,0-0.4-0.2-0.4-0.5v-0.7c0-0.1,0-0.2,0.1-0.3c0.8-0.9,1.6-1.5,1.8-1.8
					c0.1-0.1,0.2-0.1,0.3-0.1s0.1,0,0.2,0c0.2,0.1,0.3,0.2,0.3,0.4v0.2c0,0.1,0,0.1,0,0.2c-0.1,0.5-0.4,1.4-0.4,2.4
					c0,0.1-0.1,0.3-0.2,0.3C43.9,88.4,43.8,88.5,43.7,88.5L43.7,88.5z"/>
				<path class="st1" d="M44.2,85.4v0.2C44,86.1,43.8,87,43.7,88c-0.2,0-0.8-0.1-1.4-0.2v-0.7C43.2,86.2,43.9,85.6,44.2,85.4
					 M44.2,84.4c-0.2,0-0.4,0.1-0.6,0.2c-0.3,0.2-1.1,0.9-1.9,1.8c-0.2,0.2-0.2,0.4-0.2,0.6v0.7c0,0.5,0.3,0.8,0.8,0.9l1.3,0.2h0.1
					c0.2,0,0.4-0.1,0.6-0.2c0.2-0.2,0.3-0.4,0.3-0.7c0.1-0.9,0.3-1.8,0.4-2.2c0-0.1,0.1-0.3,0-0.4v-0.2c0-0.3-0.3-0.6-0.6-0.7
					C44.4,84.5,44.3,84.4,44.2,84.4L44.2,84.4z"/>
			</g>
			<g>
				<path class="st0" d="M22,97.5c-0.3,0-0.5-0.2-0.5-0.5l-0.1-20.7h-2.8c-0.3,0-0.5-0.2-0.5-0.5v-2c0-0.1,0-0.2,0.1-0.3
					c0.1-0.1,0.2-0.1,0.3-0.1h2v-0.5c0-0.3,0.2-0.5,0.5-0.5h0.3V71h-3.9c-0.1,0-0.2,0-0.3-0.1S17,70.7,17,70.6v-0.4h-1
					c-0.2,0-0.4-0.1-0.4-0.3l-1.8-4.7c-0.1-0.2,0-0.4,0.2-0.5c0.1-0.1,0.2-0.1,0.3-0.1s0.2,0,0.3,0.1c1,1,7.4,1.8,16.9,2.3
					c0.6,0,1.2,0,1.8,0c0.7,0,1.3,0,2-0.1c9.6-0.5,15.9-1.4,16.9-2.4c0.1-0.1,0.2-0.1,0.3-0.1s0.2,0,0.3,0.1
					c0.2,0.1,0.3,0.3,0.2,0.5l-1.8,4.7C51.1,69.9,51,70,50.8,70h-1v0.4c0,0.1,0,0.2-0.1,0.3c-0.1,0.1-0.2,0.1-0.3,0.1h-3.9v1.4h0.3
					c0.1,0,0.2,0,0.3,0.1s0.1,0.2,0.1,0.3v0.5h2c0.3,0,0.5,0.2,0.5,0.5v2c0,0.3-0.2,0.5-0.5,0.5h-2.8v5.1c0,0.1-0.1,0.3-0.2,0.3
					c-0.1,0.1-0.2,0.1-0.3,0.1c0,0,0,0-0.1,0c-0.3,0-0.6-0.1-0.8-0.1l0.4,2.7c0,0.2,0,0.3-0.2,0.4c-0.1,0.1-0.2,0.1-0.3,0.1h-0.1
					c-0.5-0.1-1.1-0.3-1.6-0.4c-0.2,0-0.4-0.2-0.4-0.5v-7.9H25L25.1,97c0,0.1,0,0.2-0.1,0.3c-0.1,0.1-0.2,0.1-0.3,0.1
					C24.7,97.5,22,97.5,22,97.5z M25.4,72.4c0.3,0,0.5,0.2,0.5,0.5v0.5h15.2v-0.5c0-0.3,0.2-0.5,0.5-0.5h0.3V71H25.1v1.4
					C25.1,72.4,25.4,72.4,25.4,72.4z"/>
				<path class="st1" d="M52.6,64.9l-1.8,4.7h-1.4v0.9h-4.3v2.3h0.8v1h2.4v2h-3.2v5.5c-0.5-0.1-0.9-0.1-1.4-0.1l0.5,3.3
					c-0.6-0.2-1.1-0.3-1.7-0.4v-8.4H24.8L24.7,97H22V75.8h-3.2v-2h2.4v-1H22v-2.3h-4.3v-0.9h-1.4l-2-4.6c1.6,1.5,11.7,2.1,17.2,2.4
					c0.6,0,1.2,0,1.8,0c0.7,0,1.3,0,2-0.1C40.9,67.1,51,66.3,52.6,64.9 M24.6,72.8h0.8v1h16.2v-1h0.8v-2.3H24.7L24.6,72.8
					 M52.6,63.9c-0.2,0-0.5,0.1-0.6,0.3c-0.3,0.2-2.2,1.5-16.6,2.3c-0.6,0-1.3,0.1-1.9,0.1c-0.6,0-1.2,0-1.8,0
					c-14.4-0.7-16.4-1.9-16.6-2.2c-0.2-0.2-0.4-0.2-0.6-0.2c-0.2,0-0.4,0.1-0.5,0.2c-0.4,0.2-0.5,0.7-0.3,1.1l1.8,4.7
					c0.1,0.4,0.5,0.6,0.9,0.6l0,0h0.5c0,0.2,0.1,0.5,0.3,0.6c0.2,0.2,0.4,0.3,0.6,0.3l0,0h3.4v0.5c-0.2,0-0.4,0.1-0.5,0.3
					c-0.2,0.2-0.3,0.4-0.3,0.7v0.1h-1.5c-0.2,0-0.5,0.1-0.7,0.3c-0.2,0.2-0.3,0.4-0.3,0.7v2c0,0.2,0.1,0.5,0.3,0.7
					c0.2,0.2,0.4,0.3,0.6,0.3l0,0h2.3l0,19.7c0,0.5,0.4,0.9,0.9,0.9l0,0h2.7c0.2,0,0.5-0.1,0.7-0.3c0.2-0.2,0.3-0.4,0.3-0.7
					l-0.1-20.2h15.9v7.4c0,0.5,0.3,0.8,0.8,0.9s1.1,0.2,1.6,0.4c0.1,0,0.2,0,0.2,0c0.2,0,0.4-0.1,0.6-0.2c0.2-0.2,0.3-0.5,0.3-0.8
					l-0.3-2.2c0.1,0,0.2,0,0.2,0H45c0.2,0,0.4-0.1,0.6-0.2c0.2-0.2,0.3-0.4,0.3-0.7v-4.6h2.3c0.5,0,0.9-0.4,0.9-0.9v-2
					c0-0.2-0.1-0.5-0.3-0.7s-0.4-0.3-0.6-0.3l0,0h-1.5v-0.1c0-0.2-0.1-0.5-0.3-0.7c-0.1-0.1-0.3-0.2-0.5-0.3v-0.5h3.4
					c0.5,0,0.9-0.4,0.9-0.9h0.5c0.4,0,0.7-0.2,0.9-0.6l1.8-4.7c0.2-0.4,0-0.9-0.3-1.1C52.9,64,52.7,63.9,52.6,63.9L52.6,63.9z
					 M52.6,65.8L52.6,65.8L52.6,65.8L52.6,65.8z M25.5,71.4h15.9v0.5c-0.2,0-0.4,0.1-0.5,0.3c-0.2,0.2-0.3,0.4-0.3,0.7V73H26.3v-0.1
					c0-0.2-0.1-0.5-0.3-0.7c-0.1-0.1-0.3-0.2-0.5-0.3L25.5,71.4L25.5,71.4z"/>
			</g>
		</g>
		<g>
			<g>
				<path class="st0" d="M73.3,88.9c-0.1,0-0.2,0-0.3-0.1c-0.1-0.1-0.2-0.2-0.2-0.4l0,0c0-0.3,0.2-0.5,0.5-0.5
					c0.2,0,0.4,0.2,0.5,0.4c0,0.2,0,0.4-0.3,0.5C73.4,88.8,73.3,88.9,73.3,88.9z"/>
				<path class="st1" d="M73.3,88.4L73.3,88.4 M73.3,88.4L73.3,88.4L73.3,88.4L73.3,88.4 M73.3,87.5L73.3,87.5L73.3,87.5
					c-0.3,0-0.5,0.1-0.7,0.3c-0.2,0.2-0.3,0.4-0.3,0.7c0,0.3,0.2,0.6,0.4,0.8c0.2,0.1,0.3,0.2,0.5,0.2c0.1,0,0.2,0,0.3-0.1l0,0
					c0.4-0.1,0.6-0.5,0.6-0.9C74.2,87.9,73.8,87.5,73.3,87.5L73.3,87.5L73.3,87.5L73.3,87.5z M73.3,89.3L73.3,89.3L73.3,89.3
					L73.3,89.3z"/>
			</g>
			<g>
				<path class="st0" d="M87.6,97.5c-0.1,0-0.2,0-0.3-0.1c-0.1-0.1-0.1-0.2-0.1-0.3V96h-0.7c-0.1,0-0.2,0-0.3-0.1L84,93.8h-1.6
					c-0.3,0-0.5-0.2-0.5-0.5v-1l-2.6-1.4c-0.2-0.1-0.2-0.2-0.2-0.4v-0.8c0-0.1,0-0.2,0.1-0.3l1.2-1.3c0.1-0.1,0.2-0.1,0.3-0.1l0,0
					c0-0.1,0-0.2,0.1-0.3l0.3-0.3c-0.1,0-0.2-0.1-0.3-0.1c-0.1,0.1-0.2,0.1-0.3,0.1c-0.2,0-0.5,0-0.7,0l0,0c-0.1,0-0.2,0-0.3-0.1
					c-0.1,0.1-0.2,0.2-0.3,0.2c-0.2,0-0.5,0.1-0.7,0.1c0,0,0,0-0.1,0s-0.2,0-0.3-0.1c-0.1,0.1-0.2,0.2-0.3,0.2
					c-0.2,0-0.5,0.1-0.7,0.1H77c-0.1,0-0.2,0-0.3-0.1c-0.1,0.1-0.2,0.2-0.3,0.2C76.2,88,76,88,75.7,88.1h-0.1c-0.1,0-0.2,0-0.3-0.1
					c-0.1-0.1-0.2-0.2-0.2-0.4V72.8v-0.2c-0.2-0.2-0.4-0.4-0.5-0.7c-0.1-0.2-0.1-0.3-0.1-0.5c-0.1,0-0.2,0-0.2,0
					c-0.1,0-0.2-0.1-0.3-0.2c0,0,0-0.1,0-0.3l0.5-6.6c-0.9-0.4-2.7-1-3.2-1.1c0,0-0.1,0-0.2,0c-0.4,0-1,0.1-1.6,0.2
					c-0.6,0.1-1.2,0.2-1.6,0.2c-0.2,0-0.4,0-0.5-0.1c-0.2-0.1-2.2-2.7-2.9-3.9c-0.2,0-0.4-0.1-0.6-0.1c-0.5,0.1-1.4,0.1-1.4,0.1
					h-0.1c-0.2,0-0.7-0.1-1.7-0.3c-0.3-0.1-0.5-0.1-0.6-0.1c-0.2,0-0.3-0.1-0.4-0.3l0,0c-0.2,0-0.4-0.1-0.5-0.3
					c-0.4-0.1-0.5-0.4-0.5-0.6c0-0.1,0.1-0.3,0.1-0.4c0.1-0.1,0.2-0.2,0.4-0.2l0,0c0.2-0.2,0.5-0.3,0.6-0.3h0.5V57
					c0-0.3,0.3-0.4,0.5-0.4h0.1h0.3c0.1,0,0.3,0,0.4,0c0.1,0,0.2,0,0.2,0c0.3,0,0.5,0,0.8,0.1c0.6,0.1,1,0.4,1.2,0.5h0.6h0.1
					c0.1,0,0.5,0.1,1.6,0.1c1.6,0,3.7-0.1,4.1-0.2c0.1,0,0.4-0.1,1.5-0.4c0.6-0.2,1.2-0.4,1.7-0.5c0.4-0.1,0.8-0.2,0.9-0.3
					c0.1,0,0.4-0.1,2.2-0.1h0.4c0.2-0.1,0.4-1,0.4-1.9c-0.1-3.3,1.9-3.8,2.5-3.9c0.1,0,0.1,0,0.2,0h0.1c0,0,0,0,0.1,0s0.1,0,0.2,0
					s0.2,0,0.2,0c0.7,0.2,2.4,0.9,2.3,3.9c0,0.8,0.2,1.7,0.4,1.9h0.4c1.7,0,2,0.1,2.1,0.1s0.5,0.1,0.9,0.3c0.9,0.3,2.9,0.8,3.2,0.9
					c0.4,0,2.5,0.2,4.1,0.2c0.5,0,0.9,0,1.2,0c0.2,0,0.3,0,0.4-0.1h0.1h0.6c0.2-0.1,0.6-0.4,1.2-0.5c0.3-0.1,0.6-0.1,1-0.1
					c0.2,0,0.3,0,0.4,0h0.2h0.2c0.3,0,0.5,0.2,0.5,0.5l0,0h0.5c0.1,0,0.4,0,0.6,0.3l0,0c0.1,0,0.3,0.1,0.4,0.2
					c0.1,0.1,0.2,0.3,0.1,0.4c0,0.2-0.1,0.5-0.5,0.6c-0.1,0.2-0.3,0.3-0.5,0.3l0,0c-0.1,0.1-0.2,0.2-0.4,0.3c-0.1,0-0.3,0.1-0.6,0.1
					c-1,0.2-1.5,0.3-1.7,0.3h-0.1c0,0-0.9,0-1.4-0.1c-0.1,0-0.4,0-0.6,0.1c-0.6,1.2-2.6,3.8-2.8,3.9c-0.1,0.1-0.3,0.1-0.5,0.1
					c-0.4,0-1-0.1-1.6-0.2c-0.6-0.1-1.2-0.2-1.6-0.2c-0.1,0-0.1,0-0.2,0c-0.4,0.1-1.4,0.4-2.8,0.9v14.2c0,0.4-0.3,0.7-0.6,0.9v8.6
					h2.2c0.3,0,0.5,0.2,0.5,0.5v1.3c0,0.1,0,0.2-0.1,0.3C88,90,87.9,90,87.9,90v5.1c0.2,0,0.4,0.2,0.4,0.5v1.3c0,0.1,0,0.2-0.1,0.3
					c-0.1,0.1-0.2,0.1-0.3,0.1C88.3,97.5,87.6,97.5,87.6,97.5z"/>
				<path class="st1" d="M80.3,50.6L80.3,50.6L80.3,50.6C80.3,50.6,80.4,50.6,80.3,50.6C80.4,50.6,80.4,50.6,80.3,50.6L80.3,50.6
					L80.3,50.6L80.3,50.6c0.2,0,0.3,0,0.4,0.1c0.7,0.2,2,0.8,2,3.5c0,0,0.1,2.3,0.9,2.3c0,0,0.2,0,0.5,0c0.6,0,1.7,0,2,0.1
					c0.4,0.1,3.7,1.1,4.2,1.1c0.4,0,2.5,0.2,4.1,0.2c0.5,0,0.9,0,1.2,0l0,0c0.2,0,0.4,0,0.5-0.1h0.7c0,0,0.4-0.4,1.1-0.5
					c0.3-0.1,0.6-0.1,0.9-0.1s0.5,0,0.7,0c0.1,0,0.1,0,0.2,0l0,0c0.2,0,0.1,0.4-0.4,0.5l1.5,0.1c0,0,0.3,0,0.3,0.2l0,0
					c0,0,0.4,0,0.4,0.2s-0.2,0.2-0.4,0.2c0,0,0,0.2-0.2,0.3c-0.2,0-0.3,0-0.3,0s0,0.2-0.2,0.2s-1.9,0.4-2.2,0.4h-0.1
					c-0.4,0-1.2,0-1.3-0.1l-0.9,0.1l0,0c0,0-2.3,3.7-2.8,3.9c-0.1,0-0.2,0-0.3,0c-0.7,0-2.4-0.3-3.2-0.3c-0.1,0-0.2,0-0.3,0
					C88.7,63,87,63.7,86.2,64v14.6c0,0.3-0.6,0.6-0.6,0.6v1.3v8h0.2l0,0h2.1h0.4v1.3h-0.4v6h0.4v1.3L88,97h-0.4v-1.6h-1.2l-2.3-2.1
					H84h-1.6V92l-2.9-1.5v-0.8l1.2-1.3h0.5v-0.5l0.7-0.8v1.3h0.7v-9.6l0.7,0.5v9.2H84v-8.8l0.6,0.4L84,79.6l0,0l-0.7-0.4l0,0
					l-0.7-0.5L82,78.3v8.5c-0.2,0-0.4,0-0.7,0v-8.9l-0.7-0.4v9.4c-0.2,0-0.5,0-0.7,0v-9.8l-0.7-0.4V87c-0.2,0-0.5,0.1-0.7,0.1V76.2
					l-0.7-0.4v11.4c-0.2,0-0.5,0.1-0.7,0.1v-12l-0.7-0.4v12.6c-0.2,0.1-0.5,0.1-0.7,0.2V72.9v-0.4c-0.8-0.4-0.5-1.3-0.5-1.4
					c0,0-0.1,0-0.2,0c-0.2,0-0.5,0-0.5,0l0.5-7c0,0-2.8-1.1-3.6-1.2c-0.1,0-0.2,0-0.3,0c-0.8,0-2.5,0.4-3.2,0.4c-0.1,0-0.2,0-0.3,0
					c-0.4-0.2-2.8-3.9-2.8-3.9l-0.9-0.1c-0.2,0.1-1,0.1-1.4,0.1h-0.1c-0.3,0-2.1-0.4-2.2-0.4C60,59,60,58.8,60,58.8l0,0
					c0,0-0.1,0-0.2,0h-0.1c-0.2,0-0.2-0.3-0.2-0.3c-0.2,0-0.4,0-0.4-0.2s0.4-0.2,0.4-0.2c0-0.2,0.3-0.2,0.3-0.2l1.2-0.1h0.3
					c-0.1,0-0.1,0-0.2,0c-0.4-0.2-0.4-0.4-0.3-0.4l0,0c0,0,0.1,0,0.2,0c0.2,0,0.4,0,0.7,0c0.1,0,0.1,0,0.2,0c0.2,0,0.5,0,0.7,0.1
					c0.8,0.2,1.1,0.5,1.1,0.5h0.7c0.3,0.1,0.9,0.1,1.7,0.1c1.6,0,3.8-0.1,4.2-0.2c0.2,0,0.9-0.2,1.6-0.4c1.1-0.3,2.4-0.7,2.6-0.8
					c0.3-0.1,1.5-0.1,2.1-0.1c0.2,0,0.4,0,0.4,0c0.8,0,0.9-2.3,0.9-2.3C78,51,79.8,50.6,80.3,50.6L80.3,50.6 M84.7,88.4h0.5v-7.9
					l-0.5-0.4V88.4 M82.6,78.7L82.6,78.7 M80.3,49.6c-0.1,0-0.2,0-0.3,0.1c-0.8,0.1-3,0.9-2.9,4.4c0,0.5-0.1,1.1-0.2,1.4h-0.1
					c-1.9,0-2.2,0.1-2.3,0.1c-0.1,0-0.5,0.1-0.9,0.3c-0.5,0.1-1.1,0.3-1.7,0.5c-1.1,0.3-1.4,0.4-1.4,0.4c-0.4,0-2.5,0.2-4.1,0.2
					c-1.1,0-1.4-0.1-1.4-0.1c-0.1,0-0.2,0-0.3,0l0,0h-0.4c-0.3-0.2-0.7-0.4-1.2-0.5c-0.3-0.1-0.5-0.1-0.9-0.1c-0.1,0-0.2,0-0.3,0
					c-0.2,0-0.3,0-0.5,0c-0.1,0-0.2,0-0.2,0l0,0c-0.1,0-0.2,0-0.3,0c-0.4,0-0.7,0.2-0.9,0.5h-0.2c-0.2,0-0.5,0.1-0.8,0.3
					c-0.2,0.1-0.3,0.2-0.5,0.3c-0.2,0.2-0.3,0.5-0.3,0.8c0,0.1,0.1,0.6,0.6,0.9c0.1,0.2,0.3,0.3,0.5,0.4c0.2,0.2,0.4,0.3,0.6,0.3
					c0.1,0,0.3,0.1,0.6,0.1c1.1,0.2,1.5,0.3,1.8,0.3h0.1c0.1,0,0.9,0,1.4-0.1c0.1,0,0.2,0,0.3,0c0.2,0.3,0.5,0.8,1,1.5
					c1.4,2.1,1.7,2.2,1.9,2.3c0.2,0.1,0.4,0.1,0.7,0.1c0.4,0,1-0.1,1.7-0.2c0.6-0.1,1.2-0.2,1.5-0.2H71c0.4,0.1,1.7,0.5,2.8,0.9
					l-0.5,6.3c0,0.2,0.1,0.5,0.2,0.7c0.1,0.1,0.3,0.2,0.5,0.3c0,0.1,0,0.1,0.1,0.2c0.1,0.3,0.3,0.6,0.5,0.8v14.7
					c0,0.3,0.1,0.6,0.4,0.7c0.2,0.1,0.4,0.2,0.6,0.2c0.1,0,0.2,0,0.2,0c0.2-0.1,0.5-0.1,0.7-0.2c0.1,0,0.2-0.1,0.3-0.1h0.1
					c0.1,0,0.1,0,0.2,0c0.2-0.1,0.5-0.1,0.7-0.1c0.1,0,0.2-0.1,0.3-0.1c0.1,0,0.1,0,0.2,0h0.1c0.2,0,0.5-0.1,0.7-0.1
					c0.1,0,0.2,0,0.3-0.1c0.1,0,0.2,0,0.3,0c0,0,0,0,0.1,0s0.1,0,0.2,0l0,0L78.8,89c-0.2,0.2-0.2,0.4-0.2,0.6v0.8
					c0,0.3,0.2,0.7,0.5,0.8l2.4,1.2v0.8c0,0.5,0.4,0.9,0.9,0.9h1.4l2,1.8c0.2,0.2,0.4,0.2,0.6,0.2h0.2V97c0,0.2,0.1,0.5,0.3,0.7
					c0.2,0.2,0.4,0.3,0.7,0.3l0,0H88h0.4c0.5,0,0.9-0.4,0.9-0.9v-1.3c0-0.2-0.1-0.5-0.3-0.7L88.9,95v-4.5c0.2-0.2,0.4-0.4,0.4-0.7
					v-1.3c0-0.5-0.4-0.9-0.9-0.9l0,0H88h-1.4v-7.1v-0.8c0.3-0.3,0.6-0.6,0.6-1.1V64.7c1.4-0.5,2.1-0.8,2.4-0.8h0.1
					c0.4,0,1,0.1,1.5,0.2c0.6,0.1,1.2,0.2,1.7,0.2c0.3,0,0.5,0,0.7-0.1s0.5-0.2,1.9-2.3c0.5-0.7,0.8-1.2,1-1.5c0.1,0,0.2,0,0.3,0
					c0.5,0.1,1.2,0.1,1.4,0.1h0.1c0.2,0,0.7-0.1,1.8-0.3c0.3-0.1,0.5-0.1,0.6-0.1c0.2,0,0.4-0.1,0.6-0.3c0.2-0.1,0.4-0.2,0.5-0.4
					c0.5-0.3,0.6-0.8,0.6-0.9c0-0.3-0.1-0.6-0.3-0.8c-0.1-0.2-0.3-0.3-0.5-0.3c-0.3-0.3-0.7-0.3-0.8-0.3h-0.2
					c-0.2-0.3-0.5-0.5-0.9-0.5c-0.1,0-0.1,0-0.2,0l0,0c-0.1,0-0.2,0-0.2,0c-0.1,0-0.3,0-0.4,0c-0.4,0-0.8,0-1.1,0.1
					c-0.6,0.1-1,0.3-1.2,0.5h-0.4c-0.1,0-0.2,0-0.3,0c0,0-0.1,0-0.3,0c-0.3,0-0.7,0-1.1,0c-1.6,0-3.6-0.1-4.1-0.2
					c-0.4,0-2.3-0.6-3.1-0.9c-0.5-0.1-0.8-0.2-0.9-0.3c-0.1,0-0.4-0.1-2.2-0.1c-0.1,0-0.1,0-0.2,0c-0.1-0.3-0.2-0.9-0.2-1.4
					c0.1-3.3-1.8-4.2-2.7-4.4c-0.1,0-0.2,0-0.2,0c-0.1,0-0.2,0-0.3,0C80.5,49.6,80.4,49.6,80.3,49.6C80.4,49.6,80.4,49.6,80.3,49.6
					L80.3,49.6z"/>
			</g>
			<g>
				<path class="st0" d="M73.3,90.2c-0.3,0-0.5-0.2-0.5-0.5v-1c0-0.2,0.2-0.4,0.4-0.5h0.1c0.2,0,0.4,0.1,0.4,0.3l0.4,1
					c0,0.1,0,0.3-0.1,0.4s-0.2,0.2-0.4,0.2L73.3,90.2L73.3,90.2z"/>
				<path class="st1" d="M73.3,88.7l0.4,1h-0.4V88.7 M73.3,87.8c-0.1,0-0.1,0-0.2,0c-0.4,0.1-0.8,0.5-0.8,0.9v1
					c0,0.2,0.1,0.5,0.3,0.7c0.2,0.2,0.4,0.3,0.7,0.3l0,0h0.4c0.3,0,0.6-0.1,0.8-0.4c0.2-0.2,0.2-0.6,0.1-0.8l-0.4-1
					C74,88,73.6,87.8,73.3,87.8L73.3,87.8z"/>
			</g>
		</g>
		<g>
			<path class="st0" d="M32.6,97.5c-0.3,0-0.5-0.2-0.5-0.5v-1.6c0-0.3,0.2-0.5,0.5-0.5H34v-1.5c0-0.3,0.2-0.5,0.5-0.5h0.4v-0.8
				c0-0.3,0.2-0.5,0.5-0.5h0.5v-0.4l-0.6-0.6c-0.3,0-0.3-0.1-0.3-0.3s0.1-0.3,0.3-0.3l2-0.7l1.4-0.2l-1.8-4.7c0-0.1,0-0.3,0-0.4
				s0.2-0.2,0.3-0.2c0,0,1.1-0.3,2.7-0.3c1.2,0,2.4,0.1,3.6,0.4l-0.4-2.6c0-0.1,0-0.3,0.1-0.4s0.2-0.2,0.3-0.2
				c2.3,0,4.4,0.7,5.6,1.2c-0.8-2.7-1.4-4.6-1.4-4.6c-0.1-0.2,0-0.3,0.1-0.4s0.2-0.2,0.4-0.2c0,0,0,0,0.1,0
				c8.3,1.2,11.7,6.8,12.6,8.6c1-0.7,3.5-2.2,7.5-2.2c1.1,0,2.2,0.1,3.3,0.3c0.1,0,0.3,0.1,0.3,0.2c0.1,0.1,0.1,0.3,0,0.4l-1.3,3.1
				c1.1,0.2,2.1,0.6,2.5,0.7c3.4-1.3,6.1-1.6,7.7-1.6c0.9,0,1.3,0.1,1.4,0.1c0.2,0,0.3,0.1,0.4,0.3s0,0.3-0.1,0.5L80,89.9v0.3
				l2.6,1.4c0.2,0.1,0.2,0.2,0.2,0.4v0.9h1.3c0.1,0,0.2,0,0.3,0.1l2.1,1.9h1c0.3,0,0.5,0.2,0.5,0.5V97c0,0.3-0.2,0.5-0.5,0.5H32.6z
				 M69.8,91.8l-0.6-1.1l-0.5,1.1H69.8z M59.1,90.6l0.8-3.3L56.8,90L59.1,90.6z M49.6,88.1c-0.1-0.9-0.1-1.8-0.1-2.5L48.1,88
				L49.6,88.1z M43.3,87.5c0-0.3,0.1-0.6,0.1-0.8c-0.2,0.2-0.5,0.5-0.7,0.7L43.3,87.5z"/>
			<path class="st1" d="M48.2,77.2c9.8,1.4,12.5,8.9,12.5,8.9l-4.8,4.2l3.6,0.9l1.2-5.1c0,0,2.7-2.5,7.6-2.5c1,0,2,0.1,3.2,0.3
				L70,87.6c1.6,0.3,3.1,0.8,3.1,0.8l-1,1.9l1.3-0.4l0.2,0.1l-0.5-1.5c3.5-1.4,6.2-1.6,7.7-1.6c0.8,0,1.3,0.1,1.3,0.1l-2.6,2.9v0.8
				l2.9,1.5v1.3H84h0.1l2.3,2.1h1.2V97h-55v-1.6h1.8v-1.9l0,0h0.8l0,0l0,0v-1.2h0.4l0.5,0.3v-1.4l-0.7-0.7l2-0.7l1.8-0.3l-2-5.2
				c0,0,1-0.3,2.6-0.3c1.1,0,2.6,0.1,4.1,0.6l-0.5-3.3c3.2,0,6.3,1.5,6.3,1.5l0,0C49,79.6,48.2,77.2,48.2,77.2 M50.1,88.6
				c-0.3-2.3,0-4.4,0-4.9c0,0,0,0,0-0.1l-2.7,4.7L50.1,88.6 M50.3,84.5c0-0.1,0-0.1,0-0.2C50.3,84.4,50.3,84.4,50.3,84.5 M50.5,85.1
				L50.5,85.1L50.5,85.1C50.5,85,50.5,85,50.5,85.1C50.5,85,50.5,85,50.5,85.1 M43.7,88c0.1-1,0.3-1.9,0.5-2.5v-0.2
				c-0.4,0.3-1.4,1.2-2.3,2.4C42.4,87.8,43.4,87.9,43.7,88 M50.7,85.9C50.7,85.9,50.6,85.8,50.7,85.9C50.6,85.8,50.7,85.9,50.7,85.9
				 M50.8,86.5L50.8,86.5L50.8,86.5c0,0.1,0,0.1,0,0.2C50.8,86.6,50.8,86.6,50.8,86.5L50.8,86.5L50.8,86.5L50.8,86.5L50.8,86.5
				 M51,87.3C51,87.3,50.9,87.3,51,87.3C50.9,87.3,51,87.3,51,87.3 M51.1,88C51.1,88.1,51.1,88.1,51.1,88
				C51.1,88.1,51.1,88.1,51.1,88L51.1,88L51.1,88 M51.2,88.9c0-0.1,0-0.1,0-0.2C51.2,88.8,51.2,88.8,51.2,88.9 M68.1,92.3h2.4
				l-1.3-2.7L68.1,92.3 M71.1,92.3L71.1,92.3L71.1,92.3L71.1,92.3 M48.2,76.3c-0.3,0-0.5,0.1-0.7,0.3c-0.2,0.2-0.3,0.6-0.2,0.9
				c0,0,0.5,1.5,1.2,3.7c-1.3-0.4-3.1-0.9-4.9-0.9c-0.3,0-0.5,0.1-0.7,0.3c-0.2,0.2-0.3,0.5-0.2,0.7l0.3,1.9c-1-0.2-2-0.3-3-0.3
				c-1.7,0-2.8,0.3-2.8,0.3c-0.3,0.1-0.5,0.2-0.6,0.5c-0.1,0.2-0.1,0.5,0,0.7l1.6,4.1l-0.7,0.1c-0.1,0-0.1,0-0.2,0l-2,0.7
				c-0.3,0.1-0.5,0.4-0.6,0.7c-0.1,0.3,0,0.6,0.3,0.9l0.3,0.2c-0.4,0.1-0.7,0.5-0.7,0.9v0.3c-0.5,0-0.8,0.4-0.8,0.9v1h-0.9
				c-0.5,0-0.9,0.4-0.9,0.9V97c0,0.5,0.4,0.9,0.9,0.9h55c0.5,0,0.9-0.4,0.9-0.9v-1.6c0-0.5-0.4-0.9-0.9-0.9h-0.8l-2-1.8
				c-0.2-0.2-0.4-0.2-0.6-0.2H84h-0.7V92c0-0.3-0.2-0.7-0.5-0.8L80.5,90l2.3-2.5c0.2-0.2,0.3-0.6,0.2-0.9c-0.1-0.3-0.4-0.6-0.7-0.6
				c-0.1,0-0.6-0.1-1.4-0.1c-1.7,0-4.4,0.3-7.7,1.6c-0.4-0.1-1.1-0.4-1.9-0.5l1.1-2.6c0.1-0.3,0.1-0.5,0-0.8
				c-0.1-0.2-0.4-0.4-0.6-0.5c-1.1-0.2-2.3-0.3-3.4-0.3c-3.5,0-6,1.2-7.3,2c-1.2-2.3-4.7-7.3-12.7-8.4
				C48.3,76.3,48.2,76.3,48.2,76.3L48.2,76.3z M48.9,87.6l0.1-0.3C49,87.4,49,87.5,48.9,87.6L48.9,87.6L48.9,87.6z M57.8,89.8
				l1.3-1.2L58.8,90L57.8,89.8L57.8,89.8z"/>
		</g>
		<g>
			<path class="st0" d="M132.5,97.5c-0.3,0-0.5-0.2-0.5-0.5v-2c0-0.4-0.2-0.6-0.3-0.6s-0.3,0.2-0.3,0.6v2c0,0.3-0.2,0.5-0.5,0.5H129
				c-0.3,0-0.5-0.2-0.5-0.5v-2.1c0-0.4-0.2-0.7-0.4-0.7s-0.4,0.3-0.4,0.7V97c0,0.3-0.2,0.5-0.5,0.5h-2.1c-0.3,0-0.5-0.2-0.5-0.5
				v-2.3c0-0.4-0.3-0.7-0.5-0.7s-0.5,0.3-0.5,0.7V97c0,0.3-0.2,0.5-0.5,0.5h-2c-0.3,0-0.5-0.2-0.5-0.5v-2.4c0-0.4-0.3-0.8-0.6-0.8
				s-0.6,0.4-0.6,0.8V97c0,0.3-0.2,0.5-0.5,0.5h-1.8c-0.3,0-0.5-0.2-0.5-0.5v-2.6c0-0.5-0.3-0.9-0.7-0.9s-0.7,0.4-0.7,0.9V97
				c0,0.3-0.2,0.5-0.5,0.5H113c-0.3,0-0.5-0.2-0.5-0.5v-2.7c0-0.5-0.5-1-1.1-1s-1.1,0.4-1.1,1V97c0,0.3-0.2,0.5-0.5,0.5h-2.2
				c-0.3,0-0.5-0.2-0.5-0.5v-2.6c0-0.5-0.4-0.9-0.8-0.9s-0.8,0.4-0.8,0.9V97c0,0.3-0.2,0.5-0.5,0.5h-1.8c-0.3,0-0.5-0.2-0.5-0.5
				v-2.4c0-0.4-0.3-0.8-0.7-0.8s-0.7,0.4-0.7,0.8V97c0,0.3-0.2,0.5-0.5,0.5h-2.1c-0.3,0-0.5-0.2-0.5-0.5v-2.3c0-0.4-0.3-0.7-0.6-0.7
				c-0.3,0-0.6,0.3-0.6,0.7V97c0,0.3-0.2,0.5-0.5,0.5h-2.3c-0.3,0-0.5-0.2-0.5-0.5v-2.1c0-0.3-0.2-0.7-0.5-0.7s-0.5,0.3-0.5,0.7V97
				c0,0.3-0.2,0.5-0.5,0.5h-2.6c-0.3,0-0.5-0.2-0.5-0.5v-2c0-0.3-0.2-0.6-0.3-0.6S89,94.7,89,95v2c0,0.3-0.2,0.5-0.5,0.5H87
				c-0.3,0-0.5-0.2-0.5-0.5v-1.6c0-0.3,0.2-0.5,0.5-0.5h0.5v-5.2c0-0.1,0-0.2,0.1-0.3c0.1-0.1,0.2-0.1,0.2-0.1v-0.4h-0.9
				c-0.1,0-0.2,0-0.3-0.1c-0.1-0.1-0.1-0.2-0.1-0.3V77.4c0-0.3,0.9-4.7,11.1-7.4h0.1c0.1,0,0.1,0,0.2,0l1.7,0.8
				c0.1,0,0.2,0.1,0.2,0.2l0.6,1.3l0.9,2.2h0.6c0.1,0,0.2,0.1,0.3,0.2l0.9,1c0.1,0.1,0.1,0.2,0.1,0.3v2.8L104,82h1.8h1.4
				c0.1,0,0.2,0,0.3,0.1l1,1h3.4v-0.9c0-0.1,0-0.2,0.1-0.3c0.1-0.1,0.2-0.1,0.3-0.1l0,0c0.7,0,18,0.4,20.8,4.3
				c0.1,0.1,0.1,0.2,0.1,0.3v1.8c0,1.3,0.1,3.3,0.1,5.1v0.8c0,0.6,0,1.2,0,1.8v1.2c0,0.3-0.2,0.5-0.5,0.5h-0.3V97.5z M131.8,91.7
				v-1.5c0-0.3-0.2-0.6-0.3-0.6s-0.3,0.3-0.3,0.6v1.4L131.8,91.7z M128.6,91.4v-1.6c0-0.3-0.2-0.7-0.5-0.7s-0.5,0.3-0.5,0.7v1.5
				L128.6,91.4z M88.7,89.7L88.7,89.7c0,0.2,0,0.2,0,0.3v1.4l0.7-0.1V90c0-0.3-0.2-0.6-0.3-0.6C88.9,89.4,88.8,89.5,88.7,89.7
				C88.7,89.6,88.7,89.7,88.7,89.7z M125.3,91.1v-2c0-0.4-0.3-0.7-0.6-0.7c-0.3,0-0.6,0.3-0.6,0.7V91L125.3,91.1z M93,88.6
				c-0.2,0-0.5,0.3-0.5,0.7v1.6l0.9-0.1v-1.5C93.5,88.9,93.3,88.6,93,88.6z M121.5,90.8v-2.1c0-0.4-0.3-0.8-0.7-0.8
				s-0.7,0.4-0.7,0.8v2L121.5,90.8z M117.6,90.6v-2.3c0-0.5-0.4-0.9-0.8-0.9c-0.5,0-0.8,0.4-0.8,0.9v2.2L117.6,90.6z M97.3,88
				c-0.3,0-0.6,0.3-0.6,0.7v1.8l1.2-0.1v-1.7C97.9,88.3,97.6,88,97.3,88z M112.8,90.3V88c0-0.5-0.5-1-1.1-1s-1.1,0.4-1.1,1v2.3
				H112.8z M107,90.3v-2.1c0-0.5-0.4-0.9-0.8-0.9s-0.8,0.4-0.8,0.9v2.1H107z M102.6,90.3v-2c0-0.4-0.3-0.8-0.7-0.8s-0.7,0.4-0.7,0.8
				v2H102.6z M130.6,87v-0.3l-0.2-0.1V87H130.6z M126.8,86.1v-0.3l-0.2-0.1V86L126.8,86.1z M122.4,85.1v-0.3h-0.2v0.3H122.4z
				 M89,82.9c-0.2,0-0.3,0.3-0.3,0.6V85l0.7-0.1v-1.3C89.3,83.2,89.2,82.9,89,82.9z M118.4,84.8v-0.4h-0.2v0.4H118.4z M92.9,81.6
				c-0.2,0-0.5,0.3-0.5,0.7v1.9l0.9-0.1v-1.7C93.4,81.9,93.1,81.6,92.9,81.6z M97.3,80.6c-0.3,0-0.6,0.3-0.6,0.7v2.1l1.2-0.1v-2
				C97.9,80.9,97.6,80.6,97.3,80.6z M88.4,78.3l0.3-0.2V78l-0.3,0.2V78.3z M92.4,76.2l0.2-0.1v-0.2L92.4,76V76.2z M97,74.2l0.3-0.1
				v-0.3L97,73.9V74.2z"/>
			<path class="st1" d="M97.7,70.5l1.7,0.8l0.6,1.3l1,2.4c0.5,0,0.9,0.1,0.9,0.1l0.9,1v2.8l0.9,3.6h2.2h1.4l1.1,1.1h4v-0.5v-0.8
				c0,0,17.7,0.3,20.5,4.1c0,0,0,0.7,0,1.8c0,1.3,0.1,3.3,0.1,5c0,0.3,0,0.5,0,0.8c0,0.6,0,1.2,0,1.7c0,0.2,0,0.3,0,0.4s0,0.3,0,0.4
				s0,0.1,0,0.2s0,0.1,0,0.2h-0.4v-2c0-0.6-0.3-1-0.7-1s-0.7,0.5-0.7,1v2H129v-2.1c0-0.6-0.4-1.1-0.8-1.1c-0.5,0-0.8,0.5-0.8,1.1V97
				h-0.7h-1.4v-2.3c0-0.7-0.4-1.2-0.9-1.2s-0.9,0.5-0.9,1.2V97h-2v-2.4c0-0.7-0.5-1.3-1-1.3c-0.6,0-1,0.6-1,1.3V97h-1.8v-2.6
				c0-0.7-0.5-1.4-1.2-1.4c-0.6,0-1.2,0.6-1.2,1.4V97h-1.1H113v-2.7c0-0.8-0.7-1.4-1.5-1.4s-1.5,0.6-1.5,1.4V97h-1.3h-0.9v-2.6
				c0-0.7-0.6-1.4-1.3-1.4c-0.7,0-1.3,0.6-1.3,1.4V97h-1.8v-2.4c0-0.7-0.5-1.3-1.2-1.3c-0.6,0-1.2,0.6-1.2,1.3V97h-2.1v-2.3
				c0-0.7-0.5-1.2-1-1.2c-0.6,0-1,0.5-1,1.2V97h-2.3v-2.1c0-0.6-0.4-1.1-0.9-1.1s-0.9,0.5-0.9,1.1V97h-2.6v-2c0-0.6-0.4-1-0.8-1
				s-0.8,0.5-0.8,1v2H87v-1.6h0.6V97H88h0.4v-1.3H88v-6h0.3c0,0.1,0,0.2,0,0.3v2l1.6-0.3V90c0-0.6-0.4-1-0.8-1
				c-0.3,0-0.5,0.2-0.7,0.5v-1H88h-1V88v-5.5v-5C87,77.4,87.7,73.2,97.7,70.5 M96.5,74.9l1.3-0.5l-0.1-1.2l-1.1,0.5v1.2 M92,76.9
				l1.1-0.6V75L92,75.6V76.9 M88,79.3l1.2-0.9v-1.3L88,78V79.3 M96.3,84l2.1-0.2v-2.4c0-0.7-0.5-1.2-1-1.2c-0.6,0-1,0.5-1,1.2
				L96.3,84 M92,84.7l1.8-0.3v-2.1c0-0.6-0.4-1.1-0.9-1.1S92,81.7,92,82.3V84.7 M88.2,85.5l1.6-0.3v-1.7c0-0.6-0.4-1-0.8-1
				s-0.8,0.5-0.8,1L88.2,85.5 M118.9,85.3V84l-1.1-0.1v1.3L118.9,85.3 M122.9,85.7v-1.2l-1.1-0.2v1.2L122.9,85.7 M127.2,86.6v-1.3
				L126,85v1.3L127.2,86.6 M131.1,87.7v-1.3L130,86v1.3L131.1,87.7 M110.2,90.8h3.1V88c0-0.8-0.7-1.4-1.5-1.4s-1.5,0.6-1.5,1.4
				L110.2,90.8 M104.9,90.8h2.6v-2.6c0-0.7-0.6-1.4-1.3-1.4c-0.7,0-1.3,0.6-1.3,1.4L104.9,90.8 M118.1,91.1v-2.8
				c0-0.7-0.6-1.4-1.3-1.4c-0.7,0-1.3,0.6-1.3,1.4v2.6L118.1,91.1 M100.7,90.8h2.3v-2.4c0-0.7-0.5-1.3-1.2-1.3
				c-0.6,0-1.2,0.6-1.2,1.3L100.7,90.8 M122,91.3v-2.6c0-0.7-0.5-1.3-1.2-1.3c-0.6,0-1.2,0.6-1.2,1.3v2.4L122,91.3 M96.3,91l2.1-0.2
				v-2.1c0-0.7-0.5-1.2-1-1.2c-0.6,0-1,0.5-1,1.2L96.3,91 M125.7,91.6V89c0-0.7-0.5-1.2-1-1.2c-0.6,0-1,0.5-1,1.2v2.3L125.7,91.6
				 M92.1,91.4l1.8-0.3v-1.9c0-0.6-0.4-1.1-0.9-1.1s-0.9,0.5-0.9,1.1V91.4 M129.1,91.9v-2.1c0-0.6-0.4-1.1-0.9-1.1s-0.9,0.5-0.9,1.1
				v1.9L129.1,91.9 M132.3,92.3v-2c0-0.6-0.4-1-0.8-1c-0.4,0-0.8,0.5-0.8,1V92L132.3,92.3 M97.7,69.6c-0.1,0-0.2,0-0.2,0
				c-10.2,2.7-11.3,7.2-11.4,7.7c0,0.1,0,0.1,0,0.2v5V88v0.5c0,0.2,0.1,0.5,0.3,0.7c0.2,0.2,0.4,0.3,0.7,0.3l0,0h0.1
				c-0.1,0.1-0.1,0.3-0.1,0.4v4.8H87c-0.5,0-0.9,0.4-0.9,0.9V97c0,0.5,0.4,0.9,0.9,0.9h1.5c0.3,0,0.6-0.2,0.8-0.5
				c0.2,0.3,0.5,0.5,0.8,0.5h2.6c0.5,0,0.9-0.4,0.9-0.9v-2.1l0,0l0,0V97c0,0.5,0.4,0.9,0.9,0.9h2.3c0.5,0,0.9-0.4,0.9-0.9v-2.3
				c0-0.2,0.1-0.3,0.1-0.3s0.1,0.1,0.1,0.3V97c0,0.5,0.4,0.9,0.9,0.9h2.1c0.5,0,0.9-0.4,0.9-0.9v-2.4c0-0.2,0.1-0.4,0.2-0.4
				s0.2,0.2,0.2,0.4V97c0,0.5,0.4,0.9,0.9,0.9h1.8c0.5,0,0.9-0.4,0.9-0.9v-2.6c0-0.2,0.2-0.4,0.4-0.4c0.2,0,0.4,0.2,0.4,0.4V97
				c0,0.5,0.4,0.9,0.9,0.9h0.9h1.3c0.5,0,0.9-0.4,0.9-0.9v-2.7c0-0.3,0.3-0.5,0.6-0.5c0.3,0,0.6,0.2,0.6,0.5V97
				c0,0.5,0.4,0.9,0.9,0.9h1.1h1.1c0.5,0,0.9-0.4,0.9-0.9v-2.6c0-0.3,0.2-0.4,0.2-0.4c0.1,0,0.2,0.2,0.2,0.4V97
				c0,0.5,0.4,0.9,0.9,0.9h1.8c0.5,0,0.9-0.4,0.9-0.9v-2.4c0-0.2,0.1-0.3,0.1-0.4c0,0,0.1,0.1,0.1,0.4V97c0,0.5,0.4,0.9,0.9,0.9h2
				c0.5,0,0.9-0.4,0.9-0.9v-2.3c0-0.1,0-0.1,0-0.1v0.1V97c0,0.5,0.4,0.9,0.9,0.9h1.4h0.7c0.4,0,0.7-0.2,0.8-0.5
				c0.1,0.3,0.5,0.5,0.8,0.5h2.1c0.3,0,0.6-0.1,0.7-0.3c0.2,0.2,0.4,0.3,0.7,0.3h0.4c0.5,0,0.9-0.4,0.9-0.9v-0.2v-0.2v-0.4v-0.4
				c0-0.5,0-1.1,0-1.8v-0.8c0-1.8-0.1-3.7-0.1-5.1c0-1.1,0-1.8,0-1.8c0-0.2-0.1-0.4-0.2-0.5c-2.9-4.1-19.3-4.5-21.2-4.5l0,0
				c-0.2,0-0.5,0.1-0.6,0.3c-0.2,0.2-0.3,0.4-0.3,0.7v0.4h-2.7l-0.9-0.9c-0.2-0.2-0.4-0.3-0.6-0.3h-1.4h-1.4l-0.7-2.8V76
				c0-0.2-0.1-0.4-0.2-0.6l-0.9-1c-0.2-0.2-0.4-0.3-0.6-0.3c0,0-0.1,0-0.3,0l-0.8-1.9l0,0l-0.6-1.3c-0.1-0.2-0.2-0.3-0.4-0.4
				L97.7,69.6C98,69.6,97.8,69.6,97.7,69.6L97.7,69.6z M97.2,83v-1.6c0-0.2,0.1-0.3,0.1-0.3s0.1,0.1,0.1,0.3V83H97.2L97.2,83z
				 M93,82.1L93,82.1L93,82.1L93,82.1z M92.9,83.6v-1.3l0,0l0,0V83.6L92.9,83.6L92.9,83.6z M89.2,83.3L89.2,83.3L89.2,83.3
				L89.2,83.3z M111.1,89.8V88c0-0.3,0.3-0.5,0.6-0.5c0.3,0,0.6,0.2,0.6,0.5v1.8H111.1L111.1,89.8z M105.8,89.8v-1.7
				c0-0.2,0.2-0.4,0.4-0.4c0.2,0,0.4,0.2,0.4,0.4v1.7H105.8L105.8,89.8z M116.4,90.1v-1.7c0-0.2,0.2-0.4,0.4-0.4s0.4,0.2,0.4,0.4
				v1.8L116.4,90.1L116.4,90.1z M101.7,89.8v-1.5c0-0.2,0.1-0.4,0.2-0.4s0.2,0.2,0.2,0.4v1.5H101.7L101.7,89.8z M120.6,90.3v-1.6
				c0-0.2,0.1-0.4,0.2-0.4s0.2,0.2,0.2,0.4v1.6H120.6L120.6,90.3z M97.2,90v-1.3c0-0.2,0.1-0.3,0.1-0.3s0.1,0.1,0.1,0.3V90H97.2
				L97.2,90z M124.6,90.5V89c0-0.2,0.1-0.3,0.1-0.3s0.1,0.1,0.1,0.3v1.5H124.6L124.6,90.5z M93.1,89.1L93.1,89.1L93.1,89.1
				L93.1,89.1z M93,90.4v-1.1l0,0l0,0V90.4L93,90.4L93,90.4z M128.2,90.9v-1.1l0,0l0,0V90.9L128.2,90.9L128.2,90.9z"/>
		</g>
		<g>
			<g>
				<path class="st0" d="M127.3,97.5c-0.3,0-0.5-0.2-0.5-0.5v-2.1c0-0.9,0.6-1.6,1.3-1.6c0.7,0,1.3,0.7,1.3,1.6V97
					c0,0.3-0.2,0.5-0.5,0.5H127.3z"/>
				<path class="st1" d="M128.2,93.8c0.5,0,0.8,0.5,0.8,1.1V97h-1.7v-2.1C127.3,94.3,127.7,93.8,128.2,93.8 M128.2,92.8
					c-1,0-1.8,0.9-1.8,2V97c0,0.5,0.4,0.9,0.9,0.9h1.7c0.5,0,0.9-0.4,0.9-0.9v-2.1C129.9,93.7,129.1,92.8,128.2,92.8L128.2,92.8z"/>
			</g>
			<g>
				<path class="st0" d="M130.2,87.8h-0.1l-0.2-0.1c-0.2-0.1-0.3-0.2-0.3-0.4V86c0-0.1,0.1-0.3,0.2-0.4c0.1-0.1,0.2-0.1,0.3-0.1h0.1
					l0.2,0.1c0.2,0.1,0.3,0.2,0.3,0.4v1.3c0,0.1-0.1,0.3-0.2,0.4C130.4,87.8,130.3,87.8,130.2,87.8z"/>
				<path class="st1" d="M130,86l0.2,0.1v1.3l-0.2-0.1V86 M130,85.1c-0.2,0-0.4,0.1-0.5,0.2c-0.2,0.2-0.4,0.5-0.4,0.7v1.3
					c0,0.4,0.3,0.7,0.6,0.9l0.2,0.1c0.1,0,0.2,0,0.3,0c0.2,0,0.4-0.1,0.5-0.2c0.2-0.2,0.4-0.5,0.4-0.7v-1.3c0-0.4-0.3-0.7-0.6-0.9
					l-0.2-0.1C130.2,85.1,130.1,85.1,130,85.1L130,85.1z"/>
			</g>
			<g>
				<path class="st0" d="M129,92.4l-1.8-0.2c-0.2,0-0.4-0.2-0.4-0.5v-2.3v-0.1c0.2-0.6,0.7-1,1.3-1c0.8,0,1.4,0.7,1.4,1.6V92
					c0,0.1-0.1,0.3-0.2,0.3C129.3,92.4,129.2,92.4,129,92.4C129.1,92.4,129,92.4,129,92.4z"/>
				<path class="st1" d="M128.2,88.7c0.5,0,0.9,0.5,0.9,1.1v2.1l-1.8-0.2v-2.3C127.4,89,127.8,88.7,128.2,88.7 M128.2,87.8
					c-0.8,0-1.5,0.5-1.7,1.4c0,0.1,0,0.2,0,0.3v2.3c0,0.5,0.3,0.8,0.8,0.9l1.8,0.2h0.1c0.2,0,0.4-0.1,0.6-0.2
					c0.2-0.2,0.3-0.4,0.3-0.7v-2.1C130,88.7,129.2,87.8,128.2,87.8L128.2,87.8z"/>
			</g>
			<g>
				<path class="st0" d="M119.3,97.5c-0.3,0-0.5-0.2-0.5-0.5v-2.7c0.2-0.9,0.8-1.5,1.5-1.5c0.8,0,1.5,0.8,1.5,1.7V97
					c0,0.3-0.2,0.5-0.5,0.5H119.3z"/>
				<path class="st1" d="M120.3,93.3c0.6,0,1,0.6,1,1.3V97h-2.1v-2.7C119.4,93.7,119.8,93.3,120.3,93.3 M120.3,92.4
					c-0.9,0-1.7,0.7-1.9,1.7c0,0.1,0,0.1,0,0.2V97c0,0.5,0.4,0.9,0.9,0.9h2.1c0.5,0,0.9-0.4,0.9-0.9v-2.4
					C122.3,93.4,121.4,92.4,120.3,92.4L120.3,92.4z"/>
			</g>
			<g>
				<path class="st0" d="M121.7,86c-0.2,0-0.4-0.2-0.4-0.5v-1.2c0-0.1,0.1-0.3,0.2-0.4s0.2-0.1,0.3-0.1c0,0,0,0,0.1,0l0.5,0.1
					c0.2,0,0.4,0.2,0.4,0.5v1.2c0,0.1-0.1,0.3-0.2,0.3c-0.1,0.1-0.2,0.1-0.3,0.1C122.2,86,121.7,86,121.7,86z"/>
				<path class="st1" d="M121.7,84.3l0.5,0.1v1.2l-0.5-0.1V84.3 M121.7,83.4c-0.2,0-0.4,0.1-0.6,0.2c-0.2,0.2-0.3,0.4-0.3,0.7v1.2
					c0,0.5,0.3,0.9,0.8,0.9l0.5,0.1h0.1c0.2,0,0.4-0.1,0.6-0.2c0.2-0.2,0.3-0.4,0.3-0.7v-1.2c0-0.5-0.3-0.8-0.8-0.9L121.7,83.4
					C121.8,83.4,121.8,83.4,121.7,83.4L121.7,83.4z"/>
			</g>
			<g>
				<path class="st0" d="M159.3,97.5c-0.3,0-0.5-0.2-0.5-0.5V82.1c-0.2-0.1-0.3-0.2-0.3-0.4v-0.3H155v0.3c0,0.2-0.1,0.4-0.3,0.4V97
					c0,0.3-0.2,0.5-0.5,0.5h-2.9c-0.3,0-0.5-0.2-0.5-0.5V82.1c-0.2-0.1-0.3-0.2-0.3-0.4v-0.3H147v0.3c0,0.2-0.1,0.4-0.3,0.4V97
					c0,0.3-0.2,0.5-0.5,0.5h-2.9c-0.3,0-0.5-0.2-0.5-0.5V82.1c-0.2-0.1-0.3-0.2-0.3-0.4v-0.3H139v0.3c0,0.2-0.1,0.4-0.3,0.4V97
					c0,0.3-0.2,0.5-0.5,0.5h-2.9c-0.3,0-0.5-0.2-0.5-0.5V82.1c-0.2-0.1-0.3-0.2-0.3-0.4v-0.3H131v0.3c0,0.2-0.1,0.4-0.3,0.4v2.6
					c0,0.2-0.1,0.3-0.2,0.4c-0.1,0.1-0.2,0.1-0.3,0.1s-0.1,0-0.2,0c-0.8-0.3-1.7-0.6-2.8-0.8c-0.2,0-0.4-0.2-0.4-0.4v-1.7
					c-0.2-0.1-0.3-0.2-0.3-0.4v-0.3H123v0.3c0,0.2-0.1,0.4-0.3,0.4V83c0,0.1-0.1,0.3-0.2,0.3c-0.1,0.1-0.2,0.1-0.3,0.1
					c0,0,0,0-0.1,0c-1-0.1-2-0.2-2.9-0.3c-0.2,0-0.4-0.2-0.4-0.5v-0.5c-0.2-0.1-0.3-0.2-0.3-0.4v-1.1c0-0.3,0.2-0.5,0.5-0.5l0,0
					v-1.5h-1.2c-0.3,0-0.5-0.2-0.5-0.5v-0.9l-0.5-0.6c-0.1-0.1-0.1-0.3-0.1-0.5c0.1-0.2,0.2-0.3,0.4-0.3h2.4v-1.1h-0.2
					c-0.2,0-0.4-0.1-0.4-0.3l-0.4-1.2c0-0.1,0-0.3,0.1-0.4s0.2-0.2,0.4-0.2h14.3v-0.2c0-0.3,0.2-0.5,0.5-0.5h0.1v-0.2
					c0-0.3,0.2-0.5,0.5-0.5h0.4l-0.1-0.6c0-0.1,0-0.3,0.1-0.4l0,0c0-0.4,0-0.7,0.1-0.9c-0.1,0-0.2-0.1-0.2-0.2
					c-0.2-0.2-0.2-0.5-0.1-0.9V68c0-0.3-0.1-0.6,0.1-0.9c0.1-0.2,0.3-0.3,0.6-0.3h0.1c0.8,0,1.2,1,1.5,1.9c0.1,0.2,0.1,0.3,0.2,0.4
					c0.1,0.2,0.3,0.4,0.5,0.6c0.1,0.1,0.1,0.1,0.2,0.2v-0.1c0-0.3,0.2-0.8,0.3-1l0.1-1.1c0-0.1-0.1-0.3,0-0.5c0-0.1,0-0.1,0.1-0.2
					v-0.1c0-0.2,0.1-0.4,0.2-0.5c0.1,0,0.1-0.1,0.2-0.1c0.1,0,0.2,0,0.3,0.1l0,0c0.1-0.1,0.2-0.1,0.3-0.1s0.1,0,0.2,0
					c0.2,0.1,0.3,0.3,0.3,0.5V67c0,0.1,0.1,0.2,0.1,0.3l0,0l0.3-0.4v-0.4c-0.5-0.2-0.8-0.7-0.8-1.2c0-0.3,0.1-0.6,0.3-0.8
					c0,0-0.1-0.1-0.1-0.2v-0.1c-0.1-0.1-0.3-0.3-0.3-0.3c-0.1-0.1-0.1-0.2-0.1-0.3l0,0c-0.1-0.1-0.1-0.3-0.1-0.4
					c0-0.1,0-0.1-0.1-0.2c0-0.1,0-0.3,0.1-0.4c0.1-0.1,0.2-0.2,0.4-0.2c0.1,0,0.2,0,0.9,0.5c0.1-0.1,0.2-0.1,0.4-0.1
					c0.1,0,0.3,0.1,0.4,0.1c0.7-0.5,0.8-0.5,0.9-0.5c0.1,0,0.3,0.1,0.4,0.2c0.1,0.1,0.1,0.3,0.1,0.4c0,0,0,0.1-0.1,0.2
					c0,0.1,0,0.3-0.1,0.4l-0.1,0.1c0,0.1,0,0.2-0.1,0.2c0,0-0.2,0.2-0.3,0.3v0.1c0,0.1,0,0.1-0.1,0.2c0.2,0.2,0.3,0.5,0.3,0.8
					c0,0.5-0.3,1-0.8,1.2V67c0.2,0,0.4,0.1,0.5,0.3c0.1,0.2,0.2,0.4,0.1,0.6h0.1l0.1-0.1c0-0.2,0-0.3,0.1-0.5v-0.2
					c0-0.2,0.1-0.4,0.3-0.5c0.1,0,0.1,0,0.2,0c0.1,0,0.2,0,0.3,0.1l0,0c0.1-0.1,0.2-0.1,0.3-0.1s0.2,0,0.2,0.1
					c0.2,0.1,0.3,0.3,0.2,0.5v0.1c0,0.1,0.1,0.1,0.1,0.2c0,0.2,0,0.3,0,0.5l0.1,1.1c0.1,0.2,0.3,0.7,0.3,1c0,0.1,0,0.2-0.2,1.5h0.3
					c-0.1-0.7,0-1,0.2-1.1c0.1-0.1,0.2-0.3,0.4-0.4c0.2-0.2,0.4-0.4,0.5-0.6c0-0.1,0.1-0.2,0.2-0.4c0.3-0.8,0.7-1.9,1.5-1.9h0.1
					c0.3,0,0.5,0.2,0.6,0.3c0.2,0.3,0.1,0.6,0.1,0.9c0,0.1,0,0.2,0,0.2c0.1,0.3,0,0.7-0.1,0.9c-0.1,0.1-0.1,0.1-0.2,0.2
					c0.1,0.3,0.2,0.6,0.1,0.9l0,0c0.1,0.1,0.2,0.2,0.1,0.4l-0.1,0.6c0.2,0,0.4,0.2,0.4,0.5v0.2h0.1c0.3,0,0.5,0.2,0.5,0.5V73H163
					c0.1,0,0.3,0.1,0.4,0.2c0.1,0.1,0.1,0.3,0.1,0.4l-0.4,1.2c-0.1,0.2-0.2,0.3-0.4,0.3h-0.2V76h2.4c0.2,0,0.3,0.1,0.4,0.3
					c0.1,0.2,0.1,0.4-0.1,0.5l-0.5,0.6v0.9c0,0.3-0.2,0.5-0.5,0.5H163v1.5l0,0c0.3,0,0.5,0.2,0.5,0.5v1.1c0,0.2-0.1,0.4-0.3,0.4V97
					c0,0.3-0.2,0.5-0.5,0.5H159.3z"/>
				<path class="st1" d="M141.8,63L141.8,63c0,0.1-0.1,0.3-0.1,0.3v0.1l-0.2,0.2h0.1c0,0-0.4,0.4-0.5,0.5s0,0.2,0,0.2l-0.4,0.2v0.1
					c0.4,0.1,0.6,0.4,0.6,0.8s-0.3,0.8-0.8,0.8v0.9h0.1v0.3c0,0,0.1-0.1,0.2-0.1c0,0,0,0,0.1,0c0.2,0,0.3,0.4,0.2,0.6
					c-0.1,0.3-0.2,0.3-0.1,0.5c0.2,0.1,0.3,0.2,0.3,0.2s0-0.4,0.1-0.4l0,0c0.1,0,0.2,0.1,0.3,0.2c0,0,0,0.2,0.1,0.4v-0.2
					c0,0.1,0,0.3,0,0.4s0,0.1,0,0.1v0.4l0.3-0.6l-0.1-1l0.1-0.3c-0.1-0.2,0.1-0.4,0.1-0.4v-0.3l0.2,0.2h0.2l0.2-0.2l-0.1,0.4
					c0.2,0.1,0.1,0.4,0.1,0.4L143,69c0,0,0.3,0.6,0.3,0.9c0,0.2-0.2,1.3-0.2,2h1.3c-0.1-0.4-0.1-1.1,0-1.3c0.2-0.3,0.7-0.7,0.9-1.1
					c0.2-0.5,0.7-2,1.3-2l0,0c0.6,0.1,0.2,0.7,0.2,1.1c0.1,0.3,0,0.5-0.2,0.5c0,0-0.1,0-0.1-0.1c-0.1-0.1-0.2-0.2-0.2-0.2
					s0,0.1,0,0.3c0.1,0.5,0.3,0.9,0.2,1.4l0.2,0.2l-0.1,1.1h0.4v0.7h0.5v0.6h14.7l-0.4,1.2h-0.6v2h2.9l-0.6,0.7l0,0v1.1h-1.7v2.4
					h0.5v1.1H162V97h-2.9V81.7H159v-0.8h-4.4v0.8h-0.3V97h-2.9V81.7H151v-0.8h-4.4v0.8h-0.3V97h-2.9V81.7H143v-0.8h-4.4v0.8h-0.3V97
					h-2.9V81.7H135v-0.8h-4.4v0.8h-0.3v3c-0.8-0.3-1.8-0.6-2.9-0.9v-2.2H127v-0.8h-4.4v0.8h-0.3V83c-1-0.1-2-0.2-2.9-0.3v-1H119
					v-1.1h0.5v-2.4h-1.7v-1.1l0,0l-0.6-0.7h2.9v-2h-0.6l-0.4-1.2h14.7v-0.6h0.5v-0.7h0.9l-0.1-1.1l0.2-0.2c-0.1-0.5,0.1-0.9,0.2-1.4
					c0.1-0.2,0.1-0.3,0-0.3c0,0-0.1,0.1-0.2,0.2c-0.1,0-0.1,0.1-0.1,0.1c-0.2,0-0.2-0.2-0.2-0.5c0.1-0.4-0.3-1,0.2-1.1l0,0
					c0.6,0,1,1.5,1.3,2c0.2,0.5,0.7,0.8,0.9,1.1c0.1,0.2,0.1,0.9,0,1.3h0.8c-0.1-0.6-0.2-1.8-0.2-2c0-0.3,0.3-0.9,0.3-0.9l0.2-1.3
					c0,0-0.2-0.3,0.1-0.4l-0.1-0.4l0.2,0.2h0.2l0.2-0.2v0.3c0,0,0.2,0.2,0.1,0.4l0.1,0.3l-0.1,1l0.3,0.7c0,0-0.2-1.1,0.2-1.4
					l0.3-0.6l0.4-0.5v-0.9c-0.4,0-0.8-0.4-0.8-0.8s0.3-0.7,0.6-0.8v-0.1l-0.4-0.2c0,0,0.1-0.1,0-0.2s-0.5-0.5-0.5-0.5h0.1l-0.2-0.2
					v-0.1c0,0-0.1-0.2-0.1-0.3l0,0c0.1,0,1,0.7,1,0.7l-0.1,0.1c0,0,0,0.1,0.1,0.1l0,0c0.1,0,0.1-0.2,0.1-0.2c-0.1-0.1-0.1-0.2,0-0.3
					h0.1h0.1c0.1,0.1,0.1,0.1,0,0.3c0,0,0,0.2,0.1,0.2l0,0c0.1,0,0.1-0.1,0.1-0.1l-0.1-0.1C140.8,63.7,141.7,63,141.8,63
					 M140.7,65.3c0.2,0,0.4-0.1,0.4-0.2c-0.1-0.1-0.1-0.2-0.2-0.2C140.8,65,140.7,65.2,140.7,65.3 M140.4,65.3
					c0-0.2-0.1-0.4-0.2-0.4c-0.1,0.1-0.2,0.1-0.2,0.2S140.2,65.3,140.4,65.3 M140.9,66.1c0.1-0.1,0.2-0.1,0.2-0.2
					c-0.1,0-0.3-0.2-0.4-0.2C140.7,65.8,140.8,66,140.9,66.1 M140.2,66.1c0-0.1,0.2-0.3,0.2-0.4c-0.2,0-0.4,0.1-0.4,0.2
					C140,65.9,140.1,66,140.2,66.1 M145.6,71.9h0.9l0.1-0.1v-0.7l-0.2-0.1C146.4,71.1,145.7,71.8,145.6,71.9L145.6,71.9 M135.4,71.9
					h0.9v-0.1c-0.1-0.1-0.8-0.8-0.8-0.8l-0.2,0.1v0.7L135.4,71.9 M164.3,76.5L164.3,76.5 M141.8,62.1c-0.2,0-0.4,0-0.9,0.4
					c-0.1,0-0.2-0.1-0.4-0.1s-0.2,0-0.4,0.1c-0.5-0.4-0.7-0.4-0.9-0.4l0,0c-0.3,0-0.5,0.1-0.7,0.3s-0.2,0.5-0.2,0.8v0.1
					c0,0.2,0,0.5,0.2,0.7c0,0.1,0.1,0.3,0.2,0.4c0,0,0.1,0.1,0.2,0.2l0,0c-0.2,0.3-0.2,0.6-0.2,0.9c0,0.2,0,0.5,0.1,0.7l0,0
					c-0.1,0-0.2-0.1-0.3-0.1c-0.2,0-0.3,0-0.4,0.1c-0.3,0.2-0.5,0.6-0.5,0.9l0,0v0.1c-0.1,0.2,0,0.4,0,0.6l-0.1,0.9
					c0,0.1-0.1,0.1-0.1,0.2l0,0c0-0.1-0.1-0.2-0.1-0.4c-0.4-0.9-0.9-2.2-1.9-2.2c0,0-0.1,0-0.2,0c-0.5,0.1-0.7,0.3-0.9,0.5
					c-0.3,0.5-0.2,0.9-0.2,1.2v0.1c-0.1,0.5,0,0.9,0.2,1.2c0,0,0,0.1,0.1,0.1c0,0.2-0.1,0.4-0.1,0.6c-0.1,0.2-0.2,0.4-0.2,0.6v0.2
					c-0.4,0.1-0.7,0.4-0.8,0.7c-0.2,0.1-0.4,0.3-0.5,0.6H119c-0.3,0-0.6,0.1-0.7,0.4c-0.2,0.2-0.2,0.6-0.1,0.8l0.4,1.2
					c0.1,0.3,0.3,0.5,0.6,0.6v0.2h-2c-0.4,0-0.7,0.2-0.8,0.5c-0.2,0.3-0.1,0.7,0.1,1l0.4,0.5V78c0,0.5,0.4,0.9,0.9,0.9h0.7v0.7
					c-0.3,0.2-0.5,0.5-0.5,0.8v1.1c0,0.3,0.1,0.5,0.3,0.7v0.3c0,0.5,0.4,0.9,0.8,0.9c1,0.1,2,0.2,2.9,0.3h0.1c0.2,0,0.4-0.1,0.6-0.2
					c0.2-0.2,0.3-0.4,0.3-0.7v-0.6c0.2-0.1,0.3-0.3,0.3-0.5h2.6c0,0.2,0.2,0.4,0.3,0.5v1.5c0,0.4,0.3,0.8,0.7,0.9
					c1.1,0.3,2,0.5,2.8,0.8c0.1,0,0.2,0.1,0.3,0.1c0.2,0,0.4-0.1,0.5-0.2c0.3-0.2,0.4-0.5,0.4-0.8v-2.3c0.2-0.1,0.3-0.3,0.3-0.5h2.6
					c0,0.2,0.2,0.4,0.3,0.5V97c0,0.5,0.4,0.9,0.9,0.9h2.9c0.5,0,0.9-0.4,0.9-0.9V82.4c0.2-0.1,0.3-0.3,0.3-0.5h2.6
					c0,0.2,0.2,0.4,0.3,0.5V97c0,0.5,0.4,0.9,0.9,0.9h2.9c0.5,0,0.9-0.4,0.9-0.9V82.4c0.2-0.1,0.3-0.3,0.3-0.5h2.6
					c0,0.2,0.2,0.4,0.3,0.5V97c0,0.5,0.4,0.9,0.9,0.9h2.9c0.5,0,0.9-0.4,0.9-0.9V82.4c0.2-0.1,0.3-0.3,0.3-0.5h2.6
					c0,0.2,0.2,0.4,0.3,0.5V97c0,0.5,0.4,0.9,0.9,0.9h2.9c0.5,0,0.9-0.4,0.9-0.9V82.4c0.2-0.2,0.3-0.4,0.3-0.7v-1.1
					c0-0.3-0.2-0.6-0.5-0.8v-0.7h0.7c0.5,0,0.9-0.4,0.9-0.9v-0.7l0.4-0.5c0.2-0.2,0.2-0.4,0.2-0.6c0-0.5-0.4-0.9-0.9-0.9l0,0h-2
					v-0.2c0.3-0.1,0.5-0.3,0.6-0.6l0.4-1.2c0.1-0.3,0-0.6-0.1-0.8c-0.2-0.2-0.5-0.4-0.7-0.4h-13.9c-0.1-0.2-0.3-0.4-0.5-0.6
					c0-0.2-0.2-0.4-0.3-0.6v-0.3c0-0.2,0-0.5-0.2-0.6c0-0.2,0-0.4-0.1-0.6c0,0,0,0,0.1-0.1c0.2-0.3,0.3-0.7,0.2-1.2v-0.1
					c0.1-0.3,0.2-0.8-0.2-1.2c-0.1-0.2-0.4-0.4-0.9-0.5c0,0-0.1,0-0.2,0c-1.1,0-1.6,1.3-1.9,2.2c-0.1,0.1-0.1,0.3-0.1,0.4
					c-0.1,0.1-0.2,0.3-0.3,0.4c-0.1-0.2-0.2-0.5-0.3-0.6l-0.1-0.9c0-0.2,0.1-0.4,0-0.6v-0.1l0,0c0.1-0.4-0.1-0.8-0.5-0.9
					c-0.1-0.1-0.3-0.1-0.4-0.1c-0.1,0-0.2,0-0.3,0.1c-0.1,0-0.2,0-0.3,0s-0.1,0-0.2,0c0.1-0.2,0.1-0.4,0.1-0.7
					c0-0.3-0.1-0.6-0.2-0.9l0,0c0.1-0.1,0.2-0.2,0.2-0.2c0.1-0.1,0.2-0.2,0.2-0.4c0.1-0.2,0.2-0.4,0.2-0.7v-0.1
					c0.1-0.3,0-0.6-0.2-0.8C142.4,62.2,142.1,62.1,141.8,62.1L141.8,62.1L141.8,62.1L141.8,62.1z"/>
			</g>
			<g>
				<path class="st0" d="M119.6,91.6c-0.2,0-0.4-0.2-0.4-0.5v-2.4c0-1,0.7-1.7,1.6-1.7s1.6,0.8,1.6,1.7v2.6c0,0.1-0.1,0.3-0.1,0.3
					c-0.1,0.1-0.2,0.1-0.3,0.1C122,91.8,119.6,91.6,119.6,91.6z"/>
				<path class="st1" d="M120.8,87.4c0.6,0,1.2,0.6,1.2,1.3v2.6l-2.3-0.2v-2.4C119.6,88,120.2,87.4,120.8,87.4 M120.8,86.5
					c-1.2,0-2.1,1-2.1,2.2v2.4c0,0.5,0.4,0.9,0.8,0.9l2.3,0.2h0.1c0.2,0,0.5-0.1,0.6-0.2c0.2-0.2,0.3-0.4,0.3-0.7v-2.6
					C122.9,87.5,122,86.5,120.8,86.5L120.8,86.5z"/>
			</g>
		</g>
		<g>
			<g>
				<path class="st0" d="M162.2,97.5c-0.3,0-0.5-0.2-0.5-0.5V81.7c0-0.2,0.1-0.4,0.3-0.4v-0.2l0,0c-0.3,0-0.5-0.2-0.5-0.5v-2.4
					c0-0.3,0.2-0.5,0.5-0.5h1.2v-0.6c0-0.1,0-0.2,0.1-0.3h-1.9c-0.3,0-0.5-0.2-0.5-0.5v-2c0-0.3,0.2-0.5,0.5-0.5h0.3l0.1-0.3h-6
					c-0.1,0-0.3-0.1-0.3-0.2c-0.1-0.1-0.1-0.2-0.1-0.4l0.1-0.7l-0.8-1.2c-0.1-0.1-0.1-0.3,0-0.5l1.2-2.6l-0.7-1.1
					c-0.1-0.1-0.1-0.3,0-0.4l0.3-0.8l-0.1-0.1c-0.1-0.1-0.2-0.3-0.2-0.4l0.1-1.2l-0.4-0.3c-0.1-0.1-0.2-0.3-0.2-0.4l0.1-0.4
					l-0.4-0.2l-0.1-0.1c-0.8-0.8-0.1-2.8,0.7-4.3l0,0v-0.9l-0.3-0.5c-0.1-0.1-0.1-0.2-0.1-0.3v-3.3c-0.2-0.2-0.3-0.4-0.3-0.6v-0.7
					c-0.3-0.1-0.4-0.4-0.4-0.7c0,0,0,0,0-0.1l0,0c-0.1-0.1-0.1-0.3-0.1-0.4l0,0c-0.1-0.1-0.2-0.3-0.2-0.5c0,0,0,0,0-0.1
					c-0.1-0.1-0.1-0.3-0.1-0.4v-0.1c0.1-0.3,0.3-0.5,0.6-0.6v-0.1v-0.5c-0.1-0.1-0.1-0.1-0.1-0.2l-0.2-1c0-0.1,0-0.3,0.1-0.4
					c0.1-0.1,0.2-0.2,0.4-0.2l0,0c-0.2-0.1-0.3-0.3-0.4-0.5c-0.3-0.6-0.3-1.3,0.1-2.2c0-0.1,0.1-0.2,0.3-0.3V42
					c0-0.2,0.1-0.3,0.2-0.4c0.1,0,0.1-0.1,0.2-0.1c0.1,0,0.2,0,0.3,0.1s2,1.4,2.1,3.1c0,0.1,0,0.3,0,0.4c-0.1,0.5-0.2,1.1-0.6,1.4
					l0,0h0.2c0.1,0,0.3,0.1,0.4,0.2c0.1,0.1,0.1,0.3,0.1,0.4l-0.2,1c0,0.1-0.1,0.2-0.1,0.2v0.5c0,0.1,0,0.2-0.1,0.3l-0.1,0.1
					c0.2,0.2,0.4,0.4,0.4,0.4c0.1,0.1,0.1,0.2,0.1,0.3v2l0.7,3.6v0.4l1,0.4l-0.6-1.7c-0.1-0.2,0-0.4,0.2-0.6c0.1,0,0.2-0.1,0.2-0.1
					c0.1,0,0.3,0.1,0.3,0.2l1.3,1.5l0.3-1.8c0-0.2,0.2-0.4,0.5-0.4l0,0c0.2,0,0.4,0.2,0.5,0.4l0.4,2l1.4-1.6
					c0.1-0.1,0.2-0.2,0.3-0.2s0.2,0,0.2,0.1c0.2,0.1,0.3,0.3,0.2,0.6l-0.6,1.7l1.5-0.7c0.1,0,0.1,0,0.2,0c0.1,0,0.3,0.1,0.4,0.2
					c0.1,0.2,0.1,0.4-0.1,0.6l-1.9,1.8l-0.1,0.4c0,0.1-0.1,0.2-0.2,0.3l0.1,3.6l1.2,0.7c0.1,0.1,0.2,0.2,0.2,0.3c0,0,0.4,1.4,0.5,2
					c0,0.2,0.6,0.9,1.1,1.5l0.7-1.1c0.1-0.1,0.2-0.2,0.4-0.2c0.1,0,0.1,0,0.2,0l2.4,1.2c0.1,0,0.2,0.1,0.2,0.2L170,68
					c0.1,0.1,0.1,0.3,0,0.5l-0.3,0.5l0.1,0.7c0,0.1,0,0.3-0.1,0.4c-0.3,0.4-0.7,1-0.8,1.1c-0.1,0.2-0.5,0.5-1,0.6l-1,1.4
					c-0.1,0.1-0.1,0.1-0.2,0.2l-0.7,0.2h-0.1c-0.1,0-0.1,0-0.2,0l1.1,6c0,0.1,0,0.2,0,0.3l-0.4,0.9l0.2,1.4c0,0.2,0,0.3-0.2,0.4
					l-0.7,0.6v2.1h1.5c0.1,0,0.2,0,0.3,0.1s0.1,0.2,0.1,0.3V97c0,0.3-0.2,0.5-0.5,0.5H162.2z M165.2,94.8v-6.9h-0.8v6.9H165.2z
					 M158,59.9v-0.6c-0.1,0-0.1-0.1-0.1-0.2v0.2c0,0.1,0,0.1,0,0.2L158,59.9L158,59.9z M157.9,59.1l-0.1-0.6l-0.1-0.1
					C157.7,58.4,157.9,59.1,157.9,59.1z"/>
				<path class="st1" d="M154.2,42.4c0,0,1.8,1.2,1.9,2.7c0,0.1,0,0.2,0,0.4c0,0.4-0.2,1-0.6,1.2v0.7h0.6l-0.2,1h-0.2v0.9h-0.4v0.5
					c0.2,0.2,0.6,0.6,0.6,0.6v0.1v1.9l0.7,3.6v0.6l1.8,0.8l0.3-0.2L158,55l1.6,1.9c0.1-0.1,0.4-0.1,0.4-0.1l0.4-2.3l0.4,2.3
					c0,0,0.3,0.1,0.5,0.2l1.7-2l-0.9,2.4l0,0l0,0c0.1,0.1,0.2,0.1,0.2,0.2l2.2-1l-2,1.9l0,0l-0.1,0.5h-0.2l0.1,4.2l0,0l1.4,0.9
					c0,0,0.4,1.3,0.5,2c0.1,0.6,1.7,2.1,1.7,2.1l1-1.6l2.4,1.2l0.2,0.5l-0.4,0.7l0.2,0.9l0,0V70c0,0-0.7,1-0.9,1.2
					c-0.1,0.2-0.8,0.4-0.8,0.4l-1.1,1.5l-0.7,0.2l-0.8-0.5l1.2,7l-0.4,1l0.2,1.6l-0.9,0.7v2.7h2v11.3h-4.9V81.7h0.3v-1.1H162v-2.4
					h1.7v-1.1l0,0l0.6-0.7h-2.9v-2h0.6l0.4-1.2h-6.6l0.1-0.8l-0.9-1.3l1.3-2.8l-0.8-1.3l0.4-1.2l-0.4-0.3l0.1-1.4l-0.6-0.5l0.1-0.8
					l0,0l-0.7-0.4l0,0c-0.7-0.7,0.5-3.2,0.8-3.7c0-0.1,0.1-0.1,0.1-0.1v-1.2l-0.4-0.6v-3.5l0,0c-0.2-0.1-0.3-0.2-0.3-0.4v-0.3v-0.5
					v-0.3h-0.2c-0.1,0-0.3-0.1-0.3-0.3l0,0l0,0l0,0l0,0c0-0.1,0.1-0.2,0.2-0.2h-0.1c-0.1,0-0.2,0-0.2-0.1c0,0-0.1-0.1-0.1-0.2l0,0
					l0,0c0-0.1,0.1-0.1,0.2-0.2h-0.2c-0.1,0-0.3-0.1-0.3-0.3l0,0l0,0l0,0c0-0.1,0.1-0.1,0.2-0.2h-0.1c0,0,0,0-0.1,0
					c0,0-0.1,0-0.1-0.1c0,0-0.1-0.1-0.1-0.2l0,0l0,0c0-0.1,0.1-0.2,0.3-0.2l0,0h0.7v-0.6H154v-0.9h-0.2l-0.2-1h0.6v-0.7l0,0
					c0,0-1.2-0.3-0.5-2.3l0.3,0.8L154.2,42.4 M158.4,61.1l0.1-2.1h-0.2l-0.1-0.7l-1.5-1.5v1.3l0.5,0.5l0.3,0.9V60L158.4,61.1
					 M165.6,95.2v-7.8h-1.7v7.8H165.6 M154.2,41.4c-0.1,0-0.3,0-0.4,0.1c-0.3,0.2-0.5,0.5-0.5,0.8v1.3c-0.1,0.1-0.2,0.2-0.2,0.4
					c-0.4,1-0.4,1.9,0,2.6c0,0.1,0.1,0.1,0.1,0.2l0,0c-0.2,0.2-0.2,0.5-0.2,0.8l0.2,1c0,0.1,0.1,0.2,0.1,0.3v0.2
					c-0.3,0.2-0.5,0.5-0.6,0.8V50v0.1c0,0.2,0,0.4,0.1,0.6c0,0.2,0.1,0.4,0.2,0.6c0,0.2,0.1,0.3,0.1,0.4c0,0.3,0.2,0.7,0.4,0.9v0.1
					V53c0,0.3,0.1,0.6,0.3,0.8v3.1c0,0.2,0.1,0.4,0.2,0.6l0.3,0.4v0.6c-1.2,2.4-1.4,4-0.6,4.7l0.1,0.1l0.1,0.1l0.1,0.1v0.1
					c0,0.3,0.1,0.6,0.3,0.8l0.2,0.1l-0.1,0.9c0,0.3,0.1,0.5,0.3,0.7l-0.2,0.5c-0.1,0.3-0.1,0.5,0.1,0.8l0.5,0.9l-1.1,2.3
					c-0.1,0.3-0.1,0.6,0.1,0.9l0.7,1l-0.1,0.5c0,0.3,0,0.5,0.2,0.7s0.4,0.3,0.7,0.3h4.7c0,0.1-0.1,0.2-0.1,0.3v2
					c0,0.5,0.4,0.9,0.9,0.9h0.3c-0.4,0.1-0.7,0.5-0.7,0.9v2.4c0,0.2,0.1,0.5,0.2,0.6c-0.1,0.1-0.1,0.3-0.1,0.4V97
					c0,0.5,0.4,0.9,0.9,0.9h4.9l0,0c0.5,0,0.9-0.4,0.9-0.9V85.7c0-0.2-0.1-0.5-0.3-0.7s-0.4-0.3-0.7-0.3h-1v-1.4l0.5-0.4
					c0.2-0.2,0.4-0.5,0.3-0.8l-0.2-1.3l0.3-0.7c0.1-0.2,0.1-0.3,0.1-0.5l-1-5.5L166,74c0.2-0.1,0.4-0.2,0.5-0.3l0.9-1.3
					c0.8-0.3,1-0.7,1.1-0.8c0.1-0.1,0.5-0.6,0.8-1c0.2-0.2,0.2-0.5,0.2-0.7v-0.1l-0.1-0.5l0.2-0.4c0.2-0.3,0.2-0.6,0-0.9l-0.2-0.5
					c-0.1-0.2-0.2-0.3-0.4-0.4l-2.4-1.2c-0.1-0.1-0.3-0.1-0.4-0.1c-0.3,0-0.6,0.2-0.8,0.4l-0.4,0.6c-0.3-0.4-0.6-0.7-0.6-0.9
					c-0.1-0.6-0.5-1.9-0.5-2c-0.1-0.2-0.2-0.4-0.4-0.5l-1-0.6l-0.1-3.1c0.1-0.1,0.2-0.2,0.2-0.4v-0.2l1.8-1.7
					c0.3-0.3,0.4-0.8,0.1-1.2c-0.2-0.3-0.5-0.4-0.8-0.4c-0.1,0-0.2,0-0.4,0.1l-0.6,0.2l0.2-0.6c0.2-0.4,0-0.9-0.4-1.1
					c-0.1-0.1-0.3-0.1-0.5-0.1c-0.3,0-0.5,0.1-0.7,0.3l-0.8,0.9l-0.2-1c-0.1-0.4-0.5-0.8-0.9-0.8l0,0c-0.4,0-0.8,0.3-0.9,0.8
					l-0.2,0.9l-0.6-0.8c-0.2-0.2-0.4-0.3-0.7-0.3c-0.2,0-0.3,0-0.5,0.1c-0.1,0-0.1,0.1-0.2,0.2l-0.4-2v-1.8v-0.1
					c0-0.2-0.1-0.5-0.2-0.6c0,0,0,0-0.1-0.1c0.1-0.1,0.1-0.3,0.1-0.4v-0.4c0.1-0.1,0.1-0.2,0.1-0.3l0.2-1c0.1-0.3,0-0.6-0.2-0.8
					c0-0.1-0.1-0.1-0.2-0.2c0.2-0.4,0.3-0.8,0.3-1.1c0-0.1,0-0.3,0-0.5c-0.1-1.9-2.1-3.3-2.4-3.4C154.6,41.5,154.4,41.4,154.2,41.4
					L154.2,41.4z"/>
			</g>
			<g>
				<path class="st0" d="M154.2,97.4c-0.3,0-0.5-0.2-0.5-0.5v-1.8c0-0.1,0-0.2,0.1-0.3c0.1-0.1,0.2-0.1,0.3-0.1h0.5v-6.9h-0.5
					c-0.3,0-0.5-0.2-0.5-0.5v-1.7c0-0.1,0-0.2,0.1-0.3c0,0,0,0,0.1,0l0.4-1.5l-0.4-2c0-0.1,0-0.2,0.1-0.3V81c0-0.3,0.2-0.5,0.5-0.5
					h4.4c0.3,0,0.5,0.2,0.5,0.5v0.3c0.2,0.1,0.3,0.2,0.3,0.4V97c0,0.1,0,0.2-0.1,0.3c-0.1,0.1-0.2,0.1-0.3,0.1H154.2z M158.2,94.8
					v-6.9h-0.8v6.9H158.2z"/>
				<path class="st1" d="M159,80.9v0.8h0.3V97h-5.1v-1.8h1v-7.8h-1v-1.7h0.1l0.5-1.8l-0.4-2.1h0.1V81L159,80.9 M158.6,95.2v-7.8
					h-1.7v7.8H158.6 M159,80h-4.4c-0.5,0-0.9,0.4-0.9,0.9v0.4c-0.1,0.2-0.1,0.4-0.1,0.5l0.3,1.9l-0.4,1.3c-0.2,0.2-0.2,0.4-0.2,0.6
					v1.7c0,0.5,0.4,0.9,0.9,0.9h0.1v6l0,0l0,0c-0.2,0-0.5,0.1-0.7,0.3c-0.2,0.2-0.3,0.4-0.3,0.7V97c0,0.5,0.4,0.9,0.9,0.9h5.1l0,0
					c0.2,0,0.5-0.1,0.7-0.3c0.2-0.2,0.3-0.4,0.3-0.7V81.7c0-0.3-0.1-0.5-0.3-0.7l0,0C159.9,80.4,159.5,80,159,80L159,80z"/>
			</g>
		</g>
	</g>
	<g>
		<g>
			<path class="st0" d="M85.4,36.7c-0.6,0-1.6-0.5-2.1-1.1c-0.4-0.4-1.1-2.9-2.4-8.1c-0.3-1.3-0.6-2.5-0.8-3c-0.9-0.1-3.2-0.5-3.5-1
				c-0.3-0.4,0.1-1.8,0.2-2c0.2-0.5,0.3-0.7,0.5-0.8c0.1,0,0.2,0,0.3,0c0.3,0,1,0.2,1.6,0.3c-0.2-0.8-0.8-2.1-1-2.4
				c-0.1,0-0.4-0.1-0.7-0.2c-1.4-0.3-3.9-0.8-5.7-1.3c-2-0.5-4-2.5-3.8-3.2s2.1-1.2,3.6-1.2c0.5,0,0.9,0,1.3,0.1
				c1.8,0.4,4.3,1.1,5.7,1.5c0.3,0.1,0.6,0.2,0.7,0.2c0.4-0.2,1.4-1.1,2-1.7c-0.7-0.1-1.5-0.3-1.8-0.6c-0.2-0.2-0.2-0.4-0.1-1
				c0-0.3,0.3-1.6,0.7-1.9c0.1-0.1,0.3-0.1,0.4-0.1c0.6,0,2.4,0.5,3.2,0.8c0.4-0.4,1.3-1.4,2.1-2.3c3.6-4,5.3-5.9,5.9-6.1
				c0.4-0.1,0.8-0.2,1.2-0.2c0.5,0,1.1,0.1,1.4,0.4c0.1,0.1,0.2,0.3,0.1,0.5c0,0.2-0.3,0.6-2.1,3.4c-1.4,2.1-3.2,4.8-3.6,5.5
				c-0.6,1.2-1.3,3.9-1.4,4.7c1.4,0.6,9.2,3,10.2,3.2c0.2-0.1,0.7-0.7,1.1-1.1c0.7-0.8,1.5-1.7,2.2-2c0.6-0.2,1.1-0.3,1.4-0.3
				c0.2,0,1.4,0,1.6,0.7c0.1,0.3,0,0.5-1,2c-0.4,0.7-1.1,1.9-1.3,2.4c2.3,1.2,2.5,1.4,2.4,1.8s-0.4,0.5-2.9,0.5c0,0.5,0,1.9,0.1,2.7
				c0.1,1.8,0.1,2-0.1,2.3c-0.1,0.1-0.3,0.2-0.5,0.2c-0.6,0-1.6-0.5-2.3-1.3c-0.5-0.6-0.7-1.7-1-2.8c-0.1-0.5-0.3-1.3-0.4-1.5
				c-1-0.3-9-1.7-10.5-1.9c-0.3,0.8-0.9,3.5-0.9,4.8c0,0.9,0.3,4,0.6,6.6c0.3,3.3,0.4,3.8,0.3,4C86,36.4,85.8,36.7,85.4,36.7z"/>
			<path class="st1" d="M92.9,1.9c0.6,0,1.1,0.1,1,0.3c0,0.3-4.9,7.4-5.6,8.8s-1.6,4.9-1.5,5.2c0.2,0.3,10.2,3.3,10.7,3.4l0,0
				c0.5,0,2.3-2.7,3.4-3.2c0.4-0.2,0.9-0.3,1.3-0.3c0.6,0,1.1,0.2,1.1,0.3c0.1,0.3-2.7,4.3-2.3,4.5c0.3,0.2,2.4,1.3,2.4,1.5
				s-2.4,0.2-2.8,0.2c-0.5,0,0.2,4.9,0,5.1c0,0-0.1,0.1-0.2,0.1c-0.4,0-1.3-0.4-1.9-1.1c-0.7-0.9-1.1-4.2-1.5-4.4
				c-0.5-0.2-10-1.9-11-1.9h-0.1c-0.3,0.2-1.1,3.7-1.1,5.3c0,1.6,1,10.1,0.9,10.4c0,0.1-0.1,0.1-0.2,0.1c-0.4,0-1.3-0.4-1.8-0.9
				c-0.6-0.7-3-11.1-3.2-11.2c-0.6,0-3.3-0.6-3.5-0.8c-0.1-0.2,0.3-2.1,0.5-2.2h0.1c0.4,0,1.8,0.4,2.1,0.5c0.2-0.1-1-3.4-1.4-3.5
				s-4.1-0.8-6.6-1.5c-2-0.5-3.6-2.4-3.5-2.7c0.1-0.2,1.5-0.9,3.1-0.9c0.4,0,0.8,0,1.2,0.1c2.5,0.6,6.1,1.7,6.5,1.7l0,0
				c0.4,0,3-2.3,2.8-2.5c-0.5,0-2.1-0.4-2.2-0.6c-0.2-0.2,0.3-2,0.5-2.2h0.1c0.6,0,2.9,0.7,3.3,0.9c0.3-0.1,7.2-8.2,8-8.5
				C92.2,1.9,92.6,1.9,92.9,1.9 M92.9,1c-0.5,0-1,0.1-1.4,0.2c-0.6,0.2-1.8,1.4-6.1,6.2C84.8,8.1,84,9,83.6,9.5
				c-0.9-0.3-2.5-0.7-3.1-0.7c-0.2,0-0.4,0-0.6,0.2c-0.5,0.3-0.8,1.4-1,2.2c-0.1,0.6-0.1,1,0.2,1.3c0.2,0.2,0.7,0.4,1.2,0.6
				c-0.4,0.4-0.9,0.7-1.1,0.9c-0.1,0-0.3-0.1-0.5-0.2c-1.3-0.4-3.9-1.1-5.7-1.5c-0.4-0.1-0.9-0.2-1.4-0.2c-1.2,0-3.7,0.5-4,1.6
				s2.1,3.3,4.2,3.8c1.8,0.5,4.4,1,5.8,1.3c0.2,0,0.4,0.1,0.5,0.1c0.2,0.3,0.4,0.8,0.6,1.3c-0.3-0.1-0.6-0.1-0.8-0.1
				c-0.2,0-0.3,0-0.4,0.1c-0.4,0.2-0.6,0.5-0.8,1.1c-0.3,0.8-0.5,1.9-0.2,2.4c0.4,0.6,2.5,1,3.6,1.2c0.2,0.6,0.5,1.7,0.7,2.7
				c1.6,6.2,2.1,7.8,2.5,8.3c0.6,0.7,1.7,1.2,2.4,1.2c0.5,0,1-0.3,1.1-0.8c0.1-0.3,0.1-0.4-0.3-4.1c-0.2-2.4-0.6-5.7-0.6-6.5
				c0-1.2,0.5-3.4,0.8-4.3c2,0.3,8.3,1.4,9.9,1.8c0.1,0.3,0.2,0.8,0.3,1.2c0.3,1.1,0.6,2.3,1.1,3c0.8,0.9,1.9,1.4,2.6,1.4
				c0.5,0,0.7-0.2,0.9-0.3c0.4-0.4,0.3-0.7,0.2-2.6c0-0.6-0.1-1.6-0.1-2.2c2,0,2.7-0.1,2.9-0.9c0.2-0.8-0.4-1.2-2.2-2.1
				c0.3-0.6,0.8-1.4,1.1-1.9c1-1.6,1.2-1.9,1-2.4c-0.3-0.9-1.5-1-2-1c-0.4,0-1,0.1-1.6,0.3c-0.8,0.3-1.6,1.2-2.3,2.1
				c-0.3,0.3-0.6,0.7-0.9,0.9c-1.5-0.4-7.7-2.3-9.6-3c0.2-1,0.8-3.1,1.3-4.2c0.4-0.8,2.2-3.5,3.5-5.5c2.1-3.1,2.1-3.2,2.2-3.5
				s0-0.6-0.2-0.9C94.4,1.1,93.8,1,92.9,1L92.9,1z"/>
		</g>
		<g>
			<path class="st0" d="M105.3,23.2c10.3,1.6,21.2,7.3,26.8,16.4c1.4,2.3,2.5,5.3,1.5,7.8c-0.6,1.4-1.7,2.4-2.9,3.2
				c-2.2,1.4-4.8,2-7.3,2.1c-6.4,0.2-9.6-0.6-15.5-2.8"/>
			<g>
				<path class="st2" d="M105.3,23.2c0.3,0,0.6,0.1,0.9,0.2"/>
				<path class="st3" d="M109.9,24.2c8.8,2.4,17.4,7.7,22.1,15.4c1.4,2.3,2.5,5.3,1.5,7.8c-0.6,1.4-1.7,2.4-2.9,3.2
					c-2.2,1.4-4.8,2-7.3,2.1c-5.4,0.2-8.5-0.3-12.8-1.8"/>
				<path class="st2" d="M108.6,50.2c-0.3-0.1-0.6-0.2-0.9-0.3"/>
			</g>
		</g>
	</g>
</g>
</svg>
