<?xml version="1.0" encoding="utf-8"?>
<!-- Generator: Adobe Illustrator 22.1.0, SVG Export Plug-In . SVG Version: 6.00 Build 0)  -->
<svg version="1.1" id="Livello_1" xmlns="http://www.w3.org/2000/svg" xmlns:xlink="http://www.w3.org/1999/xlink" x="0px" y="0px"
	 viewBox="0 0 100 100" style="enable-background:new 0 0 100 100;" xml:space="preserve">
<style type="text/css">
	.st0{fill:none;stroke:#218AE5;stroke-width:1.5;stroke-miterlimit:10;}
</style>
<g>
	<path class="st0" d="M72.5,38.8c-0.5,0.3-0.9,0.4-1.4,0.4c-1.4,0-2.7-1-3.3-1.8c-0.2-0.3-0.3-0.7-0.1-1.1l2.2-3.6
		c-5.1-3.4-11.1-5.4-17.7-5.4c-17.6,0-31.8,14.2-31.8,31.8s14.2,31.8,31.8,31.8S84,76.7,84,59.1c0-8.7-3.5-16.7-9.2-22.4
		C73.7,37.8,72.9,38.6,72.5,38.8z"/>
	<line class="st0" x1="52.2" y1="27.4" x2="52.2" y2="90.9"/>
	<path class="st0" d="M52.4,90.8c-12.3-5.3-18.7-17.5-18.7-31.6c0-14.2,6.5-26.4,18.8-31.7"/>
	<path class="st0" d="M52.8,90.8c12.3-5.3,18.7-17.5,18.7-31.6c0-14.2-6.5-26.4-18.8-31.7"/>
	<line class="st0" x1="84.4" y1="58.7" x2="20.8" y2="58.7"/>
	<path class="st0" d="M25.8,77c7.4-4,16.7-4.6,26.8-4.6c9.8,0,18.8,0.5,26,4.2"/>
	<path class="st0" d="M25.7,41.2c7.4,4,16.7,4.7,26.8,4.7c9.8,0,18.9-0.5,26.1-4.3"/>
	<g>
		<g>
			<path class="st0" d="M71.1,39.2c-1.4,0-2.7-1-3.3-1.8c-0.2-0.3-0.3-0.7-0.1-1.1L76,22.5l-5.9-4.1L65,21.2
				c-0.4,0.2-0.8,0.1-1.1-0.2l-2.2-2.2c-0.2-0.2-0.3-0.5-0.3-0.7c0-0.3,0.2-0.5,0.4-0.7c1.1-0.8,4.2-3,5-4.1c0.7-1,1.4-5,1.7-7.3
				c0-0.3,0.3-0.6,0.6-0.8c0.3-0.1,0.7-0.1,0.9,0.2l2.6,2.3c0.2,0.2,0.3,0.4,0.3,0.7v4.9l7,3.1L87.7,2c0.2-0.4,0.7-0.6,1.1-0.4
				c0.1,0,2.5,0.9,3.1,3.3c0.4,1.9-2.8,11.6-4.2,15.5c1.7,1,6.2,3.8,6.9,4.2c2.6,1.6,2.4,3.9,1.7,5.5c-1.3,3-3.9,2.2-4.8,1.9
				c-0.1,0-0.3-0.1-0.3-0.1c-0.8-0.2-5.9-3-8.6-4.5c-2.1,2.7-8.4,10.6-10,11.4C72,39.1,71.5,39.2,71.1,39.2z"/>
		</g>
	</g>
	<path class="st0" d="M25.8,98.6C12.7,90.2,4,75.4,4,58.6c0-26.3,21.3-47.7,47.7-47.7c5.2,0,10.2,0.8,14.9,2.4"/>
</g>
</svg>
