<?xml version="1.0" encoding="utf-8"?>
<!-- Generator: Adobe Illustrator 22.1.0, SVG Export Plug-In . SVG Version: 6.00 Build 0)  -->
<svg version="1.1" id="Livello_1" xmlns="http://www.w3.org/2000/svg" xmlns:xlink="http://www.w3.org/1999/xlink" x="0px" y="0px"
	 viewBox="0 0 100 100" style="enable-background:new 0 0 100 100;" xml:space="preserve">
<style type="text/css">
	.st0{fill:none;stroke:#2C8FE6;stroke-width:1.5;stroke-miterlimit:10;}
</style>
<g>
	<g>
		<path class="st0" d="M56.3,41.6v-40H42.7v51.5h2.4C51.4,53.1,56.3,47.9,56.3,41.6z"/>
		<path class="st0" d="M65.6,10.2v15.9c0.4,0.2,0.8,0.3,1.1,0.5C75.3,32.1,81,41.7,81,52.6c0,16.6-13,30.2-29.4,31c-0.5,0-1,0-1.6,0
			c-1.5,0-2.9-0.1-4.3-0.3c-0.1,0-0.1,0-0.2,0c-0.5-0.1-1-0.2-1.4-0.2c0,0,0,0,0,0c0,0,0,0,0,0c-0.5-0.1-0.9-0.2-1.4-0.3
			c0,0,0,0,0,0c-0.5-0.1-0.9-0.2-1.4-0.4l0,0c-0.4-0.1-0.8-0.2-1.2-0.4c0.4,0.1,0.8,0.3,1.2,0.4C28.4,78.6,19,66.7,19,52.6
			c0-10.9,5.3-20.5,13.9-26.1c0.3-0.2,0.6-0.4,0.6-0.5V10.2c-17.1,6.5-29,23-29,42.4C4.4,77.7,24.8,98,49.9,98
			C75,98,95.1,77.7,95.1,52.6C95.1,33.2,82.6,16.7,65.6,10.2z"/>
	</g>
</g>
</svg>
