<?xml version="1.0" encoding="utf-8"?>
<!-- Generator: Adobe Illustrator 24.0.3, SVG Export Plug-In . SVG Version: 6.00 Build 0)  -->
<svg version="1.1" xmlns="http://www.w3.org/2000/svg" xmlns:xlink="http://www.w3.org/1999/xlink" x="0px" y="0px"
	 viewBox="0 0 768 624" style="enable-background:new 0 0 768 624;" xml:space="preserve">
<style type="text/css">
	.st0{display:none;}
	.st1{display:inline;}
	.st2{fill:#FFFFFF;}
	.st3{fill:none;stroke:#FFFFFF;stroke-width:2;stroke-miterlimit:10;}
	.st4{fill:none;stroke:#FFFFFF;stroke-width:2;stroke-linecap:round;stroke-linejoin:round;stroke-miterlimit:10;}
	.st5{fill:url(#SVGID_1_);}
	.st6{fill:none;stroke:#218AE5;stroke-miterlimit:10;}
	.st7{display:inline;fill:#F1F1F1;}
	.st8{display:inline;fill:url(#SVGID_2_);}
	.st9{display:inline;fill:none;stroke:#218AE5;stroke-width:2;stroke-miterlimit:10;}
	.st10{opacity:0.6;fill:#FFFFFF;}
	.st11{display:inline;fill:none;stroke:#218DE8;stroke-width:2;stroke-miterlimit:10;}
	.st12{fill:#218AE5;}
	.st13{fill:#CBCBCB;}
	.st14{fill:url(#SVGID_3_);}
	.st15{display:inline;fill:none;stroke:#808080;stroke-miterlimit:10;}
	.st16{fill:url(#SVGID_4_);}
	.st17{fill:none;stroke:#FFFFFF;stroke-width:2.0006;stroke-miterlimit:10;}
	.st18{fill:none;stroke:#FFFFFF;stroke-width:1.9294;stroke-miterlimit:10;}
	.st19{display:inline;fill:#FFFFFF;}
	.st20{fill:#CBE6F9;}
	.st21{fill:#2A2A55;}
	.st22{fill:#263E83;}
	.st23{fill:#F8D0A3;}
	.st24{fill:#283996;}
	.st25{fill:#DFB58B;}
	.st26{fill:#E2E2E2;}
	.st27{fill:#353854;}
	.st28{fill:#88CFFF;}
	.st29{fill:#73C3EF;}
	.st30{fill:#CCA079;}
	.st31{fill:#97C4E3;}
	.st32{fill:#BA8D6A;}
	.st33{fill:#027CCE;}
	.st34{fill:#008EED;}
	.st35{fill:#E6E6E6;}
	.st36{fill:#1A1A3A;}
	.st37{fill:#0563AF;}
	.st38{fill:url(#SVGID_5_);}
	.st39{fill:url(#SVGID_6_);}
	.st40{fill:url(#SVGID_7_);}
	.st41{fill:url(#SVGID_8_);}
	.st42{fill:url(#SVGID_9_);}
	.st43{fill:url(#SVGID_10_);}
	.st44{fill:url(#SVGID_11_);}
	.st45{fill:url(#SVGID_12_);}
	.st46{fill:url(#SVGID_13_);}
	.st47{fill:#1C2377;}
	.st48{fill:#CCCCCC;}
	.st49{fill:#218DE8;}
	.st50{fill:none;}
	.st51{fill:#FBFAFA;}
	.st52{fill:#80B4E2;}
	.st53{fill:#F2F2F2;}
	.st54{clip-path:url(#SVGID_15_);}
	.st55{fill:#629FCC;}
	.st56{fill:#127CC4;}
	.st57{fill:#2F2F65;}
	.st58{fill:#277DC4;}
	.st59{fill:#E4F2F6;}
	.st60{opacity:0.1;fill:#5C4A45;}
	.st61{fill:#37A5EF;}
	.st62{fill:#156FD1;}
	.st63{fill:#4BB9F7;}
	.st64{fill:#61A4D6;}
	.st65{fill:#A0CDEF;}
	.st66{fill:#182C7F;}
	.st67{fill:#E0B489;}
	.st68{fill:#7E492B;}
	.st69{fill:#BDC5E4;}
	.st70{fill:#121C60;}
	.st71{fill:#D1A278;}
	.st72{fill:#F7CFA2;}
	.st73{fill:#323658;}
	.st74{fill:#BDB69D;}
	.st75{fill:#343B57;}
	.st76{fill:#3D476E;}
	.st77{fill:#76C1DA;}
	.st78{fill:#E1D7D2;}
	.st79{fill:#809ED1;}
	.st80{fill:#29A9EF;}
	.st81{fill:#071E56;}
	.st82{fill:#2152A3;}
	.st83{fill:#2D59B2;}
	.st84{fill:#122C75;}
	.st85{fill:#0A154C;}
	.st86{fill:#6680BB;}
	.st87{fill:#142275;}
	.st88{fill:#546597;}
	.st89{fill:#6284EF;}
	.st90{fill:#174AC9;}
	.st91{fill:#0F45B2;}
	.st92{fill:#D9DDEE;}
	.st93{fill:#464B7A;}
	.st94{fill:#394AC4;}
	.st95{fill:#7D83D7;}
	.st96{fill:#CEA680;}
	.st97{fill:#343B5C;}
	.st98{fill:#0E1759;}
	.st99{fill:#025ECC;}
	.st100{clip-path:url(#SVGID_21_);fill:url(#SVGID_22_);}
	.st101{fill:url(#SVGID_23_);}
	.st102{fill:url(#SVGID_24_);}
	.st103{fill:url(#SVGID_25_);}
	.st104{fill:url(#SVGID_26_);}
	.st105{fill:url(#SVGID_27_);}
	.st106{fill:url(#SVGID_28_);}
	.st107{fill:url(#SVGID_29_);}
	.st108{fill:url(#SVGID_30_);}
	.st109{fill:url(#SVGID_31_);}
	.st110{clip-path:url(#SVGID_33_);}
</style>
<g id="Livello_1" class="st0">
	<rect x="77" y="-2410" class="st19" width="1920" height="2437"/>
</g>
<g id="BiancoSfondo">
</g>
<g id="Contattaci">
</g>
<g id="cosa_x27_altro_devi_sapere">
</g>
<g id="Come_funziona">
</g>
<g id="HEADER">
	<g>
		<path class="st20" d="M662.8,401.6c-0.7,41.1-11.2,86.3-44.8,109.8c-20.7,14.5-46.7,18.3-71.8,20.7
			c-126.2,12-261.1-6.2-362.4-82.5c-17.8-13.4-35.4-30.5-37.9-52.5c-1.8-16,4.7-31.7,12.6-45.7c15.4-27.5,36.1-51.7,57.7-74.6
			c52.6-55.8,111.4-105.7,175.1-148.4c23.8-16,48.5-31.1,74.4-43.6c3-2.1,6.1-4.1,9.2-6c10.9-6.6,31.1-15.6,48.4-11.3
			c21.2,5.3,34.9,25.2,45.9,44.1C621.4,200.2,664.5,298.6,662.8,401.6z"/>
		<g>
			<g>
				<path class="st21" d="M628.9,210.7c-0.1,0.9-0.2,1.8-0.2,2.7c0,8.9,7.2,16.1,16.1,16.1c5.3,0,9.9-2.5,12.9-6.5
					c-1.3,7.6-7.9,13.4-15.8,13.4c-8.9,0-16.1-7.2-16.1-16.1C625.7,216.7,626.9,213.4,628.9,210.7z"/>
				<path class="st22" d="M644.7,229.5c-8.9,0-16.1-7.2-16.1-16.1c0-0.9,0.1-1.8,0.2-2.7c2.9-3.9,7.6-6.5,12.9-6.5
					c8.9,0,16.1,7.2,16.1,16.1c0,0.9-0.1,1.8-0.2,2.7C654.7,226.9,650,229.5,644.7,229.5z"/>
			</g>
			<path class="st21" d="M716.3,301.5c0,0,4.3-11.9,7-25.5c3.6-18.1,8.3-26.4,9.3-33.7c0.3-2.1-3.2-4.3-7.8-8.1
				c-10.1-8.3-27-19.8-32-23.1c-7.3-4.9-15.1,8-15.1,8s11.4,0.7,17.9,5.7c8,6.1,20.7,21,20.7,21l-13.8,42.7L716.3,301.5z"/>
			<g>
				<path class="st23" d="M685.4,513.9c-0.7-1-8.4-11-8.4-16.8c0-4.3-0.9-7-2.1-9c0.5-1.1,0.9-2.6,0.8-4.8c-0.2-3.1-4.4-18-6-28.8
					c-2-13.3-1.2-23,1.1-28.5c2.3-7.8,0-27.6,0-38.4c0-2.3,0-37.5,0-37.5s21.1-27.9,20.5-22.5c-0.5,5.4,14.3,27.8,14.3,27.8
					s-6.6,10.4-5.7,19.7c0.9,9.3-6.9,36-10.7,46c-4.5,11.8,0,34-3.7,54.4c-1.7,9.2,2.9,20.1,4.3,23.2c0.9,1.9,1.4,6.4,3.4,10.1
					c0.7,1.4,1.8,3,2.7,4.5C693.2,514.5,687.5,516.7,685.4,513.9z"/>
				<path class="st24" d="M685.4,521.8c-4-0.9-3.3-7.9-5.3-14.2c-1-3.2-7.4-8.6-7.8-12.4c-0.4-3.8,1.4-4.7,2.5-7.1
					c1.2,1.9,2.1,4.7,2.1,9c0,5.8,7.7,15.8,8.4,16.8c2.1,2.7,7.8,0.6,10.4-0.6c0.6,1,1.3,1.9,1.7,2.7
					C700.8,520.7,692.7,523.4,685.4,521.8z"/>
			</g>
			<path class="st23" d="M689.9,333.1c0,0-8.5-5.8-13.8-7.9c-5.4-2.1-10.9-21.1-11.9-24.3c-3.3-11.2-9.6-31.5-9.9-36.2
				c-0.7-11.7,10.4-14.3,19.2-25.2c8.7-10.8,12.2-21,20.1-23.7c2.1-0.7,6.8,1.9,8.8,1c3.8-1.6,4-6.6,6.5-12.6
				c2.5-6.1,13.5-11.1,11.6-13.9c-2.3-3.4-11.1,0.5-16.5,4c-5.4,3.6-15.5,8.7-26.3,20.1c-4.6,4.8-33.1,28.2-41.2,40.9
				c-3.9,6.2,0.6,26.3,2,36.3c1.4,10,13.9,41.8,17,47.8c5.3,10.4,13.8,16.1,13.8,16.1S695,354.2,689.9,333.1z"/>
			<path class="st25" d="M689.9,333.1c0,0-8.5-5.8-13.8-7.9c-5.4-2.1-10.9-21.1-11.9-24.3c-3.3-11.2-9.6-31.5-9.9-36.2
				c-0.7-11.7,10.4-14.3,19.2-25.2c8.7-10.8-19.5,4.7-27.6,17.4c-3.9,6.2,1.6,21,3,31c1.4,10,11,42,14,48
				c5.3,10.4,6.4,19.5,6.4,19.5S695,354.2,689.9,333.1z"/>
			<path class="st24" d="M720.6,190.3c-1.5-2.3-6.2-1.2-10.7,0.8c0.7,1.1,1.3,2.7,0.1,3.9c-2,2-12.4,15-13.7,21c0,0,0,0,0,0
				c2.2,0.5,4.8,1.5,6.2,0.9c3.8-1.6,4-6.6,6.5-12.6C711.4,198.2,722.5,193.2,720.6,190.3z"/>
			<g>
				<path class="st23" d="M680.2,307.2c-0.9-5.3,5.6-12.1,8.9-17l0,0c1.2,1.7,8.3,2.3,16.1,1.7c2.3-0.2,4-0.6,5.3-1
					c0.8,1.3,1.8,2.8,3,4.3c11.1,13.3,12.8,17.9,10.2,29.3c-1.8,7.7-0.3,9.7-7.5,21.2c-6.4,10.3-15.7,18.7-15.7,18.7l-14.8-22.3
					c0,0,7-1.8,4-9C686.8,326,681.3,313.6,680.2,307.2z"/>
				<path class="st25" d="M689.1,290.2L689.1,290.2c0.7-1,1.3-1.9,1.6-2.7c1.9-4.6,0-11.5,0-11.5l16.7,3.5c0,0-0.9,4.7,3.1,11.5
					c-1.3,0.4-3.1,0.8-5.3,1C697.5,292.6,690.3,291.9,689.1,290.2z"/>
			</g>
			<g>
				<path class="st23" d="M716,248.3c8.3,8.6,4.9,38.4-7.2,40.3c-7.9,1.3-19-5.7-23-19.5C682.5,257.5,700.3,232,716,248.3z"/>
				<path class="st22" d="M681.1,242.6c0,6.4,4.5,11.5,10.1,11.5c5.6,0,10.1-5.2,10.1-11.5c0-6.4-4.5-11.5-10.1-11.5
					C685.7,231.1,681.1,236.3,681.1,242.6z"/>
				<path class="st22" d="M719.8,255.4c0,0-10.8,5.3-23.2,3.4c-1.8,1.8-2.3,4.4-3.3,7.1c-6.8-4.3-7.5,3.2-3.7,7.3
					c1.1,1.9-0.4,4.7-0.4,4.7s-8.7-8.2-7-20.4c1.6-12.2,12.2-22.3,29.3-14.5C718.3,246.1,719.8,255.4,719.8,255.4z"/>
			</g>
			<path class="st23" d="M692.9,294.6c0,0-8.9-1.6-13.9-11.9c-5-10.3-15.7-21.7-22.2-27.8c-6.5-6.1-22.2-20.3-22.2-20.3
				s-4.3-8.1,0-15.3c4.3-7.2,4.8-19.4-1.9-13.6c-6.7,5.7-11.7,11.1-9.6,21c2.2,9.9,5,17.7,9.3,20.6s15.1,16.4,17.2,17.9
				c2.2,1.5,34.1,51.8,34.1,51.8S694.8,310.1,692.9,294.6z"/>
			<path class="st25" d="M693.1,314.6c0,0-1.8-6.8-5.2-7.9c-3.4-1.1-4.4-2.7-4.6-1.6c-0.7,3.5,2.3,3.5,4.6,7.9
				C689.2,315.3,693,320.6,693.1,314.6z"/>
			<path class="st21" d="M710.5,351.4c0,0-5.3,12.3-4.9,17.6c0.4,5.3,4.9,9.6,4.9,9.6s-10,0-12.4-6
				C695.7,366.6,702.1,349.4,710.5,351.4z"/>
			<path class="st22" d="M701,371.7c0.7,8.4,2.5,13,2.5,13s-5.9-2.2-9.1-6.2c-1.5,4.4-7.5,7.7-7.5,7.7s1-5.1,0.5-12.3
				c-2.6,2.7-7.2,5.4-7.2,5.4s-2.4-10.4-2.4-14.8c-1.9,1.3-8,4.9-8,4.9s-0.9-9.2-0.2-12.2c-1.9,1-4.9,0-4.9,0s1.7-6,6.1-8.6
				c-1.9-0.3-7.3-3-7.3-3s4.2-5.3,7.3-6.6c-2.5-3.4-3.7-6-3.7-8.4c0-3.2,3.7-12.2,3.7-12.2s5,2.7,7,7.5c4.5-1,7,2.6,8.8,4.8
				c2.5-1.6-4.8-16.8-4.8-16.8s9.2,7.5,12.7-4.3c2.2-7.5-1.6-14.9,0.3-18.1c7.7,3.4,16.2,0,16.2,0s3.3,4.2,10.2,12.7
				c6.9,8.5,4.1,25.6-2,36.8C710.5,356.8,700.2,363.3,701,371.7z"/>
			<path class="st21" d="M712.8,293c0,0-7.2,3.1-11.8,2.4c-6.3-0.9-12.8-3.8-12.8-3.8l2.6-4.1c0,0,7.4,4,10.2,4
				c3.3,0,9.1-2.4,9.1-2.4L712.8,293z"/>
			<path class="st21" d="M686.6,330.7c0,0-4.1,4.5-3.5,11.1c0.6,6.6,5.1,15.4,5.1,15.4s-8.2-7-8-15.8c0.1-8.8,4-13.5,4-13.5
				L686.6,330.7z"/>
			<path class="st21" d="M686.6,330.7c0,0-0.3,8.4,3.3,12.7c3.1,3.8,7.7,6.4,7.7,6.4s-6,0.4-9.4-4.1
				C683.1,339.2,686.6,330.7,686.6,330.7z"/>
			<path class="st25" d="M689.8,203.7c0,0-1.1,6.2-1.6,9.5s-2.7,1.2-2.7,1.2s0.3,4.2-0.7,5.7c-1,1.5-2.8-3.3-2.8-3.3
				s0.3,3.6-1.3,3.6c-0.9,0-0.5-1-1.4-2.2c-1,1.6-2,1.4-2.8-0.2c-1.4-3-0.6-5.3,0.5-9.8C677.8,205,682.7,200.5,689.8,203.7z"/>
			<path class="st2" d="M695.7,224.8c0,0,6.4,2.2,13.3,2.2c6.8,0,11.8,4,11.8,4s0.9,0.7,1.4,1.1c-3.7-1.5-8.1-2.6-12.7-2.3
				c-6.4,0.4-11.2-3-11.2-3L695.7,224.8z"/>
			<path class="st2" d="M701.9,230.3c0,0,4.9,1.9,11.8,1.9c7.7,0,11.7,2.5,11.7,2.5l2.2,1.7c0,0-4.9-2.9-12.8-1.9
				c-6.3,0.8-10.2-1.6-10.2-1.6L701.9,230.3z"/>
			<path class="st2" d="M683.3,317.3c0,0,5.8,9.7,14.2,12.2c7.7,2.3,12,0.4,15.2-5.6c2.4-4.4,3.5-11.8,3.5-11.8s1.4,6.4-1.7,13.5
				c-2.8,6.4-9,9.7-17.5,6.6c-7.1-2.5-11.1-7.8-11.1-7.8L683.3,317.3z"/>
			<path class="st2" d="M715.3,304.6c0,0-1.3,5.8-2.3,14c-0.7,5.9-7.2,7.5-7.2,7.5s5.7-3.4,6.2-11.5
				C712.4,307.1,715.3,304.6,715.3,304.6z"/>
			<path class="st2" d="M717.5,299.6c0,0-3.7,2.5-5.3,7c-1.6,4.5-2.5,9.1-2.5,9.1s-0.6-6.6,1.6-11.5c2.2-4.9,4.5-6.7,4.5-6.7
				L717.5,299.6z"/>
			<path class="st2" d="M711.8,335.5c0,0-6.6,1.8-11.3,0.5c-5.5-1.5-10.1-5.3-10.1-5.3s2.7,5.8,8.9,7.6
				C706.2,340.2,711.8,335.5,711.8,335.5z"/>
			<path class="st2" d="M689.1,333.4c0,0,2.7,4.5,6.4,6.8c3.7,2.3,9.6,3.9,9.6,3.9s-6.2,1-10.8-2
				C689.8,339.2,689.1,333.4,689.1,333.4z"/>
			<path class="st25" d="M654.4,264.7c0,0,3.6,2.2,4.9,4.1c1.3,1.9,1.6,5.5,1.6,5.5s-0.8-1.6-3.8-4.8
				C654.2,266.3,654.4,264.7,654.4,264.7z"/>
			<path class="st22" d="M659.2,257.2c0,0-3.8,1.9-9.7,1.9c-3.2,0-7.2-1.7-7.2-1.7s-8.8-8.3-12.5-11.9c-2.8-2.7-5-12.1-5-12.1
				s3.1,0.8,7.5,4.6c6.1,5.1,10.1,3.8,10.1,3.8L659.2,257.2z"/>
			<path class="st2" d="M656.8,254.9c0,0-4.6,1-10.1,0c-6-1.1-10.1-4.1-10.1-4.1s8.4,1.7,11.2,2.1c2.8,0.4,6.4-0.4,6.4-0.4
				L656.8,254.9z"/>
			<path class="st2" d="M651.9,250.4c0,0-7.1,0-12.5-1.3c-4-0.9-7.6-3-9.5-3.7c-0.6-0.4-1.6-2.4-1.6-2.4s4.3,2,8.4,3.1
				c6.7,1.9,12.9,2,12.9,2L651.9,250.4z"/>
		</g>
		<g>
			<path class="st23" d="M138.1,369.7l17.9,21.8c3.6,3,7.5,5.8,9.7,9.9c1.7,3.2,2.2,7,4.1,10.1c1.5,2.6,3.9,4.5,6.2,6.4
				c0.7,0.6,1.6,1.2,2.6,1c-0.9-2.5-1.7-4.9-2.6-7.4c0.9-0.4,2,0.2,2.7,0.9c1.7,1.4,3.1,3.2,4.1,5.2c0.7,1.6,1.2,3.3,2.3,4.7
				c0.4,0.5,1,1,1.5,1.4c0.9,0.5,2,0.8,3,0.4c0.3-0.1,0.6-0.3,0.7-0.6c0.1-0.2,0.1-0.5,0.1-0.8c-0.1-1.3-0.6-2.6-1.3-3.6
				c0.8,0.5,1.6,1,2.5,1.5c0.5,0.3,1.2,0.5,1.4,0c0.1-0.3,0-0.6-0.1-0.9c-3.5-7.9-10.5-13.4-16.2-19.9c-2.4-2.7-4.5-5.5-6.6-8.4
				c-8.1-10.9-16.3-21.7-24.4-32.6c-1.5,0.8-3.1,1.5-4.7,2.2c-2,0.9-3.9,1.8-5.7,2.9C136,365.9,137,367.8,138.1,369.7z"/>
			<path class="st23" d="M142.5,443.7c-5.8,2.5-12.3,3.3-18.6,3.9c2.4,5,4.9,9.8,7.6,14.6c1,1.8,2.1,3.6,3.8,4.8
				c2,1.4,4.7,1.8,7.1,1.1c2.4-0.7,4.4-2.3,5.8-4.4c1-1.5,1.7-3.3,2.6-4.9c1.1-2.1,2.6-4.1,3.9-6.1l-0.7-0.4
				c-0.7-1.8-1.7-3.4-2.9-4.9c-1.7-2.1-3.8-3.8-6.1-5C144.2,442.9,143.3,443.3,142.5,443.7z"/>
			<path class="st23" d="M114.5,299.2c-0.1-0.3-0.2-0.7-0.3-1c-0.5-1.1-1.6-2-2.7-1.7c-0.8,0.3-1.2,1.3-1.3,2.1
				c-0.1,0.9,0.2,1.8,0.1,2.6c0,0.6-0.2,1.1-0.7,1.4c-0.6,0.4-1.4,0.2-2-0.2c-0.6-0.4-1-1-1.5-1.5c-1.1-1.1-2.6-1.8-4.1-1.8
				c-1.8-0.1-3.5,0.7-5.2,0.2c-1.7-0.4-3-1.9-4.8-2.3c-1.3-0.3-2.7,0.2-4,0.3c-0.3,0-0.5,0-0.8,0c0.5,3.4,1.8,6.6,3,9.8
				c0.6,1.6,1.3,3.2,1.9,4.8c0,0.1,0.1,0.2,0.1,0.3c1,2.5,2,5,3.8,6.9c1.9,2,4.8,3.2,7.4,2.3c0.6-0.2,1.2-0.5,1.7-0.9
				c2.7,0,5.4-0.7,7.8-2c0.1-0.1,0.2-0.1,0.3-0.3c0.1-0.1,0-0.3,0-0.4c-0.2-1.2-0.5-2.4-0.8-3.6c-0.5-1.9-0.9-3.8-0.8-5.7
				c0.1-0.9,0.2-1.7,0.2-2.6c0-0.3,0-0.7,0.2-1c0.1-0.2,0.4-0.4,0.6-0.6C114.2,303.1,114.9,301.1,114.5,299.2z"/>
			<path class="st23" d="M101.5,393.4c7.3-0.9,14.7-3.3,20.4-8c-0.8-0.3-1.7-0.7-2.5-1.1c-4-1.6-8.4-2.2-12.7-1.6
				c-3.7,0.5-7.2,1.8-10.8,2.6c-0.1,0-0.1,0-0.2,0c-4.6,1-9.4,1-14.1,1.2c-0.9,0-1.8,0.1-2.7,0.3l0,0.3c0,1.9-0.2,3.8-0.4,5.7
				C86.2,393.7,93.9,394.3,101.5,393.4z"/>
			<path class="st23" d="M69.5,439.4c-0.8,13.1-1.6,26.2-2.4,39.3l0.5,0c0.8-0.2,1.5-0.4,2.3-0.6c1.3-0.3,2.6-0.6,4-0.8
				c0.7-0.1,1.5-0.1,2.2-0.1c2.4,0.1,4.8,0.7,7,1.8c0.1-1.7,0.5-3.5,0.9-5.2c2.1-8.1,4.4-16.2,6.9-24.3c0.2-0.6,0.4-1.2,0.6-1.9
				c0.7-2.2,1.4-4.4,2.1-6.6c-2.8-2.3-6.4-3.2-10.1-3.7c-0.1,0-0.2,0-0.4,0c-1-0.1-2-0.2-2.9-0.3c-3.6-0.2-7.3-0.2-10.5,1.3
				C69.5,438.8,69.5,439.1,69.5,439.4z"/>
			<path class="st23" d="M34.8,298.2c3.2,0.1,6.3-0.5,9.3-1.7c1.2-0.5,2.5-1.1,3.8-1.2c2.2,0,4,1.6,5.5,3.1l22,21l0.2,0.1
				c0.1-0.2,0.2-0.4,0.3-0.7c0.9-2,1.9-4,2.9-5.9c0.7-1.3,1.4-2.6,2.1-3.9l-0.2-0.1c-4.4-3.9-9-8-14.3-10.5
				c-1.5-0.7-3.1-1.3-4.5-2.3c-3.5-2.3-5.8-6.3-9.6-7.9c-2.3-1-4.9-1-7.3-1.5c-2.4-0.5-4.8-1.5-6.8-2.8c-0.8-0.5-2.3-1-2.5,0
				c-0.1,0.2,0,0.4,0,0.7c0.4,2.1,1.3,4.1,2.6,5.8c0.6,0.7,1.2,1.5,1.4,2.3c0.1,0.2,0.1,0.5,0.1,0.8C39.6,295.7,35.8,296,34.8,298.2
				z"/>
			<path class="st25" d="M67.1,478.7l0.5,0c0.8-0.2,1.5-0.4,2.3-0.6c1.3-0.3,2.6-0.6,4-0.8c0.7-0.1,1.5-0.1,2.2-0.1
				c2.4,0.1,4.8,0.7,7,1.8c0.1-1.7,0.5-3.5,0.9-5.2c2.1-8.1,4.4-16.2,6.9-24.3c0.2-0.6,0.4-1.2,0.6-1.9c0.7-2.2,1.4-4.4,2.1-6.6
				c-2.8-2.3-6.4-3.2-10.1-3.7c-0.1,0-0.2,0-0.4,0c-1-0.1-2-0.2-2.9-0.3c-3.6-0.2-7.3-0.2-10.5,1.3c-0.1,0.3-0.1,0.6-0.1,0.8
				C68.7,452.5,67.9,465.6,67.1,478.7z"/>
			<path class="st25" d="M75.4,319.4l0.2,0.1c0.1-0.2,0.2-0.4,0.3-0.6c0.9-2,1.9-4,2.9-5.9c-3.7-1.9-7-4.5-9.7-7.6
				c-1.5-1.7-2.8-3.5-4.6-4.9c-2.7-2-6.1-2.7-9.1-4.2c-2.2-1.2-4.2-2.9-6.6-3.8c-2.9-1.2-6.2-1.1-9.1,0.2c0.1,0.2,0.1,0.5,0.1,0.7
				c-0.2,2.4-4,2.7-5,4.9c3.2,0.1,6.3-0.5,9.3-1.7c1.2-0.5,2.5-1.1,3.8-1.2c2.2,0,4,1.6,5.5,3.1L75.4,319.4z"/>
			<path class="st23" d="M35.6,283.7c-0.1,0.2,0,0.4,0,0.7c0.4,2.1,1.3,4.1,2.6,5.8c0.6,0.7,1.2,1.5,1.4,2.3
				c2.8-1.3,6.2-1.3,9.1-0.2c2.4,1,4.3,2.6,6.6,3.8c3,1.6,6.4,2.2,9.1,4.2c1.8,1.3,3.1,3.2,4.6,4.9c2.7,3.1,6.1,5.7,9.7,7.6
				c0.7-1.3,1.4-2.6,2.1-3.9l-0.2-0.1c-4.4-4-9-8-14.3-10.5c-1.5-0.7-3.1-1.4-4.5-2.3c-3.5-2.3-5.8-6.3-9.6-7.9
				c-2.3-1-4.9-1-7.3-1.6c-2.4-0.5-4.8-1.5-6.8-2.8C37.3,283.2,35.9,282.8,35.6,283.7z"/>
			<path class="st23" d="M69.5,439.4c-0.8,13.1-1.6,26.2-2.4,39.3l0.5,0c0.8-0.2,1.5-0.4,2.3-0.6c1.3-0.3,2.6-0.6,4-0.8
				c0.7-0.1,1.5-0.1,2.2-0.1c1.1-4.3,2.8-8.6,2.9-13.1c0.1-4.9-1.7-9.8-1.2-14.7c0.5-4.4,2.7-8.3,5.2-12c-1-0.1-2-0.2-2.9-0.3
				c-3.6-0.2-7.3-0.2-10.5,1.3C69.5,438.8,69.5,439.1,69.5,439.4z"/>
			<path class="st23" d="M95.7,385.3c-4.6,1-9.3,1-14.1,1.2c-0.9,0-1.8,0.1-2.7,0.3l0,0.3c0,1.9-0.2,3.8-0.4,5.7
				c7.6,0.9,15.2,1.6,22.8,0.7c7.4-0.9,14.7-3.4,20.4-8c-0.8-0.3-1.7-0.7-2.5-1.1c-4-1.6-8.4-2.2-12.7-1.6
				c-3.7,0.5-7.2,1.8-10.8,2.6C95.8,385.3,95.8,385.3,95.7,385.3z"/>
			<path class="st23" d="M105.3,320.5c1.2-0.9,2.2-2.3,3-3.6c1.4-2.3,2.7-4.8,3.3-7.4c0.1-0.3,0.1-0.7,0.2-1
				c0.1-0.8,0.2-1.7,0.2-2.6c0-0.3,0-0.7,0.2-1c0.1-0.2,0.4-0.4,0.6-0.6c1.5-1.2,2.1-3.3,1.8-5.2c-0.1-0.3-0.2-0.7-0.3-1
				c-0.5-1.1-1.6-2.1-2.7-1.7c-0.8,0.3-1.2,1.3-1.3,2.1c0,0.9,0.2,1.8,0.1,2.6c0,0.6-0.2,1.1-0.7,1.4c-0.6,0.4-1.4,0.2-2-0.2
				c-0.6-0.4-1-1-1.5-1.5c-1.1-1.1-2.6-1.8-4.1-1.8c-1.8-0.1-3.5,0.6-5.2,0.2c-1.7-0.4-3-1.9-4.8-2.3c-1.3-0.3-2.7,0.1-4,0.3
				c-0.3,0-0.5,0-0.8,0c0.5,3.4,1.8,6.6,3,9.8c0.6,1.6,1.3,3.2,1.9,4.8c0,0.1,0.1,0.2,0.1,0.3c1,2.4,2,4.9,3.8,6.8
				c1.9,2,4.8,3.2,7.4,2.3C104.2,321.2,104.8,320.9,105.3,320.5z"/>
			<path class="st25" d="M112.6,314.3c-0.5-1.9-0.9-3.8-0.8-5.7c0,0.3-0.1,0.7-0.2,1c-0.6,2.6-1.8,5.1-3.3,7.4
				c-0.8,1.3-1.8,2.7-3,3.6c2.7,0,5.4-0.7,7.8-2c0.1-0.1,0.2-0.1,0.3-0.3c0.1-0.1,0-0.3,0-0.4C113.2,316.7,112.9,315.5,112.6,314.3z
				"/>
			<path class="st23" d="M123.9,447.6c2.4,5,4.9,9.8,7.6,14.6c1,1.8,2.1,3.6,3.8,4.8c2,1.4,4.7,1.8,7.1,1.1c2.4-0.7,4.4-2.3,5.8-4.4
				c1-1.5,1.7-3.3,2.6-4.9c1.1-2.1,2.5-4.1,3.9-6.1l-0.7-0.4c-0.7-1.8-1.7-3.4-2.9-4.9c-0.4,1.4-0.8,2.8-1.2,4.2
				c-0.2,0.5-0.4,1.1-1,1.3c-0.8,0.2-1.4-0.6-1.9-1.3c-1.6-2.7-3.1-5.3-4.7-7.9C136.7,446.3,130.2,447,123.9,447.6z"/>
			<path class="st25" d="M156,391.5c3.6,3,7.5,5.8,9.7,9.9c1.7,3.2,2.2,7,4.1,10.1c1.5,2.6,3.9,4.5,6.2,6.4c0.7,0.6,1.6,1.2,2.5,1
				c-0.8-2.5-1.7-4.9-2.6-7.4c0.9-0.3,2,0.2,2.7,0.9c1.7,1.4,3.1,3.2,4.1,5.2c0.7,1.6,1.2,3.3,2.3,4.7c0.4,0.5,1,1,1.6,1.4l0.2-0.3
				c-1.6-5.5-4.9-10.5-9.3-14.1c-1.9-1.6-4.1-2.9-5.6-4.8c-2.2-2.7-3.1-6.3-4.6-9.5c-3.2-6.6-9.1-11.3-14.6-16.2
				c-5.4-4.8-10.7-10.6-11.8-17.8c-2,0.9-3.9,1.8-5.7,2.9c0.9,2,1.8,3.9,2.9,5.8L156,391.5z"/>
			<path class="st25" d="M147.2,451.7c0.4,0.7,1.1,1.5,1.9,1.3c0.5-0.2,0.8-0.8,1-1.3c0.5-1.4,0.8-2.8,1.2-4.2
				c-1.7-2.1-3.8-3.8-6.1-5c-0.8,0.5-1.7,0.9-2.6,1.3L147.2,451.7z"/>
			<path class="st23" d="M145.6,358.8c-1.5,0.8-3.1,1.5-4.7,2.2c1.1,7.2,6.4,12.9,11.8,17.8c5.4,4.9,11.4,9.6,14.6,16.2
				c1.5,3.2,2.4,6.8,4.6,9.5c1.6,1.9,3.7,3.3,5.6,4.8c4.4,3.6,7.7,8.6,9.3,14.1l-0.2,0.3c0.9,0.5,2,0.8,3,0.4
				c0.3-0.1,0.6-0.3,0.7-0.6c0.1-0.2,0.1-0.5,0.1-0.7c-0.1-1.3-0.6-2.6-1.3-3.6c0.8,0.5,1.7,1,2.5,1.5c0.5,0.3,1.2,0.5,1.4,0
				c0.1-0.3,0-0.6-0.1-0.8c-3.5-7.9-10.5-13.4-16.2-19.9c-2.4-2.7-4.5-5.5-6.6-8.4C161.8,380.5,153.7,369.7,145.6,358.8z"/>
			<path class="st23" d="M35.6,283.7c-0.1,0.2,0,0.4,0,0.7c0.4,2.1,1.3,4.1,2.6,5.8c0.6,0.7,1.2,1.5,1.4,2.3
				c2.8-1.3,6.2-1.3,9.1-0.2c2.4,1,4.3,2.6,6.6,3.8c3,1.6,6.4,2.2,9.1,4.2c1.8,1.3,3.1,3.2,4.6,4.9c2.7,3.1,6.1,5.7,9.7,7.6
				c0.7-1.3,1.4-2.6,2.1-3.9l-0.2-0.1c-4.4-4-9-8-14.3-10.5c-1.5-0.7-3.1-1.4-4.5-2.3c-3.5-2.3-5.8-6.3-9.6-7.9
				c-2.3-1-4.9-1-7.3-1.6c-2.4-0.5-4.8-1.5-6.8-2.8C37.3,283.2,35.9,282.8,35.6,283.7z"/>
			<path class="st26" d="M51.7,536.8c-0.3,2.5-0.2,5.4,1.9,6.9c1.2,0.8,2.8,0.9,4.2,0.9c8.1,0.2,16.2,0.3,24.3,0.5
				c1,0,2.1,0,2.7-0.8c0.4-0.6,0.4-1.3,0.3-2c0,0,0-0.1,0-0.1l-0.2,0c-5.8,0.4-11.9,0.5-17.3-1.5c-1.9-0.7-3.7-1.7-5.6-2.4
				c-3.3-1.3-6.8-1.9-10.3-1.8C51.7,536.6,51.7,536.7,51.7,536.8z"/>
			<path class="st27" d="M70.1,523.1c-0.4,0.2-0.8,0.4-1.2,0.6c-1.5,1.6-1.9,4-3.3,5.8c-2.5,3.3-7.3,3.5-11.3,4.5
				c-0.7,0.2-1.4,0.4-1.9,0.9c-0.4,0.4-0.5,1-0.6,1.5c3.5-0.1,7,0.5,10.3,1.8c1.9,0.7,3.7,1.7,5.6,2.4c5.5,2.1,11.5,1.9,17.3,1.5
				l0.2,0c-0.3-6-1.2-11.9-2.7-17.7c-0.1,0-0.2,0-0.3,0c-1.5,0.1-2.9-0.2-4.3-0.8c-0.4-0.2-0.8-0.4-1.2-0.6
				c-0.6-0.3-1.2-0.6-1.8-0.7C73.3,522,71.6,522.3,70.1,523.1z"/>
			<path class="st2" d="M66.7,485.8c-0.2,2.8-0.3,5.5-0.2,8.3c0.1,3.8,0.8,7.6,1.4,11.4c0.9,5.8,1.7,11.7,2.2,17.6
				c1.5-0.7,3.2-1.1,4.8-0.6c0.6,0.2,1.2,0.4,1.8,0.7c1.2-6,1.4-12.2,0.7-18.3c-0.9-7.8-3.2-15.6-2.1-23.4c0.2-1.4,0.5-2.8,0.9-4.1
				c-0.7,0-1.5,0-2.2,0.1c-1.4,0.2-2.7,0.5-4,0.8c-0.8,0.2-1.5,0.4-2.3,0.6l-0.5,0C67,481.1,66.8,483.4,66.7,485.8z"/>
			<path class="st23" d="M69.5,439.4c-0.8,13.1-1.6,26.2-2.4,39.3l0.5,0c0.8-0.2,1.5-0.4,2.3-0.6c1.3-0.3,2.6-0.6,4-0.8
				c0.7-0.1,1.5-0.1,2.2-0.1c1.1-4.3,2.8-8.6,2.9-13.1c0.1-4.9-1.7-9.8-1.2-14.7c0.5-4.4,2.7-8.3,5.2-12c-1-0.1-2-0.2-2.9-0.3
				c-3.6-0.2-7.3-0.2-10.5,1.3C69.5,438.8,69.5,439.1,69.5,439.4z"/>
			<path class="st22" d="M123.9,447.6c6.4-0.6,12.9-1.4,18.6-3.9c0.9-0.4,1.7-0.8,2.6-1.3c0.5-0.3,0.9-0.5,1.4-0.8
				c-1.4-1.7-2.5-3.6-3.5-5.6c-1.4-3-2.4-6.2-3.1-9.5c-1.2-5.4-1.7-10.9-3-16.3c-0.5-2.3-1.2-4.6-2.4-6.6c-1.3-2.1-3.1-3.9-4.5-6
				c-2.6-3.8-4-8.4-7-11.8c-0.4-0.1-0.8-0.2-1.1-0.4c-5.7,4.7-13,7.1-20.4,8c-7.6,0.9-15.2,0.2-22.8-0.7c0,0.4-0.1,0.8-0.1,1.2
				c-2.1,15.2-9.6,29.7-9.9,45.2c0.3-0.2,0.6-0.4,1-0.5c3.2-1.5,6.9-1.5,10.5-1.3c1,0.1,2,0.1,2.9,0.3c0.1-0.2,0.2-0.4,0.4-0.5
				c-0.1-2-1.2-3.9-2.4-5.5c-1.4-1.8-3-3.4-4.1-5.4c-0.2-0.5-0.5-1.1-0.2-1.6c0.3-0.7,1.1-0.8,1.8-0.9c1.4-0.1,2.8-0.1,4-0.7
				c1.3-0.5,2.4-1.6,2.4-3c0-0.7-0.3-1.4-0.5-2.1c-1.1-2.7-1.9-5.5-2.7-8.4c-0.9-3.5-1.5-7.6,0.6-10.6c2.1,4.6,4.5,9.4,8.8,12
				c-0.8-1.9-1.5-3.9-1.5-5.9c-0.1-2.1,0.5-4.2,1.9-5.7c0.4-0.4,1.1-0.8,1.6-0.5c0.3,0.2,0.4,0.5,0.5,0.8c2.3,5.7,3.8,11.7,5.8,17.5
				c1.3,3.7,2.8,7.3,4.8,10.6c1.2,1.9,2.5,3.8,4.1,5.4c1.5,1.6,3.2,3,4.8,4.6c2.7,2.6,4.9,5.6,6.8,8.8c0.3,0.5,0.6,1,1,1.2
				c0.4,0.2,1,0.2,1.5,0.1C122.9,447.7,123.4,447.7,123.9,447.6z"/>
			<path class="st28" d="M122.9,355.7c0.4,1.1,0.8,2.1,1.2,3.2c0.7,2,1.3,4,2.3,5.8c0.8,1.4,1.9,2.7,3.2,3.6
				c1.6-1.8,3.5-3.2,5.5-4.4c1.8-1.1,3.8-2,5.7-2.9c1.6-0.7,3.1-1.4,4.7-2.2c0.1,0,0.1-0.1,0.2-0.1c0.3-0.2,0.7-0.4,0.7-0.8
				c0-0.2-0.1-0.4-0.2-0.6c-4.7-8-9.4-16-14.1-24.1c-2.4-4.1-4.8-8.2-8-11.7c-3.1-3.4-7.1-6.3-11.6-7.3c0.3,1.2,0.6,2.4,0.8,3.6
				c0,0.1,0,0.3,0,0.4c-0.1,0.1-0.2,0.2-0.3,0.3c-2.4,1.3-5.1,2-7.8,2c-0.5,0.4-1.1,0.7-1.7,0.9c-2.6,0.9-5.5-0.4-7.4-2.3
				c-1.8-1.9-2.9-4.4-3.8-6.8c-3.3-1.3-6.7-2.7-10-4c-0.2-0.1-0.5-0.2-0.7-0.1c-0.2,0.1-0.3,0.3-0.4,0.4c-0.1,0.1-0.2,0.3-0.2,0.4
				c-0.7,1.3-1.5,2.6-2.1,3.9c-1,2-2,3.9-2.9,5.9c-0.1,0.2-0.2,0.4-0.3,0.6c-0.1,0.3-0.1,0.6-0.1,0.9c0.1,0.6,0.6,1.1,1,1.5
				c1.5,1.5,2.7,3.2,3.7,5c0.7,1.3,1.3,2.6,1.5,4c0.3,2.5-0.9,4.9-1.7,7.3c-1.1,3.4-1.6,7.1-1.3,10.7c0.2,2.6,0.8,5.2,0.8,7.8
				c0,3.9-1.1,7.7-2.1,11.5c-1.4,6-2.3,12.1-2.5,18.2c-0.1,1.7,0,3.6,0.7,5.1h0c-0.5-1.2,0-2.9,1.1-3.7c0.7-0.6,1.5-0.9,2.4-1
				c0.9-0.2,1.8-0.2,2.7-0.3c4.7-0.2,9.4-0.3,14.1-1.2c-0.3-0.3-0.6-0.6-0.8-0.9c-1.6-1.7-3.3-4-2.5-6.2c0.7-1.8,2.8-2.8,3.1-4.7
				c0.3-1.8-1.4-3.4-1.4-5.2c0-2.2,2.4-3.6,4.6-3.9c2.2-0.3,4.5,0,6.5-0.9c0.4-0.2,0.8-0.4,1-0.8c0.4-0.8-0.2-1.8-0.9-2.4
				c-2.4-2.6-5-5.1-7.6-7.4c-1.5-1.4-3.3-3.2-2.8-5.2c0.3-1.2,1.3-2.1,1.9-3.1c1.6-2.8,0.3-6.3-1.2-9.2c-1.4-2.9-3-6.2-1.7-9.2
				c0.2-0.4,0.5-0.9,1-0.9c0.4,0,0.8,0.2,1.1,0.5c2.7,2.1,5.3,4.2,7.9,6.3c3.3,2.6,6.6,5.3,9.5,8.4
				C117.5,344.9,120.6,350.2,122.9,355.7z"/>
			<path class="st26" d="M75.3,481.4c-1.1,7.8,1.2,15.6,2.1,23.4c0.7,6.1,0.4,12.3-0.7,18.3c0.4,0.2,0.8,0.4,1.2,0.6
				c1.3,0.6,2.8,0.8,4.3,0.8c-0.3-9.4,0.2-18.8,1.7-28.1c0.4-2.7,0.9-5.5,0.7-8.2c-0.3-2.9-1.4-5.8-1.3-8.7c0-0.1,0-0.2,0-0.3
				c-2.1-1.1-4.6-1.8-7-1.8C75.8,478.6,75.5,480,75.3,481.4z"/>
			<path class="st27" d="M78.7,392.8c0.2-1.9,0.4-3.8,0.4-5.7l0-0.3c-0.9,0.2-1.7,0.5-2.4,1c-1.1,0.9-1.6,2.5-1.1,3.7
				c0.1,0.3,0.4,0.6,0.7,0.8c0.7,0.6,1.9,0.8,2.3,1.5C78.6,393.5,78.6,393.2,78.7,392.8z"/>
			<path class="st21" d="M83.4,437c0,0.2,0,0.4,0,0.6c3.7,0.4,7.4,1.4,10.1,3.7c0.4,0.3,0.8,0.7,1.2,1.1c0.4,0.4,0.8,0.9,0.8,1.4
				c0,0.8-0.6,1.4-1.2,1.9c-0.9,0.7-1.7,1.5-2.6,2.2l-0.2-0.1c-0.2,0.6-0.4,1.2-0.6,1.9l0.3,0.1c3.3-2,6.7-4.4,8.2-7.9
				c0.7-1.5,1-3.2,1.3-4.8c0.7-3.2,1.8-6.3,3.2-9.3l0.3-0.2c-2-3.3-3.5-7-4.8-10.6c-2-5.8-3.5-11.8-5.8-17.5
				c-0.1-0.3-0.3-0.6-0.5-0.8c-0.5-0.3-1.2,0.1-1.6,0.5c-1.4,1.5-2,3.6-1.9,5.7c0.1,2.1,0.7,4.1,1.5,5.9c-4.3-2.6-6.7-7.4-8.8-12
				c-2,3-1.5,7-0.6,10.6c0.7,2.8,1.6,5.7,2.7,8.4c0.3,0.7,0.6,1.4,0.5,2.1c0,1.4-1.2,2.5-2.4,3c-1.3,0.5-2.7,0.6-4,0.7
				c-0.7,0.1-1.6,0.2-1.8,0.9c-0.2,0.5,0,1.1,0.2,1.6c1,2,2.7,3.6,4.1,5.4C82.2,433.1,83.3,435,83.4,437z"/>
			<path class="st23" d="M95.7,385.3c-4.6,1-9.3,1-14.1,1.2c-0.9,0-1.8,0.1-2.7,0.3l0,0.3c0,1.9-0.2,3.8-0.4,5.7
				c7.6,0.9,15.2,1.6,22.8,0.7c7.4-0.9,14.7-3.4,20.4-8c-0.8-0.3-1.7-0.7-2.5-1.1c-4-1.6-8.4-2.2-12.7-1.6
				c-3.7,0.5-7.2,1.8-10.8,2.6C95.8,385.3,95.8,385.3,95.7,385.3z"/>
			<path class="st27" d="M77.7,291.9c0.4,0,0.7,0,1.1,0c1.9-0.1,3.8-0.7,5.6-0.4c2.4,0.5,4.2,2.6,6.7,3.2c2.4,0.6,4.9-0.4,7.3-0.3
				c2.2,0.1,4.3,1,5.8,2.5c0.7,0.7,1.2,1.5,2,2.1s1.9,0.8,2.7,0.3c0.6-0.4,0.9-1.2,0.9-2c0.1-1.2-0.2-2.4-0.1-3.7
				c0.1-1.2,0.6-2.6,1.8-3c1.5-0.5,3.1,0.8,3.8,2.3c0.2,0.5,0.4,0.9,0.4,1.4l0.2-0.1c1.7-1.6,2.6-4.1,2.2-6.4
				c-0.4-2.4-2-4.4-2.9-6.6c-1.2-2.7-1.4-5.8-2.6-8.5c-1.9-4.3-6.3-7.5-11-7.8c-2.2-0.2-4.5,0.2-6.6,0.6c-2.3,0.4-4.6,0.8-6.9,1.3
				c-2.6,0.5-5.4,1.1-7.1,3.2c-2.4,3.1-1,7.9-2.9,11.3c-0.8,1.5-2.2,2.5-3.2,3.8c-1,1.3-1.8,3.1-1,4.6
				C74.5,291.3,76.1,291.8,77.7,291.9z"/>
			<path class="st23" d="M102.9,324.3c1.7-1.3,3.1-3.2,4.2-5c2-3.2,3.7-6.7,4.5-10.4c0.1-0.5,0.2-1,0.3-1.5c0.2-1.2,0.3-2.4,0.3-3.6
				c0-0.5,0-1,0.2-1.4c0.2-0.3,0.5-0.6,0.8-0.8c2.1-1.7,3-4.7,2.5-7.3c-0.1-0.5-0.2-0.9-0.4-1.4c-0.7-1.5-2.2-2.9-3.8-2.3
				c-1.2,0.4-1.7,1.8-1.8,3c-0.1,1.2,0.2,2.5,0.1,3.7c-0.1,0.8-0.3,1.6-0.9,2c-0.8,0.5-1.9,0.3-2.7-0.3s-1.4-1.4-2-2.1
				c-1.5-1.5-3.6-2.5-5.8-2.5c-2.5-0.1-5,0.9-7.3,0.3c-2.4-0.6-4.2-2.7-6.7-3.2c-1.8-0.4-3.7,0.2-5.6,0.4c-0.4,0-0.7,0-1.1,0
				c0.7,4.7,2.5,9.2,4.2,13.7c0.9,2.2,1.8,4.5,2.7,6.7c0.1,0.1,0.1,0.3,0.2,0.4c1.3,3.4,2.8,6.9,5.3,9.6c2.6,2.8,6.8,4.5,10.4,3.3
				C101.4,325.3,102.2,324.9,102.9,324.3z"/>
			<path class="st27" d="M91.5,447.8l0.2,0.1c0.9-0.7,1.7-1.5,2.6-2.2c0.6-0.5,1.2-1.1,1.2-1.9c0-0.6-0.4-1-0.8-1.4
				c-0.4-0.4-0.8-0.8-1.2-1.1C92.8,443.4,92.2,445.6,91.5,447.8z"/>
			<path class="st29" d="M122.3,385c0.3,0.2,0.5,0.5,0.7,0.7c0.4,0.1,0.7,0.2,1.1,0.3c0.4,0.1,0.8,0.1,1.1-0.1
				c0.5-0.3,0.7-1,0.7-1.6c0.2-2.5-0.4-5-1.6-7.2c-1.1-2-2.7-3.8-3.2-6c-0.6-2.8,0.7-5.5,1.3-8.3c0.6-2.3,0.7-4.8,0.5-7.2
				c-2.3-5.5-5.4-10.8-9.5-15.1c-2.9-3.1-6.2-5.7-9.5-8.4c-2.7-2.1-5.3-4.2-7.9-6.3c-0.3-0.3-0.7-0.5-1.1-0.5
				c-0.5,0.1-0.8,0.5-1,0.9c-1.3,3,0.3,6.3,1.7,9.2c1.5,2.9,2.8,6.4,1.2,9.2c-0.6,1.1-1.6,1.9-1.9,3.1c-0.5,2,1.3,3.8,2.8,5.2
				c2.6,2.4,5.2,4.8,7.6,7.4c0.6,0.7,1.3,1.6,0.9,2.4c-0.2,0.4-0.6,0.6-1,0.8c-2,0.9-4.3,0.6-6.5,0.9c-2.2,0.3-4.6,1.7-4.6,3.9
				c0,1.8,1.6,3.4,1.4,5.2c-0.3,1.9-2.4,2.9-3.1,4.7c-0.8,2.2,0.9,4.4,2.5,6.2c0.3,0.3,0.6,0.6,0.8,0.9c0,0,0.1,0,0.1,0
				c3.6-0.8,7.1-2.1,10.8-2.6c4.3-0.6,8.7,0,12.7,1.6c0.8,0.3,1.7,0.7,2.5,1.1C122,385.3,122.2,385.2,122.3,385z"/>
			<path class="st2" d="M90.9,511c0,14,11.4,25.4,25.4,25.4h0.2c14-0.1,25.2-11.4,25.2-25.4c0-14-11.4-25.4-25.4-25.4
				c-4.7,0-9.1,1.3-12.8,3.5C96,493.4,90.9,501.6,90.9,511z"/>
			<path class="st26" d="M103.5,489c6.2,1.9,11.8,5.9,15.5,11.2c5.1,7.2,6.7,16.6,4.4,25.1c-1.2,4.3-3.5,8.4-6.9,11.1
				c14-0.1,25.2-11.4,25.2-25.4c0-14-11.4-25.4-25.4-25.4C111.7,485.6,107.3,486.8,103.5,489z"/>
			<path class="st27" d="M129.7,368.3c-0.1,0.1-0.1,0.1-0.2,0.2c2.7,1.1,5.7,1.5,8.6,1.2c-1-1.9-2-3.8-2.9-5.8
				C133.1,365.1,131.2,366.5,129.7,368.3z"/>
			<path class="st23" d="M123.9,447.6c2.4,5,4.9,9.8,7.6,14.6c1,1.8,2.1,3.6,3.8,4.8c2,1.4,4.7,1.8,7.1,1.1c2.4-0.7,4.4-2.3,5.8-4.4
				c1-1.5,1.7-3.3,2.6-4.9c1.1-2.1,2.5-4.1,3.9-6.1l-0.7-0.4c-0.7-1.8-1.7-3.4-2.9-4.9c-0.4,1.4-0.8,2.8-1.2,4.2
				c-0.2,0.5-0.4,1.1-1,1.3c-0.8,0.2-1.4-0.6-1.9-1.3c-1.6-2.7-3.1-5.3-4.7-7.9C136.7,446.3,130.2,447,123.9,447.6z"/>
			<path class="st23" d="M145.6,358.8c-1.5,0.8-3.1,1.5-4.7,2.2c1.1,7.2,6.4,12.9,11.8,17.8c5.4,4.9,11.4,9.6,14.6,16.2
				c1.5,3.2,2.4,6.8,4.6,9.5c1.6,1.9,3.7,3.3,5.6,4.8c4.4,3.6,7.7,8.6,9.3,14.1l-0.2,0.3c0.9,0.5,2,0.8,3,0.4
				c0.3-0.1,0.6-0.3,0.7-0.6c0.1-0.2,0.1-0.5,0.1-0.7c-0.1-1.3-0.6-2.6-1.3-3.6c0.8,0.5,1.7,1,2.5,1.5c0.5,0.3,1.2,0.5,1.4,0
				c0.1-0.3,0-0.6-0.1-0.8c-3.5-7.9-10.5-13.4-16.2-19.9c-2.4-2.7-4.5-5.5-6.6-8.4C161.8,380.5,153.7,369.7,145.6,358.8z"/>
			<path class="st26" d="M148,430.9c-1.7,1.7-3.8,3.1-5,5.1c0.9,2,2.1,3.9,3.5,5.6c-0.5,0.3-0.9,0.6-1.4,0.8c2.4,1.2,4.5,2.9,6.1,5
				c0.9-3.6,1.7-7.2,3.1-10.6c2-4.8,5.1-9.3,5.9-14.4c-0.3-0.4-0.6-0.8-0.9-1.2c-0.5-0.6-1.1-1.3-1.9-1.5c-0.9-0.2-2,0.2-2.6,0.9
				c-0.7,0.7-1.1,1.6-1.5,2.5c-0.2,0.4-0.4,0.9-0.7,1.3C151.4,426.8,149.8,429,148,430.9z"/>
			<path class="st27" d="M160.2,422.4c1.8,2.7,3,5.8,3.4,9.1c-0.7,0.3-1.1,1-1.5,1.7c-0.2,0.3-0.3,0.6-0.4,1
				c2.9,2.6,6.4,4.5,10.2,5.5c1.1,0.3,2.6,0.4,3.3-0.5c0.3-0.4,0.4-0.8,0.5-1.3c0.9-4.7-1.9-9.3-5.2-12.8
				c-3.3-3.4-7.4-6.2-10.1-10.2c-0.4-0.5-0.7-1.1-1.3-1.3c-1.1-0.5-2.3,0.2-3.3,0.9c-1.6,1.2-3.1,2.5-4,4.3
				c-0.9,1.8-0.9,4.1,0.4,5.5l0.3,0.2c0.2-0.4,0.5-0.9,0.7-1.3c0.4-0.9,0.8-1.8,1.5-2.5c0.7-0.7,1.7-1.2,2.6-0.9
				c0.8,0.2,1.4,0.8,1.9,1.5C159.6,421.6,159.9,422,160.2,422.4z"/>
			<path class="st2" d="M161.7,434.2c0.1-0.3,0.3-0.7,0.4-1c0.3-0.7,0.8-1.4,1.5-1.7c-0.4-3.3-1.6-6.4-3.4-9.1
				c-0.8,5.1-3.9,9.6-5.9,14.4c-1.4,3.4-2.2,7-3.1,10.6c1.2,1.5,2.2,3.1,2.9,4.9l0.7,0.4c1-1.6,2-3.1,2.8-4.9
				C159.5,443.5,159.8,438.5,161.7,434.2z"/>
		</g>
		<g>
			<path class="st30" d="M503.1,158.2c-1.2,10.1-6.6,19.8-5.5,29.9c-2.7,0-5.1-1.6-6.8-3.8c-0.7-6.7,0.5-13.5,1.3-20.3
				c0.9-8,1-16.1,1.1-24.1c0-8.2-0.1-16.5-2.9-24.1c-3.7-10.4-11.9-18.5-17.1-28.2c-2.9-5.5-4.9-11.4-7.6-17
				c-0.4-0.8-0.8-1.6-1.2-2.3c-3.4-6.2-8.6-12-15.4-13.7l-0.1,0.1c-3.9-2.9-7.7-6.1-11.1-9.6c6.1,0.4,11.5,4.1,16.5,7.6
				c-4.3-4.1-8.2-8.7-11.6-13.5c2.8,0.8,5.6,2.1,8.1,3.6c-1.3-2.3-2.5-4.6-3.8-6.8c2.4,0.2,4.7,1.3,6.6,2.8c1.7,1.4,3.2,3.1,4.4,4.9
				c2.5,3.9,3.8,8.5,5.4,12.9c1.6,4.4,3.5,8.7,5.7,12.9c3.6,6.9,7.9,13.5,12.9,19.5c4.1,4.9,8.8,9.7,11.2,15.6
				c1.1,2.6,1.7,5.3,2.3,8c1.6,6.9,3.1,13.8,4.7,20.7C502.3,141.3,504.1,149.8,503.1,158.2z"/>
			<path class="st31" d="M499.6,449.9c-0.4,7.1,0.5,14.2,0.4,21.3c0,3.2-0.4,6.7-2.6,9c-0.6-0.2-1.3-0.4-1.9-0.5
				c-1.5-0.4-3.1-0.9-4.6-1.3c3-4.6,5.6-9.7,5.4-15.1c-0.2-3.4-1.5-6.7-1.3-10.1c0.2-3.3,1.7-6.3,2.7-9.4c1-3.1,1.6-6.6,0-9.5
				l0.5-0.2c0,0,0,0,0-0.1C500.8,438.6,499.9,444.5,499.6,449.9z"/>
			<path class="st31" d="M497.6,188.1c0.1,0,0.2,0,0.3,0l0.6,0.3c0.7,3,0.6,6.2-0.3,9.1c-1,2.9-2.7,5.5-3.6,8.5
				c-0.7,2.3-0.7,4.7-0.7,7.1l-3.6,0c0-0.1,0-0.3,0-0.4c-0.1-3.3-1.6-6.3-2.1-9.5c-0.6-4.3,0.4-8.5,1-12.8c0.4-3.2,0.5-6.5-0.5-9.5
				l0.4-0.1c0.3,0.9,0.7,1.8,1.3,2.6c0.2,0.3,0.4,0.6,0.6,0.9C492.5,186.4,495,188.1,497.6,188.1z"/>
			<path class="st22" d="M429.4,347.7c-4.1,0.5-8.2,1.1-12.2,0.7c0-8.2,0-16.4-0.9-24.5c-0.7-6.3-1.9-12.6-2.3-18.9
				c-0.4-5.2-0.2-10.3,1.1-15.3c2-7.5,6.5-14.2,8.6-21.6c1.3-4.7,1.6-9.7,0.9-14.6c7.2,0.7,14.6-1,21.8-2.6c8.9-2.1,18.4-4,27.1-1.3
				c2.8,0.9,5.6,2.2,8.6,2.5c0.7,0.1,1.3,0.1,2,0c1.2-0.1,2.4-0.3,3.5-0.8c0.2,0,0.3-0.1,0.5-0.2l0.6,0c4.1,5,4.8,11.9,4.2,18.4
				c-0.5,6.4-2.1,12.8-1.7,19.2c0.3,5.2,1.9,10.3,2.5,15.5c0.9,7.7-0.4,15.7,2,23.1c0.7,2.3,1.9,4.5,2.5,6.9
				c0.9,3.2,0.9,6.6,0.1,9.8c-1.7,0.4-3,1.6-4.5,2.4c-1.6,0.9-3.8,1.3-5.2,0.1c-0.8-0.7-1.1-1.8-1.6-2.8c-1.3-2.8-4.3-4.7-7.3-4.9
				c-1.6-0.1-3.4,0.1-4.5-1c-1.2-1.3-0.5-3.4,0.3-4.9c1.2-2.1,2.7-4.1,4.5-5.8c1-0.9,2-1.8,2.6-3.1c0.6-1.2,0.6-2.9-0.5-3.7
				c-1-0.8-2.8-0.8-3.3-2c-0.4-0.8,0-1.7,0.4-2.5c1.4-2.8,2.8-5.6,4.2-8.4c0.3-0.6,0.6-1.3,0.6-2c-0.1-1.2-1.4-2-2.5-2.1
				c-1.2-0.1-2.3,0.3-3.5,0.7c-1.6,0.4-3.2,0.7-4.9,0.7c-0.8,0-1.7-0.1-2-0.8c-0.2-0.6,0.1-1.2,0.4-1.7c3.1-5.2,6.2-10.4,9.3-15.5
				c0.7-1.2,1.1-3.1-0.2-3.4c-0.5-0.1-1.1,0.2-1.5,0.4c-2.4,1.4-4.7,3-6.9,4.7c-0.4,0.3-0.9,0.7-1.5,0.8c-1.7,0.2-2.4-2.1-2.3-3.8
				c0.4-7,3.3-14,2-21c-3.4,0.3-5.2,4-6.5,7.1c-3.1,8-6,16-8.8,24.1c-1.3,3.7-2.7,7.5-3.4,11.3c-0.1,0.5-0.2,1-0.2,1.5
				c-0.7,4.7-0.4,9.6-1.5,14.3c-0.7,2.9-2,5.7-2.6,8.7c-0.6,3-0.6,6.2,0.1,9.3c0.4,1.8,1.1,3.7,0.1,5.3c-1.3,2-4.3,1.6-6.6,1.3
				c0,0-0.1,0-0.1,0C437.1,346.7,433.2,347.2,429.4,347.7z"/>
			<path class="st21" d="M490,351.9c-1.3,0.5-2.6,0.9-4,1.1c-1.9,0.3-3.8,0.3-5.7-0.1c-3.4-0.6-6.7-2.2-9.2-4.6
				c-0.7-0.7-1.4-1.4-2.1-2c-0.3-0.2-0.6-0.4-0.9-0.6c-2-1.1-4.6-1-6.3-2.5c-2.1-1.9-1.6-5.3-1.5-8.1c0.1-9.9-7.6-18.5-8.5-28.2
				c0.7-3.9,2.1-7.6,3.4-11.3c2.9-8.1,5.7-16.1,8.8-24.1c1.2-3.2,3.1-6.8,6.5-7.1c1.4,6.9-1.6,13.9-2,21c-0.1,1.7,0.6,4,2.3,3.8
				c0.6-0.1,1-0.4,1.5-0.8c2.2-1.7,4.5-3.3,6.9-4.7c0.5-0.3,1-0.5,1.5-0.4c1.3,0.3,0.9,2.3,0.2,3.4c-3.1,5.2-6.2,10.4-9.3,15.5
				c-0.3,0.5-0.6,1.2-0.4,1.7c0.3,0.7,1.2,0.8,2,0.8c1.6,0,3.3-0.2,4.9-0.7c1.1-0.3,2.3-0.7,3.5-0.7c1.2,0.1,2.4,0.9,2.5,2.1
				c0.1,0.7-0.2,1.4-0.6,2c-1.4,2.8-2.8,5.6-4.2,8.4c-0.4,0.8-0.8,1.7-0.4,2.5c0.6,1.2,2.3,1.1,3.3,2c1.1,0.8,1.1,2.5,0.5,3.7
				c-0.6,1.2-1.6,2.1-2.6,3.1c-1.8,1.7-3.3,3.7-4.5,5.8c-0.9,1.5-1.5,3.6-0.3,4.9c1.1,1.1,2.9,0.9,4.5,1c3.1,0.2,6,2.1,7.3,4.9
				c0.5,1,0.8,2.1,1.6,2.8c1.4,1.2,3.5,0.8,5.2-0.1c1.5-0.8,2.9-2,4.5-2.4c-0.1,0.3-0.1,0.6-0.2,0.9
				C496.3,348,493.3,350.5,490,351.9z"/>
			<path class="st21" d="M498,434.1C498,434.1,498,434.1,498,434.1l-0.5,0.3c1.6,2.8,1.1,6.4,0,9.5c-1,3.1-2.5,6.1-2.7,9.4
				c-0.2,3.4,1.2,6.7,1.3,10.1c0.3,5.4-2.4,10.5-5.4,15.1c-2.1-0.5-4.3-0.9-6.5-1c-2.4-0.1-4.8,0.2-7,1.1l-0.1-0.2
				c-1.6-5.4,0.8-11.1,3.1-16.2c2.3-5.1,4.6-10.9,2.9-16.2c-0.7-2.2-2.1-4.3-2.7-6.6c0.2-2.2,0.6-4.3,1.8-5.9l0.8,0.2
				c4.5,2.3,10.2,2.3,14.7-0.1C497.9,433.7,497.9,433.9,498,434.1z"/>
			<path class="st31" d="M490.9,478.4c1.5,0.4,3.1,0.8,4.6,1.3c0.6,0.2,1.3,0.4,1.9,0.5c-0.1,0.2-0.3,0.3-0.5,0.5
				c-1.2,1-2.8,1.6-4.4,2.1c-2.8,0.9-5.8,1.8-8.7,1.9c-3,0.1-6.1-0.5-8.5-2.4c-0.6-0.5-1.2-1.1-1.6-1.7c1.1-0.9,2.3-1.6,3.6-2.1
				c2.2-0.8,4.6-1.1,7-1.1C486.5,477.4,488.7,477.8,490.9,478.4z"/>
			<path class="st30" d="M496.4,376.9c0.3,2.9,0.2,5.9,0.1,8.8c-0.6,11.5-1.7,23.2-0.7,34.7c-2.1,0.3-4.3,0.5-6.4,0.4
				c0.7-10.3-0.1-20.6-2.6-30.6c-3-12.4-8.4-24.8-6.5-37.3c1.9,0.3,3.8,0.4,5.7,0.1c1.4-0.2,2.7-0.6,4-1.1c1.5,5.4,3,10.8,4.4,16.3
				C495.2,371,496,373.9,496.4,376.9z"/>
			<path class="st31" d="M489.3,420.8c2.1,0,4.3-0.1,6.4-0.4c0.3,4.4,1,8.8,2.1,13.1c-4.5,2.3-10.2,2.4-14.7,0.1l-0.8-0.2
				c0.3-0.4,0.7-0.8,1.1-1.2h0.2c0-4-0.2-8-0.8-11.9C485,420.6,487.1,420.8,489.3,420.8z"/>
			<path class="st31" d="M494,224.3c0,2.2,0.1,4.4-0.6,6.5c-0.8,2.2-2.4,4.1-3.1,6.4c-1.1,3.3,0,6.9-0.1,10.4c0,1-0.2,2-0.8,2.7
				c-0.3,0.4-0.8,0.7-1.2,0.9c-0.2,0.1-0.3,0.1-0.5,0.2c-1.1,0.4-2.3,0.7-3.5,0.8c0.3-0.9,1-1.6,1.4-2.5c1-2.1,0.7-4.6-0.1-6.8
				c-0.7-2.2-1.8-4.3-2.2-6.6c-1.2-8.1,7-15,7-23.1l3.6,0c0,0.5,0,1,0,1.5C493.9,217.8,493.9,221.1,494,224.3z"/>
			<path class="st32" d="M484.5,139.8c-0.2-1.2-0.4-2.4-0.7-3.6c-0.4-1.6-0.9-3.1-1.5-4.7c-1.6-4.3-3.6-8.4-5.5-12.5
				c-0.4-0.9-0.8-1.7-1.1-2.6c-1.2-2.7-2.2-5.4-3.2-8.1c-2.9-7.9-5.4-16-7.8-24c-0.7-2.2-1.4-4.6-3.2-6c-0.9-0.7-2.1-1.2-3.1-1.8
				c-3.9-2.7-4.3-8.3-7.3-12c-0.2-0.3-0.4-0.5-0.7-0.7c-1.1-1.1-2.4-2.1-3.7-3c-2.1-1.5-4.1-3.1-5-5.4c3.8-0.1,7.7,0.6,11.2,2.1
				c-1.3-0.9-2.6-1.8-3.9-2.8l0.1-0.1c6.9,1.7,12,7.5,15.4,13.7c0.4,0.8,0.8,1.6,1.2,2.3c2.7,5.6,4.7,11.5,7.6,17
				c5.2,9.7,13.3,17.9,17.1,28.2c2.8,7.7,2.9,16,2.9,24.1c0,8-0.2,16.1-1.1,24.1c-0.8,6.7-2,13.5-1.3,20.3c-0.2-0.3-0.4-0.6-0.6-0.9
				c-0.5-0.8-0.9-1.7-1.3-2.6c-0.8-2-1.2-4.2-1.6-6.3c-1-5.4-2.1-10.8-3.2-16.3c-0.3-1.6-0.7-3.3-1.3-4.8
				C484.9,149.2,485.2,144.4,484.5,139.8z"/>
			<path class="st33" d="M424.6,253.5c-1.8-0.2-3.6-0.5-5.4-1c-0.5-0.1-1-0.3-1.5-0.5c-0.7-0.3-1.3-0.7-1.8-1.3l1.2-0.5
				c0,0,0.1,0,0.1,0c2.5,0.4,5-0.6,7.2-1.9c11.9-6.6,19-19.8,21.3-33.2c0.6-3.9,1-8,2.9-11.4c2.5-4.4,7.1-7,11.3-9.8
				c4-2.7,7.9-5.8,10.7-9.8c3.7-5.3,5.4-11.7,6.9-18c1.3-5.4,2.7-11.2,0.7-16.4l-0.2-0.2c0.3-0.3,0.7-0.5,1-0.8c0,0,0.1-0.1,0.1-0.1
				l0.4,0.4c0.7,0.4,1.3,0.9,1.9,1.5l-0.1,0.1c0.7,0.8,1.2,1.8,1.5,2.7c0.6,1.5,0.9,3.2,1.3,4.8c1.1,5.4,2.1,10.8,3.2,16.3
				c0.4,2.1,0.8,4.3,1.6,6.3l-0.4,0.1c1,2.9,1,6.3,0.5,9.5c-0.6,4.3-1.7,8.6-1,12.8c0.5,3.2,2,6.3,2.1,9.5c0,0.1,0,0.3,0,0.4
				c0,8.1-8.2,15-7,23.1c0.3,2.3,1.4,4.4,2.2,6.6c0.8,2.2,1.1,4.7,0.1,6.8c-0.4,0.8-1.1,1.6-1.4,2.5c-0.7,0-1.3,0-2,0
				c-3-0.3-5.7-1.7-8.6-2.5c-8.8-2.7-18.2-0.7-27.1,1.3C439.2,252.5,431.8,254.2,424.6,253.5z"/>
			<path class="st32" d="M486.8,390.2c2.4,10,3.3,20.3,2.6,30.6c-2.2,0-4.3-0.2-6.5-0.6c-0.8-6.4-2.3-12.7-4.4-18.7
				c-0.9-2.6-2-5.2-2.6-7.9c-1.8-7.9-0.1-16.3-2.2-24.1c-1-3.8-2.8-7.3-3.8-11c-1-4-1-8.1-0.9-12.2c0.8,0.6,1.4,1.3,2.1,2
				c2.5,2.4,5.8,4,9.2,4.6C478.4,365.4,483.8,377.8,486.8,390.2z"/>
			<path class="st21" d="M483.8,136.2c0.3,1.2,0.6,2.4,0.7,3.6c-0.3,1-0.8,2-1.3,2.8l-0.8-0.4c0.2-0.4,0.4-0.8,0.6-1.2
				c0.1-0.2,0.2-0.4,0.1-0.6c0-0.2-0.2-0.3-0.4-0.4c-0.7-0.3-1.5-0.4-2.3-0.7c-0.8-0.2-1.5-0.7-1.7-1.5c-0.2-0.7,0.1-1.3,0.4-2
				c0.8-1.6,1.9-3.1,3.2-4.4C482.9,133.1,483.4,134.7,483.8,136.2z"/>
			<path class="st31" d="M483.3,445.8c1.7,5.4-0.6,11.1-2.9,16.2c-2.3,5.1-4.7,10.8-3.1,16.2l0.1,0.2c-1.3,0.5-2.5,1.2-3.6,2.1
				c-0.5-0.7-0.9-1.6-1-2.4c-0.1-1.2,0.2-2.4,0.5-3.5c1.6-6.1,3.2-12.2,4.8-18.3c1-3.8,2-7.6,2.2-11.5c0.1-1.8,0.1-3.6,0.3-5.4
				C481.2,441.5,482.6,443.6,483.3,445.8z"/>
			<path class="st30" d="M471.7,143.2c-4.8,2.2-9.7,4.3-14.9,4.3c-0.3,0-0.7,0-1,0c-1.8-0.1-3.7-0.7-4.5-2.3c-0.5-0.9-0.5-2-0.6-3
				c-0.1-6.3,0.7-12.8,3.6-18.5c2.7-5.4,7.5-10,13.3-11.6c0,0,0,0,0,0c0,0.6,0.4,1.1,0.9,1.4c1.3,1,2.9,1.3,4.4,1.7
				c1,0.3,2,0.6,2.8,1.2c0.3,0.9,0.7,1.7,1.1,2.6c1.9,4.2,3.9,8.3,5.5,12.5c-1.3,1.3-2.4,2.8-3.2,4.4c-0.3,0.6-0.6,1.3-0.4,2
				c0.2,0.8,1,1.3,1.7,1.5c0.8,0.2,1.6,0.3,2.3,0.7c0.2,0.1,0.4,0.2,0.4,0.4c0.1,0.2,0,0.4-0.1,0.6c-0.2,0.4-0.4,0.8-0.6,1.2
				c-1,1.9-2,3.9-2.9,5.8c-0.1,0.2-0.2,0.4-0.3,0.6c-0.3,0.3-0.7,0.5-1,0.8c-4.9,3.9-10.1,7.8-16.2,9.2c-0.9,0.2-1.8,0.4-2.7,0.4
				C464.1,154.4,468.3,149,471.7,143.2z"/>
			<path class="st34" d="M459.2,159.2c0.9,0,1.9-0.2,2.7-0.4c6.1-1.5,11.3-5.3,16.2-9.2l0.2,0.2c2,5.2,0.7,11-0.7,16.4
				c-1.6,6.3-3.2,12.7-6.9,18c-2.8,4-6.6,7.1-10.7,9.8c-4.2,2.8-8.8,5.4-11.3,9.8c-1.9,3.4-2.3,7.5-2.9,11.4
				c-2.2,13.4-9.4,26.5-21.3,33.2c-2.2,1.2-4.7,2.3-7.2,1.9l0-0.4c2.2-7.1,9.1-12.9,8.6-20.3c-0.2-2.7-1.4-5.3-1.6-8.1
				c-0.3-4.7,2.4-9.1,3.4-13.7c2-8.9-2.4-18.4-0.2-27.2c0.4-1.6,1-3.1,1.7-4.5c4.4-8.8,14.1-15.1,17.2-24.6c0,0,0.1,0,0.1,0
				c1.1,0.5,2.3,0.3,3.5,0.6c0.2,0,0.4,0.1,0.6,0.2l-0.1,0.2c0.2,1.2,0.6,2.4,1.2,3.4c0.4,0.7,1,1.4,1.6,1.9
				C455.1,158.9,457.1,159.3,459.2,159.2z"/>
			<path class="st21" d="M467.6,112.1c0-0.6,0.4-1.2,0.9-1.7c1.1-1,2.6-1.5,4-2.1c1,2.7,2.1,5.5,3.2,8.1c-0.8-0.5-1.9-0.9-2.8-1.2
				c-1.6-0.4-3.2-0.7-4.4-1.7C468,113.2,467.6,112.7,467.6,112.1C467.6,112.1,467.6,112.1,467.6,112.1z"/>
			<path class="st32" d="M456.8,147.5c5.2-0.1,10.1-2.2,14.9-4.3c-3.4,5.9-7.7,11.3-12.6,16c-2.1,0.1-4.1-0.2-5.7-1.5
				c-0.6-0.5-1.2-1.2-1.6-1.9c1.8-2.5,3.1-5.3,3.9-8.3C456.2,147.5,456.5,147.5,456.8,147.5z"/>
			<path class="st22" d="M418.7,67.2l-0.3,0c-4.9-4.3-8-10.6-8-17.6c0-12.9,10.4-23.3,23.3-23.3c8.7,0,16.4,4.8,20.4,11.9l-0.3,0.4
				c-2-1.5-4.2-2.5-6.6-2.8c1.3,2.3,2.5,4.6,3.8,6.8c-2.5-1.6-5.3-2.8-8.1-3.6c3.4,4.9,7.3,9.4,11.6,13.5c-5-3.5-10.4-7.2-16.5-7.6
				c3.5,3.5,7.2,6.7,11.1,9.6c1.3,1,2.6,1.9,3.9,2.8c-3.5-1.5-7.4-2.1-11.2-2.1c1,2.3,3,3.9,5,5.4c-1.3,1.8-2.6,3.4-4.1,5
				c-0.7,0.8-1.5,1.6-2.4,2.1c-3,1.7-7,0.3-10.2,1.6c-1.9,0.8-3.3,2.4-5.1,3.4c0,0,0,0,0,0c-0.3,0.2-0.6,0.3-0.9,0.3
				c-0.4-0.1-0.6-0.3-0.9-0.6c-1.4-1.5-2.8-3.1-4.3-4.6C418.7,67.6,418.7,67.4,418.7,67.2z"/>
			<path class="st30" d="M450.4,63.7l-0.3,0.3c-3.3,4.4-6.7,9-11.4,12c-2.6,1.6-5.5,2.7-7.9,4.6c-4.3,3.4-6.4,8.8-8.2,14
				c-3.2,9.1-6.2,18.3-9,27.6c-0.2,0.8-0.5,1.6-0.4,2.5c0.1,1.1,0.8,2.1,1.5,2.9c3.8,4.5,8.9,7.6,13.7,10.9
				c4.5,3.1,8.7,6.6,12.7,10.4c-0.3,0.3-0.5,0.6-0.7,0.9c-3.7,5.2-5.9,11.3-8.3,17.3l-0.2-0.1c-0.2-5.5-3.8-10.4-8-14
				c-4.2-3.6-9-6.4-13-10.2c-4-3.8-7.3-8.9-6.9-14.4c0.2-3.3,1.7-6.4,3.1-9.4c6.9-15,12.4-30.5,17.8-46.1c0,0,0,0,0,0
				c1.8-1,3.2-2.6,5.1-3.4c3.2-1.3,7.2,0.1,10.2-1.6c0.9-0.5,1.7-1.3,2.4-2.1c1.5-1.6,2.8-3.2,4.1-5C448,61.6,449.3,62.6,450.4,63.7
				z"/>
			<path class="st31" d="M441,148.9c0.3-0.3,0.7-0.6,1.2-0.7c1.8-0.3,2.7,2.2,4.3,3.1c-3.1,9.5-12.8,15.8-17.2,24.6l-0.8-0.4
				c1.3-2.8,2.4-5.6,3.5-8.5c2.3-6,4.6-12,8.3-17.3C440.5,149.5,440.8,149.2,441,148.9z"/>
			<path class="st30" d="M429.4,347.7c3.9-0.5,7.7-1,11.5-0.5c-3.6,5.2-7,10.7-8.1,16.9c-0.5,3.2-0.4,6.4-0.2,9.6
				c0.4,6.4,1.3,12.8,1.5,19.3c0.2,7.2-0.6,14.4-0.9,21.6c-2.8,0.5-5.8,0.6-8.6,0.4l0-0.6c3.6-12.7-0.8-26.2,0-39.3
				C425.2,365.8,428.4,356.9,429.4,347.7z"/>
			<path class="st21" d="M413.4,445.5L413.4,445.5c0-3.9,0-7.8,0-11.8c0-0.7,0-1.5,0.4-2.1c0.4-0.8,1.3-1.3,2.1-1.7
				c0.8-0.4,1.6-0.8,2.3-1.1c1.3-0.6,2.7-1,4.1-1.2c2.3-0.2,4.8,0.5,6.1,2.5c0.2,0.2,0.3,0.5,0.4,0.8c0.5,1.1,0.5,2.4,0.4,3.6
				c-0.6,6.2-5.7,11.3-6.1,17.6c-0.2,3.3,0.9,6.4,1.3,9.7c0.3,2.6,0.1,5.2-0.6,7.7c1.6-0.5,2.7-2.1,3.2-3.7c0.4-1.6,0.4-3.4,0.4-5.1
				c0.1-4.5,0.9-9,2.5-13.2c1.2-3,2.8-6.1,2.9-9.3c0.1-2.5-0.9-5.2-2.8-6.6l0.3-0.4c1.3,1,2.7,2.2,3.8,3.4c1.6,1.8,2.7,3.8,2.8,6.1
				c0.1,3.3-2.1,6.1-3.5,9.1c-1.1,2.4-1.7,5.1-1.8,7.7c-0.1,3.7,0.8,7.7-0.7,11.1c-0.7,1.4-1.7,2.6-2.9,3.7c-0.5,0.1-1,0.1-1.6,0
				c-3.7-0.2-7.3-0.4-11-0.6c-1.3-0.1-2.7-0.1-4,0.1c-1.1,0.2-2.1,0.7-2.9,1.6c-1.5-2.4-1.9-5.4-1.5-8.3c0.5-3.7,2.1-7.2,3.6-10.6
				C412,451.6,413.2,448.6,413.4,445.5z"/>
			<path class="st31" d="M430.5,431.1l-0.3,0.4c-0.4-0.3-0.8-0.5-1.3-0.7c-0.1-0.3-0.2-0.5-0.4-0.8c-1.2-2-3.8-2.7-6.1-2.5
				c-1.4,0.1-2.8,0.6-4.1,1.2l-0.2-0.5c0.6-5.1,0.7-10.3,0.3-15.4h0.1c0.8,1.2,2.4,1.6,3.9,1.8c0.7,0.1,1.4,0.2,2.1,0.2
				c2.9,0.2,5.8,0.1,8.6-0.4c-0.3,6.7-0.3,13.4,1.1,20l0,0C433.2,433.3,431.8,432.2,430.5,431.1z"/>
			<path class="st31" d="M430.2,431.5c1.9,1.4,3,4.1,2.8,6.6c-0.1,3.3-1.7,6.3-2.9,9.3c-1.6,4.2-2.5,8.7-2.5,13.2
				c0,1.7,0,3.4-0.4,5.1c-0.5,1.7-1.6,3.2-3.2,3.7c0.7-2.5,0.9-5.1,0.6-7.7c-0.4-3.2-1.5-6.4-1.3-9.7c0.4-6.2,5.5-11.3,6.1-17.6
				c0.1-1.2,0-2.5-0.4-3.6C429.4,431,429.8,431.2,430.2,431.5z"/>
			<path class="st32" d="M432.1,167.1c-1.1,2.9-2.2,5.7-3.5,8.5c-1.4,2.9-2.9,5.6-4.7,8.2c-0.3-5.7,1.3-11.6-1-16.7
				c-2.6-5.8-9.1-8.6-13.3-13.4c-1.8-2-3.1-4.4-4.4-6.7c-2.4-4.3-4.8-8.6-7.3-12.9c-0.9-1.6-1.8-3.2-2.3-4.9
				c-0.9-3.5-0.1-7.3,1.1-10.7c1.8-5,4.5-9.6,7.1-14.2c4.1-7.4,7.8-15,11.2-22.7c1.9-4.3,3.8-8.9,3.7-13.6c1.4,1.5,2.8,3.1,4.3,4.6
				c0.2,0.3,0.5,0.5,0.9,0.6c0.3,0,0.6-0.1,0.9-0.3c-5.4,15.6-10.9,31.2-17.8,46.1c-1.4,3-2.9,6.1-3.1,9.4
				c-0.3,5.5,2.9,10.7,6.9,14.4c4,3.8,8.8,6.6,13,10.2c4.2,3.6,7.7,8.5,8,14L432.1,167.1z"/>
			<path class="st31" d="M423.8,183.8c0,0,0-0.1,0-0.1c1.9-2.5,3.4-5.3,4.7-8.2l0.8,0.4c-0.7,1.4-1.3,2.9-1.7,4.5
				c-2.2,8.9,2.2,18.3,0.2,27.2c-1,4.6-3.8,9-3.4,13.7c0.2,2.7,1.4,5.3,1.6,8.1c0.5,7.5-6.4,13.2-8.6,20.3l0,0.4c0,0-0.1,0-0.1,0
				l-1.2,0.5c-0.2-0.3-0.4-0.7-0.5-1.1c-0.4-1.4,0.5-2.8,1.1-4.2c4.9-10.1-0.9-22.6,2.5-33.3c1-3,2.6-5.8,2.9-8.9
				c0.3-3.4-1.1-6.8-1.3-10.3C420.6,189.8,421.8,186.4,423.8,183.8z"/>
			<path class="st31" d="M428.2,472.2C428.2,472.3,428.1,472.3,428.2,472.2c-2.5,2.3-5.3,4.3-8.5,5c-3.2,0.8-6.8,0.3-9.3-1.9
				c-0.7-0.6-1.2-1.3-1.7-2c0.7-0.8,1.8-1.3,2.9-1.6c1.3-0.3,2.7-0.2,4-0.1c3.7,0.2,7.3,0.4,11,0.6
				C427.2,472.3,427.7,472.3,428.2,472.2z"/>
			<path class="st32" d="M429.4,347.7c-1,9.2-4.2,18.1-4.8,27.3c-0.9,13.1,3.5,26.6,0,39.3l0,0.6c-0.7-0.1-1.4-0.1-2.1-0.2
				c-1.5-0.2-3-0.6-3.9-1.8h-0.1c-0.3-4.3-0.9-8.6-1.9-12.8c-0.6-2.6-1.4-5.3-1.8-8c-0.9-4.9-0.8-10-0.6-15
				c0.3-9.6,0.8-19.2,1.6-28.8c0.5,0.1,1,0.1,1.6,0.2C421.2,348.8,425.3,348.2,429.4,347.7z"/>
			<path class="st21" d="M424.6,253.5c0.7,4.8,0.4,9.9-0.9,14.6c-2.1,7.5-6.6,14.1-8.6,21.6c-1.3,5-1.5,10.1-1.1,15.3l-3.1,0.2
				c-0.3-4.9-1.4-9.8-1.2-14.7c0.3-6.7,2.9-13.1,4.7-19.5c1.8-6.2,2.9-12.6,3.4-19.1c0.5,0.2,1,0.4,1.5,0.5
				C421,253,422.8,253.4,424.6,253.5z"/>
			<path class="st21" d="M415.6,348.3c-0.8-0.1-1.5-0.3-2.3-0.5c-1.2-0.3-2.4-0.9-2.8-2.1c-0.2-0.6-0.1-1.2,0-1.8
				c0.3-3.7-0.3-7.5-0.5-11.2c-0.5-9.1,1.5-18.3,0.9-27.4l3.1-0.2c0.4,6.3,1.6,12.6,2.3,18.9c0.9,8.1,0.9,16.3,0.9,24.5
				C416.6,348.4,416.1,348.3,415.6,348.3z"/>
		</g>
		<g>
			<path class="st31" d="M450.2,538.9c0.5,1.6,0.9,3.1,0.8,4.8c-0.2,2-1.4,3.9-2.9,5.2c-1.5,1.4-3.4,2.3-5.2,3.3
				c-1.8,0.9-3.6,1.9-5.7,2c-2.5,0.2-5-1-7-2.7c-1.2-1-2.1-2.2-3-3.4c0.2,0.2,0.4,0.4,0.7,0.6c1.9,1.5,4.5,1.7,6.9,1.4
				c5.1-0.6,9.8-3.4,12.9-7.4c1.1-1.4,2-3.2,2.1-5C449.9,538.1,450.1,538.5,450.2,538.9z"/>
			<path class="st35" d="M449.8,537.7c-0.1,1.8-1,3.5-2.1,5c-3.1,4-7.9,6.8-12.9,7.4c-2.4,0.3-5,0.1-6.9-1.4
				c-0.2-0.2-0.5-0.4-0.7-0.6c0,0,0,0,0-0.1c-0.6-0.8-1.1-1.6-1.6-2.4c-0.5-1-0.9-2.1-1.3-3.2c-2.6-7.7-5.1-15.4-7.5-23.2l0.1,0
				c1.6-2,2-4.8,1.6-7.4c0-0.2-0.1-0.3-0.1-0.5l0.3,0c4.6,9.1,8.6,18.4,12.1,27.9c0.5,1.3,1.4,2.9,2.7,2.7c0.5-0.1,0.9-0.3,1.3-0.6
				c3-2,6.4-4.4,6.9-7.9c0.5-3.1-1.3-6.1-2.9-8.9c-3.4-6-6.1-12.3-7.9-18.9l0.3-0.1c1,2.5,3.1,4.4,5.1,6.3l0.4-0.2
				c0.7,1.9,1.3,3.8,2.1,5.6c2.1,5.2,4.9,10.1,8.4,14.6c1.1,1.4,2.3,2.9,2.6,4.7C449.8,537,449.8,537.4,449.8,537.7z"/>
			<path class="st21" d="M438.8,524.6c1.6,2.7,3.4,5.7,2.9,8.9c-0.6,3.6-3.9,6-6.9,7.9c-0.4,0.3-0.8,0.5-1.3,0.6
				c-1.4,0.2-2.3-1.4-2.7-2.7c-3.5-9.5-7.5-18.9-12.1-27.9l-0.3,0c-0.2-0.8-0.3-1.5-0.2-2.3c0.3-1.9,1.9-3.1,3.5-4.2
				c1.9-1.3,3.8-2.7,6.1-3c0.4-0.1,0.9-0.1,1.3,0.1c1.2,0.4,1.5,2,1.9,3.2c0,0.1,0.1,0.2,0.1,0.3l-0.3,0.1
				C432.7,512.3,435.4,518.7,438.8,524.6z"/>
			<path class="st31" d="M436.7,511.7l-0.4,0.2c-2-1.8-4.2-3.7-5.1-6.3c-0.1-0.1-0.1-0.2-0.1-0.3c-0.4-1.2-0.7-2.7-1.9-3.2
				c-0.4-0.2-0.9-0.1-1.3-0.1c-2.3,0.3-4.2,1.6-6.1,3c-1.5,1.1-3.2,2.4-3.5,4.2c-0.1,0.8,0,1.5,0.2,2.3c0,0.2,0,0.3,0.1,0.5
				c0.4,2.6,0,5.4-1.6,7.4l-0.1,0c-0.4-1.4-0.9-2.8-1.3-4.2c-1-3.3-2-6.7-3.5-9.9c-1.4-3-3.3-5.9-5.2-8.7c-0.8-1.3-1.7-2.5-2.6-3.7
				l0.5-0.4c3.4-0.3,6.6-1.6,9.6-3.2c1.9-1,3.8-2.2,5.6-3.4c1.5,2.6,3.1,5.1,5.2,7.4c2,2.3,4.4,4.4,6.2,6.9
				C433.7,503.7,435.2,507.6,436.7,511.7z"/>
			<path class="st25" d="M419.8,485.9c-1.8,1.2-3.7,2.4-5.6,3.4L414,489c-2.7-4.8-5.4-9.6-8-14.4c-2.7-4.8-5.4-9.6-7.5-14.7
				c-2.4-5.7-4-11.6-6.4-17.3c-2.4-5.6-5.8-11.1-10.7-14.7l-0.3-0.6c2.1-1.2,4-2.5,5.9-3.9c2.5,2.8,4.9,5.5,7.3,8.3
				c2.8,3.2,5.7,6.4,8,10C411,454.9,412.3,472.3,419.8,485.9z"/>
			<path class="st23" d="M414,489l0.2,0.4c-3,1.6-6.2,2.8-9.6,3.2l-0.5,0.4c-5.7-8.3-11.6-16.5-16-25.5c-3.1-6.3-5.4-13-9.6-18.7
				c-3.9-5.3-9.2-9.6-12.9-15c5.4-1.5,10.5-3.6,15.3-6.4l0.3,0.6c5,3.6,8.3,9,10.7,14.7c2.4,5.6,4,11.6,6.4,17.3
				c2.1,5.1,4.8,9.9,7.5,14.7C408.7,479.3,411.4,484.1,414,489z"/>
			<path class="st22" d="M387,423.4c-1.9,1.4-3.9,2.7-5.9,3.9c-4.8,2.8-10,5-15.3,6.4c-0.4,0.1-0.9,0.2-1.3,0.3
				c-2.6,0.6-5.7,1-7.7-0.8c-1.3-1.1-1.8-2.9-2.3-4.4c-4.1-11.5-14.2-20-24.8-26c-4-2.3-8.2-4.3-12.4-6.3
				c-6.9-3.3-13.9-6.4-20.4-10.4c-5.8-3.5-11.4-7.8-18.1-9c2,4.1,3.4,8.4,4.4,12.8c0.2,0.9,0.3,1.8,0.1,2.7
				c-0.7,2.6-4.4,2.9-7.1,2.6c5.6,3.4,9.8,9,11.6,15.2l-0.8,0.9c-2-1.7-4.1-3.3-6.2-4.8c-3.3-2.4-6.9-4.9-10.7-6.7
				c-5-2.5-10.3-3.9-15.7-2.5c-0.5,0.1-1.1,0.3-1.7,0.3c-0.7,0-1.3-0.1-1.7-0.6c-0.3-0.4-0.4-1-0.4-1.5c-0.1-5.8,5.9-9.3,10.6-12.6
				c4.4-3.1,8.1-7.1,11-11.7c3.1-5.1,5.4-11.1,10.2-14.5c1,0.4,2.3,0.5,3.4,0.5c8.6,0.1,17.5-0.5,25.1-4.7c2.8-1.6,5.4-3.6,8.2-5.4
				c8.6-5.6,19-8.4,29.3-8c1.8,0.1,3.8,0.2,5-1.1c0.2-0.2,0.4-0.4,0.5-0.7l0.1,0c4-0.4,7.1,3.7,8.2,7.6c1.1,3.9,1.1,8.1,3,11.7
				c1.4,2.6,3.8,4.5,5.2,7.2c1.3,2.5,1.5,5.4,1.9,8.1c2.3,16.3,11.4,30.8,16.9,46.3c0.3,1,0.7,2.1,0.3,3.1c-0.3,0.8-1,1.3-1.6,1.8
				C387.2,423.2,387.1,423.3,387,423.4z"/>
			<path class="st33" d="M282.1,356.7c-0.8-0.3-1.5-0.7-1.9-1.4c0,0,0,0,0-0.1c4.3-1.8,8.5-4.3,9.7-8.7c0.7-2.6,0.2-5.4,1.4-7.8
				c1.6-3.3,5.9-4.6,7.4-8c2-4.3-1.6-9-2.3-13.7c-0.5-3.3,0.6-6.7,2.8-9.2c2.8-3.1,7.6-5.1,8-9.2c0.3-2.7-1.5-5.1-3.2-7.3
				c-1.4-1.8-2.8-3.6-4.3-5.3c-0.8-1.1-1.7-2.2-1.9-3.5c-0.4-2.8,2.5-5,5.2-5.9c2.7-0.9,5.8-1.5,7.5-3.8c2.5-3.2,0.9-7.8-1-11.3
				c-6.3-11.6-15.7-21.7-26.8-28.8l0.1-0.2c9.4,3.6,18.9,8.3,25,16.4c5.6,7.5,7.6,17.2,12.1,25.4c5.1,9.2,13.4,16.6,16.6,26.6
				c0.9,2.8,1.3,5.7,2.2,8.4c2.5,8,8.1,14.6,13.1,21.3c1.4,1.9,2.8,4.6,1.7,6.6c-0.1,0.2-0.3,0.5-0.5,0.7c-1.2,1.3-3.3,1.2-5,1.1
				c-10.3-0.5-20.7,2.4-29.3,8c-2.7,1.8-5.3,3.8-8.2,5.4c-7.5,4.2-16.5,4.8-25.1,4.7C284.4,357.2,283.1,357.1,282.1,356.7z"/>
			<path class="st21" d="M289.6,414.1c-0.9-0.9-1.8-1.8-2.8-2.6l0.8-0.9c-1.8-6.3-6-11.8-11.6-15.2c2.7,0.3,6.3,0,7.1-2.6
				c0.3-0.9,0.1-1.8-0.1-2.7c-0.9-4.4-2.4-8.7-4.4-12.8c6.7,1.2,12.3,5.4,18.1,9c6.5,4,13.5,7.1,20.4,10.4
				c-6.5,5.8-12,12.8-16.1,20.5c-1.2,2.3-2.6,4.9-5.1,5.7c-1.6,0.5-3.4,0-5.1-0.4c-2-0.5-4-1.1-6-1.6c0.3-0.3,0.6-0.6,0.8-1
				c2.7,1,5.6,1.3,8.5,0.9C293,418.2,291.4,416,289.6,414.1z"/>
			<path class="st34" d="M275.1,307.5c-0.1-0.3-0.2-0.6-0.3-0.9c-1.7-4.3-4.2-8.2-6.4-12.3c-0.1-0.1-0.1-0.2-0.2-0.3
				c-3.5-6.8-6.2-14-7.7-21.5l-0.1-0.2c2.9-0.9,5.6-2.2,8.3-3.6c3.9-2.1,7.9-4.3,12.2-5.3c2.7-0.6,6-1,7.4-3.4
				c1.7-2.7,0.1-6.1-1.1-9c-1.9-4.4-3.2-9.1-3.6-13.8c-0.1-1.5-0.3-3-1.2-4.2c-0.1-0.1-0.1-0.1-0.2-0.2l0.1-0.1
				c0.1,0.1,0.2,0.1,0.3,0.2c11.2,7.1,20.5,17.2,26.8,28.8c1.9,3.5,3.5,8.1,1,11.3c-1.8,2.3-4.9,2.8-7.5,3.8
				c-2.7,0.9-5.6,3.1-5.2,5.9c0.2,1.3,1,2.5,1.9,3.5c1.4,1.8,2.9,3.6,4.3,5.3c1.7,2.1,3.5,4.6,3.2,7.3c-0.4,4.2-5.2,6.2-8,9.2
				c-2.2,2.5-3.3,5.9-2.8,9.2c0.7,4.7,4.2,9.4,2.3,13.7c-1.5,3.3-5.8,4.7-7.4,8c-1.2,2.4-0.7,5.2-1.4,7.8c-1.2,4.4-5.5,6.9-9.7,8.7
				c-1-1.6-0.4-3.6,0.5-5.2c0.9-1.6,2.3-3,2.8-4.8c1.1-3.5-1.1-7.2-1.3-10.9c-0.1-2.7,0.8-5.4,0.3-8c-0.4-2.2-1.7-4.1-2.8-6
				c0-0.1-0.1-0.1-0.1-0.2C277.5,316.2,276.6,311.7,275.1,307.5z"/>
			<path class="st36" d="M294.1,420.6c-2.9,0.3-5.8,0-8.5-0.9c1.5-1.7,2.8-3.6,4-5.6C291.4,416,293,418.2,294.1,420.6z"/>
			<path class="st25" d="M284.7,420.6c-5.9,6.6-13.8,11.6-20.7,17.4c-2.4,2.1-4.9,4.3-6.1,7.3c-1.1,2.5-1.3,5.2-1.3,7.9
				c0,6.5,0.8,13-0.5,19.4c-1.8,9.1-7.7,16.9-11.2,25.5c-1.5,3.6-2.6,7.3-3.5,11.1l-1.3,0c-3.2-0.2-6.5-0.9-9.5-2
				c3.4-12.2,5.8-24.6,5.5-37.2c-0.1-4.9-0.7-9.7-0.5-14.6c0.3-10.6,4-21.1,10.5-29.5c7.2-9.4,17.6-16.2,24-26
				c3.8,1.8,7.4,4.3,10.7,6.7c2.1,1.5,4.2,3.1,6.2,4.8c1,0.8,1.9,1.7,2.8,2.6c-1.1,2-2.5,3.8-4,5.6C285.3,420,285,420.3,284.7,420.6
				z"/>
			<path class="st33" d="M241.4,249.3c-0.3-0.2-0.6-0.4-0.9-0.6c1.1-1,2.2-1.8,3.4-2.6c3-1.9,6.4-3.4,9.7-4.8c4-1.7,7.9-3.3,11.9-5
				c0,0.1,0,0.3,0,0.4c0-0.2,0.1-0.3,0.1-0.5c2.6-1.1,5.2-2.2,7.9-3.3c4.2-2.3,6.9-2.2,8.7-0.3c0.1,0.1,0.1,0.1,0.2,0.2
				c0.9,1.1,1.1,2.7,1.2,4.2c0.5,4.8,1.7,9.5,3.6,13.8c1.3,2.9,2.8,6.3,1.1,9c-1.5,2.4-4.7,2.7-7.4,3.4c-4.3,1-8.3,3.2-12.2,5.3
				c-2.7,1.4-5.4,2.8-8.3,3.6c-1.4,0.4-2.7,0.7-4.2,0.9c-0.5,0.1-1.1,0.1-1.6,0.1v-0.3c1.4-2.2,2.7-4.5,3.4-7
				c0.2-0.6,0.3-1.2,0.4-1.9c0.3-2.5-0.4-5.3-2.1-7.1c-0.5-0.5-1-1-1.7-1.3c-1.1-0.5-2.2-0.8-3.4-1.1
				C247.7,253.5,244.5,251.4,241.4,249.3z"/>
			<path class="st25" d="M218,301.8c15.6,5.1,31.5,9.4,47.7,12.8c1.5,0.3,3.1,0.6,4.6,0.2c2.9-0.9,4.1-4.3,4.8-7.3
				c1.5,4.2,2.4,8.7,4.5,12.6c0,0.1,0.1,0.1,0.1,0.2c-0.4,1.4-0.8,2.9-1.1,4.3c-0.1,0.5-0.3,1-0.6,1.4c-0.5,0.5-1.4,0.6-2.1,0.6
				c-12.7-0.1-25.2-3.8-36.9-8.6c-2.5-1-4.9-2.1-7.5-2.6c-4.8-1-9.8-0.2-14.6,0.7c0.5-0.4,1-0.8,1.4-1.4c0.4-0.7,0.5-1.6,0.6-2.4
				c0.1-0.7,0.1-1.4-0.1-2.1c-0.2-0.6-0.6-1.3-1.2-1.5c-0.6-1.3-1.5-2.3-2.7-3c-0.5-0.3-1.1-0.5-1.6-0.4c-0.5,0.1-0.9,0.5-1.2,1
				c-1.4,1.6-2.7,3.2-3.9,4.9c-0.5,0.6-1,1.3-1.4,2c-1.9-0.9-3.9-1.9-5.1-3.7c-1.8-2.5-1.3-6.2,0.7-8.6c0.4-0.5,0.9-1,1.4-1.4
				c1.5-1.1,3.3-1.6,5.2-1.6c1.9,0,3.9,0.4,5.6,1.3c1.3,0.7,2.5,1.6,3.9,2.1L218,301.8z"/>
			<path class="st23" d="M274.8,306.6c0.1,0.3,0.2,0.6,0.3,0.9c-0.7,3-1.9,6.4-4.8,7.3c-1.5,0.5-3.1,0.2-4.6-0.2
				c-16.1-3.4-32-7.7-47.7-12.8l0.3-0.8c1.4,0.5,2.8,0.6,4.2,0.6c13.9,0.7,27.8,1.4,41.7,2.1c0.7,0,1.4,0,1.9-0.4
				c0.4-0.4,0.5-0.9,0.6-1.5c0.4-2.6,0.9-5.2,1.3-7.8l0.3-0.1c0.1,0.1,0.1,0.2,0.2,0.3C270.6,298.4,273.1,302.3,274.8,306.6z"/>
			<path class="st25" d="M273.5,233c-2.6,1.1-5.2,2.2-7.9,3.3c0.9-3.1,0.2-6.5-0.7-9.7c-0.4-1.5-0.9-3.2-0.6-4.7l0.4,0.1
				c0.3,0.1,0.5,0.3,0.8,0.4c0.5,0.4,1,0.8,1.4,1.3c0.5,0.5,1,1.2,1.7,2.1C270,227.8,271.8,230.5,273.5,233z"/>
			<path class="st21" d="M268,210.8c0.7,5,0.9,10,0.7,15l-0.1,0.1c-0.6-0.9-1.2-1.6-1.7-2.1c-0.4-0.5-0.9-1-1.4-1.3
				c-0.3-0.2-0.5-0.3-0.8-0.4l-0.4-0.1c0-0.3,0.1-0.5,0.2-0.8c0.4-0.9,1.1-1.7,1.6-2.5c1.7-2.9,1.2-6.9-1.3-9.2
				c-0.7-0.6-1.6-1.2-2.5-1c-1.1,0.2-1.8,1.1-2.3,2.1c-0.7,1.3-1.2,2.7-1.5,4.2c-0.2,0.7-0.3,1.5-0.8,2.1c-0.9,1-2.7,0.6-3.8-0.2
				c-3.5-2.5-4.8-7.6-8.8-9c-2.5-0.8-5.3,0.2-7.7,1.4c-2.1,1-4.1,2.3-5.5,4.2c-1,1.4-1.5,2.9-1.7,4.6v0c-2,0.5-4.3,0.3-6.1-0.7
				c-2-1.1-3.5-3.1-4-5.3c-0.2-0.9-0.2-2,0.3-2.8c0.6-0.9,1.6-1.3,2.6-1.6c2.2-0.7,4.4-1.5,6.2-2.8c2-1.4,3.7-3.6,6-4.4
				c2-0.7,4.1-0.4,6.2-0.4c2.4,0,4.8-0.4,7.1-1.2c2.2-0.8,4.5-2,6.8-1.9c3,0.1,5.5,2.3,7.7,4.4c1.4,1.3,2.7,2.6,3.6,4.2
				C267.5,207,267.8,208.9,268,210.8z"/>
			<path class="st23" d="M230.2,217.8c0.2-1.7,0.8-3.3,1.7-4.6c1.4-1.9,3.4-3.1,5.5-4.2c2.4-1.2,5.1-2.2,7.7-1.4
				c4,1.3,5.4,6.5,8.8,9c1.1,0.8,2.9,1.2,3.8,0.2c0.5-0.6,0.6-1.4,0.8-2.1c0.3-1.5,0.8-2.9,1.5-4.2c0.5-1,1.2-1.9,2.3-2.1
				c0.9-0.1,1.9,0.4,2.5,1c2.4,2.3,3,6.3,1.3,9.2c-0.5,0.8-1.2,1.6-1.6,2.5c-0.1,0.3-0.2,0.5-0.2,0.8c-0.3,1.5,0.2,3.2,0.6,4.7
				c0.9,3.1,1.6,6.5,0.7,9.7c0,0-0.1,0-0.1,0c-4,1.6-7.9,3.3-11.9,5c-3.3,1.4-6.7,2.8-9.7,4.8l-0.2-0.3c-5.1-5.2-9.1-11.4-11.8-18.2
				c-0.9-2.3-1.7-4.7-1.9-7.2C230,219.5,230.1,218.7,230.2,217.8L230.2,217.8z"/>
			<path class="st23" d="M269.9,399.9c-6.4,9.9-16.8,16.7-24,26c-6.5,8.4-10.2,18.9-10.5,29.5c-0.1,4.9,0.4,9.7,0.5,14.6
				c0.4,12.6-2.1,25-5.5,37.2c-2.8-1-5.6-2.4-8-4.1c-0.3-0.2-0.7-0.3-0.9-0.1c0.2-4.8,0.4-9.6,0.6-14.3c0.3-6.7,0.6-13.4,1.9-19.9
				c2.4-11.9,8-23,9.3-35.1c0.5-4.7,0.4-9.8,2.8-13.9c1.7-3,4.4-5.1,6.9-7.4c4.2-4.1,7.4-9.1,9.5-14.6c0.6,0,1.2-0.2,1.7-0.3
				C259.5,396,264.8,397.4,269.9,399.9z"/>
			<path class="st37" d="M257.5,265.7l0.6,0.2c-0.7,2.5-2,4.8-3.4,7v0.3c-4,0-8-1.4-10.4-4.4l-0.3-0.6
				C248.4,266.2,252.9,264.8,257.5,265.7z"/>
			<path class="st23" d="M190.5,265.8c0.8-0.3,1.7-0.6,2.5-0.9c0.1,0,0.3-0.1,0.4-0.2c4-1.5,7.9-3.3,12.1-4.2c3.9-0.8,8-0.7,12-1.2
				c8.7-1,17.1-4.6,23.9-10.1c3.1,2.2,6.3,4.2,9.9,5.2c1.1,0.3,2.3,0.6,3.4,1.1c0.6,0.3,1.2,0.8,1.7,1.3l-0.5,0.3
				c-9.4,1.3-18.7,4.2-27.2,8.4c-2.5,1.3-5,2.7-7.6,3.7c-12.8,5.3-27.4,3.1-40.9,5.9c-4.1,0.9-8.2,2.3-11.4,5
				c-0.4,0.3-0.8,0.7-1.1,1.1c-1.1,1.1-2.2,2.3-3.3,3.4c-2.4,2.1-5.4,3.4-8.6,3.8c-4.5-1.9-9.2-3.5-13.9-4.8c-2.5-0.7-5.2-1.4-7-3.3
				c5.4,0.1,10.8,0.9,16,2.4c-2.6-2.5-5.3-5.1-7.9-7.6c-1.3-1.3-2.7-2.9-2.3-4.6c4.5,2.3,9,4.5,13.4,6.8c-3.6-3.6-7.2-7.3-9.1-11.9
				c1.4-0.9,3.3,0,4.7,1c4,2.6,7.9,5.5,11.5,8.7c-1.8-3.3-3.2-6.9-4.4-10.4c1.3,1,2.6,2.1,4,3c1.3,0.8,2.6,1.6,4,2.1
				c0.3,0.1,0.5,0.2,0.8,0.3c4.7,1.4,9.7,0,14.4-1.3C183.4,268,187,267,190.5,265.8z"/>
			<path class="st31" d="M234,538.5l0.3,0.1c0.5,0.5,0.8,1.1,0.9,1.8l-0.1,0c-2.2-1.2-4.1-3.1-5.5-5.2c-0.7-1.1-1.3-2.4-1.8-3.6
				c-1-2.1-1.9-4.2-2.9-6.3c1.9-6,3.8-12,5.5-18.1c3.1,1.1,6.3,1.8,9.5,2l1.3,0c-0.3,1.3-0.6,2.5-0.9,3.8
				C238.2,521.5,236.1,530,234,538.5z"/>
			<path class="st35" d="M225,525.2c1,2.1,1.9,4.2,2.9,6.3c0.6,1.2,1.1,2.4,1.8,3.6c1.4,2.2,3.3,4,5.5,5.2l0.1,0
				c0.4,2.2-0.9,4.8-2.3,6.8c-3,4.3-6,8.6-9.1,12.9c-0.1,0.1-0.2,0.3-0.3,0.4l-0.6-0.2c-1.1-6.4-4.4-12.2-8.3-17.3
				c-3.9-5.1-8.5-9.7-12.7-14.7c-4.1-5-7.8-10.4-11-16.1c-1.1-1.9-2.4-4.1-4.3-4.9l0.1-0.3c1,0.2,2,0.5,3,0.9c3.8,2.7,8,5,12.1,7.1
				c3.1,1.6,6.2,3.3,9.6,4.2c3.4,1,7,1.2,10.3,0.1c0.1,0,0.3-0.1,0.4-0.2C223.1,521.1,224,523.2,225,525.2z"/>
			<path class="st31" d="M230.5,507.2c-1.7,6.1-3.6,12.1-5.5,18.1c-0.9-2.1-1.9-4.2-2.8-6.2c0.6-0.2,1.1-0.5,1.4-1
				c0.8-1.2,0.1-2.7-0.5-3.9c-0.5-1-1.1-2.1-2-2.9c0.1-2.7,0.3-5.5,0.4-8.2c0.3-0.1,0.7,0,0.9,0.1
				C224.9,504.8,227.6,506.2,230.5,507.2z"/>
			<path class="st31" d="M222.8,560.1l0.6,0.2c-0.3,0.3-0.5,0.4-0.9,0.4c-0.2,0-0.4-0.2-0.6-0.3c-7.7-5.5-15.3-11.1-23-16.7
				c-5.3-3.9-10.7-7.8-14.7-13.1c-4-5.2-6.3-12.1-4.7-18.5c0.7-2.7,2.6-5.6,5.4-5.5c0.5,0,1.1,0.1,1.5,0.3c1.9,0.8,3.2,3,4.3,4.9
				c3.2,5.7,6.9,11.1,11,16.1c4.1,5,8.8,9.6,12.7,14.7C218.4,547.9,221.8,553.8,222.8,560.1z"/>
			<path class="st21" d="M221.7,518.1c0.1,0.3,0.3,0.6,0.4,0.9c-0.1,0.1-0.3,0.1-0.4,0.2c-3.3,1.1-7,0.9-10.3-0.1
				c-3.4-1-6.5-2.6-9.6-4.2c-4.1-2.2-8.3-4.4-12.1-7.1c2,0.8,4,1.7,6,2.5c6.4,2.4,13.6,2.6,20.2,0.5c1.1-0.4,2.4-0.8,3.6-0.5
				c0.6,0.1,1.2,0.5,1.7,0.9c-0.1,2.2-0.2,4.4-0.3,6.7L221.7,518.1z"/>
			<path class="st33" d="M211.5,315.5C211.5,315.5,211.5,315.5,211.5,315.5c-0.2-0.7-0.2-1.5,0-2.2c0.3-1.3,1-2.6,2.1-3.5
				c1.1-0.8,2.6-1.2,3.9-0.8l0.2-0.1c0.9,2.4,0.7,5.3-1.2,7c0.1,0,0.2,0,0.3,0c-0.2,0.2-0.5,0.3-0.7,0.5c-0.8,0.5-1.7,1.1-2.7,0.9
				c-0.8-0.1-1.5-0.8-1.8-1.6C211.5,315.7,211.5,315.6,211.5,315.5z M211.9,316.1C212.5,317.1,212.3,315.1,211.9,316.1L211.9,316.1z
				"/>
			<path class="st21" d="M217.4,308.6c0.1,0.1,0.1,0.3,0.2,0.4l-0.2,0.1c-1.3-0.4-2.8,0-3.9,0.8c-1.1,0.8-1.8,2.1-2.1,3.5
				c-0.2,0.7-0.2,1.5,0,2.1c-0.9-1.5-2.6-4.4-3.5-4.4c1.2-1.7,2.5-3.3,3.9-4.9c0.3-0.4,0.7-0.8,1.2-1c0.6-0.1,1.1,0.1,1.6,0.4
				C215.9,306.2,216.9,307.3,217.4,308.6z"/>
			<linearGradient id="SVGID_1_" gradientUnits="userSpaceOnUse" x1="211.8633" y1="316.0954" x2="212.2653" y2="316.0954">
				<stop  offset="0" style="stop-color:#FF7222"/>
				<stop  offset="1" style="stop-color:#FF3948"/>
			</linearGradient>
			<path class="st5" d="M211.9,316.1C212.3,315.1,212.5,317.1,211.9,316.1L211.9,316.1z"/>
			<path class="st21" d="M208.7,297.3l0,0.4c-1.9,0-3.7,0.5-5.2,1.6c-0.5,0.4-1,0.9-1.4,1.4c-3.3-6.2-7.9-12.2-14.3-14.9
				c-3-1.3-6.3-1.8-9.6-2.2l0-0.1c3.3-0.2,6.6-0.4,10-0.7l0.1,1.1c1.9,0.9,3.9,1.5,6,1.9c0.3,0.1,0.7,0.1,0.9-0.2
				c0.1-0.2,0-0.3,0-0.5c-0.2-0.9-0.3-1.9-0.5-2.9c1.1-0.1,2.2-0.2,3.3-0.4C201.2,287.2,204.8,292.4,208.7,297.3z"/>
			<path class="st21" d="M187.9,237.9c3.4,8.6,4.4,17.8,5.1,27c-0.8,0.3-1.7,0.6-2.5,0.9c-0.8-7.5-2.5-14.8-5-21.9
				c-1.4-3.8-3-7.6-5.8-10.5c-1.4-1.5-3.3-2.8-5.3-2.8c-2.3,0-4.4,1.6-5.9,3.4c-5.3,6.4-6.7,15.2-6.3,23.5c0.2,4.1,0.8,8.2,2.5,12
				l-0.1,0.4c-1.4-0.5-2.7-1.2-4-2.1c-3.9-10.1-3.3-21.9,1.5-31.6c1.4-2.7,3-5.3,5.3-7.3c2.3-1.9,5.3-3.2,8.3-3
				c3,0.2,5.7,1.9,7.7,4.1C185.5,232.4,186.8,235.1,187.9,237.9z"/>
			<path class="st25" d="M258.5,264c-0.1,0.6-0.2,1.3-0.4,1.9l-0.6-0.2c-4.6-1-9.1,0.5-13.5,2.4c-2.3,1-4.5,2.2-6.8,3.3
				c-12.3,6-25.6,8.8-39.2,10.4c-1.1,0.1-2.2,0.3-3.3,0.4c-2.2,0.2-4.4,0.4-6.5,0.6c-3.3,0.3-6.7,0.5-10,0.7
				c-1.8,0.1-3.6,0.2-5.5,0.3c-0.2,4.2-4.8,7.1-6.7,11c-1.9,4-1,8.9-3.2,12.7c-0.7,1.1-2.4,2.1-3.1,1c-0.3-0.4-0.3-0.9-0.3-1.3
				c-0.1-4.9-0.3-9.7-0.4-14.6c0-0.8,0-1.6-0.5-2.2c-0.4-0.6-1.1-0.9-1.8-1.2c-0.3-0.1-0.7-0.3-1.1-0.4c3.2-0.4,6.2-1.7,8.6-3.8
				c1.2-1.1,2.2-2.3,3.3-3.4c0.4-0.4,0.7-0.8,1.1-1.1c3.2-2.8,7.3-4.2,11.4-5c13.5-2.8,28.2-0.6,40.9-5.9c2.6-1.1,5.1-2.5,7.6-3.7
				c8.5-4.2,17.8-7.1,27.2-8.4l0.5-0.3C258,258.7,258.7,261.5,258.5,264z"/>
		</g>
		<g>
			<g>
				<linearGradient id="SVGID_2_" gradientUnits="userSpaceOnUse" x1="554.3292" y1="401.2703" x2="579.463" y2="401.2703">
					<stop  offset="0" style="stop-color:#525555"/>
					<stop  offset="1" style="stop-color:#6F7877"/>
				</linearGradient>
				<path style="fill:url(#SVGID_2_);" d="M578.8,400.8c-0.5,0.8-1.3,1.4-2.1,1.9l-0.4,0.3c-0.3,0.2-0.6,0.5-0.9,0.7
					c-0.3,0.3-0.7,0.5-1,0.8c-0.2,0.1-0.4,0.3-0.7,0.3c0-0.2-0.1-0.3-0.1-0.5l-3.8,0l-9.4-0.1c0.4-2-2.9-1.5-3.9-3.1l-2.2-3.4
					l25.1,0.7C579.6,399.3,579.3,400.1,578.8,400.8z"/>
				<path class="st21" d="M641.9,408c0.1-0.1,0.1-0.2,0.2-0.3c0.3-0.6,0.4-1.3,0.3-2c-0.1-1.4-0.8-2.7-1.9-3.6
					c-0.2-0.2-0.5-0.3-0.8-0.3h-18.7c2.4-12.8,11.7-22.3,22.9-22.3c0.6,0,1.3,0,1.9,0.1c12.1,1.2,21.6,13.6,21.6,28.7
					s-9.5,27.5-21.6,28.7c-0.6,0.1-1.3,0.1-1.9,0.1c-13,0-23.5-12.9-23.5-28.8c0-0.1,0-0.1,0-0.2H641.9z"/>
				<path class="st25" d="M626.9,484.7c2.1,2.9,0.8,6.9-0.9,10.1c-3.1,5.7-7.3,10.8-11.1,16c-8.6,11.5-16,24-21.9,37.1
					c-0.2,0-0.5,0.1-0.7,0.2c-3.1,1.8-5.3,4.9-8.6,6.2c-1.8,0.7-3.8,0.7-5.6,0.1c13-16.7,19-38.6,34.1-53.5
					c-5.6-1.4-11.1,0.7-16.7,2.5c-4.2,1.4-8.4,2.5-12.6,2l-0.3-0.2c1.7-2.8,3.2-5.7,4-8.9c0.5-2,0.6-4.1-0.2-6
					c-0.8-1.9-2.5-3.3-4.2-4.3c-3.5-2.1-7.5-3.1-11.6-3.6c1.7-1.3,3.1-3,4.2-4.9c14.8,1.4,29.5,2.7,44.2,4.1
					C621.8,481.8,625.1,482.3,626.9,484.7z"/>
				<path class="st31" d="M618.7,565.3c1.3,1.4,1,3.7,0.6,5.5c-0.1,0.7-0.3,1.4-0.9,1.9c-0.5,0.4-1.2,0.4-1.9,0.4
					c-5.5,0-11.1,0-16.6-0.2l0-0.9c2.4-0.1,4.8-0.7,6.9-2c1.9-1.1,3.5-2.6,5.4-3.7c1.9-1.1,4.2-1.7,6.2-0.9L618.7,565.3z"/>
				<path class="st21" d="M592.9,547.8c0.1,0,0.1,0,0.2,0c0.3,0.1,0.4,0.4,0.5,0.7c0.4,1.3,0.7,2.6,1.3,3.9c1.8,3.9,5.7,6.5,9.7,8
					c4,1.6,8.3,2.3,12.3,3.8c0.5,0.2,1.1,0.4,1.5,0.7c0.1,0.1,0.2,0.2,0.3,0.3l-0.2,0.2c-2-0.9-4.3-0.2-6.2,0.9
					c-1.9,1.1-3.5,2.6-5.4,3.7c-2.1,1.2-4.5,1.9-6.9,2l0,0.9c-4.3-0.1-8.6-0.3-12.9-0.5l0-0.3c-2.6-0.3-4.8-1.9-6.7-3.7
					c-1.9-1.8-3.7-3.7-6-4.9c-1-0.5-2.1-0.8-3.2-0.8c1.4-3.8,2.1-7.8,2.1-11.9l0.2-0.1c0.5,0.7,1.1,1.4,1.8,2
					c0.8,0.7,1.8,1.2,2.8,1.6c1.8,0.6,3.8,0.6,5.6-0.1c3.3-1.3,5.5-4.4,8.6-6.2C592.4,547.9,592.7,547.8,592.9,547.8z"/>
				<path class="st23" d="M603.1,402.2c-5.3-2.1-9.4-6.6-14.1-9.9c-0.4,2.7,0.7,5.4,1.4,8.1c1.8,7,0.7,14.6,3.6,21.2l0.4,0l0.2,0
					c-1,4-1.9,8-2.4,12c-0.4,3-0.6,6-1.5,8.9c-0.8,2.9-2.4,5.7-4.8,7.4c-0.6,0.4-1.3,0.8-2.1,0.7c-1.8-0.1-2.5-2.3-2.7-4
					c-1.2-10.7,1.3-21.6,0.1-32.3c-0.4-3.9-1.5-8.1-4.5-10.7l-0.4-0.5c0.1-0.1,0.3-0.2,0.4-0.3c0.7-0.6,1.5-1.1,2.1-1.9
					c0.5-0.7,0.8-1.5,0.6-2.3h0.1c1.1-0.5,1.9-1.7,2.3-2.8c0.4-1.2,0.5-2.5,0.5-3.7c0-3.1-0.4-6.2-0.3-9.2c0-0.4,0.1-0.8,0.3-1.2
					c0.4-0.7,1.4-1,2.2-0.9c0.8,0.1,1.7,0.3,2.5,0.3c2.2,0,4-1.7,5.3-3.5c1.2-1.8,2.2-3.9,3.8-5.4c2.1-1.8,5-2.2,7.6-3.1
					c2.3-0.7,4.8-2,5.8-4.2c2.2,1.5,3.8,3.9,4.7,6.4c0.9,2.6,1.1,5.3,1.2,8c0.1,3.4-0.1,6.7-0.4,10.1c-0.2,2.5-0.6,5-1.3,7.4
					c-0.6,1.9-1.5,3.8-3,5.1l-0.7,0.5l-0.7,0.4c-0.4,0.2-0.8,0.3-1.3,0.4c-1.2,0.2-2.5,0-3.8-0.4
					C603.9,402.5,603.5,402.4,603.1,402.2z"/>
				<path class="st23" d="M609.7,408c0.2,0.7,0.5,1.4,0.9,2.1c0.7,1.3,1.8,2.5,2.1,3.9c0.7,2.6-0.9,5.2-2.4,7.4
					c-3.8,5.6-7.6,11.1-11.4,16.7c0.8-6,1.2-12.1-0.2-17.8c1.3-1.3,2.5-2.8,3.4-4.4c0.1-0.2,0.2-0.3,0.2-0.5c0-0.2-0.1-0.4-0.2-0.5
					c-1.2-2.1-1.3-6.4-1.2-8.8c0.8-1.3,1.5-2.5,2.3-3.8c0.4,0.2,0.8,0.3,1.2,0.4c1.2,0.4,2.5,0.6,3.8,0.4c0.4-0.1,0.9-0.2,1.3-0.4
					C609,404.4,609.1,406.3,609.7,408z"/>
				<path class="st21" d="M609.7,364.2c0,0.2-0.1,0.4-0.2,0.6c-1,2.2-3.5,3.5-5.8,4.2c-2.6,0.8-5.5,1.3-7.6,3.1
					c-1.7,1.4-2.6,3.5-3.8,5.4c-1.2,1.8-3.1,3.6-5.3,3.5c-0.9,0-1.7-0.3-2.5-0.3c-0.8,0-1.8,0.2-2.2,0.9c-0.2,0.4-0.2,0.8-0.3,1.2
					c-0.2,3.1,0.3,6.2,0.3,9.2c0,1.2,0,2.5-0.5,3.7c-0.4,1.2-1.2,2.3-2.3,2.8c0.2-1.8-0.6-3.6-1.6-5c-1-1.5-2.3-2.7-3.5-4.1
					c-0.6-0.8-1.2-1.7-1.6-2.7c-0.6-1.5-0.6-3.1-0.4-4.7c0.2-1.8,0.7-3.6,1-5.4c0.8-5.1,0-10.6,2.7-15c1.1-1.7,2.7-3.1,4.6-3.9
					c0.3-0.1,0.5-0.2,0.8-0.3v0c0,0,0.1,0,0.1,0c3.3-1.1,7-0.7,10.5-1.1c4-0.5,8.1-2.1,11.9-0.6c3.1,1.2,5,4.3,6.3,7.3
					c0.2,0.5,0.3,1.4-0.3,1.4L609.7,364.2z"/>
				<path class="st23" d="M595.4,503.3c5.6-1.8,11.1-3.9,16.7-2.5c-15.1,14.9-21.1,36.7-34.1,53.5c-1-0.3-2-0.9-2.8-1.6l0-0.1
					c4.9-7.9,8.5-16.6,10.7-25.6c2-8.4,3.2-17.7,9.6-23.5L595.4,503.3z"/>
				<path class="st25" d="M603.1,402.2c-0.8,1.3-1.5,2.5-2.3,3.8c-1.7,2.8-3.3,5.5-4.5,8.5c-0.1,0.2-0.1,0.3-0.2,0.5
					c-0.8,2.1-1.4,4.2-1.8,6.4l-0.4,0c-2.8-6.6-1.8-14.2-3.6-21.2c-0.7-2.7-1.8-5.4-1.4-8.1C593.7,395.6,597.8,400,603.1,402.2z"/>
				<path class="st34" d="M598.8,438.1c-0.3,2.6-0.8,5.1-1.3,7.6l-1.5,8c-0.3,1.5-0.6,3-1.2,4.4c-3.1,6.4-12.9,6.6-16.9,12.4
					c-1.3,1.8-1.8,4-2.8,6c-0.2,0.3-0.3,0.6-0.5,1c-1.1,1.9-2.5,3.5-4.2,4.9c-3.9-0.5-7.9-0.6-11.8-0.9c-7.6-0.5-15.2-1.9-22.5-4
					c3.3-4,8.6-6.2,13.7-7.3c6-1.3,12.3-1.4,18.2-3.1c1-0.3,2-0.6,2.7-1.4c1-1,1.2-2.6,1.2-4.1c0.1-5.3-1.8-10.6-5.2-14.7
					c-1.5-1.8-3.2-3.5-4-5.6c0.3-0.2,0.7-0.4,1-0.7c4.6-3.2,7.5-8.4,9.3-13.7c1.9-5.6,2.7-11.7,1.8-17.5c-0.2-1.6-0.6-3.1-1.1-4.6
					c0.2-0.1,0.5-0.2,0.7-0.3c0.3-0.3,0.7-0.5,1-0.8c0.3-0.2,0.6-0.5,0.9-0.7l0.4,0.5c3,2.6,4.1,6.7,4.5,10.7
					c1.2,10.7-1.3,21.6-0.1,32.3c0.2,1.7,0.9,3.9,2.7,4c0.7,0,1.5-0.3,2-0.7c2.5-1.7,4-4.5,4.8-7.4c0.9-2.9,1.1-5.9,1.5-8.9
					c0.6-4,1.5-8,2.4-12l-0.2-0.1c0.3-2.2,0.9-4.4,1.7-6.4c0.1-0.2,0.1-0.3,0.2-0.5l0.4,0.2c0.9,1.8,1.5,3.7,2,5.6
					C600,426,599.7,432.1,598.8,438.1z"/>
				<path class="st31" d="M587,572.1l0,0.3c-2.1-0.1-4.3-0.2-6.4-0.4c-3.5-0.2-7-0.5-10.2-2c-0.7-0.3-1.5-0.9-1.6-1.7
					c-0.1-0.6,0.2-1.1,0.5-1.6c0.7-1.3,1.3-2.6,1.8-4c1.1,0,2.2,0.3,3.2,0.8c2.3,1.2,4.1,3.1,6,4.9
					C582.3,570.2,584.5,571.8,587,572.1z"/>
				<path class="st23" d="M570.5,482.4c4.1,0.5,8,1.5,11.6,3.6c1.8,1,3.4,2.4,4.2,4.3c0.8,1.9,0.6,4,0.2,6c-0.8,3.2-2.3,6.1-4,8.9
					c-0.3,0.4-0.5,0.8-0.8,1.3c-10,15.8-23.7,29.3-32.1,46.1c-1.1,2.2-2.1,4.4-2.4,6.8c-0.9-0.1-2,0.1-2.9,0.4
					c-5.8,1.9-11.1,5.6-17.2,5.5l-0.1,0c0.5-1.6,1.1-3.2,1.6-4.8c1.2-3.6,2.4-7.2,3.6-10.8c3.5-10.6,7-21.2,12.8-30.8
					c1.7-2.9,3.7-5.6,5.8-8.2c0,0,0,0,0,0c2.4-2.9,5.1-5.5,8.2-7.6c2.1-1.5,4.5-2.8,7-2.5c-3.2-3.8-8.5-5.4-13.5-5.6
					c-5.2-0.1-10.3,1.1-15.5,1.8c-7.1,0.9-14.3,0.8-21.3-0.4l-0.5-0.3c3-5.7,7-10.8,11.9-15c3-0.3,5.9-1.4,8.3-3.3l0.1-0.3
					c0.2,0,0.4,0.1,0.5,0.1c7.3,2.1,14.9,3.5,22.5,4C562.6,481.8,566.6,481.8,570.5,482.4z"/>
				<path class="st21" d="M581.7,357.2c0,0-0.1,0-0.1,0v0c-0.3,0.1-0.5,0.2-0.8,0.3c-1.9,0.8-3.5,2.2-4.6,3.9
					c-2.7,4.3-1.9,9.9-2.7,15c-0.3,1.8-0.8,3.6-1,5.4l-0.4,0c-0.2,1.5-0.8,3.1-2.2,3.6c-0.9,0.4-2,0.1-3,0.1
					c-1.6-0.1-3.2,0.2-4.7,0.2c-1.6,0-3.3-0.2-4.5-1.2c-0.8-0.6-1.3-1.6-1.7-2.5c-1.8-4.5-0.2-10-2.5-14.3c-0.6-1.2-1.5-2.1-2.1-3.3
					c-1.3-2.5-1.4-5.6-0.6-8.3c0.6-2,1.7-4,3.4-5.2c3.2-2.1,7.4-1.1,11.1-1.5c2.9-0.3,5.8-1.5,8.6-0.7c2.1,0.6,3.6,2.3,5.1,4
					C580.1,354,581.3,355.4,581.7,357.2L581.7,357.2z"/>
				<path class="st23" d="M573.1,426.9c-1.8,5.3-4.7,10.5-9.3,13.7c-0.3,0.2-0.7,0.5-1,0.7c-0.1-0.3-0.2-0.6-0.2-0.9
					c-0.5-2.8,0.9-6.3-1.1-8.3c-4.7,2.9-9.1,6.2-13.3,9.8c-5.4,4.6-10.3,9.7-14.7,15.3c0.3-0.4,0.6-0.8,0.8-1.3
					c0.5-0.9,1-1.7,1.5-2.6c0.5-0.9,0.9-1.8,1.3-2.7c0.4-0.9,0.8-1.8,1.2-2.8c0.2-0.5,0.4-0.9,0.6-1.4c1.6-4.1,3.3-8.3,5.2-12.3v0
					l0.1,0.1c5.7-6.9,11.9-13.4,18.5-19.4c3.4-3.1,7.7-6.2,12.2-5.3C575.7,415.2,574.9,421.3,573.1,426.9z"/>
				<path class="st31" d="M569,582.2c1.5,0.6,3.4,1.5,3.4,3.2c0,1.2-1.1,2.1-2.2,2.7c-3.7,2-8,2.4-12.2,2.3c-4.3-0.1-8.7-0.7-13-1.4
					c-2.3-0.3-4.7-0.7-7-1l0.1-0.9c5.8-2.4,12.3-3.3,18.6-2.5c2.2,0.3,4.5,0.8,6.8,0.5c2-0.2,4-1.3,5-3
					C568.6,582,568.8,582.1,569,582.2z"/>
				<path class="st33" d="M532,459.1c0.1-0.1,0.1-0.2,0.2-0.3c0.3-0.3,0.6-0.6,0.8-1c0.2-0.2,0.3-0.4,0.5-0.7
					c4.4-5.6,9.3-10.7,14.7-15.3c4.4,2.7,10.2,2.1,14.6-0.6c0.7,2.1,2.5,3.8,4,5.6c3.4,4.1,5.3,9.4,5.2,14.8c0,1.4-0.2,3-1.2,4.1
					c-0.7,0.7-1.7,1.1-2.7,1.4c-5.9,1.7-12.2,1.8-18.2,3.1c-5.1,1.1-10.4,3.3-13.7,7.3c-0.2,0-0.4-0.1-0.5-0.1l-0.1,0.3
					c-2.3,1.9-5.3,3-8.3,3.3c-1,0.1-2,0.1-3,0c-2.2-0.2-4.3-0.9-6.5-1.4c-3.4-0.8-7-1-10.5-0.8c-0.4,0-1,0-1.3-0.2c0,0,0,0,0,0
					c0,0-0.1-0.1-0.1-0.1c-0.2-0.4-0.1-0.9,0.2-1.4c2.1-4,6.8-5.8,11-7.4c3.9-1.5,8.2-3.2,10.4-6.6C529.1,462,530.6,460.6,532,459.1
					z"/>
				<path class="st21" d="M547.3,559.3c0.6,0.1,1.1,0.3,1.5,0.7c1.7,1.7-0.2,4.4-0.3,6.8c-0.2,3.2,2.9,5.6,5.7,7.3
					c4.6,2.9,9.2,5.7,14.2,7.8c-0.9,1.7-3,2.8-5,3c-2.2,0.3-4.5-0.2-6.8-0.5c-6.3-0.8-12.8,0.1-18.6,2.5l-0.1,0.9
					c-3.3-0.5-6.5-0.9-9.8-1.4c-0.7-0.5-1.1-1.4-1.5-2.3c-0.9-1.8-2-3.5-3.3-5c-0.9-1-2-2-3.4-2l-0.2,0c0.6-2.4,0.8-5,1.3-7.5
					c0.7-4,2.5-8.4,6.4-9.7l1.3,0.4c-0.5,1.6-1.1,3.2-1.6,4.8l0.1,0c6.1,0.1,11.4-3.6,17.2-5.5C545.3,559.4,546.4,559.2,547.3,559.3
					z"/>
				<path class="st25" d="M566.1,500.4c-2.5-0.3-4.9,1.1-7,2.5c-3.1,2.2-5.8,4.8-8.2,7.6c0,0,0,0,0,0c-4.9,2.6-10.3,4.1-15.7,5.3
					c-5.8,1.3-11.8,2.5-17.6,1.2c-2.8-0.6-5.4-1.7-8-2.9c0.1-0.4,0.1-0.8,0.2-1.2c0.8-6,2.7-11.9,5.5-17.2l0.5,0.3
					c7,1.2,14.2,1.3,21.3,0.4c5.2-0.7,10.3-1.9,15.5-1.8C557.6,495,562.9,496.6,566.1,500.4z"/>
				<path class="st25" d="M562.5,440.4c0.1,0.3,0.1,0.6,0.2,0.9c-4.4,2.7-10.3,3.3-14.6,0.6c4.2-3.6,8.6-6.9,13.3-9.8
					C563.4,434.2,562,437.6,562.5,440.4z"/>
				<path class="st23" d="M560.4,404.2L560.4,404.2c0,0.2-0.1,0.3-0.1,0.5c-0.3,1-0.6,2-1,3c0,0,0,0,0,0c-2.3,5.9-6.6,11-10,16.4
					c-2,3.2-3.8,6.5-5.3,9.9v0c-1.9,4-3.5,8.2-5.2,12.3c-0.2,0.5-0.4,0.9-0.6,1.4c-0.4,0.9-0.8,1.9-1.2,2.8
					c-0.4,0.9-0.8,1.8-1.3,2.7c-0.5,0.9-1,1.8-1.5,2.6c-0.3,0.4-0.5,0.9-0.8,1.3c-0.4,0.5-0.9,1.1-1.3,1.7c-0.1,0.1-0.1,0.2-0.2,0.3
					c-1.3,1.5-2.9,2.8-4.6,3.8c-1.5,0.9-3.2,1.5-4.9,1.7c-1.4,0.2-2.9,0.1-4.1-0.7c-0.5-0.3-0.9-0.7-1.1-1.2
					c1.7-6.4,4.6-12.5,8.3-18.1c6.8-10.1,16.8-18.2,21.4-29.5c0.2-0.6,0.4-1.2,0.5-1.8l-0.1,0c-0.3-0.2-0.5-0.5-0.8-0.8
					c-1.8-2.1-3.4-6.1-3.5-8.6l6.5,0.1l6,0.1c0.9-1.1,1.6-2.4,2.1-3.7c0.5-1.2-0.4-3.6,1-3.7c0.6,0.4,1,0.9,1.4,1.5
					C560.8,399.9,560.8,402.2,560.4,404.2z"/>
				<path class="st25" d="M557.5,400.5c-0.5,1.3-1.2,2.5-2.1,3.7l-6-0.1c-1.8-0.7-3.4-1.9-4.7-3.4c-0.5-0.5-0.9-1.1-1-1.9
					c-0.1-0.4,0-0.9,0.1-1.3c0.1-0.3,0.3-0.5,0.5-0.6c0.4-0.3,0.9-0.3,1.3-0.4c0.9-0.1,1.7-0.2,2.5-0.3c1.9-0.2,4-0.4,5.8,0.2
					C555.8,397.1,557.4,398.7,557.5,400.5z"/>
				<path class="st25" d="M547.2,413.5L547.2,413.5c0,0.6-0.2,1.2-0.4,1.8c-4.6,11.3-14.5,19.4-21.4,29.5
					c-3.7,5.5-6.5,11.6-8.3,18.1c-1.1-1.7-1.1-4.2-0.8-6.3c1.5-9,6.3-17.1,12-24.2c5.6-6.9,12.1-13,18-19.6
					C546.7,413,546.9,413.3,547.2,413.5z"/>
				<path class="st31" d="M528.1,586.5c-2-0.3-4-0.6-6-0.9c-1.5-0.2-3.1-0.5-4.2-1.6c-0.3-0.3-0.6-0.8-0.6-1.3
					c0-0.5,0.3-0.9,0.6-1.3c0.9-1.3,1.4-2.7,1.8-4.2l0.2,0c1.4,0,2.5,1,3.4,2c1.3,1.5,2.5,3.2,3.3,5C527,585,527.4,586,528.1,586.5z
					"/>
				<path class="st22" d="M509.6,514.3c-0.1,0.4-0.2,0.9-0.5,1.3c-0.4,0.7-1.3,1.2-2.1,0.9c-0.6-0.2-1-0.8-1.3-1.4
					c-1.2-2.2-1.9-4.7-2.1-7.3c-0.9,0.5-2.1,0-2.7-0.8c-0.6-0.8-0.9-1.9-1.1-2.9c-1.5-8.9,0.7-18.4,6.1-25.7
					c0.3,0.3,0.9,0.3,1.3,0.2c3.5-0.2,7.1,0,10.5,0.8c2.2,0.5,4.3,1.2,6.5,1.4c1,0.1,2,0.1,3,0c-4.9,4.2-8.9,9.3-11.9,15
					c-2.8,5.4-4.7,11.2-5.5,17.2C509.7,513.5,509.7,513.9,509.6,514.3z"/>
				<path class="st21" d="M494.2,403.7c0.8-1.1,1-2.6,0.9-4c-0.1-0.7-0.2-1.4-0.5-2.1c-0.3-0.6-0.7-1.2-1.3-1.6l-29.9-0.8
					c2.4-16,13.9-28.2,27.7-28.2c0.8,0,1.5,0,2.3,0.1c14.5,1.4,25.9,16.3,25.9,34.4c0,18.1-11.4,33-25.9,34.4
					c-0.8,0.1-1.5,0.1-2.3,0.1c-15.1,0-27.4-14.4-28.2-32.6L494.2,403.7z"/>
				<linearGradient id="SVGID_3_" gradientUnits="userSpaceOnUse" x1="441.2727" y1="399.1937" x2="495.1186" y2="399.1937">
					<stop  offset="0" style="stop-color:#525555"/>
					<stop  offset="1" style="stop-color:#6F7877"/>
				</linearGradient>
				<path class="st14" d="M495.1,399.7c0.1,1.4,0,3-0.9,4l-31.2-0.2l-21.7-0.2v-0.5c0.8,0,1.7-0.5,2.2-1.2c0.8-1.2,0.6-2.8,0.3-4.2
					c-0.3-1.1-0.7-2.2-1.6-2.8c0,0,0,0-0.1,0l21.3,0.6l29.9,0.8c0.5,0.4,1,1,1.3,1.6C494.9,398.3,495,399,495.1,399.7z"/>
				<linearGradient id="SVGID_4_" gradientUnits="userSpaceOnUse" x1="670.9558" y1="406.7997" x2="676.5791" y2="406.7997">
					<stop  offset="0" style="stop-color:#525555"/>
					<stop  offset="1" style="stop-color:#6F7877"/>
				</linearGradient>
				<path class="st16" d="M675.8,410.5c-0.1,0.1-0.1,0.3-0.2,0.4c-0.2,0.1-0.4,0.2-0.6,0.2c-1.2,0-2.4,0.1-3.6,0
					c0.1-0.9,0.1-1.9,0.1-2.9c0-1.9-0.2-3.8-0.5-5.7l0.3,0h3.7c0.2,0,0.4,0,0.6,0.1c0.1,0.1,0.1,0.2,0.2,0.3
					C676.8,405.3,676.9,408.1,675.8,410.5z"/>
				<linearGradient id="SVGID_5_" gradientUnits="userSpaceOnUse" x1="609.1703" y1="404.8498" x2="642.48" y2="404.8498">
					<stop  offset="0" style="stop-color:#525555"/>
					<stop  offset="1" style="stop-color:#6F7877"/>
				</linearGradient>
				<path class="st38" d="M642.5,405.7c0.1,0.7,0,1.4-0.3,2c-0.1,0.1-0.1,0.2-0.2,0.3h-32.2c-0.5-1.7-0.7-3.6-0.3-5.3
					c0.5-0.2,0.9-0.5,1.4-0.9h29c0.3,0,0.6,0.2,0.8,0.3C641.6,402.9,642.3,404.3,642.5,405.7z"/>
				<linearGradient id="SVGID_6_" gradientUnits="userSpaceOnUse" x1="523.782" y1="400.5333" x2="549.3833" y2="400.5333">
					<stop  offset="0" style="stop-color:#525555"/>
					<stop  offset="1" style="stop-color:#6F7877"/>
				</linearGradient>
				<path class="st39" d="M549.4,404.2l-6.5,0L524,404c0.1-0.8,0.1-1.6,0.1-2.4c0-1.6-0.1-3.2-0.3-4.7l19.1,0.5l0.9,0.2
					c-0.2,0.4-0.2,0.8-0.1,1.3c0.1,0.7,0.6,1.3,1,1.9C545.9,402.2,547.6,403.4,549.4,404.2z"/>
				<linearGradient id="SVGID_7_" gradientUnits="userSpaceOnUse" x1="645.9171" y1="408.1905" x2="671.4355" y2="408.1905">
					<stop  offset="0" style="stop-color:#00336C"/>
					<stop  offset="1" style="stop-color:#6F7877"/>
				</linearGradient>
				<path class="st40" d="M671.4,408.2c0,1,0,1.9-0.1,2.9c-1.3,14.7-12.2,25.8-25.4,25.8l0,0c12.1-1.2,21.6-13.6,21.6-28.7
					c0-15.1-9.5-27.5-21.6-28.7l0,0c12.4,0,22.7,9.7,25,23C671.3,404.4,671.4,406.3,671.4,408.2z"/>
				<linearGradient id="SVGID_8_" gradientUnits="userSpaceOnUse" x1="493.4343" y1="401.6" x2="524.0632" y2="401.6">
					<stop  offset="0" style="stop-color:#00336C"/>
					<stop  offset="1" style="stop-color:#6F7877"/>
				</linearGradient>
				<path class="st41" d="M523.8,396.9c0.2,1.5,0.3,3.1,0.3,4.7c0,0.8,0,1.6-0.1,2.4c-1.1,18.2-14.4,32-30.5,32l0,0
					c14.5-1.4,25.9-16.3,25.9-34.4c0-18.1-11.4-33-25.9-34.4l0,0C508.9,367.2,521.8,379.9,523.8,396.9z"/>
				<linearGradient id="SVGID_9_" gradientUnits="userSpaceOnUse" x1="439.3588" y1="398.7141" x2="444.0006" y2="398.7141">
					<stop  offset="0" style="stop-color:#00336C"/>
					<stop  offset="1" style="stop-color:#6F7877"/>
				</linearGradient>
				<path class="st42" d="M443.7,397.4c0.3,1.4,0.5,3-0.3,4.2c-0.4,0.7-1.4,1.2-2.2,1.2c-0.6,0-1.1-0.2-1.4-0.7
					c-0.3-0.5-0.4-1.1-0.5-1.7c-0.1-2,0.2-4,0.9-5.9c0,0,0.1,0,0.1,0l1.6,0c0,0,0,0,0.1,0C443.1,395.2,443.5,396.4,443.7,397.4z"/>
			</g>
			<path class="st25" d="M574.8,409.4c-4.5-0.9-8.8,2.2-12.2,5.3c-6.7,6-12.9,12.5-18.5,19.4l-0.1-0.1c1.6-3.4,3.3-6.8,5.3-9.9
				c3.5-5.4,7.8-10.5,10-16.4c0,0,0,0,0,0c3.5-2.5,7.6-3.2,10.4-3.4l3.8,0c0,0.2,0.1,0.3,0.1,0.5
				C574.2,406.3,574.6,407.8,574.8,409.4z"/>
		</g>
	</g>
</g>
</svg>
