<?xml version="1.0" encoding="utf-8"?>
<!-- Generator: Adobe Illustrator 24.0.3, SVG Export Plug-In . SVG Version: 6.00 Build 0)  -->
<svg version="1.1" xmlns="http://www.w3.org/2000/svg" xmlns:xlink="http://www.w3.org/1999/xlink" x="0px" y="0px"
	 viewBox="0 0 418 290" style="enable-background:new 0 0 418 290;" xml:space="preserve">
<style type="text/css">
	.st0{display:none;}
	.st1{display:inline;}
	.st2{fill:#FFFFFF;}
	.st3{fill:none;stroke:#FFFFFF;stroke-width:2;stroke-miterlimit:10;}
	.st4{fill:none;stroke:#FFFFFF;stroke-width:2;stroke-linecap:round;stroke-linejoin:round;stroke-miterlimit:10;}
	.st5{fill:url(#SVGID_1_);}
	.st6{fill:none;stroke:#218AE5;stroke-miterlimit:10;}
	.st7{display:inline;fill:#F1F1F1;}
	.st8{display:inline;fill:url(#SVGID_2_);}
	.st9{display:inline;fill:none;stroke:#218AE5;stroke-width:2;stroke-miterlimit:10;}
	.st10{opacity:0.6;fill:#FFFFFF;}
	.st11{display:inline;fill:none;stroke:#218DE8;stroke-width:2;stroke-miterlimit:10;}
	.st12{fill:#218AE5;}
	.st13{fill:#CBCBCB;}
	.st14{fill:url(#SVGID_3_);}
	.st15{display:inline;fill:none;stroke:#808080;stroke-miterlimit:10;}
	.st16{fill:url(#SVGID_4_);}
	.st17{fill:none;stroke:#FFFFFF;stroke-width:2.0006;stroke-miterlimit:10;}
	.st18{fill:none;stroke:#FFFFFF;stroke-width:1.9294;stroke-miterlimit:10;}
	.st19{display:inline;fill:#FFFFFF;}
	.st20{fill:#CBE6F9;}
	.st21{fill:#2A2A55;}
	.st22{fill:#263E83;}
	.st23{fill:#F8D0A3;}
	.st24{fill:#283996;}
	.st25{fill:#DFB58B;}
	.st26{fill:#E2E2E2;}
	.st27{fill:#353854;}
	.st28{fill:#88CFFF;}
	.st29{fill:#73C3EF;}
	.st30{fill:#CCA079;}
	.st31{fill:#97C4E3;}
	.st32{fill:#BA8D6A;}
	.st33{fill:#027CCE;}
	.st34{fill:#008EED;}
	.st35{fill:#E6E6E6;}
	.st36{fill:#1A1A3A;}
	.st37{fill:#0563AF;}
	.st38{fill:url(#SVGID_5_);}
	.st39{fill:url(#SVGID_6_);}
	.st40{fill:url(#SVGID_7_);}
	.st41{fill:url(#SVGID_8_);}
	.st42{fill:url(#SVGID_9_);}
	.st43{fill:url(#SVGID_10_);}
	.st44{fill:url(#SVGID_11_);}
	.st45{fill:url(#SVGID_12_);}
	.st46{fill:url(#SVGID_13_);}
	.st47{fill:#1C2377;}
	.st48{fill:#CCCCCC;}
	.st49{fill:#218DE8;}
	.st50{fill:none;}
	.st51{fill:#FBFAFA;}
	.st52{fill:#80B4E2;}
	.st53{fill:#F2F2F2;}
	.st54{clip-path:url(#SVGID_15_);}
	.st55{fill:#629FCC;}
	.st56{fill:#127CC4;}
	.st57{fill:#2F2F65;}
	.st58{fill:#277DC4;}
	.st59{fill:#E4F2F6;}
	.st60{opacity:0.1;fill:#5C4A45;}
	.st61{fill:#37A5EF;}
	.st62{fill:#156FD1;}
	.st63{fill:#4BB9F7;}
	.st64{fill:#61A4D6;}
	.st65{fill:#A0CDEF;}
	.st66{fill:#182C7F;}
	.st67{fill:#94C1EA;}
	.st68{font-family:'Roboto-Black';}
	.st69{font-size:238.188px;}
	.st70{letter-spacing:-35;}
	.st71{fill:#E0B489;}
	.st72{fill:#7E492B;}
	.st73{fill:#BDC5E4;}
	.st74{fill:#121C60;}
	.st75{fill:#D1A278;}
	.st76{fill:#F7CFA2;}
	.st77{fill:#323658;}
	.st78{fill:#BDB69D;}
	.st79{fill:#343B57;}
	.st80{fill:#3D476E;}
	.st81{fill:#76C1DA;}
	.st82{fill:#E1D7D2;}
	.st83{fill:#809ED1;}
	.st84{fill:#29A9EF;}
	.st85{fill:#071E56;}
	.st86{fill:#2152A3;}
	.st87{fill:#2D59B2;}
	.st88{fill:#122C75;}
	.st89{fill:#0A154C;}
	.st90{fill:#6680BB;}
	.st91{fill:#142275;}
	.st92{fill:#546597;}
	.st93{fill:#6284EF;}
	.st94{fill:#174AC9;}
	.st95{fill:#0F45B2;}
	.st96{fill:#D9DDEE;}
	.st97{fill:#464B7A;}
	.st98{fill:#394AC4;}
	.st99{fill:#7D83D7;}
	.st100{fill:#CEA680;}
	.st101{fill:#343B5C;}
	.st102{fill:#0E1759;}
	.st103{fill:#025ECC;}
	.st104{clip-path:url(#SVGID_21_);fill:url(#SVGID_22_);}
	.st105{fill:url(#SVGID_23_);}
	.st106{fill:url(#SVGID_24_);}
	.st107{fill:url(#SVGID_25_);}
	.st108{fill:url(#SVGID_26_);}
	.st109{fill:url(#SVGID_27_);}
	.st110{fill:url(#SVGID_28_);}
	.st111{fill:url(#SVGID_29_);}
	.st112{fill:url(#SVGID_30_);}
	.st113{fill:url(#SVGID_31_);}
	.st114{clip-path:url(#SVGID_33_);}
</style>
<g id="Livello_1" class="st0">
	<rect x="-252" y="-987" class="st19" width="1970" height="2437"/>
</g>
<g id="BiancoSfondo">
</g>
<g id="Contattaci">
</g>
<g id="cosa_x27_altro_devi_sapere">
</g>
<g id="Come_funziona">
</g>
<g id="HEADER">
	<g>
		<g>
			<path class="st20" d="M358.7,205.4c-0.4,24.4-6.6,51.3-26.7,65.3c-12.3,8.6-27.8,10.9-42.7,12.3c-75.1,7.1-155.3-3.7-215.5-49.1
				c-10.6-8-21.1-18.1-22.5-31.2c-1.1-9.5,2.8-18.8,7.5-27.2c9.1-16.4,21.5-30.7,34.3-44.4c31.3-33.2,66.3-62.8,104.1-88.3
				c18.6-12.5,54.6-42.2,78.5-36.2c12.6,3.2,20.7,15,27.3,26.2C334,85.6,359.7,144.2,358.7,205.4z"/>
			<text transform="matrix(1 1.400000e-03 -1.400000e-03 1 84.6234 209.0015)" class="st67 st68 st69 st70">10</text>
		</g>
		<g>
			<g>
				<g>
					<g>
						<path class="st71" d="M142.3,205c-0.1,1.7,4.1,6.2,4.1,6.2l-2.4,2.6c0,0-0.2-0.1-0.4-0.4c-0.1-0.1-0.3-0.3-0.5-0.5
							c-2.2-2.2-7.3-7.8-5-9.9c3.5-3.1,10.4-9.7,10.4-9.7l2.7,4.3C151.2,197.6,142.4,203.8,142.3,205z"/>
					</g>
				</g>
				<g>
					<g>
						<path class="st71" d="M154.6,186.6c-0.1,0.2-0.2,0.5-0.3,0.8c-0.1,0.4-0.1,0.8-0.2,1.2c-0.1,1.3,0,2.5,0,2.5s-5.4-0.7-4.7-2.1
							c0.8-1.3,0-5.1,0-5.1S155.2,185.4,154.6,186.6z"/>
					</g>
				</g>
				<g>
					<g>
						<path class="st71" d="M156.9,209.3c-0.2,0.3-0.4,0.7-0.5,1.1c-0.9,2.3-1.3,6.2-1.5,7.5c0,0.3,0,0.5,0,0.5
							c-6.3,1.1-13.3-0.6-13.3-0.6c0.1-0.2,1.2-2.6,1.3-2.8c1.4-3.1,2.5-5,2.9-7.3h0c0.3-1.3,0.3-2.7,0.1-4.5
							c-0.5-5.2,0.5-8.2,1.5-10.7c1-2.5,2.3-3.9,2.3-3.9l4.5,1.9c0.7,1.4,2.5,2.9,4.6,6.2C161,200.4,161.3,202.3,156.9,209.3z"/>
					</g>
				</g>
				<g>
					<g>
						<path class="st34" d="M156.9,209.3c-0.2,0.3-0.4,0.7-0.5,1.1c0,0-6-1.7-10.5-2.7c0.3-1.3,0.3-2.7,0.1-4.5
							c-0.5-5.2,0.5-8.2,1.5-10.7c1-2.5,2.3-3.9,2.3-3.9l4.5,1.9c0.7,1.4,2.5,2.9,4.6,6.2C161,200.4,161.3,202.3,156.9,209.3z"/>
					</g>
				</g>
				<g>
					<g>
						<polygon class="st34" points="146,205.4 157.2,208.3 156.3,210.4 145.8,207.7 						"/>
					</g>
				</g>
				<g>
					<g>
						<path class="st71" d="M153.7,195c0,0,5.3,11.4,6.4,11.5c1.6,0.2,8.8-3.1,8.8-3.1l0.9,2.5c0,0-10.8,7.4-12.9,4.5
							c-2.6-3.5-7.9-12.7-7.9-12.7L153.7,195z"/>
					</g>
				</g>
				<g>
					<path class="st72" d="M170.5,200.7c0,0,0.7-0.8,1-1.1c0.2-0.3,0.5,0.3,0.3,0.6C171.6,200.6,170.5,200.7,170.5,200.7z"/>
				</g>
				<g>
					<path class="st71" d="M174.3,203.1c0,0-0.3,0.4-0.5,0.5c0,0-0.4,0.2-0.6,0.4c-0.1,0.1-0.2,0.1-0.2,0.1c-0.2,0.2-0.5,0.5-1,0.8
						c-0.5,0.3-2.4,1-2.4,1l-0.7-1.3l-0.6-1c0,0,1.6-2.6,2.1-2.9c0,0,0.1-0.1,0.1-0.1c0.4-0.2,0.8-0.2,1-0.3c0.1,0,0.9-0.3,1.1-0.2
						c0.3,0.2,0.4,0.4,0.4,0.6c0,0,0.5,0.3,0.6,0.8c0,0,0.5,0.3,0.4,0.9C174,202.3,174.5,202.7,174.3,203.1z"/>
				</g>
				<g>
					<path class="st71" d="M145.2,235.7c0,0-4.3,5.1-5.9,5.4c-1.6,0.3-17.9,7.3-17.9,7.3l-1.2-3c0,0,4.5-3.2,8.4-6.4
						c1.4-1.1,5.5-2.1,7.2-3.7c1.5-1.4,2.9-6.2,3.3-6.3C139.5,229,145.2,235.7,145.2,235.7z"/>
				</g>
				<g>
					<path class="st71" d="M158.8,225.4c0,0,6.1,9.6,6.8,12c0.7,2.5,0.5,4.4,1.2,7.9c0.7,3.5,3.6,13.3,3.6,13.3l-2.9,1.3
						c0,0-6.8-11-7.3-13.9c-0.5-3,0.3-5.3-0.8-6.9c-1.1-1.6-8.1-7-8.1-7L158.8,225.4z"/>
				</g>
				<g>
					<path class="st48" d="M140.9,222.6c0,0-0.3,2.4-0.5,2.9c-0.2,0.6-2.9,6.5-3.2,7.7l5.5,5.1c0,0,6.2-6.1,6.5-7.6
						C149.5,229.2,140.9,222.6,140.9,222.6z"/>
				</g>
				<g>
					<path class="st48" d="M154.8,218.4c0,0,0.1,1.9,0.8,2.5c2.1,2.1,5.9,8.8,5.9,8.8l-6.2,5.7c0,0-12.1-6.2-13.7-9.8
						c-1.1-2.4-0.5-5.7,0-7.7C142,215.9,154.8,218.4,154.8,218.4z"/>
				</g>
				<g>
					<polygon class="st71" points="170.4,258.7 170.7,259.5 167.7,260.8 167.5,260 					"/>
				</g>
				<g>
					<path class="st73" d="M167.7,260.8c0,0,2.4-1.5,2.5-1.6c0.1-0.1,0.2-1.4,0.7-1.3c0.5,0,0.9,1.3,1.4,1.4c0.5,0.1,4.4,1,4.9,1.3
						c0.5,0.2,2.8-0.8,3.3-0.3c0.5,0.6,1.1,2.1-2.6,3.1c-3.7,0.9-7.5,3-8.4,2.8C168.7,266,167.9,261.9,167.7,260.8z"/>
				</g>
				<g>
					<polygon class="st71" points="121.4,248.5 120.5,248.8 119.4,245.7 120.2,245.5 					"/>
				</g>
				<g>
					<path class="st73" d="M119.4,245.7c0,0,1.3,2.5,1.4,2.6c0.1,0.1,1.3,0.3,1.3,0.8c-0.1,0.5-1.3,0.9-1.4,1.3
						c-0.1,0.5-1.3,4.3-1.6,4.8c-0.3,0.5,0.7,2.9,0.1,3.3c-0.6,0.5-2.2,1-2.9-2.7c-0.7-3.7-2.5-7.7-2.3-8.6
						C114.1,246.4,118.3,245.8,119.4,245.7z"/>
				</g>
				<g>
					<g>
						<path class="st71" d="M156.8,175.4c0,0,1.2,1.1,1.1,4.6c0,0,0.5,2.7,1,3.2c0.5,0.4-1.1,0.7-1.2,1.1c-0.1,0.4-0.3,2-1.3,3
							c-1,1.1-6.6-1.4-7-3.1c-0.4-1.6-4.6-8.4,1.2-9.2C156.5,174.2,156.8,175.4,156.8,175.4z"/>
					</g>
				</g>
				<g>
					<g>
						<path class="st74" d="M158,178.8c0,0,0-6.9-7.2-5.2c-6.9,1.6-2,9.3-0.9,11.7c0,0-0.5-4,2.8-4.4
							C156,180.5,156.6,179.7,158,178.8z"/>
					</g>
				</g>
				<g>
					<g>
						<path class="st71" d="M152.1,179.9c-0.5-0.7-1.9-0.2-1.6,0.9c0.3,1.1,1.5,2.1,1.8,1.5C152.6,181.8,152.8,180.9,152.1,179.9z"
							/>
					</g>
				</g>
				<g>
					<path class="st71" d="M149.7,188.7c0,0,8.2,9,8.4,7.1c0,0-3.7-4.8-3.9-5.2C153.9,190.3,149.7,188.7,149.7,188.7z"/>
				</g>
				<g>
					<path class="st71" d="M154.1,206.3c-0.5,0.3-1.2,0.5-1.8,0.5c0,0,0,0,0,0c-1.7-0.1-3.6-1.5-4.4-5.1c-2-8.9,2.7-8.6,2.7-8.6
						c1.8,0,2.9,0.7,5.2,7C156.9,203,155.8,205.4,154.1,206.3z"/>
				</g>
				<g>
					<path class="st75" d="M154.1,206.3L154.1,206.3c-0.5,0.3-1.2,0.5-1.8,0.5c0,0,0,0,0,0l-2.4-7.4L154.1,206.3z"/>
				</g>
				<g>
					<path class="st75" d="M154.4,187.4c-0.1,0.4-0.1,0.8-0.2,1.2c-2.3-1.1-3.3-2.8-3.3-2.8C152.1,186.7,154.4,187.4,154.4,187.4z"
						/>
				</g>
				<g>
					<path class="st75" d="M144.8,210.7c-0.1,0.3-1.2,2.7-1.2,2.7c-0.1-0.1-0.3-0.3-0.5-0.5L144.8,210.7z"/>
				</g>
				<path class="st74" d="M147.7,177.4c0,0-5.1-1.3-6,2.3c-0.9,3.7,3,7.1,5.3,5.7c2.3-1.4,3-3.1,2.9-3.7
					C149.8,181.1,147.7,177.4,147.7,177.4z"/>
			</g>
			<g>
				<g>
					<g>
						<path class="st47" d="M254.6,180.9L243,192.6c0,0-1.7,1.3-0.2,4.8c1.7,3.9,7.5,9.7,7.5,9.7s2.1-0.5,2.3-1.5
							c0.2-1-5.2-9.4-4.9-10.2c0.2-0.8,6.8-7.6,6.8-7.6S256.2,181.7,254.6,180.9z"/>
					</g>
				</g>
				<g>
					<path class="st76" d="M262.2,176.3c0,0-0.6,3.2-0.3,4.4c0.2,1.2-5.1-3.3-5.1-3.3s0.8-4,0.5-6.1
						C257,169.2,262.2,176.3,262.2,176.3z"/>
				</g>
				<g>
					<path class="st76" d="M271.3,232.8c0,0,1.9,2.9,2.1,5.6c0.1,2.7,6.7,23.5,6.7,23.5l-3.4,1.5c0,0-6.7-12.5-7.8-15.8
						c-0.9-2.7-1-4.5-2.8-7.8c-0.9-1.7-2.8-3.4-2.8-3.4L271.3,232.8z"/>
				</g>
				<g>
					<path class="st76" d="M247.7,234.6c0,0-1.7,2-3.9,3.7c-2.2,1.7-20.7,14.3-20.7,14.3l-2.4-2.8c0,0,10.7-8.1,12.3-11.2
						c1.6-3.1,5.5-4.8,6.7-6.2c1.3-1.4,1.5-2.5,1.5-2.5L247.7,234.6z"/>
				</g>
				<g>
					<path class="st77" d="M263.4,217.5c0,0,6.7,11,8.3,15.7l-7.3,4.2c0,0-6.5-6.7-8.7-9.6C253.5,224.9,257.3,209.3,263.4,217.5z"/>
				</g>
				<g>
					<path class="st77" d="M261.2,216.9c0,0-8.5,14.8-14.5,18.7c0,0-3.9-2.2-6.1-4.5c0,0,4.4-13.2,5.2-16.2
						C246.6,211.9,261.2,216.9,261.2,216.9z"/>
				</g>
				<g>
					<path class="st48" d="M256.8,177.4c0,0,5,2.7,5.3,2.8c0.3,0.1,3.9,6.8,3.2,12.2c-0.7,5.4-2.4,8.5-3.2,14.6
						c-0.4,3.5,0.8,7.7,1.3,8.9c0.2,0.6,0.5,1.4-0.1,1.4l-17.8-2.5c0,0,4.2-13.1,3.3-19.9C248.1,189.3,252.6,180.4,256.8,177.4z"/>
				</g>
				<g>
					<path class="st78" d="M280.7,263c0,0,0.9,0.4,2.3,0.7c1.6,0.3,5.1-1.3,6.3-0.5c1.3,0.8,1.2,2.4-2.2,3.5c-3.4,1-8.9,3.1-9.4,2.7
						c-0.5-0.4-1.1-3.6-1-4.9C277,263.3,280.7,263,280.7,263z"/>
				</g>
				<g>
					<polygon class="st79" points="280.1,261.8 280.7,263 276.8,264.6 276.7,263.3 					"/>
				</g>
				<g>
					<path class="st78" d="M222.3,253.4c0,0-0.1,1,0.1,2.4c0.2,1.6,3,4.3,2.6,5.8c-0.4,1.5-1.9,2-4-0.9c-2.2-2.9-6-7.3-5.8-7.9
						c0.2-0.6,3-2.3,4.3-2.6C220.8,250,222.3,253.4,222.3,253.4z"/>
				</g>
				<g>
					<polygon class="st80" points="223.2,252.4 222.3,253.4 219.5,250.3 220.6,249.7 					"/>
				</g>
				<g>
					<path class="st76" d="M276,199.2c0,0,1.2-0.5,1.7-1.2c0.5-0.8,2.2-0.8,2.9-0.4c0.7,0.4,1.7,0.1,1.9,0.7
						c0.2,0.6-0.8,1.1-0.8,1.6c0,0.5,0.3,2.8-1.6,3.1c-1.9,0.3-3.3-0.7-4.3-0.6C274.8,202.4,276,199.2,276,199.2z"/>
				</g>
				<g>
					<path class="st48" d="M254.1,188.7c0,0-1.4-5.2,1.7-5.4c3.6-0.2,3.3,4.2,3.3,4.2L254.1,188.7z"/>
				</g>
				<g>
					<path class="st47" d="M259.1,187.5l2.1,12.3c0,0,0.6,0.9,4.1,0.6c3.5-0.3,10.8-1.3,10.8-1.3s0.1,2.4,0,3.2
						c-0.1,0.4-15,3.3-17.7,1.8c-2.7-1.5-4.3-15.4-4.3-15.4L259.1,187.5z"/>
				</g>
				<g>
					<path class="st76" d="M265.3,164.5c0,0,1.6,3.2,1.6,3.9c0,0.7-0.7,0.7-0.4,1.4c0.4,0.7,1.1,2,0.7,2.5c-0.4,0.4-1.2,0.2-1.4,1.2
						c-0.2,0.9-1.3,3.8-2.4,3.8c-1.1,0-4.9-2.1-5.2-3c-0.2-0.9-1.6-5.9-2-6.9c-0.4-1,7.7-5.8,8.4-4.3
						C265.3,164.5,265.3,164.5,265.3,164.5z"/>
				</g>
				<g>
					<path class="st47" d="M265.1,164.2c0,0,1.2-0.7,0.8-2.1c-0.4-1.4-1.4-3.2-3.8-2.2c-2.4,0.9-4.2,2.8-5.8,3.2
						c-1.6,0.3-2.7,0.5-1.4,3.8c1.4,3.4,2.8,5.8,2.8,5.8s0.3-2.1,0.9-2c0.6,0.1,1.6-1.9,1.6-1.9l0.2,0.5l1.1-0.1c0,0-1.4-3.5-0.6-4
						C261.8,164.8,265,164.6,265.1,164.2z"/>
				</g>
				<g>
					<path class="st47" d="M261.7,169.3c0,0,0.7,3,1.3,3c0.6,0,2.6,0.4,3,0.7c0,0,0.3,0.3,0.2,0.7c-0.1,0.4-0.6,3.1,0.2,3.9
						c0,0-0.5,1-3.1,0c-2.6-1-3.9-2.4-3.9-2.4s1.9-4.1,1.3-5.9L261.7,169.3z"/>
				</g>
				<g>
					<path class="st76" d="M260.4,168.4c0,0-0.7-1.6-2.1-0.5c-1,0.9,0.3,3.6,1.3,3.5C260.6,171.4,260.9,169.8,260.4,168.4z"/>
				</g>
			</g>
			<g>
				<g>
					<path class="st76" d="M95.9,185.2c0,0-0.5,2.8-0.3,3.9c0.2,1.1-4.5-2.9-4.5-2.9s0.4-3.2,0.1-5.1
						C91,179.2,95.9,185.2,95.9,185.2z"/>
				</g>
				<g>
					<path class="st76" d="M100.4,176.4c0,0,1.1,2.6,0.4,2.9c-0.6,0.3,0.4,2.8,0.5,3.2c0.1,0.4-1,0.6-1.3,0.8
						c-0.3,0.2-1.2,3.3-2.2,3.3c-1,0-5.1-1.8-6.1-3.1c-1.1-1.3-1.6-6.8-0.6-9C92.1,172.4,98.4,171.9,100.4,176.4z"/>
				</g>
				<g>
					<path class="st47" d="M100.6,177c0,0,1.6-2.5-0.8-4.7c-2.3-2.2-7.2,0.9-7.7,1c-0.5,0.1-3.4,0.1-2.4,5.3c1,5.2,1.6,5.3,1.6,5.3
						s0.2-3.3,1.2-3.4c1-0.2,2.7-0.2,2.7-0.2s-0.7-2.4,0.7-2.6C97.4,177.4,99.3,176.3,100.6,177z"/>
				</g>
				<g>
					<g>
						<path class="st76" d="M89.2,189.2L79,199.5c0,0-1.5,1.1-0.2,4.2c1.5,3.4,6.6,8.5,6.6,8.5s1.9-0.5,2-1.3c0.2-0.9-4.6-8.3-4.3-9
							c0.2-0.7,6-6.7,6-6.7S90.6,189.9,89.2,189.2z"/>
					</g>
				</g>
				<g>
					<path class="st76" d="M104,234.8c0,0,1.7,2.5,1.8,4.9c0.1,2.4,5.9,20.7,5.9,20.7l-3,1.3c0,0-5.9-11-6.9-13.9
						c-0.8-2.3-0.8-4-2.5-6.9c-0.8-1.5-2.5-3-2.5-3L104,234.8z"/>
				</g>
				<g>
					<path class="st76" d="M83.1,236.5c0,0-1.5,1.8-3.4,3.2c-1.9,1.5-18.3,12.6-18.3,12.6l-2.1-2.4c0,0,9.4-7.1,10.8-9.8
						c1.4-2.7,4.8-4.2,5.9-5.5c1.1-1.2,1.3-2.2,1.3-2.2L83.1,236.5z"/>
				</g>
				<g>
					<path class="st77" d="M97,221.4c0,0,5.9,9.7,7.3,13.9l-6.4,3.7c0,0-5.7-5.9-7.7-8.5C86,225.1,91.6,214.2,97,221.4z"/>
				</g>
				<g>
					<path class="st77" d="M95,220.9c0,0-7.5,13-12.8,16.5c0,0-3.4-1.9-5.4-3.9c0,0,3.9-11.6,4.6-14.3C82.2,216.4,95,220.9,95,220.9
						z"/>
				</g>
				<g>
					<path class="st34" d="M91.1,186.2c0,0,4.4,2.4,4.6,2.5c0.3,0.1,3.4,5.9,2.8,10.7c-0.6,4.8-2.2,7.5-2.8,12.9
						c-0.4,3.1,0.7,6.8,1.1,7.9c0.2,0.5,0.5,1.3-0.1,1.2l-15.7-2.2c0,0,3.7-11.5,2.9-17.5C83.5,196.6,87.4,188.7,91.1,186.2z"/>
				</g>
				<g>
					<path class="st34" d="M112.2,261.5c0,0,0.8,0.4,2.1,0.6c1.4,0.3,4.5-1.2,5.6-0.4c1.1,0.7,1.1,2.1-1.9,3.1
						c-3,0.9-7.8,2.7-8.3,2.4c-0.5-0.3-1-3.1-0.8-4.3C108.9,261.7,112.2,261.5,112.2,261.5z"/>
				</g>
				<g>
					<polygon class="st79" points="111.7,260.4 112.2,261.5 108.8,262.8 108.7,261.8 					"/>
				</g>
				<g>
					<path class="st81" d="M60.8,253c0,0-0.1,0.9,0.1,2.2c0.2,1.4,2.6,3.8,2.3,5.1c-0.3,1.3-1.6,1.8-3.5-0.8c-1.9-2.5-5.2-6.4-5.1-7
						c0.2-0.5,2.6-2,3.8-2.3C59.5,250,60.8,253,60.8,253z"/>
				</g>
				<g>
					<polygon class="st80" points="61.6,252.2 60.8,253 58.3,250.3 59.3,249.8 					"/>
				</g>
				<g>
					<path class="st76" d="M108,205.3c0,0,1-0.4,1.5-1.1c0.5-0.7,1.9-0.7,2.5-0.4c0.6,0.4,1.5,0.1,1.7,0.6c0.2,0.5-0.7,1-0.7,1.4
						c0,0.4,0.2,2.5-1.4,2.7c-1.7,0.2-2.9-0.6-3.8-0.5C107,208.1,108,205.3,108,205.3z"/>
				</g>
				<g>
					<path class="st76" d="M94.1,178.6c0,0-0.7-1.5-1.9-0.4c-0.9,0.8,0.2,3.3,1.2,3.2C94.3,181.3,94.6,179.9,94.1,178.6z"/>
				</g>
				<g>
					<path class="st76" d="M93.2,195l1.8,10.8c0,0,0.6,0.8,3.6,0.5c3-0.3,9.5-1.2,9.5-1.2s0.1,2.2,0,2.8c-0.1,0.4-13.2,2.9-15.6,1.6
						c-2.4-1.3-3.8-13.5-3.8-13.5L93.2,195z"/>
				</g>
				<g>
					<path class="st34" d="M88.6,197.1c0,0-1-5.6,1.7-5.8c3.1-0.2,3.2,4.7,3.2,4.7L88.6,197.1z"/>
				</g>
			</g>
			<g>
				<g>
					<path class="st48" d="M309,234.7c-1.6,2.3-7,8.8-10.8,13.4l-0.2,0.2c-1.7,2-3,3.6-3.6,4.3l-0.1,0.1l-0.1,0.1
						c-0.1,0.1-0.1,0.1-0.1,0.1l-2.9-1.9c0,0,0.9-2.6,2.3-5.8c1.8-4.1,4.5-9.1,7.4-11.1c2.9-1.9,1-2.2-1.7-3.4
						c-8.8-3.7-14-5.9-14-5.9l7-10.9c0,0,14.9,10.8,16.7,13.5C310.9,230.2,311.3,231.5,309,234.7z"/>
				</g>
				<g>
					<path class="st48" d="M291.9,215c0,0-8.4,15-16.7,23c-2.4,2.3-4.8,3.7-8.2,6.6c-1.8,1.5-4.9,4.8-7.5,7.5l-0.1,0.1
						c-1.8,1.9-3.3,3.5-3.8,4c0,0,0,0,0,0l-0.1,0.1l-0.1,0.1l-2.5-2.1c0,0,1.2-2.4,2.8-5.5c2.2-4.2,5.3-9.6,7-11
						c3-2.4,6.2-3.2,7.2-5.4c1.1-2.2,4.7-14.2,4.7-14.2s0.8-5.8,5.6-8C285,208,291.9,215,291.9,215z"/>
				</g>
				<g>
					<path class="st71" d="M292.4,191c0,0-10.8,5.9-11,7.2c-0.3,1.9,3.8,7.5,3.8,7.5l-3.1,2.6c0,0-8.9-10.5-5.2-12.9
						c4.4-3,13.1-9.5,13.1-9.5L292.4,191z"/>
				</g>
				<g>
					<path class="st71" d="M297.7,179.1c-0.3,0.4-0.4,0.9-0.6,1.4c-0.1,0.3-0.1,0.6-0.2,0.9c-0.2,1.4-0.3,2.6-0.3,2.6s-6-1.6-5-2.9
						c1.1-1.4,0.6-5.7,0.6-5.7S298.5,177.8,297.7,179.1z"/>
				</g>
				<g>
					<path class="st71" d="M301.6,167.6c0,0,1.5,1.4,0.7,5.3c0,0,0.2,3.1,0.7,3.7c0.5,0.6-1.3,0.7-1.5,1.1c-0.2,0.4-0.6,2.2-1.9,3.2
						c-1.3,1.1-7.2-2.5-7.4-4.4c-0.2-1.9-4.1-10.1,2.5-10.2C301.3,166.2,301.6,167.6,301.6,167.6z"/>
				</g>
				<g>
					<path class="st34" d="M297.2,205c-0.3,0.3-0.5,0.7-0.7,1.2c-1.3,2.5-2.3,6.8-2.7,8.3c-0.1,0.4-0.1,0.5-0.1,0.5
						c-7.3,0.4-13.4-4.9-13.4-4.9c0.1-0.2,0.3-0.4,0.4-0.6c2-3.3,3.5-5.3,4.3-7.8h0c0.5-1.4,0.7-3,0.7-5c0.1-5.9,1.6-9.2,3.1-11.9
						c1.5-2.6,2.9-4.2,2.9-4.2l5.4,3.3c0.6,1.7,2,3.2,4,7.3C303.1,195.5,303.2,197.7,297.2,205z"/>
				</g>
				<g>
					<polygon class="st82" points="294.3,252.9 293.8,253.9 290.6,252.1 291.3,251.1 					"/>
				</g>
				<g>
					<path class="st83" d="M290.6,252.1c0,0,3.1,1.2,3.2,1.2c0.1,0,0.3-0.2,0.5,0.2c0.2,0.4,0,1.1,0.2,1.5c0.2,0.4,1.9,2.6,2.6,4.1
						c0.3,0.5,1.5,2.5,1.4,3.3c-0.2,0.8-0.9,1.5-3.8-0.9c-2.9-2.5-6.6-4.5-7-5.4C287.3,255.2,289.7,252.8,290.6,252.1z"/>
				</g>
				<g>
					<polygon class="st82" points="254.7,257.3 255.4,256.4 252.9,254.3 251.9,255.2 					"/>
				</g>
				<g>
					<path class="st74" d="M302.4,171.4c0,0,1.1-8.1-6.8-6.9c-7.9,1.1-4.3,10.1-3.4,13c0,0,0.2-4.5,4-4.5
						C300,173.1,300.8,172.3,302.4,171.4z"/>
				</g>
				<g>
					<path class="st74" d="M291.3,173.5c0,0,2.1,3.3,0.5,8.4c-1.6,5-7.6,3.6-10.4,1.6c2.6-2.9,4.1-6.3,4.8-8.5
						c0.2-0.6,0.4-1.2,0.6-2c0,0,0,0,0,0c0-0.1,0-0.1,0-0.2c0,0,0,0,0,0c0,0,0,0,0,0c2.1-9.8,11.2-8.4,11.2-8.4L291.3,173.5z"/>
				</g>
				<g>
					<path class="st71" d="M295.6,171.9c-0.4-0.8-2.1-0.5-1.9,0.8c0.1,1.3,1.4,2.6,1.8,2C296,174.1,296.3,173.2,295.6,171.9z"/>
				</g>
				<g>
					<path class="st76" d="M295.8,188.5c0,0-1.1-3.6-4.3-2.4c-3.1,1.1-1.7,4.7-1.7,4.7L295.8,188.5z"/>
				</g>
				<g>
					<path class="st83" d="M251.9,255.2c0,0,2.4,1.7,3.1,1.7c0.7,0,1,0.3,0.9,1.3c0,1,1.1,5.1,1.9,5.2c0.7,0,3.2,0,3.7,1.6
						c0.5,1.6-7.7,1.6-8.3,0.3s-4.3-7.6-3.9-8.1C249.7,256.6,250.7,255.4,251.9,255.2z"/>
				</g>
				<g>
					<path class="st71" d="M295.8,188.5c0,0,4.1,13.5,5.4,13.8c1.7,0.4,10.4-2.3,10.4-2.3l0.7,2.9c0,0-13.1,6.9-15.2,3.3
						c-2.5-4.3-7.2-15.4-7.2-15.4L295.8,188.5z"/>
				</g>
				<g>
					<path class="st84" d="M293.8,214.5c-0.1,0.4-0.1,0.5-0.1,0.5c-7.3,0.4-13.4-4.9-13.4-4.9c0.1-0.2,0.3-0.4,0.4-0.6
						C280.6,209.5,285.7,213.9,293.8,214.5z"/>
				</g>
				<g>
					<path class="st71" d="M298.2,248.1l-0.2,0.2l-3.6,4.3l-0.1,0.1l-0.1,0.1l-3-1.7c0,0,0.9-2.6,2.3-5.8L298.2,248.1z"/>
				</g>
				<g>
					<path class="st71" d="M259.4,252.1l-0.1,0.1l-3.8,4l0,0l-0.1,0.1l-0.1,0.1l-2.5-2.1c0,0,1.2-2.4,2.8-5.5L259.4,252.1z"/>
				</g>
				<path class="st75" d="M313.7,197.1c0,0,0.9-0.8,1.2-1.1c0.3-0.3,0.5,0.4,0.3,0.8C314.9,197.1,313.7,197.1,313.7,197.1z"/>
				<path class="st71" d="M317.7,200.3c0,0-0.3,0.4-0.6,0.5c0,0-0.5,0.2-0.8,0.4c-0.1,0.1-0.2,0.1-0.2,0.1c-0.2,0.1-0.7,0.5-1.3,0.8
					c-0.6,0.2-2.9,0.9-2.9,0.9l-0.6-1.6l-0.5-1.2c0,0,2.2-2.8,2.8-3c0.1,0,0.1-0.1,0.2-0.1c0.5-0.2,0.9-0.2,1.2-0.2
					c0.1,0,1.1-0.2,1.3-0.1c0.3,0.2,0.4,0.5,0.3,0.7c0,0,0.5,0.5,0.6,0.9c0,0,0.5,0.4,0.4,1C317.4,199.4,317.9,199.9,317.7,200.3z"
					/>
				<path class="st84" d="M296.9,190.8c0,0-1.1-6.7-5.6-5.3c-4.6,1.4-0.9,7.7-0.9,7.7L296.9,190.8z"/>
				<path class="st75" d="M297.1,180.6c-0.1,0.3-0.1,0.6-0.2,0.9c-1.6-0.6-3.3-3-3.4-3.2C294.5,179.4,297.1,180.6,297.1,180.6z"/>
			</g>
			<g>
				<g>
					<path class="st85" d="M321,231.8c0,0-8,10.9-10.8,11.3c-5.8,0.8-18.9,0.3-18.9,0.3L291,240c0,0,7.4-0.3,10.9-1.6
						c4.2-1.5,6.3,0.1,6.9-3.5c0.4-2.3,2.4-6.7,2.4-6.7L321,231.8z"/>
				</g>
				<g>
					<path class="st86" d="M325.6,225.3c0,0-1,3-3.7,6.8c0,0-7.9-2.3-11.4-4.2c0,0,1.7-9,3.8-11.5
						C315.3,215.3,325.6,225.3,325.6,225.3z"/>
				</g>
				<g>
					<path class="st71" d="M333.1,191.1l-5.1,11.3c0,0-1,1.3,2.1,2.9c3.2,1.7,9.6,5.7,9.6,5.7s-0.9,2.1-1.9,1.8
						c-1.3-0.4-11.8-4.4-15.3-6.4c-2.8-1.6,4.4-16.9,4.4-16.9L333.1,191.1z"/>
				</g>
				<g>
					<path class="st85" d="M334.6,223.2c0,0,8.1,8.7,8.3,11.5c0.1,2.8,6.3,22.5,6.3,22.5l-2.9,1c0,0-8.5-14.1-8.6-17.7
						c-0.1-4.3-1.5-4.2-4.7-6.1c-2-1.2-6.2-3.9-6.2-3.9L334.6,223.2z"/>
				</g>
				<g>
					<path class="st87" d="M328.9,216.6c0,0,4,2.3,6.1,6.1c0,0-5.2,6.1-8.6,8c0,0-12.5-8.7-13.4-11.8
						C312.5,217.5,328.9,216.6,328.9,216.6z"/>
				</g>
				<g>
					<path class="st34" d="M328.4,186.2c0,0,1.4-0.5,5.7,3.6c0.2,0.2,1.2,4,1.5,8.5c0.4,5.6-1.5,6.7-3.2,11c-1.2,3-2.7,5.7-3.1,6.9
						c-0.2,0.5-3.3,0.8-3.7,0.9c-0.1,0-3,0.3-3.1,0.3l-10.2,1.6c0,0,10.8-13,10-20C321.5,193.4,324.5,188.4,328.4,186.2z"/>
				</g>
				<g>
					<path class="st71" d="M339.2,175c0,0,0.7,2.3,0.7,3c0,0.7-0.3,0.7-0.5,1.5c-0.2,1,0.9,2.6,0.5,3.1c-0.4,0.4-1.1,0.4-1.7,1.1
						c-0.7,0.8-1,2.7-2.1,2.7c-1.1,0-5.2-2.1-5.4-3c-0.2-0.9-0.7-5.9-1.2-6.9c-0.5-1,5-4.3,6.7-3.9C337.3,172.7,339.2,175,339.2,175
						z"/>
				</g>
				<path class="st71" d="M335.7,209.3c0,0,1.2,0.8,1.6,0.7c0.4-0.1,1.2-0.2,1.5-0.3c0.4-0.1,1.4-0.5,1.8-0.4c0.2,0,1.1,0.6,1.4,0.6
					c0.3,0,1,0,1,0.3c0,0.3-0.7,0.4-0.7,0.4s0.3,0,0.4,0.3c0.1,0.5-0.2,0.6-0.2,0.6s0.3,0.2,0.3,0.4c0,0.4-0.3,0.6-0.3,0.6
					s0.2,0.3,0,0.5c-0.4,0.5-0.6,0.4-0.6,0.4s0,0.5-0.3,0.6c-0.3,0.1-0.6,0-0.8,0c-0.3,0-2.5-0.6-3.8-1.5c-1.3-0.9-2.8-1.2-2.8-1.2
					L335.7,209.3z"/>
				<path class="st71" d="M328.5,195c0,0,2.8-1.3,0.6-5.1c-1.8-3.1-6.5,2.2-15.4,9.8c0,0-2.5,2.1-0.7,4.9
					c1.8,2.8,10.7,11.2,11.2,12.1l1.3-2.8c0,0-3.3-4.8-4.6-7.2c-1.3-2.4-3.3-4-3.3-4L328.5,195z"/>
				<polygon class="st87" points="291,240 289.7,240 290,243.3 291.2,243.3 				"/>
				<path class="st71" d="M335.6,185.9c0,0-1.5,2.4-1.5,3.9c0,1.6,1.1,4.2,0.2,3.8c-0.9-0.4-1.7-5.4-5.9-7.4c0,0,3.2-2,2.4-5.1
					L335.6,185.9z"/>
				<path class="st88" d="M289.7,240c0,0,0.2,1.7,0.2,2.5c0.1,0.7,0.6,1,0.2,1.1c-1,0.3-2.6,1.1-3,1.7c-0.4,0.7-2,5.2-3.1,5
					c-1.1-0.2-0.6-2.5,0.1-5.7c0.8-3.1-0.1-3.2,1-5.1C285.6,239,289.7,240,289.7,240z"/>
				<path class="st34" d="M320,193.1l3.8,5.6c0,0,8.8-3.6,5.3-9.2C327.2,186.4,320.3,193,320,193.1z"/>
				<path class="st89" d="M339.6,176.4c0,0,0.2-5.3-6.3-4.5c-4.4,0.6-5.8,2.7-3.8,7.8C331.6,184.9,329,176.1,339.6,176.4z"/>
				<g>
					<path class="st71" d="M333.2,178c0,0-0.7-1.7-2.2-0.5c-1,0.9,0.3,3.7,1.3,3.6C333.4,181.1,333.7,179.5,333.2,178z"/>
				</g>
				<g>
					<path class="st90" d="M347.7,258.5c-5.4-9.6-6.9-17.7-7.7-21.5c-0.1-0.3-0.1-0.6-0.2-0.9c-0.7-3.5-8.9-8.9-9-9l0.3-0.3
						c0.4,0.3,8.3,5.6,9,9.2c0.1,0.3,0.1,0.6,0.2,0.9c0.7,3.8,2.3,11.9,7.6,21.4L347.7,258.5z"/>
				</g>
				<polygon class="st87" points="346.2,258.2 346.8,259.5 349.6,258 349.1,257 				"/>
				<path class="st88" d="M346.6,259.1c0,0,1.6-0.7,2.2-1.1c0.7-0.3,0.8-1,1-0.5c0.8,1.3,2.2,1.9,2.9,2c0.8,0.1,5.1-0.3,5.2,0.8
					c0.2,1.1-2,2-5.3,2.3c-3.2,0.3-2.9,1.2-5.1,0.8C346.9,263.2,346.6,259.1,346.6,259.1z"/>
				<g>
					<g>
						<path class="st71" d="M325.2,213.9c0,0,1,0.5,1.8,0.3c0.8-0.1,1.8,0.9,2,1.6c0.1,0.7,0.9,1.1,0.7,1.6
							c-0.2,0.5-1.2,0.2-1.4,0.5c-0.3,0.3-1.6,1.8-2.9,0.8c-1.3-1-1.5-2.5-2.2-3C322.5,215.1,325.2,213.9,325.2,213.9z"/>
					</g>
				</g>
			</g>
			<g>
				<g>
					<path class="st89" d="M221.6,165.4c0,0-3.5-3.6-6.9-0.4c-3.4,3.2,0,11.2-2.8,12.9c-2.8,1.7-12.1-1.3-12.1,5
						c0,0,2.3-3.9,6.6-2.2c4.2,1.6,10.1,1.1,10.2-4.9c0.2-6,2.9-4,3.5-5.6C220.6,168.4,221.6,165.4,221.6,165.4z"/>
				</g>
				<g>
					<path class="st34" d="M221.2,165.3c0,0-1.7,1.1-1.6,4.8C219.6,170.1,217.8,166.4,221.2,165.3z"/>
				</g>
				<path class="st76" d="M240.4,204.2c0,0,3.5,0.4,4,0.1c0.5-0.4,2.2-1,2.5-1.4c0.3-0.4,1.6-0.9,1.8-1c0.2-0.2,1.3-1.1,1.2-0.7
					c-0.1,1-0.5,1.2-1.6,2c0,0-0.5,0.6,0.1,0.6c0.7,0,1.1-0.1,1.6-0.2c0.5-0.1,2.4-0.4,2.7-0.2c0.1,0.1,0.3,0.4,0.1,0.6
					c0,0,0.4,0.2,0.3,0.5c0,0.3-0.5,0.6-0.5,0.6s0.3,0.4-0.1,0.8c-0.5,0.4-2.6,0.7-2.8,0.7c-0.2,0-1.4,0.1-1.5,0.2
					c0,0.2,1.3,0.3,1.3,0.3s1.5,0.3,1.5,0.5c0,0.2-0.5,0.4-1.4,0.4c-0.9,0-2-0.2-2.1-0.1c-0.2,0.1-0.8,0.1-1.4,0.1
					c-0.5,0-2.6-0.2-3-0.2c-0.3,0-2.8-0.3-2.8-0.3L240.4,204.2z"/>
				<g>
					<polygon class="st76" points="193.5,254.9 192.6,255.5 190.5,252.5 191.3,251.9 					"/>
				</g>
				<g>
					<path class="st48" d="M190.5,252.4c0,0,1.5,2,1.9,2.5c0.4,0.5,1.3,0.4,1.2,1c-0.1,0.6-1.6,3.4-1.3,4.7c0.3,1.3,1.6,4.9-0.2,6
						c-1.7,1.1-6.6-10.1-7.5-11C183.6,254.7,190.5,252.4,190.5,252.4z"/>
				</g>
				<g>
					<polygon class="st76" points="242.3,262.3 242.5,263.3 238.9,263.8 238.7,262.8 					"/>
				</g>
				<g>
					<path class="st91" d="M220.2,236.1c0,0-5.2,6.9-6.9,8c-1.6,1-19.6,11.4-19.6,11.4l-3.9-4.5c0,0,5.7-4,9.9-8
						c1.6-1.5,3.8-2.9,5.3-5.1c1.3-2,1.3-1.9,2.5-4.6C207.7,232.9,220.2,236.1,220.2,236.1z"/>
				</g>
				<g>
					<path class="st91" d="M213.4,214.6c0,0-2.4,8.8-3.2,11.8c-1.1,3.9-1.7,4.8-2.7,6.9l11.3,4.3c0,0,5.4-5.7,5.3-7.5
						C224,228.3,213.4,214.6,213.4,214.6z"/>
				</g>
				<g>
					<path class="st76" d="M224.6,192.9c0,0-10.4,8-10,9.2c0.5,1.7,7.1,8.4,7.1,8.4l-2.7,2c0,0-13.6-9-10.9-13
						c2.7-4,11.6-12.1,11.6-12.1L224.6,192.9z"/>
				</g>
				<path class="st91" d="M243.5,246.3c0-4.1,0-7.5-0.9-10.3c-1-2.8-7.7-13-7.7-13s-2.2-3.7-3.6-5.4c-0.7-0.8-0.3-2.3-0.3-2.3
					s-17.2-3.3-17.6-1c-0.5,2.3-0.6,6.3,0.8,9c2,4,11.6,8.9,11.6,8.9s7.1,5.6,8.5,7.4c1.4,1.8,1.8,3.1,2.5,6.5
					c0.7,3.4,0.8,16.9,0.8,16.9l7.4-1.3C244.9,261.8,243.5,252,243.5,246.3z"/>
				<g>
					<path class="st76" d="M222.3,176c0,0,0.4,4.2-0.6,5.5c-1,1.3,6.1,3.2,6.1,3.2s-0.9-3.6,0.1-5.1
						C228.7,178.3,222.3,176,222.3,176z"/>
				</g>
				<g>
					<path class="st76" d="M230.9,166.3c0,0,1.3,1.7,0.8,5.7c0,0,1,2.8,1.5,3.3c0.5,0.5-1.2,0.8-1.4,1.3c-0.2,0.4-0.4,2.3-1.6,3.5
						c-1.2,1.2-7.6-1.8-8-3.6c-0.4-1.9-5.7-10.6,1-11.4C230,164.1,230.9,166.3,230.9,166.3z"/>
				</g>
				<g>
					<path class="st34" d="M221.4,181.4c0,0-1.1,2.3-2.5,4.7c-1.4,2.4-2.8,5.4-2.8,10.8c-0.1,5.4,0.1,12.2-3,17.4
						c0,0,11.5,3,18.1,2.6c0,0,2.1-6.2,1.7-9.1c-1-8.8,1.9-7.1,0.6-11.3c-1.3-4.2-4.7-10.1-5.2-11.6L221.4,181.4z"/>
				</g>
				<g>
					<path class="st76" d="M243.6,204.4l0,1.6l0,0.4l0,1.4c0,0-15.6,3.6-18-0.6c-2.4-4.2-6.3-15.5-6.3-15.5l3.4-1l0.4-0.1l3.3-0.9
						c0,0,3.1,13.2,4.4,13.4C232.7,203.2,243.6,204.4,243.6,204.4z"/>
				</g>
				<g>
					<path class="st34" d="M228.4,185c0,0,0-1.8,0.3-2.3l-7.2-3.3l-0.1,2C221.3,181.5,225.8,184.3,228.4,185z"/>
				</g>
				<g>
					<path class="st76" d="M227.3,192.3l-3.1,0.9l-0.4,0.1l-3.3,1c-2.9-5.4,0.4-7.2,1.3-7.5c0.1,0,0.1-0.1,0.2-0.1l0,0l0,0
						c0.1,0,0.1,0,0.2,0C226.9,185.9,227.3,192.3,227.3,192.3z"/>
				</g>
				<g>
					<path class="st48" d="M238.7,263.8c0,0,2.5-0.4,3.1-0.5c0.6-0.2,1-1,1.5-0.6c0.5,0.4,2.3,3,3.5,3.3c1.3,0.4,5.1,0.9,5.2,2.9
						c0.2,2.1-12,1.2-13.2,1.6C237.6,270.9,238.7,263.8,238.7,263.8z"/>
				</g>
				<g>
					<path class="st89" d="M231.5,167.8c0,0-0.5,1.8-7,3.5c0,0-1.8,2.8-3,3.2c0,0-4.6-5.9-0.8-9.2
						C224.6,161.9,230.7,162.8,231.5,167.8z"/>
				</g>
				<g>
					<path class="st76" d="M224.5,171.3c-0.4-0.8-2-0.4-1.9,0.8c0.1,1.2,1.3,2.5,1.8,1.9C224.9,173.4,225.2,172.5,224.5,171.3z"/>
				</g>
			</g>
			<g>
				<g>
					<path class="st85" d="M164.7,233.7c0,0-12.6,8.4-15.7,7.7c-6.4-1.4-21.6,0.4-21.6,0.4l-1.1-3.5c0,0,10.7-2.6,14.6-3.5
						c4.8-1.1,7.9,1.1,9.9-2.5c1.3-2.3,5.1-6.1,5.1-6.1L164.7,233.7z"/>
				</g>
				<g>
					<path class="st92" d="M172.1,228.7c0,0-2.2,2.7-6.5,5.8c0,0-7.5-5.5-10.4-8.8c0,0,6.1-10.6,9.3-12.3
						C166.1,212.5,172.1,228.7,172.1,228.7z"/>
				</g>
				<g>
					<path class="st76" d="M177.5,189.8l5.1,12.9c0,0,0.3,1.8,4,0.6c3.8-1.2,12.1-3.2,12.1-3.2s0.9,2.4,0,2.9
						c-1.3,0.8-12.7,6-17.1,7.2c-3.5,0.9-10.1-16.8-10.1-16.8L177.5,189.8z"/>
				</g>
				<g>
					<path class="st85" d="M183.3,224.4c0,0,9.1,9.7,9.3,12.9c0.2,3.2,10.9,22.8,10.9,22.8l-2.9,2.2c0,0-13.7-14.4-13.8-18.4
						c-0.1-4.9-1.7-4.7-5.2-6.9c-2.2-1.3-7-4.4-7-4.4L183.3,224.4z"/>
				</g>
				<g>
					<path class="st92" d="M176.9,217c0,0,4.5,2.5,6.9,6.8c0,0-5.8,6.8-9.7,9c0,0-14-9.7-15-13.2C158.6,217.9,176.9,217,176.9,217z"
						/>
				</g>
				<g>
					<path class="st24" d="M176.5,182.9c0,0,1.6-0.5,6.4,4c0.3,0.3,1.3,4.5,1.7,9.6c0.4,6.2-1.7,7.5-3.6,12.4
						c-1.4,3.4-3,6.4-3.5,7.8c-0.2,0.6-3.7,0.9-4.2,1c-0.1,0-3.4,0.3-3.5,0.3l-11.4,1.8c0,0,12.1-14.6,11.2-22.4
						C168.7,190.9,172,185.3,176.5,182.9z"/>
				</g>
				<g>
					<path class="st76" d="M189.7,168.2c0,0,0.8,3.8,0.8,4.6c0,0.8-0.7,0.9-0.6,1.8c0.1,1,0.8,3.4,0.3,3.9c-0.5,0.5-1,0.2-1.7,1.1
						c-0.8,1-1.2,3.2-2.5,3.2c-1.4,0-6.1-2.5-6.4-3.6c-0.3-1.1-0.9-7-1.4-8.2c-0.5-1.2,9.5-6.5,10.3-4.7
						C189.2,168.2,189.7,168.2,189.7,168.2z"/>
				</g>
				<path class="st76" d="M194.6,201.5c0,0,1.6-0.3,1.8-0.7c0.2-0.4,0.7-1.2,1-1.5c0.3-0.4,0.7-1.5,1-1.8c0.2-0.1,1.3-0.5,1.6-0.7
					c0.3-0.3,0.8-0.9,1-0.6c0.2,0.2-0.2,0.9-0.2,0.9s0.3-0.2,0.5-0.1c0.4,0.3,0.4,0.6,0.4,0.6s0.4-0.1,0.6,0.1
					c0.3,0.4,0.3,0.7,0.3,0.7s0.4,0.1,0.4,0.4c0.1,0.7-0.1,0.8-0.1,0.8s0.4,0.4,0.2,0.7c-0.2,0.3-0.4,0.5-0.6,0.7
					c-0.2,0.2-2.4,1.5-4.3,1.9c-1.8,0.3-3.2,1.3-3.2,1.3L194.6,201.5z"/>
				<path class="st76" d="M161.2,207.1c0,0,0.7,2.7,1.3,3c0.6,0.4,2,1.9,2.2,2.2c0.2,0.3,2.6,2.8,1.7,3c-0.6,0.2-1.3-1.3-1.6-1.3
					c-0.3-0.1-0.7-0.2-0.8,0.1c0,0.3,0.7,1.8,0.7,2.3c0.1,0.5,0.4,2.2,0.2,2.4c-0.2,0.2-0.6,0.3-0.8-1.2c-0.2-1.4-0.8-2.3-0.8-2.3
					s0,1.6,0.1,2.1c0.1,0.6,0.1,2.1-0.1,2.3c-0.2,0.2-0.5-0.2-0.5-0.2s-0.3,0.7-0.7,0.3c-0.3-0.4-0.6-2.1-0.7-2.4
					c-0.1-0.3-0.6-1.9-0.7-1.9c-0.1,0-0.4-0.1-0.4,0.2c0,0.2,0.3,2.9,0.2,3.1c-0.1,0.1-0.5,0.3-0.6-0.2c-0.1-0.5-0.5-3-0.6-3.2
					c-0.1-0.3-0.6-1.8-0.6-3.6c0-1.8-0.3-2.6-0.3-2.6L161.2,207.1z"/>
				<path class="st76" d="M174.1,192.4c0,0,4.3-0.3,3-4.9c-1.7-6-7.6-0.9-20.3,2.5c0,0-3.6,0.9-3,4.7c0.5,3.7,5.4,16.4,5.5,17.6
					l2.7-2.3c0,0-1.1-6.4-1.3-9.5c-0.2-3.1-1.4-5.7-1.4-5.7L174.1,192.4z"/>
				<polygon class="st85" points="200.6,262.2 201.4,263.3 204.2,261.1 203.5,260 				"/>
				<path class="st83" d="M201.3,263.2c0,0,1.6-1.2,2.2-1.7c0.6-0.5,0.6-1.2,1-0.8c0.4,0.4,2.3,1.3,3.2,1.3c0.9,0,6.4-0.6,6.8,0.5
					c0.4,1.2-1.9,2.3-5.4,3.4c-3.4,1.1-3.3,2-5.8,2.1C202.5,267.9,201.3,263.2,201.3,263.2z"/>
				<polygon class="st85" points="126.3,238.3 124.9,238.7 126.1,242.1 127.5,241.8 				"/>
				<path class="st89" d="M185.9,171.9c0,0,3.5,1.3,4.5,0.9c1.1-0.4-0.3-2-0.3-2S189.1,170.7,185.9,171.9z"/>
				<path class="st34" d="M178.3,174.7c0,0-7.1,3.3-7.5,3.1c-0.4-0.2,0-1.3,0-1.3l6.8-3.1L178.3,174.7z"/>
				<polygon class="st89" points="180.1,175.6 179.1,177.1 178.3,174.7 179.8,173.6 				"/>
				<polygon class="st89" points="183.7,172.6 184.5,175 182.3,174.9 182,172.6 				"/>
				<path class="st76" d="M184.5,182.5c0,0-1.7,2.7-1.7,4.4c0,1.7,1.8,7.2,0.9,6.7c-1-0.5-2.5-8.5-7.2-10.8c0,0,3.5-2.2,2.7-5.8
					L184.5,182.5z"/>
				<path class="st34" d="M190.2,170.9c0,0-7.2,1.5-11.9,3.8c0,0-2.4-3.7-0.4-6.5c2-2.8,5.6-3.8,8-3.2
					C188.3,165.6,190.1,167.6,190.2,170.9z"/>
				<g>
					<path class="st76" d="M182.5,172.9c0,0-0.9-2-2.6-0.5c-1.2,1,0.3,4.4,1.6,4.3C182.8,176.5,183.2,174.7,182.5,172.9z"/>
				</g>
				<path class="st34" d="M195.9,200.7c0,0,1.3,1.6,1.5,2.9c0,0-0.4,0.4-1.1,0.5l-1.6-3.1C194.7,201,195.2,200.6,195.9,200.7z"/>
				<path class="st83" d="M124.9,238.7c0,0,0.7,1.8,1,2.6c0.3,0.8,1,0.9,0.5,1.2c-0.5,0.3-2,1.8-2.2,2.6c-0.2,0.8-1.3,6.3-2.5,6.3
					c-1.2,0.1-1.6-2.5-1.6-6.1c0-3.6-1-3.7-0.3-6.1C120,238.5,124.9,238.7,124.9,238.7z"/>
				<path class="st85" d="M164.7,187.5c0,0,1.5,4.4,1.5,6.2c0,0,2.7-0.4,3.4-0.6c0,0-0.7-4.4-1.5-6.8
					C168,186.3,165.6,187.2,164.7,187.5z"/>
			</g>
			<g>
				<g>
					<path class="st76" d="M343.3,200.5c0,0-2.2,0.7-2.5,0.8c-0.2,0.2-0.8,1.4-0.8,1.9c0,0.4-0.4,2.5-0.6,2.5
						c-0.2,0-0.7-1.3-0.6-1.9c0.1-0.6,0-0.9-0.2-0.9c-0.2,0-0.9-0.2-1.1,0c-1.4,0.9-3.4,2.6-3.7,2.7c-0.3,0-0.5-0.4,0.6-1.4
						c1.1-0.9,2.1-1.7,1.9-1.6c-0.2,0-2.4,1.3-2.4,1.3c-0.1,0-1.9,1-2.2,0.7c-0.3-0.3-0.1-0.7-0.1-0.7s-0.3-0.2-0.3-0.5
						c0-0.3,0.6-0.8,1.1-1.1c0,0-0.5-0.1-0.3-0.5c0.1-0.4,2.6-2.2,2.8-2.4c0.2-0.2,2.6-1.4,4-1.4c1.4,0,3.8-0.5,3.8-0.5L343.3,200.5
						z"/>
				</g>
				<path class="st76" d="M354.1,237.8c0,0-2.7,1.4-3.4,2.3c-0.7,0.9-7.7,5.9-10.6,8.1c-3,2.1-13.4,10.5-13.4,10.5l-2-2.7
					c0,0,12.1-13.3,13.6-16.3c1.5-3,8.7-8.4,8.7-8.4L354.1,237.8z"/>
				<path class="st88" d="M324.7,256c0,0,2.1,2.1,2.5,2.3c0.4,0.1-0.1,0.9-0.4,1.8c-0.4,0.9-0.5,6.1-0.3,6.4c0.2,0.3,4.4,2.1,4,2.8
					c-0.4,0.7-4.6,1.4-6.8,0.6c-2.2-0.8-3.1-8.7-3.5-9.6C319.8,259.2,321.3,255,324.7,256z"/>
				<path class="st76" d="M386.6,180.9c0,0-1.1,2.9-3.5,3.5l5.5,4.5c0,0-0.2-2.6,1.7-3.6C392,184.3,386.6,180.9,386.6,180.9z"/>
				<path class="st76" d="M389.6,227.8c0,0,7.6,5.8,8.2,6.9c1.3,2.3-1.4,5.5-2.8,7.2c-1.4,1.7-11.6,8.9-16.9,15.8
					c0,0-3.3-0.7-3.6-2.1c0,0,7.9-12.8,9.7-14.6c1.8-1.8,3.2-4.4,2.3-4.7s-6.3-0.8-9.4-1.6C374.1,234.2,389.6,227.8,389.6,227.8z"/>
				<path class="st93" d="M375.2,218.7c0,0-0.4,1,1,1.9c1.3,1,12.3,6,13.4,7.2c0.3,0.4-11,7.9-11,7.9s-12.3-2.4-14.1-6.4
					C362.7,225.3,375.2,218.7,375.2,218.7z"/>
				<path class="st88" d="M380.1,185.7c0,0-10.7,2.4-16.6,3c-5.9,0.6-22.3,9.1-22.3,9.1l1,3c0,0,14.5-4.3,16.2-4.9
					c1.7-0.6,12.1-1,13.6-2C373.6,193,380.1,185.7,380.1,185.7z"/>
				<path class="st76" d="M405.5,194.5c0,0,1-3.1,1.4-3.6c0.4-0.6,1.9-2,2.4-2.8s0.4-1.4,1-2.4c0.6-0.9,0.9-1.2,1.3-2
					c0.4-0.8,0.7-1.7,0.2-1.5c-0.5,0.1-1,1.2-1.4,1.8c-0.5,0.5-1,1.5-0.9,1c0-0.5,0.6-2,0.8-2.5c0.2-0.5,0.4-1.4,0.4-1.8
					c0-0.3-0.7-0.5-0.7-0.5s0.2-0.7-0.2-0.9c-0.4-0.2-0.7-0.1-0.8,0.1c0,0-0.7-0.7-1-0.2c-0.3,0.5-1.5,3.6-1.7,3.9
					c-0.2,0.3-1.2,1.4-1.4,1c-0.2-0.4-0.8-2.1-1.8-2.3c-1-0.2-0.5,0.4,0.1,1.3c0.6,1,0.9,3.6,1.1,4c0.2,0.4,0.2,1.2,0.2,1.8
					c-0.1,0.7-2.3,4.6-2.3,4.6L405.5,194.5z"/>
				<g>
					<path class="st94" d="M389.6,200.4c-0.5,2.2-1.3,3.4-2.2,4.3c-0.5,0.5-1,0.9-1.6,1.4c-1.1,0.9-2.5,2-4.1,3.9
						c-2.5,3.1-5.6,7.4-6.5,8.6c-0.4,0.5-3.9-0.8-4.4-0.9c-0.1,0-3.5-0.7-3.5-0.7l-9.7-2.1c0,0,11.2-10.5,13.3-18.3
						c1.4-5.3,7.4-10.9,12.1-12.2c0,0,5-0.3,7,9.1C390.2,193.9,390.9,195.3,389.6,200.4z"/>
				</g>
				<path class="st93" d="M357.6,215c0,0-3,2.7-4.6,6.1c-1.6,3.5-7.2,9.5-7.2,9.5l8.8,8c0,0,12-8.6,15.2-13.2
					c3.2-4.6,5.5-6.7,5.5-6.7L357.6,215z"/>
				<path class="st88" d="M385.6,188.1l9.9,17c0,0,8.5-14.8,8.8-15.7c0.3-0.9,2.9,1.1,2.9,1.1s-7.2,20.1-9.2,21.7
					c-2,1.5-3.7,0.2-4.6-0.5c-0.9-0.7-13.4-17.2-13.4-17.2S379.7,183.6,385.6,188.1z"/>
				<path class="st88" d="M374.5,255.8c0,0,2,1.2,2.5,1.2c0.6,0,1.6,0.4,1.8,0.8c0.2,0.3,0.2,3.1,1.1,3.7c0.8,0.6,6.2,3.3,5.1,4.4
					c-1.1,1.1-3.8,0.6-8.3-1.2c-4.4-1.8-7.4-3.8-7.5-4.2c-0.1-0.4,3-3.4,3.4-4C373.2,255.9,374.3,255.6,374.5,255.8z"/>
				<path class="st95" d="M387.6,204.6c-0.5,0.5-1.2,1.1-1.8,1.5c-1.1-1.3-3.9-8.9-4-9.1L387.6,204.6z"/>
				<polygon class="st94" points="382.7,184.5 384.9,183.4 388.8,187.6 389,190 				"/>
				<g>
					<path class="st76" d="M399,174.5c0,0,0.2,2.9,0,3.7c-0.3,0.8-1.1,0.5-1,1.5c0.2,1,0.6,3.1-0.1,3.5c-0.6,0.4-1.4-0.2-2,0.8
						c-0.6,1-3.1,2.9-4.5,2.4c-1.3-0.4-5.2-3.6-5.1-4.8c0.1-1.2,0.4-7.8,0.3-9.1c-0.2-1.3,10.2-1.4,11.6,0.1
						C398.9,173.6,399,174.5,399,174.5z"/>
				</g>
				<path class="st76" d="M399,174.9c0,0,0.9-5.9-7.3-6.7c-8.1-0.9-5.3,10.6-5.3,10.6L399,174.9z"/>
				<g>
					<path class="st76" d="M391.2,175.6c0,0-0.2-2.2-2.4-1.4c-1.6,0.6-1.1,4.4,0.1,4.7C390.3,179.2,391.3,177.5,391.2,175.6z"/>
				</g>
				<path class="st47" d="M399,174c0,0-2.8,1.1-6,0c-3.2-1.1-4.6-1.6-7.1,1.3c0,0-2-8.8,7.3-7.5C393.3,167.8,401.1,167.2,399,174z"
					/>
				<path class="st88" d="M386,188.9c0,0-1.5-4.2-5.4-1.1c-3,2.4-2.2,5.5,0.2,8C381.8,196.8,386,188.9,386,188.9z"/>
				<path class="st96" d="M386.4,203c0,0,4.7-3.7,5.6-4l-1.3-2.3c0,0-5.9,4.1-5.7,4.4C385.2,201.5,386.4,203,386.4,203z"/>
			</g>
			<g>
				<g>
					<g>
						<path class="st96" d="M92,252.1c0,0-0.4,0.9,0,2.4c0.4,1.4,2.6,5.4,2.1,6.7c-0.5,1.3-3.9,0.3-5.5-2.5c-1.6-2.9-4.2-6.1-4-6.6
							c0.3-0.5,4.2-2.7,5.4-2.9C91.2,249,92,252.1,92,252.1z"/>
					</g>
				</g>
				<g>
					<g>
						<path class="st96" d="M147.2,262.8c0,0,2,0.6,3.7,0.6c1.7,0,5.6-1.2,6.9-0.2c1.3,1-0.8,4.4-4.4,5.4c-3.6,0.9-8.3,2.3-8.8,1.9
							c-0.5-0.4-1.5-4.8-1.3-6.2C143.6,262.9,147.2,262.8,147.2,262.8z"/>
					</g>
				</g>
				<g>
					<g>
						<path class="st76" d="M124.3,179.8c0,0,0,2.8,0.4,3.9c0.4,1.1-6-2-6-2s0.1-3.9-0.6-5.8C117.3,174,124.3,179.8,124.3,179.8z"/>
					</g>
				</g>
				<g>
					<g>
						<path class="st97" d="M132.2,218.3c0,0,8.9,8.7,11.1,12.9l-7.7,6.7c0,0-7.8-5.3-10.4-7.7C122.6,227.9,125,211.7,132.2,218.3z"
							/>
					</g>
				</g>
				<g>
					<g>
						<path class="st97" d="M132.1,218.8c0,0-6,14.9-10.8,19.7c0,0-8-2.8-10.5-4.5c0,0,4.3-12,4.5-15
							C115.4,216,132.1,218.8,132.1,218.8z"/>
					</g>
				</g>
				<g>
					<g>
						<path class="st76" d="M118.3,182.7l-9.8,15.9c0,0-1.5,1.6,0.7,4.8c2.4,3.6,9.3,8.3,9.3,8.3s2-0.9,2-2c0-1-7-8.5-6.9-9.4
							c0.1-0.9,5.4-8.9,5.4-8.9S120.1,183.2,118.3,182.7z"/>
					</g>
				</g>
				<g>
					<g>
						<path class="st98" d="M133.5,215.7c-0.2,0.6-0.8,3-1.4,3.1l-17.3,0.3c0,0,1.5-13.1-0.5-19.4c-1.5-4.6,0.4-12.4,3.2-16.6
							c0.3-0.5,0.7-1,1.1-1.3c0,0,6,1.9,6.3,1.9c0.1,0,0.7,0.6,1.5,1.6h0c1.6,2,4,5.6,4.3,9.1c0.3,5.2,2.9,8.8,3.4,14.6
							C134.4,212.4,134.2,213.6,133.5,215.7z"/>
					</g>
				</g>
				<g>
					<g>
						<path class="st76" d="M144,206c0,0-0.1,0.1-0.2,0.1c-0.3,0.2-0.9,0.4-1.8,0.6c-3.7,0.9-11.3,2-13.6,1.6
							c-3-0.5-8.8-13.8-8.8-13.8l5.4-3.4l4.4,9c0.4,0.8,1.1,1.5,1.9,2c0.9,0.5,2,1,3,1c1.9,0.1,4.7,0.1,6.6,0.1c0.9,0,1.7,0,2.1,0
							c0.3,0,0.4,0,0.4,0S144.4,205.2,144,206z"/>
					</g>
				</g>
				<g>
					<g>
						<polygon class="st76" points="146.6,260.8 147.2,262.8 143.4,264.3 142.5,262.2 						"/>
					</g>
				</g>
				<g>
					<g>
						<polygon class="st76" points="93.5,251.1 92,252.1 89.8,249.1 91.4,248 						"/>
					</g>
				</g>
				<g>
					<g>
						<path class="st76" d="M143.5,203.2c0,0,0.9-0.6,1.3-1.4c0.4-0.8,1.9-1.1,2.7-0.9c0.7,0.3,1.6-0.2,1.9,0.3
							c0.3,0.5-0.6,1.2-0.5,1.6c0.1,0.5,0.7,2.6-1,3.2c-1.7,0.6-3.3-0.1-4.1,0.2C142.8,206.6,143.5,203.2,143.5,203.2z"/>
					</g>
				</g>
				<g>
					<g>
						<path class="st98" d="M128,195.4l-7.4,3.2c0,0-0.2-0.5-0.5-1.3c-0.8-2.3-2.1-6.8-0.4-8.2c4-3.3,6.8,2.1,7.8,4.9
							C127.8,194.8,128,195.4,128,195.4z"/>
					</g>
				</g>
				<g>
					<path class="st97" d="M143.3,231.1c0,0,3.8,4.6,3.8,19.6c0,0,0.3,9.1,0.8,10c0.5,0.9-6.5,3-6.7,2c-0.1-1-3.2-21.4-5.7-24.8
						C133.4,234.8,143.3,231.1,143.3,231.1z"/>
				</g>
				<g>
					<path class="st97" d="M121.3,238.5c-3.2,4.2-27.4,13.2-27.4,13.2s-1.2-1.2-2.2-2.4c-0.2-0.2-0.4-0.5-0.6-0.7
						c-0.2-0.3-0.4-0.5-0.5-0.8c-0.6-1.2,5.7-4.9,5.7-4.9c14.6-10.6,15.6-12.2,15.6-12.2s1.5,0.4,3.3,1.1c0.3,0.1,0.5,0.2,0.8,0.3
						C119.3,233.7,123.3,235.9,121.3,238.5z"/>
				</g>
				<g>
					<path class="st34" d="M143.8,206.2c-0.3,0.2-0.9,0.3-1.8,0.6l-1-3.6c0.9,0,1.7,0,2.1,0C143.4,203.9,143.8,205.1,143.8,206.2z"
						/>
				</g>
				<g>
					<path class="st99" d="M120.1,219c0,0-0.7,3.5-1.7,7c-0.8,2.8-1.6,4.9-2.5,6.3c-0.6,1.1-1.3,1.8-1.9,2.2
						c-3.3,1.7-21.7,14.5-22.3,14.9c-0.2-0.2-0.4-0.5-0.6-0.7c0.9-0.6,19.1-13.3,22.5-15c0.5-0.3,1-0.9,1.5-1.7
						c1.9-3.3,3.5-10.1,4-13L120.1,219z"/>
				</g>
				<path class="st98" d="M128,195.4l-7.4,3.2c0,0-0.2-0.5-0.5-1.3l7.4-3.3C127.8,194.8,128,195.4,128,195.4z"/>
				<path class="st98" d="M126.4,185.3c-5.4-0.8-8.9-2.2-8.9-2.2c0.3-0.5,0.7-1,1.1-1.3c0,0,6,1.9,6.3,1.9
					C125.1,183.7,125.7,184.3,126.4,185.3z"/>
				<g>
					<g>
						<path class="st76" d="M127.4,169c0,0,1.7,2.5,1.1,3c-0.6,0.4,1,2.9,1.2,3.3c0.2,0.4-1,0.9-1.2,1.2c-0.2,0.3-0.7,3.8-1.7,4
							c-1,0.2-5.8-0.9-7.2-2.1c-1.4-1.2-3.1-7-2.5-9.6C117.6,166.3,124.3,164.6,127.4,169z"/>
					</g>
				</g>
				<g>
					<g>
						<path class="st47" d="M127.5,169.7c0,0,0.1-2.7-1.4-3.6c-3.7-2.3-7.7,1.2-8.2,1.4c-0.5,0.2-3.5,2.1-1.7,6.2
							c1.4,3.3,2.2,3.8,2.2,3.8s0.8-2.3,1.3-2.8c0.8-0.8,2.3-1.4,2.3-1.4s-0.3-1.6,0.6-2C124,170.7,125.9,169.3,127.5,169.7z"/>
					</g>
				</g>
				<g>
					<g>
						<path class="st76" d="M120.9,172.8c-0.2-0.3-0.8-1.8-1.9-0.8c-1.2,1,1.2,3.6,1.4,3.6C120.6,175.7,122.4,175.6,120.9,172.8z"/>
					</g>
				</g>
				<g>
					<path class="st47" d="M127.8,169.6c0,0,1.5-1.9,0-5.5c0,0-0.5,1.5-3.9,1.1L127.8,169.6z"/>
				</g>
			</g>
			<g>
				<g>
					<path class="st71" d="M91.9,188.2c0,0-1.3,0.7-2.1,1c-0.8,0.3,0-2.7,0-2.7L91.9,188.2z"/>
				</g>
				<g>
					<path class="st71" d="M89.2,185.9c0,0,0.2-2.3,0.2-2.7c0-0.4,0.7-1.1,1.5-1.9c0.8-0.8,2.3-1.5,2.5-1.5c0.2,0,0.4,0,0.8,0.4
						c0.3,0.4,0.3,1,0.3,1s0.7,0.3,0.8,0.9c0,0,0.5,0.3,0.5,1c0,0,0.7,0.1,0.6,0.7c0,0-0.6,0.8-0.8,1.1c-0.2,0.4-2.1,2.1-3.7,3.3
						C91.9,188.2,90.4,188.5,89.2,185.9z"/>
				</g>
				<g>
					<path class="st100" d="M93.2,180c0,0-2,2.1-1.7,2.5c0.3,0.4,0.6,0.3,0.6,0.3l-0.4,1.2c0,0,0.2,1,1.2,0.5c0,0,0.1,0.9,1,0.4
						c0,0,0.3,0.6,0.8,0.4c0.5-0.2,1.7-1.6,1.7-1.6s0.1-0.4-0.5-0.8c0,0,0.1-0.7-0.6-1c0,0,0-0.6-0.7-0.9c0,0-0.1-1.3-1.2-1.2
						C93.4,179.8,93.3,179.9,93.2,180z"/>
				</g>
				<g>
					<path class="st71" d="M89.5,183.2c0,0,1.9-0.6,3.1-0.5c0.3,0,0.5,0.1,0.6,0.4c0.1,0.3-0.2,0.7-1,1c-0.8,0.3-1.7,1.1-1.7,1.1
						S89.5,185.2,89.5,183.2z"/>
				</g>
				<g>
					<path class="st71" d="M64.6,185.9c0,0,7,5.4,11.6,7.4c1.4,0.7,12.5-7.2,13-7.4c0.6-0.2,1.7,2.8,1.7,2.8s-13.5,11.8-14.4,11.5
						c-1-0.2-14.9-8-16-9.4c-1-1.4-1.5-3.3-0.2-4.6C62.2,184.4,64.6,185.9,64.6,185.9z"/>
				</g>
				<g>
					<polygon class="st47" points="68.4,196.4 70.8,189.8 67.4,187 65.2,194.6 					"/>
				</g>
				<g>
					<polygon class="st71" points="22.6,231.6 21.1,230.7 19.1,234.6 20.5,235.5 					"/>
				</g>
				<g>
					<polygon class="st71" points="88.3,265.4 89.1,266.8 92.6,264.5 91.8,263.1 					"/>
				</g>
				<g>
					<path class="st34" d="M63.8,226.8c-0.6,0.6-1.6,1.7-2.7,2.9c-0.1,0.2-0.3,0.3-0.4,0.5c-0.3,0.4-0.7,0.8-1,1.1
						c-0.2,0.2-0.3,0.4-0.5,0.5c-2.1,2.5-4.1,4.8-4.1,4.8c0,0-9.3,9-12.2,8.2c-6.5-1.8-23.2-9.3-23.2-9.3l3.2-5.6
						c0,0,6.3,2.8,10.4,4c4.7,1.4,3.3,1.2,7.7,2.3c2.7,0.7,6.9-10.2,7-10.3c1.7-4.2,4.2-9.6,6-11C55.4,213.9,63.8,226.8,63.8,226.8z
						"/>
				</g>
				<g>
					<path class="st34" d="M82.6,239.5c-0.3-2.2-3.9-7.9-6.5-11.2l0,0c-4-5.4-6.7-9.7-6.7-9.7s-18.2,1.8-17.8,3.6
						c0.7,3.4,8.6,7.6,10.2,8.9l3.8,2.4c0,0,3.4,2.3,5.8,4.4c3.2,2.8,2.6,3.8,4.7,7.9c1.8,3.7,10.8,21,10.8,21l5.4-3.2
						C92.3,263.6,83.1,242.9,82.6,239.5z"/>
				</g>
				<g>
					<g>
						<path class="st47" d="M67.7,203.8c0.1,1.7,1.8,14.8,1.8,14.8l-20.5,3.9c0,0,3.2-7,2.6-12.9c-0.2-1.7-0.2-3.2-0.1-4.8
							c0.1-1.5,0.2-2.9,0.3-4.2c0.2-2.1,0.5-3.9,0.5-5.4c0.2-11.6,9.3-15.2,9.3-15.2l4.3,2.2c0,0,2.4,5.2,2.8,8.3
							C69,193.7,67.5,202.1,67.7,203.8z"/>
					</g>
				</g>
				<g>
					<g>
						<path class="st71" d="M72.2,168.1c0,0,1.8,2.7,1.1,3.2c-0.6,0.4,1.1,3.1,1.3,3.5c0.2,0.4-1.1,0.9-1.3,1.2
							c-0.2,0.3-0.7,4-1.8,4.3c-1.1,0.2-6.1-0.9-7.6-2.2c-1.5-1.2-3.2-7.4-2.6-10.1C62,165.3,69,163.4,72.2,168.1z"/>
					</g>
				</g>
				<g>
					<g>
						<path class="st71" d="M68.2,179.9c-0.2,0.6-0.4,1.5-0.6,2.1c-0.4,1.3-0.8,2.8-0.8,3.6c0,1.4-5.3-5.4-5.3-5.4s2.3-3.5,2.8-9.4
							C64.8,165.6,68.2,179.9,68.2,179.9z"/>
					</g>
				</g>
				<g>
					<g>
						<path class="st74" d="M72.6,168.7c0,0,0.1-2.8-1.5-3.8c-3.9-2.5-8.1,1.2-8.6,1.4c-0.6,0.2-3.7,2.2-1.8,6.5
							c1.5,3.4,2.3,4,2.3,4s0.8-2.4,1.4-2.9c0.9-0.8,2.4-1.4,2.4-1.4s-0.3-1.7,0.6-2.1C69,169.7,71,168.3,72.6,168.7z"/>
					</g>
				</g>
				<g>
					<g>
						<path class="st71" d="M65.4,172.1c-0.2-0.4-0.8-1.9-2-0.8c-1.2,1.1,1.3,3.8,1.5,3.8C65.1,175.2,66.9,175.1,65.4,172.1z"/>
					</g>
				</g>
				<g>
					<g>
						<path class="st71" d="M26,215.2c0,0,0-0.6,0.2-0.9c0,0,0.3-0.4,0.5-0.8c0.1-0.1,0.1-0.2,0.1-0.3c0.1-0.3,0.3-0.9,0.8-1.5
							c0.5-0.6,2.3-2.4,2.3-2.4l1.8,1.3l1.8,0.6c0,0-0.6,4.4-1,5c0,0.1-0.1,0.1-0.1,0.2c-0.4,0.5-0.8,0.6-1,0.9
							c-0.1,0.1-0.9,0.8-1.3,0.8c-0.5-0.1-0.7-0.3-0.9-0.6c0,0-0.9-0.2-1.3-0.7c0,0-0.8-0.1-1.1-0.9C26.9,215.9,26.1,215.7,26,215.2
							z"/>
					</g>
				</g>
				<g>
					<path class="st100" d="M68.2,179.9c-0.1,0.3-0.3,1-0.4,1.5c-2.8-1.7-3.6-3-3.6-3.1C65.5,179.1,68.2,179.9,68.2,179.9z"/>
				</g>
				<g>
					<path class="st101" d="M21.1,230.7c0,0-1,2.1-1.4,3c-0.4,0.9,0,1.6-0.6,1.4c-0.6-0.2-3.2-0.2-4.1,0.3c-0.9,0.5-6.4,4.1-7.5,3.1
						c-1.1-1,0.8-3.4,3.9-6.5c3-3,2.4-3.9,5-5.3C17.2,226.4,21.1,230.7,21.1,230.7z"/>
				</g>
				<g>
					<path class="st101" d="M89,266.6c0,0,1.9-1.2,2.7-1.8c0.8-0.5,0.8-1.3,1.2-0.9c0.5,0.5,2.6,1.8,3.6,1.8c1,0,7.5-0.2,7.8,1.2
						c0.4,1.4-2.4,2.4-6.5,3.4c-4.1,1-4,2.1-6.9,1.9C90,272.2,89,266.6,89,266.6z"/>
				</g>
				<g>
					<path class="st74" d="M72.6,168.7c0,0,1.5-2,0-5.8c0,0-0.6,1.6-4.1,1.1L72.6,168.7z"/>
				</g>
				<g>
					<path class="st102" d="M61.3,189.9c0,0-3.2,4.2-6.7,5.7l-0.3-1.4L61.3,189.9z"/>
				</g>
				<g>
					<path class="st71" d="M61.1,189.8c0,0-11.2,5.5-15.5,9c-1.3,1.1-11.5,12.2-12.1,12.6c-0.5,0.4-3.9-1.7-3.9-1.7
						s10.8-14.6,11.5-15.4c0.7-0.8,14.8-10.3,18-10.8c1.9-0.3,3.7-0.1,4.3,1.9C64.3,188,61.1,189.8,61.1,189.8z"/>
				</g>
				<g>
					<path class="st47" d="M63.6,183.7c0,0-2.1-5.4-11.6,2.7l2.2,7.7C54.3,194.1,66.4,189.1,63.6,183.7z"/>
				</g>
				<g>
					<path class="st103" d="M60.7,230.2c-0.3,0.4-0.7,0.8-1,1.1c-0.2,0.2-0.3,0.4-0.5,0.5c-2.6-2.6-5.5-6.7-5.6-6.8
						C54.8,226.4,60.7,230.2,60.7,230.2z"/>
				</g>
			</g>
		</g>
	</g>
</g>
</svg>
