<?xml version="1.0" encoding="utf-8"?>
<!-- Generator: Adobe Illustrator 24.0.3, SVG Export Plug-In . SVG Version: 6.00 Build 0)  -->
<svg version="1.1" xmlns="http://www.w3.org/2000/svg" xmlns:xlink="http://www.w3.org/1999/xlink" x="0px" y="0px"
	 viewBox="0 0 418 290" style="enable-background:new 0 0 418 290;" xml:space="preserve">
<style type="text/css">
	.st0{display:none;}
	.st1{display:inline;}
	.st2{fill:#FFFFFF;}
	.st3{fill:none;stroke:#FFFFFF;stroke-width:2;stroke-miterlimit:10;}
	.st4{fill:none;stroke:#FFFFFF;stroke-width:2;stroke-linecap:round;stroke-linejoin:round;stroke-miterlimit:10;}
	.st5{fill:url(#SVGID_1_);}
	.st6{fill:none;stroke:#218AE5;stroke-miterlimit:10;}
	.st7{display:inline;fill:#F1F1F1;}
	.st8{display:inline;fill:url(#SVGID_2_);}
	.st9{display:inline;fill:none;stroke:#218AE5;stroke-width:2;stroke-miterlimit:10;}
	.st10{opacity:0.6;fill:#FFFFFF;}
	.st11{display:inline;fill:none;stroke:#218DE8;stroke-width:2;stroke-miterlimit:10;}
	.st12{fill:#218AE5;}
	.st13{fill:#CBCBCB;}
	.st14{fill:url(#SVGID_3_);}
	.st15{display:inline;fill:none;stroke:#808080;stroke-miterlimit:10;}
	.st16{fill:url(#SVGID_4_);}
	.st17{fill:none;stroke:#FFFFFF;stroke-width:2.0006;stroke-miterlimit:10;}
	.st18{fill:none;stroke:#FFFFFF;stroke-width:1.9294;stroke-miterlimit:10;}
	.st19{display:inline;fill:#FFFFFF;}
	.st20{fill:#CBE6F9;}
	.st21{fill:#2A2A55;}
	.st22{fill:#263E83;}
	.st23{fill:#F8D0A3;}
	.st24{fill:#283996;}
	.st25{fill:#DFB58B;}
	.st26{fill:#E2E2E2;}
	.st27{fill:#353854;}
	.st28{fill:#88CFFF;}
	.st29{fill:#73C3EF;}
	.st30{fill:#CCA079;}
	.st31{fill:#97C4E3;}
	.st32{fill:#BA8D6A;}
	.st33{fill:#027CCE;}
	.st34{fill:#008EED;}
	.st35{fill:#E6E6E6;}
	.st36{fill:#1A1A3A;}
	.st37{fill:#0563AF;}
	.st38{fill:url(#SVGID_5_);}
	.st39{fill:url(#SVGID_6_);}
	.st40{fill:url(#SVGID_7_);}
	.st41{fill:url(#SVGID_8_);}
	.st42{fill:url(#SVGID_9_);}
	.st43{fill:url(#SVGID_10_);}
	.st44{fill:url(#SVGID_11_);}
	.st45{fill:url(#SVGID_12_);}
	.st46{fill:url(#SVGID_13_);}
	.st47{fill:#1C2377;}
	.st48{fill:#CCCCCC;}
	.st49{fill:#218DE8;}
	.st50{fill:none;}
	.st51{fill:#FBFAFA;}
	.st52{fill:#80B4E2;}
	.st53{fill:#F2F2F2;}
	.st54{clip-path:url(#SVGID_15_);}
	.st55{fill:#629FCC;}
	.st56{fill:#127CC4;}
	.st57{fill:#2F2F65;}
	.st58{fill:#277DC4;}
	.st59{fill:#E4F2F6;}
	.st60{opacity:0.1;fill:#5C4A45;}
	.st61{fill:#37A5EF;}
	.st62{fill:#156FD1;}
	.st63{fill:#4BB9F7;}
	.st64{fill:#61A4D6;}
	.st65{fill:#A0CDEF;}
	.st66{fill:#182C7F;}
	.st67{fill:#E0B489;}
	.st68{fill:#7E492B;}
	.st69{fill:#BDC5E4;}
	.st70{fill:#121C60;}
	.st71{fill:#D1A278;}
	.st72{fill:#F7CFA2;}
	.st73{fill:#323658;}
	.st74{fill:#BDB69D;}
	.st75{fill:#343B57;}
	.st76{fill:#3D476E;}
	.st77{fill:#76C1DA;}
	.st78{fill:#E1D7D2;}
	.st79{fill:#809ED1;}
	.st80{fill:#29A9EF;}
	.st81{fill:#071E56;}
	.st82{fill:#2152A3;}
	.st83{fill:#2D59B2;}
	.st84{fill:#122C75;}
	.st85{fill:#0A154C;}
	.st86{fill:#6680BB;}
	.st87{fill:#142275;}
	.st88{fill:#546597;}
	.st89{fill:#6284EF;}
	.st90{fill:#174AC9;}
	.st91{fill:#0F45B2;}
	.st92{fill:#D9DDEE;}
	.st93{fill:#464B7A;}
	.st94{fill:#394AC4;}
	.st95{fill:#7D83D7;}
	.st96{fill:#CEA680;}
	.st97{fill:#343B5C;}
	.st98{fill:#0E1759;}
	.st99{fill:#025ECC;}
	.st100{clip-path:url(#SVGID_21_);fill:url(#SVGID_22_);}
	.st101{fill:url(#SVGID_23_);}
	.st102{fill:url(#SVGID_24_);}
	.st103{fill:url(#SVGID_25_);}
	.st104{fill:url(#SVGID_26_);}
	.st105{fill:url(#SVGID_27_);}
	.st106{fill:url(#SVGID_28_);}
	.st107{fill:url(#SVGID_29_);}
	.st108{fill:url(#SVGID_30_);}
	.st109{fill:url(#SVGID_31_);}
	.st110{clip-path:url(#SVGID_33_);}
</style>
<g id="Livello_1" class="st0">
	<rect x="-1125" y="-987" class="st19" width="1970" height="2437"/>
</g>
<g id="BiancoSfondo">
</g>
<g id="Contattaci">
</g>
<g id="cosa_x27_altro_devi_sapere">
</g>
<g id="Come_funziona">
</g>
<g id="HEADER">
	<g>
		<path class="st20" d="M360,204.3c-0.4,24.4-6.6,51.3-26.7,65.3c-12.3,8.6-27.8,10.9-42.7,12.3c-75.1,7.1-155.3-3.7-215.5-49.1
			c-10.6-8-21.1-18.1-22.5-31.2c-1.1-9.5,2.8-18.8,7.5-27.2c9.1-16.4,21.5-30.7,34.3-44.4c31.3-33.2,66.3-62.8,104.1-88.3
			C217,29.3,253-0.5,277,5.6c12.6,3.2,20.7,15,27.3,26.2C335.3,84.5,361,143.1,360,204.3z"/>
		<g>
			<g>
				<g>
					
						<ellipse transform="matrix(0.9617 -0.2741 0.2741 0.9617 -9.4035 55.8024)" class="st51" cx="195" cy="61.6" rx="37.5" ry="37.5"/>
					<path class="st35" d="M175.4,29.5c-9.6,5.9-16.5,16.1-17.7,28.2c-2.1,20.6,12.9,39.1,33.5,41.2c20.6,2.1,39.1-12.9,41.2-33.5
						c1.1-11.1-2.7-21.6-9.7-29.3c7.3,7.9,8.1,23.4,5.1,33c-3.2,10.1-12,19.3-22.3,22.4c-12.6,3.7-28.1-0.6-36.3-11.1
						c-6.3-8.1-8.3-18.6-6.5-28.7C164.1,42.6,169,35.4,175.4,29.5z"/>
					<g>
						<path class="st52" d="M232,55.4c-0.1-0.6-0.2-1.1-0.3-1.7c-9.9,14.1-45.5,8.4-45.9,8.3l-0.2,0l-0.2,0.1
							c-0.2,0.1-5.8,2.5-10.9,7.5c-5,4.9-7.8,10.4-8.2,16.4c0.4,0.5,0.8,0.9,1.2,1.4c0.1-15.2,16.3-23.2,18.1-24
							C188.9,63.8,221.1,68.6,232,55.4z"/>
						<path class="st52" d="M185.1,63.2l1.3-0.1c-0.6-13.8-4.9-22.5-8.5-27.3c-1.6-2.2-3.2-3.8-4.5-4.9c-0.4,0.3-0.7,0.5-1.1,0.8
							C176.5,35.3,184.3,44.5,185.1,63.2z"/>
						<path class="st52" d="M189.6,24.4c4.1,5.8,13.1,20.3,15.5,39.4l1.3-0.2c-2.4-18.8-11-33.2-15.3-39.4
							C190.5,24.3,190,24.3,189.6,24.4z"/>
						<path class="st52" d="M212.3,28.2c3.6,5.5,9,16.3,10.2,32.6l1.3-0.1c-1.1-14.7-5.6-25.1-9.2-31.2
							C213.9,29.1,213.1,28.6,212.3,28.2z"/>
						<path class="st52" d="M181,41.4c-0.3,0.1-6.3,2-12.7,6.8c-3.7,2.8-7.9,6.9-10.9,12.6c0,1,0,1.9,0.1,2.9
							c6.5-15.5,23.7-21,23.9-21.1L181,41.4z"/>
						<path class="st52" d="M190.5,85.8c-12.4-1.7-21.3-7.9-21.4-8l-0.7,1c0.1,0.1,9.2,6.4,21.9,8.2c2,0.3,4.2,0.5,6.6,0.5
							c10,0,22.4-3.3,34.2-15.4c0.2-0.8,0.5-1.7,0.6-2.5C219.9,82.5,206.1,88,190.5,85.8z"/>
					</g>
				</g>
				<g>
					<circle class="st53" cx="124.4" cy="113.7" r="37.3"/>
					<path class="st48" d="M156.4,94.7c3.4,9.5,3.2,20.6-0.6,29.5c-5.8,13.5-19,19.1-33.1,18.3c-9.4-0.5-18.9-4-26.2-10
						c-5.5-4.5-8.4-11.1-9.4-18.1c0.4,20.3,16.9,36.6,37.3,36.6c20.6,0,37.3-16.7,37.3-37.3C161.6,106.8,159.7,100.3,156.4,94.7z"/>
					<g>
						<defs>
							<circle id="SVGID_14_" cx="124.4" cy="113.7" r="37.3"/>
						</defs>
						<clipPath id="SVGID_1_">
							<use xlink:href="#SVGID_14_"  style="overflow:visible;"/>
						</clipPath>
						<g style="clip-path:url(#SVGID_1_);">
							<path class="st47" d="M97.6,134.1c-4-3.2-8.3-12.1-8.5-12.5l0.4-0.2c0,0.1,4.4,9.1,8.3,12.3L97.6,134.1z"/>
							<path class="st47" d="M140,78.2v1.5c0,0,2.9,4.8,3.5,10.4l-12.5,5.1c-2.1-1.4-13.2-4.2-15.5-4.8l-1.8-9.5
								c1.4-0.7,10.1-5.2,14-5.3c0,0-18.7-3.6-28,8.5c0,0,9.9-2.9,13.6-3.1l1.7,9.4c-0.8,0.8-7.5,7.4-10.3,12.4
								c-2.9,0.1-9.3,1.9-11.9,2.7c-1-2.8-0.7-11.4-1.3-11.1c-2,1.1-6.2,21.2-5.8,23.5c0.5,2.3,3.7,3.6,3.7,3.6
								c0.2-4.4,2.9-13.9,3.4-15.5c2.5-0.7,8.9-2.6,11.8-2.7c0.5,1.1,3.6,8,8.9,13.7c-0.5,1.7-3.5,11.5-4.2,15.4
								c-3.5,0.9-11.5,1.6-11.5,1.6c-0.2,2.3,5.8,13.3,5.8,13.3s12.1,5.6,14.3,4c1.9-1.4,4.5-6.5,5.1-7.8c3.1-0.9,12.1-3.5,15.6-5.3
								c0,0,0,0,0,0c0.5,0.6,10.7,2.9,10.7,2.9c3.4-2,9.8-12.6,9.8-12.6c0.3-2.7-2.6-10-3.3-11.7c1.5-4.4,0.8-13.7,0.6-15.8
								c0.9-0.6,4.2-2.8,4.8-4.9C161.9,93.5,140,78.2,140,78.2z M138.6,137.6c-3.1,1.7-12.5,4.5-15.7,5.4
								c-4.3-2.5-12.2-9.7-13.2-10.6c0.6-3.8,3.5-13.3,4.1-15.2c1.7-0.5,14.4-4.1,16.5-5.3l12.2,11C142.4,126,139,135.2,138.6,137.6
								z M155.4,116.7c-3.3,2.3-11,5.2-12.6,5.8l-12.3-11.1c0.1-2.2,0.8-13.8,0.8-15.9c0,0,0,0,0,0l12.5-5
								c1.4,0.9,7.7,5.2,12.2,10.4C156.1,102.6,156.9,112.3,155.4,116.7z"/>
						</g>
					</g>
				</g>
				<g>
					<circle class="st52" cx="93.9" cy="192.7" r="23.2"/>
					<path class="st55" d="M116.8,189.4c-0.4,6.8-2,13.1-7.7,17.9c-6.1,5.2-14.7,7.1-22.1,3.8c-5.1-2.3-8.5-5.8-11.1-10.8
						c-3.6-6.8-3.5-15.4,1.3-21.6c2.9-3.8,6.8-6.6,11.3-8.2c1.3-0.5,2.7-0.8,4.1-1c-5.2,0.3-10.4,2.3-14.5,6.2
						c-9.4,8.7-9.9,23.4-1.2,32.7c8.7,9.4,23.4,9.9,32.7,1.2C115.4,204.3,117.8,196.6,116.8,189.4z"/>
					<path class="st35" d="M94.7,169.5c-0.7,0-1.3,0-2,0c0.3,4.6-0.8,9.2-3.3,13c-3.5,5.4-9,8.4-15.5,8.5c-1,0-2.1,0-3.1-0.2
						c-0.1,0.7-0.1,1.3-0.1,2c1.1,0.1,2.1,0.2,3.2,0.2c7.2-0.1,13.3-3.5,17.1-9.4C93.7,179.5,95,174.5,94.7,169.5z"/>
					<path class="st35" d="M93.2,211.9c0.6-6.5,4-11.8,9.6-14.8c4.2-2.3,9.3-3,14.1-2.2c0.1-0.7,0.1-1.3,0.1-2
						c-5.2-0.8-10.6,0-15.2,2.5c-6.2,3.4-10,9.2-10.7,16.4c-0.1,1.3-0.1,2.7,0,4c0.7,0.1,1.4,0.1,2,0.2
						C93.1,214.5,93.1,213.2,93.2,211.9z"/>
				</g>
				<g>
					
						<ellipse transform="matrix(0.7071 -0.7071 0.7071 0.7071 44.8959 220.1681)" class="st49" cx="288.2" cy="55.9" rx="38" ry="38"/>
					<path class="st56" d="M253.2,41.2c-8.1,19.4,1,41.6,20.4,49.7c19.4,8.1,41.6-1,49.7-20.4c2.3-5.4,3.2-11.1,2.9-16.6
						c-4.5,15-13.5,29.2-30.4,31c-16,1.7-35-8.2-39.9-24.1c-2.4-7.6-2.1-15.6,0.7-23.1c0.9-2.6,2.1-5,3.4-7.4
						C257.2,33.5,254.9,37.1,253.2,41.2z"/>
					<path class="st57" d="M290.6,58.1c10.8,4.4,21.8,8.6,33.2,11c0.3-0.7,0.5-1.5,0.8-2.2c-11.4-2.4-22.4-6.6-33.2-11
						c1.8-4.3,3.6-8.5,5.3-12.8c4.8,1.4,9.9,1.9,14.9,1.7c3.8-0.2,8.3-0.7,12-2.6c-0.3-0.7-0.6-1.4-0.9-2.1
						c-3.4,1.7-7.8,2.2-11.4,2.4c-4.6,0.3-9.3-0.3-13.7-1.5c2.6-6.3,5-12.7,7.4-19.1c-0.7-0.3-1.4-0.7-2.1-1c0,0,0,0,0,0
						c-2.4,6.5-4.9,13-7.5,19.4c-0.1,0-0.3-0.1-0.4-0.1c-5.1-1.7-9.9-4.5-14-8c-3.4-2.9-6.7-6.5-8.4-10.8c-0.7,0.3-1.4,0.7-2.1,1
						c1.6,4.1,4.7,7.6,7.9,10.7c4.5,4.2,9.9,7.2,15.7,9.3c0.2,0.1,0.3,0.1,0.5,0.2c-1.7,4.2-3.5,8.4-5.3,12.6
						c-11.9-4.9-23.7-9.8-35.6-14.8c-0.1,0.3-0.3,0.6-0.4,0.9c-0.2,0.4-0.3,0.8-0.5,1.2c11.9,4.9,23.7,9.9,35.6,14.8
						c-1.9,4.3-3.8,8.7-5.7,13c-9.5-3.6-20.2-3.9-30-1.1c0.3,0.7,0.6,1.5,0.9,2.2c9.2-2.5,19.1-2.1,28.1,1.1
						c-2.8,6.1-5.7,12.2-8.7,18.3c0.2,0.1,0.4,0.2,0.7,0.3c0.5,0.2,1,0.4,1.5,0.6c3-6.1,5.9-12.2,8.7-18.3c0.2,0.1,0.3,0.1,0.5,0.2
						c8.1,3.5,15,9.6,19.7,17c0.7-0.3,1.4-0.7,2.1-1c-4.9-7.7-11.9-13.9-20.3-17.9c-0.4-0.2-0.7-0.3-1.1-0.5c2-4.3,3.9-8.6,5.7-13
						C290.5,58.1,290.5,58.1,290.6,58.1z"/>
				</g>
			</g>
			<g>
				<rect x="169.2" y="257.5" class="st47" width="146.8" height="9.1"/>
				<rect x="169.2" y="154.6" class="st2" width="146.8" height="107.3"/>
				<rect x="169.2" y="129.6" class="st49" width="146.8" height="25"/>
				<rect x="169.2" y="129.6" class="st58" width="73.4" height="25"/>
				<g>
					<g>
						<path class="st24" d="M241.9,136.6c0,2.3-1.9,4.2-4.2,4.2c-2.3,0-4.2-1.9-4.2-4.2c0-2.3,1.9-4.2,4.2-4.2
							C240,132.4,241.9,134.3,241.9,136.6z"/>
						<path class="st2" d="M240.4,136c0,1.5-1.2,2.7-2.7,2.7l0,0c-1.5,0-2.7-1.2-2.7-2.7v-10.1c0-1.5,1.2-2.7,2.7-2.7l0,0
							c1.5,0,2.7,1.2,2.7,2.7V136z"/>
					</g>
					<g>
						<path class="st24" d="M251.7,136.6c0,2.3-1.9,4.2-4.2,4.2c-2.3,0-4.2-1.9-4.2-4.2c0-2.3,1.9-4.2,4.2-4.2
							C249.8,132.4,251.7,134.3,251.7,136.6z"/>
						<path class="st2" d="M250.3,136c0,1.5-1.2,2.7-2.7,2.7l0,0c-1.5,0-2.7-1.2-2.7-2.7v-10.1c0-1.5,1.2-2.7,2.7-2.7l0,0
							c1.5,0,2.7,1.2,2.7,2.7V136z"/>
					</g>
				</g>
				<g>
					<g>
						<g>
							<path class="st24" d="M214.4,136.6c0,2.3-1.9,4.2-4.2,4.2c-2.3,0-4.2-1.9-4.2-4.2c0-2.3,1.9-4.2,4.2-4.2
								C212.5,132.4,214.4,134.3,214.4,136.6z"/>
							<path class="st2" d="M213,136c0,1.5-1.2,2.7-2.7,2.7l0,0c-1.5,0-2.7-1.2-2.7-2.7v-10.1c0-1.5,1.2-2.7,2.7-2.7l0,0
								c1.5,0,2.7,1.2,2.7,2.7V136z"/>
						</g>
						<g>
							<path class="st24" d="M224.3,136.6c0,2.3-1.9,4.2-4.2,4.2c-2.3,0-4.2-1.9-4.2-4.2c0-2.3,1.9-4.2,4.2-4.2
								C222.4,132.4,224.3,134.3,224.3,136.6z"/>
							<path class="st2" d="M222.8,136c0,1.5-1.2,2.7-2.7,2.7l0,0c-1.5,0-2.7-1.2-2.7-2.7v-10.1c0-1.5,1.2-2.7,2.7-2.7l0,0
								c1.5,0,2.7,1.2,2.7,2.7V136z"/>
						</g>
					</g>
					<g>
						<g>
							<circle class="st24" cx="265.2" cy="136.6" r="4.2"/>
							<path class="st2" d="M267.9,136c0,1.5-1.2,2.7-2.7,2.7l0,0c-1.5,0-2.7-1.2-2.7-2.7v-10.1c0-1.5,1.2-2.7,2.7-2.7l0,0
								c1.5,0,2.7,1.2,2.7,2.7V136z"/>
						</g>
						<g>
							<path class="st24" d="M279.2,136.6c0,2.3-1.9,4.2-4.2,4.2c-2.3,0-4.2-1.9-4.2-4.2c0-2.3,1.9-4.2,4.2-4.2
								C277.3,132.4,279.2,134.3,279.2,136.6z"/>
							<path class="st2" d="M277.7,136c0,1.5-1.2,2.7-2.7,2.7l0,0c-1.5,0-2.7-1.2-2.7-2.7v-10.1c0-1.5,1.2-2.7,2.7-2.7l0,0
								c1.5,0,2.7,1.2,2.7,2.7V136z"/>
						</g>
					</g>
				</g>
				<g>
					<g>
						<g>
							<path class="st24" d="M186.7,136.6c0,2.3-1.9,4.2-4.2,4.2c-2.3,0-4.2-1.9-4.2-4.2c0-2.3,1.9-4.2,4.2-4.2
								C184.8,132.4,186.7,134.3,186.7,136.6z"/>
							<path class="st2" d="M185.2,136c0,1.5-1.2,2.7-2.7,2.7l0,0c-1.5,0-2.7-1.2-2.7-2.7v-10.1c0-1.5,1.2-2.7,2.7-2.7l0,0
								c1.5,0,2.7,1.2,2.7,2.7V136z"/>
						</g>
						<g>
							<path class="st24" d="M196.5,136.6c0,2.3-1.9,4.2-4.2,4.2c-2.3,0-4.2-1.9-4.2-4.2c0-2.3,1.9-4.2,4.2-4.2
								C194.6,132.4,196.5,134.3,196.5,136.6z"/>
							<path class="st2" d="M195,136c0,1.5-1.2,2.7-2.7,2.7l0,0c-1.5,0-2.7-1.2-2.7-2.7v-10.1c0-1.5,1.2-2.7,2.7-2.7l0,0
								c1.5,0,2.7,1.2,2.7,2.7V136z"/>
						</g>
					</g>
					<g>
						<g>
							<path class="st24" d="M297.1,136.6c0,2.3-1.9,4.2-4.2,4.2c-2.3,0-4.2-1.9-4.2-4.2c0-2.3,1.9-4.2,4.2-4.2
								C295.3,132.4,297.1,134.3,297.1,136.6z"/>
							<path class="st2" d="M295.7,136c0,1.5-1.2,2.7-2.7,2.7l0,0c-1.5,0-2.7-1.2-2.7-2.7v-10.1c0-1.5,1.2-2.7,2.7-2.7l0,0
								c1.5,0,2.7,1.2,2.7,2.7V136z"/>
						</g>
						<g>
							<path class="st24" d="M307,136.6c0,2.3-1.9,4.2-4.2,4.2c-2.3,0-4.2-1.9-4.2-4.2c0-2.3,1.9-4.2,4.2-4.2
								C305.1,132.4,307,134.3,307,136.6z"/>
							<path class="st2" d="M305.5,136c0,1.5-1.2,2.7-2.7,2.7l0,0c-1.5,0-2.7-1.2-2.7-2.7v-10.1c0-1.5,1.2-2.7,2.7-2.7l0,0
								c1.5,0,2.7,1.2,2.7,2.7V136z"/>
						</g>
					</g>
				</g>
				<rect x="236.2" y="166.5" class="st59" width="12.7" height="12.2"/>
				<g>
					<rect x="255.5" y="166.5" class="st59" width="12.7" height="12.2"/>
				</g>
				<g>
					<rect x="274.5" y="166.5" class="st52" width="12.7" height="12.2"/>
				</g>
				<g>
					<rect x="293.6" y="166.5" class="st52" width="12.7" height="12.2"/>
				</g>
				<rect x="236.2" y="184.6" class="st59" width="12.7" height="12.2"/>
				<g>
					<rect x="217" y="184.6" class="st59" width="12.7" height="12.2"/>
					<rect x="255.5" y="184.6" class="st59" width="12.7" height="12.2"/>
				</g>
				<g>
					<rect x="197.9" y="184.6" class="st59" width="12.7" height="12.2"/>
					<rect x="274.5" y="184.6" class="st52" width="12.7" height="12.2"/>
				</g>
				<g>
					<rect x="178.9" y="184.6" class="st59" width="12.7" height="12.2"/>
					<rect x="293.6" y="184.6" class="st52" width="12.7" height="12.2"/>
				</g>
				<rect x="236.2" y="202.3" class="st59" width="12.7" height="12.2"/>
				<g>
					<rect x="217" y="202.3" class="st59" width="12.7" height="12.2"/>
					<rect x="255.5" y="202.3" class="st59" width="12.7" height="12.2"/>
				</g>
				<g>
					<rect x="197.9" y="202.3" class="st59" width="12.7" height="12.2"/>
					<rect x="274.5" y="202.3" class="st52" width="12.7" height="12.2"/>
				</g>
				<g>
					<rect x="178.9" y="202.3" class="st59" width="12.7" height="12.2"/>
					<rect x="293.6" y="202.3" class="st52" width="12.7" height="12.2"/>
				</g>
				<rect x="236.2" y="220.8" class="st59" width="12.7" height="12.2"/>
				<g>
					<rect x="217" y="220.8" class="st59" width="12.7" height="12.2"/>
					<rect x="255.5" y="220.8" class="st59" width="12.7" height="12.2"/>
				</g>
				<g>
					<rect x="197.9" y="220.8" class="st59" width="12.7" height="12.2"/>
					<rect x="274.5" y="220.8" class="st52" width="12.7" height="12.2"/>
				</g>
				<g>
					<rect x="178.9" y="220.8" class="st59" width="12.7" height="12.2"/>
					<rect x="293.6" y="220.8" class="st52" width="12.7" height="12.2"/>
				</g>
				<rect x="236.2" y="238.9" class="st59" width="12.7" height="12.2"/>
				<g>
					<rect x="217" y="238.9" class="st59" width="12.7" height="12.2"/>
					<rect x="255.5" y="238.9" class="st59" width="12.7" height="12.2"/>
				</g>
				<g>
					<rect x="197.9" y="238.9" class="st59" width="12.7" height="12.2"/>
				</g>
				<g>
					<rect x="178.9" y="238.9" class="st59" width="12.7" height="12.2"/>
				</g>
				<rect x="169.2" y="154.6" class="st60" width="146.8" height="3.9"/>
			</g>
		</g>
	</g>
</g>
</svg>
