<?xml version="1.0" encoding="utf-8"?>
<!-- Generator: Adobe Illustrator 24.0.3, SVG Export Plug-In . SVG Version: 6.00 Build 0)  -->
<svg version="1.1" xmlns="http://www.w3.org/2000/svg" xmlns:xlink="http://www.w3.org/1999/xlink" x="0px" y="0px"
	 viewBox="0 0 418 290" style="enable-background:new 0 0 418 290;" xml:space="preserve">
<style type="text/css">
	.st0{display:none;}
	.st1{display:inline;}
	.st2{fill:#FFFFFF;}
	.st3{fill:none;stroke:#FFFFFF;stroke-width:2;stroke-miterlimit:10;}
	.st4{fill:none;stroke:#FFFFFF;stroke-width:2;stroke-linecap:round;stroke-linejoin:round;stroke-miterlimit:10;}
	.st5{fill:url(#SVGID_1_);}
	.st6{fill:none;stroke:#218AE5;stroke-miterlimit:10;}
	.st7{display:inline;fill:#F1F1F1;}
	.st8{display:inline;fill:url(#SVGID_2_);}
	.st9{display:inline;fill:none;stroke:#218AE5;stroke-width:2;stroke-miterlimit:10;}
	.st10{opacity:0.6;fill:#FFFFFF;}
	.st11{display:inline;fill:none;stroke:#218DE8;stroke-width:2;stroke-miterlimit:10;}
	.st12{fill:#218AE5;}
	.st13{fill:#CBCBCB;}
	.st14{fill:url(#SVGID_3_);}
	.st15{display:inline;fill:none;stroke:#808080;stroke-miterlimit:10;}
	.st16{fill:url(#SVGID_4_);}
	.st17{fill:none;stroke:#FFFFFF;stroke-width:2.0006;stroke-miterlimit:10;}
	.st18{fill:none;stroke:#FFFFFF;stroke-width:1.9294;stroke-miterlimit:10;}
	.st19{display:inline;fill:#FFFFFF;}
	.st20{fill:#CBE6F9;}
	.st21{fill:#2A2A55;}
	.st22{fill:#263E83;}
	.st23{fill:#F8D0A3;}
	.st24{fill:#283996;}
	.st25{fill:#DFB58B;}
	.st26{fill:#E2E2E2;}
	.st27{fill:#353854;}
	.st28{fill:#88CFFF;}
	.st29{fill:#73C3EF;}
	.st30{fill:#CCA079;}
	.st31{fill:#97C4E3;}
	.st32{fill:#BA8D6A;}
	.st33{fill:#027CCE;}
	.st34{fill:#008EED;}
	.st35{fill:#E6E6E6;}
	.st36{fill:#1A1A3A;}
	.st37{fill:#0563AF;}
	.st38{fill:url(#SVGID_5_);}
	.st39{fill:url(#SVGID_6_);}
	.st40{fill:url(#SVGID_7_);}
	.st41{fill:url(#SVGID_8_);}
	.st42{fill:url(#SVGID_9_);}
	.st43{fill:url(#SVGID_10_);}
	.st44{fill:url(#SVGID_11_);}
	.st45{fill:url(#SVGID_12_);}
	.st46{fill:url(#SVGID_13_);}
	.st47{fill:#1C2377;}
	.st48{fill:#CCCCCC;}
	.st49{fill:#218DE8;}
	.st50{fill:none;}
	.st51{fill:#FBFAFA;}
	.st52{fill:#80B4E2;}
	.st53{fill:#F2F2F2;}
	.st54{clip-path:url(#SVGID_15_);}
	.st55{fill:#629FCC;}
	.st56{fill:#127CC4;}
	.st57{fill:#2F2F65;}
	.st58{fill:#277DC4;}
	.st59{fill:#E4F2F6;}
	.st60{opacity:0.1;fill:#5C4A45;}
	.st61{fill:#37A5EF;}
	.st62{fill:#156FD1;}
	.st63{fill:#4BB9F7;}
	.st64{fill:#61A4D6;}
	.st65{fill:#A0CDEF;}
	.st66{fill:#182C7F;}
	.st67{fill:#E0B489;}
	.st68{fill:#7E492B;}
	.st69{fill:#BDC5E4;}
	.st70{fill:#121C60;}
	.st71{fill:#D1A278;}
	.st72{fill:#F7CFA2;}
	.st73{fill:#323658;}
	.st74{fill:#BDB69D;}
	.st75{fill:#343B57;}
	.st76{fill:#3D476E;}
	.st77{fill:#76C1DA;}
	.st78{fill:#E1D7D2;}
	.st79{fill:#809ED1;}
	.st80{fill:#29A9EF;}
	.st81{fill:#071E56;}
	.st82{fill:#2152A3;}
	.st83{fill:#2D59B2;}
	.st84{fill:#122C75;}
	.st85{fill:#0A154C;}
	.st86{fill:#6680BB;}
	.st87{fill:#142275;}
	.st88{fill:#546597;}
	.st89{fill:#6284EF;}
	.st90{fill:#174AC9;}
	.st91{fill:#0F45B2;}
	.st92{fill:#D9DDEE;}
	.st93{fill:#464B7A;}
	.st94{fill:#394AC4;}
	.st95{fill:#7D83D7;}
	.st96{fill:#CEA680;}
	.st97{fill:#343B5C;}
	.st98{fill:#0E1759;}
	.st99{fill:#025ECC;}
	.st100{clip-path:url(#SVGID_21_);fill:url(#SVGID_22_);}
	.st101{fill:url(#SVGID_23_);}
	.st102{fill:url(#SVGID_24_);}
	.st103{fill:url(#SVGID_25_);}
	.st104{fill:url(#SVGID_26_);}
	.st105{fill:url(#SVGID_27_);}
	.st106{fill:url(#SVGID_28_);}
	.st107{fill:url(#SVGID_29_);}
	.st108{fill:url(#SVGID_30_);}
	.st109{fill:url(#SVGID_31_);}
	.st110{clip-path:url(#SVGID_33_);}
</style>
<g id="Livello_1" class="st0">
	<rect x="-1564" y="-987" class="st19" width="1970" height="2437"/>
</g>
<g id="BiancoSfondo">
</g>
<g id="Contattaci">
</g>
<g id="cosa_x27_altro_devi_sapere">
</g>
<g id="Come_funziona">
</g>
<g id="HEADER">
	<g>
		<path class="st20" d="M359.7,205c-0.4,24.4-6.6,51.3-26.7,65.3c-12.3,8.6-27.8,10.9-42.7,12.3c-75.1,7.1-155.3-3.7-215.5-49.1
			c-10.6-8-21.1-18.1-22.5-31.2c-1.1-9.5,2.8-18.8,7.5-27.2c9.1-16.4,21.5-30.7,34.3-44.4c31.3-33.2,66.3-62.8,104.1-88.3
			C216.8,30,252.8,0.3,276.7,6.3c12.6,3.2,20.7,15,27.3,26.2C335.1,85.2,360.7,143.8,359.7,205z"/>
		<g>
			<g>
				<g>
					<circle class="st61" cx="227.9" cy="56.6" r="35.6"/>
				</g>
				<g>
					<circle class="st49" cx="227.9" cy="56.6" r="30.2"/>
				</g>
				<g>
					<path class="st62" d="M243.7,30.8c3,4.7,4.7,10.3,4.7,16.3c0,16.7-13.5,30.2-30.2,30.2c-5.8,0-11.2-1.6-15.8-4.5
						c5.4,8.4,14.8,13.9,25.4,13.9c16.7,0,30.2-13.5,30.2-30.2C258.1,45.6,252.3,36.1,243.7,30.8z"/>
				</g>
				<g>
					<path class="st63" d="M203,59.3c0-14.7,11.9-26.6,26.6-26.6c8.6,0,16.2,4.1,21.1,10.4c-4.6-8-13.2-13.4-23.1-13.4
						C213,29.7,201,41.6,201,56.4c0,6.1,2.1,11.7,5.5,16.2C204.3,68.7,203,64.2,203,59.3z"/>
				</g>
			</g>
			<g>
				<path class="st64" d="M190.2,263.4h-13.7c-2.5,0-4.5-2-4.5-4.5l-3.8-25.8c0-2.5,2-4.5,4.5-4.5H194c2.5,0,4.5,2,4.5,4.5
					l-3.8,25.8C194.7,261.4,192.6,263.4,190.2,263.4z"/>
				<path class="st64" d="M282.7,263.4H269c-2.5,0-4.5-2-4.5-4.5l-3.8-25.8c0-2.5,2-4.5,4.5-4.5h21.3c2.5,0,4.5,2,4.5,4.5l-3.8,25.8
					C287.2,261.4,285.2,263.4,282.7,263.4z"/>
				<path class="st52" d="M309.9,189.6c0,38.5-36.7,69.7-82,69.7s-82-31.2-82-69.7s28-71.9,82-71.9
					C281.9,117.7,309.9,151.1,309.9,189.6z"/>
				<path class="st52" d="M168.2,225.2l-12.6-0.1c-10.9,0.5-15.8-2.5-17.9-10.2l-6.9-25.4c-1.4-5.2,1.7-10.6,6.9-12l15.7-4.3
					c7.7-2.1,15.8,2.5,17.9,10.2l6.4,22.3C179.7,213.5,175.9,223.1,168.2,225.2z"/>
				<path class="st52" d="M194.5,131.7c-0.2-0.2-22.2-18.2-47-9.1c-0.3,0.1-0.5,0.3-0.5,0.6c0,0.3-2.9,28.5,24.4,42.8
					c0.1,0.1,0.2,0.1,0.3,0.1c0.2,0,0.5-0.1,0.6-0.3l22.3-33.1C194.9,132.4,194.8,131.9,194.5,131.7z"/>
				<path class="st52" d="M319.6,155.7c-1.7-0.5-3.5,0.1-4.4,1.7c-4.8,7.9-13.3,9.5-17,10.1c-1.3,0.2-2,0.4-2.6,0.9
					c-0.7,0.6-1,1.6-0.7,2.5l6,17.5c0.2,0.6,0.6,1.1,1.2,1.3c0.3,0.1,0.6,0.2,0.9,0.2c0.3,0,0.6-0.1,0.9-0.2
					c14.8-6,17.9-21.4,18.4-30.1C322.4,157.8,321.3,156.3,319.6,155.7z"/>
				<circle class="st24" cx="175.4" cy="173.2" r="4.9"/>
				<g>
					<path class="st24" d="M251.6,137.5c-24.3-8.2-46.3-0.1-46.5,0l-2.4-6.4c1-0.4,24.5-9,51.1,0L251.6,137.5z"/>
				</g>
				<path class="st64" d="M169.2,238.2c14.9,13,35.7,21.1,58.7,21.1c44.4,0,80.6-30,81.9-67.5C264.9,251.8,198.4,244.4,169.2,238.2z
					"/>
				<path class="st65" d="M133.8,191.7c0,0-4.5-11.2,13.1-14.1C146.9,177.6,136.8,182.6,133.8,191.7z"/>
				<path class="st65" d="M149.5,125.1c0,0,6.4-3.6,11.7-2.6c0,0-8.1,6.7-4.8,26.7C156.4,149.1,149.5,138.2,149.5,125.1z"/>
				<path class="st66" d="M225.9,133.9c7.5-0.3,16.4,0.5,25.7,3.6l2.2-6.5L225.9,133.9L225.9,133.9z"/>
			</g>
			<g>
				<path class="st2" d="M241.2,68.3c-2.6,3.3-5.8,5.6-10.7,5.6c-7.1,0-12-4.5-13.8-11.3h-2.6c-1.1,0-2.1-0.9-2.1-2.1
					c0-1.1,0.9-2.1,2.1-2.1h1.9c0-0.6,0-1.2,0-1.8c0-0.7,0-1.5,0.1-2.2h-1.9c-1.1,0-2.1-0.9-2.1-2c0-1.1,0.9-2.1,2.1-2.1h2.7
					c1.9-6.4,6.8-11.1,13.6-11.1c5.1,0,8.1,2,10.6,4.9c0.4,0.4,0.8,1.1,0.8,2c0,1.5-1.3,2.8-2.8,2.8c-1,0-1.7-0.5-2.1-1
					c-1.8-2.2-3.7-3.4-6.6-3.4c-3.4,0-6,2.2-7.4,5.8h8.5c1.1,0,2,0.9,2,2.1c0,1.1-0.9,2-2,2h-9.4c-0.1,0.7-0.1,1.4-0.1,2.1
					c0,0.7,0,1.3,0,1.9h9.5c1.1,0,2,1,2,2.1c0,1.1-0.9,2.1-2,2.1h-8.6c1.3,3.8,4.1,6.1,7.8,6.1c2.9,0,4.7-1.4,6.5-3.6
					c0.5-0.6,1.1-1,2.1-1c1.4,0,2.6,1.1,2.6,2.6C241.8,67.3,241.5,67.9,241.2,68.3z"/>
			</g>
		</g>
	</g>
</g>
</svg>
