<?xml version="1.0" encoding="utf-8"?>
<!-- Generator: Adobe Illustrator 24.0.3, SVG Export Plug-In . SVG Version: 6.00 Build 0)  -->
<svg version="1.1" xmlns="http://www.w3.org/2000/svg" xmlns:xlink="http://www.w3.org/1999/xlink" x="0px" y="0px"
	 viewBox="0 0 418 290" style="enable-background:new 0 0 418 290;" xml:space="preserve">
<style type="text/css">
	.st0{display:none;}
	.st1{display:inline;}
	.st2{fill:#FFFFFF;}
	.st3{fill:none;stroke:#FFFFFF;stroke-width:2;stroke-miterlimit:10;}
	.st4{fill:none;stroke:#FFFFFF;stroke-width:2;stroke-linecap:round;stroke-linejoin:round;stroke-miterlimit:10;}
	.st5{fill:url(#SVGID_1_);}
	.st6{fill:none;stroke:#218AE5;stroke-miterlimit:10;}
	.st7{display:inline;fill:#F1F1F1;}
	.st8{display:inline;fill:url(#SVGID_2_);}
	.st9{display:inline;fill:none;stroke:#218AE5;stroke-width:2;stroke-miterlimit:10;}
	.st10{opacity:0.6;fill:#FFFFFF;}
	.st11{display:inline;fill:none;stroke:#218DE8;stroke-width:2;stroke-miterlimit:10;}
	.st12{fill:#218AE5;}
	.st13{fill:#CBCBCB;}
	.st14{fill:url(#SVGID_3_);}
	.st15{display:inline;fill:none;stroke:#808080;stroke-miterlimit:10;}
	.st16{fill:url(#SVGID_4_);}
	.st17{fill:none;stroke:#FFFFFF;stroke-width:2.0006;stroke-miterlimit:10;}
	.st18{fill:none;stroke:#FFFFFF;stroke-width:1.9294;stroke-miterlimit:10;}
	.st19{display:inline;fill:#FFFFFF;}
	.st20{fill:#CBE6F9;}
	.st21{fill:#2A2A55;}
	.st22{fill:#263E83;}
	.st23{fill:#F8D0A3;}
	.st24{fill:#283996;}
	.st25{fill:#DFB58B;}
	.st26{fill:#E2E2E2;}
	.st27{fill:#353854;}
	.st28{fill:#88CFFF;}
	.st29{fill:#73C3EF;}
	.st30{fill:#CCA079;}
	.st31{fill:#97C4E3;}
	.st32{fill:#BA8D6A;}
	.st33{fill:#027CCE;}
	.st34{fill:#008EED;}
	.st35{fill:#E6E6E6;}
	.st36{fill:#1A1A3A;}
	.st37{fill:#0563AF;}
	.st38{fill:url(#SVGID_5_);}
	.st39{fill:url(#SVGID_6_);}
	.st40{fill:url(#SVGID_7_);}
	.st41{fill:url(#SVGID_8_);}
	.st42{fill:url(#SVGID_9_);}
	.st43{fill:url(#SVGID_10_);}
	.st44{fill:url(#SVGID_11_);}
	.st45{fill:url(#SVGID_12_);}
	.st46{fill:url(#SVGID_13_);}
	.st47{fill:#1C2377;}
	.st48{fill:#CCCCCC;}
	.st49{fill:#218DE8;}
	.st50{fill:none;}
	.st51{fill:#FBFAFA;}
	.st52{fill:#80B4E2;}
	.st53{fill:#F2F2F2;}
	.st54{clip-path:url(#SVGID_15_);}
	.st55{fill:#629FCC;}
	.st56{fill:#127CC4;}
	.st57{fill:#2F2F65;}
	.st58{fill:#277DC4;}
	.st59{fill:#E4F2F6;}
	.st60{opacity:0.1;fill:#5C4A45;}
	.st61{fill:#37A5EF;}
	.st62{fill:#156FD1;}
	.st63{fill:#4BB9F7;}
	.st64{fill:#61A4D6;}
	.st65{fill:#A0CDEF;}
	.st66{fill:#182C7F;}
	.st67{fill:#E0B489;}
	.st68{fill:#7E492B;}
	.st69{fill:#BDC5E4;}
	.st70{fill:#121C60;}
	.st71{fill:#D1A278;}
	.st72{fill:#F7CFA2;}
	.st73{fill:#323658;}
	.st74{fill:#BDB69D;}
	.st75{fill:#343B57;}
	.st76{fill:#3D476E;}
	.st77{fill:#76C1DA;}
	.st78{fill:#E1D7D2;}
	.st79{fill:#809ED1;}
	.st80{fill:#29A9EF;}
	.st81{fill:#071E56;}
	.st82{fill:#2152A3;}
	.st83{fill:#2D59B2;}
	.st84{fill:#122C75;}
	.st85{fill:#0A154C;}
	.st86{fill:#6680BB;}
	.st87{fill:#142275;}
	.st88{fill:#546597;}
	.st89{fill:#6284EF;}
	.st90{fill:#174AC9;}
	.st91{fill:#0F45B2;}
	.st92{fill:#D9DDEE;}
	.st93{fill:#464B7A;}
	.st94{fill:#394AC4;}
	.st95{fill:#7D83D7;}
	.st96{fill:#CEA680;}
	.st97{fill:#343B5C;}
	.st98{fill:#0E1759;}
	.st99{fill:#025ECC;}
	.st100{clip-path:url(#SVGID_21_);fill:url(#SVGID_22_);}
	.st101{fill:url(#SVGID_23_);}
	.st102{fill:url(#SVGID_24_);}
	.st103{fill:url(#SVGID_25_);}
	.st104{fill:url(#SVGID_26_);}
	.st105{fill:url(#SVGID_27_);}
	.st106{fill:url(#SVGID_28_);}
	.st107{fill:url(#SVGID_29_);}
	.st108{fill:url(#SVGID_30_);}
	.st109{fill:url(#SVGID_31_);}
	.st110{clip-path:url(#SVGID_33_);}
</style>
<g id="Livello_1" class="st0">
	<rect x="-698" y="-987" class="st19" width="1970" height="2437"/>
</g>
<g id="BiancoSfondo">
</g>
<g id="Contattaci">
</g>
<g id="cosa_x27_altro_devi_sapere">
</g>
<g id="Come_funziona">
</g>
<g id="HEADER">
	<g>
		<path class="st20" d="M359,204.3c-0.4,24.4-6.6,51.3-26.7,65.3c-12.3,8.6-27.8,10.9-42.7,12.3c-75.1,7.1-155.3-3.7-215.5-49.1
			c-10.6-8-21.1-18.1-22.5-31.2c-1.1-9.5,2.8-18.8,7.5-27.2c9.1-16.4,21.5-30.7,34.3-44.4c31.3-33.2,66.3-62.8,104.1-88.3
			C216,29.3,252-0.5,276,5.6c12.6,3.2,20.7,15,27.3,26.2C334.3,84.5,360,143.1,359,204.3z"/>
		<g>
			<g>
				<circle class="st2" cx="171.5" cy="171.7" r="82.6"/>
				<g>
					<g>
						<path class="st21" d="M110.7,92.8c-2.1-2.1-5.3-2.3-7.5-0.2l-9.3,9.3c-2.1,2.1-2,5.3,0.2,7.5c1.9,1.9,4.7,2,7.1,0.4l5.4,5.4
							l9.9-10l-5.4-5.4C112.7,97.6,112.6,94.7,110.7,92.8z"/>
					</g>
					<g>
						<g>
							<g>
								<rect x="161.2" y="63.5" class="st21" width="22.6" height="27.4"/>
							</g>
							<g>
								<path class="st21" d="M190.9,65.4c0,0.9-0.8,1.7-1.7,1.7h-34.7c-0.9,0-1.7-0.8-1.7-1.7v-18c0-0.9,0.8-1.7,1.7-1.7h34.7
									c0.9,0,1.7,0.8,1.7,1.7V65.4z"/>
							</g>
						</g>
						<g>
							<path class="st47" d="M171.4,90.9c-19.8,0-35.9-15-35.9-33.5c0-18.4,16.1-33.5,35.9-33.5s35.9,15,35.9,33.5
								C207.3,75.9,191.2,90.9,171.4,90.9z M171.4,30.7c-16.1,0-29.1,12-29.1,26.7c0,14.7,13.1,26.7,29.1,26.7
								c16.1,0,29.1-12,29.1-26.7C200.6,42.7,187.5,30.7,171.4,30.7z"/>
						</g>
						<path class="st47" d="M170.9,257.6c-48.2,0-87.4-39.2-87.4-87.4c0-48.2,39.2-87.4,87.4-87.4c48.2,0,87.4,39.2,87.4,87.4
							C258.3,218.4,219.1,257.6,170.9,257.6z M170.9,92.9c-42.6,0-77.3,34.7-77.3,77.3c0,42.6,34.7,77.3,77.3,77.3
							c42.6,0,77.3-34.7,77.3-77.3C248.2,127.6,213.5,92.9,170.9,92.9z"/>
						<g>
							<path class="st48" d="M206.8,113.2l-5.4-3.1l-5.8,10c1.9,0.9,3.7,2,5.4,3.1L206.8,113.2z"/>
							<path class="st48" d="M230.1,138.8l-3.1-5.4l-10,5.8c1.1,1.7,2.2,3.5,3.1,5.4L230.1,138.8z"/>
							<path class="st48" d="M115.7,166.3h-11.6v6.3h11.6c-0.1-1-0.1-2.1-0.1-3.1C115.6,168.4,115.6,167.4,115.7,166.3z"/>
							<path class="st48" d="M140.2,110.1l-5.4,3.1l5.8,10c1.7-1.1,3.5-2.2,5.4-3.1L140.2,110.1z"/>
							<path class="st48" d="M225.9,172.6h11.6v-6.3h-11.6c0.1,1,0.1,2.1,0.1,3.1C226,170.5,226,171.5,225.9,172.6z"/>
							<path class="st48" d="M173.9,114.3v-11.6h-6.3v11.6c1-0.1,2.1-0.1,3.1-0.1S172.9,114.3,173.9,114.3z"/>
							<path class="st48" d="M111.4,200.1l3.1,5.4l10-5.8c-1.1-1.7-2.2-3.5-3.1-5.4L111.4,200.1z"/>
							<path class="st48" d="M201.4,228.8l5.4-3.1l-5.8-10c-1.7,1.1-3.5,2.2-5.4,3.1L201.4,228.8z"/>
							<path class="st48" d="M227,205.5l3.1-5.4l-10-5.8c-0.9,1.9-2,3.7-3.1,5.4L227,205.5z"/>
							<path class="st48" d="M114.6,133.4l-3.1,5.4l10,5.8c0.9-1.9,2-3.7,3.1-5.4L114.6,133.4z"/>
							<path class="st48" d="M134.7,225.7l5.4,3.1l5.8-10c-1.9-0.9-3.7-2-5.4-3.1L134.7,225.7z"/>
							<path class="st48" d="M167.7,224.6v11.6h6.3v-11.6c-1,0.1-2.1,0.1-3.1,0.1S168.7,224.6,167.7,224.6z"/>
							<path class="st49" d="M211.2,144.8c-9.9-16.8-26.6-22.7-39.5-23.1l-1,47.8L211.2,144.8z"/>
						</g>
						<g>
							<polyline class="st50" points="207.8,205.7 207.9,205.8 210.1,208 							"/>
							<line class="st50" x1="210.1" y1="129.6" x2="208" y2="131.7"/>
						</g>
					</g>
					<g>
						<path class="st21" d="M175,178.7c-4.9,3.6-11.1,2.8-14.3-2.4l-0.3-0.5c-3.1-5.2-0.9-11.1,4.5-13.7c12.2-6,37.3-15.6,48.4-20.1
							c2.3-0.9,3.5,1.9,2,3.2C204.6,154.2,186,170.7,175,178.7z"/>
					</g>
				</g>
			</g>
		</g>
	</g>
</g>
</svg>
