<?xml version="1.0" encoding="UTF-8"?>
<svg width="1557px" height="1058px" viewBox="0 0 1557 1058" version="1.1" xmlns="http://www.w3.org/2000/svg" xmlns:xlink="http://www.w3.org/1999/xlink">
    <!-- Generator: Sketch 54.1 (76490) - https://sketchapp.com -->
    <title>Sfondo motivo geometrico_FCA Bank</title>
    <desc>Created with Sketch.</desc>
    <g id="Page-1" stroke="none" stroke-width="1" fill="none" fill-rule="evenodd" opacity="0.2">
        <g id="Sfondo-motivo-geometrico_FCA-Bank" fill="#AABEE0" fill-rule="nonzero">
            <path d="M288.8,23.6 C288.7,23.6 288.8,23.7 288.9,23.8 C289,23.7 288.9,23.6 288.8,23.6 Z" id="Path"></path>
            <path d="M166.4,96.1 C133.8,116.1 112,152 112,193 C112,241.6 142.5,283 185.4,299.2 L285.6,289.2 C317.6,269.1 338.9,233.6 338.9,193 C338.9,130.3 288.1,79.5 225.4,79.5 C206,79.5 187.8,84.4 171.8,92.9 L172.4,101.6 L166.4,96.1 Z" id="Path"></path>
            <path d="M865,546.7 C813.7,546.7 772.2,588.3 772.2,639.5 C772.2,661.2 779.7,681.2 792.2,697 L812,673.4 L811,715 C826.2,725.9 844.9,732.4 865,732.4 C916.3,732.4 957.8,690.8 957.8,639.6 C957.8,588.4 916.2,546.7 865,546.7 Z" id="Path"></path>
            <path d="M737.5,937.4 C706.6,940 682.3,966 682.3,997.6 C682.3,1031 709.3,1058 742.7,1058 C776.1,1058 803.1,1031 803.1,997.6 C803.1,981.3 796.6,966.5 786.1,955.6 L742,986.7 L737.5,937.4 Z" id="Path"></path>
            <path d="M649.8,564.4 L680.2,578.7 L727.7,416.4 L666,427.3 C668.9,425.8 704.3,380.1 705.8,381.6 C706.6,382.4 720.2,390.1 733.2,397.5 L737.8,381.7 L421.1,289 L331.9,593.7 L363.4,602.9 L391.9,563.3 L504.5,644.2 L648.7,686.4 L667.6,621.9 L630.7,587.9 L649.8,564.4 Z" id="Path"></path>
            <polygon id="Path" points="271.4 731.1 445.7 856.4 566.3 688.6 504.5 644.3 363.4 603"></polygon>
            <polygon id="Path" points="363.4 603 504.5 644.3 391.9 563.3"></polygon>
            <polygon id="Path" points="363.4 603 504.5 644.3 391.9 563.3"></polygon>
            <polygon id="Path" points="1290.2 723.3 1325.8 678.4 1259.8 626.3 1249.6 626.3 1249.6 618.1 1126.5 520.8 974.9 712.4 1174.1 870.1 1240.4 786.3 1201.5 732.2"></polygon>
            <path d="M1463.2,440.6 C1463.2,433.4 1468.9,427.6 1476.1,427.4 L1556.5,122.9 L1336.4,64.8 L1343.9,72.3 L1305.6,72.3 L1292.1,53 L1123,8.4 L1084.1,155.7 L1186.2,182.8 L1159.7,194.6 L1080,171.3 L1066.2,223.4 L1126.6,242.8 L1040.4,321 L1012.8,425.5 L1127.9,455.9 L1177.3,448 L1188,471.7 L1277.1,495.2 C1283.1,478 1299.5,465.6 1318.8,465.6 C1343.2,465.6 1363,485.4 1363,509.8 C1363,512.5 1362.7,515.1 1362.3,517.6 L1446.4,539.8 L1469.6,451.8 C1465.8,449.6 1463.2,445.4 1463.2,440.6 Z M1301.1,336 L1302.6,291.8 L1335,294.7 L1352.7,347.7 L1301.1,336 Z M1428.2,207.6 L1447.7,159.2 L1497.7,174.3 L1481.6,225.5 L1428.2,207.6 Z" id="Shape"></path>
            <path d="M185.4,299.2 L114,306.3 L244.6,488.1 L336.8,284.1 L285.6,289.2 C268.2,300.1 247.6,306.5 225.5,306.5 C211.4,306.5 197.9,303.9 185.4,299.2 Z" id="Path"></path>
            <path d="M225.5,306.5 C247.6,306.5 268.2,300.2 285.6,289.2 L185.4,299.2 C197.9,303.9 211.4,306.5 225.5,306.5 Z" id="Path"></path>
            <path d="M225.5,306.5 C247.6,306.5 268.2,300.2 285.6,289.2 L185.4,299.2 C197.9,303.9 211.4,306.5 225.5,306.5 Z" id="Path"></path>
            <polygon id="Path" points="1240.4 786.3 1290.5 856.1 1295.2 851.7 1295.2 862.7 1332.1 914 1424.3 710 1290.2 723.3"></polygon>
            <polygon id="Path" points="1201.5 732.2 1240.4 786.3 1290.2 723.3"></polygon>
            <polygon id="Path" points="1201.5 732.2 1240.4 786.3 1290.2 723.3"></polygon>
            <polygon id="Path" points="710.2 89.9 478.9 193 650.4 316.7"></polygon>
            <path d="M721.7,763.7 L737.4,937.4 C739.1,937.3 740.9,937.2 742.6,937.2 C759.6,937.2 775,944.3 786,955.6 L924.8,857.7 L721.7,763.7 Z" id="Path"></path>
            <path d="M737.5,937.4 L742,986.7 L786.1,955.6 C775.1,944.3 759.7,937.2 742.7,937.2 C740.9,937.2 739.2,937.3 737.5,937.4 Z" id="Path"></path>
            <path d="M737.5,937.4 L742,986.7 L786.1,955.6 C775.1,944.3 759.7,937.2 742.7,937.2 C740.9,937.2 739.2,937.3 737.5,937.4 Z" id="Path"></path>
            <polygon id="Path" points="779.1 131.3 856.4 487.9 1040.4 320.9 1066.2 223.3"></polygon>
            <polygon id="Path" points="1066.2 223.3 1040.4 320.9 1126.6 242.7"></polygon>
            <polygon id="Path" points="1066.2 223.3 1040.4 320.9 1126.6 242.7"></polygon>
            <polygon id="Path" points="761.8 302.1 744.1 249 711.7 246.1 710.2 290.3"></polygon>
            <polygon id="Path" points="1302.6 291.8 1301.1 336 1352.7 347.8 1335 294.7"></polygon>
            <polygon id="Path" points="1302.6 291.8 1301.1 336 1352.7 347.8 1335 294.7"></polygon>
            <path d="M757.4,411.1 C757.4,411.1 745.6,404.5 733.2,397.5 L727.7,416.3 L757.4,411.1 Z" id="Path"></path>
            <path d="M666,427.3 L727.7,416.4 L733.2,397.6 C720.1,390.2 706.5,382.5 705.8,381.7 C704.4,380.2 669,425.9 666,427.3 Z" id="Path"></path>
            <path d="M666,427.3 L727.7,416.4 L733.2,397.6 C720.1,390.2 706.5,382.5 705.8,381.7 C704.4,380.2 669,425.9 666,427.3 Z" id="Path"></path>
            <polygon id="Path" points="761.8 552.6 814.9 533.4 795.7 483.3 747.1 502.5"></polygon>
            <polygon id="Path" points="1497.7 174.3 1447.7 159.1 1428.2 207.6 1481.7 225.5"></polygon>
            <polygon id="Path" points="1497.7 174.3 1447.7 159.1 1428.2 207.6 1481.7 225.5"></polygon>
            <polygon id="Path" points="988.7 471.5 981.4 452.4 963.7 458.3 966.6 477.4"></polygon>
            <polygon id="Path" points="1112.5 458.3 1109.6 498.1 1190.6 477.4 1188 471.7 1128 455.8"></polygon>
            <polygon id="Path" points="1128 455.8 1188 471.7 1177.4 448"></polygon>
            <polygon id="Path" points="1128 455.8 1188 471.7 1177.4 448"></polygon>
            <path d="M792.1,697 L781,710.2 L810.5,735.3 L811,715 C803.8,709.9 797.5,703.8 792.1,697 Z" id="Path"></path>
            <path d="M792.1,697 C797.5,703.8 803.8,709.9 810.9,715 L811.9,673.4 L792.1,697 Z" id="Path"></path>
            <path d="M792.1,697 C797.5,703.8 803.8,709.9 810.9,715 L811.9,673.4 L792.1,697 Z" id="Path"></path>
            <polygon id="Path" points="969.6 809 990.2 811.9 990.2 789.8"></polygon>
            <polygon id="Path" points="1274.6 870.9 1295.2 873.8 1295.2 862.7 1290.5 856.1"></polygon>
            <polygon id="Path" points="1290.5 856.1 1295.2 862.7 1295.2 851.7"></polygon>
            <polygon id="Path" points="1290.5 856.1 1295.2 862.7 1295.2 851.7"></polygon>
            <polygon id="Path" points="1035.9 884.1 1109.6 893 1115.5 869.4 1065.4 851.7"></polygon>
            <polygon id="Path" points="965.2 941.6 985.8 957.8 1012.3 957.8 966.6 916.5"></polygon>
            <rect id="Rectangle" x="882.6" y="795.7" width="35.4" height="32.4"></rect>
            <polygon id="Path" points="1284.9 626.3 1284.9 593.8 1249.6 593.8 1249.6 618.1 1259.8 626.3"></polygon>
            <polygon id="Path" points="1259.8 626.3 1249.6 618.1 1249.6 626.3"></polygon>
            <polygon id="Path" points="1259.8 626.3 1249.6 618.1 1249.6 626.3"></polygon>
            <polygon id="Path" points="549.6 873.8 593.8 894.4 630.7 853.2 608.6 853.2"></polygon>
            <polygon id="Path" points="605.6 739.7 593.8 710.2 546.7 738.2 554.1 789.8"></polygon>
            <polygon id="Path" points="272.6 851.7 272.6 873.8 389 891.5 369.9 873.8"></polygon>
            <polygon id="Path" points="1370.4 636.6 1370.4 658.7 1486.8 676.4 1467.6 658.7"></polygon>
            <polygon id="Path" points="232.8 726.5 254.9 726.5 256.4 667.5 232.8 648.4"></polygon>
            <polygon id="Path" points="69.3 660.1 66.3 689.6 125.3 677.8 120.8 664.6"></polygon>
            <polygon id="Path" points="336 536.4 244.6 531.9 231.3 558.5 305 580.6"></polygon>
            <polygon id="Path" points="319.8 393.4 341.9 442.1 365.4 440.6 346.3 400.8"></polygon>
            <polygon id="Path" points="393.4 246.1 356.6 221 355.1 252 394.9 291.8"></polygon>
            <polygon id="Path" points="439.1 176.8 421.4 142.9 417 176.8 436.2 187.1"></polygon>
            <path d="M334.5,107.6 L349.2,73.7 C349.2,73.7 291.9,27.4 288.9,23.8 C288.6,25.2 279.9,33.9 279.9,33.9 L334.5,107.6 Z" id="Path"></path>
            <path d="M171.8,93 L169.4,56 L106.1,0 L100.2,35.4 L166.4,96.2 C168.2,95.1 170,94 171.8,93 Z" id="Path"></path>
            <path d="M172.4,101.7 L171.8,93 C169.9,94 168.1,95 166.3,96.1 L172.4,101.7 Z" id="Path"></path>
            <path d="M172.4,101.7 L171.8,93 C169.9,94 168.1,95 166.3,96.1 L172.4,101.7 Z" id="Path"></path>
            <polygon id="Path" points="67.8 92.8 67.8 165 88.4 156.2"></polygon>
            <circle id="Oval" cx="98.7" cy="387.5" r="13.3"></circle>
            <path d="M1476.5,427.3 C1476.4,427.3 1476.3,427.3 1476.1,427.3 L1469.6,451.9 C1471.6,453.1 1473.9,453.8 1476.5,453.8 C1483.8,453.8 1489.8,447.9 1489.8,440.5 C1489.7,433.3 1483.8,427.3 1476.5,427.3 Z" id="Path"></path>
            <path d="M1463.2,440.6 C1463.2,445.4 1465.8,449.6 1469.6,451.9 L1476.1,427.3 C1469,427.5 1463.2,433.4 1463.2,440.6 Z" id="Path"></path>
            <path d="M1463.2,440.6 C1463.2,445.4 1465.8,449.6 1469.6,451.9 L1476.1,427.3 C1469,427.5 1463.2,433.4 1463.2,440.6 Z" id="Path"></path>
            <circle id="Oval" cx="44.2" cy="490.7" r="44.2"></circle>
            <path d="M1274.6,509.8 C1274.6,534.2 1294.4,554 1318.8,554 C1340.5,554 1358.6,538.3 1362.3,517.6 L1277.1,495.1 C1275.5,499.8 1274.6,504.7 1274.6,509.8 Z" id="Path"></path>
            <path d="M1318.8,465.6 C1299.5,465.6 1283.1,477.9 1277.1,495.2 L1362.3,517.7 C1362.8,515.2 1363,512.5 1363,509.9 C1363,485.4 1343.2,465.6 1318.8,465.6 Z" id="Path"></path>
            <path d="M1318.8,465.6 C1299.5,465.6 1283.1,477.9 1277.1,495.2 L1362.3,517.7 C1362.8,515.2 1363,512.5 1363,509.9 C1363,485.4 1343.2,465.6 1318.8,465.6 Z" id="Path"></path>
            <polygon id="Path" points="960.7 168 916.5 123.8 891.5 123.8 922.4 168"></polygon>
            <polygon id="Path" points="1299.7 28 1274.6 28 1292.1 53 1336.4 64.7"></polygon>
            <polygon id="Path" points="1343.9 72.2 1336.4 64.7 1292.1 53 1305.6 72.2"></polygon>
            <polygon id="Path" points="1343.9 72.2 1336.4 64.7 1292.1 53 1305.6 72.2"></polygon>
            <polygon id="Path" points="1063.9 150.3 1063.9 166.5 1080 171.2 1084.1 155.6"></polygon>
            <polygon id="Path" points="1186.2 182.7 1084.1 155.6 1080 171.2 1159.7 194.5"></polygon>
            <polygon id="Path" points="1186.2 182.7 1084.1 155.6 1080 171.2 1159.7 194.5"></polygon>
            <polygon id="Path" points="747.1 610 680.3 578.7 667.6 622 705.8 657.2"></polygon>
            <polygon id="Path" points="649.8 564.4 630.7 587.9 667.6 622 680.3 578.7"></polygon>
            <polygon id="Path" points="649.8 564.4 630.7 587.9 667.6 622 680.3 578.7"></polygon>
        </g>
    </g>
</svg>