<?xml version="1.0" encoding="UTF-8"?>
<svg width="18px" height="18px" viewBox="0 0 30 20" version="1.1" xmlns="http://www.w3.org/2000/svg" xmlns:xlink="http://www.w3.org/1999/xlink">
    <title>Pulsanti / CTA / Chat / Default</title>
    <defs></defs>
    <g id="Pulsanti" stroke="none" stroke-width="1" fill="none" fill-rule="evenodd">
        <g id="CTA-Chat">
            <g id="Pulsanti-/-CTA-/-Chat-/-Default" >
                <g id="Group-8" fill="#E62F31">
                    <path d="M12.7334,20.6541 C11.0164,20.6541 9.3314,20.1711 7.8584,19.2561 C7.5714,19.0771 7.2084,19.0571 6.9014,19.2031 L3.7514,20.7031 C3.6554,20.7491 3.5414,20.7291 3.4664,20.6541 C3.3914,20.5791 3.3724,20.4661 3.4184,20.3701 L4.9184,17.2201 C5.0634,16.9131 5.0444,16.5521 4.8644,16.2621 C3.9504,14.7911 3.4664,13.1061 3.4664,11.3881 C3.4664,6.2791 7.6244,2.1231 12.7334,2.1231 C17.8424,2.1231 22.0004,6.2791 22.0004,11.3881 C22.0004,16.4971 17.8424,20.6541 12.7334,20.6541 M12.7334,0.1231 C6.5204,0.1231 1.4664,5.1771 1.4664,11.3881 C1.4664,13.2951 1.9554,15.1681 2.8834,16.8391 L0.0964,22.6911 C-0.0846,23.0721 -0.0066,23.5281 0.2934,23.8271 C0.4404,23.9751 0.8884,24.2821 1.4294,24.0231 L7.2824,21.2371 C8.9544,22.1651 10.8274,22.6541 12.7334,22.6541 C18.9464,22.6541 24.0004,17.6001 24.0004,11.3881 C24.0004,5.1771 18.9464,0.1231 12.7334,0.1231" id="Fill-45"></path>
                    <path d="M8,8.1224 C7.172,8.1224 6.5,8.7934 6.5,9.6224 C6.5,10.4504 7.172,11.1224 8,11.1224 C8.828,11.1224 9.5,10.4504 9.5,9.6224 C9.5,8.7934 8.828,8.1224 8,8.1224" id="Fill-47"></path>
                    <path d="M17.5,8.1224 C16.672,8.1224 16,8.7934 16,9.6224 C16,10.4504 16.672,11.1224 17.5,11.1224 C18.328,11.1224 19,10.4504 19,9.6224 C19,8.7934 18.328,8.1224 17.5,8.1224" id="Fill-49"></path>
                    <path d="M15.25,12.6385 L10.283,12.6385 C10.007,12.6385 9.783,12.8625 9.783,13.1385 C9.783,14.7835 11.121,16.1215 12.767,16.1215 C14.412,16.1215 15.75,14.7835 15.75,13.1385 C15.75,12.8625 15.526,12.6385 15.25,12.6385" id="Fill-51"></path>
                </g>
            </g>
        </g>
    </g>
</svg>