<?xml version="1.0" encoding="UTF-8"?>
<svg width="182px" height="65px" viewBox="0 0 182 65" version="1.1" xmlns="http://www.w3.org/2000/svg" xmlns:xlink="http://www.w3.org/1999/xlink">
    <!-- Generator: Sketch 50.2 (55047) - http://www.bohemiancoding.com/sketch -->
    <title>Pulsanti / CTA / Chat / Hover</title>
    <desc>Created with Sketch.</desc>
    <defs></defs>
    <g id="Pulsanti" stroke="none" stroke-width="1" fill="none" fill-rule="evenodd">
        <g id="CTA-Chat" transform="translate(-515.000000, -93.000000)">
            <g id="Pulsanti-/-CTA-/-Chat-/-Hover" transform="translate(515.000000, 93.000000)">
                <g id="Pulsanti-/-CTA-/-Chat-/-Default">
                    <rect id="BG-CTA" fill="#FFFFFF" x="0" y="0" width="182" height="65" rx="32.5"></rect>
                    <text id="CHAT" font-family="Roboto-Bold, Roboto" font-size="23.4" font-weight="bold" line-spacing="39" fill="#C30505">
                        <tspan x="84.5" y="35">CHAT</tspan>
                    </text>
                    <g id="ICONA-CHAT" transform="translate(27.300000, 15.600000)">
                        <path d="M20.9625,29.25 L13.65,35.1 L13.65,29.25 L9.75,29.25 C4.36522369,29.25 1.27440913e-15,24.8847763 -1.77635684e-15,19.5 L-1.77635684e-15,9.75 C-2.43580175e-15,4.36522369 4.36522369,-7.87189478e-16 9.75,-1.77635684e-15 L33.15,-1.77635684e-15 C38.5347763,-2.7655242e-15 42.9,4.36522369 42.9,9.75 L42.9,19.5 C42.9,24.8847763 38.5347763,29.25 33.15,29.25 L20.9625,29.25 Z" id="Combined-Shape" stroke="#C30505" stroke-width="2.6" fill="#FFFFFF"></path>
                        <rect id="Rectangle-2" fill="#C30505" x="7.8" y="6.5" width="27.3" height="2.6"></rect>
                        <rect id="Rectangle-2" fill="#C30505" x="7.8" y="13" width="27.3" height="2.6"></rect>
                        <rect id="Rectangle-2" fill="#C30505" x="7.8" y="19.5" width="18.2" height="2.6"></rect>
                    </g>
                </g>
            </g>
        </g>
    </g>
</svg>