<?xml version="1.0" encoding="UTF-8"?>
<svg width="94px" height="74px" viewBox="0 0 94 74" version="1.1" xmlns="http://www.w3.org/2000/svg" xmlns:xlink="http://www.w3.org/1999/xlink">
    <title>egyptian-cat</title>
    <defs>
        <rect id="path-1" x="0" y="0" width="94" height="74"></rect>
        <filter id="filter-3">
            <feColorMatrix in="SourceGraphic" type="matrix" values="0 0 0 0 0.003922 0 0 0 0 0.392157 0 0 0 0 0.949020 0 0 0 1.000000 0"></feColorMatrix>
        </filter>
    </defs>
    <g id="PET" stroke="none" stroke-width="1" fill="none" fill-rule="evenodd">
        <g id="TIM-PET/Funnel1" transform="translate(-467.000000, -299.000000)">
            <g id="egyptian-cat" transform="translate(467.000000, 299.000000)">
                <mask id="mask-2" fill="white">
                    <use xlink:href="#path-1"></use>
                </mask>
                <use id="Mask" fill="#FFFFFF" xlink:href="#path-1"></use>
                <g filter="url(#filter-3)">
                    <g mask="url(#mask-2)">
                        <g transform="translate(9.000000, 14.000000)" fill="#000000" fill-rule="nonzero" id="Shape">
                            <path d="M53.4706055,93.2526178 L52.8500617,68.5039165 C52.8006264,66.5360284 53.1069955,64.5929121 53.7602793,62.7287297 L60.3156667,44.0218268 C60.7868202,42.6772223 60.9784906,41.2769861 60.8854741,39.8603754 L59.9230026,25.2017715 C59.9390474,25.1895955 59.9559595,25.1767898 59.9717874,25.1646138 C61.5749671,23.9373604 62.4715249,22.0261535 62.3704859,20.0517576 C62.297417,18.6277993 62.1703595,16.6130967 61.9799901,15.1018074 C61.9628611,14.9666122 61.9279528,14.834356 61.8756988,14.7079778 C61.7770449,14.4692869 61.654107,14.2278669 61.5047169,13.9818284 L61.5558868,13.9234677 C61.9706667,13.4509143 62.2187108,12.8498834 62.2544863,12.2312183 C62.4051774,9.6247218 62.7152325,3.34192315 62.3433832,1.30097927 C62.2564377,0.824017273 61.9474668,0.412133721 61.505801,0.184569107 C61.0639184,-0.0432054361 60.5387762,-0.0608395943 60.0814992,0.135865242 C59.4468621,0.408984764 58.3456247,1.04507404 56.108892,3.40469235 C56.0898116,3.42400596 56.0709482,3.44373942 56.0527351,3.46389274 C54.7817263,4.80828738 53.5215586,6.30614117 52.5629898,7.48867942 L45.8549599,7.48867942 C44.896608,6.30614117 43.6364402,4.80849731 42.3656482,3.4643126 C42.3467847,3.44331956 42.3274876,3.4229563 42.30754,3.40301291 C40.0716746,1.04444425 38.970654,0.408564903 38.3364505,0.135655311 C37.8793904,-0.0610495247 37.3540314,-0.0429955056 36.9121487,0.184359177 C36.4702661,0.41171386 36.161512,0.823597412 36.0745665,1.30055941 C35.7022836,3.3429728 36.0127723,9.62493173 36.1634634,12.2310084 C36.199239,12.8498834 36.4474998,13.4511242 36.8622797,13.9236777 L36.9132328,13.9816185 C36.7640595,14.227657 36.6409048,14.468867 36.5422509,14.707558 C36.4899969,14.834146 36.4548718,14.9666122 36.4379597,15.1018074 C36.2475902,16.6133066 36.1207495,18.6277993 36.0476806,20.0517576 C35.9700584,21.5668257 36.4819745,23.0434765 37.4479152,24.2037621 L33.3944334,31.3980788 L21.0908858,35.5034788 C12.5628545,38.3490861 6.17528712,45.4336091 4.42033225,53.9922639 C2.18338273,64.9033992 -0.390724545,79.8789982 0.0496403359,89.2597406 C0.1671577,91.7635811 0.850146068,94.2078014 2.0253197,96.3283089 C3.48864939,98.9690241 5.9742934,102 12.2599546,102 C35.7416605,102 53.35294,102 65.0937929,102 C65.9767814,102 67.3012641,102 69.0672411,102 C71.557872,102 75.2452179,98.5580525 73.5842877,97.6265188 C69.492696,95.3317472 62.7881352,93.8737802 53.4706055,93.2526178 Z M39.9188153,5.53947515 C39.9333424,5.5556398 39.9485199,5.57138458 39.9636974,5.58691943 C41.4753783,7.18574978 43.0076573,9.06420749 43.7886491,10.0447926 C44.1639674,10.5160865 44.7658645,10.7283262 45.3395747,10.6372164 L53.0788086,10.6372164 C53.6531693,10.7283262 54.2544159,10.5158766 54.6297343,10.0447926 C55.4146289,9.05937909 56.9583994,7.16664611 58.4774522,5.5625675 C58.4802709,5.55941854 58.4833064,5.55647952 58.4861251,5.55354049 C58.7712457,5.25229029 59.0316485,4.98651833 59.2692851,4.75160615 C59.2610459,6.8509107 59.1476481,9.60939688 59.0132187,11.9578889 L58.2092438,12.8736055 C57.6979782,13.4559526 57.6925577,14.3099497 58.1964513,14.8985947 C58.5043381,15.2579956 58.6799637,15.5275463 58.7803522,15.7169036 C58.9434021,17.1085326 59.0559326,18.909316 59.1224968,20.2077359 C59.1717153,21.1675379 58.7352533,22.09711 57.9551288,22.6941522 C56.1019537,24.1126523 52.5955131,26.6861897 49.9344603,27.9843997 C49.4804356,28.2058763 48.9381646,28.2058763 48.4843567,27.9843997 C45.8226535,26.6857699 42.3166465,24.1126523 40.4639051,22.6941522 C39.6835638,22.0969001 39.2473185,21.167328 39.2963202,20.2077359 C39.3628845,18.909316 39.4751981,17.1087425 39.638248,15.7169036 C39.7386365,15.5273364 39.914262,15.2575758 40.2221489,14.8985947 C40.7262593,14.3101596 40.7210556,13.4561625 40.2095732,12.8736055 L39.4055983,11.9578889 C39.270952,9.60939688 39.1575543,6.8509107 39.1493151,4.75160615 C39.382832,4.98294951 39.6386817,5.244103 39.9188153,5.53947515 Z M69.0670243,98.8508332 L12.2597378,98.8508332 C7.97469045,98.8508332 6.26353356,97.3158218 4.89105217,94.8394821 C3.94462543,93.1316979 3.3938983,91.1528934 3.29849675,89.1167779 C2.87287575,80.0513511 5.40838875,65.3457227 7.61042998,54.6054707 C9.14075757,47.1413934 14.7122081,40.9627202 22.1507103,38.4805025 L35.0500839,34.1762984 C35.4334247,34.0484508 35.7536704,33.7864576 35.9477258,33.4417518 L39.9680338,26.3064255 C42.155548,27.9157524 44.7964364,29.7114975 47.0205934,30.796628 C47.7059668,31.1308373 48.4574708,31.2981519 49.2091917,31.2981519 C49.9609125,31.2981519 50.7126334,31.1310473 51.39779,30.796628 C53.0894329,29.9713914 55.0221816,28.7342712 56.8139961,27.4809864 L57.63987,40.0598094 C57.7057838,41.0641167 57.5698366,42.0568778 57.2359312,43.009962 L50.6805438,61.7168649 C49.9041052,63.932261 49.5402784,66.241496 49.5990371,68.5801212 L50.2176294,93.2524079 L47.941652,93.2524079 L44.3714658,67.3278861 C44.3669126,67.2934575 44.3608416,67.2592388 44.3536864,67.2252301 L39.728229,44.9726019 C39.5510857,44.1202842 38.6944231,43.5681671 37.8130429,43.7396803 C36.93253,43.9111935 36.3625057,44.7412585 36.539649,45.593996 L41.154699,67.7956111 L41.6197816,71.1727624 C40.0341644,67.5432747 37.3633547,64.4165705 33.8239572,62.1621274 C33.0741877,61.6845356 32.0655332,61.885649 31.5716133,62.6122183 C31.0781271,63.3385776 31.2860591,64.3149642 32.0364791,64.7929758 C36.79745,67.8256312 39.7006927,72.725408 40.0016412,78.2354526 C40.3023729,83.7457072 37.9489901,88.914405 33.5446908,92.4162549 L32.4928888,93.2526178 L28.1007315,93.2526178 C22.5858714,93.2526178 17.2095605,91.7402788 12.5530976,88.8791366 C11.7946552,88.4128811 10.7899035,88.6307889 10.3087761,89.3649157 C9.82764873,90.0990425 10.0520592,91.0718602 10.8105015,91.5379059 C15.9886375,94.7196118 21.9677128,96.4013647 28.1007315,96.4013647 L69.0674579,96.4013647 C69.7647565,96.4013647 70.3321789,96.9507527 70.3321789,97.625889 C70.3321789,98.3010254 69.7643229,98.8508332 69.0670243,98.8508332 Z M44.6602723,93.2526178 L37.4004312,93.2526178 C40.5371908,90.1229746 42.509401,86.1687245 43.0948196,81.8836241 L44.6602723,93.2526178 Z"></path>
                        </g>
                    </g>
                </g>
            </g>
        </g>
    </g>
</svg>