<?xml version="1.0" encoding="UTF-8"?>
<svg width="71px" height="74px" viewBox="0 0 71 74" version="1.1" xmlns="http://www.w3.org/2000/svg" xmlns:xlink="http://www.w3.org/1999/xlink">
    <title>007-thumbs up</title>
    <defs>
        <filter id="filter-1">
            <feColorMatrix in="SourceGraphic" type="matrix" values="0 0 0 0 0.003922 0 0 0 0 0.392157 0 0 0 0 0.949020 0 0 0 1.000000 0"></feColorMatrix>
        </filter>
    </defs>
    <g id="PET" stroke="none" stroke-width="1" fill="none" fill-rule="evenodd">
        <g id="007-thumbs-up" transform="translate(-336.000000, -299.000000)" filter="url(#filter-1)">
            <g transform="translate(336.000000, 299.000000)">
                <path d="M0.997077682,70.7577828 C0.050399294,70.2172556 -0.280938142,69.0138919 0.259457438,68.0669828 C8.39694708,53.800219 12.1876051,40.1331642 12.1876051,25.0536367 L12.1876051,14.164182 C12.1876051,6.35218191 18.5421838,0 26.348336,0 L38.5368203,0 C43.0256536,0 47.1673716,2.06741821 49.8930164,5.67356372 L51.7074833,8.08029103 C53.6205626,10.6566729 56.6736004,12.1875093 59.8765289,12.1875093 L62.9137888,12.1875093 C67.3710662,12.1875093 71,15.8173275 71,20.2756912 L71,22.6035094 C71,25.6336186 69.256534,28.4625095 66.5585006,29.811855 L50.5438578,37.8211278 C48.6426121,38.7719824 47.7748235,41.0485097 48.5716112,43.0054552 L52.5910498,52.6994371 C60.8571429,71.0181828 61.8669331,73.498666 60.8571429,73.9168842 C59.8591861,74.3351024 59.4081633,73.9168842 48.946338,54.2066008 L44.9229549,44.5007825 C43.3530466,40.6342369 45.0491787,36.1522005 48.7806693,34.2899459 L64.7953121,26.2806731 C66.1679957,25.5981095 67.0555067,24.1580185 67.0555067,22.6074549 L67.0555067,20.2796367 C67.0555067,17.9557639 65.2370953,16.1369093 62.9137888,16.1369093 L59.8765289,16.1369093 C55.4350295,16.1369093 51.1986437,14.0103093 48.5479442,10.4515092 L46.7413663,8.0566183 C44.7730642,5.44472735 41.7791937,3.9454546 38.5368203,3.9454546 L26.348336,3.9454546 C20.7155996,3.9454546 16.1320984,8.53007285 16.1320984,14.164182 L16.1320984,25.0536367 C16.1320984,40.8472915 12.1757717,55.1377281 3.68327761,70.0199828 C3.32038423,70.6630919 2.65376486,71.0181828 1.97136752,71.0181828 C1.64003009,71.0181828 1.30474816,70.9353283 0.997077682,70.7577828 Z" id="Path" fill="#000000" fill-rule="nonzero"></path>
                <path d="M26.656814,39 C24.6733082,39 22.8326474,37.8888546 21.9755769,36.1652049 L12.2008927,16.6514494 C11.7152194,15.6737984 12.1396733,14.499832 13.155914,14.028675 C14.1721547,13.5614442 15.3883784,13.9697803 15.878133,14.9474313 L25.6528172,34.4651131 C25.9670764,35.0893963 27.6689734,35.1443646 27.762843,34.1038927 L30.9299223,1.7864436 C31.0360358,0.706708634 32.0277888,-0.125668868 33.1501429,0.0156782552 C34.272497,0.117762288 35.0969172,1.07578168 34.9908037,2.15159033 L31.8278057,34.4651131 C31.5829284,37.0446981 29.3627078,39 26.656814,39 Z" id="Path" fill="#000000" fill-rule="nonzero"></path>
            </g>
        </g>
    </g>
</svg>