<?xml version="1.0" encoding="UTF-8"?>
<svg width="34px" height="35px" viewBox="0 0 34 35" version="1.1" xmlns="http://www.w3.org/2000/svg" xmlns:xlink="http://www.w3.org/1999/xlink">
    <!-- Generator: Sketch 62 (91390) - https://sketch.com -->
    <title>fibra</title>
    <desc>Created with Sketch.</desc>
    <defs>
        <polygon id="path-1" points="0 0.0581378378 33.9147872 0.0581378378 33.9147872 34.597973 0 34.597973"></polygon>
    </defs>
    <g id="Symbols" stroke="none" stroke-width="1" fill="none" fill-rule="evenodd">
        <g id="Style/Typography/Bollino/Fibra">
            <g id="fibra">
                <g id="Group-3" transform="translate(0.000000, 0.107436)">
                    <g id="Fill-1-Clipped">
                        <mask id="mask-2" fill="white">
                            <use xlink:href="#path-1"></use>
                        </mask>
                        <g id="path-1"></g>
                        <path d="M16.9573605,34.5980061 C26.322651,34.5980061 33.9148368,26.8669318 33.9148368,17.3279892 C33.9148368,7.78904662 26.322651,0.0581378378 16.9573605,0.0581378378 C7.59206993,0.0581378378 -0.000115878378,7.78904662 -0.000115878378,17.3279892 C-0.000115878378,26.8669318 7.59206993,34.5980061 16.9573605,34.5980061" id="Fill-1" fill="#42AB34" fill-rule="nonzero" mask="url(#mask-2)"></path>
                    </g>
                </g>
                <path d="M13.0147807,20.9461757 L13.0147807,8.17737162 C13.0147807,7.90058784 13.0331557,7.90058784 13.8082166,7.90058784 L21.5210814,7.90058784 C21.7794902,7.90058784 21.8347807,7.93750338 21.8347807,8.87860135 L21.8347807,9.02626351 C21.8347807,9.93028041 21.7609497,10.041027 21.5210814,10.041027 L15.7087875,10.041027 L15.7087875,13.399348 L20.6723551,13.399348 C20.9305983,13.399348 20.9860544,13.4362635 20.9860544,14.3771959 L20.9860544,14.5248581 C20.9860544,15.4290405 20.9122233,15.5397872 20.6723551,15.5397872 L15.7087875,15.5397872 L15.7087875,20.9461757 C15.7087875,21.1676689 15.5427503,21.1860439 14.4539902,21.1860439 L14.232497,21.1860439 C13.0700713,21.1860439 13.0147807,21.1860439 13.0147807,20.9461757" id="Fill-4" fill="#FEFEFE" fill-rule="nonzero"></path>
                <path d="M9.31533041,28.9487034 L9.31533041,23.8181054 C9.31533041,23.7518892 9.38154662,23.7446054 9.62406351,23.7446054 L12.5862459,23.7446054 C12.6744791,23.7446054 12.6964959,23.7666223 12.6964959,24.0755209 L12.6964959,24.1268385 C12.6964959,24.4208385 12.6671953,24.4648723 12.5862459,24.4648723 L10.2195128,24.4648723 L10.2195128,26.0010885 L12.2334791,26.0010885 C12.3217122,26.0010885 12.3364453,26.0232709 12.3364453,26.3318385 L12.3364453,26.3760378 C12.3364453,26.6774872 12.3144284,26.7215209 12.2334791,26.7215209 L10.2195128,26.7215209 L10.2195128,28.9487034 C10.2195128,29.0296527 10.1605804,29.0369365 9.80052973,29.0369365 L9.72702973,29.0369365 C9.34479662,29.0369365 9.31533041,29.0296527 9.31533041,28.9487034" id="Fill-6" fill="#FEFEFE" fill-rule="nonzero"></path>
                <path d="M13.255576,28.9414361 L13.255576,25.2515375 C13.255576,25.1780375 13.2848767,25.1560206 13.659826,25.1560206 L13.7038598,25.1560206 C14.0567922,25.1560206 14.100826,25.1780375 14.100826,25.2515375 L14.100826,28.9414361 C14.100826,29.0074868 14.0567922,29.036953 13.7038598,29.036953 L13.659826,29.036953 C13.2775929,29.036953 13.255576,29.0074868 13.255576,28.9414361 M13.1378767,23.9210882 C13.1378767,23.6269226 13.3731098,23.377122 13.6818429,23.377122 C13.990576,23.377122 14.2258091,23.6269226 14.2258091,23.9210882 C14.2258091,24.2150882 13.990576,24.4648889 13.6818429,24.4648889 C13.3731098,24.4648889 13.1378767,24.2150882 13.1378767,23.9210882" id="Fill-8" fill="#FEFEFE" fill-rule="nonzero"></path>
                <path d="M17.4454236,27.0377199 C17.4454236,26.2585206 17.1807243,25.8175206 16.5707074,25.8175206 C16.3061736,25.8175206 16.0414743,25.9130375 15.9092074,26.0527537 C15.776775,26.1924699 15.7694912,26.3318551 15.7694912,26.6700544 L15.7694912,28.301953 C15.9312243,28.3607199 16.1590081,28.3901861 16.3649405,28.3901861 C17.1441399,28.3901861 17.4454236,27.8902537 17.4454236,27.0377199 M15.0272074,28.8679361 C14.9462581,28.8311861 14.9242412,28.779703 14.9242412,28.6914699 L14.9242412,23.5461389 C14.9242412,23.4726389 14.9609912,23.450622 15.3284912,23.450622 L15.3726905,23.450622 C15.7107243,23.450622 15.7694912,23.4726389 15.7694912,23.5461389 L15.7694912,25.4793213 C16.0194574,25.2293551 16.3722243,25.0823551 16.7839236,25.0823551 C17.7834574,25.0823551 18.3201399,25.8835713 18.3201399,27.0229868 C18.3201399,28.3974699 17.6439068,29.110453 16.3574912,29.110453 C15.8429912,29.110453 15.299025,28.9929193 15.0272074,28.8679361" id="Fill-10" fill="#FEFEFE" fill-rule="nonzero"></path>
                <path d="M18.9379537,28.9414361 L18.9379537,26.7510037 C18.9379537,26.2290544 18.9232206,25.6630713 18.9012037,25.2662706 C18.8937544,25.1853213 18.9232206,25.1560206 19.2687037,25.1560206 L19.3127375,25.1560206 C19.6214706,25.1560206 19.6802375,25.1705882 19.6876868,25.2368044 C19.7024199,25.3690713 19.7391699,25.7292875 19.753903,26.0232875 C19.9816868,25.4203889 20.3346193,25.0896389 20.7901868,25.0896389 C20.8636868,25.0896389 20.929903,25.0970882 20.9886699,25.1191051 C21.0621699,25.1485713 21.0621699,25.1853213 21.0621699,25.4203889 L21.0621699,25.5087875 C21.0621699,25.8175206 21.0328693,25.8469868 20.9592037,25.8542706 C20.5551193,25.8835713 20.2829706,26.0600375 20.084653,26.3393044 C19.8567037,26.6627706 19.7832037,27.1332368 19.7832037,27.9564699 L19.7832037,28.9414361 C19.7832037,29.0149361 19.7391699,29.036953 19.3862375,29.036953 L19.3494875,29.036953 C18.9599706,29.036953 18.9379537,29.0149361 18.9379537,28.9414361" id="Fill-12" fill="#FEFEFE" fill-rule="nonzero"></path>
                <path d="M23.6570676,28.1402365 C23.7746014,27.9930709 23.8115169,27.8389527 23.8115169,27.5007534 L23.8115169,26.2510878 C23.6423345,25.9938378 23.3778007,25.8248209 23.0543345,25.8248209 C22.4588851,25.8248209 22.1428682,26.3098547 22.1428682,27.1332534 C22.1428682,27.8242196 22.3486351,28.3902027 23.0323176,28.3902027 C23.3043007,28.3902027 23.5320845,28.2946858 23.6570676,28.1402365 M21.268152,27.1700034 C21.268152,25.8395541 21.9958682,25.0823716 22.9073345,25.0823716 C23.3410507,25.0823716 23.7012669,25.2808547 23.8848514,25.5453885 L23.9143176,25.2441047 C23.9217669,25.1778885 23.9585169,25.1560372 24.2818176,25.1560372 L24.3260169,25.1560372 C24.63475,25.1560372 24.6715,25.1778885 24.6715,25.2515541 C24.6715,25.3323378 24.6715,25.3985541 24.6640507,25.6043209 C24.6567669,25.9056047 24.6567669,26.3173041 24.6567669,26.6848041 L24.6567669,27.3242872 C24.6567669,27.9197365 24.6787838,28.4930034 24.70825,28.9267196 C24.7155338,29.0149527 24.7008007,29.0369696 24.3627669,29.0369696 L24.3333007,29.0369696 C24.0245676,29.0369696 23.9805338,29.0149527 23.9585169,28.9487365 C23.9363345,28.8752365 23.9143176,28.7429696 23.9070338,28.6401689 C23.6790845,28.9267196 23.2675507,29.1104696 22.8411182,29.1104696 C21.8341351,29.1104696 21.268152,28.3312703 21.268152,27.1700034" id="Fill-14" fill="#FEFEFE" fill-rule="nonzero"></path>
            </g>
        </g>
    </g>
</svg>