<svg width="412" height="22" viewBox="0 0 412 22" fill="none" xmlns="http://www.w3.org/2000/svg">
<line y1="10.5" x2="114.5" y2="10.5" stroke="#C0C0C0"/>
<path d="M124.66 17C124.324 17 124.114 16.994 124.03 16.982C123.958 16.958 123.922 16.898 123.922 16.802V4.238C123.922 4.142 123.958 4.088 124.03 4.076C124.102 4.052 124.294 4.04 124.606 4.04H124.75C125.134 4.04 125.374 4.052 125.47 4.076C125.578 4.1 125.668 4.16 125.74 4.256L130.186 10.754C131.242 12.29 132.1 13.586 132.76 14.642C132.736 12.986 132.724 11.624 132.724 10.556V4.238C132.724 4.154 132.76 4.1 132.832 4.076C132.916 4.052 133.114 4.04 133.426 4.04H133.57C133.894 4.04 134.098 4.052 134.182 4.076C134.266 4.1 134.308 4.154 134.308 4.238V16.802C134.308 16.898 134.272 16.958 134.2 16.982C134.128 16.994 133.93 17 133.606 17H133.48C133.096 17 132.85 16.988 132.742 16.964C132.646 16.94 132.568 16.88 132.508 16.784L128.062 10.286C127.126 8.942 126.262 7.658 125.47 6.434C125.494 8.21 125.506 9.674 125.506 10.826V16.802C125.506 16.886 125.464 16.94 125.38 16.964C125.308 16.988 125.11 17 124.786 17H124.66ZM140.668 17.18C139.54 17.18 138.64 16.88 137.968 16.28C137.02 15.44 136.546 14.168 136.546 12.464C136.546 10.796 136.948 9.524 137.752 8.648C138.556 7.76 139.648 7.316 141.028 7.316C142.156 7.316 143.056 7.616 143.728 8.216C144.676 9.056 145.15 10.328 145.15 12.032C145.15 13.7 144.748 14.978 143.944 15.866C143.14 16.742 142.048 17.18 140.668 17.18ZM140.74 15.74C141.532 15.74 142.18 15.446 142.684 14.858C143.2 14.27 143.458 13.37 143.458 12.158C143.458 11.558 143.392 11.018 143.26 10.538C143.128 10.058 142.864 9.644 142.468 9.296C142.072 8.936 141.568 8.756 140.956 8.756C140.164 8.756 139.51 9.05 138.994 9.638C138.49 10.226 138.238 11.126 138.238 12.338C138.238 12.938 138.304 13.478 138.436 13.958C138.568 14.438 138.832 14.858 139.228 15.218C139.624 15.566 140.128 15.74 140.74 15.74ZM148.145 17C147.917 17 147.743 16.994 147.623 16.982C147.515 16.958 147.443 16.934 147.407 16.91C147.383 16.886 147.371 16.844 147.371 16.784V10.646C147.371 10.178 147.365 9.596 147.353 8.9C147.341 8.192 147.335 7.796 147.335 7.712C147.335 7.652 147.347 7.61 147.371 7.586C147.395 7.562 147.461 7.544 147.569 7.532C147.689 7.508 147.857 7.496 148.073 7.496H148.163C148.475 7.496 148.673 7.514 148.757 7.55C148.853 7.574 148.901 7.628 148.901 7.712L148.919 8.522H148.937C149.249 8.162 149.675 7.874 150.215 7.658C150.755 7.43 151.307 7.316 151.871 7.316C152.903 7.316 153.725 7.634 154.337 8.27C154.949 8.894 155.255 9.914 155.255 11.33V16.784C155.255 16.832 155.243 16.874 155.219 16.91C155.207 16.934 155.141 16.958 155.021 16.982C154.913 16.994 154.745 17 154.517 17H154.409C154.181 17 154.007 16.994 153.887 16.982C153.779 16.958 153.707 16.934 153.671 16.91C153.647 16.886 153.635 16.844 153.635 16.784V12.086C153.635 11.294 153.605 10.718 153.545 10.358C153.485 9.986 153.353 9.68 153.149 9.44C152.825 9.044 152.255 8.846 151.439 8.846C150.623 8.846 149.987 9.062 149.531 9.494C149.267 9.734 149.105 10.16 149.045 10.772C149.009 11.276 148.991 12.098 148.991 13.238V16.784C148.991 16.832 148.979 16.874 148.955 16.91C148.943 16.934 148.877 16.958 148.757 16.982C148.649 16.994 148.481 17 148.253 17H148.145ZM163.138 17C162.91 17 162.736 16.994 162.616 16.982C162.508 16.958 162.436 16.934 162.4 16.91C162.376 16.886 162.364 16.844 162.364 16.784V3.536C162.364 3.488 162.37 3.452 162.382 3.428C162.406 3.392 162.472 3.368 162.58 3.356C162.7 3.332 162.874 3.32 163.102 3.32H163.21C163.438 3.32 163.606 3.332 163.714 3.356C163.834 3.368 163.906 3.386 163.93 3.41C163.966 3.434 163.984 3.476 163.984 3.536V8.468C164.296 8.12 164.716 7.844 165.244 7.64C165.784 7.424 166.324 7.316 166.864 7.316C167.896 7.316 168.718 7.634 169.33 8.27C169.942 8.894 170.248 9.914 170.248 11.33V16.784C170.248 16.832 170.236 16.874 170.212 16.91C170.2 16.934 170.134 16.958 170.014 16.982C169.906 16.994 169.738 17 169.51 17H169.402C169.174 17 169 16.994 168.88 16.982C168.772 16.958 168.7 16.934 168.664 16.91C168.64 16.886 168.628 16.844 168.628 16.784V12.086C168.628 11.294 168.598 10.718 168.538 10.358C168.478 9.986 168.346 9.68 168.142 9.44C167.818 9.044 167.248 8.846 166.432 8.846C165.616 8.846 164.98 9.062 164.524 9.494C164.26 9.734 164.098 10.16 164.038 10.772C164.002 11.276 163.984 12.098 163.984 13.238V16.784C163.984 16.832 163.972 16.874 163.948 16.91C163.936 16.934 163.87 16.958 163.75 16.982C163.642 16.994 163.474 17 163.246 17H163.138ZM176.17 17.18C174.922 17.18 173.968 16.73 173.308 15.83C172.648 14.93 172.318 13.79 172.318 12.41C172.318 10.886 172.708 9.656 173.488 8.72C174.268 7.784 175.258 7.316 176.458 7.316C177.478 7.316 178.288 7.7 178.888 8.468L178.978 7.712C178.99 7.604 179.026 7.544 179.086 7.532C179.158 7.508 179.338 7.496 179.626 7.496H179.662C179.878 7.496 180.04 7.508 180.148 7.532C180.256 7.544 180.316 7.562 180.328 7.586C180.352 7.61 180.364 7.652 180.364 7.712C180.364 7.796 180.358 8.162 180.346 8.81C180.334 9.458 180.328 10.004 180.328 10.448V12.968C180.328 13.976 180.37 15.248 180.454 16.784C180.454 16.928 180.238 17 179.806 17H179.734C179.29 17 179.062 16.928 179.05 16.784L178.942 15.956C178.642 16.316 178.246 16.61 177.754 16.838C177.262 17.066 176.734 17.18 176.17 17.18ZM176.458 15.74C177.226 15.74 177.826 15.506 178.258 15.038C178.438 14.834 178.558 14.57 178.618 14.246C178.678 13.922 178.708 13.358 178.708 12.554V9.998C178.492 9.65 178.192 9.362 177.808 9.134C177.436 8.894 177.046 8.774 176.638 8.774C175.822 8.774 175.18 9.092 174.712 9.728C174.244 10.364 174.01 11.228 174.01 12.32C174.01 13.292 174.202 14.108 174.586 14.768C174.982 15.416 175.606 15.74 176.458 15.74ZM184.673 5.39C184.457 5.606 184.193 5.714 183.881 5.714C183.569 5.714 183.299 5.606 183.071 5.39C182.855 5.162 182.747 4.892 182.747 4.58C182.747 4.268 182.855 4.004 183.071 3.788C183.299 3.56 183.569 3.446 183.881 3.446C184.193 3.446 184.457 3.56 184.673 3.788C184.901 4.004 185.015 4.268 185.015 4.58C185.015 4.892 184.901 5.162 184.673 5.39ZM183.845 17C183.617 17 183.443 16.994 183.323 16.982C183.215 16.958 183.143 16.934 183.107 16.91C183.083 16.886 183.071 16.844 183.071 16.784V7.712C183.071 7.652 183.083 7.61 183.107 7.586C183.143 7.562 183.215 7.544 183.323 7.532C183.443 7.508 183.617 7.496 183.845 7.496H183.953C184.181 7.496 184.349 7.508 184.457 7.532C184.577 7.544 184.643 7.568 184.655 7.604C184.679 7.628 184.691 7.664 184.691 7.712V16.784C184.691 16.832 184.679 16.874 184.655 16.91C184.643 16.934 184.577 16.958 184.457 16.982C184.349 16.994 184.181 17 183.953 17H183.845ZM195.063 17.18C194.067 17.18 193.269 16.862 192.669 16.226C192.081 15.602 191.787 14.582 191.787 13.166V7.712C191.787 7.664 191.799 7.628 191.823 7.604C191.847 7.568 191.913 7.544 192.021 7.532C192.129 7.508 192.291 7.496 192.507 7.496H192.651C192.867 7.496 193.029 7.508 193.137 7.532C193.257 7.544 193.329 7.568 193.353 7.604C193.389 7.628 193.407 7.664 193.407 7.712V12.428C193.407 13.196 193.431 13.772 193.479 14.156C193.539 14.54 193.665 14.846 193.857 15.074C194.193 15.482 194.727 15.686 195.459 15.686C196.311 15.686 196.965 15.47 197.421 15.038C197.625 14.846 197.769 14.552 197.853 14.156C197.949 13.76 197.997 13.094 197.997 12.158V7.712C197.997 7.568 198.237 7.496 198.717 7.496H198.879C199.371 7.496 199.617 7.568 199.617 7.712V13.85C199.617 14.318 199.623 14.906 199.635 15.614C199.647 16.31 199.653 16.7 199.653 16.784C199.653 16.844 199.641 16.886 199.617 16.91C199.593 16.934 199.521 16.958 199.401 16.982C199.293 16.994 199.131 17 198.915 17H198.843C198.351 17 198.105 16.928 198.105 16.784L198.069 16.01H198.051C197.343 16.79 196.347 17.18 195.063 17.18ZM203.182 17C202.954 17 202.78 16.994 202.66 16.982C202.552 16.958 202.48 16.934 202.444 16.91C202.42 16.886 202.408 16.844 202.408 16.784V10.646C202.408 10.178 202.402 9.596 202.39 8.9C202.378 8.192 202.372 7.796 202.372 7.712C202.372 7.652 202.384 7.61 202.408 7.586C202.432 7.562 202.498 7.544 202.606 7.532C202.726 7.508 202.894 7.496 203.11 7.496H203.2C203.512 7.496 203.71 7.514 203.794 7.55C203.89 7.574 203.938 7.628 203.938 7.712L203.956 8.522H203.974C204.286 8.162 204.712 7.874 205.252 7.658C205.792 7.43 206.344 7.316 206.908 7.316C207.94 7.316 208.762 7.634 209.374 8.27C209.986 8.894 210.292 9.914 210.292 11.33V16.784C210.292 16.832 210.28 16.874 210.256 16.91C210.244 16.934 210.178 16.958 210.058 16.982C209.95 16.994 209.782 17 209.554 17H209.446C209.218 17 209.044 16.994 208.924 16.982C208.816 16.958 208.744 16.934 208.708 16.91C208.684 16.886 208.672 16.844 208.672 16.784V12.086C208.672 11.294 208.642 10.718 208.582 10.358C208.522 9.986 208.39 9.68 208.186 9.44C207.862 9.044 207.292 8.846 206.476 8.846C205.66 8.846 205.024 9.062 204.568 9.494C204.304 9.734 204.142 10.16 204.082 10.772C204.046 11.276 204.028 12.098 204.028 13.238V16.784C204.028 16.832 204.016 16.874 203.992 16.91C203.98 16.934 203.914 16.958 203.794 16.982C203.686 16.994 203.518 17 203.29 17H203.182ZM220.695 17.18C219.447 17.18 218.493 16.73 217.833 15.83C217.173 14.93 216.843 13.79 216.843 12.41C216.843 10.886 217.233 9.656 218.013 8.72C218.793 7.784 219.783 7.316 220.983 7.316C222.003 7.316 222.813 7.7 223.413 8.468L223.503 7.712C223.515 7.604 223.551 7.544 223.611 7.532C223.683 7.508 223.863 7.496 224.151 7.496H224.187C224.403 7.496 224.565 7.508 224.673 7.532C224.781 7.544 224.841 7.562 224.853 7.586C224.877 7.61 224.889 7.652 224.889 7.712C224.889 7.796 224.883 8.162 224.871 8.81C224.859 9.458 224.853 10.004 224.853 10.448V12.968C224.853 13.976 224.895 15.248 224.979 16.784C224.979 16.928 224.763 17 224.331 17H224.259C223.815 17 223.587 16.928 223.575 16.784L223.467 15.956C223.167 16.316 222.771 16.61 222.279 16.838C221.787 17.066 221.259 17.18 220.695 17.18ZM220.983 15.74C221.751 15.74 222.351 15.506 222.783 15.038C222.963 14.834 223.083 14.57 223.143 14.246C223.203 13.922 223.233 13.358 223.233 12.554V9.998C223.017 9.65 222.717 9.362 222.333 9.134C221.961 8.894 221.571 8.774 221.163 8.774C220.347 8.774 219.705 9.092 219.237 9.728C218.769 10.364 218.535 11.228 218.535 12.32C218.535 13.292 218.727 14.108 219.111 14.768C219.507 15.416 220.131 15.74 220.983 15.74ZM231.178 17.18C229.858 17.18 228.838 16.736 228.118 15.848C227.41 14.948 227.056 13.796 227.056 12.392C227.056 10.796 227.47 9.554 228.298 8.666C229.126 7.766 230.188 7.316 231.484 7.316C232.54 7.316 233.506 7.628 234.382 8.252C234.454 8.3 234.484 8.378 234.472 8.486C234.46 8.594 234.394 8.792 234.274 9.08C234.082 9.524 233.89 9.68 233.698 9.548C232.954 9.044 232.246 8.792 231.574 8.792C230.722 8.792 230.038 9.104 229.522 9.728C229.006 10.34 228.748 11.192 228.748 12.284C228.748 13.256 228.964 14.072 229.396 14.732C229.828 15.38 230.494 15.704 231.394 15.704C232.15 15.704 232.912 15.518 233.68 15.146C233.86 15.05 234.016 15.17 234.148 15.506L234.238 15.74C234.382 16.076 234.382 16.286 234.238 16.37C233.278 16.91 232.258 17.18 231.178 17.18ZM239.95 17.18C238.63 17.18 237.61 16.736 236.89 15.848C236.182 14.948 235.828 13.796 235.828 12.392C235.828 10.796 236.242 9.554 237.07 8.666C237.898 7.766 238.96 7.316 240.256 7.316C241.312 7.316 242.278 7.628 243.154 8.252C243.226 8.3 243.256 8.378 243.244 8.486C243.232 8.594 243.166 8.792 243.046 9.08C242.854 9.524 242.662 9.68 242.47 9.548C241.726 9.044 241.018 8.792 240.346 8.792C239.494 8.792 238.81 9.104 238.294 9.728C237.778 10.34 237.52 11.192 237.52 12.284C237.52 13.256 237.736 14.072 238.168 14.732C238.6 15.38 239.266 15.704 240.166 15.704C240.922 15.704 241.684 15.518 242.452 15.146C242.632 15.05 242.788 15.17 242.92 15.506L243.01 15.74C243.154 16.076 243.154 16.286 243.01 16.37C242.05 16.91 241.03 17.18 239.95 17.18ZM248.721 17.18C247.593 17.18 246.693 16.88 246.021 16.28C245.073 15.44 244.599 14.168 244.599 12.464C244.599 10.796 245.001 9.524 245.805 8.648C246.609 7.76 247.701 7.316 249.081 7.316C250.209 7.316 251.109 7.616 251.781 8.216C252.729 9.056 253.203 10.328 253.203 12.032C253.203 13.7 252.801 14.978 251.997 15.866C251.193 16.742 250.101 17.18 248.721 17.18ZM248.793 15.74C249.585 15.74 250.233 15.446 250.737 14.858C251.253 14.27 251.511 13.37 251.511 12.158C251.511 11.558 251.445 11.018 251.313 10.538C251.181 10.058 250.917 9.644 250.521 9.296C250.125 8.936 249.621 8.756 249.009 8.756C248.217 8.756 247.563 9.05 247.047 9.638C246.543 10.226 246.291 11.126 246.291 12.338C246.291 12.938 246.357 13.478 246.489 13.958C246.621 14.438 246.885 14.858 247.281 15.218C247.677 15.566 248.181 15.74 248.793 15.74ZM258.538 17.18C257.542 17.18 256.744 16.862 256.144 16.226C255.556 15.602 255.262 14.582 255.262 13.166V7.712C255.262 7.664 255.274 7.628 255.298 7.604C255.322 7.568 255.388 7.544 255.496 7.532C255.604 7.508 255.766 7.496 255.982 7.496H256.126C256.342 7.496 256.504 7.508 256.612 7.532C256.732 7.544 256.804 7.568 256.828 7.604C256.864 7.628 256.882 7.664 256.882 7.712V12.428C256.882 13.196 256.906 13.772 256.954 14.156C257.014 14.54 257.14 14.846 257.332 15.074C257.668 15.482 258.202 15.686 258.934 15.686C259.786 15.686 260.44 15.47 260.896 15.038C261.1 14.846 261.244 14.552 261.328 14.156C261.424 13.76 261.472 13.094 261.472 12.158V7.712C261.472 7.568 261.712 7.496 262.192 7.496H262.354C262.846 7.496 263.092 7.568 263.092 7.712V13.85C263.092 14.318 263.098 14.906 263.11 15.614C263.122 16.31 263.128 16.7 263.128 16.784C263.128 16.844 263.116 16.886 263.092 16.91C263.068 16.934 262.996 16.958 262.876 16.982C262.768 16.994 262.606 17 262.39 17H262.318C261.826 17 261.58 16.928 261.58 16.784L261.544 16.01H261.526C260.818 16.79 259.822 17.18 258.538 17.18ZM266.657 17C266.429 17 266.255 16.994 266.135 16.982C266.027 16.958 265.955 16.934 265.919 16.91C265.895 16.886 265.883 16.844 265.883 16.784V10.646C265.883 10.178 265.877 9.596 265.865 8.9C265.853 8.192 265.847 7.796 265.847 7.712C265.847 7.652 265.859 7.61 265.883 7.586C265.907 7.562 265.973 7.544 266.081 7.532C266.201 7.508 266.369 7.496 266.585 7.496H266.675C266.987 7.496 267.185 7.514 267.269 7.55C267.365 7.574 267.413 7.628 267.413 7.712L267.431 8.522H267.449C267.761 8.162 268.187 7.874 268.727 7.658C269.267 7.43 269.819 7.316 270.383 7.316C271.415 7.316 272.237 7.634 272.849 8.27C273.461 8.894 273.767 9.914 273.767 11.33V16.784C273.767 16.832 273.755 16.874 273.731 16.91C273.719 16.934 273.653 16.958 273.533 16.982C273.425 16.994 273.257 17 273.029 17H272.921C272.693 17 272.519 16.994 272.399 16.982C272.291 16.958 272.219 16.934 272.183 16.91C272.159 16.886 272.147 16.844 272.147 16.784V12.086C272.147 11.294 272.117 10.718 272.057 10.358C271.997 9.986 271.865 9.68 271.661 9.44C271.337 9.044 270.767 8.846 269.951 8.846C269.135 8.846 268.499 9.062 268.043 9.494C267.779 9.734 267.617 10.16 267.557 10.772C267.521 11.276 267.503 12.098 267.503 13.238V16.784C267.503 16.832 267.491 16.874 267.467 16.91C267.455 16.934 267.389 16.958 267.269 16.982C267.161 16.994 266.993 17 266.765 17H266.657ZM279.185 17.18C278.405 17.18 277.805 16.982 277.385 16.586C276.929 16.166 276.701 15.374 276.701 14.21V8.774H275.135C275.039 8.774 274.991 8.636 274.991 8.36V8.252C274.991 8 275.045 7.856 275.153 7.82C275.897 7.604 276.395 7.298 276.647 6.902C276.911 6.506 277.091 5.864 277.187 4.976C277.199 4.88 277.367 4.832 277.691 4.832H277.817C278.153 4.832 278.321 4.886 278.321 4.994V7.496H280.589C280.697 7.496 280.751 7.682 280.751 8.054V8.198C280.751 8.582 280.697 8.774 280.589 8.774H278.321V14.084C278.321 14.804 278.417 15.266 278.609 15.47C278.813 15.686 279.119 15.794 279.527 15.794C279.827 15.794 280.235 15.716 280.751 15.56C280.835 15.536 280.895 15.548 280.931 15.596C280.979 15.644 281.027 15.752 281.075 15.92L281.129 16.154C281.201 16.466 281.183 16.658 281.075 16.73C280.607 17.03 279.977 17.18 279.185 17.18ZM284.138 13.454C283.646 13.454 283.4 13.394 283.4 13.274V12.122C283.4 11.426 283.538 10.874 283.814 10.466C284.102 10.046 284.6 9.656 285.308 9.296C285.86 9.02 286.256 8.72 286.496 8.396C286.748 8.072 286.874 7.652 286.874 7.136C286.874 5.96 286.184 5.372 284.804 5.372C284.156 5.372 283.532 5.522 282.932 5.822C282.884 5.858 282.818 5.846 282.734 5.786C282.65 5.726 282.572 5.624 282.5 5.48L282.338 5.12C282.206 4.808 282.206 4.61 282.338 4.526C283.094 4.082 283.976 3.86 284.984 3.86C286.076 3.86 286.952 4.112 287.612 4.616C288.272 5.108 288.602 5.876 288.602 6.92C288.602 8.528 287.846 9.722 286.334 10.502C285.854 10.754 285.524 10.988 285.344 11.204C285.164 11.42 285.074 11.702 285.074 12.05V13.274C285.074 13.394 284.84 13.454 284.372 13.454H284.138ZM284.264 17.18C283.964 17.18 283.7 17.066 283.472 16.838C283.244 16.61 283.13 16.346 283.13 16.046C283.13 15.734 283.238 15.464 283.454 15.236C283.682 15.008 283.952 14.894 284.264 14.894C284.576 14.894 284.846 15.008 285.074 15.236C285.302 15.464 285.416 15.734 285.416 16.046C285.416 16.358 285.302 16.628 285.074 16.856C284.846 17.072 284.576 17.18 284.264 17.18Z" fill="black"/>
<line x1="297.5" y1="10.5" x2="412" y2="10.5" stroke="#C0C0C0"/>
</svg>
