<svg width="88" height="23" viewBox="0 0 88 23" fill="none" xmlns="http://www.w3.org/2000/svg">
<path fill-rule="evenodd" clip-rule="evenodd" d="M11 18H1.32154C0.955687 18 0.625036 18.1509 0.386115 18.3951C0.147193 18.6382 0 18.9735 0 19.3447V21.6553C0 22.0254 0.146126 22.3608 0.382915 22.6028C0.622903 22.8481 0.95462 23 1.32154 23H11V18ZM27.6171 18.3983C27.3782 18.1541 27.0454 18 26.6785 18H17V23H26.6785C27.0454 23 27.3771 22.8481 27.6171 22.6017C27.8539 22.3597 28 22.0243 28 21.6553V19.3447C28 18.9757 27.8539 18.6414 27.6171 18.3983ZM27.6171 9.39922C27.3782 9.15296 27.0454 9 26.6785 9H17V14H26.6785C27.0454 14 27.3771 13.846 27.6171 13.6008C27.8539 13.3578 28 13.0236 28 12.6548V10.3441C28 9.97635 27.8539 9.64222 27.6171 9.39922ZM11 9L1.32154 9.00109C0.955687 9.00109 0.625036 9.15188 0.386115 9.39596C0.147193 9.63897 0 9.97418 0 10.3441V12.6548C0 13.0236 0.146126 13.3589 0.382915 13.6019C0.622903 13.847 0.95462 14 1.32154 14H11V9ZM26.6545 5H1.34554C0.971958 5 0.634216 4.84806 0.389869 4.60278C0.14878 4.35967 0 4.0254 0 3.65531V1.34469C0 0.973518 0.149866 0.638159 0.392041 0.395051C0.636388 0.150857 0.973044 0 1.34554 0H26.6545C27.028 0 27.3669 0.151943 27.6101 0.398307C27.8512 0.641415 28 0.975689 28 1.34469V3.65531C28 4.02431 27.8512 4.35858 27.6101 4.60169C27.3658 4.84806 27.028 5 26.6545 5Z" fill="#EB0028"/>
<path fill-rule="evenodd" clip-rule="evenodd" d="M85.2388 0.000976562H83.7231C81.7843 0.000976562 81.662 0.215551 81.5122 0.552891L78.5123 7.85161C77.5124 10.2738 76.4808 12.8808 76.0873 14.2301C75.7234 12.8808 75.0579 11.0713 73.6634 7.72885L70.6646 0.552891C70.4821 0.123743 69.7248 0.000976562 68.0877 0.000976562H66.3916C64.725 0.000976562 64.3906 0.154701 64.3906 0.492042V22.5099C64.3906 22.9092 64.725 23.001 66.4517 23.001H67.3915C69.0877 23.001 69.5718 22.9092 69.5718 22.5099V9.44651H69.6942C69.6942 9.44651 69.845 10.0593 70.0887 10.6112L73.5432 18.7992C73.694 19.1675 73.8765 19.3223 75.4819 19.3223H76.5124C78.1474 19.3223 78.2697 19.1984 78.4216 18.7992L81.5713 10.9186C81.8751 10.182 82.0871 9.44651 82.0871 9.44651H82.2084V22.5099C82.2084 22.9092 82.5406 23.001 84.3296 23.001H85.2388C86.9054 23.001 87.3906 22.9092 87.3906 22.5099V0.492042C87.3906 0.154701 86.9054 0.000976562 85.2388 0.000976562ZM59.3906 0.492042C59.3906 0.154701 58.9223 0.000976562 57.3147 0.000976562H56.378C54.6818 0.000976562 54.3906 0.154701 54.3906 0.492042V22.5099C54.3906 22.9092 54.6818 23.001 56.378 23.001H57.3147C58.9233 23.001 59.3906 22.9092 59.3906 22.5099V0.492042ZM50.8313 0.000976562C51.2954 0.000976562 51.3906 0.0628935 51.3906 1.68768V3.19077C51.3906 4.7547 51.2662 4.93832 50.8313 4.93832H45.5476V22.5099C45.5476 22.9092 45.05 23.001 43.279 23.001H42.3465C40.5441 23.001 40.2336 22.9092 40.2336 22.5099V4.93832H34.9499C34.514 4.93832 34.3906 4.81555 34.3906 3.19077V1.68768C34.3906 0.000976562 34.4837 0.000976562 34.9499 0.000976562H50.8313Z" fill="#004691"/>
</svg>
