<svg width="60" height="60" viewBox="0 0 60 60" fill="none" xmlns="http://www.w3.org/2000/svg">
<rect width="60" height="60" fill="white"/>
<path d="M11.9048 26.929H17.619C18.671 26.929 19.5238 27.7818 19.5238 28.8338V45.9766C19.5238 47.0286 18.671 47.8814 17.619 47.8814H11.9048C10.8528 47.8814 10 47.0286 10 45.9766V28.8338C10 27.7818 10.8528 26.929 11.9048 26.929ZM11.9048 28.8338V45.9766H17.619V28.8338H11.9048ZM41.8404 44.1197L47.5568 34.597C47.8987 34.0258 48.0952 33.3574 48.0952 32.6433V30.7386C48.0952 28.6346 46.3897 26.929 44.2857 26.929H33.6L36.3762 16.5685L36.3855 16.5336C36.5554 15.8983 36.391 15.1922 35.8926 14.6937L24.4477 26.1386L24.4491 26.1401C23.7597 26.8295 23.3333 27.7818 23.3333 28.8338V42.1671C23.3333 44.2711 25.0389 45.9766 27.1428 45.9766H38.5714C39.9611 45.9766 41.1771 45.2324 41.8404 44.1197ZM50 32.6433C50 33.7738 49.6718 34.8275 49.1053 35.7145L43.5701 44.9382C42.5949 46.6936 40.7219 47.8814 38.5714 47.8814H27.1429C23.987 47.8814 21.4286 45.3231 21.4286 42.1671V28.8338C21.4286 27.2576 22.0667 25.8305 23.0987 24.7967L35.8926 12L37.2394 13.3469C38.2549 14.3622 38.5771 15.8081 38.2065 17.0969L36.0825 25.0243H44.2857C47.4417 25.0243 50 27.5827 50 30.7386V32.6433Z" fill="#0164F2"/>
</svg>
