<svg width="32" height="24" viewBox="0 0 32 24" fill="none" xmlns="http://www.w3.org/2000/svg">
<path fill-rule="evenodd" clip-rule="evenodd" d="M16 13.5714C12.3287 13.5714 5 15.3763 5 18.9592V23H27V18.9592C27 15.3763 19.6713 13.5714 16 13.5714ZM16 1C12.7008 1 10.0286 3.67221 10.0286 6.97143C10.0286 10.2706 12.7008 12.9429 16 12.9429C19.2992 12.9429 21.9714 10.2706 21.9714 6.97143C21.9714 3.67221 19.2992 1 16 1ZM25.1217 18.7981V21.3555H6.87634V18.7981C6.87634 17.8534 11.8684 15.6983 16 15.6983C20.1316 15.6983 25.1217 17.8534 25.1217 18.7981ZM16 2.88571C18.2569 2.88571 20.0857 4.71456 20.0857 6.97143C20.0857 9.2283 18.2569 11.0571 16 11.0571C13.7431 11.0571 11.9143 9.2283 11.9143 6.97143C11.9143 4.71456 13.7431 2.88571 16 2.88571Z" fill="#0033A1"/>
<mask id="mask0_9459_21759" style="mask-type:luminance" maskUnits="userSpaceOnUse" x="5" y="1" width="22" height="22">
<path fill-rule="evenodd" clip-rule="evenodd" d="M16 13.5714C12.3287 13.5714 5 15.3763 5 18.9592V23H27V18.9592C27 15.3763 19.6713 13.5714 16 13.5714ZM16 1C12.7008 1 10.0286 3.67221 10.0286 6.97143C10.0286 10.2706 12.7008 12.9429 16 12.9429C19.2992 12.9429 21.9714 10.2706 21.9714 6.97143C21.9714 3.67221 19.2992 1 16 1ZM25.1217 18.7981V21.3555H6.87634V18.7981C6.87634 17.8534 11.8684 15.6983 16 15.6983C20.1316 15.6983 25.1217 17.8534 25.1217 18.7981ZM16 2.88571C18.2569 2.88571 20.0857 4.71456 20.0857 6.97143C20.0857 9.2283 18.2569 11.0571 16 11.0571C13.7431 11.0571 11.9143 9.2283 11.9143 6.97143C11.9143 4.71456 13.7431 2.88571 16 2.88571Z" fill="white"/>
</mask>
<g mask="url(#mask0_9459_21759)">
</g>
</svg>
