<?xml version="1.0" encoding="UTF-8"?>
<svg width="64px" height="64px" viewBox="0 0 64 64" version="1.1" xmlns="http://www.w3.org/2000/svg" xmlns:xlink="http://www.w3.org/1999/xlink">
    <!-- Generator: Sketch 54.1 (76490) - https://sketchapp.com -->
    <title>Group 4</title>
    <desc>Created with Sketch.</desc>
    <g id="Preventivatore-sport" stroke="none" stroke-width="1" fill="none" fill-rule="evenodd">
        <g id="sport-premium---desktop-New" transform="translate(-656.000000, -541.000000)">
            <g id="Group-7" transform="translate(608.000000, 150.000000)">
                <g id="Group-7-Copy" transform="translate(48.000000, 391.000000)">
                    <g id="Button/Add-on-Copy-3">
                        <g id="Group-19-Copy">
                            <g id="Group-4">
                                <g id="Group-17" fill="#F1F1F1">
                                    <g id="Group-2">
                                        <circle id="Oval" cx="32" cy="32" r="32"></circle>
                                    </g>
                                </g>
                                <g id="Group" transform="translate(15.000000, 17.000000)" fill="#4A4A4A">
                                    <path d="M29.4890556,5.37794444 L29.9117778,5.15977778 L27.4380556,0.371777778 L0,14.5467778 L2.50444444,19.3938889 L2.94505556,19.1080556 C3.02944444,19.0536111 3.11694444,19.0026667 3.20794444,18.9552222 C4.655,18.2077778 6.41822222,18.7347222 7.13922222,20.1300556 C7.86022222,21.5253889 7.2695,23.2687778 5.82283333,24.0162222 C5.73144444,24.0632778 5.63927778,24.1052778 5.54594444,24.1426111 L5.05788889,24.3366667 L7.56233333,29.1837778 L35,15.0087778 L32.5262778,10.2207778 L32.1035556,10.4389444 C30.6565,11.1863889 28.8928889,10.6594444 28.1718889,9.26411111 C27.4508889,7.86877778 28.042,6.12538889 29.4890556,5.37794444 Z M27.3268333,9.70083333 C28.2166111,11.4228333 30.2855,12.1597778 32.1047222,11.4772778 L33.7182222,14.6000556 L26.4934444,18.3326111 L25.4018333,16.2197778 C25.2812778,15.9864444 24.9946667,15.8946667 24.7609444,16.0156111 C24.5272222,16.1361667 24.4362222,16.4231667 24.5567778,16.6565 L25.6483889,18.7693333 L7.97066667,27.9023889 L6.36922222,24.8029444 C8.20127778,23.7836667 8.92694444,21.5191667 7.98388889,19.6941111 C7.04083333,17.8690556 4.774,17.1507778 2.88283333,18.0549444 L1.28138889,14.9555 L18.9587222,5.82244444 L20.0503333,7.93527778 C20.1708889,8.16861111 20.4575,8.26038889 20.6912222,8.13944444 C20.9249444,8.01888889 21.0159444,7.73188889 20.8953889,7.49855556 L19.8037778,5.38572222 L27.0285556,1.65316667 L28.6420556,4.77594444 C27.0332222,5.86522222 26.4370556,7.97844444 27.3268333,9.70083333 Z" id="Shape"></path>
                                    <path d="M21.7567778,10.2013333 C21.5230556,10.3218889 21.4320556,10.6088889 21.5526111,10.8422222 L23.0545,13.7491667 C23.1750556,13.9825 23.4616667,14.0742778 23.6953889,13.9533333 C23.9291111,13.8323889 24.0201111,13.5457778 23.8995556,13.3124444 L22.3976667,10.4055 C22.2771111,10.1725556 21.9905,10.0807778 21.7567778,10.2013333 Z" id="Path"></path>
                                </g>
                            </g>
                        </g>
                    </g>
                </g>
            </g>
        </g>
    </g>
</svg>