<?xml version="1.0" encoding="UTF-8"?>
<svg width="64px" height="64px" viewBox="0 0 64 64" version="1.1" xmlns="http://www.w3.org/2000/svg" xmlns:xlink="http://www.w3.org/1999/xlink">
    <!-- Generator: Sketch 54.1 (76490) - https://sketchapp.com -->
    <title>Group 10</title>
    <desc>Created with Sketch.</desc>
    <g id="Preventivatore-bike" stroke="none" stroke-width="1" fill="none" fill-rule="evenodd">
        <g id="bike-plus---desktop-New-1" transform="translate(-848.000000, -448.000000)">
            <g id="Group-7" transform="translate(608.000000, 150.000000)">
                <g id="Group-4-Copy" transform="translate(240.000000, 298.000000)">
                    <g id="Group-10">
                        <g id="Button/Add-on" fill="#F1F1F1">
                            <g id="Group-19-Copy">
                                <g id="Group-17">
                                    <g id="Group-2">
                                        <circle id="Oval" cx="32" cy="32" r="32"></circle>
                                    </g>
                                </g>
                            </g>
                        </g>
                        <path d="M16.2477678,23.9031742 C16.2950349,23.9225107 16.8263014,24.1316969 17.777112,24.1316969 C18.7454525,24.1316969 20.1494511,23.9138924 21.9200625,23.0592761 L18.3639222,36.3752399 L17.156585,36.3752399 C16.9356797,36.3752399 16.7565726,36.554347 16.7565726,36.7752522 L16.7565726,37.9985323 C16.7565726,39.16517 17.7058208,40.1144181 18.8724584,40.1144181 L26.6486756,40.1144181 C27.8153133,40.1144181 28.7645614,39.16517 28.7645614,37.9985323 L28.7645614,36.7752522 C28.7645614,36.554347 28.5854543,36.3752399 28.364549,36.3752399 L26.6978227,36.3752399 L22.9890165,22.4868951 C23.0431197,22.4552535 23.096051,22.4259801 23.1507158,22.3931666 C26.4742562,20.3992084 29.5264014,20.1100149 31.00633,20.1085744 C30.867019,20.3292355 30.7699457,20.6128381 30.7486072,20.9687085 L29.4503736,42.5717207 L28.3088832,42.5717207 C27.2572882,42.5717207 26.401793,43.4272159 26.401793,44.4788109 L26.401793,44.8161261 L25.8006025,44.8161261 C25.5796972,44.8161261 25.4005901,44.9952332 25.4005901,45.2161384 L25.4005901,47.598634 C25.4005901,47.8195393 25.5796972,47.9986464 25.8006025,47.9986464 L38.2005955,47.9986464 C38.4215008,47.9986464 38.6006079,47.8195393 38.6006079,47.598634 L38.6006079,45.2161384 C38.6006079,44.9952332 38.4215008,44.8161261 38.2005955,44.8161261 L37.5994051,44.8161261 L37.5994051,44.4788109 C37.5994051,43.4272159 36.7439098,42.5717207 35.6923148,42.5717207 L34.5508244,42.5717207 L33.2525909,20.9687085 C33.2312523,20.612716 33.1341302,20.3290402 32.994746,20.1083303 C34.4303373,20.109551 37.3458572,20.3837782 40.5529144,22.2205294 L36.8435955,36.3752399 L35.636649,36.3752399 C35.4157437,36.3752399 35.2366366,36.554347 35.2366366,36.7752523 L35.2366366,37.9985323 C35.2366366,39.16517 36.1858848,40.1144181 37.3525224,40.1144181 L45.1287396,40.1144181 C46.2953773,40.1144181 47.2446254,39.16517 47.2446254,37.9985323 L47.2446254,36.7752523 C47.2446254,36.554347 47.0655183,36.3752399 46.844613,36.3752399 L45.1786679,36.3752399 L41.6290463,22.8305581 C43.6138002,23.8754391 45.1747859,24.131697 46.224086,24.131697 C47.1747013,24.1315017 47.7061631,23.9225109 47.7534302,23.9031743 C47.9567568,23.8193826 48.0528536,23.5879302 47.9706245,23.3840176 C47.8883954,23.1804957 47.6563569,23.0808832 47.4512725,23.1623311 C47.4292015,23.1719017 45.1373337,24.0324752 41.2622138,21.7072079 C38.030522,19.768354 35.0844103,19.3563539 33.4025956,19.3075487 C33.7423033,18.9559509 33.9537845,18.4795202 33.9537845,17.9531855 C33.9537845,16.876199 33.0775855,16 32.000599,16 C30.9236126,16 30.0474136,16.876199 30.0474136,17.9531854 C30.0474136,18.4795933 30.2589192,18.9560729 30.5987002,19.3076707 C28.9167878,19.3565247 25.9704319,19.768476 22.7389843,21.7072078 C18.8640597,24.0320845 16.5723873,23.1713156 16.5524648,23.1633076 C16.3485522,23.0797112 16.1145606,23.1763939 16.030183,23.3808924 C15.946196,23.5851956 16.0434646,23.8189919 16.2477678,23.9031742 Z M27.9645366,37.9985323 C27.9645366,38.7241406 27.374284,39.3143933 26.6486756,39.3143933 L18.8724584,39.3143933 C18.1468501,39.3143933 17.5565974,38.7241407 17.5565974,37.9985323 L17.5565974,37.1752646 L27.9645366,37.1752646 L27.9645366,37.9985323 L27.9645366,37.9985323 Z M19.1920728,36.3752398 L22.5309701,23.8727045 L25.869672,36.3752398 L19.1920728,36.3752398 Z M37.8005832,47.1986216 L26.2006149,47.1986216 L26.2006149,45.6161508 L37.8005832,45.6161508 L37.8005832,47.1986216 Z M36.7993803,44.4788109 L36.7993803,44.816126 L27.2018177,44.816126 L27.2018177,44.4788109 C27.2018177,43.8684405 27.6985128,43.3717454 28.3088832,43.3717454 L35.6923148,43.3717454 C36.3026853,43.3717454 36.7993803,43.8684405 36.7993803,44.4788109 Z M33.7494812,42.5717206 L30.2517168,42.5717206 L31.5470693,21.0167568 C31.5755859,20.5433047 31.8021554,20.327673 32.000599,20.327673 C32.1990427,20.327673 32.4256122,20.5433047 32.4541287,21.0167568 L33.7494812,42.5717206 Z M46.4446006,37.9985323 C46.4446006,38.7241406 45.854348,39.3143933 45.1287396,39.3143933 L37.3525224,39.3143933 C36.626914,39.3143933 36.0366614,38.7241407 36.0366614,37.9985323 L36.0366614,37.1752646 L46.4446006,37.1752646 L46.4446006,37.9985323 Z M37.6705743,36.3752398 L41.0110341,23.6281657 L44.3516892,36.3752398 L37.6705743,36.3752398 Z M32.000599,16.8000248 C32.6363609,16.8000248 33.1537597,17.3174236 33.1537597,17.9531854 C33.1537597,18.5889473 32.6363609,19.1063461 32.000599,19.1063461 C31.3648371,19.1063461 30.8474383,18.5889473 30.8474383,17.9531854 C30.8474383,17.3174236 31.3648371,16.8000248 32.000599,16.8000248 Z" id="Shape" fill="#4A4A4A"></path>
                    </g>
                </g>
            </g>
        </g>
    </g>
</svg>