<?xml version="1.0" encoding="UTF-8"?>
<svg width="64px" height="64px" viewBox="0 0 64 64" version="1.1" xmlns="http://www.w3.org/2000/svg" xmlns:xlink="http://www.w3.org/1999/xlink">
    <!-- Generator: Sketch 54.1 (76490) - https://sketchapp.com -->
    <title>Group 9</title>
    <desc>Created with Sketch.</desc>
    <g id="Preventivatore-viaggi" stroke="none" stroke-width="1" fill="none" fill-rule="evenodd">
        <g id="viaggi-premium--desktop-New" transform="translate(-848.000000, -600.000000)">
            <g id="Group-7" transform="translate(608.000000, 120.000000)">
                <g id="Group-9" transform="translate(240.000000, 480.000000)">
                    <g id="Button/Add-on-Copy-4" fill="transparent">
                        <g id="Group-19-Copy">
                            <g id="Group-17">
                                <g id="Group-2">
                                    <circle id="Oval" cx="32" cy="32" r="32"></circle>
                                </g>
                            </g>
                        </g>
                    </g>
                    <g id="noun_Luggage_911579" transform="translate(18.000000, 15.000000)" fill="#4A4A4A" fill-rule="nonzero">
                        <path d="M15.5774648,18 L13.4225352,18 C13.1690141,18 13,18.2 13,18.5 C13,18.8 13.1690141,19 13.4225352,19 L15.5774648,19 C15.8309859,19 16,18.8 16,18.5 C16,18.2 15.8309859,18 15.5774648,18 Z" id="Shape"></path>
                        <path d="M0.446153846,28.8135593 L1.82923077,28.8135593 L1.82923077,31.7392438 C1.82923077,32.0052151 2.00769231,32.1825293 2.27538462,32.1825293 L3.83692308,32.1825293 C4.06,33.202086 4.95230769,34 6.06769231,34 C7.18307692,34 8.07538462,33.202086 8.29846154,32.1825293 L20.4784615,32.1825293 C20.7015385,33.202086 21.5938462,34 22.7092308,34 C23.8246154,34 24.7169231,33.202086 24.94,32.1825293 L26.8584615,32.1825293 C27.1261538,32.1825293 27.3046154,32.0052151 27.3046154,31.7392438 L27.3046154,28.8135593 L28.5538462,28.8135593 C28.8215385,28.8135593 29,28.6362451 29,28.3702738 C29,28.1043025 28.8215385,27.9269883 28.5538462,27.9269883 L27.3046154,27.9269883 L27.3046154,12.6779661 C27.3046154,5.67405476 21.5938462,0 14.5446154,0 C7.49538462,0 1.82923077,5.71838331 1.82923077,12.6779661 L1.82923077,27.9269883 L0.446153846,27.9269883 C0.178461538,27.9269883 0,28.1043025 0,28.3702738 C0,28.6362451 0.178461538,28.8135593 0.446153846,28.8135593 Z M6.06769231,33.1134289 C5.30923077,33.1134289 4.68461538,32.4928292 4.68461538,31.7392438 C4.68461538,30.9856584 5.30923077,30.3650587 6.06769231,30.3650587 C6.82615385,30.3650587 7.45076923,30.9856584 7.45076923,31.7392438 C7.45076923,32.4928292 6.82615385,33.1134289 6.06769231,33.1134289 Z M22.7092308,33.1134289 C21.9507692,33.1134289 21.3261538,32.4928292 21.3261538,31.7392438 C21.3261538,30.9856584 21.9507692,30.3650587 22.7092308,30.3650587 C23.4676923,30.3650587 24.0923077,30.9856584 24.0923077,31.7392438 C24.0923077,32.4928292 23.4676923,33.1134289 22.7092308,33.1134289 Z M26.4123077,31.2959583 L24.94,31.2959583 C24.7169231,30.2764016 23.8246154,29.4784876 22.7092308,29.4784876 C21.5938462,29.4784876 20.7015385,30.2764016 20.4784615,31.2959583 L8.29846154,31.2959583 C8.07538462,30.2764016 7.18307692,29.4784876 6.06769231,29.4784876 C4.95230769,29.4784876 4.06,30.2764016 3.83692308,31.2959583 L2.72153846,31.2959583 L2.72153846,28.8135593 L7.45076923,28.8135593 L21.8615385,28.8135593 L26.4123077,28.8135593 L26.4123077,31.2959583 L26.4123077,31.2959583 Z M6.51384615,26.9960887 L6.51384615,17.6870926 C6.51384615,17.1551499 6.96,16.756193 7.45076923,16.756193 L8.83384615,16.756193 L8.83384615,27.9713168 L7.45076923,27.9713168 C6.91538462,27.9269883 6.51384615,27.4837027 6.51384615,26.9960887 Z M10.5738462,13.874837 C10.44,13.9191656 10.3507692,13.874837 10.2169231,13.7861799 L8.83384615,12.8552803 L9.36923077,12.1016949 L10.7523077,13.0325945 C10.8415385,13.1212516 10.9307692,13.2099087 10.9307692,13.3428944 C10.9307692,13.4758801 10.9307692,13.5645372 10.8415385,13.6975228 C10.7969231,13.7418514 10.6630769,13.8305085 10.5738462,13.874837 Z M11.3769231,15.1160365 C11.3769231,14.5840939 11.8230769,14.0964798 12.4030769,14.0964798 L16.6415385,14.0964798 C17.1769231,14.0964798 17.6676923,14.5397653 17.6676923,15.1160365 L17.6676923,15.8252934 L11.4215385,15.8252934 L11.4215385,15.1160365 L11.3769231,15.1160365 Z M22.7984615,26.9960887 C22.7984615,27.5280313 22.3523077,27.9269883 21.8615385,27.9269883 L20.1661538,27.9269883 L20.1661538,16.7118644 L21.8615385,16.7118644 C22.3969231,16.7118644 22.7984615,17.1551499 22.7984615,17.642764 L22.7984615,26.9960887 Z M19.2738462,27.9269883 L18.5153846,27.9269883 L18.5153846,16.7118644 L19.2738462,16.7118644 L19.2738462,27.9269883 Z M11.3769231,16.7118644 L17.6230769,16.7118644 L17.6230769,27.9269883 L11.3769231,27.9269883 L11.3769231,16.7118644 Z M10.4846154,27.9269883 L9.72615385,27.9269883 L9.72615385,16.7118644 L10.4846154,16.7118644 L10.4846154,27.9269883 Z M2.72153846,12.6779661 C2.72153846,6.16166884 8.03076923,0.886571056 14.5892308,0.886571056 C21.1476923,0.886571056 26.4569231,6.16166884 26.4569231,12.6779661 L26.4569231,27.9269883 L23.4676923,27.9269883 C23.6461538,27.6610169 23.7353846,27.3063885 23.7353846,26.9960887 L23.7353846,17.6870926 C23.7353846,16.6675359 22.8876923,15.8696219 21.9061538,15.8696219 L18.56,15.8696219 L18.56,15.1603651 C18.56,14.1408083 17.7123077,13.2542373 16.6415385,13.2542373 L12.4030769,13.2542373 C12.2246154,13.2542373 12.0461538,13.2985658 11.8676923,13.3428944 C11.8676923,13.2985658 11.8676923,13.2099087 11.8676923,13.1655802 C11.7784615,12.8109518 11.6,12.5006519 11.2876923,12.3233377 L9.50307692,11.1264668 C9.41384615,11.0821382 9.28,11.0378096 9.14615385,11.0821382 C9.01230769,11.1264668 8.92307692,11.1707953 8.87846154,11.2594524 L7.85230769,12.7666232 C7.71846154,12.9439374 7.76307692,13.2542373 7.98615385,13.3872229 L9.72615385,14.5397653 C9.94923077,14.672751 10.2169231,14.7614081 10.4846154,14.7614081 C10.4846154,14.7614081 10.5292308,14.7614081 10.5292308,14.7614081 C10.4846154,14.8943937 10.4846154,15.0273794 10.4846154,15.1603651 L10.4846154,15.8696219 L7.45076923,15.8696219 C6.42461538,15.8696219 5.62153846,16.7118644 5.62153846,17.6870926 L5.62153846,26.9960887 C5.62153846,27.3507171 5.71076923,27.6610169 5.88923077,27.9269883 L2.72153846,27.9269883 L2.72153846,12.6779661 Z" id="Shape"></path>
                    </g>
                </g>
            </g>
        </g>
    </g>
</svg>