<?xml version="1.0" encoding="UTF-8"?>
<svg width="64px" height="64px" viewBox="0 0 64 64" version="1.1" xmlns="http://www.w3.org/2000/svg" xmlns:xlink="http://www.w3.org/1999/xlink">
    <!-- Generator: Sketch 54.1 (76490) - https://sketchapp.com -->
    <title>Group 6</title>
    <desc>Created with Sketch.</desc>
    <g id="Preventivatore-viaggi" stroke="none" stroke-width="1" fill="none" fill-rule="evenodd">
        <g id="viaggi-premium--desktop-New" transform="translate(-656.000000, -680.000000)">
            <g id="Group-7" transform="translate(608.000000, 120.000000)">
                <g id="Group-6" transform="translate(48.000000, 560.000000)">
                    <g id="Group-17" fill="#FFD505" opacity="0.35">
                        <g id="Group-2">
                            <circle id="Oval" cx="32" cy="32" r="32"></circle>
                        </g>
                    </g>
                    <g id="Mancanza-coincidenza" transform="translate(10.000000, 17.000000)" stroke="#4A4A4A" stroke-linecap="round">
                        <path d="M20.79,2.54 L19.34,1.92 C19.1534487,1.83770485 18.9414319,1.83490988 18.7527761,1.91225878 C18.5641203,1.98960768 18.4150878,2.14043283 18.34,2.33 C18.2541842,2.51491989 18.2484567,2.72705122 18.3241692,2.91633232 C18.3998816,3.10561343 18.5503266,3.25527578 18.74,3.33 L19.3,3.57 L17.65,4.69 L16.16,4.06 C15.7862526,3.93035716 15.3760737,4.11329466 15.2227971,4.4779872 C15.0695205,4.84267974 15.225855,5.26371706 15.58,5.44 L16.19,5.69 L12.72,8.08 L8.63,6.35 C8,6.08 6.29,6 6,6.58 C5.71,7.16 7,8.36 7.67,8.63 L11.75,10.36 L12.45,14.51 L11.85,14.25 C11.6034867,14.1446067 11.3194724,14.1787324 11.1049425,14.3395225 C10.8904125,14.5003126 10.7779592,14.7633391 10.8099425,15.0295225 C10.8419258,15.2957059 11.0134867,15.5246067 11.26,15.63 L12.75,16.26 L13.09,18.26 L12.53,18 C12.1636422,17.8862519 11.7705042,18.0672906 11.6187723,18.4196173 C11.4670404,18.7719439 11.6056301,19.1819749 11.94,19.37 L13.39,19.99 L14,23.44 L15.76,24.19 C16.1,24.33 16.07,23.84 16.1,23.19 C16.13,22.54 16.86,14.41 17.03,12.61 L20,13.83 C20.3182921,13.9716157 20.6817079,13.9716157 21,13.83 C21.2636029,13.7097619 21.5663971,13.7097619 21.83,13.83 L21.94,13.83 L23.17,18 L24.41,18.52 C24.5780323,17.193565 24.6515509,15.8568621 24.63,14.52 C24.63,14.52 27.58,11.62 27.39,11.52 L26.15,11 L22.25,12.94 L22.25,12.94 C21.9632468,12.844027 21.7353207,12.6234533 21.63,12.34 C21.4967023,12.0092037 21.2430016,11.7412099 20.92,11.59 L18,10.3 C19.18,8.93 24.48,2.77 25,2.3 C25.52,1.83 25.83,1.49 25.5,1.3 L23.66,0.57 L20.79,2.54 Z" id="Shape"></path>
                        <path d="M5.62,26.86 L4,26.47" id="Shape"></path>
                        <path d="M26.88,15.16 C26.88,15.16 75.28,40.24 7.28,27.26" id="Shape"></path>
                        <path d="M2.47,26.05 L0.5,25.41" id="Shape"></path>
                    </g>
                </g>
            </g>
        </g>
    </g>
</svg>