<?xml version="1.0" encoding="UTF-8"?>
<svg width="64px" height="64px" viewBox="0 0 64 64" version="1.1" xmlns="http://www.w3.org/2000/svg" xmlns:xlink="http://www.w3.org/1999/xlink">
    <!-- Generator: Sketch 54.1 (76490) - https://sketchapp.com -->
    <title>Group 6</title>
    <desc>Created with Sketch.</desc>
    <g id="Preventivatore-bike" stroke="none" stroke-width="1" fill="none" fill-rule="evenodd">
        <g id="bike-plus---desktop-New-1" transform="translate(-656.000000, -448.000000)">
            <g id="Group-7" transform="translate(608.000000, 150.000000)">
                <g id="Group-4" transform="translate(48.000000, 298.000000)">
                    <g id="Button/Add-on">
                        <g id="Group-19-Copy">
                            <g id="Group-6">
                                <g id="Group-17" fill="#FFD505" opacity="0.35">
                                    <g id="Group-2">
                                        <circle id="Oval" cx="32" cy="32" r="32"></circle>
                                    </g>
                                </g>
                                <g id="Group" transform="translate(15.000000, 15.000000)" fill="#4A4A4A" fill-rule="nonzero">
                                    <g transform="translate(0.000000, 21.101852)" id="Shape">
                                        <g>
                                            <path d="M5.20185185,6.33055556 C3.53333333,6.33055556 2.15925926,4.95648148 2.15925926,3.33703704 C2.15925926,1.71759259 3.43518519,0.392592593 5.05462963,0.343518519 C5.05462963,0.343518519 5.1037037,0.343518519 5.20185185,0.343518519 C6.87037037,0.343518519 8.24444444,1.71759259 8.24444444,3.38611111 C8.24444444,4.51481481 7.60648148,5.54537037 6.625,6.03611111 C6.18333333,6.18333333 5.69259259,6.33055556 5.20185185,6.33055556 Z M5.15277778,1.22685185 C5.15277778,1.22685185 5.15277778,1.22685185 5.15277778,1.22685185 C3.975,1.27592593 3.14074074,2.15925926 3.14074074,3.28796296 C3.14074074,4.41666667 4.07314815,5.3 5.20185185,5.3 C5.54537037,5.3 5.83981481,5.20185185 6.13425926,5.05462963 C6.8212963,4.71111111 7.21388889,4.02407407 7.21388889,3.23888889 C7.26296296,2.15925926 6.33055556,1.22685185 5.15277778,1.22685185 C5.20185185,1.22685185 5.20185185,1.22685185 5.15277778,1.22685185 Z"></path>
                                            <path d="M9.81481481,11.287037 L0.490740741,11.287037 C0.196296296,11.287037 0,11.0907407 0,10.7962963 L0,9.32407407 C0,7.41018519 1.57037037,5.83981481 3.43518519,5.83981481 L6.87037037,5.83981481 C8.78425926,5.83981481 10.3055556,7.41018519 10.3055556,9.32407407 L10.3055556,10.7962963 C10.3055556,11.0416667 10.1092593,11.287037 9.81481481,11.287037 Z M0.981481481,10.3055556 L9.32407407,10.3055556 L9.32407407,9.32407407 C9.32407407,7.95 8.19537037,6.8212963 6.87037037,6.8212963 L3.43518519,6.8212963 C2.06111111,6.8212963 0.981481481,7.95 0.981481481,9.32407407 L0.981481481,10.3055556 Z"></path>
                                        </g>
                                        <g transform="translate(10.796296, 0.000000)">
                                            <path d="M5.44722222,6.33055556 C3.7787037,6.33055556 2.40462963,4.95648148 2.40462963,3.33703704 C2.40462963,1.66851852 3.7787037,0.294444444 5.44722222,0.294444444 C7.11574074,0.294444444 8.48981481,1.66851852 8.48981481,3.33703704 C8.48981481,4.95648148 7.11574074,6.33055556 5.44722222,6.33055556 Z M5.44722222,1.22685185 C4.31851852,1.22685185 3.38611111,2.15925926 3.38611111,3.28796296 C3.38611111,4.41666667 4.31851852,5.3 5.44722222,5.3 C6.57592593,5.3 7.50833333,4.36759259 7.50833333,3.28796296 C7.50833333,2.15925926 6.57592593,1.22685185 5.44722222,1.22685185 Z"></path>
                                            <path d="M10.0601852,11.287037 L0.736111111,11.287037 C0.441666667,11.287037 0.24537037,11.0907407 0.24537037,10.7962963 L0.24537037,9.32407407 C0.24537037,7.41018519 1.81574074,5.83981481 3.68055556,5.83981481 L7.11574074,5.83981481 C9.02962963,5.83981481 10.5509259,7.41018519 10.5509259,9.32407407 L10.5509259,10.7962963 C10.5509259,11.0416667 10.3546296,11.287037 10.0601852,11.287037 Z M1.22685185,10.3055556 L9.56944444,10.3055556 L9.56944444,9.32407407 C9.56944444,7.95 8.44074074,6.8212963 7.11574074,6.8212963 L3.68055556,6.8212963 C2.30648148,6.8212963 1.22685185,7.95 1.22685185,9.32407407 L1.22685185,10.3055556 Z"></path>
                                        </g>
                                        <g transform="translate(22.083333, 0.000000)">
                                            <path d="M5.15277778,6.33055556 C4.66203704,6.33055556 4.12222222,6.18333333 3.68055556,5.93796296 C2.69907407,5.39814815 2.11018519,4.41666667 2.11018519,3.28796296 C2.11018519,1.61944444 3.48425926,0.24537037 5.15277778,0.24537037 C6.87037037,0.24537037 8.19537037,1.61944444 8.19537037,3.28796296 C8.19537037,4.95648148 6.87037037,6.33055556 5.15277778,6.33055556 Z M5.20185185,1.22685185 C4.02407407,1.22685185 3.14074074,2.15925926 3.14074074,3.28796296 C3.14074074,4.02407407 3.53333333,4.71111111 4.1712963,5.05462963 C4.46574074,5.20185185 4.80925926,5.3 5.15277778,5.3 C6.28148148,5.3 7.21388889,4.36759259 7.21388889,3.28796296 C7.21388889,2.15925926 6.33055556,1.27592593 5.20185185,1.22685185 Z"></path>
                                            <path d="M9.81481481,11.287037 L0.490740741,11.287037 C0.196296296,11.287037 0,11.0907407 0,10.7962963 L0,9.32407407 C0,7.41018519 1.57037037,5.83981481 3.43518519,5.83981481 L6.87037037,5.83981481 C8.78425926,5.83981481 10.3055556,7.41018519 10.3055556,9.32407407 L10.3055556,10.7962963 C10.3055556,11.0416667 10.1092593,11.287037 9.81481481,11.287037 Z M0.981481481,10.3055556 L9.32407407,10.3055556 L9.32407407,9.32407407 C9.32407407,7.95 8.19537037,6.8212963 6.87037037,6.8212963 L3.43518519,6.8212963 C2.06111111,6.8212963 0.981481481,7.95 0.981481481,9.32407407 L0.981481481,10.3055556 Z"></path>
                                        </g>
                                    </g>
                                    <g transform="translate(7.361111, 0.000000)" id="Shape">
                                        <path d="M8.83333333,20.4148148 C8.73518519,20.4148148 8.63703704,20.3657407 8.58796296,20.3166667 C8.39166667,20.2185185 4.22037037,17.4212963 1.91388889,12.562963 C0.932407407,10.5018519 0.392592593,8.34259259 0.392592593,6.13425926 C0.392592593,5.34907407 0.490740741,4.56388889 0.637962963,3.72962963 C0.687037037,3.48425926 0.883333333,3.33703704 1.1287037,3.33703704 L1.325,3.33703704 C3.87685185,3.33703704 6.4287037,2.15925926 8.53888889,0.0981481481 C8.58796296,0.0490740741 8.68611111,0 8.83333333,0 C8.98055556,0 9.0787037,0.0490740741 9.17685185,0.147222222 C11.1888889,2.25740741 13.5444444,3.28796296 16.587037,3.38611111 C16.8324074,3.38611111 17.0287037,3.53333333 17.0777778,3.7787037 C17.225,4.61296296 17.3231481,5.39814815 17.3231481,6.18333333 C17.3231481,8.34259259 16.7833333,10.5018519 15.8018519,12.562963 C13.4462963,17.3722222 9.32407407,20.1694444 9.12777778,20.3166667 C9.02962963,20.4148148 8.93148148,20.4148148 8.83333333,20.4148148 Z M1.5212963,4.36759259 C1.42314815,5.00555556 1.37407407,5.59444444 1.37407407,6.18333333 C1.37407407,8.19537037 1.86481481,10.2074074 2.79722222,12.1703704 C4.66203704,16.0962963 7.85185185,18.6481481 8.83333333,19.3351852 C9.76574074,18.6481481 13.0046296,16.0472222 14.8694444,12.1703704 C15.8018519,10.2074074 16.2925926,8.19537037 16.2925926,6.18333333 C16.2925926,5.59444444 16.2435185,4.95648148 16.1453704,4.36759259 C13.2009259,4.22037037 10.8453704,3.18981481 8.78425926,1.17777778 C6.67407407,3.18981481 4.07314815,4.31851852 1.5212963,4.36759259 Z"></path>
                                        <path d="M8.83333333,17.9611111 C8.73518519,17.9611111 8.58796296,17.912037 8.53888889,17.862963 C6.67407407,16.2925926 2.35555556,12.0231481 2.35555556,6.23240741 C2.35555556,6.08518519 2.35555556,5.88888889 2.35555556,5.74166667 C2.35555556,5.4962963 2.55185185,5.3 2.79722222,5.3 C4.80925926,5.00555556 6.77222222,4.1712963 8.53888889,2.79722222 C8.73518519,2.65 8.98055556,2.65 9.12777778,2.79722222 C10.7962963,4.1712963 12.7101852,4.95648148 14.9185185,5.25092593 C15.1638889,5.3 15.3111111,5.4962963 15.3601852,5.69259259 C15.3601852,5.88888889 15.3601852,6.03611111 15.3601852,6.23240741 C15.3601852,11.9740741 11.0416667,16.2925926 9.17685185,17.862963 C9.02962963,17.912037 8.93148148,17.9611111 8.83333333,17.9611111 Z M3.28796296,6.18333333 C3.28796296,6.18333333 3.28796296,6.18333333 3.28796296,6.18333333 C3.28796296,11.3361111 6.91944444,15.1638889 8.78425926,16.8324074 C10.6490741,15.1638889 14.3296296,11.287037 14.3296296,6.23240741 C14.3296296,6.23240741 14.3296296,6.18333333 14.3296296,6.18333333 C12.2194444,5.83981481 10.4037037,5.05462963 8.78425926,3.7787037 C7.11574074,5.00555556 5.20185185,5.83981481 3.28796296,6.18333333 Z"></path>
                                        <path d="M7.95,12.3666667 C7.95,12.3666667 7.90092593,12.3666667 7.90092593,12.3666667 C7.7537037,12.3666667 7.60648148,12.2685185 7.55740741,12.1212963 L6.03611111,9.56944444 C5.88888889,9.32407407 5.98703704,9.02962963 6.23240741,8.88240741 C6.47777778,8.73518519 6.77222222,8.83333333 6.91944444,9.0787037 L8.09722222,11.0907407 L11.6796296,7.55740741 C11.8759259,7.36111111 12.1703704,7.36111111 12.3666667,7.55740741 C12.562963,7.7537037 12.562963,8.04814815 12.3666667,8.24444444 L8.34259259,12.2194444 C8.19537037,12.3175926 8.04814815,12.3666667 7.95,12.3666667 Z"></path>
                                    </g>
                                    <path d="M27.2851852,22.3287037 C27.2851852,22.3287037 27.2851852,22.3287037 27.2851852,22.3287037 C26.9907407,22.3287037 26.7944444,22.0833333 26.7944444,21.837963 C26.7944444,21.6907407 26.7944444,21.5435185 26.7944444,21.3962963 C26.7944444,18.0101852 25.1259259,14.7712963 22.3777778,12.7592593 C22.1814815,12.612037 22.0833333,12.3175926 22.2796296,12.0722222 C22.4268519,11.8759259 22.7212963,11.7777778 22.9666667,11.9740741 C26.0092593,14.1333333 27.7759259,17.6666667 27.7759259,21.3962963 C27.7759259,21.5435185 27.7759259,21.6907407 27.7759259,21.837963 C27.7759259,22.1324074 27.5796296,22.3287037 27.2851852,22.3287037 Z" id="Shape"></path>
                                    <path d="M5.1037037,22.3777778 C4.85833333,22.3777778 4.61296296,22.1814815 4.61296296,21.887037 C4.61296296,21.7398148 4.61296296,21.5925926 4.61296296,21.3962963 C4.61296296,17.6666667 6.4287037,14.1824074 9.42222222,11.9740741 C9.61851852,11.8268519 9.96203704,11.8759259 10.1092593,12.0722222 C10.2564815,12.2685185 10.2074074,12.612037 10.0111111,12.7592593 C7.26296296,14.7712963 5.59444444,17.9611111 5.59444444,21.3472222 C5.59444444,21.4944444 5.59444444,21.6416667 5.59444444,21.7888889 C5.59444444,22.1324074 5.39814815,22.3287037 5.1037037,22.3777778 C5.1037037,22.3777778 5.1037037,22.3777778 5.1037037,22.3777778 Z" id="Shape"></path>
                                </g>
                            </g>
                        </g>
                    </g>
                </g>
            </g>
        </g>
    </g>
</svg>