<?xml version="1.0" encoding="UTF-8"?>
<svg width="64px" height="64px" viewBox="0 0 64 64" version="1.1" xmlns="http://www.w3.org/2000/svg" xmlns:xlink="http://www.w3.org/1999/xlink">
    <!-- Generator: Sketch 54.1 (76490) - https://sketchapp.com -->
    <title>Group 6</title>
    <desc>Created with Sketch.</desc>
    <g id="Preventivatore-sport" stroke="none" stroke-width="1" fill="none" fill-rule="evenodd">
        <g id="sport-premium---desktop-New" transform="translate(-848.000000, -541.000000)">
            <g id="Group-7" transform="translate(608.000000, 150.000000)">
                <g transform="translate(240.000000, 391.000000)" id="Button/Add-on-Copy-3">
                    <g>
                        <g id="Group-19-Copy">
                            <g id="Group-6">
                                <g id="Group-17" fill="#FFD505" opacity="0.35">
                                    <g id="Group-2">
                                        <circle id="Oval" cx="32" cy="32" r="32"></circle>
                                    </g>
                                </g>
                                <g id="equipaggiamento-sportivo" transform="translate(15.000000, 14.000000)" fill="#4A4A4A">
                                    <path d="M31.609375,26.9454545 C31.609375,23.9454545 29.1484375,21.3818182 26.03125,21.3818182 C24.28125,21.3818182 22.5859375,22.2 21.546875,23.6727273 C18.8125,27.4363636 21.6015625,32.5090909 26.03125,32.5090909 C29.1484375,32.5090909 31.609375,29.9454545 31.609375,26.9454545 Z M28.546875,30.6545455 C25.921875,28.8545455 25.921875,25.0363636 28.546875,23.2363636 C29.8046875,24.0545455 30.515625,25.5272727 30.515625,26.9454545 C30.515625,28.3636364 29.8046875,29.7818182 28.546875,30.6545455 Z M22.3671875,29.4545455 C22.3671875,29.4545455 22.3671875,29.4545455 22.3671875,29.4545455 C21.3828125,28.0363636 21.2734375,25.9636364 22.3671875,24.3818182 C22.3671875,24.3818182 22.3671875,24.3818182 22.3671875,24.3818182 C23.40625,25.9090909 23.40625,27.9272727 22.3671875,29.4545455 Z M23.1328125,30.2727273 C24.6640625,28.3090909 24.6640625,25.5272727 23.1328125,23.5636364 C23.8984375,22.8545455 24.9375,22.4727273 26.0859375,22.4727273 C26.578125,22.4727273 27.0703125,22.5818182 27.5078125,22.6909091 C24.8828125,24.9272727 24.8828125,28.9090909 27.5078125,31.1454545 C27.0703125,31.3090909 26.578125,31.3636364 26.0859375,31.3636364 C24.9375,31.4181818 23.8984375,30.9818182 23.1328125,30.2727273 Z" id="Shape"></path>
                                    <path d="M33.1953125,1.8 C31.3359375,0.109090909 28.4375,0.272727273 26.7421875,2.18181818 L4.7578125,29.5636364 C4.1015625,29.4 3.390625,29.6181818 2.953125,30.1090909 C2.296875,30.8727273 2.3515625,32.0181818 3.1171875,32.7272727 L5.6875,35.0181818 C6.453125,35.7272727 7.65625,35.6181818 8.3125,34.8545455 C8.8046875,34.3090909 8.9140625,33.6 8.6953125,33 L33.6328125,8.18181818 C33.6328125,8.18181818 33.6328125,8.18181818 33.6328125,8.18181818 C35.21875,6.32727273 35.0546875,3.43636364 33.1953125,1.8 Z M12.796875,21.2727273 L16.0234375,24.1636364 L7.984375,32.1818182 C6.5078125,30.8727273 7.546875,31.7454545 5.6875,30.1636364 L12.796875,21.2727273 Z M7.4375,34.2 C7.1640625,34.5272727 6.671875,34.5272727 6.34375,34.2545455 L3.828125,31.9636364 C3.5,31.6909091 3.5,31.2 3.7734375,30.8727273 C3.9921875,30.6545455 4.375,30.5454545 4.6484375,30.7090909 C4.8671875,30.8727273 7.2734375,33 7.4921875,33.2727273 C7.7109375,33.5454545 7.65625,33.9272727 7.4375,34.2 Z M32.7578125,7.47272727 L16.7890625,23.4 L13.453125,20.4545455 L27.5625,2.83636364 C28.8203125,1.41818182 31.0625,1.30909091 32.484375,2.56363636 C33.90625,3.87272727 34.015625,6.05454545 32.7578125,7.47272727 Z" id="Shape"></path>
                                    <path d="M2.515625,19.7454545 C5.03125,22.2545455 11.59375,17.0727273 14.2734375,14.4 C18.4296875,10.2545455 21.7109375,4.74545455 19.6328125,2.67272727 C18.484375,1.52727273 16.078125,1.96363636 12.9609375,3.87272727 L8.640625,0.872727273 C7.21875,-0.109090909 5.3046875,0.654545455 4.8671875,2.29090909 L4.484375,3.70909091 C4.2109375,4.85454545 2.953125,4.74545455 2.1328125,5.07272727 C0.4921875,5.50909091 -0.21875,7.41818182 0.7109375,8.83636364 L3.71875,13.1454545 C1.8046875,16.2 1.3671875,18.6 2.515625,19.7454545 Z M2.40625,6.10909091 C3.0625,5.83636364 5.0859375,5.89090909 5.578125,3.98181818 L5.9609375,2.56363636 C6.1796875,1.63636364 7.2734375,1.25454545 8.0390625,1.8 C9.515625,2.83636364 8.5859375,2.18181818 14.546875,6.27272727 C14.8203125,6.49090909 14.9296875,6.81818182 14.765625,7.14545455 C13.234375,10.2545455 10.6640625,12.7636364 7,14.8363636 C6.7265625,15 6.2890625,14.8909091 6.125,14.6181818 L1.5859375,8.18181818 C1.09375,7.41818182 1.4765625,6.32727273 2.40625,6.10909091 Z M4.375,14.1272727 L5.140625,15.2727273 C5.359375,15.6 5.796875,15.8727273 6.1796875,15.9818182 C6.6171875,16.0909091 7.109375,15.9818182 7.4375,15.8181818 C10.8828125,13.9090909 13.8359375,11.2909091 15.640625,7.69090909 C15.9140625,7.09090909 15.859375,6.43636364 15.53125,5.89090909 C15.53125,5.89090909 15.53125,5.89090909 15.53125,5.89090909 C15.421875,5.72727273 15.2578125,5.56363636 15.09375,5.45454545 L13.890625,4.63636364 C16.515625,3.10909091 18.2109375,2.94545455 18.8125,3.49090909 C19.9609375,4.63636364 18.046875,9.10909091 13.453125,13.6909091 C8.9140625,18.2181818 4.4296875,20.1272727 3.28125,18.9818182 C2.6796875,18.4363636 2.84375,16.6909091 4.375,14.1272727 Z" id="Shape"></path>
                                    <path d="M7.328125,10.1454545 C7.4375,10.3636364 7.6015625,10.5272727 7.875,10.5272727 C8.1484375,10.5272727 8.3671875,10.3090909 8.421875,10.0909091 C9.2421875,8.23636364 9.515625,8.83636364 10.0625,8.56363636 C10.2265625,8.45454545 10.390625,8.29090909 10.390625,8.07272727 C10.390625,7.85454545 10.28125,7.69090909 10.1171875,7.58181818 C10.0078125,7.47272727 8.9140625,7.25454545 9.1328125,5.78181818 C9.1328125,5.72727273 9.1328125,5.61818182 9.1328125,5.56363636 C9.078125,5.18181818 8.640625,4.96363636 8.3125,5.12727273 C8.09375,5.23636364 7.4375,6.21818182 6.3984375,5.67272727 L6.125,5.56363636 C5.90625,5.45454545 5.6328125,5.45454545 5.46875,5.61818182 C5.3046875,5.78181818 5.25,6.05454545 5.359375,6.27272727 L5.46875,6.54545455 C6.015625,7.63636364 5.03125,8.23636364 4.921875,8.45454545 C4.8125,8.61818182 4.8125,8.83636364 4.9765625,9.05454545 C5.0859375,9.21818182 5.3046875,9.32727273 5.5234375,9.27272727 C5.6875,9.27272727 6.671875,8.78181818 7.328125,10.1454545 Z M6.7265625,6.92727273 C7.1640625,6.98181818 7.6015625,6.87272727 7.984375,6.70909091 C8.09375,7.14545455 8.2578125,7.52727273 8.5859375,7.85454545 C8.203125,8.07272727 7.875,8.34545455 7.65625,8.72727273 C7.2734375,8.4 6.890625,8.23636364 6.5078125,8.12727273 C6.7265625,7.74545455 6.78125,7.30909091 6.7265625,6.92727273 Z" id="Shape"></path>
                                </g>
                            </g>
                        </g>
                    </g>
                </g>
            </g>
        </g>
    </g>
</svg>