<?xml version="1.0" encoding="UTF-8"?>
<svg width="64px" height="64px" viewBox="0 0 64 64" version="1.1" xmlns="http://www.w3.org/2000/svg" xmlns:xlink="http://www.w3.org/1999/xlink">
    <!-- Generator: Sketch 54.1 (76490) - https://sketchapp.com -->
    <title>Group 10</title>
    <desc>Created with Sketch.</desc>
    <g id="Preventivatore-viaggi" stroke="none" stroke-width="1" fill="none" fill-rule="evenodd">
        <g id="viaggi-premium--desktop-New" transform="translate(-848.000000, -680.000000)">
            <g id="Group-7" transform="translate(608.000000, 120.000000)">
                <g id="Group-10" transform="translate(240.000000, 560.000000)">
                    <g id="Group-17" fill="#FFD505" opacity="0.35">
                        <g id="Group-2">
                            <circle id="Oval" cx="32" cy="32" r="32"></circle>
                        </g>
                    </g>
                    <g id="noun_Cancel-Flight_1598395" transform="translate(15.000000, 23.000000)" fill="#4A4A4A">
                        <g id="Group">
                            <path d="M32.6857503,18.3659292 C32.6853943,18.3659292 32.6850382,18.3659292 32.6850382,18.3659292 L2.33525593,18.3570087 C1.7445882,18.3570087 1.1909485,18.1115159 0.776163719,17.6654898 C0.368143708,17.2266001 0.143127396,16.6446251 0.143483448,16.027325 C0.143483448,15.0107422 0.769398948,14.1297513 1.6541544,13.8228853 L0.0192260104,8.39992112 L2.91880283,8.40063479 L7.13892616,13.6997821 L12.6012674,13.7015662 L8.66063428,0.634070777 L12.6197814,0.635141208 L23.0282084,13.7044208 L32.6861064,13.7072754 C33.8948568,13.7076322 34.8782349,14.7527607 34.8782349,16.0369591 C34.8778789,16.6546161 34.6528626,17.2362342 34.2444866,17.6751239 C33.8293457,18.1204364 33.276062,18.3659292 32.6857503,18.3659292 Z M1.00118003,9.13069035 L2.58804321,14.3941556 L2.16222125,14.4498197 C1.42700192,14.5461613 0.872650115,15.2244779 0.872650115,16.027325 C0.872650115,16.4594351 1.02752679,16.86407 1.30950925,17.167011 C1.58508299,17.4631723 1.94931027,17.6262395 2.33525593,17.6262395 L32.6850382,17.63516 C32.6853943,17.63516 32.6853943,17.63516 32.6857503,17.63516 C33.071696,17.63516 33.4359233,17.4720929 33.711141,17.1762883 C33.9934794,16.8733473 34.1490682,16.4687124 34.1490682,16.0369591 C34.1490682,15.1556115 33.4928894,14.4384014 32.6861063,14.4380446 L22.6771546,14.4351901 L12.2687276,1.36591044 L9.6425883,1.36484001 L13.5832215,14.4323355 L6.78787236,14.4305514 L2.56774904,9.13140402 L1.00118003,9.13069035 Z" id="Shape"></path>
                            <path d="M28.7241109,11.8907001 C25.9156799,11.8907001 23.6309814,9.60098032 23.6309814,6.78637696 C23.6309814,3.97213043 25.9156799,1.68241061 28.7241109,1.68241061 C31.5321859,1.68241061 33.8168844,3.97213043 33.8168844,6.78637696 C33.8168844,9.60098032 31.5321859,11.8907001 28.7241109,11.8907001 Z M28.7241109,2.41317984 C26.3176473,2.41317984 24.3601481,4.37498122 24.3601481,6.78637696 C24.3601481,9.19812953 26.3176473,11.1599309 28.7241109,11.1599309 C31.1302185,11.1599309 33.0877177,9.19812953 33.0877177,6.78637696 C33.0877177,4.37498122 31.1302185,2.41317984 28.7241109,2.41317984 Z" id="Shape"></path>
                            <g transform="translate(25.520833, 3.653846)" id="Rectangle-path">
                                <polygon transform="translate(3.203278, 3.132529) rotate(-45.000000) translate(-3.203278, -3.132529) " points="2.81004324 -0.44757196 3.53268433 -0.441124236 3.59651329 6.71262982 2.8738722 6.7061821"></polygon>
                                <polygon transform="translate(3.203278, 3.132530) rotate(-45.000000) translate(-3.203278, -3.132530) " points="-0.305918661 2.73261396 6.70589583 2.79517648 6.71247408 3.53244593 -0.299340417 3.46988341"></polygon>
                            </g>
                        </g>
                    </g>
                </g>
            </g>
        </g>
    </g>
</svg>