<?xml version="1.0" encoding="UTF-8"?>
<svg width="100px" height="80px" viewBox="0 0 100 80" version="1.1" xmlns="http://www.w3.org/2000/svg" xmlns:xlink="http://www.w3.org/1999/xlink">
    <!-- Generator: Sketch 54.1 (76490) - https://sketchapp.com -->
    <title>Product Icon/Fido/Big</title>
    <desc>Created with Sketch.</desc>
    <g id="Preventivatore-bike" stroke="none" stroke-width="1" fill="none" fill-rule="evenodd">
        <g id="bike-plus---desktop-New" transform="translate(-912.000000, -234.000000)">
            <g id="Group-7" transform="translate(608.000000, 150.000000)">
                <g id="Product-Icon/Bike/Big" transform="translate(304.000000, 80.000000)">
                    <g id="Group-29" transform="translate(0.000000, 4.000000)">
                        <circle id="Oval" fill="#FFD505" opacity="0.35" cx="30" cy="37" r="30"></circle>
                        <g id="Bike-pos" transform="translate(15.000000, 0.000000)" fill="#4A4A4A" fill-rule="nonzero">
                            <path d="M68.6291609,80 C68.4122089,80 68.1952568,80 68.0506221,80 L50.9114113,80 C50.6944592,80 50.5498245,79.8552036 50.5498245,79.638009 C50.5498245,79.4208145 50.6944592,79.2760181 50.9114113,79.2760181 L63.6392641,79.2760181 C62.9160906,79.0588235 62.1929172,78.7692308 61.4697437,78.479638 C57.2753377,76.5972851 54.0210571,73.1221719 52.4300755,68.7782805 C52.0684888,67.8371041 51.7792194,66.8235294 51.6345847,65.8099548 L38.6174625,65.8099548 C38.4005105,65.8099548 38.2558758,65.6651584 38.2558758,65.4479638 L37.8219717,59.0045249 L34.7123259,44.5248869 L26.2511964,39.6742081 C26.1788791,39.7466063 26.1065617,39.7466063 26.0342444,39.7466063 L24.8771669,39.7466063 L23.43082,45.8280543 C26.3958311,46.5520362 29.1438902,48.1447964 31.385728,50.3891403 C34.6400085,53.6470588 36.4479421,57.9909502 36.4479421,62.6244344 C36.4479421,72.1809955 28.7099862,79.9276018 19.1640966,79.9276018 C18.9471445,79.9276018 18.7301925,79.9276018 18.4409231,79.9276018 C18.4409231,79.9276018 18.3686058,79.9276018 18.3686058,79.9276018 L0.361586728,79.9276018 C0.144634691,79.9276018 0,79.7828054 0,79.5656109 C0,79.3484163 0.144634691,79.2036199 0.361586728,79.2036199 L14.1741997,79.2036199 C7.01478252,77.0316742 1.80793364,70.4434389 1.80793364,62.6244344 C1.80793364,53.0678733 9.54588961,45.321267 19.0917792,45.321267 L19.0917792,45.321267 C20.3211741,45.321267 21.4782516,45.4660633 22.7076465,45.6832579 L24.0816761,39.7466063 L22.1291077,39.7466063 C17.9347017,39.7466063 14.5357865,36.3438914 14.5357865,32.1447964 C14.5357865,32.0723982 14.6081038,31.9276018 14.6804211,31.8552036 C14.7527385,31.7828054 14.8250558,31.7828054 14.9696905,31.7828054 L20.3211741,32 C20.3934914,32 20.4658088,32.0723982 20.5381261,32.0723982 C20.3934914,28.5972851 21.9121557,26.9321267 21.984473,26.8597285 C21.984473,26.8597285 22.0567904,26.7873303 22.0567904,26.7873303 L35.4354993,13.321267 C38.4728278,10.280543 43.3904073,10.1357466 46.5723705,13.0316742 L61.8313304,26.7873303 L68.5568436,26.7873303 C71.0879507,26.7873303 73.1128363,28.8144796 73.1128363,31.3484163 C73.1128363,33.8823529 71.0879507,35.9095023 68.5568436,35.9095023 L64.3624375,35.9095023 C64.1454855,35.9095023 64.0008508,35.7647059 64.0008508,35.5475113 C64.0008508,35.3303167 64.1454855,35.1855204 64.3624375,35.1855204 L68.5568436,35.1855204 C70.6540466,35.1855204 72.3896629,33.4479638 72.3896629,31.3484163 C72.3896629,29.2488688 70.6540466,27.5113122 68.5568436,27.5113122 L62.0482825,27.5113122 L62.0482825,38.5882353 L64.1454855,45.9004525 C67.9783048,44.8868778 72.0280761,45.1764706 75.7162608,46.9140271 C79.9106668,48.7963801 83.1649474,52.2714932 84.755929,56.6153846 C84.8282463,56.8325792 84.755929,56.9773756 84.5389769,57.0497738 C84.3220249,57.1221719 84.1773902,57.0497738 84.1050728,56.8325792 C82.5140912,52.7058824 79.4767627,49.3755656 75.4269914,47.5656109 C71.8834415,45.9728507 68.0506221,45.6108597 64.3624375,46.6244344 L68.9184303,62.5520362 C68.9907476,62.7692308 68.8461129,62.9140271 68.7014783,62.9864253 C68.4845262,63.0588235 68.3398915,62.9140271 68.2675742,62.7692308 L63.7115814,46.841629 C63.422312,46.9140271 63.1330426,47.0588235 62.7714559,47.1312217 C54.2380091,50.3167421 49.8989684,59.8733032 53.0809316,68.4886878 C55.5397214,75.0769231 61.7590131,79.1312217 68.3398915,79.2760181 L68.9184303,79.2760181 C70.7263639,79.2760181 72.6066149,78.9140271 74.4868659,78.1900452 C79.115176,76.4524887 82.7310433,72.760181 84.3220249,68.0542986 C84.3943422,67.8371041 84.6112943,67.7647059 84.755929,67.8371041 C84.972881,67.9095023 85.0451983,68.1266968 84.972881,68.2714932 C83.309582,73.1945701 79.5490801,77.0316742 74.7038179,78.841629 C72.7512496,79.5656109 70.6540466,80 68.6291609,80 Z M19.1640966,45.6832579 L19.1640966,46.0452489 C10.052111,46.0452489 2.60342444,53.5022624 2.60342444,62.6244344 C2.60342444,71.7466063 10.052111,79.2036199 19.1640966,79.2036199 C28.2037648,79.2036199 35.580134,71.9638009 35.7247687,62.9864253 L19.1640966,62.9864253 C19.0194619,62.9864253 18.9471445,62.9140271 18.8748272,62.841629 C18.8025098,62.7692308 18.8025098,62.6244344 18.8025098,62.5520362 L22.5630118,46.4072398 C21.4782516,46.1900452 20.3211741,46.0452489 19.1640966,46.0452489 L19.1640966,45.6832579 Z M38.9790492,65.0135747 L51.272998,65.0135747 C51.1283633,62.1176471 49.392747,59.2941176 46.1384664,59.2941176 L38.6174625,59.2941176 L38.9790492,65.0135747 Z M19.5980006,62.2624434 L35.7247687,62.2624434 C35.6524513,57.9909502 33.9168351,53.9366516 30.8795065,50.8959276 C28.7823035,48.7239819 26.1065617,47.2760181 23.2861853,46.5520362 L19.5980006,62.2624434 Z M47.6571307,58.7873303 C49.392747,59.2217195 50.6221419,60.5248869 51.3453153,62.1176471 C51.5622674,55.3122172 55.8289907,48.9411765 62.5545039,46.4072398 C62.8437733,46.2624434 63.20536,46.1900452 63.4946294,46.0452489 L61.542061,39.3122172 L46.6446879,53.5746606 L47.6571307,58.7873303 Z M38.4728278,58.5701357 L46.8616399,58.5701357 L44.0412634,44.0180995 C43.6796767,41.9909502 42.7395512,40.1085973 41.3655216,38.5882353 L34.8569605,31.4208145 L22.4183771,27.5837104 C22.0567904,28.1628959 21.0443475,29.8280543 21.4059343,32.8687783 C21.8398383,36.561086 24.1539934,37.5746606 24.2263108,37.6470588 L35.2908646,44.0180995 C35.363182,44.0904977 35.4354993,44.1628959 35.4354993,44.2352941 L38.4728278,58.5701357 Z M42.5949165,39.0226244 C43.6796767,40.4705882 44.4028502,42.1357466 44.6921195,43.8733032 L46.4277358,52.7782805 L60.8188876,39.0226244 L42.5949165,39.0226244 Z M24.5878975,39.0226244 L25.0941189,39.0226244 L23.7924067,38.2986425 C23.7200893,38.2986425 21.0443475,37.0678733 20.5381261,32.9411765 C20.5381261,32.7963801 20.5381261,32.7239819 20.5381261,32.5791855 C20.5381261,32.7239819 20.3934914,32.7239819 20.3211741,32.7239819 L15.3312773,32.5067873 C15.5482293,36.1266968 18.5132405,39.0226244 22.2014251,39.0226244 L24.5878975,39.0226244 C24.5878975,39.0226244 24.5878975,39.0226244 24.5878975,39.0226244 Z M35.5078167,31.1312217 L41.8717431,38.081448 C41.9440604,38.2262443 42.0886951,38.2986425 42.1610124,38.4434389 C42.2333298,38.3710407 42.3056471,38.2986425 42.4502818,38.2986425 L61.3974264,38.2986425 L61.3974264,34.8959276 L44.4028502,22.4434389 L35.5078167,31.1312217 Z M44.3305328,21.6470588 C44.4028502,21.6470588 44.4751675,21.6470588 44.5474848,21.719457 L61.3974264,34.0271493 L61.3974264,27.3665158 L46.1384664,13.6108597 C43.2457726,11.0045249 38.7620972,11.0769231 36.0140381,13.9004525 L22.9969159,27.0045249 L35.0015952,30.6968326 L44.1135808,21.719457 C44.1858981,21.6470588 44.2582155,21.6470588 44.3305328,21.6470588 Z M51.3453153,13.1764706 C47.729448,13.1764706 44.7644369,10.2081448 44.7644369,6.58823529 C44.7644369,2.96832579 47.729448,0 51.3453153,0 C54.9611826,0 57.9261938,2.96832579 57.9261938,6.58823529 L57.9261938,6.58823529 C57.9985111,10.2081448 55.0334999,13.1764706 51.3453153,13.1764706 Z M51.3453153,0.65158371 C48.0910348,0.65158371 45.4876103,3.25791855 45.4876103,6.5158371 C45.4876103,9.77375566 48.0910348,12.3800905 51.3453153,12.3800905 C54.5995959,12.3800905 57.2030203,9.77375566 57.2030203,6.5158371 C57.2753377,3.33031674 54.5995959,0.65158371 51.3453153,0.65158371 Z" id="Shape"></path>
                        </g>
                    </g>
                </g>
            </g>
        </g>
    </g>
</svg>