<?xml version="1.0" encoding="UTF-8"?>
<svg width="100px" height="75px" viewBox="0 0 100 75" version="1.1" xmlns="http://www.w3.org/2000/svg" xmlns:xlink="http://www.w3.org/1999/xlink">
    <!-- Generator: Sketch 54.1 (76490) - https://sketchapp.com -->
    <title>Product Icon/Fido/Big</title>
    <desc>Created with Sketch.</desc>
    <g id="Preventivatore-casa" stroke="none" stroke-width="1" fill="none" fill-rule="evenodd">
        <g id="casa---desktop-New" transform="translate(-912.000000, -191.000000)">
            <g id="Group-7" transform="translate(608.000000, 150.000000)">
                <g id="Product-Icon/Lavori-in-Casa/Big" transform="translate(304.000000, 30.000000)">
                    <g id="lavori-in-casa" transform="translate(0.000000, 11.000000)" fill="#FFD505" opacity="0.35">
                        <circle id="Oval" cx="30" cy="30" r="30"></circle>
                    </g>
                    <g id="Casa_Blu" transform="translate(21.000000, 15.000000)" stroke="#4A4A4A">
                        <path d="M76.1050517,26.9302 L68.8745432,21.1208667 L68.8745432,4.86353333 C68.8745432,4.1842 68.3215432,3.63353333 67.6386619,3.63353333 L55.3916534,3.63353333 C54.708772,3.63353333 54.155772,4.1842 54.155772,4.86353333 L54.155772,9.3562 L45.5039331,2.4642 C41.9710263,-0.377133333 36.9257381,-0.377133333 33.3921619,2.4642 L2.55739068,26.9302 C-0.00274491525,28.9768667 -0.411134746,32.7028667 1.64487373,35.2515333 C2.77028898,36.6468667 4.46811949,37.4602 6.26436525,37.4648667 L9.5395178,37.4648667 L9.5395178,62.3982 C9.54621271,66.3508667 12.7631195,69.5542 16.7318653,69.5602 L61.941289,69.5602 C65.9107042,69.5542 69.127611,66.3508667 69.1343059,62.3982 L69.1343059,37.4648667 L72.3974076,37.4648667 C75.6732297,37.4755333 78.3384754,34.8395333 78.3498568,31.5775333 C78.3558822,29.7675333 77.5290602,28.0548667 76.1050517,26.9302 Z" id="Stroke-1"></path>
                        <path d="M40.3343203,50.2231333 L31.5720153,41.5358 L38.3827525,34.7544667 L47.1336763,43.4684667 L40.3343203,50.2231333 Z M35.0393119,27.9304667 C32.1846,25.0864667 27.5550661,25.0851333 24.6990153,27.9284667 C24.6990153,27.9291333 24.6983458,27.9298 24.6976763,27.9304667 C21.8416254,30.7724667 21.8402864,35.3824667 24.6956678,38.2264667 L24.6976763,38.2284667 L43.6670492,57.0744667 C46.6931508,59.7371333 51.3133119,59.4511333 53.987261,56.4371333 C56.4288966,53.6838 56.4288966,49.5504667 53.987261,46.7978 L35.0393119,27.9304667 Z" id="Stroke-3"></path>
                        <path d="M28.0618042,43.4471333 L24.7190331,46.7978 C21.8629822,49.6404667 21.8623127,54.2504667 24.7176941,57.0944667 C24.7176941,57.0951333 24.7183636,57.0958 24.7190331,57.0964667 C27.5737449,59.9398 32.2039483,59.9404667 35.0586602,57.0984667 L35.0606686,57.0964667 L38.4041093,53.7671333 L28.0618042,43.4471333 Z" id="Stroke-5"></path>
                        <path d="M48.8160415,25.798 C46.8738466,25.8 45.0126602,26.5726667 43.644889,27.946 L40.3021178,31.2746667 L50.6437534,41.5573333 L53.9871941,38.2286667 C56.8432449,35.3853333 56.8439144,30.776 53.9892025,27.9313333 C53.9885331,27.9306667 53.9885331,27.93 53.9871941,27.93 C52.6200924,26.5573333 50.7582364,25.784 48.8160415,25.7826667 L48.8160415,25.798 Z" id="Stroke-7"></path>
                        <path d="M31.0274508,32.9861333 C31.0455271,33.6334667 30.5340356,34.1721333 29.8839593,34.1914667 C29.2345525,34.2094667 28.6929339,33.6994667 28.6741881,33.0534667 C28.6561119,32.4061333 29.1676034,31.8661333 29.8170102,31.8481333 C30.4670864,31.8301333 31.0087051,32.3388 31.0274508,32.9861333 Z" id="Stroke-9"></path>
                        <path d="M34.2035856,30.4126 C34.2216619,31.0599333 33.7108398,31.5986 33.0607636,31.6179333 C32.4106873,31.6359333 31.8697381,31.1259333 31.8503229,30.4799333 C31.8322466,29.8326 32.3444076,29.2926 32.9931449,29.2746 C33.6432212,29.2566 34.1855093,29.7652667 34.2035856,30.4126 Z" id="Stroke-11"></path>
                        <path d="M28.0690347,35.7778 C28.0877805,36.4244667 27.576289,36.9638 26.9262127,36.9824667 C26.2761364,37.0004667 25.7351873,36.4911333 25.7164415,35.8444667 C25.6976958,35.1971333 26.2098568,34.6578 26.8592636,34.6391333 C27.5086703,34.6211333 28.0509585,35.1304667 28.0690347,35.7778 Z" id="Stroke-13"></path>
                        <path d="M29.8715068,28.9060667 C29.8902525,29.5534 29.378761,30.0920667 28.7286847,30.1114 C28.079278,30.1294 27.5376593,29.6194 27.5189136,28.9734 C27.5001678,28.3260667 28.0123288,27.7860667 28.6617356,27.7680667 C29.3118119,27.7500667 29.8534305,28.2587333 29.8715068,28.9060667 Z" id="Stroke-15"></path>
                        <path d="M26.9137602,31.6977333 C26.9325059,32.3444 26.4210144,32.8837333 25.7709381,32.9024 C25.1208619,32.9210667 24.5799127,32.4110667 24.5604975,31.7644 C24.5424212,31.1170667 25.0545822,30.5777333 25.703989,30.5597333 C26.3533958,30.5410667 26.8956839,31.0504 26.9137602,31.6977333 Z" id="Stroke-17"></path>
                        <path d="M34.2918915,36.0564667 C34.3099678,36.7038 33.7984763,37.2431333 33.1490695,37.2618 C32.4989932,37.2798 31.9573746,36.7704667 31.9386288,36.1238 C31.9205525,35.4764667 32.4320441,34.9371333 33.0814508,34.9184667 C33.7315271,34.9004667 34.2731458,35.4098 34.2918915,36.0564667 Z" id="Stroke-19"></path>
                        <path d="M37.4680263,33.4835333 C37.4861025,34.1302 36.9752805,34.6695333 36.3252042,34.6882 C35.675128,34.7062 35.1341788,34.1968667 35.1147636,33.5502 C35.0966873,32.9028667 35.6088483,32.3635333 36.2582551,32.3448667 C36.9076619,32.3268667 37.44995,32.8362 37.4680263,33.4835333 Z" id="Stroke-21"></path>
                        <path d="M31.3334085,38.8481333 C31.3521542,39.4954667 30.8406627,40.0341333 30.1905864,40.0534667 C29.5411797,40.0714667 28.999561,39.5614667 28.9808153,38.9154667 C28.9620695,38.2681333 29.4742305,37.7281333 30.1236373,37.7101333 C30.7737136,37.6921333 31.3153322,38.2008 31.3334085,38.8481333 Z" id="Stroke-23"></path>
                        <path d="M47.6215347,51.9054667 C47.559272,51.2608 48.0339415,50.6888 48.6806703,50.6268 C49.3280686,50.5654667 49.9024924,51.0381333 49.9647551,51.6821333 C50.0263483,52.3268 49.5516788,52.8988 48.90495,52.9601333 C48.2575517,53.0221333 47.683128,52.5494667 47.6215347,51.9054667 Z" id="Stroke-25"></path>
                        <path d="M44.6245559,54.6840667 C44.5622932,54.0394 45.0369627,53.4674 45.6836915,53.4060667 C46.3310898,53.3440667 46.9055136,53.8167333 46.9677763,54.4607333 C47.0293695,55.1054 46.5553695,55.6774 45.9079712,55.7394 C45.2605729,55.8007333 44.6861492,55.3287333 44.6245559,54.6840667 Z" id="Stroke-27"></path>
                        <path d="M50.3857983,48.9236667 C50.3235356,48.279 50.7982051,47.707 51.4449339,47.6456667 C52.0923322,47.5836667 52.6667559,48.0563333 52.7290186,48.7003333 C52.7906119,49.345 52.3166119,49.917 51.6692136,49.9783333 C51.0218153,50.0403333 50.4473915,49.5676667 50.3857983,48.9236667 Z" id="Stroke-29"></path>
                        <path d="M49.0474847,55.8996 C48.985222,55.2549333 49.4598915,54.6829333 50.1072898,54.6209333 C50.7540186,54.5596 51.3284424,55.0322667 51.3907051,55.6762667 C51.4522983,56.3209333 50.9782983,56.8929333 50.3309,56.9542667 C49.6835017,57.0162667 49.109078,56.5436 49.0474847,55.8996 Z" id="Stroke-31"></path>
                        <path d="M51.8117483,52.9178 C51.7494856,52.2731333 52.2241551,51.7011333 52.8715534,51.6398 C53.5182822,51.5778 54.0927059,52.0504667 54.1549686,52.6944667 C54.2165619,53.3391333 53.7425619,53.9111333 53.0951636,53.9724667 C52.4484347,54.0344667 51.874011,53.5618 51.8117483,52.9178 Z" id="Stroke-33"></path>
                        <path d="M44.158389,49.0584 C44.0961263,48.4137333 44.5707958,47.8417333 45.2181941,47.7804 C45.8649229,47.7184 46.4393466,48.1910667 46.5016093,48.8350667 C46.5632025,49.4797333 46.0892025,50.0517333 45.4418042,50.1137333 C44.7944059,50.1750667 44.2206517,49.7024 44.158389,49.0584 Z" id="Stroke-35"></path>
                        <path d="M41.1613432,51.8370667 C41.09975,51.1924 41.57375,50.6204 42.2211483,50.5590667 C42.8678771,50.4970667 43.4423008,50.9697333 43.5045636,51.6144 C43.5661568,52.2584 43.0921568,52.8304 42.4447585,52.8924 C41.7980297,52.9537333 41.2236059,52.4817333 41.1613432,51.8370667 Z" id="Stroke-37"></path>
                        <path d="M46.9226525,46.0766667 C46.8610593,45.432 47.3350593,44.86 47.9824576,44.7986667 C48.6291864,44.7366667 49.2036102,45.2093333 49.2658729,45.8533333 C49.3281356,46.498 48.8534661,47.07 48.2060678,47.132 C47.559339,47.1933333 46.9849153,46.7213333 46.9226525,46.0766667 Z" id="Stroke-39"></path>
                    </g>
                </g>
            </g>
        </g>
    </g>
</svg>