<?xml version="1.0" encoding="utf-8"?>
<!-- Generator: Adobe Illustrator 22.1.0, SVG Export Plug-In . SVG Version: 6.00 Build 0)  -->
<svg version="1.1" id="Livello_1" xmlns="http://www.w3.org/2000/svg" xmlns:xlink="http://www.w3.org/1999/xlink" x="0px" y="0px"
	 viewBox="0 0 19 21" style="enable-background:new 0 0 19 21;" xml:space="preserve">
<style type="text/css">
	.st0{fill:#FFFFFF;}
</style>
<title>Page 1 Copy 2</title>
<path class="st0" d="M14.9,12.6c-0.7,0-1.3,0.2-1.9,0.5c-0.6,0.3-1,0.8-1.4,1.3L7.4,12c0.1-0.3,0.2-0.5,0.3-0.8
	c0.2-0.7,0.2-1.4-0.1-2.1l4.4-2.5c0.4,0.4,0.8,0.7,1.3,0.9c0.5,0.2,1,0.3,1.6,0.3c1.1,0,2-0.4,2.8-1.2s1.2-1.7,1.2-2.8
	s-0.4-2-1.2-2.8C16.9,0.4,16,0,14.9,0s-2,0.4-2.8,1.2C11.4,1.9,11,2.8,11,3.9c0,0.4,0.1,0.8,0.2,1.1L6.8,7.6C6.4,7.2,6,6.9,5.5,6.6
	C5,6.4,4.5,6.3,3.9,6.3c-1.1,0-2,0.4-2.8,1.2C0.4,8.2,0,9.1,0,10.2s0.4,2,1.2,2.8c0.8,0.8,1.7,1.2,2.8,1.2c0.4,0,0.9-0.1,1.3-0.2
	c0.4-0.1,0.8-0.3,1.1-0.6l0,0l4.8,2.7c0,0.1,0,0.3-0.1,0.4c0,1.1,0.4,2,1.2,2.8c0.8,0.8,1.7,1.2,2.8,1.2s2-0.4,2.8-1.2
	s1.2-1.7,1.2-2.8s-0.4-2-1.2-2.8C16.9,12.9,16,12.6,14.9,12.6z M14.9,1.6c0.7,0,1.2,0.2,1.7,0.7c0.5,0.5,0.7,1,0.7,1.7
	c0,0.7-0.2,1.2-0.7,1.7c-0.4,0.4-1,0.7-1.7,0.7c-0.7,0-1.2-0.2-1.7-0.7c-0.4-0.4-0.7-1-0.7-1.7c0-0.7,0.2-1.2,0.7-1.7
	C13.7,1.8,14.3,1.6,14.9,1.6L14.9,1.6z M3.9,12.6c-0.7,0-1.2-0.2-1.7-0.7c-0.4-0.4-0.7-1-0.7-1.7c0-0.7,0.2-1.2,0.7-1.7
	c0.4-0.4,1-0.7,1.7-0.7c0.7,0,1.2,0.2,1.7,0.7c0.5,0.5,0.7,1,0.7,1.7c0,0.7-0.2,1.2-0.7,1.7C5.2,12.3,4.6,12.6,3.9,12.6L3.9,12.6z
	 M14.9,18.8c-0.7,0-1.2-0.2-1.7-0.7c-0.4-0.4-0.7-1-0.7-1.7c0-0.7,0.2-1.2,0.7-1.7c0.4-0.4,1-0.7,1.7-0.7c0.7,0,1.2,0.2,1.7,0.7
	s0.7,1,0.7,1.7c0,0.7-0.2,1.2-0.7,1.7C16.2,18.6,15.5,18.9,14.9,18.8z"/>
</svg>
