<svg id="Livello_1" data-name="Livello 1" xmlns="http://www.w3.org/2000/svg" viewBox="0 0 158.08 42.5"><defs><style>.cls-1{fill:#fff;}</style></defs><title>responsabily</title><path class="cls-1" d="M555.13,204.63H508.88a3.63,3.63,0,0,1-3.62-3.62V172.63a3.63,3.63,0,0,1,3.63-3.62h46.25a3.63,3.63,0,0,1,3.63,3.63V201A3.63,3.63,0,0,1,555.13,204.63ZM508.88,172a0.63,0.63,0,0,0-.62.63V201a0.63,0.63,0,0,0,.63.63h46.25a0.63,0.63,0,0,0,.63-0.62V172.63a0.63,0.63,0,0,0-.62-0.62H508.88Z" transform="translate(-400.67 -169)"/><rect class="cls-1" x="121.71" y="38.75" width="19.38" height="3.25" rx="1.62" ry="1.62"/><path class="cls-1" d="M492.94,205.63h-40.5a2.69,2.69,0,0,1-2.69-2.69v-23a2.69,2.69,0,0,1,2.69-2.69h40.5a2.69,2.69,0,0,1,2.69,2.69v23A2.69,2.69,0,0,1,492.94,205.63Zm-40.5-26.37a0.69,0.69,0,0,0-.69.69v23a0.7,0.7,0,0,0,.69.69h40.5a0.7,0.7,0,0,0,.69-0.69v-23a0.7,0.7,0,0,0-.69-0.69h-40.5Z" transform="translate(-400.67 -169)"/><path class="cls-1" d="M441.38,209.37h0A1.63,1.63,0,0,0,443,211h59.25a1.63,1.63,0,0,0,1.62-1.62h0a1.63,1.63,0,0,0-1.62-1.62H443A1.63,1.63,0,0,0,441.38,209.37Z" transform="translate(-400.67 -169)"/><path class="cls-1" d="M435.17,211.5H420a4.34,4.34,0,0,1-4.33-4.33V186.5a4.34,4.34,0,0,1,4.33-4.33h15.17a4.34,4.34,0,0,1,4.33,4.33v20.67A4.34,4.34,0,0,1,435.17,211.5ZM420,185.17a1.33,1.33,0,0,0-1.33,1.33v20.67A1.33,1.33,0,0,0,420,208.5h15.17a1.33,1.33,0,0,0,1.33-1.33V186.5a1.33,1.33,0,0,0-1.33-1.33H420Zm7.67,24.08a0.75,0.75,0,1,0,.75.75A0.75,0.75,0,0,0,427.67,209.25Z" transform="translate(-400.67 -169)"/><path class="cls-1" d="M409.75,211h-7c-1.73,0-2.13-1.4-2.13-3.13V192.94c0-1.73.4-3.13,2.13-3.13h7c1.73,0,2.13,1.4,2.13,3.13v14.93C411.89,209.6,411.48,211,409.75,211Zm-7-19a1,1,0,0,0-1,1v14.93a1,1,0,0,0,1,1h7a1,1,0,0,0,1-1V192.94a1,1,0,0,0-1-1h-7Zm3.48,17.4a0.54,0.54,0,1,0,.54.54A0.54,0.54,0,0,0,406.28,209.37Z" transform="translate(-400.67 -169)"/></svg>