<?xml version="1.0" encoding="UTF-8"?>
<svg width="73px" height="64px" viewBox="0 0 73 64" version="1.1" xmlns="http://www.w3.org/2000/svg" xmlns:xlink="http://www.w3.org/1999/xlink">
    <!-- Generator: Sketch 55.2 (78181) - https://sketchapp.com -->
    <title>Product Icon/ScegliProtezione/Big</title>
    <desc>Created with Sketch.</desc>
    <g id="Home" stroke="none" stroke-width="1" fill="none" fill-rule="evenodd">
        <g id="vetrina---desktop" transform="translate(-244.000000, -1792.000000)" stroke="#333333">
            <g id="Product-Icon/ScegliProtezione/Big" transform="translate(245.000000, 1793.000000)">
                <g id="Group-2">
                    <path d="M7.96153846,11.75 C28.6282051,-3.91666667 46.1282051,-3.91666667 60.4615385,11.75 C74.7948718,27.4166667 74.1282051,44.25 58.4615385,62.25 C59.1282051,58.5833333 57.9615385,55.0833333 54.9615385,51.75 C51.9615385,48.4166667 48.6282051,47.5833333 44.9615385,49.25 C45.6282051,46.25 44.9615385,43.25 42.9615385,40.25 C40.9615385,37.25 37.7948718,36.0833333 33.4615385,36.75 C35.7948718,34.75 35.1282051,31.9166667 31.4615385,28.25 C27.7948718,24.5833333 24.6282051,23.4166667 21.9615385,24.75 C21.9615385,20.75 20.4615385,17.5833333 17.4615385,15.25 C14.4615385,12.9166667 11.2948718,11.75 7.96153846,11.75 Z" id="Path-2"></path>
                    <path d="M59.4615385,11.75 C50.7948718,8.41666667 44.1282051,8.08333333 39.4615385,10.75 C38.7180156,11.1748702 34.9533387,13.6420486 34.1675077,14.151535 C31.4032546,15.9437137 27.3345982,19.4765353 21.9615385,24.75" id="Path-3"></path>
                    <path d="M59.4615385,11.75 C62.4615385,18.75 62.9615385,24.5833333 60.9615385,29.25 C58.9615385,33.9166667 53.6282051,40.5833333 44.9615385,49.25" id="Path-4"></path>
                    <path d="M53.4615385,16.75 L10.9615385,59.75 C5.96153846,61.75 2.62820513,61.75 0.961538462,59.75 C-0.705128205,57.75 -0.205128205,54.9166667 2.46153846,51.25" id="Path-5"></path>
                    <path d="M62.9615385,7.75 L56.4615385,14.25" id="Path-6"></path>
                </g>
            </g>
        </g>
    </g>
</svg>