<?xml version="1.0" encoding="UTF-8"?>
<svg width="135px" height="90px" viewBox="0 0 135 90" version="1.1" xmlns="http://www.w3.org/2000/svg" xmlns:xlink="http://www.w3.org/1999/xlink">
    <!-- Generator: Sketch 55.1 (78136) - https://sketchapp.com -->
    <title>Group 3</title>
    <desc>Created with Sketch.</desc>
    <g id="Pagina-di-errore" stroke="none" stroke-width="1" fill="none" fill-rule="evenodd">
        <g id="PaginaErrore" transform="translate(-129.000000, -72.000000)" stroke="#4A4A4A" stroke-width="2">
            <g id="Group-3" transform="translate(129.000000, 72.000000)">
                <g id="Group-2">
                    <path d="M10.0243902,71 L100.97561,71 L100.97561,10 C100.97561,5.02943725 96.9461725,1 91.9756098,1 L19.0243902,1 C14.0538275,1 10.0243902,5.02943725 10.0243902,10 L10.0243902,71 Z" id="Rectangle-8"></path>
                    <path d="M1.00217833,80 L109.997822,80 C109.891462,75.1217979 105.903723,71.2 101,71.2 L10,71.2 C5.0962766,71.2 1.10853817,75.1217979 1.00217833,80 Z" id="Rectangle-8-Copy" transform="translate(55.500000, 75.600000) scale(1, -1) translate(-55.500000, -75.600000) "></path>
                    <path d="M47.9268293,75.5 L62.1707317,75.5 L62.1707317,73.2 C62.1707317,72.0954305 61.2753012,71.2 60.1707317,71.2 L49.9268293,71.2 C48.8222598,71.2 47.9268293,72.0954305 47.9268293,73.2 L47.9268293,75.5 Z" id="Rectangle-8-Copy" transform="translate(55.048780, 73.350000) scale(1, -1) translate(-55.048780, -73.350000) "></path>
                </g>
                <path d="M55.5003341,6 C55.1684958,6 54.8367896,6.01324577 54.5060078,6.03970567 C47.6409327,6.58885692 42.5208648,12.5992749 43.070016,19.46435 L44.0252683,31.4061935 C44.5038352,37.3888772 49.4985402,42 55.5003341,42 C61.5021281,42 66.496833,37.3888772 66.9754,31.4061935 L67.9306522,19.46435 C67.9571121,19.1335683 67.9703579,18.8018621 67.9703579,18.4700238 C67.9703579,11.5830198 62.3873381,6 55.5003341,6 Z" id="Rectangle-6"></path>
                <path d="M29.0617909,59 L82.9399215,59 C82.9799341,58.6172468 83,58.2327476 83,57.8478651 C83,51.3188438 77.3400428,46 70.3281629,46 L41.6740223,46 C40.9593511,46 40.2459817,46.0565466 39.5415371,46.1690251 C32.9328421,47.224234 28.4157702,52.877957 29.0617909,59 Z" id="Rectangle-6-Copy"></path>
                <path d="M114.499641,49 C125.268989,49 134,57.953739 134,69.0003685 C134,80.046261 125.268989,89 114.499641,89 C103.731011,89 95,80.046261 95,69.0003685 C95,57.953739 103.731011,49 114.499641,49 Z" id="Stroke-7" fill="#FFFFFF"></path>
                <g id="Group" transform="translate(104.000000, 59.000000)">
                    <path d="M0,3.55271368e-15 L20,20" id="Path"></path>
                    <path d="M0,3.55271368e-15 L20,20" id="Path-Copy" transform="translate(10.000000, 10.000000) scale(-1, 1) translate(-10.000000, -10.000000) "></path>
                </g>
            </g>
        </g>
    </g>
</svg>