<?xml version="1.0" encoding="UTF-8"?>
<svg width="94px" height="83px" viewBox="0 0 94 83" version="1.1" xmlns="http://www.w3.org/2000/svg" xmlns:xlink="http://www.w3.org/1999/xlink">
    <!-- Generator: Sketch 54.1 (76490) - https://sketchapp.com -->
    <title>Product Icon/Fido/Big</title>
    <desc>Created with Sketch.</desc>
    <defs>
        <polygon id="path-1" points="0.432823617 0.271281879 55.4893364 0.271281879 55.4893364 83 0.432823617 83"></polygon>
    </defs>
    <g id="Preventivatore-sport" stroke="none" stroke-width="1" fill="none" fill-rule="evenodd">
        <g id="sport-plus---desktop-New" transform="translate(-912.000000, -227.000000)">
            <g id="Group-7" transform="translate(608.000000, 150.000000)">
                <g id="Product-Icon/Sport/Big" transform="translate(304.000000, 70.000000)">
                    <g id="Group" transform="translate(0.000000, 11.000000)" fill="#FFD505" opacity="0.35">
                        <circle id="Oval" cx="30" cy="30" r="30"></circle>
                    </g>
                    <g id="Group-8" transform="translate(20.000000, 7.000000)">
                        <g id="Group-3" transform="translate(9.000000, 0.000000)">
                            <mask id="mask-2" fill="white">
                                <use xlink:href="#path-1"></use>
                            </mask>
                            <g id="Clip-2"></g>
                            <path d="M55.377,0.27105906 L0.54516,0.27105906 C0.54516,0.27105906 -0.42644,3.57100537 3.34516,22.5462537 C7.11676,41.5220591 20.13508,54.1174483 21.86548,56.117804 C23.59588,58.1187168 28.0182,61.8007973 25.72332,68.0859584 C23.42844,74.3711195 16.23972,78.1802067 10.79932,78.1813208 L5.20996,78.1813208 L5.20996,83.0003342 L50.7122,83.0003342 L50.7122,78.1813208 L45.12228,78.1813208 C39.68244,78.1802067 32.49372,74.3711195 30.19884,68.0859584 C27.90396,61.8007973 32.32628,58.1187168 34.05668,56.117804 C35.78652,54.1174483 48.8054,41.5220591 52.577,22.5462537 C56.3486,3.57100537 55.377,0.27105906 55.377,0.27105906 M54.36564,1.38515302 C54.42836,3.23009262 54.20548,8.60838121 51.47828,22.3301195 C49.23492,33.6158913 43.33196,44.4727369 33.93236,54.5970658 C33.607,54.9480054 33.3718,55.2009047 33.20772,55.3914148 C33.02404,55.6030926 32.809,55.8348242 32.57492,56.0871664 C30.58188,58.2368107 26.87188,62.2369651 29.14604,68.4664215 C31.62068,75.243455 39.21204,79.2937436 45.12228,79.2954148 L49.5922,79.2954148 L49.5922,81.8862403 L6.32996,81.8862403 L6.32996,79.2954148 L10.79988,79.2954148 C16.71012,79.2937436 24.30148,75.243455 26.77612,68.4664215 C29.05028,62.2369651 25.34028,58.2368107 23.34724,56.0871664 C23.11316,55.8348242 22.89812,55.6030926 22.71444,55.3908577 C22.55036,55.2009047 22.31516,54.9480054 21.9898,54.5970658 C12.5902,44.4727369 6.68724,33.6158913 4.44388,22.3301195 C1.71668,8.60838121 1.4938,3.23009262 1.55652,1.38515302 L54.36564,1.38515302" id="Fill-1" fill="#4A4A4A" mask="url(#mask-2)"></path>
                        </g>
                        <path d="M63.7639646,7 L73,7 C73,7 70.305338,42.2213143 49,48" id="Stroke-4" stroke="#4A4A4A"></path>
                        <path d="M9.2362514,7 L0,7 C0,7 2.69472503,42.2213143 24,48" id="Stroke-6" stroke="#4A4A4A"></path>
                    </g>
                </g>
            </g>
        </g>
    </g>
</svg>