<?xml version="1.0" encoding="utf-8"?>
<!-- Generator: Adobe Illustrator 22.1.0, SVG Export Plug-In . SVG Version: 6.00 Build 0)  -->
<svg version="1.1" id="Layer_1" xmlns="http://www.w3.org/2000/svg" xmlns:xlink="http://www.w3.org/1999/xlink" x="0px" y="0px"
	 viewBox="0 0 233.5 13.2" style="enable-background:new 0 0 233.5 13.2;" xml:space="preserve">
<style type="text/css">
	.st0{fill:#ffffff;}
</style>
<path id="Livello_1_1_" class="st0" d="M6.2,1.8v11.4h-2V1.8H0.6V0h9.2v1.8H6.2z M19.4,13.1V7.4H14v5.7h-2V0h2v5.6h5.3V0h2v13.1
	H19.4z M24.8,13.1V0h8.4v1.8h-6.4v3.8h5.5v1.8h-5.5v4h6.4v1.8C33.2,13.2,24.8,13.1,24.8,13.1z M47.7,13.1V7.4h-5.3v5.7h-2V0h2v5.6
	h5.3V0h2v13.1H47.7z M57.6,13.3c-2.7,0-4.7-1.8-4.7-4.5V0h2v8.6c0,1.8,1.1,2.8,2.7,2.8s2.7-1.1,2.7-2.8V0h2v8.7
	C62.4,11.4,60.3,13.3,57.6,13.3z M75.2,13.1V4.4l-3,6.4h-1.5l-3.1-6.4v8.8h-2V0h2l3.8,8.2L75.2,0h2v13.1H75.2z M88.1,13.1l-0.9-2.6
	H82l-0.9,2.6H79L83.8,0h1.6l4.8,13.1C90.2,13.1,88.1,13.1,88.1,13.1z M84.7,3l-2,5.8h4L84.7,3z M100.2,13.1l-6.1-9.2v9.2h-2V0H94
	l6.1,9.2V0h2v13.1H100.2z M118.2,11.5c-0.9,1.1-2.1,1.7-3.7,1.7h-4.6V0h4.6c1.6,0,2.8,0.5,3.7,1.7c1,1.2,1,2.8,1,4.9
	S119.2,10.3,118.2,11.5z M116.5,2.7c-0.6-0.6-1.3-0.9-2.3-0.9h-2.4v9.6h2.4c0.9,0,1.7-0.3,2.3-0.9c0.6-0.7,0.7-1.9,0.7-3.9
	S117.2,3.4,116.5,2.7z M122.2,13.1V0h2v13.1C124.2,13.1,122.2,13.1,122.2,13.1z M135.5,11.8c-1,1-2.2,1.5-3.6,1.5s-2.5-0.5-3.4-1.3
	c-1.3-1.3-1.3-2.6-1.3-5.4s0.1-4.1,1.3-5.4c0.8-0.8,2-1.3,3.4-1.3c2.8,0,4.4,1.8,4.8,4.1h-2c-0.3-1.4-1.3-2.3-2.8-2.3
	c-0.8,0-1.5,0.3-2,0.8c-0.6,0.7-0.8,1.5-0.8,4.1s0.1,3.4,0.8,4.1c0.5,0.5,1.2,0.8,2,0.8c0.9,0,1.6-0.3,2.2-0.9
	c0.5-0.6,0.6-1.2,0.6-2.1V7.7h-2.8V6h4.8v2C136.7,9.8,136.3,10.8,135.5,11.8z M139.6,13.1V0h2v13.1
	C141.6,13.1,139.6,13.1,139.6,13.1z M149.5,1.8v11.4h-2V1.8h-3.6V0h9.2v1.8L149.5,1.8L149.5,1.8z M161.8,13.1l-0.9-2.6h-5.2
	l-0.9,2.6h-2.1L157.5,0h1.6l4.8,13.1C163.9,13.1,161.8,13.1,161.8,13.1z M158.3,3l-2,5.8h4L158.3,3z M165.8,13.1V0h2v11.4h6.3v1.8
	C174.1,13.2,165.8,13.1,165.8,13.1z M186.1,13.1h-5.3V0h5.1c2.4,0,4,1.4,4,3.6c0,1.4-0.9,2.4-1.8,2.8c1,0.4,2,1.4,2,3
	C190.1,11.9,188.4,13.1,186.1,13.1z M185.7,1.8h-3v3.8h3c1.3,0,2.1-0.7,2.1-1.9C187.9,2.5,187,1.8,185.7,1.8z M185.9,7.3h-3.1v4h3.1
	c1.4,0,2.2-0.8,2.2-2C188.1,8.2,187.3,7.3,185.9,7.3z M200.5,13.1l-0.9-2.6h-5.2l-0.9,2.6h-2.1L196.2,0h1.6l4.8,13.1H200.5
	L200.5,13.1z M197,3l-2,5.8h4L197,3z M212.6,13.1l-6.1-9.2v9.2h-2V0h1.8l6.1,9.2V0h2v13.1H212.6z M225.7,13.1L222,6.7l-2.2,2.7v3.8
	h-2V0h2v6.6l5.4-6.6h2.4l-4.3,5.2l4.7,8L225.7,13.1L225.7,13.1z"/>
</svg>
