<?xml version="1.0" encoding="UTF-8"?>
<svg width="82px" height="64px" viewBox="0 0 82 64" version="1.1" xmlns="http://www.w3.org/2000/svg" xmlns:xlink="http://www.w3.org/1999/xlink">
    <!-- Generator: Sketch 55.2 (78181) - https://sketchapp.com -->
    <title>Product Icon/SimulProposta/Big</title>
    <desc>Created with Sketch.</desc>
    <defs>
        <polygon id="path-1" points="0.135264706 0.000242307692 31.1609118 0.000242307692 31.1609118 1.21153846 0.135264706 1.21153846"></polygon>
        <polygon id="path-3" points="0 63 81.1730769 63 81.1730769 0 0 0"></polygon>
    </defs>
    <g id="Home" stroke="none" stroke-width="1" fill="none" fill-rule="evenodd">
        <g id="vetrina---desktop" transform="translate(-558.000000, -1792.000000)">
            <g id="Group-7" transform="translate(448.000000, 1753.000000)">
                <g id="Group-5">
                    <g id="Product-Icon/SimulProposta/Big" transform="translate(111.000000, 40.000000)">
                        <g id="Group-20" transform="translate(0.000000, 0.000000)">
                            <path d="M72.0825911,54.5192308 L7.87834008,54.5192308 C3.54534413,54.5192308 0,50.9449018 0,46.5758694 L0,7.94336137 C0,3.57432894 3.54534413,0 7.87834008,0 L72.0825911,0 C76.4161943,0 79.9615385,3.57432894 79.9615385,7.94336137 L79.9615385,46.5758694 C79.9615385,50.9449018 76.4161943,54.5192308 72.0825911,54.5192308 Z" id="Stroke-1" stroke="#333333"></path>
                            <path d="M0,46.6442308 L79.9615385,46.6442308" id="Stroke-3" stroke="#333333"></path>
                            <path d="M32.7115385,54.5192308 L30.2884615,61.7884615" id="Stroke-5" stroke="#333333"></path>
                            <path d="M48.4615385,54.5192308 L50.8846154,61.7884615" id="Stroke-7" stroke="#333333"></path>
                            <g id="Group-11" transform="translate(24.230769, 61.788462)">
                                <mask id="mask-2" fill="white">
                                    <use xlink:href="#path-1"></use>
                                </mask>
                                <g id="Clip-10"></g>
                                <path d="M0.135264706,0.606011538 L31.1609118,0.606011538" id="Stroke-9" stroke="#333333" mask="url(#mask-2)"></path>
                            </g>
                            <path d="M40.5865385,48.4615385 C39.5828675,48.4615385 38.7692308,49.2752999 38.7692308,50.2791248 C38.7692308,51.2829498 39.5828675,52.0961538 40.5865385,52.0961538 C41.5902095,52.0961538 42.4038462,51.2829498 42.4038462,50.2791248 C42.4038462,49.2752999 41.5902095,48.4615385 40.5865385,48.4615385 M40.5865385,49.0189093 C41.2814734,49.0189093 41.8465608,49.5846407 41.8465608,50.2791248 C41.8465608,50.9736089 41.2814734,51.538783 40.5865385,51.538783 C39.8916036,51.538783 39.3265162,50.9736089 39.3265162,50.2791248 C39.3265162,49.5846407 39.8916036,49.0189093 40.5865385,49.0189093" id="Fill-12" fill="#333333"></path>
                            <polyline id="Stroke-14" stroke="#333333" points="66.6346154 46.0384615 66.6346154 10.9038462 14.5384615 10.9038462 14.5384615 46.0384615"></polyline>
                            <mask id="mask-4" fill="white">
                                <use xlink:href="#path-3"></use>
                            </mask>
                            <g id="Clip-17"></g>
                            <polygon id="Stroke-16" stroke="#333333" mask="url(#mask-4)" points="20.5961538 21.8076923 39.9807692 21.8076923 39.9807692 16.9615385 20.5961538 16.9615385"></polygon>
                            <polygon id="Stroke-18" stroke="#333333" mask="url(#mask-4)" points="20.5961538 32.7115385 39.9807692 32.7115385 39.9807692 27.8653846 20.5961538 27.8653846"></polygon>
                            <polygon id="Stroke-19" stroke="#333333" mask="url(#mask-4)" points="44.8269231 32.7115385 60.5769231 32.7115385 60.5769231 16.9615385 44.8269231 16.9615385"></polygon>
                        </g>
                    </g>
                </g>
            </g>
        </g>
    </g>
</svg>