<svg width="31" height="30" viewBox="0 0 31 30" fill="none" xmlns="http://www.w3.org/2000/svg">
<path d="M20.6945 21.7083C20.8334 21.875 21.0073 21.9583 21.2162 21.9583C21.4239 21.9583 21.6251 21.8611 21.8195 21.6667C21.9862 21.5 22.0695 21.3056 22.0695 21.0833C22.0695 20.8611 21.9862 20.6667 21.8195 20.5L15.9862 14.6667V7.45833C15.9862 7.23611 15.9028 7.04833 15.7362 6.895C15.5695 6.74278 15.3751 6.66667 15.1528 6.66667C14.9028 6.66667 14.7012 6.75 14.5478 6.91667C14.3956 7.08333 14.3195 7.27778 14.3195 7.5V14.7917C14.3195 14.9583 14.3473 15.125 14.4028 15.2917C14.4584 15.4583 14.5695 15.6111 14.7362 15.75L20.6945 21.7083ZM15.1528 30C13.0695 30 11.1184 29.6044 9.2995 28.8133C7.4795 28.0211 5.89617 26.9511 4.5495 25.6033C3.20172 24.2567 2.13172 22.6733 1.3395 20.8533C0.548387 19.0344 0.152832 17.0833 0.152832 15C0.152832 12.9167 0.548387 10.965 1.3395 9.145C2.13172 7.32611 3.20172 5.74278 4.5495 4.395C5.89617 3.04833 7.4795 1.97889 9.2995 1.18667C11.1184 0.395555 13.0695 0 15.1528 0C17.2362 0 19.1878 0.395555 21.0078 1.18667C22.8267 1.97889 24.4101 3.04833 25.7578 4.395C27.1045 5.74278 28.1739 7.32611 28.9662 9.145C29.7573 10.965 30.1528 12.9167 30.1528 15C30.1528 17.0833 29.7573 19.0344 28.9662 20.8533C28.1739 22.6733 27.1045 24.2567 25.7578 25.6033C24.4101 26.9511 22.8267 28.0211 21.0078 28.8133C19.1878 29.6044 17.2362 30 15.1528 30ZM15.1528 28.3333C18.8473 28.3333 21.9934 27.035 24.5912 24.4383C27.1878 21.8406 28.4862 18.6944 28.4862 15C28.4862 11.3056 27.1878 8.15944 24.5912 5.56167C21.9934 2.965 18.8473 1.66667 15.1528 1.66667C11.4584 1.66667 8.31283 2.965 5.71617 5.56167C3.11839 8.15944 1.8195 11.3056 1.8195 15C1.8195 18.6944 3.11839 21.8406 5.71617 24.4383C8.31283 27.035 11.4584 28.3333 15.1528 28.3333Z" fill="black" fill-opacity="0.6"/>
</svg>
