<?xml version="1.0" encoding="UTF-8" standalone="no"?>
<!-- Created with Inkscape (http://www.inkscape.org/) -->

<svg
   xmlns:dc="http://purl.org/dc/elements/1.1/"
   xmlns:cc="http://creativecommons.org/ns#"
   xmlns:rdf="http://www.w3.org/1999/02/22-rdf-syntax-ns#"
   xmlns:svg="http://www.w3.org/2000/svg"
   xmlns="http://www.w3.org/2000/svg"
   xmlns:sodipodi="http://sodipodi.sourceforge.net/DTD/sodipodi-0.dtd"
   xmlns:inkscape="http://www.inkscape.org/namespaces/inkscape"
   width="182.19894mm"
   height="102.21947mm"
   viewBox="0 0 182.19894 102.21947"
   version="1.1"
   id="svg8"
   inkscape:version="0.92.2 2405546, 2018-03-11"
   sodipodi:docname="arrow_select.svg">
  <defs
     id="defs2" />
  <sodipodi:namedview
     id="base"
     pagecolor="#ffffff"
     bordercolor="#666666"
     borderopacity="1.0"
     inkscape:pageopacity="0.0"
     inkscape:pageshadow="2"
     inkscape:zoom="0.35"
     inkscape:cx="359.4557"
     inkscape:cy="76.570929"
     inkscape:document-units="mm"
     inkscape:current-layer="layer1"
     showgrid="false"
     inkscape:snap-smooth-nodes="true"
     inkscape:window-width="796"
     inkscape:window-height="625"
     inkscape:window-x="800"
     inkscape:window-y="20"
     inkscape:window-maximized="0"
     fit-margin-top="0"
     fit-margin-left="0"
     fit-margin-right="0"
     fit-margin-bottom="0" />
  <metadata
     id="metadata5">
    <rdf:RDF>
      <cc:Work
         rdf:about="">
        <dc:format>image/svg+xml</dc:format>
        <dc:type
           rdf:resource="http://purl.org/dc/dcmitype/StillImage" />
        <dc:title></dc:title>
      </cc:Work>
    </rdf:RDF>
  </metadata>
  <g
     inkscape:label="Livello 1"
     inkscape:groupmode="layer"
     id="layer1"
     transform="translate(-12.23925,-63.327694)">
    <path
       style="fill:#ea0029;"
       d="m 22.124305,63.327694 c -1.159415,0 -2.318636,0.444334 -3.207039,1.332736 l -5.34541,5.345411 c -1.776808,1.776807 -1.776808,4.637789 0,6.414595 l 81.56143,81.561424 c 0.188772,0.3152 0.414131,0.61516 0.686263,0.88729 l 5.345411,5.34541 c 1.7768,1.77681 4.63727,1.77681 6.41408,0 L 193.1056,78.687998 c 1.7768,-1.776807 1.7768,-4.63727 0,-6.41408 l -5.34541,-5.345409 c -1.77681,-1.776806 -4.63779,-1.776806 -6.4146,0 L 104.47276,143.80134 25.331861,64.66043 C 24.443457,63.772028 23.28372,63.327694 22.124305,63.327694 Z"
       id="rect3713"
       inkscape:connector-curvature="0" />
  </g>
</svg>