<svg xmlns="http://www.w3.org/2000/svg" xmlns:xlink="http://www.w3.org/1999/xlink" width="304" height="368" viewBox="0 0 304 368"><defs><style>.a{stroke:#ea0029;stroke-width:5px;fill:url(#a);}.b,.h,.l{fill:#fff;}.c{fill:#b8d8eb;}.c,.e{opacity:0.6;}.d,.g,.i{fill:#00609c;}.e{fill:#65b2e8;}.f{fill:url(#b);}.g,.h,.i{stroke-linecap:round;stroke-linejoin:round;}.i{stroke:#fff;stroke-width:1.2px;}.j,.l{stroke:none;}.k{fill:none;}</style><linearGradient id="a" x1="1" y1="0.523" x2="0" y2="0.518" gradientUnits="objectBoundingBox"><stop offset="0" stop-color="#fff"/><stop offset="1" stop-color="#b8d8eb"/></linearGradient><linearGradient id="b" x1="0.5" x2="0.5" y2="1" gradientUnits="objectBoundingBox"><stop offset="0" stop-color="#65b2e8"/><stop offset="1" stop-color="#e1eef6"/></linearGradient></defs><g transform="translate(-4085 1274)"><g class="a" transform="translate(4389 -1274) rotate(90)"><rect class="j" width="368" height="304" rx="16"/><rect class="k" x="2.5" y="2.5" width="363" height="299" rx="13.5"/></g><g transform="translate(4111.016 -1149.94)"><path class="b" d="M.412,234.2C.309,231.008.1,227.92,0,224.73a45.9,45.9,0,0,1,.926-9.881c.926-5.455,4.323-9.572,8.337-13.174,9.057-8.028,19.967-12.968,30.98-17.394a189.15,189.15,0,0,1,27.79-8.749,4.876,4.876,0,0,0,2.882-1.853c5.661-7.2,11.733-14.1,19.453-19.247.618-.412,1.235-.72,1.75-1.132a1.161,1.161,0,0,1,.309,1.132c-.618,4.529-.1,9.16-.309,13.689-.206,4.632,1.441,8.131,5.558,10.5,2.882,1.75,5.764,3.6,8.646,5.352,5.558,3.5,11.013,7.1,14.306,13.071a40.031,40.031,0,0,1,3.911,11.836c1.544-10.4,7.2-17.909,15.645-23.467,3.6-2.367,7.513-4.22,10.807-7,2.161-1.853,4.94-3.4,5.455-6.69.618-.618.412-1.441.412-2.161V155.77c0-.72-.206-1.544.412-2.161a74.792,74.792,0,0,1,19.864,18.732,9.751,9.751,0,0,0,5.558,3.808c15.027,4.22,29.745,9.057,43.64,16.365a92.361,92.361,0,0,1,14.2,9.057c7.719,5.97,11.733,13.689,11.836,23.467a53.328,53.328,0,0,1-.309,9.057Q126.237,234.25.412,234.2Z" transform="translate(0 4.485)"/><path class="c" d="M154.607,175.529c-.515,3.294-3.294,4.837-5.455,6.69-3.294,2.779-7.2,4.632-10.807,7-8.543,5.558-14.2,13.071-15.645,23.467a43.241,43.241,0,0,0-3.911-11.836c-3.294-5.97-8.646-9.675-14.306-13.071-2.882-1.75-5.661-3.6-8.646-5.352-4.117-2.367-5.764-5.867-5.558-10.5.206-4.529-.309-9.16.309-13.689a1.161,1.161,0,0,0-.309-1.132c.412-5.97-.206-11.425-3.911-16.674a43.241,43.241,0,0,1-7.1-20.482c-.1-.926-.515-1.441-1.544-1.132-2.264.515-3.6-.72-4.734-2.264-3.4-4.426-4.837-9.675-5.764-15.027-.926-5.249-1.338-10.6,0-15.85.515-1.956.926-4.22,3.6-4.735.309,1.235.72,2.47,1.029,3.705,1.544,6.381,3.088,12.763,4.94,19.041.206.618.206,1.338,1.029,1.441.72.1,1.132-.412,1.544-.926a6.248,6.248,0,0,0,1.338-3.294,120.76,120.76,0,0,0,.72-14.924,110.908,110.908,0,0,1,1.853-17.6c1.235-6.587,3.294-12.763,7.925-17.909,6.587-7.2,15.027-9.778,24.393-10.4,7.1-.515,14.2-.309,21.305-.412a14.488,14.488,0,0,0,11.63-5.455,45.259,45.259,0,0,0,2.676-4.014,67.041,67.041,0,0,0,.1,15.747c1.235,8.44,4.014,16.365,9.572,22.952a14.606,14.606,0,0,1,3.6,10.189c-.1,6.175-.1,12.454-.1,18.629A12.346,12.346,0,0,0,165.929,104a2.891,2.891,0,0,0,1.235,1.029c.72.1.72-.72.926-1.235l1.235-3.4c2.367-6.278,3.705-12.866,5.455-19.247,2.676,1.441,3.088,4.22,3.4,6.69a44.94,44.94,0,0,1-4.632,26.349,12.512,12.512,0,0,1-2.779,3.705c-.72.618-1.75,1.441-2.573,1.132-2.058-.823-2.058.515-2.264,1.75-1.132,6.69-2.882,13.174-6.278,19.144-1.544,2.573-3.191,5.146-4.735,7.719-.515,0-.72.412-1.029.72-2.573,2.573-4.94,5.352-7.925,7.616-9.16,6.69-19.247,9.572-30.568,7.411a37.389,37.389,0,0,1-19.659-10.4c-1.338-1.235-2.367-2.779-4.014-3.808a1.027,1.027,0,0,0,.206,1.132,54.966,54.966,0,0,0,20.276,20.07,51.8,51.8,0,0,0,26.966,7.308A109.3,109.3,0,0,0,154.607,175.529Z" transform="translate(1.941 0.885)"/><path class="d" d="M174.739,81.724c-1.75,6.484-3.088,12.968-5.455,19.247l-1.235,3.4c-.206.515-.206,1.338-.926,1.235a2.891,2.891,0,0,1-1.235-1.029,11.393,11.393,0,0,1-1.544-6.278c0-6.175,0-12.454.1-18.629a14.28,14.28,0,0,0-3.6-10.19c-5.558-6.587-8.337-14.409-9.572-22.952a67.041,67.041,0,0,1-.1-15.747c-1.029,1.544-1.75,2.882-2.676,4.014a14.193,14.193,0,0,1-11.63,5.455c-7.1.1-14.2-.1-21.305.412-9.366.618-17.806,3.191-24.393,10.4-4.632,5.146-6.69,11.322-7.925,17.909a112.189,112.189,0,0,0-1.853,17.6,120.756,120.756,0,0,1-.72,14.924,6.248,6.248,0,0,1-1.338,3.294c-.412.515-.823,1.029-1.544.926-.823-.1-.823-.823-1.029-1.441-1.853-6.278-3.5-12.66-4.94-19.041-.309-1.235-.618-2.47-1.029-3.705-1.338-6.484-2.779-12.968-2.985-19.556-.206-10.087,1.544-19.453,7.513-27.892a31.929,31.929,0,0,1,9.881-9.057c.72-.412,1.338-.72,1.544-1.544,2.058-6.69,6.793-10.807,12.66-14.1A95.864,95.864,0,0,1,112.058,3.6c-1.029,2.058-2.367,3.5-2.882,5.249-.206.72-.618,1.647-.1,2.264s1.338-.1,1.956-.309c5.043-1.956,9.16-5.043,11.733-9.881A1.39,1.39,0,0,1,124.512,0C131.922,1.546,139.127,3.81,145.2,8.75a26.145,26.145,0,0,1,8.44,11.733,3.094,3.094,0,0,0,1.853,2.058c12.454,4.94,18.629,14.821,21.1,27.481,1.956,9.881.309,19.659-1.441,29.333A18.989,18.989,0,0,0,174.739,81.724Z" transform="translate(1.983 0)"/><path class="e" d="M153.889,172.2a70.3,70.3,0,0,1-15.439,1.75,52.782,52.782,0,0,1-26.966-7.308,54.212,54.212,0,0,1-20.276-20.07A1.076,1.076,0,0,1,91,145.444a20.209,20.209,0,0,1,4.014,3.808,38.125,38.125,0,0,0,19.659,10.4c11.322,2.264,21.408-.618,30.569-7.411,2.985-2.161,5.352-4.94,7.925-7.616.309-.309.515-.72,1.029-.72v7.719a3.245,3.245,0,0,0,.515,2.367c-.618.618-.412,1.441-.412,2.161V169.94C154.3,170.763,154.507,171.587,153.889,172.2Z" transform="translate(2.659 4.21)"/></g><g transform="translate(4085.5 -1248.5)"><path class="f" d="M294,188.5a1.5,1.5,0,0,1-1.5-1.5c0-77.472-63.028-140.5-140.5-140.5S11.5,109.528,11.5,187a1.5,1.5,0,0,1-3,0C8.5,107.874,72.874,43.5,152,43.5S295.5,107.874,295.5,187A1.5,1.5,0,0,1,294,188.5Z"/></g><circle class="d" cx="34" cy="34" r="34" transform="translate(4111 -1203)"/><circle class="d" cx="34" cy="34" r="34" transform="translate(4295 -1203)"/><g transform="translate(4109.453 -1209.5)"><g transform="translate(10.547 22.5)"><g transform="translate(6.012)"><path class="b" d="M38.32,58.139a17.82,17.82,0,0,1,0-35.639,18.127,18.127,0,0,1,11.356,4.047,17.629,17.629,0,0,1,4.712,6.041.905.905,0,1,1-1.631.785,17.623,17.623,0,0,0-4.228-5.436,16.027,16.027,0,1,0,4.349,19.088.905.905,0,0,1,1.631.785A17.85,17.85,0,0,1,38.32,58.139Z" transform="translate(-20.5 -22.5)"/></g><g transform="translate(0 14.429)"><path class="b" d="M20.908,61.315c-5.316,0-9.061-1.45-10.088-4.168-1.087-2.96,1.087-6.765,6.161-10.571a.906.906,0,0,1,1.087,1.45c-4.228,3.2-6.282,6.4-5.557,8.517,1.208,3.262,9.544,4.41,21.5.725a.917.917,0,1,1,.544,1.752A47.333,47.333,0,0,1,20.908,61.315Z" transform="translate(-10.547 -46.388)"/></g><g transform="translate(33.678 3.827)"><path class="b" d="M79.166,34.25a.909.909,0,0,1-.846-.6c-.785-2.114-4.41-3.2-9.725-2.96H67.206a.906.906,0,1,1,0-1.812h1.329c6.282-.3,10.39,1.148,11.477,4.168a.873.873,0,0,1-.544,1.148A.545.545,0,0,1,79.166,34.25Z" transform="translate(-66.3 -28.835)"/></g><g transform="translate(18.53 23.089)"><g transform="translate(0 0)"><path class="b" d="M46.525,64.575a.766.766,0,0,1-.362-.06l-4.41-2.054a.843.843,0,0,1-.423-1.208.858.858,0,0,1,1.208-.423l4.41,2.054a.843.843,0,0,1,.423,1.208A.964.964,0,0,1,46.525,64.575Z" transform="translate(-41.224 -60.724)"/></g><g transform="translate(2.356 2.054)"><path class="b" d="M46.015,70.331a.766.766,0,0,1-.362-.06.843.843,0,0,1-.423-1.208l2.054-4.41a.858.858,0,0,1,1.208-.423.843.843,0,0,1,.423,1.208l-2.054,4.349A.911.911,0,0,1,46.015,70.331Z" transform="translate(-45.124 -64.124)"/></g></g></g><g transform="translate(31.448 34.098)"><path class="b" d="M53.274,55.17a.766.766,0,0,1-.362-.06l-7.249-3.322a.928.928,0,0,1,.362-1.752l7.188-.242,2.6-1.571-4.047-4.349a.908.908,0,0,1-.242-.664.97.97,0,0,1,.3-.664,4.658,4.658,0,0,1,2.839-.846c2.235,0,4.832,1.148,7.732,3.322l6.161-2.839a3.594,3.594,0,0,1,1.51-.242c1.148,0,3.262.3,3.806,1.571a1.892,1.892,0,0,1-.6,2.416,13.906,13.906,0,0,1-2.416,1.329L53.636,55.11A.766.766,0,0,1,53.274,55.17Z" transform="translate(-45.148 -41.7)"/></g></g><g transform="translate(4038.102 -1310.502)"><g transform="translate(298.597 134.754)"><g class="g" transform="translate(-330.5 -151.959)"><path class="j" d="M330.824,152.606c.159-.106.312-.221.468-.329.088-.061.246-.112.219-.212-.035-.127-.205-.039-.3-.072-.329-.137-.425.176-.614.308s-.063.265.015.368S330.759,152.648,330.824,152.606Z"/><path class="l" d="M 330.6721496582031 152.7068481445312 C 330.6513366699219 152.7068481445312 330.6302185058594 152.6962127685547 330.6089782714844 152.6684875488281 C 330.5307922363281 152.5655212402344 330.417236328125 152.4239807128906 330.5941772460938 152.3004302978516 C 330.7500305175781 152.1917266845703 330.8423461914062 151.9585113525391 331.0558471679688 151.9585113525391 C 331.1006164550781 151.9585113525391 331.1506958007812 151.9687652587891 331.2077941894531 151.9925537109375 C 331.2260437011719 151.9988708496094 331.2467956542969 152.0009307861328 331.2687683105469 152.0009307861328 C 331.3100280761719 152.0009307861328 331.3554992675781 151.99365234375 331.3961181640625 151.99365234375 C 331.4496459960938 151.99365234375 331.4947814941406 152.0063018798828 331.5109252929688 152.0649108886719 C 331.537841796875 152.1641845703125 331.3804626464844 152.2159423828125 331.2922973632812 152.2766723632812 C 331.1354675292969 152.3849334716797 330.9828491210938 152.5000305175781 330.8238830566406 152.6056518554688 C 330.7774658203125 152.6361083984375 330.725830078125 152.7068634033203 330.6721496582031 152.7068481445312 Z"/></g></g><g transform="translate(304.109 126.96)"><g class="g" transform="translate(-340.939 -137.201)"><path class="j" d="M341.837,137.736c-.242-.157-.47-.335-.706-.5-.1-.069-.126-.023-.148.078-.061.278.054.562-.041.84-.022.065.05.108.1.143.257.195.519.383.774.579.1.074.119.037.125-.061.012-.219.025-.437.041-.7A.347.347,0,0,0,341.837,137.736Z"/><path class="l" d="M 341.0563049316406 137.2009124755859 C 341.0755920410156 137.2009124755859 341.1000366210938 137.2111511230469 341.1317749023438 137.2337036132812 C 341.3673095703125 137.4010925292969 341.595458984375 137.5795745849609 341.8373107910156 137.7364196777344 C 342.0073547363281 137.8462524414062 341.9883117675781 137.9983367919922 341.9777526855469 138.1161041259766 C 341.9624633789062 138.3759002685547 341.9492492675781 138.5940093994141 341.9371032714844 138.8126373291016 C 341.9337463378906 138.8748474121094 341.923095703125 138.9124298095703 341.8909912109375 138.9124298095703 C 341.8726806640625 138.9124298095703 341.8473815917969 138.9002075195312 341.8124694824219 138.8733520507812 C 341.556884765625 138.6769104003906 341.2949523925781 138.4889068603516 341.038330078125 138.2940673828125 C 340.992919921875 138.2592010498047 340.9210815429688 138.2169647216797 340.9432678222656 138.1514892578125 C 341.038330078125 137.8742523193359 340.9226684570312 137.5896148681641 340.9839172363281 137.3118438720703 C 340.9988098144531 137.2437591552734 341.0168151855469 137.2009124755859 341.0563049316406 137.2009124755859 Z"/></g></g><g transform="translate(303.15 124.95)"><g class="g" transform="translate(-339.122 -133.394)"><path class="j" d="M 343.9874877929688 137.0146484375 C 343.7412719726562 136.9150390625 343.5075988769531 136.8464202880859 343.2671203613281 136.8017883300781 C 343.2214965820312 136.7741851806641 343.1283874511719 136.6714782714844 343.0717163085938 136.6089630126953 C 343.0263671875 136.5589141845703 342.9794311523438 136.5071563720703 342.9279479980469 136.4555206298828 C 342.3291320800781 135.8527984619141 341.5971374511719 135.1622314453125 340.71484375 134.6167297363281 C 340.5032653808594 134.4860992431641 340.2871704101562 134.3476867675781 340.046875 134.1885986328125 C 340.2400207519531 134.0870666503906 340.4625549316406 134.0318145751953 340.7234191894531 134.0185546875 C 340.7757263183594 134.0159606933594 340.8319091796875 134.0156097412109 340.8749084472656 134.0156097412109 L 340.9526062011719 134.0158843994141 L 341.0364990234375 134.0161743164062 C 341.1426086425781 134.0161743164062 341.2687377929688 134.0142364501953 341.3995056152344 133.9998626708984 C 341.4352722167969 133.9958953857422 341.4710693359375 133.9939270019531 341.5065612792969 133.9939270019531 C 341.8182678222656 133.9939270019531 342.1264953613281 134.1425323486328 342.4833984375 134.3146057128906 L 342.5254211425781 134.3348541259766 C 343.1708068847656 134.6453399658203 343.5840454101562 135.1764526367188 343.8260498046875 136.0063629150391 L 343.8298034667969 136.0192413330078 C 343.9248962402344 136.3461456298828 344.0069885253906 136.6284790039062 343.9911193847656 136.9013824462891 L 343.9900817871094 136.9188232421875 L 343.9900817871094 136.936279296875 C 343.9900817871094 136.9622802734375 343.9892272949219 136.9883880615234 343.9874877929688 137.0146484375 Z"/><path class="l" d="M 341.8697509765625 134.6920471191406 C 342.333740234375 135.0525360107422 342.7471618652344 135.4340515136719 343.1151733398438 135.79541015625 C 342.9230041503906 135.35205078125 342.6519470214844 135.0615539550781 342.26513671875 134.8754577636719 L 342.2228698730469 134.8550872802734 C 342.1000671386719 134.7958831787109 341.9802856445312 134.7381286621094 341.8697509765625 134.6920471191406 M 341.5065612792969 133.3939208984375 C 341.9712524414062 133.3939208984375 342.3799438476562 133.5989074707031 342.7856750488281 133.7942352294922 C 343.6506652832031 134.2103729248047 344.1375122070312 134.9311676025391 344.4020690917969 135.8383941650391 C 344.5077209472656 136.2017059326172 344.6122741699219 136.5555267333984 344.590087890625 136.936279296875 C 344.590087890625 137.2071685791016 344.5278015136719 137.4664611816406 344.4248046875 137.7157135009766 C 344.3985290527344 137.7793121337891 344.3622741699219 137.8128204345703 344.3107604980469 137.8128204345703 C 344.2835693359375 137.8128204345703 344.2521667480469 137.8034973144531 344.2156982421875 137.7843475341797 C 343.877197265625 137.6053314208984 343.5323486328125 137.4595794677734 343.144775390625 137.3893585205078 C 342.8759460449219 137.3402404785156 342.6932678222656 137.0698699951172 342.5031433105469 136.8792419433594 C 341.855712890625 136.2276000976562 341.1808776855469 135.6102905273438 340.3993225097656 135.1270751953125 C 339.9948120117188 134.8773193359375 339.6008911132812 134.6153869628906 339.2090454101562 134.34765625 C 339.0976257324219 134.2710876464844 339.0992126464844 134.2277984619141 339.1784362792969 134.1343231201172 C 339.5760498046875 133.6664581298828 340.0909423828125 133.449951171875 340.6929321289062 133.4193267822266 C 340.7534484863281 133.4163208007812 340.8141479492188 133.4156188964844 340.8749084472656 133.4156188964844 C 340.9287719726562 133.4156188964844 340.982666015625 133.4161682128906 341.0364990234375 133.4161682128906 C 341.1361083984375 133.4161682128906 341.2355346679688 133.4142761230469 341.333984375 133.4034576416016 C 341.3924255371094 133.39697265625 341.4498901367188 133.3939208984375 341.5065612792969 133.3939208984375 Z"/></g></g><g transform="translate(298.105 134.553)"><g class="g" transform="translate(-329.568 -151.58)"><path class="j" d="M 329.7493896484375 152.1657257080078 C 329.6416931152344 152.0809173583984 329.5578308105469 151.9464721679688 329.5505981445312 151.7851715087891 L 329.6805114746094 151.4384765625 C 329.7499694824219 151.4089508056641 329.8251037597656 151.3936462402344 329.9017028808594 151.3936462402344 C 329.9017333984375 151.3936462402344 329.9017639160156 151.3936462402344 329.9018249511719 151.3936462402344 C 329.9893798828125 151.3936614990234 330.0657653808594 151.4124298095703 330.1305236816406 151.4408416748047 C 330.1834716796875 151.5794677734375 330.1853332519531 151.7508544921875 330.1011657714844 151.9006500244141 C 330.0244445800781 152.0354766845703 329.8937683105469 152.1314239501953 329.7493896484375 152.1657257080078 Z"/><path class="l" d="M 329.6323852539062 151.5795593261719 C 329.6951599121094 151.5795745849609 329.7907104492188 151.6295776367188 329.86376953125 151.6299591064453 C 329.9276733398438 151.6299591064453 329.9910278320312 151.6558227539062 330.0549621582031 151.66796875 C 330.1082763671875 151.6780090332031 330.1473693847656 151.6996612548828 330.1499938964844 151.7582702636719 C 330.0729064941406 151.8390655517578 330.0100708007812 151.9341278076172 329.9213562011719 151.9874725341797 C 329.9142456054688 151.9917449951172 329.9077453613281 151.99365234375 329.9017028808594 151.99365234375 C 329.8608093261719 151.99365234375 329.8419494628906 151.9059448242188 329.8014831542969 151.8760375976562 C 329.7798156738281 151.8596496582031 329.7592163085938 151.8390655517578 329.7455139160156 151.8158264160156 C 329.6974487304688 151.7334594726562 329.5252685546875 151.7007141113281 329.5780944824219 151.6067047119141 C 329.5894470214844 151.5867767333984 329.6085510253906 151.5795593261719 329.6323852539062 151.5795593261719 Z"/></g></g><g transform="translate(302.562 126.104)"><g class="g" transform="translate(-338.009 -135.579)"><path class="j" d="M338.258,136.649a8.532,8.532,0,0,1,.9.5c.093.049.145.046.155-.066.013-.146.018-.293.031-.5,0-.093.067-.284-.059-.389-.256-.212-.546-.384-.819-.576-.087-.061-.143-.053-.2.041a5.264,5.264,0,0,0-.214.531C337.943,136.433,338.053,136.572,338.258,136.649Z"/><path class="l" d="M 339.2477722167969 137.1789398193359 C 339.2240905761719 137.1789398193359 339.1940612792969 137.1677856445312 339.1577453613281 137.1489105224609 C 338.85302734375 136.9910125732422 338.5842590332031 136.7713470458984 338.2579040527344 136.6488342285156 C 338.0530395507812 136.5717315673828 337.942626953125 136.4333648681641 338.0530395507812 136.1904602050781 C 338.1311645507812 136.0172576904297 338.1692199707031 135.8266143798828 338.2674255371094 135.6592254638672 C 338.2996215820312 135.6046447753906 338.3321533203125 135.5789031982422 338.3707580566406 135.5789031982422 C 338.3986206054688 135.5789031982422 338.4296569824219 135.5923461914062 338.4659729003906 135.6180267333984 C 338.7389831542969 135.8097229003906 339.0283508300781 135.9818725585938 339.2844848632812 136.1936340332031 C 339.41015625 136.2981719970703 339.3394165039062 136.4893493652344 339.3431091308594 136.5823059082031 C 339.3309631347656 136.7898254394531 339.3251647949219 136.9366149902344 339.3125 137.0829010009766 C 339.3066711425781 137.1513519287109 339.2850646972656 137.1789398193359 339.2477722167969 137.1789398193359 Z"/></g></g><g transform="translate(302.421 127.426)"><g class="g" transform="translate(-337.743 -138.083)"><path class="j" d="M 339.6803588867188 141.0062255859375 C 339.5172729492188 141.0062103271484 339.3064575195312 140.9482269287109 338.9793395996094 140.5182647705078 C 338.8407897949219 140.3363494873047 338.776123046875 140.0989990234375 338.7012634277344 139.8241729736328 C 338.6556091308594 139.6566162109375 338.6084289550781 139.4833374023438 338.539794921875 139.3043518066406 C 338.5111389160156 139.2296142578125 338.4849548339844 139.152099609375 338.4617004394531 139.0736083984375 C 339.10546875 139.4741516113281 339.6896057128906 139.9784088134766 340.2989501953125 140.5044250488281 C 340.3108825683594 140.5147094726562 340.3227844238281 140.5250091552734 340.334716796875 140.5352935791016 C 340.1371765136719 140.83447265625 339.9845886230469 140.9629974365234 339.8019104003906 140.9949951171875 C 339.7593994140625 141.0024719238281 339.7185668945312 141.0062255859375 339.6803588867188 141.0062255859375 Z"/><path class="l" d="M 337.8301391601562 138.0825500488281 C 337.87060546875 138.0825500488281 337.93359375 138.1137542724609 338.0344848632812 138.160400390625 C 339.13818359375 138.6705322265625 340.0242614746094 139.4784698486328 340.9320068359375 140.2579040527344 C 341.0951843261719 140.3978424072266 341.0513610839844 140.5150756835938 340.9536437988281 140.6772003173828 C 340.7012329101562 141.0991363525391 340.40869140625 141.4978179931641 339.9054565429688 141.5859985351562 C 339.8274536132812 141.5997009277344 339.7525329589844 141.6062316894531 339.6802978515625 141.6062316894531 C 339.184326171875 141.6062316894531 338.8184814453125 141.2977752685547 338.5018310546875 140.8815460205078 C 338.1881408691406 140.4696655273438 338.1532592773438 139.9722137451172 337.9795532226562 139.5191345214844 C 337.8316955566406 139.1336517333984 337.7561950683594 138.7370758056641 337.7429809570312 138.4376525878906 C 337.7576599121094 138.1743927001953 337.7607421875 138.0825347900391 337.8301391601562 138.0825500488281 Z"/></g></g><g transform="translate(282.692 130.856)"><g class="h" transform="translate(-300.382 -144.577)"><path class="j" d="M 307.5447692871094 160.5748291015625 C 307.5122680664062 160.5686950683594 307.4831237792969 160.5626068115234 307.4719543457031 160.5582427978516 C 307.4721374511719 160.5580749511719 307.4627685546875 160.5517730712891 307.4444580078125 160.5343780517578 C 307.1484680175781 160.2525939941406 306.8582153320312 160.0082244873047 306.5775146484375 159.7718963623047 C 306.3755493164062 159.6018524169922 306.1666870117188 159.4260101318359 305.958740234375 159.2385101318359 C 305.4898986816406 158.8164215087891 305.027099609375 158.4313049316406 304.6195068359375 158.0993804931641 C 304.8390808105469 157.7831420898438 305.0730895996094 157.4758605957031 305.31787109375 157.1544036865234 C 305.5618896484375 156.8339996337891 305.8141784667969 156.502685546875 306.0514831542969 156.1606903076172 C 306.2989807128906 155.8041229248047 306.6057739257812 155.4545593261719 307.0461730957031 155.02734375 C 307.2631225585938 154.81640625 307.4939880371094 154.5983734130859 307.7461242675781 154.421142578125 C 307.9452514648438 154.4548034667969 308.1522827148438 154.4711151123047 308.3754577636719 154.4710998535156 C 308.7265625 154.4710998535156 309.0642395019531 154.4309234619141 309.3908081054688 154.3920745849609 C 309.5076904296875 154.378173828125 309.6244812011719 154.3642425537109 309.7412414550781 154.3524017333984 C 310.1578369140625 154.3100280761719 310.4965209960938 154.2384033203125 310.8072509765625 154.1269989013672 C 311.1667785644531 153.9964141845703 311.354248046875 153.6889953613281 311.2988891601562 153.3238677978516 C 311.2465515136719 152.9707641601562 310.9627685546875 152.7227478027344 310.6090087890625 152.7227478027344 C 310.5494689941406 152.7227478027344 310.4880676269531 152.7299499511719 310.4265747070312 152.744140625 C 310.3531494140625 152.7608947753906 310.2790832519531 152.7757110595703 310.2042846679688 152.7890319824219 C 310.2709655761719 152.7441864013672 310.3358154296875 152.7013854980469 310.4006652832031 152.6612091064453 C 310.7282409667969 152.4595489501953 310.8540649414062 152.0829467773438 310.7051391601562 151.7463226318359 C 310.5928039550781 151.4900665283203 310.3500061035156 151.3297119140625 310.072265625 151.3297119140625 C 309.9405212402344 151.3297119140625 309.8068542480469 151.3672790527344 309.685791015625 151.4383697509766 C 309.5916137695312 151.4935760498047 309.49755859375 151.5497589111328 309.4035034179688 151.6059417724609 C 309.1910705566406 151.7328643798828 308.9904174804688 151.8527374267578 308.78466796875 151.9638061523438 L 308.6854553222656 152.0171661376953 C 308.2898254394531 152.2297058105469 307.8827209472656 152.4484100341797 307.5005798339844 152.7399444580078 C 306.9236450195312 152.5071105957031 306.3971557617188 152.1425476074219 305.9070434570312 151.7887878417969 C 305.7501525878906 151.6755981445312 305.5907592773438 151.5675354003906 305.4366149902344 151.4630279541016 C 305.159912109375 151.275390625 304.8985290527344 151.0981750488281 304.6614379882812 150.9006958007812 C 304.4371643066406 150.7138214111328 304.2075805664062 150.5302124023438 303.9855346679688 150.3526458740234 C 303.4824523925781 149.9502563476562 303.0072326660156 149.5702056884766 302.5697937011719 149.1414794921875 C 302.1381530761719 148.7188568115234 301.7787170410156 148.2621917724609 301.5011901855469 147.783935546875 C 301.2171936035156 147.2949981689453 301.0577697753906 146.7846984863281 301.0272827148438 146.2669830322266 C 301.0216369628906 146.1727752685547 301.0133056640625 146.0827484130859 301.0052490234375 145.9956970214844 C 300.9960632324219 145.8961639404297 300.9871215820312 145.7997741699219 300.9834594726562 145.7083740234375 C 301.2689208984375 145.9344024658203 301.5722961425781 146.1542358398438 301.8979187011719 146.3712005615234 C 302.2897338867188 146.6321258544922 302.7008361816406 146.8243865966797 303.0984191894531 147.0102996826172 C 303.2400817871094 147.0765533447266 303.3739013671875 147.1391296386719 303.5075378417969 147.2049407958984 C 303.5868835449219 147.2439880371094 303.6658630371094 147.283935546875 303.7449340820312 147.3238983154297 C 303.9457702636719 147.4253997802734 304.1534423828125 147.5303802490234 304.371826171875 147.6243743896484 C 304.5790405273438 147.7138977050781 304.8062438964844 147.7575836181641 305.065673828125 147.7575836181641 C 305.211669921875 147.757568359375 305.3516235351562 147.7440795898438 305.47509765625 147.732177734375 C 305.5534057617188 147.7246246337891 305.6273498535156 147.7174987792969 305.6952819824219 147.7143249511719 C 306.1844482421875 147.6909942626953 306.6717224121094 147.6404876708984 307.1429748535156 147.5916290283203 C 307.2896728515625 147.5764312744141 307.4363708496094 147.5612182617188 307.5830993652344 147.5468292236328 C 307.5902709960938 147.5461273193359 307.5974426269531 147.5453796386719 307.6045532226562 147.5446014404297 C 307.7893981933594 147.9609375 308.0846862792969 148.2832336425781 308.3788757324219 148.5801849365234 C 308.6939086914062 148.8978729248047 309.0082702636719 149.2049102783203 309.3570861816406 149.5446166992188 C 309.642333984375 149.8218078613281 309.9117431640625 150.0158081054688 310.2053527832031 150.1555786132812 C 310.2425537109375 150.1732177734375 310.3041381835938 150.2229766845703 310.3637390136719 150.2711029052734 C 310.4896545410156 150.3728179931641 310.6463928222656 150.4994201660156 310.8620300292969 150.5804748535156 C 311.0025939941406 150.6332855224609 311.1484680175781 150.7110900878906 311.3028869628906 150.7934722900391 C 311.519775390625 150.9091644287109 311.7567138671875 151.0355529785156 312.0296630859375 151.1204528808594 C 312.0342407226562 151.2229614257812 312.0582275390625 151.3309478759766 312.1117553710938 151.4316101074219 C 312.224853515625 151.6403503417969 312.4371643066406 151.7673645019531 312.6681213378906 151.7673492431641 C 312.7938232421875 151.7673492431641 312.896728515625 151.7304229736328 312.9711303710938 151.6922760009766 C 313.1080627441406 151.9613037109375 313.2137756347656 152.2262725830078 313.2384338378906 152.4988708496094 C 313.2720031738281 152.8742980957031 313.2154541015625 153.2726287841797 313.0492553710938 153.8301391601562 C 312.8396301269531 154.5316467285156 312.4410095214844 155.1583557128906 312.1171264648438 155.6259307861328 C 311.6083374023438 156.3603820800781 311.1883850097656 156.9454193115234 310.7955932617188 157.4670104980469 C 310.6229248046875 157.6959381103516 310.411865234375 157.9081878662109 310.1884460449219 158.1328887939453 C 310.031005859375 158.2912292480469 309.8681945800781 158.4549713134766 309.7130126953125 158.6311798095703 C 309.3451538085938 159.0489501953125 308.9367065429688 159.4437561035156 308.4989318847656 159.8046569824219 C 308.3771362304688 159.905029296875 308.2725219726562 160.0086059570312 308.1713256835938 160.1087951660156 C 308.0177001953125 160.2609100341797 307.885009765625 160.3922729492188 307.7432556152344 160.4604949951172 C 307.6878967285156 160.4873504638672 307.6385498046875 160.5176086425781 307.5908203125 160.5468902587891 C 307.5778198242188 160.5548553466797 307.561279296875 160.5650024414062 307.5447692871094 160.5748291015625 Z"/><path class="l" d="M 307.5810546875 159.8440399169922 C 307.6348571777344 159.7956237792969 307.6974792480469 159.7336273193359 307.7492065429688 159.6824188232422 C 307.8547668457031 159.577880859375 307.9744262695312 159.4594116210938 308.1172485351562 159.3417205810547 C 308.5304870605469 159.0010223388672 308.9158630371094 158.6285705566406 309.2627563476562 158.234619140625 C 309.429931640625 158.0447998046875 309.5992431640625 157.87451171875 309.7630004882812 157.7098388671875 C 309.9715576171875 157.5000610351562 310.1685791015625 157.3019409179688 310.3162841796875 157.1060791015625 C 310.7042236328125 156.5909576416016 311.1197509765625 156.0120391845703 311.6239013671875 155.2842864990234 C 311.9224548339844 154.8532257080078 312.2889709472656 154.2788391113281 312.4742736816406 153.6587524414062 C 312.617431640625 153.1785125732422 312.6672058105469 152.8474273681641 312.640869140625 152.5529479980469 C 312.6354064941406 152.4924163818359 312.6227722167969 152.4300384521484 312.6042175292969 152.3656921386719 C 312.1779174804688 152.3435821533203 311.7920532226562 152.10107421875 311.5864562988281 151.7216491699219 C 311.5849609375 151.7188568115234 311.5834655761719 151.716064453125 311.5819702148438 151.7132720947266 C 311.5572204589844 151.6667175292969 311.5354309082031 151.6184387207031 311.5166320800781 151.5688171386719 C 311.4103698730469 151.52294921875 311.3106689453125 151.4743347167969 311.216796875 151.4261779785156 C 311.2299499511719 151.4514465332031 311.2423095703125 151.4772644042969 311.2538452148438 151.5035705566406 C 311.3746948242188 151.7767181396484 311.3955993652344 152.0686187744141 311.3296203613281 152.3396911621094 C 311.6256103515625 152.5373229980469 311.8360595703125 152.8555755615234 311.89208984375 153.2339172363281 C 311.9898681640625 153.8787078857422 311.6371765136719 154.4638977050781 311.0144653320312 154.6900787353516 C 311.0129089355469 154.6906585693359 311.0113220214844 154.6912231445312 311.009765625 154.6917877197266 C 310.6519775390625 154.8200531005859 310.2682495117188 154.9018859863281 309.8017883300781 154.9493408203125 C 309.6884765625 154.9608306884766 309.5751342773438 154.9743804931641 309.4617309570312 154.9878692626953 C 309.1177673339844 155.0287780761719 308.7621154785156 155.0710906982422 308.3754272460938 155.0711059570312 C 308.2150268554688 155.0711059570312 308.0612487792969 155.0636749267578 307.9122314453125 155.0486297607422 C 307.7582092285156 155.1747589111328 307.608154296875 155.3177795410156 307.4639282226562 155.4579925537109 C 307.052490234375 155.8571166992188 306.7688598632812 156.1793975830078 306.54443359375 156.5027008056641 C 306.2995910644531 156.8556213378906 306.0431823730469 157.1923065185547 305.7952270507812 157.5179138183594 C 305.6722106933594 157.679443359375 305.552001953125 157.8372955322266 305.4354858398438 157.9939117431641 C 305.7308349609375 158.2400207519531 306.0438537597656 158.5077972412109 306.3605346679688 158.7929077148438 C 306.5609130859375 158.9735870361328 306.7566833496094 159.1384124755859 306.9639587402344 159.3129119873047 C 307.1647033691406 159.48193359375 307.3702392578125 159.6549682617188 307.5810546875 159.8440399169922 M 307.4338073730469 152.0514068603516 C 307.7629699707031 151.8316650390625 308.0956115722656 151.6529541015625 308.4015197753906 151.4886016845703 L 308.4996337890625 151.4358367919922 C 308.6939086914062 151.3309783935547 308.8891296386719 151.2143402099609 309.0957946777344 151.0908660888672 C 309.1912536621094 151.0338287353516 309.2867431640625 150.976806640625 309.3821411132812 150.9208831787109 C 309.5679016113281 150.8118591308594 309.7731018066406 150.7476348876953 309.9806518554688 150.7329559326172 C 309.9593505859375 150.7157745361328 309.9338989257812 150.6952972412109 309.9175109863281 150.6828765869141 C 309.5747985839844 150.5155181884766 309.2631530761719 150.2899627685547 308.9384460449219 149.9744415283203 C 308.5876159667969 149.6327362060547 308.2713012695312 149.3237762451172 307.9526062011719 149.00244140625 C 307.718505859375 148.76611328125 307.4718017578125 148.5015258789062 307.2681274414062 148.181884765625 C 307.2470397949219 148.1840667724609 307.2259216308594 148.1862487792969 307.204833984375 148.1884460449219 C 306.7254333496094 148.2381286621094 306.2297058105469 148.2895202636719 305.7232360839844 148.3136749267578 C 305.6701354980469 148.3161468505859 305.6033630371094 148.3225860595703 305.5326538085938 148.3294067382812 C 305.395751953125 148.3426208496094 305.2405700683594 148.3575744628906 305.065673828125 148.3575897216797 C 304.7227478027344 148.3575897216797 304.417724609375 148.2978057861328 304.1346130371094 148.1754913330078 C 303.8992614746094 148.0741882324219 303.6831970214844 147.9649810791016 303.4742736816406 147.859375 C 303.3970947265625 147.8203735351562 303.3199768066406 147.7813568115234 303.2424926757812 147.7432250976562 C 303.1142883300781 147.6800842285156 302.9830932617188 147.6187438964844 302.84423828125 147.5538024902344 C 302.5017700195312 147.3936462402344 302.1497497558594 147.2290344238281 301.7972717285156 147.0172424316406 C 301.8566589355469 147.1739501953125 301.9310302734375 147.329345703125 302.0201721191406 147.4828033447266 C 302.2705078125 147.9142608642578 302.5965881347656 148.3280029296875 302.9897766113281 148.7129669189453 C 303.4056091308594 149.1205291748047 303.8693237304688 149.4914093017578 304.3602905273438 149.8840637207031 C 304.5846252441406 150.0634765625 304.8166198730469 150.2490081787109 305.0454406738281 150.4396667480469 C 305.259765625 150.6181945800781 305.5092163085938 150.7873382568359 305.7733459472656 150.9664001464844 C 305.9310302734375 151.0733337402344 306.0941162109375 151.1838989257812 306.2582092285156 151.3022766113281 C 306.6307678222656 151.5711975097656 307.0243225097656 151.8462066650391 307.4338073730469 152.0514068603516 M 307.5943298339844 161.191162109375 C 307.58447265625 161.191162109375 307.5749206542969 161.1903381347656 307.5657043457031 161.1885986328125 C 307.3359985351562 161.1452789306641 307.2103271484375 161.1394805908203 307.0312805175781 160.9694366455078 C 306.5370483398438 160.4989318847656 306.061767578125 160.1393127441406 305.5569458007812 159.6841125488281 C 305.0589599609375 159.2357940673828 304.5647277832031 158.8265380859375 304.06298828125 158.4204406738281 C 303.919921875 158.3042602539062 303.8190307617188 158.2176666259766 303.9526672363281 158.0143585205078 C 304.45166015625 157.2555236816406 305.0415344238281 156.5637512207031 305.5585021972656 155.8186492919922 C 305.8700866699219 155.3697814941406 306.2402648925781 154.9731903076172 306.6283874511719 154.5966796875 C 306.9135437011719 154.3194427490234 307.2092590332031 154.0453796386719 307.5493469238281 153.8315124511719 C 307.5816040039062 153.8109436035156 307.627685546875 153.7980804443359 307.6690673828125 153.7980804443359 C 307.681884765625 153.7980804443359 307.6942749023438 153.79931640625 307.7056579589844 153.8019409179688 C 307.9295043945312 153.8524475097656 308.1526489257812 153.8711090087891 308.3754272460938 153.8711090087891 C 308.811767578125 153.87109375 309.2464904785156 153.7995147705078 309.6806640625 153.7554626464844 C 309.9921875 153.7237701416016 310.3042907714844 153.669921875 310.6047668457031 153.5621948242188 C 310.6992797851562 153.5278625488281 310.7167053222656 153.4866790771484 310.7056579589844 153.4138031005859 C 310.6964416503906 153.3516235351562 310.6632080078125 153.32275390625 310.6090087890625 153.32275390625 C 310.5946350097656 153.32275390625 310.5787353515625 153.3247985839844 310.5614624023438 153.3287811279297 C 310.0751342773438 153.4396820068359 309.57763671875 153.4734802246094 309.0839233398438 153.5220489501953 C 308.9681701660156 153.5334930419922 308.8517456054688 153.5371551513672 308.7350158691406 153.5371551513672 C 308.54443359375 153.5371551513672 308.35302734375 153.5273895263672 308.1624450683594 153.5257568359375 C 308.1547546386719 153.5257568359375 308.1466064453125 153.5259094238281 308.1383361816406 153.5259094238281 C 308.0960693359375 153.5259094238281 308.0498352050781 153.5218505859375 308.0357055664062 153.472412109375 C 308.0151062011719 153.4016571044922 308.0858764648438 153.3858184814453 308.1270446777344 153.3536071777344 C 308.5732727050781 153.00244140625 309.1055908203125 152.7949066162109 309.57763671875 152.4870452880859 C 309.7477111816406 152.3761444091797 309.9124755859375 152.2578582763672 310.0846252441406 152.1511840820312 C 310.1532592773438 152.1089324951172 310.1849365234375 152.0534973144531 310.1564331054688 151.9890747070312 C 310.1381530761719 151.9473724365234 310.1076049804688 151.9297180175781 310.072265625 151.9297180175781 C 310.0462951660156 151.9297180175781 310.0177307128906 151.9392547607422 309.9895629882812 151.9557952880859 C 309.6832885742188 152.1353454589844 309.3817443847656 152.3233337402344 309.0697021484375 152.4917907714844 C 308.5933532714844 152.7484436035156 308.1138610839844 152.99609375 307.6977233886719 153.3514862060547 C 307.6590270996094 153.3845520019531 307.6171569824219 153.3970184326172 307.573974609375 153.3970184326172 C 307.4799499511719 153.3970184326172 307.3799133300781 153.3378295898438 307.2937622070312 153.3034515380859 C 306.6621704101562 153.0515441894531 306.1045532226562 152.6713256835938 305.5558776855469 152.2752838134766 C 305.1313171386719 151.968994140625 304.6787719726562 151.6959991455078 304.2774353027344 151.3617248535156 C 303.5650634765625 150.7681732177734 302.8135986328125 150.2205657958984 302.1498107910156 149.5699768066406 C 301.6962280273438 149.1258697509766 301.2975158691406 148.62841796875 300.9822387695312 148.0850524902344 C 300.6675109863281 147.5432434082031 300.46630859375 146.9470520019531 300.4283142089844 146.3022766113281 C 300.4114074707031 146.0202789306641 300.3638916015625 145.7404174804688 300.3887023925781 145.456298828125 C 300.3992614746094 145.1875152587891 300.4314880371094 144.9229431152344 300.5107116699219 144.6641998291016 C 300.5281982421875 144.6077423095703 300.5421142578125 144.5771484375 300.5675659179688 144.5771484375 C 300.5859375 144.5771484375 300.6103210449219 144.5930786132812 300.6463928222656 144.626708984375 C 301.1374816894531 145.0877227783203 301.6703491210938 145.4985656738281 302.2306213378906 145.8719024658203 C 302.7143249511719 146.1940155029297 303.2534790039062 146.4110565185547 303.7725830078125 146.6666412353516 C 304.0503540039062 146.8034057617188 304.3244018554688 146.9507446289062 304.6090393066406 147.0732574462891 C 304.7590026855469 147.1380615234375 304.9119262695312 147.1575775146484 305.065673828125 147.1575775146484 C 305.2665100097656 147.1575775146484 305.4686889648438 147.1242523193359 305.6672973632812 147.1149749755859 C 306.2872619628906 147.0854034423828 306.9056396484375 147.0104217529297 307.5245056152344 146.9496917724609 C 307.6486206054688 146.9375457763672 307.772216796875 146.9085083007812 307.8941650390625 146.8794555664062 C 307.9100952148438 146.8757019042969 307.9246215820312 146.8739166259766 307.9378662109375 146.8739166259766 C 308.0027160644531 146.8739166259766 308.0363464355469 146.9169006347656 308.0499877929688 146.9813690185547 C 308.1518859863281 147.4703674316406 308.4703063964844 147.8199462890625 308.8051147460938 148.1579132080078 C 309.1250915527344 148.4805603027344 309.4503784179688 148.7979431152344 309.7756958007812 149.1147766113281 C 309.9805603027344 149.3138580322266 310.1991882324219 149.4881286621094 310.4632263183594 149.6138153076172 C 310.682373046875 149.7178344726562 310.8413391113281 149.9317016601562 311.0731506347656 150.0188446044922 C 311.5510559082031 150.1983795166016 311.9576721191406 150.543212890625 312.4873352050781 150.6086883544922 C 312.5523376464844 150.61669921875 312.6143188476562 150.6239166259766 312.6749267578125 150.6239166259766 C 312.7463073730469 150.6239166259766 312.8157958984375 150.6138916015625 312.8860473632812 150.5833435058594 C 312.9076538085938 150.5740356445312 312.9292602539062 150.5571899414062 312.9504699707031 150.5571899414062 C 312.9629516601562 150.5571899414062 312.9753112792969 150.5630187988281 312.9874267578125 150.5796356201172 C 313.0228271484375 150.6287689208984 312.9895324707031 150.6688995361328 312.9509582519531 150.6884307861328 C 312.8189697265625 150.7554931640625 312.7951965332031 150.9265899658203 312.6547546386719 150.990478515625 C 312.6288757324219 151.0021057128906 312.6193542480469 151.1082458496094 312.6415405273438 151.1499633789062 C 312.6483459472656 151.1625061035156 312.6575622558594 151.1673583984375 312.6680908203125 151.1673583984375 C 312.6943359375 151.1673583984375 312.7286071777344 151.1372833251953 312.7535095214844 151.1214447021484 C 312.8533020019531 151.0580902099609 312.9446411132812 150.9735870361328 313.0238647460938 150.8943786621094 C 313.0738830566406 150.8443603515625 313.1084289550781 150.8230743408203 313.1361999511719 150.8230743408203 C 313.175537109375 150.8230743408203 313.2012023925781 150.8658905029297 313.2377319335938 150.9302978515625 C 313.5070495605469 151.4081878662109 313.7853393554688 151.8850402832031 313.8359985351562 152.4447937011719 C 313.883544921875 152.9765625 313.7758483886719 153.4930267333984 313.624267578125 154.0015411376953 C 313.4093322753906 154.7207794189453 313.0328369140625 155.3576354980469 312.6103820800781 155.9675598144531 C 312.17578125 156.5948944091797 311.7337951660156 157.2185516357422 311.27490234375 157.8279418945312 C 310.9458923339844 158.2641296386719 310.5218505859375 158.6205902099609 310.1632995605469 159.0277252197266 C 309.7662048339844 159.4786987304688 309.3379211425781 159.8905944824219 308.8805847167969 160.2676239013672 C 308.5864868164062 160.510009765625 308.3567810058594 160.8310852050781 308.0034790039062 161.0011291503906 C 307.9072570800781 161.0477752685547 307.7247619628906 161.1911773681641 307.5943298339844 161.191162109375 Z"/></g></g><g transform="translate(295.527 134.28)"><g class="g" transform="translate(-324.688 -151.062)"><path class="j" d="M 326.1651000976562 153.5408020019531 C 326.1296997070312 153.5235900878906 326.0789794921875 153.4939575195312 326.0421142578125 153.4724273681641 C 326.0044555664062 153.450439453125 325.9668273925781 153.4285736083984 325.9290771484375 153.4079437255859 C 325.8397216796875 153.3590240478516 325.7471618652344 153.3000946044922 325.6491394042969 153.2376861572266 C 325.5869750976562 153.1981048583984 325.5239562988281 153.1579895019531 325.4588928222656 153.1184844970703 C 325.7697448730469 152.6589660644531 326.0100402832031 152.1741180419922 326.2435913085938 151.7028503417969 C 326.3026428222656 151.7274169921875 326.3682556152344 151.7823791503906 326.450927734375 151.9135284423828 C 326.5331726074219 152.04443359375 326.6212463378906 152.1589508056641 326.7063903808594 152.2696990966797 C 326.8736267089844 152.4871673583984 326.9773254394531 152.6282501220703 327.0016784667969 152.7821044921875 C 327.0025939941406 152.7879028320312 327.0036926269531 152.80029296875 327.0048522949219 152.8153228759766 C 326.8893432617188 153.1497344970703 326.8182678222656 153.2879333496094 326.6386108398438 153.3535461425781 L 326.6083374023438 153.3645935058594 C 326.4647216796875 153.4169769287109 326.3165893554688 153.4709930419922 326.1651000976562 153.5408020019531 Z"/><path class="l" d="M 326.1714782714844 154.1511383056641 C 325.97705078125 154.1511383056641 325.8116149902344 154.0274353027344 325.6415100097656 153.9345550537109 C 325.3859252929688 153.7946166992188 325.1509399414062 153.6134796142578 324.8884887695312 153.4899139404297 C 324.5885620117188 153.3489227294922 324.6788330078125 153.1709594726562 324.8108520507812 152.9945983886719 C 325.2158813476562 152.4543762207031 325.5021057128906 151.8444519042969 325.7994384765625 151.2482452392578 C 325.8749694824219 151.0968627929688 325.9464416503906 151.0616760253906 326.0270690917969 151.0616760253906 C 326.0834045410156 151.0616760253906 326.1442260742188 151.0788879394531 326.2139587402344 151.0856170654297 C 326.5577392578125 151.1194152832031 326.7821350097656 151.3137359619141 326.9585266113281 151.5936126708984 C 327.1835021972656 151.9516448974609 327.5235900878906 152.2415618896484 327.5942993164062 152.6883087158203 C 327.602783203125 152.7421569824219 327.6043395996094 152.7970886230469 327.6122741699219 152.8926849365234 C 327.4755249023438 153.2961273193359 327.3418884277344 153.7354583740234 326.8444519042969 153.9171295166016 C 326.6897583007812 153.9736328125 326.5345153808594 154.0290832519531 326.3860778808594 154.099853515625 C 326.3101196289062 154.1361999511719 326.2390441894531 154.1511383056641 326.1714782714844 154.1511383056641 Z"/></g></g><g transform="translate(298.429 128.913)"><g class="g" transform="translate(-330.183 -140.899)"><path class="j" d="M 333.2485961914062 146.0836944580078 C 333.2232055664062 146.0836944580078 333.18017578125 146.0799865722656 333.1303405761719 146.0756988525391 C 333.0783081054688 146.0712280273438 333.0201416015625 146.0662841796875 332.9526062011719 146.0623779296875 L 332.924072265625 146.0607147216797 L 332.8954772949219 146.0617828369141 C 332.8554077148438 146.0632781982422 332.8152160644531 146.0639801025391 332.7748718261719 146.0639801025391 C 332.6608276367188 146.0639801025391 332.5447387695312 146.058349609375 332.4266967773438 146.0483245849609 C 332.6620178222656 145.8760833740234 332.8907470703125 145.6729583740234 333.1138916015625 145.4384613037109 C 333.6826477050781 144.8405914306641 334.0241394042969 144.1270141601562 334.1343078613281 143.3093109130859 C 334.1720275878906 143.4432067871094 334.2095947265625 143.5769500732422 334.2468872070312 143.7104034423828 C 334.3515014648438 144.0840148925781 334.4552001953125 144.4657287597656 334.5554809570312 144.8348541259766 C 334.6342468261719 145.1247253417969 334.7129821777344 145.4145660400391 334.7930297851562 145.7039184570312 C 334.8185424804688 145.7958526611328 334.849609375 145.8814544677734 334.881591796875 145.961181640625 C 334.8038024902344 145.9671325683594 334.7259826660156 145.9730834960938 334.6481628417969 145.9790496826172 C 334.1842041015625 146.0145568847656 333.7203674316406 146.0500640869141 333.2565307617188 146.0835113525391 C 333.2542419433594 146.0836791992188 333.2514343261719 146.0836944580078 333.2485961914062 146.0836944580078 Z"/><path class="l" d="M 333.9189453125 140.8991088867188 C 334.1026306152344 140.8991088867188 334.1268005371094 141.0957183837891 334.1709899902344 141.2502136230469 C 334.3906555175781 142.0159149169922 334.6103210449219 142.7816162109375 334.8247375488281 143.5489196777344 C 335.0106201171875 144.2126922607422 335.1875610351562 144.879638671875 335.3713073730469 145.5439605712891 C 335.4483947753906 145.8217163085938 335.6131591796875 146.0677947998047 335.6601257324219 146.3587646484375 C 335.6786499023438 146.4738922119141 335.6411437988281 146.5050506591797 335.5402526855469 146.5129699707031 C 334.7930603027344 146.5689544677734 334.0463562011719 146.6280975341797 333.2996826171875 146.6819610595703 C 333.2827758789062 146.6831665039062 333.265869140625 146.6837005615234 333.2485961914062 146.6837005615234 C 333.1600952148438 146.6837005615234 333.0628051757812 146.6697692871094 332.9178771972656 146.6613616943359 C 332.870361328125 146.6631317138672 332.8226928710938 146.6639862060547 332.7748718261719 146.6639862060547 C 332.0685424804688 146.6639862060547 331.3296508789062 146.4784088134766 330.5838317871094 146.3423919677734 C 330.5299377441406 146.3328857421875 330.4750366210938 146.3297271728516 330.4216918945312 146.3170471191406 C 330.4049072265625 146.3131713867188 330.3873291015625 146.3121795654297 330.3695068359375 146.3121795654297 C 330.3504333496094 146.3121795654297 330.3310546875 146.3133239746094 330.3119812011719 146.3133239746094 C 330.2637329101562 146.3133239746094 330.2174072265625 146.3059844970703 330.1830139160156 146.2542114257812 C 330.2695922851562 146.2267608642578 330.3551635742188 146.1808166503906 330.4433288574219 146.1744842529297 C 331.3542785644531 146.1116485595703 332.0687255859375 145.6664733886719 332.67919921875 145.0248718261719 C 333.3609313964844 144.3082733154297 333.6207580566406 143.4533233642578 333.56689453125 142.4674224853516 C 333.5420837402344 142.0101165771484 333.4744567871094 141.5807952880859 333.279052734375 141.1699523925781 C 333.2421264648438 141.0912628173828 333.2342224121094 141.0300140380859 333.3561706542969 141.0110015869141 C 333.5114440917969 140.9867095947266 333.6656494140625 140.9592437744141 333.8187561035156 140.9149017333984 C 333.8566284179688 140.904052734375 333.8898010253906 140.8991088867188 333.9189453125 140.8991088867188 Z"/></g></g><g transform="translate(297.42 135.038)"><path class="i" d="M328.334,155.149a3.922,3.922,0,0,0,1.607.547,2.507,2.507,0,0,0,1.683-.567,1.962,1.962,0,0,0,.824-1.145c.041-.135.16-.291.04-.391s-.285.023-.414.1a.464.464,0,0,0-.049.044c-.386.337-.771.676-1.16,1.009a.2.2,0,0,1-.293-.016c-.081-.108.022-.177.114-.225a2.5,2.5,0,0,0,.5-.366,1.189,1.189,0,0,0,.517-1.053c-.007-.067-.007-.13-.077-.17a.107.107,0,0,0-.145.035,5.566,5.566,0,0,1-.788.594,3.546,3.546,0,0,1-.623.328.13.13,0,0,1-.184-.061.139.139,0,0,1,.089-.186,1.6,1.6,0,0,0,.4-.206c.233-.2.613-.277.6-.717-.007-.236-.074-.244-.243-.165-.058.027-.106.077-.164.1-.312.138-.508.451-.843.553-.074.022-.077.09-.07.15a1.554,1.554,0,0,1-.235.836,1.662,1.662,0,0,1-1.042.82c-.044.016-.107.019-.109.081C328.27,155.105,328.307,155.136,328.334,155.149Z" transform="translate(-328.271 -152.497)"/></g><g transform="translate(303.206 130.6)"><g class="g" transform="translate(-339.229 -144.092)"><path class="j" d="M 340.6269836425781 145.7497100830078 C 340.4822387695312 145.6606140136719 340.2518615722656 145.4623413085938 340.1745300292969 145.3550872802734 C 340.1726379394531 145.3485107421875 340.1707153320312 145.3419189453125 340.1687927246094 145.3353424072266 C 340.17529296875 145.3360748291016 340.1817626953125 145.3367614746094 340.1882629394531 145.3374328613281 C 340.2591247558594 145.3447418212891 340.3305053710938 145.3484649658203 340.4000244140625 145.3484649658203 C 340.7984008789062 145.3484649658203 341.162109375 145.2297210693359 341.4810791015625 144.9955139160156 C 341.5404968261719 144.9515991210938 341.5985107421875 144.907470703125 341.6549987792969 144.8632354736328 C 341.6625061035156 144.8707122802734 341.6700439453125 144.8781890869141 341.6776123046875 144.8856658935547 C 341.3796081542969 145.2946929931641 341.0334167480469 145.5794067382812 340.6269836425781 145.7497100830078 Z"/><path class="l" d="M 341.689697265625 144.0921325683594 C 341.7389221191406 144.0921478271484 341.7810974121094 144.1264801025391 341.822509765625 144.1707458496094 C 342.0025329589844 144.3629760742188 342.1810302734375 144.5546569824219 342.3917236328125 144.7173004150391 C 342.5232238769531 144.8186950683594 342.3600769042969 144.9428100585938 342.3278198242188 144.9945373535156 C 341.9412841796875 145.6092224121094 341.4343566894531 146.0950469970703 340.7378234863281 146.3506317138672 C 340.6924133300781 146.3669891357422 340.6406555175781 146.3659362792969 340.591552734375 146.3733367919922 C 340.3438720703125 146.3664703369141 339.6801147460938 145.8056640625 339.6109008789062 145.56591796875 C 339.5010986328125 145.1830596923828 339.3748779296875 144.8049621582031 339.2560729980469 144.4247436523438 C 339.2417907714844 144.3793334960938 339.2043151855469 144.3233642578125 339.2550048828125 144.2890319824219 C 339.263916015625 144.2830963134766 339.2721862792969 144.2805938720703 339.2799987792969 144.2805938720703 C 339.3125 144.2805938720703 339.3367614746094 144.3239440917969 339.3627319335938 144.3439636230469 C 339.6257019042969 144.5499114990234 339.9087524414062 144.7056884765625 340.2493591308594 144.7405548095703 C 340.3003234863281 144.7458038330078 340.3505554199219 144.7484588623047 340.4000549316406 144.7484588623047 C 340.6639099121094 144.7484588623047 340.9067687988281 144.6728515625 341.1259765625 144.5118865966797 C 341.2838745117188 144.3951873779297 341.4375305175781 144.2721405029297 341.5838012695312 144.1417083740234 C 341.6231689453125 144.1064605712891 341.6578979492188 144.0921325683594 341.689697265625 144.0921325683594 Z"/></g></g><g transform="translate(305.361 127.904)"><g class="g" transform="translate(-343.31 -138.988)"><path class="j" d="M343.517,140.216a1.506,1.506,0,0,1,.291.288c.119.163.181.092.278-.023a1.037,1.037,0,0,1,.342-.29c.23-.1.137-.184.012-.272a6.775,6.775,0,0,1-.857-.812c-.039-.039-.079-.076-.122-.118-.119.048-.071.163-.071.227C343.4,139.551,343.14,139.923,343.517,140.216Z"/><path class="l" d="M 343.93505859375 140.5997161865234 C 343.8982849121094 140.5997161865234 343.8582763671875 140.5724945068359 343.8080749511719 140.5040740966797 C 343.7283325195312 140.3952941894531 343.6242980957031 140.2991943359375 343.5171203613281 140.2157592773438 C 343.1395568847656 139.9232025146484 343.3951416015625 139.5514373779297 343.3909301757812 139.2150573730469 C 343.3904113769531 139.150634765625 343.3428955078125 139.0360412597656 343.461669921875 138.9880065917969 C 343.5049438476562 139.0302429199219 343.5451049804688 139.0677337646484 343.5836791992188 139.1062927246094 C 343.8619689941406 139.3840484619141 344.1138610839844 139.6898040771484 344.440185546875 139.91845703125 C 344.5658874511719 140.0066528320312 344.6582946777344 140.0895538330078 344.4285888671875 140.1909332275391 C 344.2965698242188 140.2490386962891 344.1824951171875 140.3678436279297 344.0863952636719 140.4813842773438 C 344.0300903320312 140.5480804443359 343.9856872558594 140.5997161865234 343.93505859375 140.5997161865234 Z"/></g></g><g transform="translate(305.883 129.284)"><g class="g" transform="translate(-344.299 -141.602)"><path class="j" d="M 345.3047180175781 142.7799224853516 C 345.2984924316406 142.7745361328125 345.2922668457031 142.7691802978516 345.2860717773438 142.7638092041016 C 345.1835021972656 142.6752471923828 345.088623046875 142.5933074951172 345.0079040527344 142.5105590820312 C 345.0410766601562 142.4754791259766 345.0776062011719 142.4390411376953 345.1159362792969 142.4008026123047 C 345.1739196777344 142.3429718017578 345.23388671875 142.2831573486328 345.2947692871094 142.2158355712891 C 345.3075866699219 142.2118225097656 345.3506774902344 142.2015533447266 345.455810546875 142.2015533447266 C 345.4842529296875 142.2015533447266 345.5137939453125 142.2022552490234 345.5444641113281 142.2034454345703 L 345.56640625 142.2042999267578 L 345.5883483886719 142.2035522460938 C 345.615478515625 142.2039642333984 345.6688232421875 142.2234802246094 345.7287902832031 142.2494049072266 C 345.5898742675781 142.4393920898438 345.4534912109375 142.6212768554688 345.3047180175781 142.7799224853516 Z"/><path class="l" d="M 345.2893676757812 143.5631256103516 C 345.2731018066406 143.5631256103516 345.2569274902344 143.556396484375 345.2408752441406 143.5392761230469 C 344.9425048828125 143.2213897705078 344.5543518066406 142.9927215576172 344.3251953125 142.6067047119141 C 344.2898254394531 142.5475616455078 344.2908935546875 142.5127105712891 344.3215026855469 142.4466857910156 C 344.4424438476562 142.1868896484375 344.6658020019531 142.016845703125 344.85009765625 141.8130187988281 C 344.9989929199219 141.6478424072266 345.1896667480469 141.6015472412109 345.4558410644531 141.6015472412109 C 345.4917297363281 141.6015472412109 345.529052734375 141.6024017333984 345.5677795410156 141.6038970947266 C 345.5744323730469 141.6036682128906 345.5810546875 141.6035614013672 345.5877380371094 141.6035614013672 C 345.9047241210938 141.6035614013672 346.2222900390625 141.8586578369141 346.5869140625 141.9703674316406 C 346.6445007324219 141.98779296875 346.6312866210938 142.0506286621094 346.5948486328125 142.0955200195312 C 346.2035827636719 142.5787200927734 345.8951721191406 143.1326599121094 345.3839721679688 143.5144500732422 C 345.3523254394531 143.5381011962891 345.3207092285156 143.5631256103516 345.2893676757812 143.5631256103516 Z"/></g></g><g transform="translate(275.441 115.502)"><g class="h" transform="translate(-286.651 -115.502)"><path class="j" d="M 305.9838562011719 135.9135131835938 C 304.9191284179688 135.5074615478516 304.0244750976562 134.8912658691406 303.24951171875 134.0302581787109 C 303.154296875 133.9244842529297 303.0575866699219 133.8298187255859 302.9640502929688 133.73828125 C 302.771240234375 133.5496063232422 302.604736328125 133.3866577148438 302.5245666503906 133.1979370117188 C 302.4505615234375 133.0242004394531 302.4758911132812 132.9633026123047 302.4926147460938 132.9230041503906 C 302.6834716796875 132.4650573730469 303.1138610839844 132.2033843994141 303.6122131347656 131.9004058837891 L 303.7332458496094 131.8266143798828 C 303.9234924316406 131.7097778320312 304.1267395019531 131.6056671142578 304.3419494628906 131.4954223632812 C 304.5571899414062 131.3851776123047 304.7797546386719 131.2711486816406 304.9986572265625 131.1387939453125 C 305.5015869140625 130.8342132568359 305.9975280761719 130.5104217529297 306.4771728515625 130.1972808837891 C 306.6028442382812 130.115234375 306.728515625 130.0331726074219 306.8543701171875 129.951416015625 C 307.0534973144531 129.822998046875 307.1829528808594 129.6365356445312 307.2172546386719 129.4274291992188 C 307.2496948242188 129.2299041748047 307.196533203125 129.0319519042969 307.0675964355469 128.8700714111328 C 306.9306030273438 128.6983032226562 306.7307434082031 128.5999755859375 306.5190124511719 128.5999755859375 C 306.3045349121094 128.5999755859375 306.1483459472656 128.6987762451172 306.0733032226562 128.7462463378906 L 306.0645446777344 128.7517700195312 C 305.6073608398438 129.0412750244141 305.1492309570312 129.3281860351562 304.6986389160156 129.6072235107422 C 304.4092712402344 129.3841094970703 304.1112670898438 129.1421051025391 303.7939147949219 128.8726196289062 C 303.4759826660156 128.6025238037109 303.1483154296875 128.3400573730469 302.8314514160156 128.0862274169922 C 302.6239013671875 127.9199829101562 302.4093017578125 127.7480621337891 302.2018737792969 127.577507019043 C 301.9577331542969 127.3769378662109 301.7120666503906 127.1725234985352 301.4686889648438 126.9689407348633 C 301.4779052734375 126.9675979614258 301.4870910644531 126.9662628173828 301.4963073730469 126.9649200439453 C 301.7304382324219 126.9308700561523 301.9725646972656 126.8956527709961 302.2154541015625 126.8489990234375 C 302.264404296875 126.8395690917969 302.3245239257812 126.8351974487305 302.4049682617188 126.8351974487305 C 302.4644165039062 126.8351974487305 302.5280151367188 126.8375396728516 302.5953674316406 126.8400192260742 C 302.6706237792969 126.8427886962891 302.7484130859375 126.8456497192383 302.8299865722656 126.8456497192383 L 302.8642272949219 126.8454818725586 L 302.8698120117188 126.8454208374023 L 302.8753967285156 126.8452606201172 C 302.9098510742188 126.8442535400391 302.9442138671875 126.8438034057617 302.9785766601562 126.8438034057617 C 303.1958618164062 126.8438034057617 303.4178771972656 126.8618316650391 303.6529541015625 126.8809280395508 C 303.8455505371094 126.8965682983398 304.044677734375 126.9127426147461 304.2485046386719 126.9191436767578 C 304.6430358886719 126.9318389892578 305.0517272949219 127.0351791381836 305.4844360351562 127.1445922851562 L 305.6304016113281 127.1813735961914 C 305.9955444335938 127.2729339599609 306.3657531738281 127.356819152832 306.7237243652344 127.4379501342773 C 307.0511779785156 127.5121536254883 307.3897705078125 127.5888824462891 307.7183227539062 127.6701965332031 C 308.0940246582031 127.7629776000977 308.4566040039062 127.9461822509766 308.8405151367188 128.14013671875 C 308.9071350097656 128.1737976074219 308.9737243652344 128.2074432373047 309.0404357910156 128.2406463623047 C 309.5494384765625 128.4936370849609 310.0731201171875 128.7046966552734 310.5795288085938 128.9087982177734 C 310.9009704589844 129.0383453369141 311.2333679199219 129.1723175048828 311.5509338378906 129.31298828125 C 311.6319885253906 129.3489532470703 311.7118835449219 129.37451171875 311.7823791503906 129.3970642089844 C 311.793212890625 129.4005279541016 311.8056945800781 129.4045257568359 311.8183898925781 129.4086456298828 C 311.8367919921875 129.44091796875 311.8549499511719 129.4717254638672 311.8721313476562 129.5009002685547 C 311.9212036132812 129.5841369628906 311.967529296875 129.6627655029297 311.9894409179688 129.7250671386719 C 312.1614379882812 130.215087890625 312.2008666992188 130.7290954589844 312.1064758300781 131.2523040771484 C 311.9968566894531 131.8623352050781 311.6652221679688 132.3721160888672 311.092529296875 132.8111724853516 C 310.5988159179688 133.1895904541016 310.0124816894531 133.2843170166016 309.3526611328125 133.3615264892578 C 309.2424926757812 133.3743133544922 309.1259765625 133.3805694580078 308.9969787597656 133.3805694580078 C 308.7637939453125 133.3805694580078 308.5275268554688 133.3602600097656 308.2773742675781 133.3387756347656 C 308.0320739746094 133.3176727294922 307.7783813476562 133.2958831787109 307.5162048339844 133.2930450439453 L 307.4992065429688 133.2929534912109 C 306.9187927246094 133.2929534912109 306.6593933105469 133.668212890625 306.6136169433594 133.9895629882812 C 306.5842895507812 134.1944427490234 306.639892578125 134.3968658447266 306.7703247070312 134.5590362548828 C 306.7716979980469 134.5607604980469 306.7730712890625 134.5624542236328 306.7744750976562 134.5641632080078 C 306.694580078125 134.7258148193359 306.6192626953125 134.8681182861328 306.54443359375 134.9993133544922 C 306.3705139160156 135.3040771484375 306.1820068359375 135.6115112304688 305.9838562011719 135.9135131835938 Z M 298.5912780761719 132.4999389648438 C 298.5001831054688 132.4864959716797 298.3408813476562 132.4372711181641 298.15576171875 132.335205078125 C 297.8934326171875 132.1907958984375 297.6270446777344 132.0701293945312 297.3694458007812 131.9534301757812 C 297.0088500976562 131.7900848388672 296.6682739257812 131.6358032226562 296.37060546875 131.432861328125 C 295.8995056152344 131.1114807128906 295.4092102050781 130.7649688720703 294.9863891601562 130.3491363525391 C 295.4537353515625 129.8077239990234 295.9613952636719 129.2627258300781 296.5543212890625 128.8426055908203 C 296.7457885742188 128.7069244384766 296.9694213867188 128.5815277099609 297.2380676269531 128.459228515625 C 297.4108276367188 128.3804016113281 297.5860595703125 128.3082885742188 297.7715759277344 128.2319488525391 C 297.8580322265625 128.1963958740234 297.9444580078125 128.1608123779297 298.0306701660156 128.1245422363281 L 299.0206298828125 127.7080230712891 L 298.7308654785156 127.5008697509766 C 298.7332458496094 127.4998550415039 298.735595703125 127.4988403320312 298.7379760742188 127.4978179931641 C 298.7701721191406 127.484001159668 298.8023376464844 127.4701690673828 298.83447265625 127.4561538696289 C 298.841552734375 127.4548187255859 298.8487548828125 127.4535980224609 298.8558654785156 127.4522933959961 C 298.988037109375 127.4280319213867 299.0935668945312 127.3887939453125 299.1777038574219 127.3407211303711 L 299.190673828125 127.3513870239258 L 299.2000427246094 127.3590774536133 L 299.2132873535156 127.3699340820312 L 299.2196960449219 127.3227996826172 L 299.2948913574219 127.6645584106445 C 299.2886352539062 127.6648178100586 299.2824401855469 127.6649475097656 299.2762451171875 127.6649475097656 C 299.1494750976562 127.6649475097656 299.0586242675781 127.6119079589844 299.02490234375 127.5805816650391 C 299.3937683105469 127.9240188598633 299.7848205566406 128.2373657226562 300.1629943847656 128.5403747558594 C 300.2593383789062 128.6175689697266 300.3556823730469 128.6947631835938 300.4515991210938 128.7724151611328 C 300.9427795410156 129.1702880859375 301.4378967285156 129.5839233398438 301.9167175292969 129.9839172363281 C 302.1560668945312 130.1838531494141 302.3953857421875 130.3837890625 302.6354370117188 130.5828704833984 C 302.6779174804688 130.6180114746094 302.7209777832031 130.6536102294922 302.7645568847656 130.6894836425781 C 302.3858032226562 130.9239807128906 302.0123596191406 131.1829833984375 301.6709289550781 131.50439453125 C 301.4544067382812 131.7079467773438 301.2779541015625 131.9599609375 301.1218872070312 132.2901763916016 C 300.9199523925781 132.3129730224609 300.7174987792969 132.3370056152344 300.5202331542969 132.3604278564453 C 300.1535034179688 132.4039764404297 299.7743225097656 132.4490051269531 299.4034729003906 132.4852905273438 C 299.2815246582031 132.4971618652344 299.1509094238281 132.4996032714844 298.9924011230469 132.4996032714844 L 298.8793029785156 132.4993438720703 L 298.7537231445312 132.4990844726562 C 298.7009582519531 132.4990844726562 298.6468811035156 132.4992980957031 298.5912780761719 132.4999389648438 Z"/><path class="l" d="M 302.9894104003906 127.4438171386719 C 303.0621948242188 127.502311706543 303.1347961425781 127.5604705810547 303.2065734863281 127.6179504394531 C 303.5267639160156 127.8744277954102 303.8578491210938 128.1396484375 304.1823120117188 128.415283203125 C 304.3745727539062 128.5785522460938 304.5593872070312 128.7313537597656 304.7392272949219 128.8756866455078 C 305.0721740722656 128.6682739257812 305.408447265625 128.4570617675781 305.7450866699219 128.2438812255859 L 305.7524108886719 128.2392730712891 C 305.853271484375 128.1754455566406 306.1171569824219 128.0084991455078 306.4904479980469 128.0002746582031 C 306.1606750488281 127.9254837036133 305.8218383789062 127.8479461669922 305.4847106933594 127.7634201049805 L 305.3373413085938 127.7262802124023 C 304.93701171875 127.6250534057617 304.5588684082031 127.5294418334961 304.2296447753906 127.5188522338867 C 304.0109558105469 127.5119781494141 303.8042907714844 127.4951934814453 303.6044311523438 127.4789581298828 C 303.3859558105469 127.4612197875977 303.1793823242188 127.4444427490234 302.9894104003906 127.4438171386719 M 307.1019897460938 128.1398315429688 C 307.2674255371094 128.2240905761719 307.4159240722656 128.3446044921875 307.5369262695312 128.4962615966797 C 307.7694091796875 128.7881469726562 307.8687133789062 129.1629638671875 307.809326171875 129.5246124267578 C 307.7472229003906 129.9031372070312 307.5229797363281 130.2341613769531 307.1812438964844 130.4545593261719 C 307.0557556152344 130.5360717773438 306.9304809570312 130.6178894042969 306.80517578125 130.6996765136719 C 306.3213806152344 131.0155487060547 305.8211059570312 131.3421630859375 305.30908203125 131.6522674560547 C 305.0720825195312 131.7955322265625 304.8399658203125 131.9144592285156 304.615478515625 132.0294494628906 C 304.4109191894531 132.1342315673828 304.2177124023438 132.2332000732422 304.0466918945312 132.3382415771484 L 303.9239501953125 132.4130554199219 C 303.5299987792969 132.6525726318359 303.2593383789062 132.8240966796875 303.1166076660156 133.0274047851562 C 303.1768188476562 133.1069946289062 303.2853088378906 133.2131652832031 303.3836975097656 133.3094787597656 C 303.479248046875 133.4029693603516 303.5875244140625 133.5089416503906 303.6954650878906 133.6288757324219 C 304.293701171875 134.2934875488281 304.9692687988281 134.7986755371094 305.749755859375 135.1633605957031 C 305.8443298339844 135.0095520019531 305.9357299804688 134.8554077148438 306.0232543945312 134.7020111083984 C 306.0470275878906 134.6603393554688 306.0708923339844 134.6173400878906 306.0950622558594 134.5726928710938 C 306.0144348144531 134.3615417480469 305.9872131347656 134.1312561035156 306.0196228027344 133.9049682617188 C 306.1212463378906 133.1913452148438 306.7296752929688 132.6929473876953 307.4992065429688 132.6929473876953 L 307.5226745605469 132.6930847167969 C 307.8073425292969 132.6961669921875 308.0724182128906 132.7189331054688 308.3287353515625 132.740966796875 C 308.5657043457031 132.7613220214844 308.78955078125 132.7805786132812 308.9969787597656 132.7805786132812 C 309.1026000976562 132.7805786132812 309.1964721679688 132.775634765625 309.2828979492188 132.7655944824219 C 309.9739074707031 132.6847229003906 310.3870849609375 132.5959167480469 310.7274780273438 132.3349914550781 C 311.1760864257812 131.9910736083984 311.4339904785156 131.6023254394531 311.5160217285156 131.1457824707031 C 311.5913696289062 130.72802734375 311.560791015625 130.3186950683594 311.4254760742188 129.9299926757812 C 311.4225158691406 129.9235534667969 311.4179077148438 129.9147033691406 311.4122619628906 129.9043579101562 C 311.3785705566406 129.8915710449219 311.3435363769531 129.8773803710938 311.3079528808594 129.861572265625 C 310.9996643066406 129.7250366210938 310.6866455078125 129.598876953125 310.3552856445312 129.4653167724609 C 309.838134765625 129.2568969726562 309.3034057617188 129.0413818359375 308.7730712890625 128.7778015136719 C 308.7052917480469 128.7440490722656 308.6376342773438 128.7098693847656 308.5699462890625 128.6756591796875 C 308.2172546386719 128.4974822998047 307.8841247558594 128.3291778564453 307.5741577148438 128.2526245117188 C 307.4188537597656 128.2141876220703 307.2605895996094 128.1766357421875 307.1019897460938 128.1398315429688 M 298.818115234375 128.2034301757812 C 298.6890563964844 128.4117126464844 298.4970397949219 128.5792541503906 298.2633361816406 128.6775817871094 C 298.1757202148438 128.7144622802734 298.0877990722656 128.7506408691406 297.9999084472656 128.7868194580078 C 297.8197631835938 128.8609313964844 297.6495971679688 128.9309539794922 297.4866638183594 129.0053100585938 C 297.2561340332031 129.1102294921875 297.0592041015625 129.2201843261719 296.9011840820312 129.3321533203125 C 296.5169677734375 129.6044006347656 296.1645202636719 129.9425964355469 295.8338012695312 130.2996215820312 C 296.1153259277344 130.5276794433594 296.4156494140625 130.7372741699219 296.7086181640625 130.9371032714844 C 296.9632568359375 131.1107482910156 297.2808227539062 131.2546081542969 297.6170349121094 131.4068908691406 C 297.8851013183594 131.5283203125 298.1623229980469 131.6539001464844 298.4454040527344 131.8097686767578 C 298.5369262695312 131.8602142333984 298.611083984375 131.8874206542969 298.6515502929688 131.8993835449219 C 298.6866149902344 131.899169921875 298.7214050292969 131.8990936279297 298.7562255859375 131.8990936279297 L 298.88232421875 131.8993530273438 L 298.9922180175781 131.8995971679688 C 299.1333312988281 131.8995971679688 299.2474365234375 131.8976440429688 299.3450317382812 131.8881530761719 C 299.7098083496094 131.8524475097656 300.0859680175781 131.8077697753906 300.4497680664062 131.7645874023438 C 300.5448608398438 131.7532958984375 300.6411437988281 131.7418518066406 300.7380065917969 131.7304840087891 C 300.8644409179688 131.5142822265625 301.0325622558594 131.2810211181641 301.2596740722656 131.0675048828125 C 301.4249267578125 130.9119415283203 301.5947265625 130.7710266113281 301.7672424316406 130.6408081054688 C 301.6888427734375 130.5753631591797 301.6104431152344 130.5098724365234 301.5320739746094 130.4443969726562 C 301.0549621582031 130.0458068847656 300.5615844726562 129.6336669921875 300.0740966796875 129.23876953125 C 299.9789428710938 129.1617431640625 299.8833923339844 129.0851745605469 299.7878112792969 129.0086059570312 C 299.4682312011719 128.7525482177734 299.1397094726562 128.4893188476562 298.818115234375 128.2034301757812 M 286.8575134277344 115.5018157958984 C 286.9108276367188 115.5018157958984 286.9651184082031 115.5388641357422 287.0137329101562 115.5800628662109 C 287.3199768066406 115.8377685546875 287.6199340820312 116.1033782958984 287.9241027832031 116.3637237548828 C 288.3777160644531 116.7518463134766 288.818115234375 117.1558380126953 289.2997131347656 117.5112152099609 C 289.3087158203125 117.5175628662109 289.317138671875 117.5244293212891 289.3261413574219 117.5307464599609 C 289.5027770996094 117.6593627929688 289.5996398925781 117.7299499511719 289.6803588867188 117.7299499511719 C 289.7763061523438 117.7299499511719 289.8494262695312 117.630126953125 290.0062866210938 117.4093017578125 C 290.0839233398438 117.3005218505859 290.1752624511719 117.2112884521484 290.2687072753906 117.1209869384766 C 290.3265075683594 117.0650024414062 290.3782348632812 117.0363922119141 290.4243469238281 117.0363922119141 C 290.4852294921875 117.0363922119141 290.5363464355469 117.0863189697266 290.5787048339844 117.1891021728516 C 290.6457824707031 117.3533172607422 290.6969909667969 117.5223236083984 290.7867736816406 117.6791381835938 C 290.852783203125 117.793212890625 290.7878112792969 117.9104461669922 290.6869812011719 117.9938812255859 C 290.2808837890625 118.3302459716797 290.237060546875 118.2621307373047 290.6795959472656 118.6719207763672 C 291.4257202148438 119.3636932373047 292.2130737304688 120.0074005126953 292.9893798828125 120.6643218994141 C 293.6900939941406 121.2568206787109 294.3882446289062 121.8530120849609 295.0926513671875 122.4418182373047 C 295.8229675292969 123.0517272949219 296.5607299804688 123.6532135009766 297.2931213378906 124.2615509033203 C 298.0535583496094 124.8920593261719 298.8113098144531 125.525749206543 299.5696411132812 126.1589126586914 C 299.7634582519531 126.3205032348633 299.9361267089844 126.4968719482422 300.1589660644531 126.6193771362305 C 300.18115234375 126.6119918823242 300.2033386230469 126.6040802001953 300.22607421875 126.5977401733398 C 300.8401794433594 126.4224166870117 301.4781188964844 126.3796539306641 302.1022644042969 126.2597732543945 C 302.2011413574219 126.24072265625 302.3025512695312 126.2352066040039 302.4049682617188 126.2352066040039 C 302.5459594726562 126.2352066040039 302.6889343261719 126.2456512451172 302.8299865722656 126.2456512451172 C 302.8393249511719 126.2456512451172 302.8486328125 126.24560546875 302.8579406738281 126.2455139160156 C 302.898193359375 126.2443389892578 302.9383850097656 126.2437973022461 302.9786071777344 126.2437973022461 C 303.4092712402344 126.2437973022461 303.8370361328125 126.3059234619141 304.267333984375 126.3194427490234 C 304.7764282226562 126.335823059082 305.278076171875 126.4746932983398 305.7760620117188 126.5993194580078 C 306.4689025878906 126.7730484008789 307.1690979003906 126.9161529541016 307.8624877929688 127.0877838134766 C 308.375732421875 127.2145309448242 308.8388671875 127.470100402832 309.3078002929688 127.7035140991211 C 310.1163024902344 128.1053619384766 310.9701843261719 128.3995056152344 311.7939453125 128.764404296875 C 311.9629516601562 128.8394012451172 312.2169494628906 128.8731994628906 312.2803039550781 129.0009918212891 C 312.3669128417969 129.1763000488281 312.4888916015625 129.3368377685547 312.555419921875 129.52587890625 C 312.7661437988281 130.1262969970703 312.8067932128906 130.7499389648438 312.6969604492188 131.3588104248047 C 312.5538635253906 132.1551513671875 312.1092224121094 132.7877502441406 311.4575805664062 133.2873382568359 C 310.8492431640625 133.7536315917969 310.1579895019531 133.8713684082031 309.4223937988281 133.9574584960938 C 309.2795104980469 133.9740600585938 309.1378784179688 133.9805603027344 308.9969787597656 133.9805603027344 C 308.4967956542969 133.9805603027344 308.006591796875 133.8983764648438 307.5097351074219 133.8930206298828 C 307.5062255859375 133.8929748535156 307.5027160644531 133.8929443359375 307.4992065429688 133.8929443359375 C 307.3536071777344 133.8929443359375 307.2272338867188 133.9364624023438 307.2076416015625 134.0741577148438 C 307.1918334960938 134.1845092773438 307.3011474609375 134.2600402832031 307.429443359375 134.2695465087891 C 307.6021118164062 134.2822113037109 307.5102233886719 134.4126586914062 307.4869995117188 134.4627990722656 C 307.3571166992188 134.7453308105469 307.2198181152344 135.0262603759766 307.0655822753906 135.296630859375 C 306.8760375976562 135.6287994384766 306.6753845214844 135.9546203613281 306.4652099609375 136.2735595703125 C 306.3327941894531 136.4746856689453 306.2393798828125 136.558349609375 306.0979919433594 136.558349609375 C 306.0166320800781 136.558349609375 305.9194030761719 136.5306243896484 305.789794921875 136.4816284179688 C 304.6275024414062 136.041748046875 303.6362915039062 135.3568420410156 302.8035583496094 134.4316711425781 C 302.5131225585938 134.1090087890625 302.1498107910156 133.8502502441406 301.9723510742188 133.4325561523438 C 301.8688659667969 133.1896362304688 301.8319091796875 132.9493713378906 301.9385681152344 132.6927337646484 C 302.2242431640625 132.0072937011719 302.8363037109375 131.6724853515625 303.4197998046875 131.3150024414062 C 303.8290710449219 131.0636291503906 304.27685546875 130.8740539550781 304.6882629394531 130.6253356933594 C 305.3108215332031 130.248291015625 305.9170532226562 129.8448333740234 306.5275268554688 129.4482574462891 C 306.593017578125 129.4060211181641 306.6685180664062 129.3320770263672 306.5982666015625 129.2438812255859 C 306.5727844238281 129.2119445800781 306.5462341308594 129.1999664306641 306.5190124511719 129.1999664306641 C 306.4751281738281 129.1999664306641 306.4294738769531 129.2310485839844 306.3838806152344 129.2597351074219 C 305.8568420410156 129.5934753417969 305.3282470703125 129.9240417480469 304.7975463867188 130.2514495849609 C 304.7568359375 130.2765808105469 304.7164306640625 130.2930908203125 304.6734313964844 130.2930908203125 C 304.6333312988281 130.2930908203125 304.5909729003906 130.2787170410156 304.5440673828125 130.2435607910156 C 304.1543579101562 129.9509735107422 303.7767944335938 129.6452331542969 303.4055480957031 129.3299713134766 C 302.886474609375 128.8890228271484 302.3467407226562 128.4734191894531 301.82080078125 128.0409545898438 C 301.279541015625 127.596321105957 300.7445983886719 127.144287109375 300.2075500488281 126.6943740844727 C 300.1864318847656 126.6764068603516 300.1732482910156 126.6484222412109 300.1563110351562 126.624137878418 L 300.1500244140625 126.6267776489258 L 300.1579284667969 126.6320495605469 C 300.0660400390625 126.6716690063477 299.9778442382812 126.718132019043 299.8854370117188 126.757209777832 C 299.8622131347656 126.7667083740234 299.847412109375 126.7820434570312 299.8299865722656 126.7952270507812 L 299.8289184570312 126.7952270507812 L 299.8283996582031 126.7947006225586 C 299.7835388183594 126.8136978149414 299.6363830566406 126.8611831665039 299.5713500976562 126.8876037597656 C 299.4661560058594 126.8012619018555 299.3609924316406 126.7149353027344 299.2557983398438 126.6285934448242 C 299.1858520507812 126.5710983276367 299.1158752441406 126.5136108398438 299.0458068847656 126.4562072753906 C 299.1158142089844 126.513671875 299.1858215332031 126.5711364746094 299.2557983398438 126.6285934448242 C 299.3609313964844 126.7149887084961 299.4659729003906 126.8014144897461 299.5712280273438 126.8876495361328 C 299.5712585449219 126.8876342773438 299.5713195800781 126.8876190185547 299.5713500976562 126.8876037597656 C 299.578857421875 126.8937835693359 299.5863952636719 126.8999633789062 299.5939331054688 126.9061431884766 C 299.510498046875 126.9430999755859 299.4286499023438 126.9832305908203 299.3499450683594 127.0323333740234 C 299.3246154785156 127.0428924560547 299.296630859375 127.0539932250977 299.2697143554688 127.0650939941406 C 299.2719116210938 127.0649948120117 299.2740783691406 127.0649566650391 299.2762451171875 127.0649566650391 C 299.3368530273438 127.0649566650391 299.3895263671875 127.100341796875 299.4334106445312 127.1411209106445 C 299.8775024414062 127.5546035766602 300.3580627441406 127.9247665405273 300.8291015625 128.3060607910156 C 301.5657348632812 128.9027709960938 302.2886962890625 129.5158386230469 303.0184631347656 130.1210174560547 C 303.2455444335938 130.3090209960938 303.4736633300781 130.4959411621094 303.7070922851562 130.6765594482422 C 303.8052978515625 130.7525939941406 303.7735900878906 130.7890167236328 303.6880798339844 130.8391876220703 C 303.1251220703125 131.1665954589844 302.5595703125 131.4918823242188 302.0821838378906 131.9412689208984 C 301.8709716796875 132.1398468017578 301.7289428710938 132.3917236328125 301.6143493652344 132.6573333740234 C 301.5652160644531 132.769287109375 301.5071105957031 132.8511505126953 301.3688049316406 132.866455078125 C 300.7330017089844 132.9356384277344 300.0987854003906 133.0201110839844 299.4619140625 133.0824432373047 C 299.309814453125 133.0972442626953 299.1564331054688 133.099609375 298.9922180175781 133.099609375 C 298.9154663085938 133.099609375 298.8363647460938 133.0990905761719 298.7538757324219 133.0990905761719 C 298.6918029785156 133.0990905761719 298.6278076171875 133.0993804931641 298.5615539550781 133.1004028320312 C 298.35400390625 133.0819091796875 298.097900390625 132.9884490966797 297.8660888671875 132.8606567382812 C 297.2646179199219 132.529541015625 296.6018981933594 132.3167266845703 296.0326232910156 131.9285888671875 C 295.4295654296875 131.5172271728516 294.8392028808594 131.0926666259766 294.3412170410156 130.5434722900391 C 294.173828125 130.3591766357422 294.2319030761719 130.3090209960938 294.3507385253906 130.1690673828125 C 294.9141845703125 129.5063323974609 295.4934692382812 128.8589324951172 296.2074279785156 128.3530426025391 C 296.4503479003906 128.1808929443359 296.7180480957031 128.0367126464844 296.9894714355469 127.9131469726562 C 297.2556457519531 127.7917022705078 297.5281372070312 127.6850280761719 297.7979736328125 127.5715026855469 C 297.5497741699219 127.3940734863281 297.2931213378906 127.2356491088867 297.0518188476562 127.0550537109375 C 296.7090759277344 126.7984008789062 296.3858947753906 126.5121765136719 296.0505676269531 126.2465591430664 C 295.7205200195312 125.9851837158203 295.376220703125 125.7417373657227 295.0525512695312 125.472412109375 C 294.7261657714844 125.2009811401367 294.3855895996094 124.9480438232422 294.0565795898438 124.6813735961914 C 293.814208984375 124.4859771728516 293.5596618652344 124.307487487793 293.3130493164062 124.119499206543 C 292.5790405273438 123.5597381591797 291.8576965332031 122.9851989746094 291.1484985351562 122.3943023681641 C 290.9251098632812 122.2084045410156 290.6943969726562 122.0320281982422 290.4445495605469 121.8804779052734 C 290.3916931152344 121.8486175537109 290.3488159179688 121.8314514160156 290.3126525878906 121.8314514160156 C 290.2589111328125 121.8314514160156 290.2200012207031 121.869384765625 290.1852722167969 121.9533538818359 C 290.1387939453125 122.0660400390625 290.0856323242188 122.1405334472656 290.01171875 122.1405334472656 C 289.9630126953125 122.1405334472656 289.9053344726562 122.1081848144531 289.8346557617188 122.0330963134766 C 289.7601928710938 121.9544067382812 289.6324157714844 121.9290618896484 289.5436706542969 121.8603973388672 C 289.4354553222656 121.7769775390625 289.3224182128906 121.6803436279297 289.4776611328125 121.5340576171875 C 289.7713012695312 121.2563018798828 289.7633972167969 121.1918792724609 289.4100952148438 120.7841949462891 C 288.9707336425781 120.2777862548828 288.5097351074219 119.7914276123047 287.9842834472656 119.3737335205078 C 287.8475036621094 119.2649383544922 287.7113037109375 119.1582794189453 287.5914306640625 119.0315399169922 C 287.5264587402344 118.9634246826172 287.4773559570312 118.8736419677734 287.5486450195312 118.7975921630859 C 287.580810546875 118.7635040283203 287.6212463378906 118.7494506835938 287.6631164550781 118.7494506835938 C 287.7126770019531 118.7494506835938 287.7642517089844 118.7691650390625 287.8063354492188 118.7986602783203 C 288.4923095703125 119.2813262939453 289.1724548339844 119.7713470458984 289.8610534667969 120.2503204345703 C 289.9931030273438 120.3422088623047 290.1504516601562 120.3997650146484 290.3009643554688 120.4626007080078 C 290.3106994628906 120.4666595458984 290.3196716308594 120.4684753417969 290.3279724121094 120.4684753417969 C 290.3735656738281 120.4684753417969 290.3990478515625 120.4136199951172 290.4245300292969 120.3765411376953 C 290.4852600097656 120.2881774902344 290.5567626953125 120.2313995361328 290.6451416015625 120.2313995361328 C 290.6835632324219 120.2313995361328 290.7251586914062 120.2421264648438 290.7704162597656 120.2656402587891 C 290.9108581542969 120.3385162353516 291.0260009765625 120.4467620849609 291.1929016113281 120.4879608154297 C 291.2942199707031 120.5127716064453 291.2889404296875 120.6659088134766 291.1891479492188 120.7277069091797 C 291.1015319824219 120.7815704345703 291.047607421875 120.8618316650391 290.9800415039062 120.9288787841797 C 290.9035034179688 121.0054626464844 290.8818054199219 121.08203125 291.0037841796875 121.1781463623047 C 291.6132202148438 121.6592254638672 292.1925048828125 122.1782989501953 292.7929382324219 122.6704711914062 C 293.7402648925781 123.4477844238281 294.7230224609375 124.1818008422852 295.6867370605469 124.9395904541016 C 296.075927734375 125.2458724975586 296.4497985839844 125.5711669921875 296.8379211425781 125.879020690918 C 297.3121337890625 126.2560806274414 297.7942504882812 126.6236038208008 298.2721862792969 126.9959030151367 C 298.2894287109375 127.0092468261719 298.3058776855469 127.0142364501953 298.3221435546875 127.0142364501953 C 298.34130859375 127.0142364501953 298.3602294921875 127.0073471069336 298.3799133300781 126.9990692138672 C 298.4601745605469 126.9636840820312 298.5409545898438 126.9298934936523 298.6212463378906 126.8945083618164 C 298.7194519042969 126.8506774902344 298.9079895019531 126.8628311157227 298.9037475585938 126.7788467407227 C 298.8989868164062 126.6869812011719 298.7616882324219 126.5924530029297 298.6676940917969 126.5164184570312 C 298.2230529785156 126.1541519165039 297.7810668945312 125.7897872924805 297.3501586914062 125.4101028442383 C 297.0068969726562 125.1075134277344 296.6251220703125 124.8492889404297 296.2729187011719 124.5562133789062 C 295.7522277832031 124.1231994628906 295.2479248046875 123.6701202392578 294.7272338867188 123.2376251220703 C 294.1696166992188 122.7745056152344 293.5966186523438 122.329345703125 293.0374145507812 121.8672637939453 C 292.5737609863281 121.4839019775391 292.1254272460938 121.0809783935547 291.6612854003906 120.6976013183594 C 291.0687866210938 120.2086029052734 290.5327758789062 119.6483306884766 289.8642272949219 119.2527923583984 C 289.8246459960938 119.2290191650391 289.7950439453125 119.1873168945312 289.7628479003906 119.1519317626953 C 289.7249450683594 119.1102600097656 289.6885986328125 119.0849456787109 289.6531982421875 119.0849456787109 C 289.6195068359375 119.0849456787109 289.586669921875 119.1078796386719 289.5542297363281 119.1614379882812 C 289.4793701171875 119.2855834960938 289.3928833007812 119.3634796142578 289.2815856933594 119.3634796142578 C 289.223388671875 119.3634796142578 289.1584167480469 119.3421630859375 289.0848083496094 119.2950286865234 C 288.9717712402344 119.2226867675781 288.8424072265625 119.1762237548828 288.7209777832031 119.1175994873047 C 288.6032104492188 119.0611114501953 288.5857849121094 118.9898223876953 288.675537109375 118.8863220214844 C 288.8012084960938 118.7416229248047 288.9179077148438 118.5890045166016 289.0399169921875 118.4416656494141 C 289.1185913085938 118.3471527099609 289.0779418945312 118.272705078125 289.0082092285156 118.1977081298828 C 288.6406860351562 117.8021850585938 288.3048400878906 117.3691711425781 287.8976745605469 117.0190582275391 C 287.4826354980469 116.6626129150391 287.1937561035156 116.1820526123047 286.724853515625 115.8842315673828 C 286.582275390625 115.7934112548828 286.6794128417969 115.6798553466797 286.7375183105469 115.5853424072266 C 286.7748107910156 115.5244293212891 286.8158569335938 115.5018157958984 286.8575134277344 115.5018157958984 Z M 290.2232971191406 118.0113067626953 C 290.2877502441406 117.9347381591797 290.353759765625 117.8597412109375 290.4171142578125 117.7826385498047 C 290.4313659667969 117.7657623291016 290.4393005371094 117.7483215332031 290.4430236816406 117.7314147949219 C 290.4393005371094 117.7483215332031 290.4313659667969 117.7657623291016 290.4171142578125 117.7826385498047 C 290.353759765625 117.8597412109375 290.2877502441406 117.9347381591797 290.2232971191406 118.0113067626953 Z M 289.0489196777344 118.8545837402344 C 289.0490112304688 118.8285217285156 289.06103515625 118.8017730712891 289.0869445800781 118.7754211425781 C 289.2785949707031 118.5811004638672 289.4591979980469 118.3730316162109 289.6667175292969 118.1977081298828 C 289.7744750976562 118.1063537597656 289.8663330078125 118.0023345947266 289.9566650390625 117.8967132568359 C 289.8663330078125 118.0023345947266 289.7744750976562 118.1063537597656 289.6667175292969 118.1977081298828 C 289.4591979980469 118.3730316162109 289.2785949707031 118.5811004638672 289.0869445800781 118.7754211425781 C 289.06103515625 118.8017730712891 289.0490112304688 118.8285217285156 289.0489196777344 118.8545837402344 C 289.0489196777344 118.8577880859375 289.0491027832031 118.8609771728516 289.0494384765625 118.8641510009766 C 289.0491027832031 118.8609771728516 289.0489196777344 118.8577880859375 289.0489196777344 118.8545837402344 Z M 289.4144592285156 120.2847747802734 L 289.4144592285156 120.2847747802734 C 289.4031982421875 120.2847747802734 289.390869140625 120.2859191894531 289.3797302246094 120.2859191894531 C 289.3771057128906 120.2859191894531 289.3745422363281 120.2858581542969 289.3720703125 120.2857055664062 C 289.3778686523438 120.3147430419922 289.3742065429688 120.3527679443359 289.3916015625 120.3707275390625 C 289.5547790527344 120.5455169677734 289.689453125 120.7488250732422 289.8869323730469 120.8887481689453 C 289.8877258300781 120.8893127441406 289.8885192871094 120.8898620605469 289.8892822265625 120.8903961181641 C 289.8902282714844 120.8910369873047 289.8911743164062 120.8916778564453 289.89208984375 120.8922882080078 C 289.89208984375 120.8922882080078 289.89208984375 120.8922882080078 289.89208984375 120.8923034667969 C 289.9143981933594 120.9071350097656 289.9325561523438 120.913330078125 289.9481201171875 120.9134368896484 C 289.9482421875 120.9134368896484 289.9483947753906 120.9134368896484 289.9485168457031 120.9134368896484 L 289.9485168457031 120.9134368896484 L 289.9485168457031 120.9134368896484 C 289.9485778808594 120.9134368896484 289.9486389160156 120.9134368896484 289.9486999511719 120.9134368896484 C 289.9594421386719 120.9134063720703 289.9689636230469 120.9104614257812 289.9777526855469 120.9054565429688 C 289.9779357910156 120.9053497314453 289.9781188964844 120.9052429199219 289.9783020019531 120.9051361083984 C 289.9781188964844 120.9052429199219 289.9779357910156 120.9053497314453 289.9777526855469 120.9054565429688 C 289.9689636230469 120.9104614257812 289.9594421386719 120.9134063720703 289.9486999511719 120.9134368896484 C 289.9486389160156 120.9134368896484 289.9485778808594 120.9134368896484 289.9485168457031 120.9134368896484 C 289.9483947753906 120.9134368896484 289.9482421875 120.9134368896484 289.9481201171875 120.9134368896484 C 289.9325561523438 120.913330078125 289.9143676757812 120.9071350097656 289.89208984375 120.8923034667969 C 289.89208984375 120.8922882080078 289.89208984375 120.8922882080078 289.89208984375 120.8922882080078 C 289.8911743164062 120.8916778564453 289.8902282714844 120.8910369873047 289.8892822265625 120.8903961181641 C 289.8885192871094 120.8898620605469 289.8877258300781 120.8893127441406 289.8869323730469 120.8887481689453 C 289.689453125 120.7488250732422 289.5547790527344 120.5455169677734 289.3916015625 120.3707275390625 C 289.3742065429688 120.3527679443359 289.3778686523438 120.3142242431641 289.3720703125 120.2857055664062 C 289.3745422363281 120.2858581542969 289.3771057128906 120.2859191894531 289.3797302246094 120.2859191894531 C 289.390869140625 120.2859191894531 289.4031982421875 120.2847747802734 289.4144592285156 120.2847747802734 C 289.4145202636719 120.2847747802734 289.4145812988281 120.2847747802734 289.4146423339844 120.2847747802734 C 289.4265441894531 120.2847900390625 289.4372253417969 120.2861022949219 289.4441223144531 120.2914276123047 C 289.4443054199219 120.2915802001953 289.4444885253906 120.2917327880859 289.4446716308594 120.2918701171875 C 289.4449462890625 120.2920989990234 289.4452209472656 120.2923278808594 289.4454650878906 120.2925720214844 C 289.4452209472656 120.2923278808594 289.4449462890625 120.2920989990234 289.4446716308594 120.2918701171875 C 289.4444885253906 120.2917327880859 289.4443054199219 120.2915802001953 289.4441223144531 120.2914276123047 C 289.4372253417969 120.2861022949219 289.4265441894531 120.2847900390625 289.4146423339844 120.2847747802734 C 289.4145812988281 120.2847747802734 289.4145202636719 120.2847747802734 289.4144592285156 120.2847747802734 L 289.4144592285156 120.2847747802734 Z M 290.0015258789062 121.6808624267578 C 290.2380981445312 121.3941192626953 290.4783630371094 121.1105499267578 290.7207641601562 120.8290863037109 C 290.7366027832031 120.8105926513672 290.7508850097656 120.7942352294922 290.7571716308594 120.7768096923828 C 290.7508850097656 120.7942352294922 290.7366027832031 120.8105926513672 290.7207641601562 120.8290863037109 C 290.4783630371094 121.1105499267578 290.2380981445312 121.3941192626953 290.0015258789062 121.6808624267578 Z M 290.5581359863281 121.4848480224609 C 290.55810546875 121.4699096679688 290.564208984375 121.4534149169922 290.5792236328125 121.4347839355469 C 290.5940246582031 121.4163055419922 290.6098937988281 121.4057464599609 290.6262512207031 121.4004669189453 C 290.6098937988281 121.4057464599609 290.5940246582031 121.4163055419922 290.5792236328125 121.4347839355469 C 290.564208984375 121.4534149169922 290.55810546875 121.4699096679688 290.5581359863281 121.4848480224609 C 290.5581970214844 121.5287628173828 290.6111145019531 121.5593109130859 290.6457824707031 121.5916137695312 C 290.6732177734375 121.6174926757812 290.7044067382812 121.6391448974609 290.7329406738281 121.6639556884766 C 290.7044067382812 121.6391448974609 290.6732177734375 121.6174926757812 290.6457824707031 121.5916137695312 C 290.6111145019531 121.5593109130859 290.5581970214844 121.5287628173828 290.5581359863281 121.4848480224609 Z"/></g></g><g class="h" transform="translate(-18.126 -26.205)"><path class="j" d="M 309.0477294921875 178.1702728271484 L 304.6949157714844 176.4653015136719 L 304.1012573242188 175.8716888427734 L 303.4534912109375 175.2239837646484 L 303.1962280273438 175.8788146972656 L 302.0834655761719 175.4428863525391 L 302.5999450683594 174.1243591308594 L 304.5389709472656 171.8723297119141 L 306.2558288574219 173.3319854736328 C 306.0542907714844 173.5543670654297 305.8826293945312 173.8432922363281 305.8634948730469 174.1920318603516 C 305.8462829589844 174.5090179443359 305.8651428222656 174.6739807128906 305.871337890625 174.7169952392578 L 305.90380859375 174.9425659179688 L 306.0778503417969 175.0896911621094 C 306.7976379394531 175.6981811523438 308.7483825683594 177.3670196533203 309.1261901855469 177.7764282226562 C 309.2186279296875 177.8764953613281 309.1036071777344 178.0832366943359 309.0477294921875 178.1702728271484 Z"/><path class="l" d="M 304.6046142578125 172.7156677246094 L 303.1213073730469 174.4384002685547 L 302.8609619140625 175.1030731201172 L 303.1517944335938 175.2169952392578 C 303.2398986816406 175.1741027832031 303.3338623046875 175.1417083740234 303.4320678710938 175.1212310791016 C 303.5135192871094 175.104248046875 303.5955200195312 175.095947265625 303.677001953125 175.095947265625 C 303.9919128417969 175.095947265625 304.2981567382812 175.2200927734375 304.5255126953125 175.4474182128906 L 305.0304870605469 175.9523620605469 L 307.1175842285156 176.7698669433594 C 306.6195373535156 176.3380279541016 306.0963134765625 175.8909759521484 305.6904907226562 175.5478973388672 C 305.4662475585938 175.3583374023438 305.3193054199219 175.0931243896484 305.2774658203125 174.802490234375 C 305.2644348144531 174.7120666503906 305.2454223632812 174.5083312988281 305.2643737792969 174.1591644287109 C 305.2790222167969 173.8921966552734 305.352294921875 173.6528015136719 305.4583435058594 173.4415130615234 L 304.6046142578125 172.7156677246094 M 304.4733276367188 171.0289916992188 L 307.201904296875 173.3488006591797 C 307.201904296875 173.3488006591797 306.4900512695312 173.7242584228516 306.4625854492188 174.2248840332031 C 306.447265625 174.5068817138672 306.4652099609375 174.6314849853516 306.4652099609375 174.6314849853516 C 306.4652099609375 174.6314849853516 309.081298828125 176.8430480957031 309.567138671875 177.3695220947266 C 310.053466796875 177.8960266113281 309.4847412109375 178.5904388427734 309.4847412109375 178.5904388427734 L 309.7936401367188 178.7113494873047 L 309.6589965820312 179.0540924072266 L 304.3593139648438 176.9782409667969 L 303.677001953125 176.2959747314453 L 303.5355224609375 176.6561126708984 L 301.3059692382812 175.7826995849609 L 302.0785522460938 173.8103485107422 L 304.4733276367188 171.0289916992188 Z"/></g><g class="g" transform="translate(0 -23.577)"><path class="j" d="M305.971,183.314,262.9,166.445l.385-.984,43.073,16.87c4.634,1.815,5.459.806,5.459.806C311.24,184.606,308.736,184.4,305.971,183.314Z"/><path class="l" d="M 309.7334289550781 184.1822052001953 C 308.6868286132812 184.1822052001953 307.3619689941406 183.8586578369141 305.9711303710938 183.3140106201172 L 262.8980102539062 166.4447937011719 L 263.282958984375 165.4609985351562 L 306.3561401367188 182.3307495117188 C 308.5502624511719 183.1900482177734 309.890625 183.4163360595703 310.6936645507812 183.4163360595703 C 311.5867919921875 183.4163360595703 311.8153076171875 183.1365814208984 311.8153076171875 183.1365814208984 C 311.5293273925781 183.8665466308594 310.76708984375 184.1822052001953 309.7334289550781 184.1822052001953 Z"/></g><g class="g" transform="translate(-38.213 -38.302)"><path class="j" d="M344.609,196.953c.641.251,1.2.444,1.706.6a1.47,1.47,0,0,0,.832-.816s-.552.671-3.277-.07Z"/><path class="l" d="M 343.8699645996094 196.6629943847656 C 344.8393859863281 196.9268188476562 345.5336303710938 197.0117645263672 346.0259704589844 197.0117645263672 C 346.9172973632812 197.0117645263672 347.1466369628906 196.7332153320312 347.1466369628906 196.7332153320312 C 346.99560546875 197.1192474365234 346.7025451660156 197.3811645507812 346.31494140625 197.5496215820312 C 345.8116760253906 197.3964996337891 345.2503356933594 197.2037353515625 344.6092529296875 196.9529113769531 L 343.8699645996094 196.6629943847656 Z"/></g></g></g></svg>