<svg xmlns="http://www.w3.org/2000/svg" viewBox="0 0 160.24 150.06"><defs><style>.cls-1{fill:#004a93;}.cls-1,.cls-2,.cls-3{fill-rule:evenodd;}.cls-2{fill:#e73137;}.cls-3{fill:#fff;}</style></defs><title>axa</title><g id="Livello_2" data-name="Livello 2"><g id="Livello_1-2" data-name="Livello 1"><polygon class="cls-1" points="0 0 0 150.06 160.24 150.06 160.24 0 0 0 0 0"/><polygon class="cls-2" points="87.71 81.23 97.08 81.23 158.39 0 149.01 0 87.71 81.23 87.71 81.23"/><path class="cls-3" d="M116.82,140.2a39.14,39.14,0,0,0-1.6-7.1h0L110.16,117H87.71l-4.07,5.31,3.64,10.92a56.52,56.52,0,0,0,2.83,7H77.35l-2.1-7-5.12,7H59.89l-2.22-7-5.37,7H42a7.09,7.09,0,0,0,.68-.62,38.37,38.37,0,0,0,5.68-6.29h0l6.53-8.58L52.3,117H29.91L12.4,140.2H1.54c4.13-3.58,5.24-4.69,6.72-6.73h0L41.45,89.62a16.47,16.47,0,0,0,1.23-1.85,12.12,12.12,0,0,0,1.48-3.64H55a16.55,16.55,0,0,0,.86,5.55h0l7.52,23.69,3.89-5.12L61.06,89.43a37,37,0,0,0-2.16-5.3H72a38.13,38.13,0,0,0,1.29,5.61h0l2.35,7.4,5.61-7.46a31.61,31.61,0,0,0,3.82-5.55H96.47a28.54,28.54,0,0,0-5.06,5.43h0L78.76,106.33l2.22,7L99.06,89.62c.49-.68,1-1.3,1.48-2a11.75,11.75,0,0,0,1.6-3.52h10.67a20.79,20.79,0,0,0,.93,5.24h0l13.69,43.79a30.52,30.52,0,0,0,2.83,7H116.82ZM35,110h15.3L45.7,95.91,35,110Zm31.15,12,2.41,7.71,3.94-5.12L69.82,117l-3.64,5Zm26.95-12h14.81l-4.63-14.12L93.13,110Z"/></g></g></svg>