<svg xmlns="http://www.w3.org/2000/svg" xmlns:xlink="http://www.w3.org/1999/xlink" viewBox="0 0 356.38 306.95"><defs><style>.cls-1{fill:#004899;}.cls-2{fill:none;}.cls-3{fill:#e73137;}.cls-4{fill:url(#radial-gradient);}.cls-5{fill:url(#linear-gradient);}.cls-6{fill:url(#radial-gradient-2);}.cls-7{fill:url(#linear-gradient-2);}</style><radialGradient id="radial-gradient" cx="-1345.04" cy="-1405.03" r="81.35" gradientTransform="translate(1452.95 1471.92)" gradientUnits="userSpaceOnUse"><stop offset="0" stop-color="#fff"/><stop offset="0.02" stop-color="#facfda"/><stop offset="0.05" stop-color="#f5a4b9"/><stop offset="0.08" stop-color="#f17d9a"/><stop offset="0.11" stop-color="#ee5b80"/><stop offset="0.14" stop-color="#eb3f6a"/><stop offset="0.18" stop-color="#e82758"/><stop offset="0.22" stop-color="#e6164b"/><stop offset="0.27" stop-color="#e50941"/><stop offset="0.34" stop-color="#e4023c"/><stop offset="0.5" stop-color="#e4003a"/><stop offset="0.8" stop-color="#c20831"/></radialGradient><linearGradient id="linear-gradient" x1="-1363.67" y1="-1339.63" x2="-1363.67" y2="-1430.27" gradientTransform="translate(1452.95 1471.92)" gradientUnits="userSpaceOnUse"><stop offset="0.05" stop-color="#c20831"/><stop offset="0.25" stop-color="#e4003a"/><stop offset="0.3" stop-color="#ea3d69"/><stop offset="0.35" stop-color="#f17796"/><stop offset="0.4" stop-color="#f6a8bc"/><stop offset="0.44" stop-color="#faced9"/><stop offset="0.48" stop-color="#fde9ee"/><stop offset="0.52" stop-color="#fef9fb"/><stop offset="0.55" stop-color="#fff"/><stop offset="0.7" stop-color="#e4003a"/><stop offset="0.85" stop-color="#ca0733"/><stop offset="1" stop-color="#e4003a"/></linearGradient><radialGradient id="radial-gradient-2" cx="-1345.04" cy="-1405.03" r="81.68" gradientTransform="translate(1452.95 1471.92)" gradientUnits="userSpaceOnUse"><stop offset="0" stop-color="#00b1eb"/><stop offset="0.5" stop-color="#005ca9"/><stop offset="0.8" stop-color="#14387f"/><stop offset="1" stop-color="#153d8a"/></radialGradient><linearGradient id="linear-gradient-2" x1="-2546.84" y1="-3042.41" x2="-2546.84" y2="-3133.05" gradientTransform="translate(-2458.41 -2985.44) rotate(180)" gradientUnits="userSpaceOnUse"><stop offset="0.05" stop-color="#00a6e2"/><stop offset="0.3" stop-color="#0069b4"/><stop offset="0.45" stop-color="#153d8a"/><stop offset="0.7" stop-color="#00b1eb"/><stop offset="0.75" stop-color="#00aee9"/><stop offset="0.79" stop-color="#00a4e1"/><stop offset="0.82" stop-color="#0093d4"/><stop offset="0.86" stop-color="#007bc1"/><stop offset="0.89" stop-color="#005daa"/><stop offset="0.9" stop-color="#004f9f"/><stop offset="1" stop-color="#153d8a"/></linearGradient></defs><title>europassistance</title><g id="Livello_2" data-name="Livello 2"><g id="Logo"><path class="cls-1" d="M134.76,165.83c-3.09,0-5.56-2.11-5.56-4.83s2.47-4.87,5.56-4.87,5.62,2.23,5.62,4.87-2.49,4.83-5.62,4.83"/><rect class="cls-2" width="356.38" height="306.95"/><path class="cls-3" d="M225.37,249.08a6.49,6.49,0,0,0-1.06,2.68,16.08,16.08,0,0,0-.57,3.89q0,2.16,2.85,2.16t6.39-3.18a17.7,17.7,0,0,0,4.94-6.37s1.72-.49,1.25.93a16.5,16.5,0,0,1-5.36,7.7,11.21,11.21,0,0,1-7.14,3,4.67,4.67,0,0,1-4-1.82,6.87,6.87,0,0,1-1.16-4.69q.21-4.16,4.42-10.28,4.48-6.56,8.18-6.57c2,0,2.41,2.34,2.41,3a11.77,11.77,0,0,1-2.3,6.21c-1.8,2.81-3.87,4.11-6.2,4.22A3.52,3.52,0,0,1,225.37,249.08Zm8.41-10.65a3.53,3.53,0,0,0-1.9,1.27q-5.73,6.74-5.73,7.84c0,.2.42.33,1.27.38,1.43.07,3-.95,4.68-3.09s2.48-3.93,2.48-5.57C234.58,238.56,234.32,238.28,233.78,238.43Z"/><path class="cls-3" d="M306.73,249.08a6.49,6.49,0,0,0-1.06,2.68,16,16,0,0,0-.56,3.89c0,1.44.94,2.16,2.84,2.16s3.95-1.06,6.4-3.18a17.81,17.81,0,0,0,4.94-6.37s1.72-.49,1.25.93a16.42,16.42,0,0,1-5.36,7.7,11.21,11.21,0,0,1-7.15,3,4.69,4.69,0,0,1-4-1.82,6.92,6.92,0,0,1-1.16-4.69q.22-4.16,4.41-10.28c3-4.37,5.74-6.57,8.2-6.57a2.08,2.08,0,0,1,1.91,1.16,3.57,3.57,0,0,1,.5,1.8,11.83,11.83,0,0,1-2.29,6.21c-1.81,2.81-3.88,4.11-6.22,4.22A3.52,3.52,0,0,1,306.73,249.08Zm8.42-10.65a3.57,3.57,0,0,0-1.9,1.27q-5.75,6.74-5.74,7.84c0,.2.42.33,1.27.38,1.43.07,3-.95,4.69-3.09s2.49-3.93,2.49-5.57C316,238.56,315.69,238.28,315.15,238.43Z"/><path class="cls-3" d="M265.56,240.88c-.42.05-.94-.33-1.57-1a2.64,2.64,0,0,0-1.88-1c-2.26,0-4.57,2.1-6.92,6.27q-3.13,5.55-3.13,8.67,0,3.48,2.93,3.48a10.15,10.15,0,0,0,5.74-1.91,15.92,15.92,0,0,0,4.5-4.66c.11-.2.26-.34.44-.3a1.08,1.08,0,0,1,.86,1.16c-3.24,4.93-5.93,6.33-6.3,6.56a7.85,7.85,0,0,1-4.83,1.64,5,5,0,0,1-4.33-2.08,7.18,7.18,0,0,1-1.21-4.27q0-4.06,3.64-9.88,4.2-6.72,8.89-6.74a6.45,6.45,0,0,1,2.34.69c1.35.59,2,1.31,2.1,2.15C266.87,240,266.69,240.76,265.56,240.88Z"/><path class="cls-3" d="M294.55,244.72Q298,236,301.89,236a2.71,2.71,0,0,1,3,2.37q.25,1.44-.93,1.44a.56.56,0,0,1-.56-.33c-.1-.26-.27-1-.27-1a.65.65,0,0,0-.72-.56q-1.35,0-3.45,2.87a25.25,25.25,0,0,0-3.45,6.19,19.63,19.63,0,0,0-1,6.84c0,.09.13,1.59.19,4.5,0,1-1.26,1.44-1.6,1.44-1,0-1.49-.8-1.35-2.4.33-3.73.49-6.81.49-9.28a86.41,86.41,0,0,0-.49-8.67,2,2,0,0,1,1.54-1.72,1.3,1.3,0,0,1,1.32.92,2.24,2.24,0,0,1,.23,1.25A34.27,34.27,0,0,0,294.55,244.72Z"/><path class="cls-3" d="M217.23,236.87a2.69,2.69,0,0,0-2.18-1.66,2.23,2.23,0,0,0-1.87,1.3,1.13,1.13,0,0,0,1.92,1.18c1.08,1.61,1.4,6,1.4,7.72a21.17,21.17,0,0,1-1.91,9.21C213.46,257,212,258.06,211,258c-.19,0-2.36-.18-3.76-3.09a13.37,13.37,0,0,1-.94-5.67,58.88,58.88,0,0,1,.89-8.91c.25-1.54-1.64-1.28-1.72-1.28-.55,0-1,.66-1.41,2l-.93,3.31a68,68,0,0,1-3.07,7.3c-1.84,3.79-3.27,5.68-4.31,5.68-.44,0-.64-1.2-.45-3.46.1-1.93.93-6.09,1.83-11.51.28-1.65-.34-2.12-1.18-2.12s-1.64,1.48-2,4.45c-.37,3.46-.55,6.33-.66,8.31a12.59,12.59,0,0,0,.39,3.75c.49,2,1.3,3,2.4,3q2.31,0,5.6-7c1-2.42,1.86-4.41,2.51-6-.3,4.41.18,7.16,1,9.06a7.08,7.08,0,0,0,5.82,4.43c2.45,0,4.29-2,5.61-4.65a23.55,23.55,0,0,0,2.14-10.21C218.75,243.56,218.37,238.84,217.23,236.87Z"/><path class="cls-3" d="M287.51,254.05a1.31,1.31,0,0,0-1.38,1.19c-.16.63-1.12.73-1.41.67-.83-.23-1.24-1.28-1.24-3.16a69.54,69.54,0,0,1,1.35-8.63c.22-1.09-.23-1.64-1.35-1.64-.79,0-1,.2-1.28.83a28,28,0,0,0-.87,4.92,52.21,52.21,0,0,1-5.86,7.63c-1.5,1.56-2.58,2-2.83,2-.58-.1-.77-1.9-.76-3A32,32,0,0,1,274.55,243c1.49-2.91,3.22-3.72,4.53-3.72a2.57,2.57,0,0,1,2.64,2.13,1.13,1.13,0,1,0,2.24-.27h0a4.82,4.82,0,0,0-4.88-4.11c-2.33,0-4.84,1.54-6.54,4.95a34.4,34.4,0,0,0-2.92,12.87,9.33,9.33,0,0,0,.52,3.39,2.73,2.73,0,0,0,2.45,1.87h.05c1.46-.05,2.74-.95,4.43-2.63a42.52,42.52,0,0,0,4-4.88c.19,2.69,1.06,4.32,2.58,4.86a3.25,3.25,0,0,0,4.35-1.9C288.12,255.22,288.53,254.11,287.51,254.05Z"/><path class="cls-1" d="M66.05,254h0a25,25,0,0,1,2.07-9.41h0C69.52,241.3,71,239,73,239.36h0a4.46,4.46,0,0,1,2.11-1.67h0a7,7,0,0,1,2.69-.85h0c5.4-.16,5.21,7.41,5.21,7.41.06,2.25-1.07,5.51-3.06,9.1h0c-2.39,4.3-5.06,6.73-8.12,7h0S66.34,261,66.05,254Zm7.48-10.88c-2.86,3.77-4.25,7.24-4.25,10.42h0c0,1.39.1,3.75,1.61,3.76h0c1.81,0,3.86-1.73,5.91-5.65h0c1.8-3.38,2.67-6.07,2.66-8h0c0-3.55-1.14-3.94-1.69-4h0a5,5,0,0,0-3.23,1.64h0a4.77,4.77,0,0,1-1,1.79Z"/><path class="cls-1" d="M84.57,254.52h0a52.4,52.4,0,0,1,1.59-8.16h0a42.9,42.9,0,0,1,1.7-5.68h0c.57-1.27.91-2.08,1.89-2.24h0c.49-.1,2.3.5,2.28,1.75a10,10,0,0,1-.73,2.15C89,248.6,87.82,253,87.83,255.4h0a3.52,3.52,0,0,0,.28,1.78h0c.26,0,1.35-.7,2.66-2.36h0a41.15,41.15,0,0,0,4.41-7h0c1.64-3.2,2.44-5.64,2.45-7.17h0c0-.69.46-2.71,2.3-2.9h0a1.75,1.75,0,0,1,1.92,1.92h0c0,.31-.16,1.12-.49,2.81h0a23.9,23.9,0,0,0-.47,4.62h0a23.58,23.58,0,0,0,.64,6.34h0c.45,1.38,1,1.79,1.49,1.79h0a1.63,1.63,0,0,0,1-.59h0a6.75,6.75,0,0,1,1-.82h0a.53.53,0,0,1,.64.05h0a1.82,1.82,0,0,1,.79,1.26h0a2.67,2.67,0,0,1-1.61,2.23h0a4.27,4.27,0,0,1-2.07.71h0A4.33,4.33,0,0,1,99,255.4h0a16.67,16.67,0,0,1-1.54-5.8h0c-1.49,3.08-2.48,5-3,5.85h0c-3.36,5.28-6.74,4.8-6.74,4.8C86.62,260.25,84.55,259.63,84.57,254.52Z"/><path class="cls-1" d="M136.7,256.84c-.61.7-.9.74-.94.74s-.82.37-1.61-1.88c-.22-1.06-1.76-4.87.43-12.53a15,15,0,0,0,.81-2.68c0-1.76-1.27-2-1.78-2-.87,0-1.46.68-1.9,1.6-1.39,3.26-1.73,8.49-1.73,10.17a17.46,17.46,0,0,0,1,5.67c.93,2.79,2.43,4.45,4.52,4.45.55,0,2.95-.59,2.91-2.31C138.1,256.33,137,256.5,136.7,256.84Zm-.38-23.71h0a2,2,0,0,0,1.58-.62,2.44,2.44,0,0,0,0-3.06,2,2,0,0,0-3,.18,2.13,2.13,0,0,0,0,2.77A1.84,1.84,0,0,0,136.32,233.13Z"/><path class="cls-1" d="M159,257.81a8.43,8.43,0,0,1-1.27-5.05h0c.17-2.92,1.69-6.41,4.51-10.54h0c3-4.41,5.84-6.77,8.65-6.81h0a2.66,2.66,0,0,1,2.37,1.43h0a4.16,4.16,0,0,1,.57,2.07h0a12.31,12.31,0,0,1-2.38,6.5h0c-1.84,2.9-4.09,4.48-6.66,4.47h0a4.87,4.87,0,0,1-2.52-.58h0a10.31,10.31,0,0,0-.67,2h0a15.69,15.69,0,0,0-.55,3.77h0c0,1.12.5,1.53,2.3,1.61h0c1.61,0,3.65-1,6.05-3h0a17.32,17.32,0,0,0,4.8-6.19h0a.54.54,0,0,1,.49-.32h0s2.44-.36,1.76,1.65h0a17.44,17.44,0,0,1-5.52,7.94h0a11.73,11.73,0,0,1-7.5,3.08h0a5.2,5.2,0,0,1-4.39-2Zm10-13.53c3.18-4,2-6.32,2-6.32a4.32,4.32,0,0,0-2.18,1.39c-2.57,2.5-4.82,5.57-5.46,7.32C163.37,246.67,165.8,248.24,169,244.28Z"/><path class="cls-1" d="M62.25,246.13c-.36-2.44-1.34-8.1-1.34-8.1-.18-1.86-.89-3.17-2.33-3.23a1.9,1.9,0,0,0-2.12,1.94c.11,1.89.16,3.63.16,5.21,0,5.19-.59,8.71-1.52,10.69s-1.83,2.41-3.36,2.48a4.77,4.77,0,0,1-4.13-2.34A11.57,11.57,0,0,1,46,246.49a16.66,16.66,0,0,1,2.47-8.71,1.62,1.62,0,0,0-.51-2.22,1.6,1.6,0,0,0-2.21.51h0a19.74,19.74,0,0,0-3,10.42,14.74,14.74,0,0,0,2.16,8.07,8,8,0,0,0,6.81,3.77A6.88,6.88,0,0,0,58,254a17.56,17.56,0,0,0,1.25-4.27c.13,1.4.19,2.69.19,3.86a27.52,27.52,0,0,1-2.7,12.27c-2.1,4.24-4.74,6.21-8,6.22a8,8,0,0,1-4.56-1.68c-2.07-1.5-2.64-4.34-2.75-4.75-.2-.65-.63-1.24-1.32-1.23a1.51,1.51,0,0,0-1.48,1.71c0,1.81,1,3.69,2.94,5.7a10.21,10.21,0,0,0,7.56,3.56h0c4.79,0,8.52-3.11,11-8.94a31.6,31.6,0,0,0,2.77-12.72A37.21,37.21,0,0,0,62.25,246.13Z"/><path class="cls-1" d="M157.62,237.82c-.69-.55-1.64,0-2.34.47a17.27,17.27,0,0,0-3.68,5.15c-.69,1.33-4.27,10.29-4.27,10.29-.09-.23-2-5.44-3.43-8.91a21,21,0,0,0-1.33-3.18c-1.44-2.51-2.52-1.76-3.11-1.38a1.6,1.6,0,0,0-.67,2.12,48.68,48.68,0,0,1,5.76,13.89,11.68,11.68,0,0,0,1,2.44,1.79,1.79,0,0,0,1.4,1c.67-.07.94-.52,1.36-1.11A19.71,19.71,0,0,0,149.7,256c1.36-3.21,2.73-6.4,4.08-9.61a35.37,35.37,0,0,1,2.83-5.12,5.48,5.48,0,0,1,1-1.19A1.43,1.43,0,0,0,157.62,237.82Z"/><path class="cls-1" d="M121.29,258.65c-1.67-1.93-2.69-5.69-2.75-12.31h0c0-5.68.91-13.37,3.53-23.35h0a1.66,1.66,0,0,1,2-1.19h0a1.66,1.66,0,0,1,1.18,2h0c-2.56,9.76-3.42,17.19-3.42,22.51h0c-.06,6.15,1.31,9.59,1.87,10.07h0c.37.37,1,.81,2.8,0h0a1.65,1.65,0,0,1,2.41.44h0a1.66,1.66,0,0,1-.51,2.29h0a8.22,8.22,0,0,1-3.53,1.14,3.94,3.94,0,0,1-3.61-1.6Z"/><path class="cls-1" d="M110.15,207.65c-4.44,0-8.45-1.12-10.67-2.58l2.53-6.29a15.25,15.25,0,0,0,6.65,1.75c2.74.05,4.55-1.64,4.55-3.9,0-5.32-12.47-4.07-12.86-15-.21-6.1,4.9-10.9,12.2-11a21.8,21.8,0,0,1,10.58,2.32l-2.26,6a14.18,14.18,0,0,0-6-1.7c-3.09-.06-4.39,1.73-4.2,3.8.42,4.48,13.33,4.28,13.33,15.34,0,6.25-5.22,11.28-13.87,11.28"/><path class="cls-1" d="M155.38,207.65c-4.46,0-8.43-1.12-10.69-2.58l2.57-6.29a14.91,14.91,0,0,0,6.61,1.75c2.74.05,4.54-1.64,4.54-3.9,0-5.32-12.43-4.07-12.82-15-.26-6.1,4.85-10.9,12.14-11a21.77,21.77,0,0,1,10.61,2.32l-2.29,6a13.94,13.94,0,0,0-6-1.7c-3.1-.06-4.36,1.73-4.17,3.8.38,4.48,13.28,4.28,13.28,15.34,0,6.25-5.18,11.28-13.83,11.28"/><path class="cls-1" d="M83.74,207.65c-4.43,0-8.45-1.12-10.67-2.58l2.54-6.29a15.27,15.27,0,0,0,6.66,1.75c2.72.05,4.54-1.64,4.54-3.9,0-5.32-12.47-4.07-12.86-15-.21-6.1,4.89-10.9,12.18-11a22,22,0,0,1,10.62,2.32l-2.29,6a14.22,14.22,0,0,0-6-1.7c-3.12-.06-4.4,1.73-4.22,3.8.39,4.48,13.33,4.28,13.33,15.34,0,6.25-5.21,11.28-13.87,11.28"/><path class="cls-1" d="M174,163.65,184.17,161v10.24h6.15V178h-6.15v18.46c0,2.72,1,4.09,3.26,4.18a10.67,10.67,0,0,0,2.89-.41v6.39a17.34,17.34,0,0,1-5.77,1c-7.4,0-10.6-4.84-10.6-10.36V163.65"/><path class="cls-1" d="M209.39,207.72c-9.82,0-15.43-3.85-15.43-11.29,0-9.22,8.88-12,19.06-13V182c0-3.69-2-4.75-5.53-4.75-4.16,0-9.24,2.28-9.24,2.28l-1.56-6.35a30,30,0,0,1,12.64-2.62c7.67,0,13.88,3.38,13.88,13.09v20.56c-2.8,1.92-8,3.5-13.82,3.5M213,188.26c-5.88.6-8.89,2.73-8.89,7.77,0,4.17,2.44,6,5.74,6a5.84,5.84,0,0,0,3.15-.74Z"/><path class="cls-1" d="M248.07,207.06V182c0-2.52-1.1-5-5.21-5a9.73,9.73,0,0,0-3.38.72v29.3H229.24V173.61a34.85,34.85,0,0,1,13.87-3c11.21,0,15.23,4.88,15.23,11.37v25.12H248.07"/><path class="cls-1" d="M305.91,170.57c-9.91,0-16,7.26-16,18.48,0,11.41,6.5,18.67,17,18.67a28.28,28.28,0,0,0,12-2.42v-7.42a24.18,24.18,0,0,1-10.82,2.73c-5,0-6.72-2.58-7.48-7.81l19.82-3.09c.46-12.08-4.6-19.14-14.57-19.14M300,187.73c-.32-7.39,1.41-11,5.48-11,3.63,0,5.71,2.77,5.71,9.17Z"/><path class="cls-1" d="M279.48,207.72c-9.35,0-16.19-6.65-16.19-18.67s7.36-18.48,16.12-18.48c4.55,0,7.89,1.26,9.63,2.59l-2.33,5.73A7.5,7.5,0,0,0,282,177.5c-4.93,0-8.39,4.1-8.39,11.43s3.82,11.41,8.32,11.41a7.16,7.16,0,0,0,4.76-1.45l2.4,6.26c-1.67,1.45-5.65,2.57-9.63,2.57"/><path class="cls-1" d="M55,207.72c-9.84,0-15.45-3.84-15.45-11.29,0-9.22,8.88-12,19.08-13V182c0-3.69-2-4.75-5.52-4.75-4.18,0-9.25,2.28-9.25,2.28l-1.54-6.35a29.86,29.86,0,0,1,12.61-2.62c7.68,0,13.92,3.38,13.92,13.09v20.56c-2.84,1.92-8,3.5-13.85,3.5m3.63-19.46c-5.9.6-8.9,2.73-8.9,7.77,0,4.17,2.43,6,5.76,6a5.9,5.9,0,0,0,3.14-.74Z"/><rect class="cls-1" x="129.67" y="171.24" width="10.23" height="35.82"/><path class="cls-1" d="M245.71,107c-10.37,0-15.43,3.7-15.43,12.56v24.87H241V119c0-2.65,1.41-4.62,5-4.86a15.45,15.45,0,0,1,2.35.05l1.25-6.93a30.85,30.85,0,0,0-3.87-.25"/><path class="cls-1" d="M208.6,145.11c-10.36,0-15.45-3.87-15.45-12.74V107.66H203.8v25.46c0,2.65,1.44,4.83,5.07,4.83a9.26,9.26,0,0,0,4.43-.88V107.66H224v34a39.56,39.56,0,0,1-15.37,3.41"/><path class="cls-1" d="M266,145.11c-10.64,0-16.21-8.11-16.21-19.09s5.57-19,16.14-19c10.75,0,16.31,8,16.31,19s-5.56,19.09-16.24,19.09m0-31.52c-4.68,0-5.65,5.73-5.65,12.3s1,12,5.65,12,5.68-5.37,5.68-12S270.68,113.59,266,113.59Z"/><path class="cls-1" d="M303.56,144.91a20.42,20.42,0,0,1-5.34-.61v12.21H287.57v-46.8c3.15-1.56,7.5-2.71,14.07-2.71,11,0,18.09,6.44,18.09,18.82,0,11.79-6.64,19.09-16.17,19.09m-2-31.67a8.4,8.4,0,0,0-3.3.55v24.36a7.62,7.62,0,0,0,2.79.48c5.66,0,8.18-4.42,8.18-12.68S307.16,113.24,301.52,113.24Z"/><path class="cls-1" d="M173.22,107c-10.43,0-16.66,7.4-16.66,19,0,12.52,6.79,19.15,17.78,19.15a30,30,0,0,0,12.39-2.45V135a25.52,25.52,0,0,1-11.2,2.78c-5.26,0-7.19-2.71-7.93-8.11l20.77-3.08c.51-12.44-4.77-19.63-15.15-19.63M167,124.55c-.35-7.57,1.57-11.31,5.87-11.31,3.76,0,5.91,2.9,5.91,9.41Z"/><path class="cls-4" d="M107.24,66.19c0,18.8-36.18,38.94-36.18,57.73,0,23,45.75,14.81,60.65,9.14,4.07-5.63,12.49-29.73,8.3-52.69-3.59-23.11-19.09-40.74-44.08-42.86-11.19-1.2-21.42.73-25.91,3.57a5.29,5.29,0,0,0-2.64,4.79C86.7,44.79,107.24,49.39,107.24,66.19Z"/><path class="cls-5" d="M109.82,64.47C109.82,46.1,89,39.89,70,41.08a5.29,5.29,0,0,0-2.64,4.79c19.32-1.08,39.86,3.52,39.86,20.32,0,18.8-36.18,38.94-36.18,57.73a12.74,12.74,0,0,0,2.33,7.7,15.92,15.92,0,0,1-1.18-6.24C72.21,104.83,109.82,87.67,109.82,64.47Z"/><path class="cls-6" d="M71.06,123.92c0-18.79,36.18-38.93,36.18-57.73,0-23-45.76-14.81-60.64-9.14-4.07,5.63-12.5,29.73-8.31,52.69,3.6,23.11,19.09,40.74,44.09,42.86,11.18,1.2,21.42-.73,25.9-3.57a5.29,5.29,0,0,0,2.64-4.78C91.6,145.33,71.06,140.72,71.06,123.92Z"/><path class="cls-7" d="M68.48,125.64c0,18.37,20.8,24.59,39.8,23.39a5.29,5.29,0,0,0,2.64-4.78c-19.32,1.08-39.86-3.53-39.86-20.33,0-18.79,36.18-38.93,36.18-57.73a12.8,12.8,0,0,0-2.32-7.7,16.1,16.1,0,0,1,1.18,6.24C106.1,85.28,68.48,102.44,68.48,125.64Z"/></g></g></svg>