<?xml version="1.0" encoding="utf-8"?>
<!-- Generator: Adobe Illustrator 23.1.1, SVG Export Plug-In . SVG Version: 6.00 Build 0)  -->
<svg version="1.1" xmlns="http://www.w3.org/2000/svg" xmlns:xlink="http://www.w3.org/1999/xlink" x="0px" y="0px"
	 viewBox="0 0 1656.9 469" style="enable-background:new 0 0 1656.9 469;" xml:space="preserve">
<style type="text/css">
	.st0{fill:none;}
	.st1{fill:#C0BFC2;}
	.st2{fill:#D2D1D4;}
	.st3{display:none;}
	.st4{display:inline;fill:#FFFFFF;}
	.st5{fill:#CCCCCC;}
	.st6{fill:#76B9DD;}
	.st7{fill:#FFFFFF;}
	.st8{fill:#2B3278;stroke:#FFFFFF;stroke-miterlimit:10;}
	.st9{fill:#0B7AB7;}
	.st10{fill:#A5D5EF;}
	.st11{fill:#2B3278;}
	.st12{fill:#F2F2F2;}
	.st13{fill:#80B4E2;}
	.st14{fill:url(#SVGID_1_);}
	.st15{fill:url(#SVGID_2_);}
	.st16{fill:url(#SVGID_3_);}
	.st17{fill:url(#SVGID_4_);}
	.st18{fill:url(#SVGID_5_);}
	.st19{fill:#161647;}
	.st20{fill:#036089;}
	.st21{fill:#99C5E4;}
	.st22{fill:#008EED;}
	.st23{fill:#67A9D7;}
	.st24{fill:#0477B7;}
	.st25{fill:#67A9D7;stroke:#FFFFFF;stroke-width:3;stroke-miterlimit:10;}
	.st26{clip-path:url(#SVGID_7_);}
	.st27{fill:#E2AE83;}
	.st28{fill:#464A7F;}
	.st29{fill:#EDB888;}
	.st30{fill:#121841;}
	.st31{fill:#F6F5FA;}
	.st32{fill:#2F499F;}
	.st33{fill:#6C5D64;}
	.st34{fill:#E1E1E9;}
	.st35{fill:#1D1D1E;}
	.st36{fill:#333333;}
	.st37{clip-path:url(#SVGID_9_);}
	.st38{fill:#363A68;}
	.st39{fill:#EAEAEA;}
	.st40{fill:#73C8F0;}
	.st41{fill:#1771E6;}
	.st42{clip-path:url(#SVGID_11_);}
	.st43{fill:#EDEDED;}
	.st44{fill:#303030;}
	.st45{fill:#EACCB0;}
	.st46{fill:#F2D4B6;}
	.st47{fill:#F5F5F5;}
	.st48{fill:#E0E0E0;}
	.st49{clip-path:url(#SVGID_13_);}
	.st50{fill:#C69A81;}
	.st51{fill:#5DB9F4;}
	.st52{opacity:0.3;}
	.st53{opacity:0.26;}
	.st54{fill:#436DC9;}
	.st55{fill:#172866;}
	.st56{fill:#D1A385;}
	.st57{fill:#3D302C;}
	.st58{fill:url(#XMLID_3_);}
	.st59{fill:url(#XMLID_4_);}
	.st60{opacity:0.16;fill:#67A9D7;}
	.st61{fill:#84B4D3;}
	.st62{fill:#F7C99A;}
	.st63{fill:#5B61D3;}
	.st64{fill:#EFF2F7;}
	.st65{fill:#FFB19D;}
	.st66{fill:#B3B3B3;}
	.st67{fill:#808080;}
	.st68{fill:#524F63;}
	.st69{fill:none;stroke:#524F63;stroke-miterlimit:10;}
	.st70{fill:#BCBACE;}
	.st71{fill:#E0E4ED;}
	.st72{fill:#F2DBC7;}
	.st73{fill:#368EBF;}
	.st74{fill:#1B235E;}
</style>
<pattern  x="266.9" y="1826" width="34.3" height="34.3" patternUnits="userSpaceOnUse" id="New_Pattern_Swatch_11" viewBox="0 -34.3 34.3 34.3" style="overflow:visible;">
	<g>
		<rect id="XMLID_40_" y="-34.3" class="st0" width="34.3" height="34.3"/>
		<g id="XMLID_8_">
			<rect id="XMLID_39_" x="0" y="-34.3" class="st1" width="34.3" height="34.3"/>
		</g>
	</g>
</pattern>
<pattern  x="266.9" y="1826" width="34.3" height="34.3" patternUnits="userSpaceOnUse" id="New_Pattern_Swatch_45" viewBox="0 -34.3 34.3 34.3" style="overflow:visible;">
	<g id="XMLID_904_">
		<rect id="XMLID_909_" y="-34.3" class="st0" width="34.3" height="34.3"/>
		<g id="XMLID_905_">
			<rect id="XMLID_908_" x="0" y="-34.3" class="st2" width="34.3" height="34.3"/>
		</g>
	</g>
</pattern>
<g id="Livello_1" class="st3">
	<rect x="-1150.1" y="-951" class="st4" width="1920" height="2437"/>
</g>
<g id="BiancoSfondo">
</g>
<g id="Footer" class="st3">
</g>
<g id="HEADER">
	<g>
		<g>
			<rect id="XMLID_303_" x="1365.9" y="158.1" class="st5" width="291" height="15"/>
			<g id="XMLID_299_">
				<rect id="XMLID_302_" x="1398.7" y="63" class="st6" width="30.8" height="95.2"/>
				<rect id="XMLID_301_" x="1405.3" y="70.2" class="st7" width="17.5" height="54.1"/>
				<path id="XMLID_300_" class="st8" d="M1420.6,141.1c0,3.6-3,6.6-6.6,6.6c-3.6,0-6.6-3-6.6-6.6c0-3.6,3-6.6,6.6-6.6
					C1417.7,134.5,1420.6,137.5,1420.6,141.1z"/>
			</g>
			<g id="XMLID_295_">
				<rect id="XMLID_298_" x="1429.4" y="63" class="st9" width="30.8" height="95.2"/>
				<rect id="XMLID_297_" x="1436.1" y="70.2" class="st7" width="17.5" height="54.1"/>
				<path id="XMLID_296_" class="st8" d="M1451.4,141.1c0,3.6-3,6.6-6.6,6.6c-3.6,0-6.6-3-6.6-6.6c0-3.6,3-6.6,6.6-6.6
					C1448.4,134.5,1451.4,137.5,1451.4,141.1z"/>
			</g>
			<g id="XMLID_291_">
				<rect id="XMLID_294_" x="1460.2" y="63" class="st6" width="30.8" height="95.2"/>
				<rect id="XMLID_293_" x="1466.8" y="70.2" class="st7" width="17.5" height="54.1"/>
				<path id="XMLID_292_" class="st8" d="M1482.2,141.1c0,3.6-3,6.6-6.6,6.6c-3.6,0-6.6-3-6.6-6.6c0-3.6,3-6.6,6.6-6.6
					C1479.2,134.5,1482.2,137.5,1482.2,141.1z"/>
			</g>
			<g id="XMLID_287_">
				<rect id="XMLID_290_" x="1491" y="63" class="st10" width="30.8" height="95.2"/>
				<rect id="XMLID_289_" x="1497.6" y="70.2" class="st7" width="17.5" height="54.1"/>
				<path id="XMLID_288_" class="st8" d="M1512.9,141.1c0,3.6-3,6.6-6.6,6.6c-3.6,0-6.6-3-6.6-6.6c0-3.6,3-6.6,6.6-6.6
					C1510,134.5,1512.9,137.5,1512.9,141.1z"/>
			</g>
			<g id="XMLID_283_">
				<rect id="XMLID_286_" x="1521.7" y="63" class="st9" width="30.8" height="95.2"/>
				<rect id="XMLID_285_" x="1528.4" y="70.2" class="st7" width="17.5" height="54.1"/>
				<path id="XMLID_284_" class="st8" d="M1543.7,141.1c0,3.6-3,6.6-6.6,6.6c-3.6,0-6.6-3-6.6-6.6c0-3.6,3-6.6,6.6-6.6
					C1540.7,134.5,1543.7,137.5,1543.7,141.1z"/>
			</g>
			<g id="XMLID_280_">
				<path id="XMLID_282_" class="st11" d="M1631.6,83.4c0,0-8.2,6.2-14.1,16.6c-1.4-11.9-6.5-20.8-6.5-20.8s-5.2,8.9-6.5,20.8
					c-5.9-10.4-14.1-16.6-14.1-16.6s-1.7,13.6,4,27c5.7,13.4,16.7,21.7,16.7,21.7s10.9-8.2,16.7-21.7
					C1633.3,97,1631.6,83.4,1631.6,83.4z"/>
				<polygon id="XMLID_281_" class="st12" points="1624.4,158.2 1597.5,158.2 1592.8,118.7 1629.1,118.7 				"/>
			</g>
		</g>
		<path class="st12" d="M1073.2,238.6c-23.2,1.7-46.3,4-69,6.8c-57.1,7.2-113.6,17.9-170,29.1c-77.9,15.5-157.6,25-236.8,30.5
			c-63.2,4.4-126.7,5.5-190,1.7c-2.4-0.1-4.8-0.3-7.2-0.4c-12.2-0.8-24.3-1.8-36.5-2.9c-1.2-0.1-2.4-0.2-3.6-0.3
			c-68-6.1-133.8-25-200-40.8c-46.6-11.1-121.6-32.9-151.8,20.8c-26,46.4,13.5,97.3,52.3,120.6c40.7,24.3,88.6,33.9,134.6,42.7
			c77.1,14.9,157.2,19.5,235.6,21.8c79.6,2.3,159.4-0.1,238.5-9.8c42.6-5.2,85-12.5,126.8-22.2c12.4-2.9,24.8-6,37.1-9.3
			c27.7-7.5,55-16.2,81.8-26.4c71-26.9,135.8-64,209.1-85.6c54.8-16.2,111-27.9,167.8-34.1c56.6-6.2,110.9-4.8,167.9,0.2
			c-24-9-40.6-13.7-54-17C1294.1,236.2,1187.8,230.4,1073.2,238.6z"/>
		<g>
			<path class="st12" d="M1392.8,299.4c13.4-1.5,26.9-2.1,40.6-1.9c20.1,0.4,42,0.4,61.5,5.8c6.1,1.7,12,4.1,17.2,7.7
				c8.5,5.9,15,14.9,17.6,25c1.1,4.3,1.5,8.9,0.6,13.3c-1.4,6.4-8.3,15.9-15.8,12.2c-4.2-2.1-4.8-7.7-6-12.2
				c-2.7-10.1-11.7-18.1-21.8-20.3c-11.4-2.5-23,2-34,5.9c-38.5,13.8-77.6,25.5-118.7,17.3c-20.4-4-40.6-12.1-59.4-20.9
				c0.5,0.3,3.4-1.3,3.9-1.5c3.7-1.4,7.3-2.8,11-4.1c12-4.3,24-8.4,36.2-12.1C1347.8,306.8,1370.1,301.9,1392.8,299.4z"/>
			<circle class="st12" cx="1480.9" cy="350.5" r="8.3"/>
		</g>
		<g>
			<g>
				<rect x="162.4" y="76.8" class="st13" width="402.1" height="65.2"/>
				<g>
					<circle class="st13" cx="127.5" cy="108.1" r="91.7"/>
					<circle class="st7" cx="127.5" cy="109.2" r="85"/>
					<g>
						
							<pattern  id="SVGID_1_" xlink:href="#New_Pattern_Swatch_11" patternTransform="matrix(0.625 0 0 0.625 -2987.9272 -3207.6025)">
						</pattern>
						<path class="st14" d="M91.8,172l1.2-0.7l34-19.7l0,0l0.2,0.1l3.4-2l0-1.9l0,0l-3.1-1.8c-0.1,0-0.2,0.1-0.3,0.1l-3-1.7v-2.2
							l2.7-1.6v0l0.2,0.1l3.4-2l0-1.9l0,0l-3.1-1.8c-0.1,0-0.2,0.1-0.3,0.1L75,105.3c0,0,0,0,0,0l0.3,0.2v-0.8l-3.8-2.2l-3.7,2.1
							v0.8l0,0l-33.7,19.3l0,0l-1.5,0.8v12.3l4.8,2.7v0.5l2,1.2l0.4-0.3l1.2,0.7v0.5l2,1.2l0.4-0.3l15.5,8.9v0.5l2,1.2l0.4-0.3v0
							l18.5,10.7v0.5l2,1.2l0.4-0.3l1.2,0.7v0.5l2,1.2l0.4-0.3L91.8,172z"/>
						
							<pattern  id="SVGID_2_" xlink:href="#New_Pattern_Swatch_11" patternTransform="matrix(0.625 0 0 0.625 -2987.9272 -3207.6025)">
						</pattern>
						<path class="st15" d="M73.1,89.7l12.5,7.1l0.3-0.2l10.2,5.8l0.8-0.5l23.2-13.5l0,0l0.2,0.1l2.3-1.3l0-1.3l0,0l-2.1-1.2
							c-0.1,0-0.1,0.1-0.2,0.1l-2-1.2v-1.5l1.9-1.1v0l0.2,0.1l2.3-1.3l0-1.3l0,0l-2.1-1.2c-0.1,0-0.2,0.1-0.2,0.1L99,65.4v-0.5
							l-2.6-1.5l-2.5,1.4v0.6l0,0l-24,13.8v8.4l3.2,1.8V89.7z"/>
						
							<pattern  id="SVGID_3_" xlink:href="#New_Pattern_Swatch_11" patternTransform="matrix(0.625 0 0 0.625 -2987.9272 -3207.6025)">
						</pattern>
						<path class="st16" d="M210.5,108C210.5,108,210.4,108,210.5,108c-0.2-0.2-0.3-0.3-0.5-0.4c-0.7-2.6-2.8-5.1-6.2-7.1
							c-8.6-5-22.6-5-31.1,0c-3.4,2-5.4,4.5-6.1,7.1c-0.2,0.1-0.3,0.3-0.5,0.4c0,0,0,0,0,0c-1,0.8-1.9,1.9-2.5,3
							c-0.6,0.9-1,1.8-1.2,2.7c-0.9,2.4-1.1,5-1.1,7.2c0,4.1,2.7,8.1,8,11.2c10.6,6.2,27.9,6.1,38.4-0.1c5.3-3.1,7.9-7.2,7.9-11.2
							C215.4,116.7,214.7,111.4,210.5,108z"/>
						
							<pattern  id="SVGID_4_" xlink:href="#New_Pattern_Swatch_11" patternTransform="matrix(0.625 0 0 0.625 -2987.9272 -3207.6025)">
						</pattern>
						<path class="st17" d="M192.1,150.1L192.1,150.1L192.1,150.1c-0.2-0.2-0.4-0.3-0.6-0.4l-8.9-5.1c-0.6-1.1-1.5-2-2.6-2.5
							l-10.7-6.2c-0.3-0.2-0.6-0.4-0.9-0.5l-0.1,0v0c-0.8-0.3-1.6-0.5-2.6-0.5l-8.6-4.9c-0.3-0.2-0.6-0.4-0.9-0.5l-0.1,0v0
							c-2.1-0.9-5.1-0.6-8.3,1.3c-6.4,3.7-11.7,12.1-11.7,18.5c0,3.2,1.3,5.4,3.5,6.3l6.9,4l-36.3,21.1c-0.7-0.3-1.4-0.3-1.9,0l0,0
							l-17,9.8l0,0c-0.4,0.3-0.7,0.9-0.7,1.7c0,1.9,1.5,4.2,3.4,5.3c0.9,0.5,1.8,0.6,2.4,0.4l0,0l0,0c0.1,0,0.2-0.1,0.3-0.2
							l16.7-9.6c0.5-0.3,0.8-0.8,0.8-1.5l36.6-21.2c0.8,0.4,1.5,0.4,2.1,0.1v0l0.1-0.1c0,0,0.1,0,0.1,0l0.7-0.4l8.5,4.9v-0.1
							c0.8,0.4,1.8,0.6,2.8,0.6l8.5,4.9c0.4,0.3,0.7,0.5,1.2,0.7l0.2,0.1v0c0.9,0.4,2,0.5,3.3,0.3c1.8,0.3,3.9-0.2,6.3-1.6
							c5.9-3.4,10.7-11.1,10.7-17c0-1.3-0.2-2.4-0.7-3.3C194.1,152.3,193.3,150.9,192.1,150.1z"/>
						
							<pattern  id="SVGID_5_" xlink:href="#New_Pattern_Swatch_11" patternTransform="matrix(0.3655 0 0 0.3655 -5029.2168 -5703.4502)">
						</pattern>
						<path class="st18" d="M85.7,44.8c-0.7,0.9-1,1.8-1.1,2.8h0c0,0,0,0.1,0,0.1c0,0.1,0,0.2,0,0.3c0.2,6.6,5.6,11.9,12.3,11.9
							c6.6,0,12-5.3,12.3-11.9c0-0.1,0-0.2,0-0.3c0,0,0-0.1,0-0.1h0c0-1.1-0.5-2.1-1.3-3.1c0,0,0-0.1,0-0.1l-9.4-33.5L124,28.1v9.2
							l2.3,1.4v3.6v39.5v11.4c-3.5,0.5-6.8,1.5-9.6,3.1c-3.7,2.2-5.6,5-5.7,7.9h0v1.8h0.1c-0.5,3.9,1.4,8.1,5.7,10.6
							c7.6,4.4,20.1,4.4,27.7,0c4.3-2.5,6.1-6.7,5.6-10.6h0.1V104h0c-0.1-2.8-2.1-5.6-5.7-7.7c-2.7-1.6-6-2.6-9.5-3V42.5v-3.6
							l0.3-0.2v0l1-0.6l1-0.6l0-2l26.8,12.6l-9.9,35.5c-0.7,0.9-1,1.8-1.1,2.8h0c0,0,0,0.1,0,0.1c0,0.1,0,0.2,0,0.3
							c0.2,6.6,5.6,11.9,12.3,11.9c6.6,0,12-5.3,12.3-11.9c0-0.1,0-0.2,0-0.3c0,0,0-0.1,0-0.1h0c0-1.1-0.5-2.1-1.3-3.1
							c0,0,0-0.1,0-0.1l-9.8-35.2l1.3-0.8l0-2.5l-30.6-17.6l0-2.3l0,0l0-5.6l-2.4-1.4c0.1-0.1,0.2-0.1,0.3-0.2c0.4-0.3,0.7-0.6,1-1
							c0.3-0.4,0.5-0.7,0.8-1.1c0.2-0.4,0.4-0.8,0.5-1.3c0.2-0.7,0.3-1.4,0.3-2.1v0l0,0v0c0-0.3,0-0.6-0.1-0.8c0,0,0,0,0-0.1
							c0-0.3-0.1-0.5-0.1-0.8c0,0,0,0,0,0l0,0c-0.8-3.1-3.5-5.4-6.9-5.4c-3.3,0-6.1,2.3-6.9,5.4v0v0c-0.1,0.3-0.1,0.5-0.1,0.8
							c0,0,0,0,0,0.1c0,0.3-0.1,0.6-0.1,0.8v0l0,0v0c0,0.7,0.1,1.4,0.3,2.1c0.1,0.4,0.3,0.9,0.5,1.3c0.2,0.4,0.5,0.8,0.8,1.1
							s0.6,0.7,1,1c0.1,0.1,0.2,0.2,0.3,0.2l-2.4,1.4v0.3L96.6,3.8L94,5.2l30,17.2v0L94,5.2v2.5l1.7,1.2c0,0,0,0,0,0L85.7,44.8z
							 M134.9,28.7L134.9,28.7l0.3,0.2v0L134.9,28.7z M174.8,81.8c-0.2-0.1-0.4-0.3-0.7-0.4c-4.8-2.8-12.6-2.8-17.4,0
							c-0.3,0.2-0.6,0.4-0.8,0.5l9.3-33.3l0,0l0.2-0.1L174.8,81.8z M165.2,46.1L165.2,46.1l-27.9-16v0L165.2,46.1z M135.2,25.9
							L135.2,25.9L135.2,25.9L135.2,25.9L135.2,25.9L135.2,25.9z M130.6,23.1L130.6,23.1L130.6,23.1L130.6,23.1z M97,9.8l9.3,33.2
							c-0.2-0.1-0.4-0.3-0.7-0.4c-4.8-2.8-12.6-2.8-17.4,0c-0.3,0.2-0.6,0.4-0.8,0.5l9.4-33.5L97,9.8z"/>
					</g>
					<g>
						<g>
							<polygon class="st19" points="130.6,145.8 130.6,144.5 33.8,133.3 93,167.6 							"/>
							<polygon class="st20" points="130.6,144.5 71.5,110.4 32.6,132.7 91.8,166.8 							"/>
							<polygon class="st21" points="124.2,144.4 89.3,164.5 89.3,153.5 124.2,133.4 							"/>
							<polygon class="st19" points="93,167.6 91.8,168.3 33.8,122.5 93,156.6 							"/>
							<polygon class="st19" points="130.6,135 130.6,133.7 33.8,122.5 93,156.6 							"/>
							<polygon class="st22" points="91.8,168.3 32.6,134.2 32.6,121.9 91.8,156 							"/>
							<polygon class="st22" points="91.8,168.3 32.6,134.2 32.6,121.9 91.8,156 							"/>
							<g>
								<polygon class="st23" points="85.5,165.2 83.5,164 83.5,151.7 84,151.5 86,152.6 86,164.9 								"/>
								<polygon class="st22" points="86,164.9 85.5,165.2 85.5,152.9 86,152.6 								"/>
							</g>
							<g>
								<polygon class="st23" points="81.9,163.1 79.9,161.9 79.9,149.6 80.3,149.3 82.3,150.5 82.3,162.8 								"/>
								<polygon class="st22" points="82.3,162.8 81.9,163.1 81.9,150.8 82.3,150.5 								"/>
							</g>
							<g>
								<polygon class="st23" points="43.1,140.7 41.1,139.5 41.1,127.2 41.5,126.9 43.5,128.1 43.5,140.4 								"/>
								<polygon class="st22" points="43.5,140.4 43.1,140.7 43.1,128.4 43.5,128.1 								"/>
							</g>
							<g>
								<polygon class="st23" points="39.4,138.6 37.4,137.4 37.4,125.1 37.8,124.8 39.9,126 39.9,138.3 								"/>
								<polygon class="st22" points="39.9,138.3 39.4,138.6 39.4,126.3 39.9,126 								"/>
							</g>
							<g>
								<polygon class="st23" points="61,151 59,149.9 59,137.5 59.4,137.3 61.4,138.5 61.4,150.8 								"/>
								<polygon class="st22" points="61.4,150.8 61,151 61,138.7 61.4,138.5 								"/>
							</g>
							<polygon class="st11" points="130.6,133.7 71.5,99.6 32.6,121.9 91.8,156 							"/>
							<g>
								<path class="st22" d="M91.5,151l-0.1-0.1l-49.6-28.6V122l30.5-17.2l0.1,0.1l49.6,28.3v0.3L91.5,151z M42.8,122.3l48.7,28.1
									l29.5-16.9l-48.7-28.1L42.8,122.3z"/>
							</g>
							<polygon class="st22" points="93.2,155.1 34.1,121 32.6,121.9 91.8,156 							"/>
							<g>
								<path class="st23" d="M91.5,150.7l-0.1-0.1L41.8,122l30.5-17.5l0.1,0.1l49.6,28.6L91.5,150.7z M42.8,122l48.7,28.1
									l29.5-16.9l-48.7-28.1L42.8,122z"/>
							</g>
							<g>
								<polygon class="st22" points="49.8,123.5 74.6,109.3 74.6,109.1 49.3,123 49.3,123.2 								"/>
								<polygon class="st23" points="49.8,123.2 74.6,109.1 74.1,108.8 49.3,123 								"/>
							</g>
							<g>
								<polygon class="st22" points="62.7,130.8 87.4,116.6 87.4,116.4 62.2,130.3 62.2,130.6 								"/>
								<polygon class="st23" points="62.7,130.6 87.4,116.4 87,116.1 62.2,130.3 								"/>
							</g>
							<g>
								<path class="st24" d="M127.5,131.9c-0.2,0.1-1.8,1.6-1.8,1.6s0-0.2,0,0.4c0,0.6,0.4,1.2,1.2,1.6c0.1,0,0.2,0.1,0.2,0.1
									l3.4-2v-0.3L127.5,131.9z"/>
								<path class="st23" d="M127.5,131.6c-0.2,0.1-0.4,0.2-0.6,0.3c-1.6,0.9-1.6,2.4,0,3.3c0.1,0,0.2,0.1,0.2,0.1l3.4-2
									L127.5,131.6z"/>
								<g>
									<polygon class="st22" points="130.6,135.2 127.2,137.2 127.2,135.3 130.6,133.3 									"/>
								</g>
								<g>
									<polygon class="st24" points="127,137 127.2,137.2 127.2,135.6 127,135.5 									"/>
								</g>
							</g>
							<g>
								<path class="st24" d="M127.5,142.7c-0.2,0.1-1.8,1.6-1.8,1.6s0-0.2,0,0.4c0,0.6,0.4,1.2,1.2,1.6c0.1,0,0.2,0.1,0.2,0.1
									l3.4-2v-0.3L127.5,142.7z"/>
								<path class="st23" d="M127.5,142.4c-0.2,0.1-0.4,0.2-0.6,0.3c-1.6,0.9-1.6,2.4,0,3.3c0.1,0,0.2,0.1,0.2,0.1l3.4-2
									L127.5,142.4z"/>
								<g>
									<polygon class="st22" points="130.6,146 127.2,148 127.2,146.1 130.6,144.2 									"/>
								</g>
								<g>
									<polygon class="st24" points="127,147.9 127.2,148 127.2,146.5 127,146.4 									"/>
								</g>
							</g>
							<path class="st22" d="M75.3,101l-7.5-0.1v0.8l0.3-0.2c0.1,0.1,0.2,0.1,0.3,0.2c1.8,1,4.6,1,6.4,0c0.1,0,0.1-0.1,0.2-0.1
								l0.3,0.2V101z"/>
							<path class="st23" d="M71.5,98.8l-3.7,2.1c0.2,0.2,0.4,0.3,0.6,0.4c1.8,1,4.6,1,6.4,0c0.2-0.1,0.3-0.2,0.5-0.3L71.5,98.8z"/>
						</g>
						<g>
							<polygon class="st19" points="122.6,83.3 122.6,82.5 70.6,83.2 96.9,98.2 							"/>
							<polygon class="st20" points="122.6,82.5 96.4,67.5 69.8,82.7 96.1,97.7 							"/>
							<polygon class="st21" points="118.3,82.4 94.4,96.1 94.4,88.6 118.3,74.9 							"/>
							<polygon class="st19" points="96.9,98.2 96.1,98.7 70.6,75.8 96.9,90.7 							"/>
							<polygon class="st19" points="122.6,75.9 122.6,75.1 70.6,75.8 96.9,90.7 							"/>
							<polygon class="st22" points="96.1,98.7 69.8,83.7 69.8,75.3 96.1,90.3 							"/>
							<polygon class="st22" points="96.1,98.7 69.8,83.7 69.8,75.3 96.1,90.3 							"/>
							<g>
								<polygon class="st23" points="85.6,93.1 73.1,86 73.1,77.5 73.4,77.4 85.9,84.5 85.9,92.9 								"/>
								<polygon class="st22" points="85.9,92.9 85.6,93.1 85.6,84.7 85.9,84.5 								"/>
							</g>
							<polygon class="st11" points="122.6,75.1 96.4,60.1 69.8,75.3 96.1,90.3 							"/>
							<g>
								<path class="st22" d="M95.9,86.9L95.9,86.9L76.1,75.6v-0.2l20.8-11.8l0.1,0l19.7,11V75L95.9,86.9z M76.7,75.6l19.2,10.9
									L116.1,75L96.9,64.1L76.7,75.6z"/>
							</g>
							<polygon class="st22" points="97.1,89.7 70.8,74.8 69.8,75.3 96.1,90.3 							"/>
							<g>
								<path class="st23" d="M95.9,86.7L95.9,86.7L76.1,75.5l20.8-11.9l0.1,0l19.7,11.2L95.9,86.7z M76.7,75.5l19.2,10.9l20.2-11.6
									L96.9,63.9L76.7,75.5z"/>
							</g>
							<g>
								<path class="st24" d="M120.5,73.9c-0.1,0.1-1.2,1.1-1.2,1.1s0-0.1,0,0.3c0,0.4,0.3,0.8,0.8,1.1c0.1,0,0.1,0.1,0.2,0.1
									l2.3-1.3v-0.2L120.5,73.9z"/>
								<path class="st23" d="M120.5,73.6c-0.1,0.1-0.3,0.1-0.4,0.2c-1.1,0.6-1.1,1.7,0,2.3c0.1,0,0.1,0.1,0.2,0.1l2.3-1.3
									L120.5,73.6z"/>
								<g>
									<polygon class="st22" points="122.6,76.1 120.3,77.5 120.3,76.2 122.6,74.8 									"/>
								</g>
								<g>
									<polygon class="st24" points="120.1,77.4 120.3,77.5 120.3,76.4 120.1,76.3 									"/>
								</g>
							</g>
							<g>
								<path class="st24" d="M120.5,81.3c-0.1,0.1-1.2,1.1-1.2,1.1s0-0.1,0,0.3c0,0.4,0.3,0.8,0.8,1.1c0.1,0,0.1,0.1,0.2,0.1
									l2.3-1.3v-0.2L120.5,81.3z"/>
								<path class="st23" d="M120.5,81c-0.1,0.1-0.3,0.1-0.4,0.2c-1.1,0.6-1.1,1.7,0,2.3c0.1,0,0.1,0.1,0.2,0.1l2.3-1.3L120.5,81z"
									/>
								<g>
									<polygon class="st22" points="122.6,83.5 120.3,84.9 120.3,83.6 122.6,82.3 									"/>
								</g>
								<g>
									<polygon class="st24" points="120.1,84.8 120.3,84.9 120.3,83.8 120.1,83.7 									"/>
								</g>
							</g>
							<path class="st22" d="M99,61.1L93.9,61v0.6l0.2-0.1c0.1,0,0.1,0.1,0.2,0.1c1.2,0.7,3.2,0.7,4.4,0c0,0,0.1,0,0.1-0.1l0.2,0.1
								V61.1z"/>
							<path class="st23" d="M96.4,59.6L93.9,61c0.1,0.1,0.3,0.2,0.4,0.3c1.2,0.7,3.2,0.7,4.4,0c0.1-0.1,0.2-0.1,0.3-0.2L96.4,59.6z
								"/>
						</g>
						<g>
							<path class="st19" d="M207.5,128.2c-10.5,6.2-27.8,6.2-38.4,0.1c-5.3-3.1-8-7.1-8-11.2c0-4.1,1-9.7,4.9-12.9
								c9.5-7.7,34.9-7.7,44.4,0c4.2,3.4,4.9,8.7,4.9,12.8C215.4,121.1,212.8,125.1,207.5,128.2z"/>
							<ellipse class="st11" cx="188.3" cy="112.6" rx="26.4" ry="15.4"/>
							<path class="st19" d="M204.4,119.8c-8.8,5.2-23.3,5.2-32.2,0c-4.4-2.6-6.7-6-6.7-9.4c0-3.4,0.8-8.1,4.1-10.8
								c7.9-6.5,29.3-6.5,37.2,0c3.5,2.9,4.1,7.3,4.1,10.7C211,113.7,208.8,117.2,204.4,119.8z"/>
							<path class="st22" d="M206.9,99.6c-8-6.5-29.3-6.5-37.2,0c-2.8,2.3-3.9,6.2-4.1,9.4c0.3,3.2,2.5,6.3,6.6,8.6
								c8.9,5.2,23.4,5.1,32.2,0c4.1-2.4,6.3-5.5,6.6-8.6C210.8,105.8,209.9,102.1,206.9,99.6z"/>
							<ellipse class="st11" cx="188.3" cy="106.6" rx="22.1" ry="13"/>
							<path class="st19" d="M204,115.9c-8.6,5-22.7,5.1-31.3,0c-4.3-2.5-6.5-5.8-6.5-9.1c0-5.3,3.7-6.1,6.9-8.7
								c7.7-6.3,22.9-6.5,30.7-0.2c3.4,2.8,6.7,3.8,6.7,8.8C210.4,110,208.3,113.3,204,115.9z"/>
							<ellipse class="st11" cx="188.3" cy="105.8" rx="22" ry="12.9"/>
							<path class="st19" d="M179.4,102.9c4.9-2.9,12.9-2.9,17.8,0c2,1.1,3.1,2.6,3.5,4c0.6-2.3-0.5-4.7-3.5-6.4
								c-4.9-2.9-12.9-2.8-17.8,0c-2.9,1.7-4.1,4.1-3.5,6.4C176.3,105.5,177.4,104.1,179.4,102.9z"/>
						</g>
						<g>
							<path class="st11" d="M136.1,145.4c0-6.4,5.3-14.8,11.7-18.5c3.2-1.9,6.2-2.3,8.3-1.3v0l0.1,0c0.3,0.1,0.6,0.3,0.9,0.5
								l10.7,6.2v6.2l-8.4-4.9c-0.8,6.1-5.7,13.2-11.5,16.6l2.7,1.5v6.2l-10.9-6.3C137.4,150.8,136.1,148.7,136.1,145.4z"/>
							<path class="st23" d="M147,152.6c0-6.8,5.6-15.6,12.4-19.6c3.4-2,6.6-2.4,8.8-1.4v0l0.1,0c0.3,0.1,0.6,0.3,0.9,0.5l11.3,6.5
								v6.5l-8.9-5.1c-0.9,6.4-6,14-12.2,17.6l2.8,1.6v6.5l-11.6-6.7C148.4,158.3,147,156,147,152.6z"/>
							
								<ellipse transform="matrix(0.6003 -0.7998 0.7998 0.6003 -53.2501 197.6796)" class="st22" cx="171.1" cy="152.1" rx="16.4" ry="9.3"/>
							<path class="st11" d="M160.4,159.4c0-6.4,5.3-14.8,11.7-18.5c3.2-1.9,6.2-2.3,8.3-1.3v0l0.1,0c0.3,0.1,0.6,0.3,0.9,0.5
								l10.7,6.2v6.2l-8.4-4.9c-0.8,6.1-5.7,13.2-11.5,16.6l2.7,1.5v6.2l-10.9-6.3C161.7,164.8,160.4,162.7,160.4,159.4z"/>
							
								<ellipse transform="matrix(0.6003 -0.7998 0.7998 0.6003 -53.9485 209.7338)" class="st19" cx="182.9" cy="158.8" rx="15.6" ry="8.8"/>
							
								<ellipse transform="matrix(0.6003 -0.7998 0.7998 0.6003 -54.1103 210.4412)" class="st11" cx="183.5" cy="159.4" rx="14.3" ry="8"/>
							
								<ellipse transform="matrix(0.6003 -0.7998 0.7998 0.6003 -54.2411 211.3885)" class="st19" cx="184.4" cy="160" rx="14.3" ry="8"/>
							<path class="st11" d="M147.4,153.7l3.2-1.8l0,0c0.7-0.4,1.6-0.3,2.7,0.3c2,1.1,3.6,3.7,3.6,5.7c0,0.9-0.3,1.5-0.9,1.8
								l-3.2,1.9V159c-1.4-1-2.5-2.7-2.9-4.2l-2.4,1.4V153.7z"/>
							<path class="st19" d="M146.6,155.4c0,2,1.6,4.5,3.6,5.7c2,1.1,3.6,0.5,3.6-1.5s-1.6-4.5-3.6-5.7
								C148.2,152.8,146.6,153.5,146.6,155.4z"/>
							<path class="st11" d="M98.5,183.5l49-28.5l0,0c0.5-0.3,1.2-0.2,2,0.2c1.5,0.8,2.6,2.7,2.6,4.2c0,0.7-0.2,1.1-0.6,1.4
								l-49,28.5l-0.2-1.7c-1-0.7-1.9-2-2.2-3.1L98.5,183.5z"/>
							<path class="st22" d="M91.3,186.6l17-9.8l0,0c0.6-0.3,1.5-0.3,2.5,0.3c1.8,1.1,3.4,3.5,3.4,5.3c0,0.8-0.3,1.4-0.8,1.7
								l-17,9.8L91.3,186.6z"/>
							<path class="st19" d="M90.6,188.2c0,1.9,1.5,4.2,3.4,5.3c1.8,1.1,3.4,0.4,3.4-1.4c0-1.9-1.5-4.2-3.4-5.3
								C92.1,185.7,90.6,186.4,90.6,188.2z"/>
						</g>
						<g>
							<path class="st24" d="M144.5,112.8c-7.6,4.5-20,4.5-27.7,0c-7.6-4.4-7.7-14.1-0.1-18.6c7.6-4.5,20-4.5,27.7,0
								C152,98.7,152,108.3,144.5,112.8z"/>
							<rect x="148.9" y="100.2" class="st24" width="1.2" height="1.9"/>
							<rect x="111.1" y="100.4" class="st24" width="1.2" height="1.8"/>
							<ellipse class="st23" cx="130.6" cy="100.6" rx="19.6" ry="11.4"/>
							<rect x="115.4" y="98.8" class="st24" width="1.2" height="1.5"/>
							<rect x="144.6" y="98.8" class="st24" width="1.2" height="1.4"/>
							<ellipse class="st24" cx="130.6" cy="100.2" rx="15.2" ry="8.9"/>
							<ellipse class="st23" cx="130.6" cy="98.9" rx="15.2" ry="8.9"/>
							<rect x="122.1" y="96.2" class="st24" width="1.2" height="1.2"/>
							<path class="st24" d="M136.6,100.9c-3.3,1.9-8.7,1.9-12,0c-3.3-1.9-3.3-5.1,0-7c3.3-1.9,8.7-1.9,12,0
								C139.9,95.8,139.9,98.9,136.6,100.9z"/>
							<rect x="137.8" y="96" class="st24" width="1.2" height="1.3"/>
							<path class="st23" d="M136.6,99.7c-3.3,1.9-8.7,1.9-12,0c-3.3-1.9-3.3-5.1,0-7c3.3-1.9,8.7-1.9,12,0
								C139.9,94.6,139.9,97.8,136.6,99.7z"/>
							<path class="st22" d="M177.7,82.6c0,6.8-5.5,12.3-12.3,12.3c-6.8,0-12.3-5.5-12.3-12.3H177.7z"/>
							<ellipse class="st11" cx="165.4" cy="82.8" rx="12.3" ry="7.2"/>
							<path class="st19" d="M173.2,87.3c-4.3,2.5-11.3,2.5-15.6,0c-4.3-2.5-4.3-6.6,0-9.1c4.3-2.5,11.3-2.5,15.6,0
								C177.5,80.7,177.5,84.8,173.2,87.3z"/>
							<path class="st20" d="M157.5,83.7c4.3-2.5,11.3-2.5,15.6,0c0.9,0.5,1.7,1.2,2.2,1.8c1.9-2.4,1.2-5.4-2.2-7.3
								c-4.3-2.5-11.3-2.5-15.6,0c-3.3,2-4.1,4.9-2.2,7.3C155.9,84.8,156.6,84.2,157.5,83.7z"/>
							<polygon class="st24" points="126.3,19.3 126.3,95.9 130.6,95.9 130.6,98.9 134.9,96.4 134.9,95.9 134.9,89.7 134.9,19.3 
															"/>
							<path class="st22" d="M165.7,43.6L165.7,43.6c0.3-0.1,0.6,0.1,0.7,0.4l9.9,35.4c0.1,0.3-0.1,0.6-0.4,0.7l0,0
								c-0.3,0.1-0.6-0.1-0.7-0.4l-9.9-35.4C165.2,44,165.4,43.7,165.7,43.6z"/>
							<path class="st22" d="M164.9,43.6L164.9,43.6c-0.3-0.1-0.6,0.1-0.7,0.4l-11,39.3c-0.1,0.3,0.1,0.6,0.4,0.7l0,0
								c0.3,0.1,0.6-0.1,0.7-0.4l11-39.3C165.4,44,165.2,43.7,164.9,43.6z"/>
							<path class="st22" d="M109.2,43.8c0,6.8-5.5,12.3-12.3,12.3c-6.8,0-12.3-5.5-12.3-12.3H109.2z"/>
							<ellipse class="st11" cx="96.9" cy="44" rx="12.3" ry="7.2"/>
							<path class="st19" d="M104.7,48.5c-4.3,2.5-11.3,2.5-15.6,0s-4.3-6.6,0-9.1c4.3-2.5,11.3-2.5,15.6,0
								C109,41.9,109,46,104.7,48.5z"/>
							<path class="st20" d="M89.1,44.9c4.3-2.5,11.3-2.5,15.6,0c0.9,0.5,1.7,1.2,2.2,1.8c1.9-2.4,1.2-5.4-2.2-7.3
								c-4.3-2.5-11.3-2.5-15.6,0c-3.3,2-4.1,4.9-2.2,7.3C87.4,46,88.1,45.4,89.1,44.9z"/>
							<path class="st22" d="M97.2,4.8L97.2,4.8c0.3-0.1,0.6,0.1,0.7,0.4l9.9,35.4c0.1,0.3-0.1,0.6-0.4,0.7l0,0
								c-0.3,0.1-0.6-0.1-0.7-0.4L96.8,5.5C96.7,5.2,96.9,4.9,97.2,4.8z"/>
							<path class="st22" d="M96.4,4.8L96.4,4.8c-0.3-0.1-0.6,0.1-0.7,0.4l-11,39.3c-0.1,0.3,0.1,0.6,0.4,0.7l0,0
								c0.3,0.1,0.6-0.1,0.7-0.4l11-39.3C96.9,5.2,96.7,4.9,96.4,4.8z"/>
							<polygon class="st23" points="130.6,19.2 124,15.4 130.7,11.6 137.3,15.4 							"/>
							<polygon class="st24" points="165.2,44.9 165.2,42.4 167.8,40.9 167.8,43.4 							"/>
							<polygon class="st24" points="135.2,34.9 135.2,16.6 137.3,15.4 137.3,33.8 							"/>
							<polygon class="st23" points="94,1.5 165.2,42.4 167.8,40.9 96.6,0 							"/>
							<polygon class="st20" points="134.9,32 130.6,34.4 130.6,41.2 134.9,38.7 							"/>
							<polygon class="st24" points="130.6,37.6 130.6,30.8 137.3,27 137.3,33.8 							"/>
							<polygon class="st20" points="132.6,32.7 132.6,29.7 135.2,28.1 135.2,31.2 							"/>
							<polygon class="st22" points="165.2,42.4 94,1.5 94,4 126.3,26 132.9,29.8 165.2,44.9 							"/>
							<polygon class="st24" points="130.6,37.6 130.6,19.2 132.6,18.1 132.6,36.4 							"/>
							<polygon class="st24" points="130.6,24.8 130.6,19.2 137.3,15.4 137.3,21 							"/>
							<polygon class="st22" points="132.6,23.7 132.6,20.6 135.2,19.1 135.2,22.2 							"/>
							<path class="st24" d="M133,16.8c-1.3,0.8-3.4,0.8-4.7,0c-1.3-0.8-1.3-2,0-2.7c1.3-0.8,3.4-0.8,4.7,0
								C134.2,14.8,134.2,16,133,16.8z"/>
							<polygon class="st20" points="132.6,20.7 132.6,20.6 135.2,19.1 135.2,22.2 							"/>
							<polygon class="st22" points="126.3,19.3 126.3,78.1 126.3,95.9 126.3,96.3 130.6,98.9 130.6,96.4 130.6,96.4 130.6,19.3 
															"/>
							<polygon class="st24" points="126.3,38.6 130.6,41.2 130.6,22.8 126.3,20.3 							"/>
							<polygon class="st22" points="130.6,19.2 124,15.4 124,33.6 130.6,37.5 							"/>
							<path class="st24" d="M129.5,27c0-1-0.8-2.4-1.9-3c-0.6-0.3-1-0.4-1.4-0.2l-0.6,0.3l2.8,4.1l0.6-0.3
								C129.3,27.8,129.5,27.5,129.5,27z"/>
							<path class="st23" d="M129,27.3c0,1-0.8,1.4-1.9,0.8c-1-0.6-1.9-1.9-1.9-3s0.8-1.4,1.9-0.8C128.2,25,129,26.3,129,27.3z"/>
							<path class="st24" d="M128.2,26.9c0-0.6-0.5-1.4-1.1-1.7c-0.3-0.2-0.6-0.2-0.8-0.1l-0.3,0.2l1.7,2.4l0.3-0.2
								C128.1,27.3,128.2,27.1,128.2,26.9z"/>
							<path class="st23" d="M128,27c0,0.6-0.5,0.8-1.1,0.5c-0.6-0.4-1.1-1.1-1.1-1.7s0.5-0.8,1.1-0.5C127.5,25.7,128,26.4,128,27z"
								/>
							<circle class="st23" cx="130.6" cy="8.3" r="7.1"/>
							<path class="st22" d="M130.6,12.1c-3.3,0-6.1-2.3-6.9-5.4c-0.1,0.5-0.2,1.1-0.2,1.7c0,3.9,3.2,7.1,7.1,7.1
								c3.9,0,7.1-3.2,7.1-7.1c0-0.6-0.1-1.1-0.2-1.7C136.7,9.8,133.9,12.1,130.6,12.1z"/>
						</g>
					</g>
				</g>
				<g>
					<g>
						<circle class="st25" cx="480.6" cy="104.8" r="43"/>
						<g>
							<defs>
								<ellipse id="SVGID_6_" cx="480.9" cy="104.8" rx="42.9" ry="41.8"/>
							</defs>
							<clipPath id="SVGID_7_">
								<use xlink:href="#SVGID_6_"  style="overflow:visible;"/>
							</clipPath>
							<g id="XMLID_172_" class="st26">
								<path id="XMLID_279_" class="st27" d="M459.9,103.2c-0.9,2.5-0.9,4.2-1.2,5.5c-0.2,0.8-0.8,2.6,0.2,4.6
									c1.1,2.2,2.8,8.2,4.3,10l3.1-0.9c0,0-1.1-4.1-2.6-11.3c0,0,1.3-3.7,2.2-5.7L459.9,103.2z"/>
								<path id="XMLID_278_" class="st27" d="M471.1,195.1c0,0.8,0.3,3.7,0.3,3.7h4.4l0.3-3.7H471.1z"/>
								<path id="XMLID_277_" class="st27" d="M471.1,195.1c0,0.8,0.3,3.7,0.3,3.7h4.4l0.3-3.7H471.1z"/>
								<path id="XMLID_276_" class="st27" d="M497.6,103.5c0.9,2.5,0.9,4.2,1.2,5.5c0.2,0.8,0.8,2.6-0.2,4.6
									c-1.1,2.2-2.8,8.2-4.3,10l-3.1-0.9c0,0,1.1-4.1,2.6-11.3c0,0-1.3-3.7-2.2-5.7L497.6,103.5z"/>
								<path id="XMLID_275_" class="st27" d="M486.2,195.1c0,0.8-0.3,3.7-0.3,3.7h-4.4l-0.3-3.7H486.2z"/>
								<path id="XMLID_274_" class="st28" d="M490,125.1h-22.6c-1.3,5.6-2.3,6.7-0.9,25.4c1.4,18.4,1.8,28.5,3.1,44.6h7.6
									c0,0,0.4-54.6,1.4-55.6h0.2c1.1,1,1.4,55.6,1.4,55.6h7.6c1.2-16.1,1.9-23.9,3.2-43.3C492,134.7,491.8,131.5,490,125.1z"/>
								<path id="XMLID_273_" class="st27" d="M479,109.1c1.3-4.3,9.8-18.1,9.5-18.7c-0.3-0.6,0.8,0-2.5-1.8c-3.3-1.8-2.9-5-2.9-5.9
									H479h-0.1h-4.2c0,0.9,0.4,4.1-2.9,5.9c-3.3,1.8-2,2-2.3,2.6c-0.3,0.6,8.1,13.7,9.3,18v0.5c0-0.1,0-0.2,0.1-0.2
									c0,0.1,0,0.2,0.1,0.2V109.1z"/>
								<path id="XMLID_272_" class="st29" d="M487.2,75.2c-0.9-0.7-1.3,0.2-1.5,0.6c-0.2,0.5,0.2-4.2,0-5.6
									c-0.2-1.2-4.8-0.5-6.8-0.4c0,0-0.1,0-0.1,0c0,0-0.1,0-0.1,0c-1.9,0-5.9-0.8-6.1,0.4c-0.2,1.3,0.2,6,0,5.6
									c-0.2-0.4-0.6-1.3-1.5-0.6c-0.9,0.7,0.4,3.8,1.5,3.6c1.1-0.2,0.2,3.1,2,4.7c1.8,1.5,2.4,2,4.5,1.9c2.1,0.1,2.7-0.4,4.5-1.9
									c1.9-1.6,0.9-4.9,2-4.7C486.8,79,488.1,75.9,487.2,75.2z"/>
								<path id="XMLID_271_" class="st30" d="M476.2,71.5c0-1,0.8,1.1,0.8,0c0-1.1,1.6,1,3.3,1.6s0.7-0.4,0.7-0.8s1.7,1.3,2.3,1.5
									c0.7,0.2,0.6-0.3,0.8-0.4c0.4-0.1,0.8,3.1,1,3.1c0.3,0,0.5-1.3,1.3-1.5c0.4,0.1,0.7-1,0.5-2s0.6,0.5,0.5,0
									c-0.1-0.4,0.1-4.4-2.3-6.1c-0.8-0.6,0.8,0.3,0.6,0c-0.2-0.3-1.7-1.6-3.3-2c-1.3-0.3-3.2-0.7-5.8-0.2
									c-1.3,0.3-2.7,1.4-2.7,1.7c0,0.3-0.7-0.1-1.3,0.2c-0.6,0.3,0.2,0,0.5,0.4s-0.8,0.3-1.6,1.5c-0.8,1.2-1.1,5.1-0.1,6.5
									c0.2,0.2,0.5-0.4,1.2,0.7c0.7,1.1,0.7,0.7,0.5-0.3C472.9,74.5,476.2,72.9,476.2,71.5z"/>
								<path id="XMLID_270_" class="st31" d="M493.8,90.6c1.4,0.3,3.1,3.8,3.8,7.6c0.7,3.9,4.6,11.1,4.4,11.4
									c-0.8,1.4-8.6,3.9-9.5,3.8c-0.8-0.2-2.7-11.4-2.1-14.4C491,96.5,491.9,90.3,493.8,90.6z"/>
								<g id="XMLID_248_">
									<path id="XMLID_269_" class="st32" d="M490.4,101.9l7.3-3.3c0-0.1-0.1-0.2-0.1-0.4c-0.1-0.3-0.1-0.6-0.2-0.9l-7.1,3.2
										C490.3,101,490.3,101.4,490.4,101.9z"/>
									<path id="XMLID_268_" class="st32" d="M495.8,92.9l-4.5,2c-0.1,0.5-0.2,1-0.3,1.6l5.3-2.4C496.2,93.6,496,93.2,495.8,92.9z
										"/>
									<path id="XMLID_267_" class="st32" d="M490.4,103.1c0,0.4,0.1,0.9,0.1,1.3l7.8-3.5c-0.1-0.4-0.3-0.8-0.4-1.2L490.4,103.1z"
										/>
									<path id="XMLID_266_" class="st32" d="M496.7,95.1l-6,2.7c-0.1,0.5-0.2,0.9-0.3,1.2c0,0.1,0,0.2,0,0.2l6.7-3
										C497,95.9,496.9,95.5,496.7,95.1z"/>
									<path id="XMLID_265_" class="st32" d="M498.7,102l-8,3.6c0.1,0.5,0.1,0.9,0.2,1.4l8.3-3.8C499,102.8,498.9,102.4,498.7,102
										z"/>
									<path id="XMLID_264_" class="st32" d="M495.3,91.9c-0.5-0.7-1-1.2-1.5-1.3c-0.9-0.2-1.5,1.2-2.1,2.9L495.3,91.9z"/>
									<path id="XMLID_263_" class="st32" d="M492.1,112.8c0.2,0.4,0.3,0.7,0.4,0.7c0.8,0.2,8.6-2.4,9.5-3.8
										c0-0.1-0.1-0.5-0.5-1.2L492.1,112.8z"/>
									<path id="XMLID_258_" class="st32" d="M501.1,107.4c-0.2-0.3-0.3-0.7-0.5-1.1l-9.1,4.1c0.1,0.4,0.2,0.9,0.3,1.2
										L501.1,107.4z"/>
									<path id="XMLID_251_" class="st32" d="M499.6,104.2l-8.5,3.9c0.1,0.4,0.1,0.8,0.2,1.2l8.8-4
										C500,105,499.8,104.6,499.6,104.2z"/>
								</g>
								<path id="XMLID_247_" class="st31" d="M464.1,90.6c-1.4,0.3-3.1,3.8-3.8,7.6c-0.7,3.9-4.6,11.1-4.4,11.4
									c0.8,1.4,8.6,3.9,9.5,3.8c0.8-0.2,2.7-11.4,2.1-14.4C466.9,96.5,466,90.3,464.1,90.6z"/>
								<g id="XMLID_233_">
									<path id="XMLID_246_" class="st32" d="M467.5,101.9l-7.3-3.3c0-0.1,0.1-0.2,0.1-0.4c0.1-0.3,0.1-0.6,0.2-0.9l7.1,3.2
										C467.6,101,467.6,101.4,467.5,101.9z"/>
									<path id="XMLID_245_" class="st32" d="M462.1,92.9l4.5,2c0.1,0.5,0.2,1,0.3,1.6l-5.3-2.4C461.7,93.6,461.9,93.2,462.1,92.9
										z"/>
									<path id="XMLID_244_" class="st32" d="M467.5,103.1c0,0.4-0.1,0.9-0.1,1.3l-7.8-3.5c0.1-0.4,0.3-0.8,0.4-1.2L467.5,103.1z"
										/>
									<path id="XMLID_243_" class="st32" d="M461.2,95.1l6,2.7c0.1,0.5,0.2,0.9,0.3,1.2c0,0.1,0,0.2,0,0.2l-6.7-3
										C460.9,95.9,461,95.5,461.2,95.1z"/>
									<path id="XMLID_238_" class="st32" d="M459.2,102l8,3.6c-0.1,0.5-0.1,0.9-0.2,1.4l-8.3-3.8
										C458.9,102.8,459,102.4,459.2,102z"/>
									<path id="XMLID_237_" class="st32" d="M462.7,91.9c0.5-0.7,1-1.2,1.5-1.3c0.9-0.2,1.5,1.2,2.1,2.9L462.7,91.9z"/>
									<path id="XMLID_236_" class="st32" d="M465.8,112.8c-0.2,0.4-0.3,0.7-0.4,0.7c-0.8,0.2-8.6-2.4-9.5-3.8
										c0-0.1,0.1-0.5,0.5-1.2L465.8,112.8z"/>
									<path id="XMLID_235_" class="st32" d="M456.8,107.4c0.2-0.3,0.3-0.7,0.5-1.1l9.1,4.1c-0.1,0.4-0.2,0.9-0.3,1.2L456.8,107.4
										z"/>
									<path id="XMLID_234_" class="st32" d="M458.3,104.2l8.5,3.9c-0.1,0.4-0.1,0.8-0.2,1.2l-8.8-4
										C458,105,458.1,104.6,458.3,104.2z"/>
								</g>
								<path id="XMLID_232_" class="st31" d="M491,106c0.1-1.4,3-14.8,3-15.3s-8.3-3.1-8.3-2.7c-0.1,2.5-3.2,3.2-6.1,3.6
									c-0.2,0-1,0-1.2,0c-2.8-0.4-6-1.1-6.1-3.6c0-0.3-8.3,2.3-8.3,2.7s2.9,13.9,3,15.3c0.5,10.6-0.6,22.7-0.7,25.7
									c0,0,2.1,0.5,7,0.7c0,0.1,11.7,0.1,11.7,0c4,0,6.8-0.6,6.8-0.6C491.5,128.9,490,116.1,491,106z"/>
								<g id="XMLID_212_">
									<path id="XMLID_231_" class="st32" d="M467,116.4c0,0.6,0,1.1,0,1.7h23.8c0-0.6,0-1.1,0-1.7H467z"/>
									<path id="XMLID_230_" class="st32" d="M466.9,119.2c0,0.6,0,1.1-0.1,1.7h24c0-0.6-0.1-1.1-0.1-1.7H466.9z"/>
									<path id="XMLID_229_" class="st32" d="M490.7,113.6h-23.6c0,0.6,0,1.1,0,1.7h23.6C490.7,114.7,490.7,114.1,490.7,113.6z"/>
									<path id="XMLID_228_" class="st32" d="M466.7,124.9c0,0.6-0.1,1.2-0.1,1.7h24.7c0-0.5-0.1-1.1-0.1-1.7H466.7z"/>
									<path id="XMLID_227_" class="st32" d="M466.8,122c0,0.6-0.1,1.1-0.1,1.7H491c0-0.5-0.1-1.1-0.1-1.7H466.8z"/>
									<path id="XMLID_226_" class="st32" d="M467.1,110.8c0,0.6,0,1.1,0,1.7h23.6c0-0.6,0-1.1,0-1.7H467.1z"/>
									<path id="XMLID_225_" class="st32" d="M466.8,105.1c0.1,0.4,0.1,0.7,0.1,0.9c0,0.3,0,0.5,0,0.8h23.9c0-0.3,0-0.5,0.1-0.8
										c0-0.2,0.1-0.5,0.1-0.9H466.8z"/>
									<path id="XMLID_224_" class="st32" d="M491.5,129.4c0-0.5-0.1-1.1-0.1-1.7h-24.9c0,0.6-0.1,1.2-0.1,1.7H491.5z"/>
									<path id="XMLID_223_" class="st32" d="M466.3,102.3c0.1,0.6,0.2,1.2,0.3,1.7h24.7c0.1-0.5,0.2-1.1,0.3-1.7H466.3z"/>
									<path id="XMLID_222_" class="st32" d="M492.3,89.9c-2.4-0.9-6.6-2.2-6.6-1.9c0,0.8-0.4,1.4-0.9,1.9H492.3z"/>
									<path id="XMLID_221_" class="st32" d="M473.2,89.9c-0.6-0.5-0.9-1.1-0.9-1.9c0-0.2-4.2,1-6.6,1.9H473.2z"/>
									<path id="XMLID_220_" class="st32" d="M482.5,91c-0.9,0.3-1.9,0.4-2.9,0.6c-0.2,0-1,0-1.2,0c-1-0.1-2-0.3-2.9-0.6H464
										c0.1,0.3,0.2,0.9,0.3,1.7h29.3c0.2-0.8,0.3-1.4,0.3-1.7H482.5z"/>
									<path id="XMLID_218_" class="st32" d="M466.3,130.5c0,0.3,0,0.9-0.1,1.2c0,0,2.2,0.5,7,0.7c0,0.1,11.7,0.1,11.7,0
										c4,0,6.8-0.6,6.8-0.6c0-0.3-0.1-0.8-0.1-1.3H466.3z"/>
									<path id="XMLID_216_" class="st32" d="M465.2,96.6c0.1,0.6,0.2,1.1,0.3,1.7h27c0.1-0.6,0.2-1.1,0.3-1.7H465.2z"/>
									<path id="XMLID_215_" class="st32" d="M465.8,99.5c0.1,0.6,0.2,1.1,0.3,1.7h25.8c0.1-0.5,0.2-1.1,0.3-1.7H465.8z"/>
									<path id="XMLID_214_" class="st32" d="M467,107.9c0,0.6,0,1.1,0,1.7h23.7c0-0.6,0.1-1.1,0.1-1.7H467z"/>
									<path id="XMLID_213_" class="st32" d="M464.6,93.8c0.1,0.5,0.2,1.1,0.3,1.7h28.1c0.1-0.6,0.2-1.2,0.3-1.7H464.6z"/>
								</g>
								<path id="XMLID_211_" class="st31" d="M487.1,88.2l-2.1-0.5c-0.6,1.6-2.9,3.4-6,3.4c-3.1,0-5.5-1.7-6.2-3.4l-2,0.5
									c0.6,1.7,2.9,4.6,8.1,4.7v0c0,0,0.2,0,0.3,0v0C484.3,92.8,486.5,89.9,487.1,88.2z"/>
								<path id="XMLID_210_" class="st33" d="M469.2,192.6c-0.5,0.6,0,0.5-0.1,1.8c-0.1,1.2,0.3,1.7,1.7,1.5c1.4-0.2,5.8,0,6.2-0.1
									c0.9-0.3,0.3-1.3,0.6-1.9c0.2-0.6,0.3-1.7-0.6-1.5C476.2,192.6,469.9,191.7,469.2,192.6z"/>
								<path id="XMLID_209_" class="st33" d="M488.1,192.6c0.5,0.6,0,0.5,0.1,1.8c0.1,1.2-0.3,1.7-1.7,1.5c-1.4-0.2-5.8,0-6.2-0.1
									c-0.9-0.3-0.3-1.3-0.6-1.9c-0.2-0.6-0.3-1.7,0.6-1.5C481.1,192.6,487.4,191.7,488.1,192.6z"/>
								<g id="XMLID_200_">
									<path id="XMLID_208_" d="M471.3,198c-0.7,0.1-0.8,0.6-2.6,1.2c-3.2,1.2-5,1.5-5,3.4c0,1.6,3.1,1.7,5.8,1.3
										c2-0.3,3-0.5,3.9-0.7c0.6-0.1,0.7,0.1,1.6,0c0.9,0,1.8-0.4,1.9-0.7c0.1-0.3,0.2-2.4-0.1-3.4c-0.2-0.7-0.5-1-1.2-0.8
										c-0.6,0.2-1.9,0.4-3.4,0L471.3,198z"/>
									<path id="XMLID_207_" class="st34" d="M471.6,202.7c-2.3,0.5-5.6,1.1-7.9-0.1c0,0,0,0,0,0c0,1.6,3.1,1.7,5.8,1.3
										c2-0.3,3-0.5,3.9-0.7c0.6-0.1,0.7,0.1,1.6,0c0.9,0,1.8-0.4,1.9-0.7c0.1-0.1,0.1-0.5,0.1-0.9
										C475.5,202.8,475.1,202,471.6,202.7z"/>
									<g id="XMLID_205_">
										<path id="XMLID_206_" class="st34" d="M469.2,200.7C469.2,200.7,469.2,200.7,469.2,200.7c-0.7-0.5-1.2-0.8-2-0.9
											c-0.1,0-0.2,0-0.2-0.1c0-0.1,0.3-0.2,0.4-0.2c0.8,0.1,1.2,0.3,1.8,0.8c0.1,0.1,0.1,0.1,0,0.2
											C469.3,200.7,469.3,200.7,469.2,200.7z"/>
									</g>
									<g id="XMLID_203_">
										<path id="XMLID_204_" class="st34" d="M470.8,200.2C470.8,200.2,470.7,200.2,470.8,200.2c-0.7-0.5-1.2-0.8-2-0.9
											c-0.1,0-0.2,0-0.2-0.1c0-0.1,0.3-0.2,0.4-0.2c0.8,0.1,1.2,0.3,1.8,0.8c0.1,0.1,0.1,0.1,0,0.2
											C470.9,200.2,470.8,200.2,470.8,200.2z"/>
									</g>
									<g id="XMLID_201_">
										<path id="XMLID_202_" class="st34" d="M472.2,199.6C472.1,199.6,472.1,199.5,472.2,199.6c-0.7-0.5-1.2-0.8-2-0.9
											c-0.1,0-0.2,0-0.2-0.1c0-0.1,0.3-0.2,0.4-0.2c0.8,0.1,1.2,0.3,1.8,0.8c0.1,0.1,0.1,0.1,0,0.2
											C472.3,199.5,472.2,199.6,472.2,199.6z"/>
									</g>
								</g>
								<g id="XMLID_191_">
									<path id="XMLID_199_" d="M486.1,198c0.7,0.1,0.8,0.6,2.6,1.2c3.2,1.2,5,1.5,5,3.4c0,1.6-3.1,1.7-5.8,1.3
										c-2-0.3-3-0.5-3.9-0.7c-0.6-0.1-0.7,0.1-1.6,0c-0.9,0-1.8-0.4-1.9-0.7c-0.1-0.3-0.2-2.4,0.1-3.4c0.2-0.7,0.5-1,1.2-0.8
										c0.6,0.2,1.9,0.4,3.4,0L486.1,198z"/>
									<path id="XMLID_198_" class="st34" d="M485.8,202.7c2.3,0.5,5.6,1.1,7.9-0.1c0,0,0,0,0,0c0,1.6-3.1,1.7-5.8,1.3
										c-2-0.3-3-0.5-3.9-0.7c-0.6-0.1-0.7,0.1-1.6,0c-0.9,0-1.8-0.4-1.9-0.7c-0.1-0.1-0.1-0.5-0.1-0.9
										C481.8,202.8,482.3,202,485.8,202.7z"/>
									<g id="XMLID_196_">
										<path id="XMLID_197_" class="st34" d="M488.1,200.7C488.1,200.7,488.1,200.7,488.1,200.7c0.7-0.5,1.2-0.8,2-0.9
											c0.1,0,0.2,0,0.2-0.1c0-0.1-0.3-0.2-0.4-0.2c-0.8,0.1-1.2,0.3-1.8,0.8c-0.1,0.1-0.1,0.1,0,0.2
											C488,200.7,488,200.7,488.1,200.7z"/>
									</g>
									<g id="XMLID_194_">
										<path id="XMLID_195_" class="st34" d="M486.5,200.2C486.5,200.2,486.6,200.2,486.5,200.2c0.7-0.5,1.2-0.8,2-0.9
											c0.1,0,0.2,0,0.2-0.1c0-0.1-0.3-0.2-0.4-0.2c-0.8,0.1-1.2,0.3-1.8,0.8c-0.1,0.1-0.1,0.1,0,0.2
											C486.4,200.2,486.5,200.2,486.5,200.2z"/>
									</g>
									<g id="XMLID_192_">
										<path id="XMLID_193_" class="st34" d="M485.1,199.6C485.2,199.6,485.2,199.5,485.1,199.6c0.7-0.5,1.2-0.8,2-0.9
											c0.1,0,0.2,0,0.2-0.1c0-0.1-0.3-0.2-0.4-0.2c-0.8,0.1-1.2,0.3-1.8,0.8c-0.1,0.1-0.1,0.1,0,0.2
											C485,199.5,485.1,199.6,485.1,199.6z"/>
									</g>
								</g>
								<path id="XMLID_190_" class="st30" d="M486.6,88.1c0.2,1.8,0.3,17.8,0,21.7l0.9,2.2h1l1.1-2.2c0,0,0.4-20.1,0-20.9
									C489.2,88.1,486.5,87.6,486.6,88.1z"/>
								<path id="XMLID_187_" class="st30" d="M479.1,80.7c-1.1,0-3,0.4-3.1,2.5c-0.1,2.1,2.4,2.5,3.1,2.5c0.7,0,3.2-0.4,3.1-2.5
									C482.1,81.1,480.1,80.7,479.1,80.7z M480.5,84.1c-1.2,0.3-0.5-0.4-0.6-0.7c-0.1-0.3-0.8,0-0.8,0s-0.7-0.3-0.8,0
									c-0.1,0.3,0.5,0.9-0.6,0.7c-1.2-0.3-1.2-1.7-0.4-2c0.9-0.3,1.8-0.3,1.8-0.3s0.9-0.1,1.8,0.3
									C481.8,82.4,481.7,83.8,480.5,84.1z"/>
								<path id="XMLID_186_" class="st30" d="M490.3,129.6h-22.7c-0.8,0-1.4-0.6-1.4-1.4v-0.9c0-0.8,0.6-1.4,1.4-1.4h22.7
									c0.8,0,1.4,0.6,1.4,1.4v0.9C491.7,128.9,491.1,129.6,490.3,129.6z"/>
								<g id="XMLID_178_">
									<path id="XMLID_185_" class="st35" d="M488.8,137.5L488.8,137.5c-0.2-0.1-0.3-0.3-0.2-0.5l3.9-10.2
										c0.1-0.2,0.3-0.3,0.5-0.2l0,0c0.8,0.3,1.2,1.2,0.9,2l-3,8.1C490.5,137.4,489.6,137.8,488.8,137.5z"/>
									<path id="XMLID_184_" class="st36" d="M488.1,137.3l-1.5-0.6c-0.9-0.3-1.3-1.3-1-2.2l2.9-7.8c0.3-0.9,1.3-1.3,2.2-1
										l1.5,0.6c0.9,0.3,1.3,1.3,1,2.2l-2.9,7.8C489.9,137.1,488.9,137.6,488.1,137.3z"/>
									<path id="XMLID_183_" class="st36" d="M499.4,138.1l-8.5-3.2c0,0-0.4-1.1,0.2-2.7c0.6-1.6,1.5-2,1.5-2l8.4,1.8L499.4,138.1
										z"/>
									<path id="XMLID_182_" class="st36" d="M503.9,133.8l1.2,1.6c0.1,0.1,0.1,0.2,0.1,0.4c-0.1,0.6-0.5,2.1-1.2,3.5
										c-0.1,0.2-0.3,0.3-0.4,0.2l-1.7-0.1l-0.1-1.9L503.9,133.8z"/>
									<path id="XMLID_181_" class="st35" d="M499.2,138.4c0-0.7-0.1-3.9,2-6.7c0-0.1,0.1-0.1,0.2-0.1l4.4,1.1
										c0.1,0,0.2,0.2,0.1,0.3c-0.3,0.5-1.1,2.1-1.2,3.9c0,0.1,0,0.1-0.1,0.2l-1.5,0.9c-0.1,0-0.1,0.1-0.1,0.2l0.3,1.5
										c0,0.1-0.1,0.3-0.3,0.2l-3.8-1.4C499.3,138.5,499.2,138.5,499.2,138.4z"/>
									<path id="XMLID_180_" class="st35" d="M493.7,135.9c0,0-0.7-2.9,1.6-5.2l1.3,0.3c0,0-1.9,1.3-1.8,5.3L493.7,135.9z"/>
									<path id="XMLID_179_" class="st35" d="M496.3,136.9c0,0-0.5-3.3,1.8-5.5l1.9,0.4c0,0-2.2,1.7-2.1,5.7L496.3,136.9z"/>
								</g>
								<path id="XMLID_177_" class="st27" d="M494.6,123.4c0.1,1.9,0,5.5-0.5,6.2s-2.3,1.8-2.8,1.8c-0.5,0-2.2-0.3-2.5-0.5
									c-0.2-0.2-0.2-0.9,1.3-0.6c1.4,0.3,1.5-1.1,1.8-2.2c0.3-1.1-0.1-2-0.7-1.6c-0.6,0.5-0.8,2.7-1.2,2.7c-0.4,0-0.9,0-0.5-2.5
									c0.5-2.5,1.1-2.5,1.7-4L494.6,123.4z"/>
								<g id="XMLID_175_">
									<path id="XMLID_176_" class="st36" d="M488.4,129.1c-0.3-1.1-0.9-14.8-0.9-17.1h0.8c0,2.5,0.6,16,0.9,16.9L488.4,129.1z"/>
								</g>
								<path id="XMLID_174_" class="st30" d="M467.3,140.1h-2.9c-0.9,0-1.7-0.7-1.8-1.6l-1.5-12.7c-0.1-1.1,0.7-2,1.8-2h4.4
									c1,0,1.8,0.8,1.8,1.8v12.7C469.1,139.3,468.3,140.1,467.3,140.1z"/>
								<path id="XMLID_173_" class="st27" d="M462.9,123.1c-0.1,1.9,0,5.5,0.5,6.2c0.5,0.7,2.3,1.8,2.8,1.8c0.5,0,2.2-0.3,2.5-0.5
									c0.2-0.2,0.2-0.9-1.3-0.6c-1.4,0.3-1.5-1.1-1.8-2.2c-0.3-1.1,0.1-2,0.7-1.6c0.6,0.5,0.8,2.7,1.2,2.7c0.4,0,0.9,0,0.5-2.5
									c-0.5-2.5-1.1-2.5-1.7-4L462.9,123.1z"/>
							</g>
						</g>
					</g>
					<g>
						<circle class="st25" cx="584.5" cy="104.8" r="43"/>
						<g>
							<g>
								<defs>
									<ellipse id="SVGID_8_" cx="584.1" cy="104.8" rx="42.9" ry="41.8"/>
								</defs>
								<clipPath id="SVGID_9_">
									<use xlink:href="#SVGID_8_"  style="overflow:visible;"/>
								</clipPath>
								<g id="XMLID_145_" class="st37">
									<path id="XMLID_171_" class="st27" d="M602.6,137.1c0.1-1.4,2-6.4,3-9.5c-1.9-0.8-3.9-1.2-5.9-1.5l-0.2,1.2
										c0,6.1-0.5,9.1-0.5,9.2c-0.7,1.5-1.3,1.5-1.8,4.1c-0.5,2.7,0.1,2.7,0.5,2.6s0.6-2.4,1.3-2.9c0.6-0.5,1,0.5,0.7,1.7
										c-0.3,1.2-0.4,2.6-1.9,2.3c-1.6-0.3-1.6,0.5-1.4,0.6c0.4,0.3,2.2,0.6,2.7,0.6c0.5,0,2.4-1.1,2.9-1.9
										C602.6,143,602.7,139.2,602.6,137.1L602.6,137.1z"/>
									<path id="XMLID_170_" class="st30" d="M598.3,134.1c0-1.7,1.4-7.8,1.7-13.4c0,0-2.5-5.9-3-7.6c-0.1-0.3-2.1-5.3-1.4-6.8
										c0.9-2,2.9-9.6,4.6-9.3c1.2,0.2,2.4,2.3,3.8,5.3c1.2,2.5,3,9.8,3,9.8c0.8,2.3,1.4,7.2,1.7,8.4c0.2,0.8-0.1,2.1-0.4,4.1
										c-0.4,2.4-2.6,10.5-4,11.6l-2.7-0.7C601.2,135.4,598.3,134.5,598.3,134.1z"/>
									<path id="XMLID_169_" class="st38" d="M603.8,137.9c0.2-0.4,0.5-1.4,0.5-1.7c0-0.3-5.2-1.4-5.9-2.1c0,0-0.8,2-0.5,2.1
										C598.1,136.3,603.6,138.3,603.8,137.9z"/>
									<path id="XMLID_168_" class="st27" d="M584.2,112.3c1.2-4.1,9.5-17.6,9.2-18.1c-0.3-0.6,0.8,0-2.4-1.8
										c-3.2-1.7-2.8-4.8-2.8-5.7h-4h-0.1h-4c0,0.9,0.4,3.7-2.4,5.9c-2.8,2.3-1.9,2.7-2.2,3.3c-0.3,0.5,7.4,12.3,8.7,16.4v0.4
										c0-0.1,0-0.2,0.1-0.2c0,0.1,0,0.2,0.1,0.2V112.3z"/>
									<g id="XMLID_165_">
										<path id="XMLID_167_" class="st7" d="M589.8,91.3c-1.7,3.6-5.7,3.3-5.7,3.3s-3.9,0.3-5.7-3.3c0,0-2.4,2.3-4.3,3.3
											c0,0,0.7,7.5,10,7.5s10-7.5,10-7.5C592.2,93.6,589.8,91.3,589.8,91.3z"/>
										<path id="XMLID_166_" class="st39" d="M589.1,91.3c-0.7,1.1-2.4,2.6-4.9,2.6s-4.2-1.5-4.9-2.6H578
											c2.1,3.9,6.1,3.7,6.1,3.7s4,0.2,6.1-3.7H589.1z"/>
									</g>
									<path id="XMLID_164_" d="M572,202.3c-1.5,2-2.4,2.6-4,3.2c-2.1,0.7-3.2,1-3.1,2.8c0.2,1.7,3.2,2,5.9,1.5
										c2-0.3,3.8-1.3,4.2-1.1c0.4,0.3,0.4,0.5,1.4,0.4c0.9,0,2-0.2,2.1-0.5c0.1-0.3,0.3-3.4,0-4.5c-0.3-1-0.4-1.8-0.4-1.8H572z"
										/>
									<path id="XMLID_163_" d="M596.6,202.3c1.5,2,2.4,2.6,4,3.2c2.1,0.7,3.2,1,3.1,2.8c-0.2,1.7-3.2,2-5.9,1.5
										c-2-0.3-3.8-1.3-4.2-1.1c-0.4,0.3-0.4,0.5-1.4,0.4c-0.9,0-2-0.2-2.1-0.5c-0.1-0.3-0.3-3.4,0-4.5c0.3-1,0.4-1.8,0.4-1.8
										H596.6z"/>
									<path id="XMLID_162_" class="st27" d="M570.1,144.4c-1.5,0.3-1.6-1.1-1.9-2.3c-0.3-1.2,0.1-2.2,0.7-1.7
										c0.6,0.5,0.9,2.9,1.3,2.9c0.4,0,1,0,0.5-2.6c-0.5-2.6-1.1-2.7-1.8-4.1c0,0-0.5-3.1-0.5-9.2l-0.2-1.2c-2,0.3-4,0.7-5.9,1.5
										c1,3.1,2.9,8.1,3,9.5l0,0c-0.1,2,0,5.8,0.5,6.6c0.5,0.8,2.4,1.9,2.9,1.9c0.5,0,2.3-0.3,2.7-0.6
										C571.7,144.9,571.7,144.2,570.1,144.4z"/>
									<path id="XMLID_161_" class="st30" d="M569.9,134.1c0-1.7-1.4-7.8-1.7-13.4c0,0,2.5-5.9,3-7.6c0.1-0.3,2.1-5.3,1.4-6.8
										c-0.9-2-2.9-9.6-4.6-9.3c-1.2,0.2-2.4,2.3-3.8,5.3c-1.2,2.5-3,9.8-3,9.8c-0.8,2.3-1.4,7.2-1.7,8.4
										c-0.2,0.8,0.1,2.1,0.4,4.1c0.4,2.4,2.6,10.5,4,11.6l2.7-0.7C567,135.4,569.9,134.5,569.9,134.1z"/>
									<path id="XMLID_160_" class="st38" d="M601.2,97.5c0.2-0.2-1.8-1.3-4.4-2.4c-2.6-1.2-4.5-2.9-6.7-3.4
										c-1.4-0.3-5.5,9.7-5.9,9.9c0,0,0,0.1,0,0c-0.5-1.1-4.5-9.9-5.8-9.6c-2.2,0.4-4.3,2-6.9,3.1c-2.6,1.2-4.6,2.2-4.4,2.4
										c0.2,0.2,3.1,6.6,3.7,9.5c0.6,2.9,1.1,4.7,0.5,6.1c-0.6,1.4,0.4,9.7,1.2,13.5c0.1,0.3,0.1,0.8,0.1,1.5c0,0.4,0,0.8-0.1,1.2
										c-0.2,1.2-3.5,16.2-3.6,30c-0.1,13.9,1.5,43.6,1.5,43.6h8.7c0,0,2.5-37.1,5.1-52.2c2.5,15.1,5.1,52.2,5.1,52.2h8.7
										c0,0,1.6-29.8,1.5-43.6c-0.1-13.9-3.4-28.9-3.6-30c-0.1-0.3-0.1-0.7-0.1-1.2c0-0.6,0.1-1.2,0.1-1.5
										c0.8-3.8,1.9-12.1,1.3-13.5c-0.6-1.4-0.2-3.2,0.4-6.1C598.1,104.2,601,97.7,601.2,97.5z"/>
									<rect id="XMLID_159_" x="572.3" y="126.3" class="st30" width="23.6" height="2.8"/>
									<g id="XMLID_157_">
										<rect id="XMLID_158_" x="583.8" y="101.6" class="st39" width="0.5" height="49.9"/>
									</g>
									<path id="XMLID_156_" class="st38" d="M564.5,137.9c-0.2-0.4-0.5-1.4-0.5-1.7c0-0.3,5.2-1.4,5.9-2.1c0,0,0.8,2,0.5,2.1
										C570.1,136.3,564.7,138.3,564.5,137.9z"/>
									<path id="XMLID_155_" class="st30" d="M579.9,89c-1.2,0.3-3,0.8-4.8,5.3c0,0,3.9,0.7,4.3,0.8c0.4,0.1,0.1,0.5,0.6,1.1
										c2.6,2.7,3.6,5.1,4.1,5.4c0,0-1-3.8-3.2-6.8c-1.2-1.2-1.9-3.7-1.2-5.1L579.9,89z"/>
									<path id="XMLID_154_" class="st30" d="M588.4,89c1.2,0.3,3,0.8,4.7,5.3c0,0-3.9,0.7-4.3,0.8c-0.4,0.1-0.1,0.5-0.6,1.1
										c-2.6,2.7-3.6,5.1-4.1,5.4c0,0,1-3.8,3.2-6.8c1.2-1.2,2-3.6,1.2-5L588.4,89z"/>
									<path id="XMLID_153_" class="st29" d="M588.5,88c-0.1,0.1-0.2,0.2-0.3,0.3c-0.4,0.3-0.8,0.6-1.2,0.9
										c-0.4,0.2-0.7,0.4-1.1,0.5c-0.4,0.1-0.7,0.2-1.1,0.2c-0.5,0-1,0-1.4,0c-0.4-0.1-0.8-0.2-1.1-0.3c-0.4-0.2-0.8-0.4-1.2-0.6
										c-0.4-0.3-0.8-0.6-1.2-1c-1.6-1.5-1.6-5.4-2-5.1c-0.9,0.6-1.4-1.2-1.5-2.2c-0.1-1,0.4-1.5,0.8-1c0.4,0.4,0.4,0,0.6-0.6
										c0-0.2,0.1-0.4,0.1-0.5c0.1-0.3,0.2-0.5,0.3-0.8c0.1-0.3,0.3-0.7,0.4-1c0.2-0.4,0.4-0.7,0.6-1c0.3-0.4,0.5-0.7,0.9-1
										c0.3-0.3,0.7-0.6,1.1-0.8c0.4-0.3,0.9-0.5,1.4-0.6c0.6-0.2,1.1-0.2,1.7-0.2c0.6,0,1.1,0.1,1.7,0.2c0.5,0.1,0.9,0.3,1.4,0.6
										c0.4,0.2,0.8,0.5,1.1,0.8c0.3,0.3,0.6,0.6,0.8,1c0.2,0.3,0.4,0.7,0.6,1c0.2,0.3,0.3,0.6,0.4,1c0.1,0.3,0.2,0.5,0.3,0.8
										c0.1,0.2,0.1,0.4,0.1,0.5c0.1,0.6,0.1,1.1,0.6,0.6c0.4-0.4,0.9,0,0.8,1s-0.7,2.8-1.5,2.2C590.1,82.6,590.1,86.4,588.5,88z"
										/>
									<path id="XMLID_152_" class="st30" d="M588.3,70.2c-3.2-1.6-6.1-1-7.6-0.5c-1.1,0.4-4.5,2.2-4.2,7.6
										c0.1,1.3,0.3,2.2,0.3,2.2s0.7,0.4,0.7,1.4h0.7c0,0,0.1-1.4,0.3-1.9c0.2-0.5,2-1.6,1.7-1c-0.3,0.5-0.3,0.7,0.6,0.1
										c0.9-0.6,2-1.5,1.8-0.9c-0.2,0.5,1-0.3,1.6-0.8c1-0.8,1.4-0.8,1.1-0.3c-0.4,0.6,1.5-0.9,2.5-1c1-0.2,0.4,1.5,1.3,2.7
										c0.9,1.3,0.8,2.7,1.2,3.2h0.5c0-0.1,0.2-1.1,0.6-1.4c0.6-0.5,0.9-4.5,0-6.4C590.6,71.2,588.8,70.4,588.3,70.2z"/>
									<path id="XMLID_151_" class="st30" d="M572,103.5c0,0.9-0.1,1.6,0.4,1.8c1.5,0.6,3.1,1,4,1c0.8,0,3.7-0.9,4.3-1.6
										c0.2-0.3,0.2-1.7-0.2-1.8C579.7,102.9,572,103.1,572,103.5z"/>
									<path id="XMLID_150_" class="st30" d="M595.8,103.5c0,0.9,0.1,1.6-0.4,1.8c-1.5,0.6-3.1,1-4,1c-0.8,0-3.7-0.9-4.3-1.6
										c-0.2-0.3-0.2-1.7,0.2-1.8C588.1,102.9,595.8,103.1,595.8,103.5z"/>
									<g id="XMLID_146_">
										<path id="XMLID_149_" class="st40" d="M584.1,67.3c-7.8,0-8.8,6.6-8.8,9.8c0,0,1.1,0.5,3,0.8c1.9,0.3,5.8,0.7,5.8,0.7
											s3.9-0.4,5.8-0.7s3-0.8,3-0.8C592.9,73.9,591.9,67.3,584.1,67.3z"/>
										<path id="XMLID_148_" class="st41" d="M589.3,77.9c-1.6,0.3-5.2,0.5-5.2,0.5s-3.7-0.2-5.2-0.5c-3.6-0.8-3.9-1.1-3.9-0.4
											s5.2,2.3,9.2,2.3c4.1,0,9.2-1.6,9.2-2.3S592.9,77.1,589.3,77.9z"/>
										<path id="XMLID_147_" class="st41" d="M579.4,68.3c0,0,3.3,5.5,3.5,10.1h1.1h0.2h1.1c0.2-4.6,3.5-10.1,3.5-10.1
											c-1-1-3.1-1.7-4.8-1.7C582.3,66.7,580.4,67.4,579.4,68.3z"/>
									</g>
								</g>
							</g>
						</g>
					</g>
					<g>
						<circle class="st25" cx="377.1" cy="104.8" r="43"/>
						<g>
							<defs>
								<ellipse id="SVGID_10_" cx="376.6" cy="104.8" rx="42.9" ry="41.8"/>
							</defs>
							<clipPath id="SVGID_11_">
								<use xlink:href="#SVGID_10_"  style="overflow:visible;"/>
							</clipPath>
							<g id="XMLID_114_" class="st42">
								<path id="XMLID_144_" class="st43" d="M366.5,102.1c-0.2-0.8-1.2-2.1-2-1.9c0,0-0.1,0-0.1,0.1c-0.3,0.2-0.4,0.9-0.6,1.7
									s-6.4,16.5-6,18.3c0.4,1.6,6.8,12.5,7.9,12.8c0.4-0.2,2.3-1.8,2.7-2.1c1.3-1,2.4-2.1,2.4-2.1c-0.9-0.9-5.6-8-5.8-9.5
									c0,0,2.2-6.5,2.7-8.3l-0.3-3.9C367.3,104.7,366.9,103.8,366.5,102.1z"/>
								<path id="XMLID_143_" class="st43" d="M386.7,102.1c0.2-0.8,1.2-2.1,2-1.9c0,0,0.1,0,0.1,0.1c0.3,0.2,0.4,0.9,0.6,1.7
									s6.4,16.5,6,18.3c-0.4,1.6-6.8,12.5-7.9,12.8c-0.4-0.2-2.3-1.8-2.7-2.1c-1.3-1-2.4-2.1-2.4-2.1c0.9-0.9,5.6-8,5.8-9.5
									c0,0-2.2-6.5-2.7-8.3l0.3-3.9C385.9,104.7,386.3,103.8,386.7,102.1z"/>
								<path id="XMLID_142_" d="M371.5,202.7c-1.2,1.6-2.5,1.7-3.8,2.1c-1.7,0.6-2.5,0.3-2.4,2.5c0.1,1.3,2.5,1.5,4.7,1.2
									c1.6-0.3,3-1,3.3-0.9c0.3,0.2,0.3,0.4,1.1,0.3c0.7,0,1.5-0.2,1.7-0.4c0.1-0.3,0.3-2.7,0-3.5s-0.6-1.4-0.6-1.4H371.5z"/>
								<path id="XMLID_141_" d="M381.8,202.7c1.2,1.6,2.5,1.7,3.8,2.1c1.7,0.6,2.5,0.3,2.4,2.5c-0.1,1.3-2.5,1.5-4.7,1.2
									c-1.6-0.3-3-1-3.3-0.9c-0.3,0.2-0.3,0.4-1.1,0.3c-0.7,0-1.5-0.2-1.7-0.4c-0.1-0.3-0.3-2.7,0-3.5s0.6-1.4,0.6-1.4H381.8z"/>
								<path id="XMLID_140_" class="st44" d="M385.3,128.7H368c-0.8,1.7-4.4,8.9-2.5,25.2c1.9,16.3,5.2,46.1,5.2,49h5
									c0,0-0.1-58.6,0.8-59.5h0.2c1,1,0.8,59.5,0.8,59.5h5c0-2.9,3.2-32.7,5.2-49C389.7,137.6,386.4,130.4,385.3,128.7z"/>
								<path id="XMLID_139_" class="st45" d="M376.7,117.9c1-3.9,8-16.4,7.8-16.9c-0.2-0.5,0.7,0-2-1.7s-2.3-4.5-2.4-5.3h-3.4h-0.1
									h-3.4c0,0.8,0.3,3.7-2.4,5.3s-1.6,1.8-1.9,2.3C368.7,102.2,375.5,114,376.7,117.9l-0.1,0.4c0-0.1,0-0.1,0-0.2
									c0,0.1,0,0.1,0,0.2V117.9z"/>
								<path id="XMLID_138_" class="st46" d="M380.8,94.2c-0.1,0.1-0.2,0.2-0.3,0.3c-0.4,0.3-0.7,0.6-1.1,0.8
									c-0.3,0.2-0.7,0.4-1.1,0.5c-0.3,0.1-0.7,0.2-1.1,0.2c-0.5,0-0.9,0-1.4,0c-0.4-0.1-0.7-0.2-1.1-0.3c-0.4-0.2-0.8-0.4-1.1-0.6
									c-0.4-0.3-0.8-0.6-1.2-0.9c-1.5-1.5-1.5-5.2-1.9-4.9c-0.8,0.6-1.4-1.1-1.5-2.1c-0.1-1,0.3-1.4,0.8-1c0.4,0.4,0.4,0,0.5-0.6
									c0-0.2,0.1-0.3,0.1-0.5c0.1-0.3,0.2-0.5,0.3-0.8c0.1-0.3,0.3-0.6,0.4-0.9c0.2-0.3,0.4-0.7,0.6-1c0.2-0.3,0.5-0.7,0.8-1
									c0.3-0.3,0.7-0.6,1-0.8c0.4-0.2,0.8-0.4,1.3-0.6c0.5-0.2,1.1-0.2,1.6-0.2c0.5,0,1.1,0.1,1.6,0.2c0.5,0.1,0.9,0.3,1.3,0.6
									c0.4,0.2,0.7,0.5,1,0.8c0.3,0.3,0.6,0.6,0.8,1c0.2,0.3,0.4,0.6,0.6,1c0.2,0.3,0.3,0.6,0.4,0.9c0.1,0.3,0.2,0.5,0.3,0.8
									c0,0.2,0.1,0.3,0.1,0.5c0.1,0.5,0.1,1,0.5,0.6c0.4-0.4,0.9,0,0.8,1c-0.1,1-0.6,2.7-1.5,2.1C382.3,89,382.3,92.7,380.8,94.2z
									"/>
								<path id="XMLID_137_" class="st30" d="M373.4,82.6c1.4,0.2,1.9,0.5,4.3,1.8c2,1.1,4.7,1.9,5,2.2c0.2,0.1,0.3-0.5,0.9-0.7
									c0.2-0.1,0.4-3.6-1-6c-1.7-2.8-6.4-3.9-9.7-2.1c-0.3,0.2-0.1,0.3-0.9,0.5c-1.7,0.4-2.7,3.1-2.7,5.7c0,2.6,0.3,1.5,0.7,2.2
									c0.2,0.3,0.3-1.2,1.7-2.3L373.4,82.6z"/>
								<path id="XMLID_136_" class="st47" d="M371.3,98.3c0-0.3-6.9,1.5-6.9,2c0,0.5,0.4,12,1.6,16.7c0.6,2.4,0.8,3.4,0.6,9.9
									c-0.1,5.3-1.8,10.4-1.9,13.4c0,0,6.6,1.7,17.6,1c0,0,0.4-36-0.3-36.8c-0.7-0.8-1.9-2.2-4.7-2.6S371.4,100.8,371.3,98.3z"/>
								<path id="XMLID_135_" class="st47" d="M382.1,98.3c0-0.3,6.7,1.5,6.7,2c0,0.5-0.4,12-1.6,16.7c-0.6,2.4-0.9,3.4-0.8,9.9
									c0.1,5.3,1.7,10.5,1.9,13.4c0,0-6.4,1.7-17.5,1c0,0-0.5-36.1,0.2-36.9c0.7-0.8,3.2-2.1,5.5-2.6
									C380.1,101.1,382,100.8,382.1,98.3z"/>
								<path id="XMLID_134_" class="st48" d="M381.2,107.7c0,0.4-0.3,0.7-0.7,0.7c-0.4,0-0.7-0.3-0.7-0.7c0-0.4,0.3-0.7,0.7-0.7
									C380.9,107,381.2,107.3,381.2,107.7z"/>
								<path id="XMLID_133_" class="st48" d="M373.3,107.4c0,0.4-0.3,0.7-0.7,0.7c-0.4,0-0.7-0.3-0.7-0.7c0-0.4,0.3-0.7,0.7-0.7
									C373,106.7,373.3,107,373.3,107.4z"/>
								<path id="XMLID_132_" class="st48" d="M381.2,115c0,0.4-0.3,0.7-0.7,0.7c-0.4,0-0.7-0.3-0.7-0.7c0-0.4,0.3-0.7,0.7-0.7
									C380.9,114.3,381.2,114.6,381.2,115z"/>
								<path id="XMLID_131_" class="st48" d="M373.3,114.7c0,0.4-0.3,0.7-0.7,0.7c-0.4,0-0.7-0.3-0.7-0.7c0-0.4,0.3-0.7,0.7-0.7
									C373,114,373.3,114.3,373.3,114.7z"/>
								<path id="XMLID_130_" class="st48" d="M381.2,122.3c0,0.4-0.3,0.7-0.7,0.7c-0.4,0-0.7-0.3-0.7-0.7s0.3-0.7,0.7-0.7
									C380.9,121.6,381.2,121.9,381.2,122.3z"/>
								<path id="XMLID_129_" class="st48" d="M373.3,122c0,0.4-0.3,0.7-0.7,0.7c-0.4,0-0.7-0.3-0.7-0.7c0-0.4,0.3-0.7,0.7-0.7
									C373,121.3,373.3,121.6,373.3,122z"/>
								<path id="XMLID_128_" class="st48" d="M381.2,130.9c0,0.4-0.3,0.7-0.7,0.7c-0.4,0-0.7-0.3-0.7-0.7c0-0.4,0.3-0.7,0.7-0.7
									C380.9,130.2,381.2,130.5,381.2,130.9z"/>
								<path id="XMLID_127_" class="st48" d="M373.3,130.6c0,0.4-0.3,0.7-0.7,0.7c-0.4,0-0.7-0.3-0.7-0.7c0-0.4,0.3-0.7,0.7-0.7
									C373,129.9,373.3,130.2,373.3,130.6z"/>
								<path id="XMLID_126_" class="st48" d="M375.2,101.5c0,0,0.2-1.3,0.2-2.2c0-0.9-1.8-0.9-2.2-1.6c-0.4-0.6-0.3-1.3-0.2-1.9
									c0,0-0.5-0.3-1.1,1.3c-0.6,1.5-0.9,0.9-1,1.3C370.9,98.8,370.6,100.7,375.2,101.5z"/>
								<path id="XMLID_125_" class="st48" d="M378,101.6c0,0-0.2-1.3-0.2-2.3c0-0.9,1.8-0.9,2.2-1.6c0.4-0.6,0.3-1.4,0.2-1.9
									c0,0,0.5-0.3,1.1,1.3c0.6,1.5,0.9,0.8,0.9,1.2C382.2,98.7,382.6,100.7,378,101.6z"/>
								<g id="XMLID_123_">
									<path id="XMLID_124_" class="st30" d="M370.7,141.3c0-3.7-0.4-36.2,0.3-37c0.7-0.8,4-2.5,6.9-2.9c2.7-0.4,4.3-1.4,4.3-3.2
										l0.2,0c0,1.9-1.6,2.9-4.5,3.3c-2.8,0.4-6.1,2-6.8,2.8c-0.5,0.7-0.4,22.4-0.2,36.9L370.7,141.3z"/>
								</g>
								<path id="XMLID_122_" class="st30" d="M386.4,126.1c-1.6,0-5.6,0.1-9.8,0.2c-4.3-0.1-8.3-0.2-9.8-0.2
									c-1.5,0-4.2,37.5-3.9,38.2c0.1,0.3,5.5,0.6,11.9,0.8h3.7c6.3-0.2,11.7-0.5,11.9-0.8C390.6,163.7,388,126.1,386.4,126.1z"/>
								<g id="XMLID_115_">
									<path id="XMLID_121_" class="st47" d="M368.5,76.4c-1.2-0.5-3.2-2.2-3-3.9c0.2-1.7,1.7-4.1,2.1-4.5
										c0.4-0.4,4.4-2.3,5.4-2.6c1.1-0.3,4.6-0.5,5.7-0.2c1.1,0.2,5.3,2,5.4,2.7c0.1,0.7,3,3.7,3,4.4c0,0.7-1.2,3.5-2.7,4.3H368.5
										z"/>
									<path id="XMLID_120_" class="st43" d="M384.6,76.3c-0.5-0.8-2.3-4.4-7.9-4.5v0c0,0-0.1,0-0.1,0c0,0-0.1,0-0.1,0v0
										c-5.2,0.1-7.3,3.4-7.9,4.5c-0.1,0.1-0.1,0.3-0.1,0.5c0.1,1.3,0.8,6.8,1,6.5c2.2-3,5.9-3.5,7.2-3.5c1.3,0,5.1,0.5,7.1,3.7
										C383.9,83.7,384.7,76.5,384.6,76.3z"/>
									<path id="XMLID_119_" class="st43" d="M370.2,74.2c-0.7-2.3-2.1-6.4-2.6-6.3C367,68.1,370.3,74.4,370.2,74.2z"/>
									<path id="XMLID_118_" class="st43" d="M374.2,72.2c-0.2-2.4-0.8-6.8-1.4-6.8C372.3,65.4,374.3,72.4,374.2,72.2z"/>
									<path id="XMLID_117_" class="st43" d="M377.8,72c0.6-2.3,1.6-6.6,1.1-6.8C378.3,64.8,377.7,72.2,377.8,72z"/>
									<path id="XMLID_116_" class="st43" d="M380.9,72.9c1.4-1.6,3.6-4.8,3.3-5.3C383.8,67.2,380.8,73.1,380.9,72.9z"/>
								</g>
							</g>
						</g>
					</g>
					<g>
						<circle class="st25" cx="273.3" cy="104.8" r="43"/>
						<g>
							<defs>
								<ellipse id="SVGID_12_" cx="272.7" cy="104.8" rx="42.9" ry="41.8"/>
							</defs>
							<clipPath id="SVGID_13_">
								<use xlink:href="#SVGID_12_"  style="overflow:visible;"/>
							</clipPath>
							<g id="XMLID_1_" class="st49">
								<path id="XMLID_113_" class="st50" d="M272.7,112.1c1.2-4.1,9.5-17.6,9.2-18.1c-0.3-0.6,0.8,0-2.4-1.8
									c-3.2-1.7-2.8-4.8-2.8-5.7h-4h-0.1h-4c0,0.9,0.4,3.7-2.4,5.9c-2.8,2.3-1.9,2.7-2.2,3.3c-0.3,0.5,7.4,12.3,8.7,16.4v0.4
									c0-0.1,0-0.2,0.1-0.2c0,0.1,0,0.2,0.1,0.2V112.1z"/>
								<path id="XMLID_112_" class="st51" d="M267.2,92.1c0-1.4-3.5,0.6-5.6,1.5c-2.1,0.9-5.5,1.4-5.3,1.8c0.3,0.4,2.6,3,2.8,6.9
									c0.2,3.9,0.3,11.4,1.4,15.3c1.1,3.8,0.1,9.4,1.3,10.4s7.9,1.7,10.9,1.7v-28.3C272.6,101.4,267.2,93.7,267.2,92.1z"/>
								<path id="XMLID_111_" class="st51" d="M278.1,92.1c0-1.4,3.5,0.6,5.6,1.5c2.1,0.9,5.5,1.4,5.3,1.8c-0.3,0.4-2.6,3-2.8,6.9
									c-0.2,3.9-0.3,11.4-1.4,15.3c-1.1,3.8-0.1,9.4-1.3,10.4s-7.9,1.7-10.9,1.7v-28.3C272.6,101.4,278.1,93.7,278.1,92.1z"/>
								<g id="XMLID_93_" class="st52">
									<path id="XMLID_110_" class="st47" d="M260.9,120.9c0,0.2,0,0.4,0,0.6h11.7v-0.6H260.9z"/>
									<path id="XMLID_109_" class="st47" d="M260.7,118.7c0,0.2,0.1,0.4,0.1,0.6h11.9v-0.6H260.7z"/>
									<path id="XMLID_108_" class="st47" d="M259.8,114.2c0,0.2,0,0.4,0.1,0.6h12.8v-0.6H259.8z"/>
									<path id="XMLID_107_" class="st47" d="M260.2,116.5c0,0.2,0.1,0.4,0.1,0.6h12.4v-0.6H260.2z"/>
									<path id="XMLID_106_" class="st47" d="M267.2,92.3c0-0.1,0-0.2,0-0.2c0-0.8-1.3-0.4-2.8,0.2H267.2z"/>
									<path id="XMLID_105_" class="st47" d="M259.5,112c0,0.2,0,0.4,0.1,0.6h13V112H259.5z"/>
									<path id="XMLID_104_" class="st47" d="M261,123.2c0,0.2,0,0.4,0,0.6h11.7v-0.6H261z"/>
									<path id="XMLID_103_" class="st47" d="M261.5,127.7c0.1,0.1,0.1,0.2,0.2,0.3c0.1,0.1,0.3,0.2,0.5,0.3h10.4v-0.6H261.5z"/>
									<path id="XMLID_102_" class="st47" d="M261,125.4c0,0.2,0,0.4,0,0.6h11.6v-0.6H261z"/>
									<path id="XMLID_101_" class="st47" d="M256.9,96.3c0.1,0.2,0.2,0.3,0.4,0.6h12.3c-0.1-0.2-0.2-0.4-0.3-0.6H256.9z"/>
									<path id="XMLID_100_" class="st47" d="M259.4,109.7c0,0.2,0,0.4,0,0.6h13.2v-0.6H259.4z"/>
									<path id="XMLID_99_" class="st47" d="M258.1,98.5c0.1,0.2,0.1,0.4,0.2,0.6H271c-0.1-0.2-0.2-0.4-0.4-0.6H258.1z"/>
									<path id="XMLID_98_" class="st47" d="M260.3,94c-0.7,0.2-1.3,0.4-1.9,0.6h9.9c-0.1-0.2-0.2-0.4-0.3-0.6H260.3z"/>
									<path id="XMLID_97_" class="st47" d="M258.8,100.7c0,0.2,0.1,0.4,0.1,0.6h13.7c-0.1-0.1-0.2-0.3-0.4-0.6H258.8z"/>
									<path id="XMLID_96_" class="st47" d="M259.3,107.5c0,0.2,0,0.4,0,0.6h13.4v-0.6H259.3z"/>
									<path id="XMLID_95_" class="st47" d="M259.1,103c0,0.2,0,0.4,0,0.6h13.6V103H259.1z"/>
									<path id="XMLID_94_" class="st47" d="M259.1,105.2c0,0.2,0,0.4,0,0.6h13.5v-0.6H259.1z"/>
								</g>
								<g id="XMLID_85_" class="st53">
									<path id="XMLID_92_" class="st11" d="M271,99.1c-0.2-0.3-0.4-0.6-0.7-1v31.5c0.2,0,0.4,0,0.7,0V99.1z"/>
									<path id="XMLID_91_" class="st11" d="M268.7,95.4c-0.2-0.4-0.5-0.8-0.7-1.2v35.2c0.2,0,0.4,0,0.7,0.1V95.4z"/>
									<path id="XMLID_90_" class="st11" d="M266.3,91.7c-0.2,0-0.4,0.1-0.7,0.2v37.3c0.2,0,0.4,0.1,0.7,0.1V91.7z"/>
									<path id="XMLID_89_" class="st11" d="M264,92.5c-0.2,0.1-0.4,0.2-0.7,0.3v35.8c0.2,0.1,0.4,0.1,0.7,0.2V92.5z"/>
									<path id="XMLID_88_" class="st11" d="M259.3,94.3c-0.2,0.1-0.4,0.1-0.7,0.2v5.4c0.2,0.7,0.4,1.5,0.4,2.4
										c0.1,1.5,0.1,3.5,0.2,5.6V94.3z"/>
									<path id="XMLID_87_" class="st11" d="M261,122.5c0.1,2.4,0,4.6,0.7,5.4V93.6c0,0-0.1,0-0.1,0c-0.2,0.1-0.4,0.1-0.6,0.2
										V122.5z"/>
									<path id="XMLID_86_" class="st11" d="M256.9,95c-0.5,0.2-0.7,0.3-0.6,0.4c0.1,0.1,0.3,0.4,0.6,0.9V95z"/>
								</g>
								<g id="XMLID_67_" class="st52">
									<path id="XMLID_84_" class="st47" d="M284.4,120.9c0,0.2,0,0.4,0,0.6h-11.7v-0.6H284.4z"/>
									<path id="XMLID_83_" class="st47" d="M284.6,118.7c0,0.2-0.1,0.4-0.1,0.6h-11.9v-0.6H284.6z"/>
									<path id="XMLID_82_" class="st47" d="M285.5,114.2c0,0.2,0,0.4-0.1,0.6h-12.8v-0.6H285.5z"/>
									<path id="XMLID_81_" class="st47" d="M285.1,116.5c0,0.2-0.1,0.4-0.1,0.6h-12.4v-0.6H285.1z"/>
									<path id="XMLID_80_" class="st47" d="M278.1,92.3c0-0.1,0-0.2,0-0.2c0-0.8,1.3-0.4,2.8,0.2H278.1z"/>
									<path id="XMLID_79_" class="st47" d="M285.7,112c0,0.2,0,0.4-0.1,0.6h-13V112H285.7z"/>
									<path id="XMLID_78_" class="st47" d="M284.3,123.2c0,0.2,0,0.4,0,0.6h-11.7v-0.6H284.3z"/>
									<path id="XMLID_77_" class="st47" d="M283.8,127.7c-0.1,0.1-0.1,0.2-0.2,0.3c-0.1,0.1-0.3,0.2-0.5,0.3h-10.4v-0.6H283.8z"
										/>
									<path id="XMLID_76_" class="st47" d="M284.2,125.4c0,0.2,0,0.4,0,0.6h-11.6v-0.6H284.2z"/>
									<path id="XMLID_75_" class="st47" d="M288.4,96.3c-0.1,0.2-0.2,0.3-0.4,0.6h-12.3c0.1-0.2,0.2-0.4,0.3-0.6H288.4z"/>
									<path id="XMLID_74_" class="st47" d="M285.9,109.7c0,0.2,0,0.4,0,0.6h-13.2v-0.6H285.9z"/>
									<path id="XMLID_73_" class="st47" d="M287.2,98.5c-0.1,0.2-0.1,0.4-0.2,0.6h-12.7c0.1-0.2,0.2-0.4,0.4-0.6H287.2z"/>
									<path id="XMLID_72_" class="st47" d="M285,94c0.7,0.2,1.3,0.4,1.9,0.6h-9.9c0.1-0.2,0.2-0.4,0.3-0.6H285z"/>
									<path id="XMLID_71_" class="st47" d="M286.5,100.7c0,0.2-0.1,0.4-0.1,0.6h-13.7c0.1-0.1,0.2-0.3,0.4-0.6H286.5z"/>
									<path id="XMLID_70_" class="st47" d="M286,107.5c0,0.2,0,0.4,0,0.6h-13.4v-0.6H286z"/>
									<path id="XMLID_69_" class="st47" d="M286.2,103c0,0.2,0,0.4,0,0.6h-13.6V103H286.2z"/>
									<path id="XMLID_68_" class="st47" d="M286.1,105.2c0,0.2,0,0.4,0,0.6h-13.5v-0.6H286.1z"/>
								</g>
								<g id="XMLID_33_" class="st53">
									<path id="XMLID_66_" class="st11" d="M274.3,99.1c0.2-0.3,0.4-0.6,0.7-1v31.5c-0.2,0-0.4,0-0.7,0V99.1z"/>
									<path id="XMLID_65_" class="st11" d="M276.6,95.4c0.2-0.4,0.5-0.8,0.7-1.2v35.2c-0.2,0-0.4,0-0.7,0.1V95.4z"/>
									<path id="XMLID_38_" class="st11" d="M279,91.7c0.2,0,0.4,0.1,0.7,0.2v37.3c-0.2,0-0.4,0.1-0.7,0.1V91.7z"/>
									<path id="XMLID_37_" class="st11" d="M281.3,92.5c0.2,0.1,0.4,0.2,0.7,0.3v35.8c-0.2,0.1-0.4,0.1-0.7,0.2V92.5z"/>
									<path id="XMLID_36_" class="st11" d="M286,94.3c0.2,0.1,0.4,0.1,0.7,0.2v5.4c-0.2,0.7-0.4,1.5-0.4,2.4
										c-0.1,1.5-0.1,3.5-0.2,5.6V94.3z"/>
									<path id="XMLID_35_" class="st11" d="M284.3,122.5c-0.1,2.4,0,4.6-0.7,5.4V93.6c0,0,0.1,0,0.1,0c0.2,0.1,0.4,0.1,0.6,0.2
										V122.5z"/>
									<path id="XMLID_34_" class="st11" d="M288.4,95c0.5,0.2,0.7,0.3,0.6,0.4c-0.1,0.1-0.3,0.4-0.6,0.9V95z"/>
								</g>
								<path id="XMLID_32_" class="st54" d="M265.9,92.3c0.4-1.3,1.4-2.1,2.1-2.3l-0.3,0.6c0,0-0.7,1.7,0.3,3
									c0.9,1.1,2.3,3.2,3,4.3l0,0c0,0,0.1,0.1,0.1,0.2c0,0,0,0,0,0.1c0,0,0,0.1,0.1,0.1c0.1,0.1,0.1,0.2,0.2,0.3
									c0.7,1.4,1.3,2.8,1.3,2.8s-0.5-0.4-1.6-1.6c-0.8-0.9-1.3-1.2-1.3-1.2s-0.6-0.1,0.1-0.4l0.4-0.2c-2.7-1.4-3.7,0.6-4.6,0.7
									C264.8,98.8,265.5,93.6,265.9,92.3z"/>
								<path id="XMLID_31_" class="st54" d="M279.4,92.3c-0.4-1.3-1.4-2-2.1-2.2l0.4,0.6c0,0,0.6,1.6-0.4,2.9
									c-0.9,1.1-2.3,3.2-3,4.3l0,0c0,0-0.1,0.1-0.1,0.2c0,0,0,0,0,0.1c0,0,0,0.1-0.1,0.1c-0.1,0.1-0.1,0.2-0.2,0.3
									c-0.7,1.4-1.3,2.8-1.3,2.8s0.5-0.4,1.6-1.6c0.8-0.9,1.4-1.2,1.4-1.2s0.5,0-0.1-0.3l-0.4-0.2c2.7-1.4,3.7,0.6,4.6,0.7
									C280.5,98.8,279.8,93.6,279.4,92.3z"/>
								<path id="XMLID_30_" class="st55" d="M260.9,94.1c0.2,2.5,1.6,17.8,1.9,17.7c0.2-0.1,3.2,0,3.2-0.3c0-0.3-2-19.3-2.5-19
									C262.9,92.9,260.8,93.3,260.9,94.1z"/>
								<path id="XMLID_29_" class="st55" d="M284.5,94.1c-0.2,2.5-1.6,17.8-1.9,17.7c-0.2-0.1-3.2,0-3.2-0.3c0-0.3,2-19.3,2.5-19
									C282.5,92.9,284.6,93.3,284.5,94.1z"/>
								<path id="XMLID_28_" class="st55" d="M284.3,128.1c-0.1-0.3-0.1-0.7-0.1-1.2c0-0.6-0.2-1.4-0.3-1.6
									c-0.8-4.5,0.1-16.9-0.5-18.4c-0.1-0.2-0.1-0.6-0.7-0.6h-9.8h-0.2h-9.9c-0.6,0-0.7,0.4-0.7,0.6c-0.6,1.4,0.2,13.6-0.3,18.6
									c0,0.3-0.3,0.8-0.3,1.4c0,0.4,0,0.8-0.1,1.2c-0.2,1.2-2.9,11.3-3,25.1c0,5.7,1.8,26.8,2.6,28.8h9c0.1-3.6,1.8-29.3,2.9-37.3
									c1.1,8,2.7,33.8,2.9,37.3h9c0.9-2,2.7-23.1,2.6-28.8C287.2,139.4,284.5,129.2,284.3,128.1z"/>
								<path id="XMLID_27_" class="st56" d="M277.3,88c-0.1,0.1-0.2,0.2-0.4,0.3c-0.4,0.3-0.8,0.6-1.2,0.9
									c-0.4,0.2-0.8,0.4-1.2,0.5c-0.4,0.1-0.8,0.2-1.2,0.2c-0.5,0-1,0-1.5,0c-0.4-0.1-0.8-0.2-1.2-0.3c-0.4-0.2-0.8-0.4-1.2-0.6
									c-0.4-0.3-0.9-0.6-1.3-1c-1.6-1.6-1.6-5.6-2-5.3c-0.9,0.6-1.5-1.2-1.6-2.3c-0.1-1.1,0.4-1.5,0.8-1.1
									c0.5,0.5,0.5-0.1,0.6-0.6c0-0.2,0.1-0.4,0.1-0.6c0.1-0.3,0.2-0.6,0.3-0.8c0.1-0.3,0.3-0.7,0.5-1c0.2-0.4,0.4-0.7,0.7-1.1
									c0.3-0.4,0.6-0.7,0.9-1c0.3-0.3,0.7-0.6,1.1-0.9c0.4-0.3,0.9-0.5,1.4-0.6c0.6-0.2,1.2-0.2,1.8-0.2c0.6,0,1.2,0.1,1.7,0.2
									c0.5,0.1,1,0.4,1.4,0.6c0.4,0.2,0.8,0.5,1.1,0.9c0.3,0.3,0.6,0.7,0.9,1c0.2,0.3,0.5,0.7,0.7,1.1c0.2,0.3,0.3,0.7,0.5,1
									c0.1,0.3,0.2,0.6,0.3,0.8c0.1,0.2,0.1,0.4,0.1,0.6c0.1,0.6,0.1,1.1,0.6,0.6c0.5-0.5,0.9,0,0.8,1.1c-0.1,1.1-0.7,2.9-1.6,2.3
									C279,82.3,279,86.4,277.3,88z"/>
								<path id="XMLID_26_" class="st30" d="M266,72.4c-0.4,0.5-0.7,1.2-0.8,1.8c-0.3,1.1-0.2,2.3,0,3.4c0.2,1.2,0.3,2.3,0.7,3.4
									c0.1,0.3,0.3,0.7,0.7,0.7c0.4,0,0.5-0.5,0.6-1.1c0.2-1.5,0.8-2.6,0.2-4.1c1-0.4,2.1-1.1,2.8-2.1c0.7,1.1,2.6,2,3.2,2.2
									c1.5,0.4,3.5,0.7,4.7-0.3c-0.3,1.9,0.3,2.8,0.7,4.7c0,0.1,0.2,0.5,0.6,0.5c0.3,0,0.4-0.2,0.5-0.5c0.3-1.3,0.7-2.5,0.7-3.9
									c0-1,0-2.2-0.3-3.1c-0.6-1.9-2.1-3.2-3.9-4c-2.1-1-5.1-1.1-6.4,1.1c-0.1,0.1-0.1,0.2-0.2,0.3c-0.1,0-1.3-0.3-1.9-0.2
									C267.2,71.3,266.4,71.8,266,72.4z"/>
								<path id="XMLID_25_" class="st57" d="M268.7,203.2c0.2-2.1,1.7-18.2,2-21.2c0-0.3-0.2-0.5-0.5-0.5h-9.6
									c-0.3,0-0.5,0.2-0.5,0.5c0.2,2.9,1.4,18.1,1.6,21.1c-1.4,1.9-1.7,2.4-3.3,3c-2.1,0.7-3.2,1-3.1,2.8c0.2,1.7,3.2,2,5.9,1.5
									c2-0.3,3.8-1.3,4.2-1.1c0.4,0.3,0.4,0.5,1.4,0.4c0.9,0,2-0.2,2.1-0.5c0.1-0.3,0.3-3.4,0-4.5
									C268.9,204,268.7,203.5,268.7,203.2z"/>
								<path id="XMLID_24_" class="st57" d="M276.9,203.2c-0.2-2.1-1.7-18.2-2-21.2c0-0.3,0.2-0.5,0.5-0.5h10.1
									c0,0-1.4,18.3-1.7,21.6c1.4,1.9,1.7,2.4,3.3,3c2.1,0.7,3.2,1,3.1,2.8c-0.2,1.7-3.2,2-5.9,1.5c-2-0.3-3.8-1.3-4.2-1.1
									c-0.4,0.3-0.4,0.5-1.4,0.4c-0.9,0-2-0.2-2.1-0.5c-0.1-0.3-0.3-3.4,0-4.5C276.7,204,276.9,203.5,276.9,203.2z"/>
								<path id="XMLID_23_" class="st7" d="M265.3,108.2c0,0.6-0.5,1.1-1.1,1.1c-0.6,0-1.1-0.5-1.1-1.1s0.5-1.1,1.1-1.1
									C264.8,107.1,265.3,107.6,265.3,108.2z"/>
								<circle id="XMLID_22_" class="st7" cx="281.2" cy="108.2" r="1.1"/>
								
									<pattern  id="XMLID_3_" xlink:href="#New_Pattern_Swatch_45" patternTransform="matrix(0.8437 0 0 0.8437 -1252.8291 -1133.6021)">
								</pattern>
								<path id="XMLID_21_" class="st58" d="M284.5,75.9c0,1.5-5.2,2.7-11.7,2.7s-11.7-1.2-11.7-2.7c0-1.5,5.2-2.7,11.7-2.7
									S284.5,74.4,284.5,75.9z"/>
								
									<pattern  id="XMLID_4_" xlink:href="#New_Pattern_Swatch_45" patternTransform="matrix(0.8437 0 0 0.8437 -1252.8291 -1133.6021)">
								</pattern>
								<path id="XMLID_20_" class="st59" d="M277.7,67.4c-1.9-0.5-3.4,0.3-4.9,0.3s-3.1-0.8-4.9-0.3c-1.9,0.5-2.7,5.5-2.7,7.5h7.6
									h7.6C280.4,72.9,279.6,67.9,277.7,67.4z"/>
								<path id="XMLID_19_" class="st51" d="M272.8,74.5c-4.9,0-7.6-1.5-7.6-1.5V75c2.8,1.7,7.6,1.5,7.6,1.5s4.8,0.2,7.6-1.5V73
									C280.4,73,277.7,74.5,272.8,74.5z"/>
								<path id="XMLID_18_" class="st50" d="M254.5,133.5c-0.1,2.1-0.2,6,0.4,6.8c0.5,0.8,2.5,2,3,2c0.5,0,2.4-0.3,2.8-0.5
									c0.2-0.2,0.2-0.9-1.4-0.7c-1.5,0.2-1.6-1.2-1.9-2.5c-0.3-1.2,0.2-2.2,0.8-1.7c0.6,0.5,0.8,3,1.2,3c0.4,0.1,1,0,0.6-2.7
									c-0.5-2.8-1.1-2.8-1.8-4.5L254.5,133.5z"/>
								<path id="XMLID_17_" class="st50" d="M290.5,133.5c0.1,2.1,0.2,6-0.4,6.8c-0.5,0.8-2.5,2-3,2c-0.5,0-2.4-0.3-2.8-0.5
									c-0.2-0.2-0.2-0.9,1.4-0.7c1.5,0.2,1.6-1.2,1.9-2.5c0.3-1.2-0.2-2.2-0.8-1.7c-0.6,0.5-0.8,3-1.2,3c-0.4,0.1-1,0-0.6-2.7
									c0.5-2.8,1.1-2.8,1.8-4.5L290.5,133.5z"/>
								<path id="XMLID_16_" class="st54" d="M260,131.6c0-1.8-1.5-7.4-2.1-14.8c0,0,2.1-6.2,2.5-7.9c0.1-0.3-0.2-8.1-0.7-9.8
									c-0.5-1.9-1-4.1-2.8-4c-1.3,0.1-1.7,2.2-3.2,5.3c-1.2,2.6-4.3,13.9-4.6,15.1c-0.2,0.8,0.7,5.8,1.2,7.9
									c0.6,2.8,1.9,10.3,3.4,11.4l5.8-1.6C260.4,132.4,260,132,260,131.6z"/>
								<path id="XMLID_10_" class="st54" d="M285.5,131.6c0-1.8,1.5-7.4,2.1-14.8c0,0-2.1-6.2-2.5-7.9c-0.1-0.3,0.2-8.1,0.7-9.8
									c0.5-1.9,1-4.1,2.8-4c1.3,0.1,1.7,2.2,3.2,5.3c1.2,2.6,4.3,13.9,4.6,15.1c0.2,0.8-0.7,5.8-1.2,7.9
									c-0.6,2.8-1.9,10.3-3.4,11.4l-5.8-1.6C285.1,132.4,285.5,132,285.5,131.6z"/>
							</g>
						</g>
					</g>
				</g>
			</g>
			<path class="st60" d="M627.5,399.5c0,2.2-12.7,4-28.5,4c-15.7,0-28.5-1.8-28.5-4c0-2.2,12.7-4,28.5-4
				C614.8,395.6,627.5,397.3,627.5,399.5z"/>
			<g>
				<path class="st11" d="M578.2,277.7c0,0-8.8,39,5.2,65.5c14,26.5,14,26.5,14,26.5S601,303.4,578.2,277.7z"/>
				<path class="st7" d="M578.8,379.5c0.8,4.8,1.9,9.6,4.3,13.9c2.4,4.2,6.2,7.9,10.9,9c2.1,0.5,4.4,0.5,6.6,0.5
					c2.4-0.1,4.9-0.2,7-1.4c2.7-1.6,4.1-4.7,5.2-7.6c1.9-5,3.3-10.2,4.2-15.4c0.5-3,0.9-6.3-0.5-9c-1.9-3.7-6.4-5.2-10.5-5.9
					c-6.8-1.1-16.2-1.7-22.8,1.1C577.5,367,577.9,374.3,578.8,379.5z"/>
				<path class="st11" d="M594.3,369.8c5.4,0.3,11.3-0.5,14.7-2.4c0.7-0.4,1.3-0.8,1-1.3c-0.4-0.5-1.8-0.8-3.1-0.9
					c-6.5-0.7-13.7-1-20.1,0.1C577.4,367,589.3,369.5,594.3,369.8z"/>
				<path class="st19" d="M591.5,268.1c0,0-4.4,74.3,5.9,101.6C597.3,369.7,604,303.4,591.5,268.1z"/>
				<path class="st11" d="M596,369.1h2.4c3.5-14.7,14-62.4,8.5-84.6c0,0-17.7,62.6-13.2,76.5C594.7,364.7,595.5,367.3,596,369.1z"/>
			</g>
			<path class="st60" d="M611.2,417c0,4.6-28.7,8.3-64.2,8.3c-35.4,0-64.2-3.7-64.2-8.3c0-4.6,28.7-8.3,64.2-8.3
				C582.5,408.7,611.2,412.4,611.2,417z"/>
			<ellipse class="st60" cx="267.6" cy="408.7" rx="64.2" ry="8.3"/>
			<path class="st60" d="M500.7,406.2c0,4.6-28.7,8.3-64.2,8.3c-35.4,0-64.2-3.7-64.2-8.3c0-4.6,28.7-8.3,64.2-8.3
				C472,397.9,500.7,401.6,500.7,406.2z"/>
			<ellipse class="st60" cx="335.5" cy="392.3" rx="38.3" ry="8.3"/>
			<g>
				<path class="st21" d="M283.4,297.9l-3.4-65.5c0,0-16.8-1-21.9-1c-2.7,0-7.4,1.3-11.1,2.5c-3.5,1.1-6.3,1-8,4.2L211.5,291l17,1.6
					l5.7-6.5l-2.9-4.4l10.3-24.3l-0.2,41.2L283.4,297.9z"/>
				<path class="st61" d="M241.2,247.8l-18.3,33.1l5.7,6.7c0,0,2.3,0.5,4.5-0.2l1-1.2l-2.9-4.4l10.3-24.3L241.2,247.8z"/>
				<path class="st62" d="M255.8,284.7c-0.7-0.2-6.4-3.5-10.6-3.5c-4.3,0-9.5,4.5-9.5,4.5s-0.7,2.4,2.1,1.9c2.8-0.5,4.7-0.7,4.7-0.7
					s-5,2.6-1.7,3.1c3.3,0.5,17.2,0,17.2,0L255.8,284.7z"/>
				<path class="st63" d="M254.8,294.3h-54.6v-4h54.6c1.1,0,2,0.9,2,2l0,0C256.8,293.4,255.9,294.3,254.8,294.3z"/>
				<path class="st22" d="M239.8,294.3h-52.6c-2.3,0-4.4-1.6-5-3.8l-9.3-35c-0.9-3.3,1.6-6.4,5-6.4h46c2.3,0,4.4,1.6,5,3.8
					L239.8,294.3z"/>
				<path class="st7" d="M208.8,274.7c0.6,2.3-0.9,4.1-3.2,4.1c-2.3,0-4.7-1.9-5.3-4.1c-0.6-2.3,0.9-4.1,3.2-4.1
					C205.8,270.6,208.2,272.5,208.8,274.7z"/>
				<path class="st62" d="M256.5,223.2c0.5,0.9,3.8,13.9,3.8,13.9s1.2,2.1,4,1.9c2.8-0.2,4-4.3,4-4.3l-5-16.3L256.5,223.2z"/>
				<path class="st62" d="M274,215.2c0,9-9.5,18.9-18.5,18.9c-9,0-14-9.9-14-18.9s7.3-16.2,16.2-16.2C266.7,199,274,206.3,274,215.2
					z"/>
				<path class="st7" d="M259.1,233.2l-1.9,5l1.2,5.2l3.8-5.4l3.8,6.1l4.3-7.6l-2.8-5c0,0-1.4,3.3-4.5,4
					C259.8,236.2,259.1,233.2,259.1,233.2z"/>
				<polygon class="st22" points="262.2,237.9 259.4,241.4 260.8,243.6 258.6,248 259.1,277.6 262,283.5 266,276.9 265,248.8 
					262.9,243.3 264.5,241 				"/>
				<polygon class="st61" points="282.1,246.1 283.1,297.9 258.7,297.6 				"/>
				<path class="st21" d="M280.1,232.4l2.2,48.8l-22.6,4.6l3.1,5.9l32.3,1.9l-4.4-48.3c-0.5-5-3.5-9.4-7.9-11.6L280.1,232.4z"/>
				<polygon class="st7" points="255.8,284.7 260.3,285.1 264.3,291.8 256.8,292.3 				"/>
				<path class="st11" d="M233.3,306.8l-39.9,10.2l20.3,79.9l7-3.5l-6-68.7l35.7-11.2l-20.7,11.9l0.4,65.2h6.3
					c0,0,17.5-63.8,19.3-63.8c1.8,0,31.2-19.6,31.2-19.6L233.3,306.8z"/>
				<polygon class="st19" points="192.2,403.1 220,401.1 220.7,392.3 191.1,399.1 				"/>
				<polygon class="st19" points="214.7,408 220.4,408.7 236.1,402.7 236.5,390.5 230.2,390.5 227.4,398.2 218.9,403.3 				"/>
				<path class="st19" d="M241,209.5c-0.6,1.2-1.3,2.5-0.8,3.8c0.6,1.5,2.5,2,4.1,2.2c2.8,0.3,5.6,0.5,8.4,0.4
					c1.9,0,3.7-0.1,5.5-0.6c3-0.7,5.6-2.2,8.3-3.7c1.9-1.1,4-2.4,4.3-4.5c0.3-2.1-1.2-4-2.6-5.6c-0.8-0.9-1.6-1.8-2.6-2.5
					c-2.4-1.8-5.6-2.2-8.5-1.7C249.7,198.3,244.4,203.2,241,209.5z"/>
				<path class="st19" d="M267.5,214.7c0.3-0.9,1.3-1.3,2.2-1c0.8,0.3,1.4,1.1,1.6,2c0.1,0.9-0.1,1.8-0.5,2.6
					c-0.2,0.4-0.4,0.8-0.5,1.2c-0.1,0.4-0.1,0.7-0.1,1.1c0,1.6,0.1,3.2,0.1,4.8c1.3-0.5,2.1-1.8,2.7-3.1c1.4-2.7,2.9-5.6,2.8-8.7
					c-0.1-2.5-1.4-4.9-2.7-7.1c-0.3-0.5-0.6-1-1-1.3c-0.6-0.4-1.5-0.5-2.2-0.2c-0.7,0.2-1.4,0.7-2,1.1c-0.6,0.4-1.3,0.9-1.9,1.3
					c-0.6,0.4-1.2,0.9-1.6,1.5c-0.6,1.2,0.2,1.7,0.9,2.4C265.6,211.7,265,219.6,267.5,214.7z"/>
				<g>
					<path class="st64" d="M243.7,228.3c-2.1,0-4.5-1.8-5.3-4.1c-0.4-1.2-0.3-2.3,0.2-3.2c0.5-0.7,1.3-1.1,2.4-1.1
						c2.1,0,4.5,1.8,5.3,4.1c0.4,1.2,0.3,2.3-0.2,3.2C245.6,227.9,244.7,228.3,243.7,228.3z M241,220.6c-0.8,0-1.4,0.3-1.8,0.8
						c-0.5,0.6-0.5,1.6-0.2,2.6c0.7,2,2.8,3.6,4.7,3.6c0.8,0,1.4-0.3,1.8-0.8c0.5-0.6,0.5-1.6,0.2-2.6
						C245,222.2,242.9,220.6,241,220.6z"/>
				</g>
				<g>
					<path class="st64" d="M254.5,228.3c-2.1,0-4.5-1.8-5.3-4.1c-0.4-1.2-0.3-2.3,0.2-3.2c0.5-0.7,1.3-1.1,2.4-1.1
						c2.1,0,4.5,1.8,5.3,4.1c0.4,1.2,0.3,2.3-0.2,3.2C256.3,227.9,255.5,228.3,254.5,228.3z M251.7,220.6c-0.8,0-1.4,0.3-1.8,0.8
						c-0.5,0.6-0.5,1.6-0.2,2.6c0.7,2,2.8,3.6,4.7,3.6c0.8,0,1.4-0.3,1.8-0.8c0.5-0.6,0.5-1.6,0.2-2.6
						C255.7,222.2,253.6,220.6,251.7,220.6z"/>
				</g>
			</g>
			<g>
				<path class="st11" d="M313.7,189.9c0.2,2.5,1.6,5.1,0.9,7.5c-0.6,2-2.4,3.4-3,5.5c-0.7,2.3,0.5,4.6,1.6,6.7
					c0.9,1.7,2.3,3.7,4.2,3.7c0.9,0,1.7-0.4,2.5-0.8c1.9-0.9,3.8-1.9,5.7-2.8c0.8-0.4,1.6-0.8,2.3-1.5c1-0.9,1.5-2.3,2-3.5
					c1.5-4,2.8-8.2,2.4-12.4c-0.3-4.2-2.7-8.6-6.6-10.2c-2.2-0.9-8.7-1.7-10.6,0.2c-0.8,0.8-0.4,1.7-0.5,2.8
					C314.3,186.8,313.6,188.3,313.7,189.9z"/>
				<path class="st65" d="M318.3,202.6l-1.9,0.5c-8,5.2-12.7,12.5-13.7,22l-4.1,66.2l6.1-2.8L318.3,202.6z"/>
				<path class="st23" d="M358.8,202.1l-32.8-1.3c-2.8-0.1-7.6,0.9-10.3,1.7l-4.2,1.9l7.3,35.1h0c-6.7,11.3-10,24.3-9.6,37.5
					l3.9,47.8h36.7l4.7-50.5c0.4-10.3-1.5-20.6-5.6-30.1l-2-4.7L358.8,202.1z"/>
				<path class="st65" d="M344.7,185c0,8.7-9.3,20.5-18,20.5c-8.7,0-13.5-11.8-13.5-20.5c0-8.7,7.1-15.8,15.8-15.8
					C337.7,169.3,344.7,176.3,344.7,185z"/>
				<path class="st65" d="M358.8,202.1l22.7,29.6c2.4,3.1,1.5,7.6-1.8,9.6l-26.6,16.2l-3.3-5.1l18.2-14.6c1.3-1.1,1.6-3,0.6-4.4
					L355,213.9L358.8,202.1z"/>
				<path class="st65" d="M286,294.3h14.3c2.3,0,4.2-1.8,4.3-4l0.1-1.6L286,294.3z"/>
				<path class="st65" d="M324.7,195.6c-0.2-0.5,3.8,10.4,3.8,10.4s0.9,4.5,4.7,3.4c3.8-1.1,1.4-17,0.9-17.2
					C333.5,192.1,325.1,196.5,324.7,195.6z"/>
				<path class="st11" d="M334.1,183c-7.3,4.4-15,9-23.5,9.5c1.9-2.4,1.5-5.8,1.9-8.8c0.6-5,3.5-9.6,7.8-12.3
					c4.2-2.7,9.7-3.3,14.4-1.6c1.8,0.6,3.5,1.6,4.6,3.1C342.3,177.3,337.5,180.9,334.1,183z"/>
				<path class="st11" d="M333.4,200.5c0.5,2.3,2,4.4,2.2,6.8c0.2,1.5-0.2,3.1-0.5,4.6c-0.4,1.8-0.9,3.7-1.3,5.5
					c2.5-0.5,4.9-1.8,6.9-3.4c7.3-5.8,11.1-15.8,9.5-24.9c-0.5-2.6-1.3-5.2-2.2-7.7c-0.7-1.9-1.5-3.9-2.8-5.5
					c-1.3-1.6-3.2-2.8-5.2-2.9c-2.5-0.1-4.7,1.6-6.1,3.5c-1,1.4-1.7,3-1.7,4.6c0,1.7,0.6,7.4,2.2,8c1.9-1.2,4.8-0.1,5.6,2
					c1.2,3.4-1.8,4-3.9,5.2C333.5,197.8,332.9,197.8,333.4,200.5z"/>
				<path class="st11" d="M350.2,190.2c1.5,1.2,3.3,2.1,4.7,3.4c1.4,1.4,2.3,3.5,1.5,5.3c-0.5,1.1-1.5,1.9-2.3,2.8
					c-0.9,0.9-1.7,2-1.5,3.2c0.1,0.8,0.6,1.5,1,2.2c1.2,1.8,2.2,3.8,1.8,5.9c-0.3,1.7-1.4,3.1-2.9,4c-1.5,0.8-3.3,1-4.9,0.8
					c-1-0.1-1.9-0.4-2.9-0.4c-2.6,0.1-4.6,2.5-7.2,2.8c-1.5,0.2-3-0.4-4-1.5c-1-1.1-1.5-2.6-1.2-4.1c0.4-2.4,2.5-4,4.4-5.5
					c1.9-1.5,4-3.2,4.2-5.6c0.2-1.8-0.6-3.6-0.4-5.4c0.3-2.6,2.7-4.4,3.3-6.9c0.3-1.4-0.2-5,2-5
					C347.4,186.1,348.9,189.2,350.2,190.2z"/>
			</g>
			<g>
				<polygon class="st11" points="350.6,247.7 349.1,249 354.3,255.1 				"/>
				<path class="st19" d="M461.3,297.9l-3.4-65.5c0,0-16.8-3.6-21.9-3.6c-2.7,0-7.4,1.3-11.1,2.5c-3.5,1.1-6.3,3.6-8,6.8L389.4,291
					l17,1.6l5.7-6.5l-2.9-4.4l10.3-24.3l-0.2,41.2L461.3,297.9z"/>
				<path class="st65" d="M459,213.4c0,9-7.3,16.2-16.2,16.2c-5,0-8.4-5.1-11.4-8.6c-2.4-2.8-4.3-3.6-4.3-7.6
					c0-9,6.7-16.1,15.7-16.1S459,204.5,459,213.4z"/>
				<polygon class="st11" points="417.6,294.3 361.1,294.3 349.1,249 405.6,249 				"/>
				<polygon class="st7" points="417.6,294.3 362.8,294.3 350.6,247.7 406,249 				"/>
				<rect x="361.5" y="291" class="st11" width="38.8" height="3.3"/>
				<polygon class="st22" points="402.6,283.8 372.4,283.8 365.6,258.1 396.2,258.9 				"/>
				<path class="st23" d="M411.2,306.8l-39.9,10.2l20.3,79.9l7-3.5l-6-68.7l35.7-11.2l-20.7,11.9l0.4,65.2h6.3
					c0,0,17.5-63.8,19.3-63.8c1.8,0,31.2-19.6,31.2-19.6L411.2,306.8z"/>
				<polygon class="st11" points="370.1,403.1 397.8,401.1 398.6,392.3 368.9,399.1 				"/>
				<path class="st64" d="M432.6,235.7c0.3,3.1,0.8,6.3,1.8,9.3c0.2,0.7,0.4,1.4,1,1.8c1.1,0.9,2.8,0.1,3.9-0.7c2-1.4,3.9-3.1,5.5-5
					c1-1.2,1.9-2.6,2.2-4.2c0.3-1.6-0.1-3.3-1.3-4.4c-1.9-1.6-5.9-1.6-8.2-1.6C434.2,230.8,432.4,232.2,432.6,235.7z"/>
				<polygon class="st11" points="392.6,408 398.2,408.7 414,402.7 414.3,390.5 408,390.5 405.2,398.2 396.7,403.3 				"/>
				<path class="st65" d="M436.7,221.6l-1.2,13.7c0,0,1,5.8,4.3,4.8c3.4-1,3.8-3.6,3.8-3.6l1.4-16.3L436.7,221.6z"/>
				<path class="st66" d="M448.9,208.2c2.6-0.1,5.2-0.3,7.5-1.4c2.3-1.1,4.2-3.4,4.2-5.9c0-2.6-2.7-5-5.1-4.2
					c-0.6,0.2-1.1,0.5-1.6,0.6c-0.9,0.2-1.8-0.1-2.7-0.3c-6.6-1.9-13.9-3.2-20-0.2c-1.1,0.6-2.2,1.3-2.8,2.4
					c-0.5,0.9-0.6,1.9-0.7,2.9c-0.2,2.6-0.4,5.3-0.5,8c1.8-1,3.5-2.1,5.4-2.9c1.8-0.8,3,0,4.9,0.4
					C441.1,208.4,445,208.3,448.9,208.2z"/>
				<path class="st67" d="M433.6,203.8c-1.7-0.3-3.4,0.2-4.7,1.3c-1.2,2-2,4.4-2.2,6.9c0.2,0.9,0.3,1.8,0.3,2.6
					c0,0.5,0.2,1.3,0.5,2.3c0.9,1.4,2.4,2.4,3.9,4.1c0.1,0.1,0.1,0.1,0.2,0.2c1.6-2.7,4.1-8.9,4.6-9.5c0.7-1,3.1-3.8,2.7-5.1
					C438.5,205.4,434.8,204.1,433.6,203.8z"/>
				<path class="st65" d="M433.7,210.4c-0.1-0.2-0.3-0.4-0.5-0.5c-0.2-0.1-0.5-0.1-0.8-0.1c-1.1,0-2.3,0.1-2.9,0.9
					c-0.3,0.4-0.4,0.8-0.5,1.3c-0.2,1.1-0.3,2.1-0.1,3.2c0.2,1.6,1,3.5,2.6,3.9c1,0.2,2-0.2,2.7-0.8
					C436.7,216,435.3,212.9,433.7,210.4z"/>
				<g>
					<path class="st68" d="M351.9,248.7l53.4,1.3l11.1,43.3h-52.8L351.9,248.7 M350.6,247.7l12.3,46.6h54.8L406,249L350.6,247.7
						L350.6,247.7z"/>
				</g>
				<path class="st11" d="M439.3,294.3h-77.8V291h77.8c0.9,0,1.6,0.7,1.6,1.6l0,0C441,293.5,440.2,294.3,439.3,294.3z"/>
				<path class="st11" d="M399.9,294.3h-38.4V291h38.4c0.9,0,1.6,0.7,1.6,1.6l0,0C401.6,293.5,400.9,294.3,399.9,294.3z"/>
				<path class="st11" d="M457.9,232.4l-14.2,37.4l-36.1,4.8l1.4,7.2l46.2-1.5l12.5-32.9c0.6-1.6,0.7-3.4,0.2-5.1
					c-1.2-3.7-3.8-6.9-7.4-8.6L457.9,232.4z"/>
				<path class="st65" d="M407.7,274.6l-19.5-10.4c0,0-1,1.5,0.5,2.8c1.5,1.3,6.5,4.9,6.5,4.9v2.8c1.6,5.3,6.6,7.8,12.2,7.2l1.8-0.2
					L407.7,274.6z"/>
				<path class="st66" d="M454.2,218.9c0.8-0.2,1.7-0.4,2.5-0.2c0.8,0.2,1.6,0.9,1.7,1.7c0,0.4-0.1,0.8-0.2,1.2
					c-0.2,1.3,0.3,2.5,0.7,3.8c1,2.7,1.6,5.8,0,8.1c-1.5,2.2-4.5,2.8-7.1,2.7c-7.9-0.4-15.2-6-17.7-13.5c-0.8-2.6-1.1-5.5-0.3-8.1
					c0.3-0.8,0.9-1.7,1.7-1.4c0.5,3,2.4,5.8,5.2,7.2C445.6,222.9,449.5,220,454.2,218.9z"/>
			</g>
			<g>
				<path class="st65" d="M329.2,319.1c-1.2,0-10.7,4-10.7,4L326,384c-1.7,0.8-4,1.3-5.6,1.7c-3.6,1-6.9,1.4-10.1,3.6
					c-0.3,0.2-0.3,1.1-0.4,1.4c-0.1,0.7,0.8,1,1.5,1c4.4,0.2,8.8,0.2,13.2,0.1c2.8-0.1,5.1-1.5,7.6-2.8c1.4-0.7,2-2.9,1.9-4
					C334.1,384.7,330.4,319.1,329.2,319.1z"/>
				<path class="st11" d="M321.1,389.5c4.2-0.4,9.9-2.3,13.2-5c0.3,2.8-0.5,5.5-5.9,6.9c-6.2,1.6-12.8,3.3-18.9,1.5
					c-0.7-0.2-1.4-0.6-1.4-1.3c0-0.3,0.2-0.6,0.4-0.8c1.1-1.4,4.3-4,6.2-3.4c1,0.3,1.7,1.5,2.8,1.8
					C318.7,389.6,319.9,389.6,321.1,389.5z"/>
			</g>
			<g>
				<path class="st65" d="M329.2,391.7"/>
				<path class="st65" d="M351.9,385c0-0.3-3.8-65.9-4.9-65.9c-1.2,0-10.7,4-10.7,4l7.4,60.9c1.2,3.3,2.3,6.4,4.1,9.4
					c1.8,3,4.3,5.7,7.4,7.3c0.3,0.2,0.8,0.3,1.1,0.1c0.2-0.1,0.3-0.3,0.3-0.6c0.5-1.8-0.2-3.7-1-5.4
					C354.3,391.8,352.2,388.4,351.9,385z"/>
				<path class="st11" d="M345.7,393.1c1.9,3.5,4.2,7.1,7.9,8.7c0.6,0.3,1.3,0.5,2,0.4c0.9-0.2,1.6-1,1.8-1.9
					c0.2-0.9,0.1-1.8-0.1-2.7c-0.4-1.3-0.9-2.6-1.6-3.8c-0.2-0.3-0.4-0.6-0.7-0.6c-0.4-0.1-0.8,0.3-1.1,0.5c-0.9,0.7-2.3,0.6-3.3,0
					c-1-0.6-1.8-1.5-2.4-2.4c-1.4-1.9-2.6-5.4-4.5-6.5C342.9,387.6,344.4,390.6,345.7,393.1z"/>
			</g>
			<g>
				<circle class="st11" cx="241.6" cy="402.9" r="4.5"/>
				<circle class="st11" cx="296.2" cy="402.9" r="4.5"/>
				<path class="st11" d="M272.3,402.9c0,2.5-2,4.5-4.5,4.5c-2.5,0-4.5-2-4.5-4.5s2-4.5,4.5-4.5
					C270.2,398.4,272.3,400.4,272.3,402.9z"/>
				<path class="st69" d="M241.6,402.9v-2.3c0-5.2,4.3-9.5,9.5-9.5h17.8v-46.2"/>
				<path class="st69" d="M295.7,402.9v-2.3c0-5.2-4.3-9.5-9.5-9.5h-17.8v-46.2"/>
				<line class="st69" x1="267.7" y1="402.9" x2="267.7" y2="391.1"/>
				<rect x="262.9" y="367.7" class="st11" width="10.1" height="22.9"/>
				<rect x="264.5" y="345.3" class="st11" width="6.4" height="26.1"/>
			</g>
			<g>
				<circle class="st11" cx="415.5" cy="402.9" r="4.5"/>
				<circle class="st11" cx="470" cy="402.9" r="4.5"/>
				<circle class="st11" cx="441.6" cy="402.9" r="4.5"/>
				<path class="st69" d="M415.5,402.9v-2.3c0-5.2,4.3-9.5,9.5-9.5h17.8v-46.2"/>
				<path class="st69" d="M469.5,402.9v-2.3c0-5.2-4.3-9.5-9.5-9.5h-17.8v-46.2"/>
				<line class="st69" x1="441.6" y1="402.9" x2="441.6" y2="391.1"/>
				<rect x="436.8" y="367.7" class="st11" width="10.1" height="22.9"/>
				<rect x="438.4" y="345.3" class="st11" width="6.4" height="26.1"/>
			</g>
			<g>
				<rect x="168.7" y="299.1" class="st70" width="311.2" height="49.3"/>
				<rect x="168" y="299.5" class="st11" width="5.2" height="125.7"/>
				<rect x="478.1" y="299.5" class="st11" width="5.2" height="125.7"/>
				<rect x="156.5" y="294.3" class="st71" width="338.4" height="8.4"/>
			</g>
			<g>
				<path class="st72" d="M487,293.8h-23.2c0,0-0.7-1.7,3-2.3c3.7-0.7,14.1-1,14.1-1l2.7-3l3.7,1L487,293.8z"/>
				<path class="st73" d="M506.1,223l-24.7,66.6l6.1,1.5l37.9-64.9c0,0-1.1-4.2-7.5-8.2C511.4,213.9,506.1,223,506.1,223z"/>
				<path class="st62" d="M506.7,192.4c-4.8-7.5-14.8-9.7-22.3-4.9c-4.2,2.7-6.9,7.5-7.4,12.5c-0.2,2.5-0.3,3.4,0.8,5.7
					c1,2.3,3.9,5.6,2.2,10.2c-0.4,1.1-0.1,2.8,1.2,3.3c1.3,0.5,2.4-0.9,3.6-0.9c2.3-0.1,6.9,3.5,8.6,4.9c0.7,0.6,1.5,1.2,2.4,1.3
					c0.8,0.1,1.6-0.2,2.3-0.6c3.5-1.8,5.7-5.5,7.5-9.1c1.7-3.3,3.2-6.9,3.4-10.6C509.7,200.3,509.1,196.1,506.7,192.4z"/>
				<path class="st62" d="M506.1,223.7c0.7,0.7,1.5,1.4,2.5,1.3c0.4-0.1,0.8-0.3,1.2-0.6c1-0.7,1.9-1.5,2.7-2.3c0.5-0.5,1-1.1,1-1.9
					c0-0.4-0.1-0.8-0.3-1.2c-1.6-3.7-5-6.5-6.2-10.3c-0.5-1.7-0.6-3.6-1.2-5.3c-0.6-1.7-2-3.4-3.8-3.5c-1.1,0-2.1,0.5-3,1.1
					c-2.8,2.1-4.4,5.7-4.1,9.2c0.3,3.2,2.1,6.1,4.7,7.9C502.2,219.8,504,221.5,506.1,223.7z"/>
				<path class="st19" d="M484.4,187.6c-3,1.9-5.2,4.9-6.4,8.3c3.1,1.5,11-1.9,13.1-3.2c-0.2,5.4,2.7,10.9,7.4,13.6
					c2.8,1.7,6.2,2.4,9,4c0.7-2,1.3-4,1.4-6.1c0.8-3.9,0.1-8.1-2.2-11.8C501.9,184.9,491.9,182.7,484.4,187.6z"/>
				<path class="st62" d="M493.1,203.9c-0.9-1.7,0-4,1.7-4.8c1.7-0.8,3.9-0.3,5.3,1c1.4,1.3,1.9,3.3,1.8,5.2c-0.2,2.4-1.9,5-4.3,4.9
					c-1.3-0.1-2.5-1-3.2-2.1c-0.7-1.1-1.1-2.4-1.5-3.7"/>
				<polygon class="st7" points="515,215.3 510.4,210 503.1,223.3 505.8,231.8 515.4,221 				"/>
				<path class="st23" d="M520.3,216.1l43.2,48.1L537,287.4l-32.4-49.8c-3.3-4.8,1.8-15.3,5.1-20.1l0,0
					C512.1,214.1,517,213.4,520.3,216.1z"/>
				<polygon class="st74" points="562,411.6 550.4,346.2 537,287.4 563.5,264.2 561.9,345.4 568.4,408.4 				"/>
				<polygon class="st11" points="563.5,264.2 541.7,413.7 535.1,412.7 537,287.4 				"/>
				<polygon class="st19" points="523,418.5 540.4,417.8 541.4,412.4 536.4,411.8 519.6,416.5 519.9,418.8 				"/>
				<polygon class="st19" points="568.4,408.4 568.9,413.5 548.7,414.7 548.5,413.1 566.4,407.4 				"/>
				<path class="st62" d="M478.4,293.8h-23.2c0,0-0.7-1.7,3-2.3c3.7-0.7,14.9-0.9,14.9-0.9l1.9-3.1l5.1,1.9L478.4,293.8z"/>
				<path class="st23" d="M511.4,220.4l-17.6,33.2l-21.1,36.8l6.9,0.3l18.8-25.9l24.9-31.8c3.2-2.5,4.2-7,2.4-10.7l0,0
					C522.9,216.8,515.5,215.8,511.4,220.4z"/>
			</g>
		</g>
	</g>
</g>
</svg>
