<?xml version="1.0" encoding="UTF-8"?>
<svg width="52px" height="62px" viewBox="0 0 52 62" version="1.1" xmlns="http://www.w3.org/2000/svg" xmlns:xlink="http://www.w3.org/1999/xlink">
    <!-- Generator: Sketch 54.1 (76490) - https://sketchapp.com -->
    <title>noun_Industry_782984</title>
    <desc>Created with Sketch.</desc>
    <g id="Partita-IVA-Prodotto-PMI" stroke="none" stroke-width="1" fill="none" fill-rule="evenodd" stroke-linecap="round" stroke-linejoin="round">
        <g id="Step-3-PMI" transform="translate(-318.000000, -470.000000)" stroke="#4A90E2" stroke-width="1.7227">
            <g id="noun_Industry_782984" transform="translate(319.000000, 471.000000)">
                <polygon id="Path" points="44.4683908 10 50 60 0 60 0 38.4172662 11.4224138 26.4028777 11.3505747 37.9136691 22.1982759 26.4748201 22.0545977 41.294964 30.8189655 41.294964 34.1235632 10.1438849"></polygon>
                <path d="M30.3838631,2.69945355 C29.391198,2.69945355 28.5403423,3.05464481 27.9022005,3.69398907 C27.405868,2.3442623 26.0586797,1.34972678 24.4987775,1.34972678 C24.002445,1.34972678 23.5770171,1.42076503 23.1515892,1.63387978 C22.5134474,0.639344262 21.3789731,0 20.1026895,0 C18.4718826,0 17.0537897,1.06557377 16.6283619,2.6284153 C15.99022,2.06010929 15.1393643,1.70491803 14.2176039,1.70491803 C12.5867971,1.70491803 11.1687042,2.84153005 10.7432763,4.33333333 C10.1760391,3.90710383 9.39608802,3.62295082 8.61613692,3.62295082 C6.63080685,3.62295082 5,5.2568306 5,7.24590164 C5,9.23497268 6.63080685,10.8688525 8.61613692,10.8688525 C9.39608802,10.8688525 10.1051345,10.6557377 10.6723716,10.2295082 C11.0268949,11.7923497 12.5158924,13 14.2176039,13 C15.4229829,13 16.4865526,12.431694 17.1246944,11.5081967 C17.7628362,12.3606557 18.8264059,12.8579235 19.9608802,12.8579235 C21.1662592,12.8579235 22.2298289,12.2896175 22.8679707,11.3661202 C23.4352078,11.7213115 24.0733496,11.9344262 24.7823961,11.9344262 C26.4132029,11.9344262 27.8312958,10.7978142 28.2567237,9.30601093 C28.8239609,9.73224044 29.603912,10.0163934 30.3838631,10.0163934 C32.3691932,10.0163934 34,8.38251366 34,6.39344262 C34,4.40437158 32.3691932,2.69945355 30.3838631,2.69945355 Z" id="Path"></path>
            </g>
        </g>
    </g>
</svg>