<svg id="Livello_1" data-name="Livello 1" xmlns="http://www.w3.org/2000/svg" viewBox="0 0 747.05 208.35"><defs><style>.cls-1{fill:#fff;}.cls-2{fill:#ffd100;}</style></defs><title>CheBancaLogo</title><path class="cls-1" d="M279.76,179.05c0-11.92,6.46-19.49,15.36-19.49,7,0,11.48,4,13.37,11.61l-3.38.82c-1.74-6.24-4.57-9.11-10-9.11-6.36,0-11.78,5.38-11.78,16s4.82,16.67,11.88,16.67c6.16,0,10.24-4.45,10.19-12.11h-8.9v-3.13h12.33v17.8h-3.18v-5.78h-.1a11.17,11.17,0,0,1-10.64,6.49c-9.64,0-15.11-8.43-15.11-19.78"/><path class="cls-1" d="M279.76,179.05c0-11.92,6.46-19.49,15.36-19.49,7,0,11.48,4,13.37,11.61l-3.38.82c-1.74-6.24-4.57-9.11-10-9.11-6.36,0-11.78,5.38-11.78,16s4.82,16.67,11.88,16.67c6.16,0,10.24-4.45,10.19-12.11h-8.9v-3.13h12.33v17.8h-3.18v-5.78h-.1a11.17,11.17,0,0,1-10.64,6.49C285.23,198.83,279.76,190.4,279.76,179.05Z"/><path class="cls-1" d="M317.22,171.17h3.43v5.32h.1a11.45,11.45,0,0,1,10.39-5.83h.59l-.34,3.27-1.05-.05c-4.27,0-7.65,2.45-9.69,6.7v17.54h-3.43Z"/><path class="cls-1" d="M317.22,171.17h3.43v5.32h.1a11.45,11.45,0,0,1,10.39-5.83h.59l-.34,3.27-1.05-.05c-4.27,0-7.65,2.45-9.69,6.7v17.54h-3.43Z"/><path class="cls-1" d="M337.09,190.65V171.17h3.43V190c0,3.79,1.6,5.62,5.22,5.62,3.33,0,6.16-1.83,9.1-4.7V171.17h3.47v27h-3.47v-4.24c-2.54,2.55-5.87,4.8-9.94,4.8-5.22,0-7.81-3-7.81-8"/><path class="cls-1" d="M337.09,190.65V171.17h3.43V190c0,3.79,1.6,5.62,5.22,5.62,3.33,0,6.16-1.83,9.1-4.7V171.17h3.47v27h-3.47v-4.24c-2.54,2.55-5.87,4.8-9.94,4.8C339.68,198.68,337.09,195.66,337.09,190.65Z"/><path class="cls-1" d="M366.71,171.17h3.42V175c2.09-2.3,4.82-4.34,8.75-4.34,6,0,10.78,4.55,10.78,14s-4.82,14-11.07,14c-3.39,0-6.12-1.68-8.46-4.14v13.91h-3.42Zm19.52,13.5c0-7.47-3.58-11-8-11-3.22,0-5.66,1.74-8.15,4.44v13.1c2.59,2.81,5.12,4.4,8.15,4.4,4.62,0,8-3.33,8-11"/><path class="cls-1" d="M366.71,171.17h3.42V175c2.09-2.3,4.82-4.34,8.75-4.34,6,0,10.78,4.55,10.78,14s-4.82,14-11.07,14c-3.39,0-6.12-1.68-8.46-4.14v13.91h-3.42Zm19.52,13.5c0-7.47-3.58-11-8-11-3.22,0-5.66,1.74-8.15,4.44v13.1c2.59,2.81,5.12,4.4,8.15,4.4C382.9,195.62,386.23,192.29,386.23,184.67Z"/><path class="cls-1" d="M396.66,171.17h3.43V175c2.09-2.3,4.82-4.34,8.75-4.34,6,0,10.78,4.55,10.78,14s-4.82,14-11.08,14c-3.38,0-6.11-1.68-8.45-4.14v13.91h-3.43Zm19.53,13.5c0-7.47-3.58-11-7.95-11-3.23,0-5.66,1.74-8.15,4.44v13.1c2.58,2.81,5.12,4.4,8.15,4.4,4.62,0,7.95-3.33,7.95-11"/><path class="cls-1" d="M396.66,171.17h3.43V175c2.09-2.3,4.82-4.34,8.75-4.34,6,0,10.78,4.55,10.78,14s-4.82,14-11.08,14c-3.38,0-6.11-1.68-8.45-4.14v13.91h-3.43Zm19.53,13.5c0-7.47-3.58-11-7.95-11-3.23,0-5.66,1.74-8.15,4.44v13.1c2.58,2.81,5.12,4.4,8.15,4.4C412.86,195.62,416.19,192.29,416.19,184.67Z"/><path class="cls-1" d="M425.13,184.67c0-9,5.41-14,11.87-14s11.83,5,11.83,14-5.42,14-11.83,14-11.87-5.06-11.87-14m20.27,0c0-5.88-2.88-10.94-8.4-10.94-5.31,0-8.45,4.6-8.45,10.94,0,6,2.84,11,8.45,11,5.27,0,8.4-4.55,8.4-11"/><path class="cls-1" d="M425.13,184.67c0-9,5.41-14,11.87-14s11.83,5,11.83,14-5.42,14-11.83,14S425.13,193.62,425.13,184.67Zm20.27,0c0-5.88-2.88-10.94-8.4-10.94-5.31,0-8.45,4.6-8.45,10.94,0,6,2.84,11,8.45,11C442.27,195.66,445.4,191.11,445.4,184.62Z"/><path class="cls-1" d="M468.25,160.27h4.57l12.33,33.15h.1l12.22-33.15h4.67v37.85h-3.52V166.41h-.1c-.5,1.69-1.4,4.2-2.29,6.65l-9.54,25.06h-3.23l-9.55-25.06c-.89-2.45-1.48-4-2.28-6.75h-.1v31.81h-3.28Z"/><path class="cls-1" d="M468.25,160.27h4.57l12.33,33.15h.1l12.22-33.15h4.67v37.85h-3.52V166.41h-.1c-.5,1.69-1.4,4.2-2.29,6.65l-9.54,25.06h-3.23l-9.55-25.06c-.89-2.45-1.48-4-2.28-6.75h-.1v31.81h-3.28Z"/><path class="cls-1" d="M509.78,184.62c0-9.56,6-14,11.48-14,6.11,0,10.69,4.8,10.69,14v.67H513.21c0,6.64,3.73,10.38,8.25,10.38,3.93,0,6.16-1.74,8.15-4.91l2.14,1.73c-2.29,3.79-5.52,6.14-10.49,6.14-6.11,0-11.48-4.85-11.48-14.06m18.84-2.1c-.35-5.11-2.74-8.89-7.41-8.89-3.77,0-7.3,2.81-8,8.89Z"/><path class="cls-1" d="M509.78,184.62c0-9.56,6-14,11.48-14,6.11,0,10.69,4.8,10.69,14v.67H513.21c0,6.64,3.73,10.38,8.25,10.38,3.93,0,6.16-1.74,8.15-4.91l2.14,1.73c-2.29,3.79-5.52,6.14-10.49,6.14C515.15,198.68,509.78,193.83,509.78,184.62Zm18.84-2.1c-.35-5.11-2.74-8.89-7.41-8.89-3.77,0-7.3,2.81-8,8.89Z"/><path class="cls-1" d="M537.45,184.67c0-9.41,4.83-14,11.09-14a11.46,11.46,0,0,1,8.44,4.19V160.28h3.43v31.19c0,3.28.2,5.27.8,6.65h-3.63a14.09,14.09,0,0,1-.6-3.94c-2.13,2.36-4.82,4.4-8.74,4.4-6,0-10.79-4.5-10.79-13.91m19.53,6.5V178.08c-2.58-2.87-5.11-4.45-8.15-4.45-4.62,0-7.94,3.47-7.94,11.09,0,7.42,3.57,10.84,7.94,10.84,3.24,0,5.67-1.68,8.15-4.39"/><path class="cls-1" d="M537.45,184.67c0-9.41,4.83-14,11.09-14a11.46,11.46,0,0,1,8.44,4.19V160.28h3.43v31.19c0,3.28.2,5.27.8,6.65h-3.63a14.09,14.09,0,0,1-.6-3.94c-2.13,2.36-4.82,4.4-8.74,4.4C542.23,198.58,537.45,194.08,537.45,184.67Zm19.53,6.5V178.08c-2.58-2.87-5.11-4.45-8.15-4.45-4.62,0-7.94,3.47-7.94,11.09,0,7.42,3.57,10.84,7.94,10.84C552.07,195.56,554.5,193.88,557,191.17Z"/><path class="cls-1" d="M569.05,161.14h3.63v3.79h-3.63Zm.1,10h3.43v27h-3.43Z"/><path class="cls-1" d="M569.05,161.14h3.63v3.79h-3.63Zm.1,10h3.43v27h-3.43Z"/><path class="cls-1" d="M579.78,184.67c0-9,5.42-14,11.88-14s11.82,5,11.82,14-5.41,14-11.82,14-11.88-5.06-11.88-14m20.28,0c0-5.88-2.89-10.94-8.4-10.94-5.32,0-8.45,4.6-8.45,10.94,0,6,2.83,11,8.45,11,5.27,0,8.4-4.55,8.4-11"/><path class="cls-1" d="M579.78,184.67c0-9,5.42-14,11.88-14s11.82,5,11.82,14-5.41,14-11.82,14S579.78,193.62,579.78,184.67Zm20.28,0c0-5.88-2.89-10.94-8.4-10.94-5.32,0-8.45,4.6-8.45,10.94,0,6,2.83,11,8.45,11C596.93,195.66,600.06,191.11,600.06,184.62Z"/><path class="cls-1" d="M613.86,194.44v3.68h-3.42V160.27h3.42v14.84c2.09-2.41,4.83-4.45,8.75-4.45,6,0,10.78,4.55,10.78,14s-4.82,14-11.08,14c-3.38,0-6.11-1.68-8.45-4.14m16.1-9.77c0-7.47-3.58-11-7.94-11-3.24,0-5.67,1.74-8.16,4.44v13.1c2.59,2.81,5.12,4.4,8.16,4.4,4.62,0,7.94-3.33,7.94-11"/><path class="cls-1" d="M613.86,194.44v3.68h-3.42V160.27h3.42v14.84c2.09-2.41,4.83-4.45,8.75-4.45,6,0,10.78,4.55,10.78,14s-4.82,14-11.08,14C618.93,198.58,616.2,196.9,613.86,194.44Zm16.1-9.77c0-7.47-3.58-11-7.94-11-3.24,0-5.67,1.74-8.16,4.44v13.1c2.59,2.81,5.12,4.4,8.16,4.4C626.64,195.62,630,192.29,630,184.67Z"/><path class="cls-1" d="M638.3,191.83c0-5.32,4.43-9.21,17.74-11.3v-1.38c0-3.73-1.88-5.52-5.31-5.52-4.13,0-7.06,1.79-9.79,4.24l-1.84-2.2a16.45,16.45,0,0,1,11.92-5c5.87,0,8.41,3.22,8.41,8.59v12.23c0,3.26.2,5.26.74,6.64h-3.53a12.28,12.28,0,0,1-.6-3.84,14.7,14.7,0,0,1-10.33,4.3c-4.68,0-7.41-2.56-7.41-6.75m17.74-.41V183c-11.22,1.95-14.36,4.81-14.36,8.34,0,2.81,1.84,4.29,4.77,4.29a13.45,13.45,0,0,0,9.59-4.24"/><path class="cls-1" d="M638.3,191.83c0-5.32,4.43-9.21,17.74-11.3v-1.38c0-3.73-1.88-5.52-5.31-5.52-4.13,0-7.06,1.79-9.79,4.24l-1.84-2.2a16.45,16.45,0,0,1,11.92-5c5.87,0,8.41,3.22,8.41,8.59v12.23c0,3.26.2,5.26.74,6.64h-3.53a12.28,12.28,0,0,1-.6-3.84,14.7,14.7,0,0,1-10.33,4.3C641,198.58,638.3,196,638.3,191.83Zm17.74-.41V183c-11.22,1.95-14.36,4.81-14.36,8.34,0,2.81,1.84,4.29,4.77,4.29A13.45,13.45,0,0,0,656,191.42Z"/><path class="cls-1" d="M667.57,171.17H671v4.25c2.54-2.56,5.87-4.76,10-4.76,5.17,0,7.81,3,7.81,8v19.49h-3.43V179.3c0-3.78-1.64-5.62-5.22-5.62-3.38,0-6.21,1.78-9.15,4.7v19.74h-3.42Z"/><path class="cls-1" d="M667.57,171.17H671v4.25c2.54-2.56,5.87-4.76,10-4.76,5.17,0,7.81,3,7.81,8v19.49h-3.43V179.3c0-3.78-1.64-5.62-5.22-5.62-3.38,0-6.21,1.78-9.15,4.7v19.74h-3.42Z"/><path class="cls-1" d="M695.44,184.67c0-9.67,5.81-14,11.68-14,5.61,0,8.39,3.43,10,7.36l-2.93,1.33c-1.44-3.63-3.53-5.67-7.21-5.67-3.87,0-8.14,2.86-8.14,10.94,0,7.06,3.48,11,8,11,3.63,0,5.66-1.73,7.5-5.72l2.78,1.23c-2.09,4.55-5.12,7.51-10.43,7.51-6,0-11.33-5.06-11.33-14"/><path class="cls-1" d="M695.44,184.67c0-9.67,5.81-14,11.68-14,5.61,0,8.39,3.43,10,7.36l-2.93,1.33c-1.44-3.63-3.53-5.67-7.21-5.67-3.87,0-8.14,2.86-8.14,10.94,0,7.06,3.48,11,8,11,3.63,0,5.66-1.73,7.5-5.72l2.78,1.23c-2.09,4.55-5.12,7.51-10.43,7.51C700.75,198.68,695.44,193.62,695.44,184.67Z"/><path class="cls-1" d="M721.76,191.83c0-5.32,4.43-9.21,17.74-11.3v-1.38c0-3.73-1.88-5.52-5.31-5.52-4.13,0-7.06,1.79-9.79,4.24l-1.84-2.2a16.45,16.45,0,0,1,11.92-5c5.87,0,8.4,3.22,8.4,8.59v12.23c0,3.26.2,5.26.75,6.64H740.1a12.28,12.28,0,0,1-.6-3.84,14.7,14.7,0,0,1-10.33,4.3c-4.67,0-7.41-2.56-7.41-6.75m17.74-.41V183c-11.23,1.95-14.36,4.81-14.36,8.34,0,2.81,1.84,4.29,4.77,4.29a13.45,13.45,0,0,0,9.59-4.24"/><path class="cls-1" d="M721.76,191.83c0-5.32,4.43-9.21,17.74-11.3v-1.38c0-3.73-1.88-5.52-5.31-5.52-4.13,0-7.06,1.79-9.79,4.24l-1.84-2.2a16.45,16.45,0,0,1,11.92-5c5.87,0,8.4,3.22,8.4,8.59v12.23c0,3.26.2,5.26.75,6.64H740.1a12.28,12.28,0,0,1-.6-3.84,14.7,14.7,0,0,1-10.33,4.3C724.5,198.58,721.76,196,721.76,191.83Zm17.74-.41V183c-11.23,1.95-14.36,4.81-14.36,8.34,0,2.81,1.84,4.29,4.77,4.29A13.45,13.45,0,0,0,739.5,191.42Z"/><path class="cls-2" d="M49.6,127.73c14.13,0,26.06-2.52,34.33-6v-21.6c-14.86,5.89-24.4,7.49-34.33,7.48-10.37,0-17.56-5-21.92-13s-6.1-18.82-6.1-30.77,1.74-22.79,6.1-30.77,11.55-13,21.92-13c9.93,0,19.47,1.6,34.33,7.49V6C75.66,2.52,63.73,0,49.6,0,12,.05.12,28.66,0,63.87c.12,35.2,12,63.81,49.6,63.86"/><path class="cls-2" d="M151.91,63.33a10.93,10.93,0,0,1,2.93,8v53.74h20.08V71.33c-.18-19.45-7.62-29.68-32.19-29.86a52.3,52.3,0,0,0-16.89,3.42l-1.33.5V2.65H104.58V125.07h19.93V64.19l.61-.24c2.57-1,10.25-3.71,17.61-3.72,4.07,0,7.14,1.09,9.18,3.1"/><path class="cls-2" d="M513.59,63.33a10.89,10.89,0,0,1,2.93,8v53.74H536.6V71.33c-.18-19.45-7.62-29.68-32.18-29.86-7.4,0-17.14,2.36-25,4.76-6.36,1.93-11.47,3.86-13.18,4.53v74.31h19.92V64.19l.62-.24c2.56-1,10.24-3.72,17.62-3.72,4.05,0,7.13,1.08,9.17,3.1"/><path class="cls-2" d="M260,84.59c0-11.55-1-22.43-5.59-30.26S241.81,41.5,227.1,41.47c-27.82.12-36.34,17.07-36.5,43.12.16,26.06,8.68,43,36.5,43.14,7.55,0,20-1,28.7-5.1V103.19A73.6,73.6,0,0,1,227.1,109c-10.22.09-15.17-6.36-15.42-13.88l-.05-1H260Zm-48.53-8.46.1-1.07c.5-7.88,2.43-16.59,14.39-16.5,11.92-.09,13.76,8.88,14,16.53l.06,1Z"/><path class="cls-2" d="M320.52,2.63H279.68V125.08h41.68c32.3-.18,42.65-15.9,42.81-36.4,0-10.88-3.88-21.26-12.59-27.29l-1.22-.84,1-1.06a31.79,31.79,0,0,0,9-22.46c-.17-19-9.54-34.23-39.83-34.4M300.31,22.29H321c7.16,0,11.65,1.71,14.3,4.58s3.25,6.62,3.25,10.16-.74,7.24-3.24,10.15-6.66,4.76-12.9,4.76H300.31Zm38.24,77.89c-3.15,3.23-8.35,5.25-16.5,5.25H300.31V71.6h22c7,0,12.09,1.26,15.47,4.16s4.74,7.34,4.74,12.92c0,4-.87,8.25-4,11.5"/><path class="cls-2" d="M588.08,127.73c7.06,0,17.44-.8,26.21-4.79V104.08A76.48,76.48,0,0,1,588.08,109c-6.68,0-11-3-13.3-7.62s-2.94-10.55-2.95-16.76.6-12.16,2.95-16.74,6.62-7.67,13.3-7.62a76.46,76.46,0,0,1,26.21,4.88V46.25c-8.77-4-19.15-4.79-26.21-4.78-27.81.12-36.34,17.07-36.5,43.12.16,26.06,8.69,43,36.5,43.14"/><path class="cls-2" d="M413.47,127.65c-15.93,0-37.16-5.79-37.16-25.16,0-33.44,51.42-22,51.42-36.41,0-7-9-7.62-13.93-7.62a62,62,0,0,0-23.06,5L384,48.36a82.21,82.21,0,0,1,32.67-7.11c17.74,0,31,7.77,31,27v53.16c-11.45,3.48-22.06,6.26-34.17,6.26m14.26-22V85.28c-6.8,6.45-30.4,4.08-30.4,16,0,8.6,9.17,9.82,16.3,9.82a45.63,45.63,0,0,0,14.1-2.2Z"/><path class="cls-2" d="M666.43,127.65c-15.92,0-37.15-5.79-37.15-25.16,0-33.44,51.41-22,51.41-36.41,0-7-9-7.62-13.93-7.62a62,62,0,0,0-23,5l-6.8-15.07a82.21,82.21,0,0,1,32.67-7.11c17.75,0,31,7.77,31,27v42.55c0,3.47,0,10.61,0,10.61-11.45,3.48-22.06,6.26-34.17,6.26m14.26-22V85.28c-6.79,6.45-30.39,4.08-30.39,16,0,8.6,9.16,9.82,16.3,9.82a45.57,45.57,0,0,0,14.09-2.2Z"/><path class="cls-2" d="M734.09,102a13,13,0,0,1,13,13,12.89,12.89,0,0,1-13,12.81,12.75,12.75,0,0,1-12.8-12.81,12.88,12.88,0,0,1,12.8-13"/><rect class="cls-2" x="724.21" y="2.62" width="19.92" height="90.63"/></svg>