<svg width="440" height="142" viewBox="0 0 440 142" fill="none" xmlns="http://www.w3.org/2000/svg">
<path d="M83.7002 90.0996C81.6002 90.0996 80.0002 91.7996 80.0002 93.7996C80.0002 108 68.5002 119.5 54.3002 119.5C41.2002 119.5 30.4002 109.7 28.8002 96.9996H31.2002C33.3002 96.9996 34.9002 95.2996 34.9002 93.2996C34.9002 91.1996 33.2002 89.5996 31.2002 89.5996H17.9002C15.8002 89.5996 14.2002 91.2996 14.2002 93.2996C14.2002 95.3996 15.9002 96.9996 17.9002 96.9996H21.2002C22.8002 113.8 37.0002 127 54.2002 127C72.5002 127 87.4002 112.1 87.4002 93.7996C87.5002 91.6996 85.8002 90.0996 83.7002 90.0996Z" fill="#DB003D"/>
<path d="M83.7006 34.4004C81.6006 34.4004 80.0006 36.1004 80.0006 38.1004V42.9004C75.0006 37.7004 68.1006 34.4004 60.3006 34.4004C45.3006 34.4004 33.1006 46.6004 33.1006 61.6004C33.1006 76.6004 45.3006 88.8004 60.3006 88.8004C75.3006 88.8004 87.5006 76.6004 87.5006 61.6004V38.1004C87.5006 36.1004 85.8006 34.4004 83.7006 34.4004ZM60.3006 81.2004C49.4006 81.2004 40.6006 72.4004 40.6006 61.5004C40.6006 50.6004 49.4006 41.8004 60.3006 41.8004C71.2006 41.8004 80.0006 50.7004 80.0006 61.6004C80.0006 72.4004 71.2006 81.2004 60.3006 81.2004Z" fill="#DB003D"/>
<path d="M134.701 38.8992C131.101 36.6992 126.801 35.6992 121.801 35.6992C116.801 35.6992 112.301 36.7992 108.501 39.0992C104.601 41.3992 101.601 44.3992 99.4006 48.3992C97.2006 52.2992 96.1006 56.7992 96.1006 61.9992C96.1006 67.0992 97.3006 71.5992 99.6006 75.4992C101.901 79.3992 105.101 82.4992 109.201 84.7992C113.301 86.9992 118.001 88.0992 123.301 88.0992C126.301 88.0992 129.501 87.4992 132.801 86.3992C136.101 85.2992 138.801 83.7992 141.001 82.0992C141.801 81.3992 142.201 80.5992 142.201 79.5992C142.201 78.5992 141.701 77.6992 140.801 76.8992C140.101 76.2992 139.201 76.0992 138.201 76.0992C137.201 76.0992 136.301 76.4992 135.501 77.0992C134.101 78.1992 132.301 79.1992 130.001 79.8992C127.701 80.6992 125.501 80.9992 123.301 80.9992C119.501 80.9992 116.101 80.1992 113.201 78.4992C110.301 76.7992 107.901 74.5992 106.301 71.6992C105.001 69.4992 104.201 67.1992 103.901 64.4992H142.401C143.501 64.4992 144.401 64.1992 145.101 63.4992C145.801 62.7992 146.201 61.9992 146.201 60.8992C146.201 55.9992 145.201 51.6992 143.201 47.7992C141.201 44.0992 138.401 41.0992 134.701 38.8992ZM112.201 45.1992C114.901 43.4992 118.101 42.6992 121.801 42.6992C125.301 42.6992 128.301 43.4992 130.801 44.9992C133.301 46.5992 135.201 48.6992 136.601 51.4992C137.601 53.4992 138.201 55.5992 138.501 57.9992H104.001C104.301 55.7992 105.001 53.7992 105.901 51.9992C107.401 49.0992 109.501 46.8992 112.201 45.1992Z" fill="#DB003D"/>
<path d="M191.7 38.3996C188.1 36.5996 184 35.5996 179.4 35.5996C175.2 35.5996 171.4 36.4996 168 38.2996C165.8 39.4996 163.8 40.9996 162.2 42.6996V40.1996C162.2 38.8996 161.8 37.9996 161.1 37.1996C160.4 36.4996 159.4 36.0996 158.1 36.0996C156.9 36.0996 155.9 36.4996 155.1 37.1996C154.3 37.8996 153.9 38.8996 153.9 40.1996V83.5996C153.9 84.7996 154.3 85.6996 155.1 86.4996C155.9 87.1996 156.9 87.5996 158.1 87.5996C159.3 87.5996 160.3 87.1996 161.1 86.4996C161.8 85.7996 162.2 84.7996 162.2 83.5996V56.1996C162.2 53.5996 162.9 51.3996 164.3 49.3996C165.7 47.3996 167.7 45.8996 170.1 44.7996C172.6 43.6996 175.3 43.0996 178.3 43.0996C181.5 43.0996 184.4 43.6996 186.9 44.8996C189.4 46.0996 191.4 47.8996 192.9 50.2996C194.4 52.6996 195.1 55.7996 195.1 59.5996V83.4996C195.1 84.5996 195.5 85.5996 196.3 86.2996C197.1 87.0996 198.1 87.3996 199.3 87.3996C200.5 87.3996 201.4 86.9996 202.2 86.2996C203 85.4996 203.4 84.5996 203.4 83.4996V59.5996C203.4 54.3996 202.4 49.9996 200.3 46.4996C198.1 42.8996 195.2 40.1996 191.7 38.3996Z" fill="#DB003D"/>
<path d="M250.701 38.8992C247.101 36.6992 242.801 35.6992 237.801 35.6992C232.801 35.6992 228.301 36.7992 224.501 39.0992C220.601 41.3992 217.601 44.3992 215.401 48.3992C213.201 52.2992 212.101 56.7992 212.101 61.9992C212.101 67.0992 213.301 71.5992 215.601 75.4992C217.901 79.3992 221.101 82.4992 225.201 84.7992C229.301 86.9992 234.001 88.0992 239.301 88.0992C242.301 88.0992 245.501 87.4992 248.801 86.3992C252.101 85.2992 254.801 83.7992 257.001 82.0992C257.801 81.3992 258.201 80.5992 258.201 79.5992C258.201 78.5992 257.701 77.6992 256.801 76.8992C256.101 76.2992 255.201 76.0992 254.201 76.0992C253.201 76.0992 252.301 76.4992 251.501 77.0992C250.101 78.1992 248.301 79.1992 246.001 79.8992C243.701 80.6992 241.501 80.9992 239.301 80.9992C235.501 80.9992 232.101 80.1992 229.201 78.4992C226.301 76.7992 223.901 74.5992 222.301 71.6992C221.001 69.4992 220.201 67.1992 219.901 64.4992H258.401C259.501 64.4992 260.401 64.1992 261.101 63.4992C261.801 62.7992 262.201 61.9992 262.201 60.8992C262.201 55.9992 261.201 51.6992 259.201 47.7992C257.101 44.0992 254.301 41.0992 250.701 38.8992ZM228.201 45.1992C230.901 43.4992 234.101 42.6992 237.801 42.6992C241.301 42.6992 244.301 43.4992 246.801 44.9992C249.301 46.5992 251.201 48.6992 252.601 51.4992C253.601 53.4992 254.201 55.5992 254.501 57.9992H220.001C220.301 55.7992 221.001 53.7992 221.901 51.9992C223.401 49.0992 225.501 46.8992 228.201 45.1992Z" fill="#DB003D"/>
<path d="M302 36.9996C300.3 36.0996 297.8 35.5996 294.5 35.5996C290.7 35.5996 287.2 36.4996 284.1 38.1996C281.7 39.5996 279.7 41.2996 278 43.3996V40.0996C278 38.7996 277.6 37.8996 276.9 37.1996C276.2 36.4996 275.2 36.1996 273.9 36.1996C272.6 36.1996 271.6 36.4996 270.9 37.1996C270.2 37.8996 269.8 38.8996 269.8 40.0996V83.5996C269.8 84.8996 270.2 85.7996 270.9 86.4996C271.6 87.1996 272.6 87.4996 273.9 87.4996C275.2 87.4996 276.2 87.1996 276.9 86.4996C277.6 85.7996 278 84.7996 278 83.5996V55.6996C278 52.7996 278.9 50.2996 280.6 48.2996C282.3 46.2996 284.7 44.6996 287.7 43.7996C290.7 42.8996 294 42.6996 297.8 43.1996C298.8 43.2996 299.8 43.2996 300.6 43.2996C301.4 43.2996 302.1 43.0996 302.7 42.7996C303.3 42.4996 303.7 41.7996 303.9 40.8996C304.3 39.1996 303.7 37.8996 302 36.9996Z" fill="#DB003D"/>
<path d="M340.2 79.4988H337.4C334.7 79.4988 332.4 78.4988 330.7 76.5988C328.9 74.6988 328 72.2988 328 69.2988V44.8988H338C339.1 44.8988 340 44.5988 340.7 43.9988C341.4 43.3988 341.8 42.5988 341.8 41.5988C341.8 40.5988 341.4 39.7988 340.7 39.0988C340 38.3988 339.1 38.0988 338 38.0988H327.9V23.7988C327.9 22.5988 327.5 21.5988 326.7 20.8988C325.9 20.0988 325 19.7988 323.8 19.7988C322.6 19.7988 321.6 20.1988 320.8 20.8988C320.1 21.6988 319.7 22.5988 319.7 23.7988V37.9988H314C312.9 37.9988 312 38.2988 311.3 38.9988C310.6 39.6988 310.2 40.4988 310.2 41.4988C310.2 42.4988 310.6 43.2988 311.3 43.8988C312 44.4988 312.9 44.7988 314 44.7988H319.7V69.2988C319.7 72.6988 320.5 75.7988 322 78.5988C323.5 81.3988 325.6 83.4988 328.3 85.0988C331 86.6988 334 87.3988 337.3 87.3988H339.2C340.6 87.3988 341.7 86.9988 342.5 86.2988C343.4 85.5988 343.8 84.5988 343.8 83.3988C343.8 82.1988 343.4 81.1988 342.7 80.4988C342.2 79.8988 341.3 79.4988 340.2 79.4988Z" fill="#DB003D"/>
<path d="M386.5 38.8992C382.9 36.6992 378.6 35.6992 373.6 35.6992C368.6 35.6992 364.1 36.7992 360.3 39.0992C356.4 41.3992 353.4 44.3992 351.2 48.3992C349 52.2992 347.9 56.7992 347.9 61.9992C347.9 67.0992 349.1 71.5992 351.4 75.4992C353.7 79.3992 356.9 82.4992 361 84.7992C365.1 86.9992 369.8 88.0992 375.1 88.0992C378.1 88.0992 381.3 87.4992 384.6 86.3992C387.9 85.2992 390.6 83.7992 392.8 82.0992C393.6 81.3992 394 80.5992 394 79.5992C394 78.5992 393.5 77.6992 392.6 76.8992C391.9 76.2992 391 76.0992 390 76.0992C389 76.0992 388.1 76.4992 387.3 77.0992C385.9 78.1992 384.1 79.1992 381.8 79.8992C379.5 80.6992 377.3 80.9992 375.1 80.9992C371.3 80.9992 367.9 80.1992 365 78.4992C362.1 76.7992 359.7 74.5992 358.1 71.6992C356.8 69.4992 356 67.1992 355.7 64.4992H394.2C395.3 64.4992 396.2 64.1992 396.9 63.4992C397.6 62.7992 398 61.9992 398 60.8992C398 55.9992 397 51.6992 395 47.7992C393 44.0992 390.2 41.0992 386.5 38.8992ZM364 45.1992C366.7 43.4992 369.9 42.6992 373.6 42.6992C377.1 42.6992 380.1 43.4992 382.6 44.9992C385.1 46.5992 387 48.6992 388.4 51.4992C389.4 53.4992 390 55.5992 390.3 57.9992H355.8C356.1 55.7992 356.8 53.7992 357.7 51.9992C359.2 49.0992 361.3 46.8992 364 45.1992Z" fill="#DB003D"/>
<path d="M424.401 80.6996C423.801 79.9996 422.901 79.5996 421.801 79.5996H419.401C417.801 79.5996 416.401 78.7996 415.401 77.1996C414.301 75.5996 413.801 73.4996 413.801 70.8996V18.0996C413.801 16.8996 413.401 15.9996 412.701 15.1996C412.001 14.4996 411.001 14.0996 409.701 14.0996C408.501 14.0996 407.501 14.4996 406.701 15.1996C406.001 15.8996 405.601 16.8996 405.601 18.0996V70.8996C405.601 74.1996 406.201 76.9996 407.301 79.4996C408.501 81.9996 410.101 83.9996 412.201 85.3996C414.301 86.7996 416.701 87.4996 419.301 87.4996H420.201C421.801 87.4996 423.001 87.0996 423.901 86.3996C424.801 85.6996 425.301 84.6996 425.301 83.4996C425.401 82.3996 425.001 81.3996 424.401 80.6996Z" fill="#DB003D"/>
</svg>
