<?xml version="1.0" encoding="utf-8"?>
<!-- Generator: Adobe Illustrator 22.1.0, SVG Export Plug-In . SVG Version: 6.00 Build 0)  -->
<svg version="1.1" id="Livello_1" xmlns="http://www.w3.org/2000/svg" xmlns:xlink="http://www.w3.org/1999/xlink" x="0px" y="0px"
	 viewBox="0 0 300 100" style="enable-background:new 0 0 300 100;" xml:space="preserve">
<style type="text/css">
	.st0{fill:#FFFFFF;}
</style>
<g>
	<path class="st0" d="M38.3,20.8c-2.7,2.7-5.1,5.7-7.1,9c-2-3.3-4.3-6.3-7-9c-4.4-4.4-9.5-7.7-15.2-10.1c-2.6-1.1-5.1-2-8.1-2.6
		v14.1C13.4,26.4,23,37.5,24.1,51v22.8l0.2,1.3c0,9.1,5.5,16.9,13.3,20.2h0.1V52.1c1.1-13.8,10.7-25.6,23.2-29.8V8.1
		c-2.6,0.6-5.2,1.6-7.7,2.6C47.5,13.1,42.7,16.4,38.3,20.8z"/>
	<path class="st0" d="M255.9,9c-23.8,0-43.1,19.3-43.1,43.1c0,23.8,19.3,43.1,43.1,43.1c23.8,0,43.1-19.3,43.1-43.1
		C299,28.3,279.7,9,255.9,9z M255.9,81.6c-16.3,0-29.5-13.2-29.5-29.5c0-16.3,13.2-29.5,29.5-29.5c16.3,0,29.5,13.2,29.5,29.5
		C285.4,68.4,272.2,81.6,255.9,81.6z"/>
	<path class="st0" d="M116.9,41.6v-38H104v49h2.3C112.2,52.6,116.9,47.6,116.9,41.6z"/>
	<path class="st0" d="M94.9,27.3c-8.2,5.3-13.4,14.4-13.4,24.8c0,13,8.4,24,20,27.9c-11.6-4-20-15-20-27.9
		C81.4,41.7,86.7,32.6,94.9,27.3z"/>
	<path class="st0" d="M125.7,11.8v15.1c0.4,0.2,0.8,0.3,1,0.5c8.2,5.3,13.6,14.4,13.6,24.8c0,15.8-12.3,28.7-27.9,29.5
		c-0.5,0-1,0-1.5,0c-1.4,0-2.8-0.1-4.1-0.3c-0.1,0-0.1,0-0.2,0c-0.5-0.1-0.9-0.1-1.4-0.2c0,0,0,0,0,0c0,0,0,0,0,0
		c-0.4-0.1-0.9-0.2-1.3-0.3c0,0,0,0,0,0c-0.4-0.1-0.9-0.2-1.3-0.4l0,0c-0.4-0.1-0.7-0.2-1.1-0.4c0.4,0.1,0.7,0.2,1.1,0.4
		c-12.2-3.6-21.1-14.9-21.1-28.3c0-10.4,5-19.5,13.2-24.8c0.3-0.2,0.6-0.3,0.6-0.5V11.8C79,17.9,67.6,33.7,67.6,52.1
		c0,23.8,19.4,43.1,43.3,43.1c23.8,0,43-19.3,43-43.1C153.8,33.7,141.9,17.9,125.7,11.8z"/>
	<path class="st0" d="M180.6,7.6l-0.3,0.1c-7.9,3.1-13.3,10.9-13.3,20v67.6h40.5V81.7h-26.9V7.6z"/>
</g>
</svg>
