<svg width="258" height="59" viewBox="0 0 258 59" fill="none" xmlns="http://www.w3.org/2000/svg">
    <path fill="#042C4D" stroke="#6C8195" d="M.5.5h257v58H.5z"/>
    <path fill="#6C8195" fill-opacity=".5" d="M0 0h129.543v59H0z"/>
    <g clip-path="url(#mh3fydwkta)">
        <mask id="xs6mkww0ub" style="mask-type:alpha" maskUnits="userSpaceOnUse" x="25" y="16" width="79" height="28">
            <path d="M25 16h78.836v27.64H25V16z" fill="#fff"/>
        </mask>
        <g mask="url(#xs6mkww0ub)">
            <path fill-rule="evenodd" clip-rule="evenodd" d="M98.234 41.062c-.664.848-2.396 2.47-5.676 2.47-3.834 0-6.487-2.359-6.487-5.75 0-3.685 2.69-5.197 5.676-6.118l4.422-1.364v3.87l-2.837 1.106c-1.032.442-1.512 1.142-1.512 1.99 0 .922.811 2.175 2.728 2.175 2.322 0 3.686-1.585 3.686-3.612v-5.97c0-1.66-1.032-2.691-3.096-2.691-2.728 0-3.354 1.695-3.354 2.874h-5.27c0-4.496 3.243-7.334 8.808-7.334 5.344 0 8.514 2.175 8.514 6.708v13.858h-5.602v-2.212zm-20.05 2.212h5.565V16h-5.565v27.274zm-8.588 0h5.566V16h-5.566v27.274zM55.37 31.11h6.007c-.147-2.248-1.658-3.76-3.722-3.76-2.101 0-4.35 1.512-4.35 5.677v.553c.074 2.985 1.401 5.233 4.46 5.233 2.138 0 3.354-1.18 3.76-2.359L66.5 38.04c-.847 2.506-3.39 5.492-9.03 5.492-6.118 0-9.914-4.534-9.914-10.025 0-6.303 3.796-10.8 9.988-10.8 6.598 0 9.51 4.755 9.51 10.468v1.548H55.37v-3.612zm-24.326 3.723v.737c0 2.47 1.954 3.501 4.534 3.501 2.985 0 4.017-1.216 4.017-2.764 0-1.622-1.585-2.248-4.165-3.022l-2.8-.848c-3.981-1.216-7.04-2.801-7.15-7.26 0-4.202 2.948-8.072 10.208-8.072 6.413 0 9.657 2.838 9.657 7.482v.774h-5.529v-.59c0-2.1-1.4-3.207-4.238-3.207-2.47 0-3.98 1.143-3.98 2.728 0 1.142.442 2.137 3.095 2.948l4.054 1.216c4.165 1.254 7.114 2.986 7.114 7.446 0 4.238-3.391 7.74-10.246 7.74C27.543 43.642 25 39.477 25 35.57v-.737h6.044z" fill="#6C8195"/>
        </g>
    </g>
    <path stroke="#6C8195" d="M.5.5h257v58H.5z"/>
    <path d="M158.662 26.838a14.86 14.86 0 0 0-2.307 2.77 14.687 14.687 0 0 0-2.274-2.77c-1.43-1.355-3.087-2.37-4.939-3.11-.845-.338-1.657-.615-2.632-.8v4.34c4.061 1.294 7.181 4.71 7.538 8.866v7.019l.065.4c0 2.801 1.787 5.202 4.322 6.218h.032V36.473c.358-4.248 3.477-7.88 7.538-9.173v-4.371c-.844.184-1.689.492-2.502.8a14.929 14.929 0 0 0-4.841 3.109zM229.366 23.206c-7.733 0-14.004 5.94-14.004 13.267 0 7.326 6.271 13.267 14.004 13.267s14.005-5.94 14.005-13.267c0-7.326-6.272-13.267-14.005-13.267zm0 22.348c-5.296 0-9.585-4.064-9.585-9.081 0-5.018 4.289-9.081 9.585-9.081 5.297 0 9.586 4.063 9.586 9.08 0 5.018-4.289 9.082-9.586 9.082zM184.201 33.24V21.544h-4.191v15.084h.747c1.917 0 3.444-1.54 3.444-3.386z" fill="#6C8195"/>
    <path d="M177.053 28.839c-2.665 1.631-4.354 4.433-4.354 7.634 0 4.002 2.729 7.388 6.498 8.588-3.769-1.231-6.498-4.617-6.498-8.588-.033-3.201 1.689-6.003 4.354-7.634z" fill="#000"/>
    <path d="M187.061 24.068v4.648c.13.061.26.092.325.154 2.664 1.631 4.419 4.432 4.419 7.634 0 4.863-3.997 8.834-9.066 9.08h-.487c-.455 0-.91-.03-1.332-.092h-.065c-.163-.03-.293-.03-.455-.061-.13-.031-.293-.062-.423-.093-.129-.03-.292-.061-.422-.123a1.637 1.637 0 0 1-.357-.123c.13.03.227.062.357.123-3.964-1.108-6.856-4.586-6.856-8.711 0-3.202 1.625-6.003 4.289-7.634.098-.062.195-.093.195-.154v-4.648c-5.296 1.877-9 6.741-9 12.405 0 7.326 6.303 13.267 14.069 13.267 7.733 0 13.972-5.94 13.972-13.267-.033-5.664-3.899-10.528-9.163-12.405zM204.899 22.775l-.097.03c-2.567.955-4.322 3.356-4.322 6.157v20.81h13.16v-4.187h-8.741v-22.81zM146.599 9.461v3.448h-.593V9.461h.593zm-.637-.914c0-.096.028-.177.086-.243.059-.065.146-.098.261-.098.113 0 .199.033.258.098a.34.34 0 0 1 .093.243c0 .091-.031.17-.093.235-.059.064-.145.096-.258.096-.115 0-.202-.032-.261-.096a.344.344 0 0 1-.086-.235zm2.173 1.65v2.712h-.589V9.461h.557l.032.736zm-.14.858-.245-.01a2.07 2.07 0 0 1 .105-.653c.068-.202.163-.377.286-.526a1.286 1.286 0 0 1 1.011-.469c.17 0 .323.024.459.07a.839.839 0 0 1 .347.217c.098.1.172.23.223.389.051.157.076.35.076.577v2.26h-.592v-2.267a.994.994 0 0 0-.08-.433.49.49 0 0 0-.233-.239.834.834 0 0 0-.376-.076c-.146 0-.28.03-.401.092a.959.959 0 0 0-.309.255 1.287 1.287 0 0 0-.271.813zm6.157 1.434a.88.88 0 0 0 .388-.087.797.797 0 0 0 .293-.235.648.648 0 0 0 .131-.348h.561c-.011.204-.08.394-.207.57a1.411 1.411 0 0 1-1.166.584c-.26 0-.486-.046-.679-.137a1.344 1.344 0 0 1-.478-.376 1.674 1.674 0 0 1-.284-.548 2.334 2.334 0 0 1-.092-.66v-.134c0-.231.031-.45.092-.656.064-.208.158-.392.284-.551.127-.16.287-.285.478-.377.193-.09.419-.137.679-.137.269 0 .505.056.707.166.202.109.36.257.475.446.117.187.18.4.191.638h-.561a.843.843 0 0 0-.121-.386.784.784 0 0 0-.691-.38.887.887 0 0 0-.456.11.798.798 0 0 0-.29.286c-.07.119-.121.252-.153.398-.03.145-.045.292-.045.443v.134c0 .15.015.3.045.446.03.147.08.28.15.399a.833.833 0 0 0 .29.286c.123.07.276.106.459.106zm1.88-1.266v-.073c0-.248.036-.479.108-.691.072-.215.176-.4.312-.558.136-.16.301-.283.494-.37.194-.089.41-.134.65-.134.243 0 .46.045.654.134.195.087.361.21.497.37.138.157.243.343.315.558.072.212.109.443.109.691v.073c0 .249-.037.48-.109.692a1.65 1.65 0 0 1-.315.558 1.45 1.45 0 0 1-.494.37c-.191.086-.408.13-.65.13a1.58 1.58 0 0 1-.654-.13 1.481 1.481 0 0 1-.497-.37 1.678 1.678 0 0 1-.312-.558 2.141 2.141 0 0 1-.108-.692zm.589-.073v.073c0 .172.02.335.061.488.04.15.101.285.181.402.083.116.186.209.31.277a.897.897 0 0 0 .43.098.879.879 0 0 0 .424-.098.882.882 0 0 0 .305-.277 1.27 1.27 0 0 0 .182-.402c.043-.153.064-.316.064-.488v-.073c0-.17-.021-.33-.064-.481a1.23 1.23 0 0 0-.185-.405.857.857 0 0 0-.733-.382.873.873 0 0 0-.427.102.92.92 0 0 0-.306.28c-.08.117-.141.252-.181.405-.041.15-.061.311-.061.481zm3.929-3.136v4.895h-.592V8.014h.592zm1.587 0v4.895h-.592V8.014h.592zm2.98 4.306v-1.775a.723.723 0 0 0-.083-.354.543.543 0 0 0-.242-.236.877.877 0 0 0-.402-.083.946.946 0 0 0-.392.077.687.687 0 0 0-.261.2.437.437 0 0 0-.092.268h-.59c0-.123.032-.245.096-.366.063-.121.155-.23.274-.329.121-.1.265-.178.433-.235.17-.06.359-.09.567-.09.251 0 .472.043.663.128a.994.994 0 0 1 .453.386c.11.17.165.383.165.64v1.606c0 .115.01.237.029.367.021.13.052.24.093.334v.051h-.615a1.087 1.087 0 0 1-.071-.27 2.179 2.179 0 0 1-.025-.32zm.102-1.501.006.414h-.596c-.167 0-.317.014-.449.041a1.021 1.021 0 0 0-.331.118.53.53 0 0 0-.274.478c0 .109.024.208.073.297.049.089.122.16.22.213.1.051.222.077.366.077a.988.988 0 0 0 .806-.395.6.6 0 0 0 .134-.322l.252.283a.855.855 0 0 1-.121.297 1.427 1.427 0 0 1-.653.558 1.27 1.27 0 0 1-.504.095c-.234 0-.439-.046-.615-.137a1.055 1.055 0 0 1-.408-.367.975.975 0 0 1-.143-.519c0-.185.036-.347.108-.488a.947.947 0 0 1 .312-.353c.136-.096.3-.168.491-.217.191-.049.405-.073.641-.073h.685zm1.412-2.805h.592v4.226l-.051.67h-.541V8.013zm2.922 3.143v.066c0 .251-.03.484-.089.698-.06.213-.147.398-.262.555-.114.157-.255.28-.42.366a1.21 1.21 0 0 1-.571.13 1.4 1.4 0 0 1-.577-.11 1.142 1.142 0 0 1-.414-.329 1.712 1.712 0 0 1-.271-.516 3.276 3.276 0 0 1-.137-.682v-.293a3.28 3.28 0 0 1 .137-.685 1.71 1.71 0 0 1 .271-.517c.113-.144.251-.253.414-.328.164-.076.354-.115.571-.115.216 0 .409.043.577.128.167.083.308.202.42.357.115.155.202.34.262.558.059.214.089.453.089.716zm-.593.066v-.067c0-.172-.016-.333-.048-.484a1.26 1.26 0 0 0-.153-.401.758.758 0 0 0-.277-.274.82.82 0 0 0-.424-.102.922.922 0 0 0-.389.076c-.108.051-.2.12-.277.207a1.115 1.115 0 0 0-.188.293c-.047.109-.082.221-.105.338v.768c.034.149.089.292.166.43a.992.992 0 0 0 .312.335c.132.087.294.13.488.13a.812.812 0 0 0 .407-.095.769.769 0 0 0 .278-.27c.072-.116.125-.248.159-.4a2.2 2.2 0 0 0 .051-.484zm1.182 0v-.073c0-.248.036-.479.109-.691.072-.215.176-.4.312-.558.136-.16.301-.283.494-.37.193-.089.41-.134.65-.134.242 0 .46.045.653.134.196.087.361.21.497.37.138.157.244.343.316.558.072.212.108.443.108.691v.073c0 .249-.036.48-.108.692a1.653 1.653 0 0 1-.316.558 1.44 1.44 0 0 1-1.144.5c-.242 0-.46-.044-.653-.13a1.481 1.481 0 0 1-.497-.37 1.678 1.678 0 0 1-.312-.558 2.114 2.114 0 0 1-.109-.692zm.59-.073v.073c0 .172.02.335.06.488.041.15.101.285.182.402.083.116.186.209.309.277a.9.9 0 0 0 .43.098.873.873 0 0 0 .424-.098.894.894 0 0 0 .306-.277c.081-.117.141-.251.182-.402.042-.153.063-.316.063-.488v-.073c0-.17-.021-.33-.063-.481a1.25 1.25 0 0 0-.185-.405.857.857 0 0 0-.733-.382.867.867 0 0 0-.427.102.92.92 0 0 0-.306.28 1.29 1.29 0 0 0-.182.405c-.04.15-.06.311-.06.481zm3.878-1.147v2.906h-.59V9.461h.574l.016.542zm1.077-.56-.003.547a1.51 1.51 0 0 0-.287-.025.947.947 0 0 0-.36.063.743.743 0 0 0-.264.179.856.856 0 0 0-.173.274c-.04.104-.066.219-.079.344l-.166.096c0-.208.02-.404.061-.587.042-.182.107-.344.194-.484a.957.957 0 0 1 .331-.331.934.934 0 0 1 .746-.077zm2.451 2.877v-1.775a.723.723 0 0 0-.083-.354.543.543 0 0 0-.242-.236.883.883 0 0 0-.402-.083.942.942 0 0 0-.392.077.687.687 0 0 0-.261.2.438.438 0 0 0-.093.268h-.589c0-.123.032-.245.095-.366a1.08 1.08 0 0 1 .275-.329c.121-.1.265-.178.433-.235.17-.06.359-.09.567-.09.251 0 .472.043.663.128a.992.992 0 0 1 .452.386c.111.17.166.383.166.64v1.606c0 .115.01.237.029.367.021.13.052.24.092.334v.051h-.615a1.137 1.137 0 0 1-.07-.27 2.179 2.179 0 0 1-.025-.32zm.102-1.501.006.414h-.596a2.2 2.2 0 0 0-.449.041 1.036 1.036 0 0 0-.332.118.565.565 0 0 0-.204.201.606.606 0 0 0 .004.574.53.53 0 0 0 .219.213.8.8 0 0 0 .367.077.998.998 0 0 0 .806-.395.6.6 0 0 0 .134-.322l.252.283a.855.855 0 0 1-.121.297 1.418 1.418 0 0 1-.654.558 1.262 1.262 0 0 1-.503.095c-.234 0-.439-.046-.615-.137a1.055 1.055 0 0 1-.408-.367.966.966 0 0 1-.143-.519c0-.185.036-.347.108-.488a.939.939 0 0 1 .312-.353c.136-.096.3-.168.491-.217.191-.049.405-.073.641-.073h.685zm3.983 1.606v.484h-2.508v-.484h2.508zm-.092-2.546-2.282 3.03h-.36v-.433l2.266-3.015h.376v.418zm-.262-.418v.488h-2.355V9.46h2.355zm1.664 0v3.448h-.593V9.461h.593zm-.638-.914c0-.096.029-.177.086-.243.06-.065.147-.098.262-.098.112 0 .198.033.258.098a.344.344 0 0 1 .092.243c0 .091-.031.17-.092.235-.06.064-.146.096-.258.096-.115 0-.202-.032-.262-.096a.349.349 0 0 1-.086-.235zm1.428 2.676v-.073c0-.248.036-.479.108-.691.073-.215.177-.4.313-.558.136-.16.3-.283.494-.37.193-.089.41-.134.65-.134.242 0 .46.045.653.134.195.087.361.21.497.37.138.157.243.343.316.558.072.212.108.443.108.691v.073c0 .249-.036.48-.108.692a1.67 1.67 0 0 1-.316.558 1.45 1.45 0 0 1-.494.37c-.191.086-.408.13-.65.13-.242 0-.46-.044-.653-.13a1.471 1.471 0 0 1-.497-.37 1.698 1.698 0 0 1-.313-.558 2.141 2.141 0 0 1-.108-.692zm.59-.073v.073c0 .172.02.335.06.488.04.15.101.285.182.402.083.116.186.209.309.277a.897.897 0 0 0 .43.098.876.876 0 0 0 .424-.098.894.894 0 0 0 .306-.277c.081-.117.141-.251.181-.402.043-.153.064-.316.064-.488v-.073c0-.17-.021-.33-.064-.481a1.249 1.249 0 0 0-.184-.405.86.86 0 0 0-.733-.382.867.867 0 0 0-.427.102.92.92 0 0 0-.306.28 1.267 1.267 0 0 0-.182.405c-.04.15-.06.311-.06.481zm3.878-.953v2.712h-.59V9.461h.558l.032.736zm-.14.858-.246-.01a2.07 2.07 0 0 1 .105-.653c.068-.202.164-.377.287-.526a1.276 1.276 0 0 1 1.01-.469c.17 0 .323.024.459.07a.836.836 0 0 1 .348.217c.097.1.172.23.223.389.051.157.076.35.076.577v2.26h-.593v-2.267a.995.995 0 0 0-.079-.433.49.49 0 0 0-.233-.239.834.834 0 0 0-.376-.076.876.876 0 0 0-.711.347 1.261 1.261 0 0 0-.2.373c-.047.138-.07.284-.07.44zm4.588 1.918c-.24 0-.457-.04-.653-.121a1.48 1.48 0 0 1-.5-.348 1.542 1.542 0 0 1-.319-.528 1.949 1.949 0 0 1-.111-.67v-.134c0-.28.041-.53.124-.748.083-.221.195-.408.338-.561.142-.153.303-.269.484-.348.181-.078.368-.118.561-.118.246 0 .459.043.637.128.181.085.328.204.443.357.115.15.2.33.255.535.055.204.083.427.083.67v.264h-2.575v-.481h1.985v-.045a1.46 1.46 0 0 0-.095-.446.8.8 0 0 0-.255-.357c-.117-.093-.276-.14-.478-.14a.805.805 0 0 0-.66.334c-.081.11-.143.246-.188.405-.044.16-.067.343-.067.551v.134c0 .164.023.318.067.462.047.143.114.268.201.376a.955.955 0 0 0 .322.255.982.982 0 0 0 .433.093c.208 0 .385-.043.529-.128.145-.085.271-.198.379-.34l.357.283c-.074.112-.169.22-.283.322a1.356 1.356 0 0 1-.424.248 1.643 1.643 0 0 1-.59.096zm5.029-.485c.14 0 .27-.028.389-.085a.805.805 0 0 0 .293-.236.664.664 0 0 0 .131-.348h.56c-.01.204-.079.394-.207.57a1.411 1.411 0 0 1-1.166.584c-.259 0-.486-.046-.679-.137a1.353 1.353 0 0 1-.478-.376 1.672 1.672 0 0 1-.283-.548 2.298 2.298 0 0 1-.093-.66v-.134c0-.231.031-.45.093-.656.063-.208.158-.392.283-.551.128-.16.287-.285.478-.377.193-.09.42-.137.679-.137.27 0 .506.056.707.166.202.109.36.257.475.446.117.187.181.4.191.638h-.56a.844.844 0 0 0-.122-.386.784.784 0 0 0-.691-.38.887.887 0 0 0-.456.11.798.798 0 0 0-.29.286c-.07.119-.121.252-.153.398a2.246 2.246 0 0 0-.044.443v.134c0 .15.015.3.044.446.03.147.08.28.15.399a.833.833 0 0 0 .29.286c.123.07.276.106.459.106zm1.88-1.265v-.073c0-.248.036-.479.108-.691.073-.215.177-.4.313-.558.136-.16.3-.283.494-.37.193-.089.41-.134.65-.134.242 0 .46.045.653.134.195.087.361.21.497.37.138.157.243.343.316.558.072.212.108.443.108.691v.073c0 .249-.036.48-.108.692a1.67 1.67 0 0 1-.316.558 1.45 1.45 0 0 1-.494.37c-.191.086-.408.13-.65.13-.242 0-.46-.044-.653-.13a1.471 1.471 0 0 1-.497-.37 1.698 1.698 0 0 1-.313-.558 2.141 2.141 0 0 1-.108-.692zm.59-.073v.073c0 .172.02.335.06.488.04.15.101.285.182.402.083.116.186.209.309.277a.9.9 0 0 0 .43.098.873.873 0 0 0 .424-.098.894.894 0 0 0 .306-.277c.081-.117.141-.251.181-.402.043-.153.064-.316.064-.488v-.073c0-.17-.021-.33-.064-.481a1.249 1.249 0 0 0-.184-.405.86.86 0 0 0-.733-.382.867.867 0 0 0-.427.102.92.92 0 0 0-.306.28 1.267 1.267 0 0 0-.182.405c-.04.15-.06.311-.06.481zm3.878-.953v2.712h-.59V9.461h.558l.032.736zm-.14.858-.246-.01a2.07 2.07 0 0 1 .105-.653c.068-.202.164-.377.287-.526a1.276 1.276 0 0 1 1.01-.469c.17 0 .323.024.459.07a.836.836 0 0 1 .348.217c.097.1.172.23.223.389.051.157.076.35.076.577v2.26h-.593v-2.267a.995.995 0 0 0-.079-.433.49.49 0 0 0-.233-.239.834.834 0 0 0-.376-.076c-.147 0-.28.03-.401.092a.973.973 0 0 0-.31.255 1.285 1.285 0 0 0-.27.813z" fill="#6C8195"/>
    <defs>
        <clipPath id="mh3fydwkta">
            <path fill="#fff" transform="translate(25 16)" d="M0 0h78.842v28H0z"/>
        </clipPath>
    </defs>
</svg>
