<?xml version="1.0" encoding="utf-8"?>
<!-- Generator: Adobe Illustrator 22.1.0, SVG Export Plug-In . SVG Version: 6.00 Build 0)  -->
<svg version="1.1" id="Livello_1" xmlns="http://www.w3.org/2000/svg" xmlns:xlink="http://www.w3.org/1999/xlink" x="0px" y="0px"
	 viewBox="0 0 100 100" style="enable-background:new 0 0 100 100;" xml:space="preserve">
<style type="text/css">
	.st0{fill:#218AE5;}
</style>
<path class="st0" d="M56.5,41.4V0.6H42.7v52.6h2.4C51.5,53.2,56.5,47.8,56.5,41.4z"/>
<path class="st0" d="M66,9.4v16.2c0.4,0.2,0.8,0.4,1.1,0.5c8.8,5.6,14.6,15.4,14.6,26.6c0,17-13.2,30.8-30,31.6c-0.5,0-1.1,0-1.6,0
	c-1.5,0-3-0.1-4.4-0.3c-0.1,0-0.1,0-0.2,0c-0.5-0.1-1-0.2-1.5-0.2c0,0,0,0,0,0c0,0,0,0,0,0c-0.5-0.1-0.9-0.2-1.4-0.3c0,0,0,0,0,0
	c-0.5-0.1-0.9-0.2-1.4-0.4l0,0c-0.4-0.1-0.8-0.2-1.2-0.4c0.4,0.1,0.8,0.3,1.2,0.4c-13.1-3.9-22.7-16-22.7-30.4
	c0-11.1,5.4-20.9,14.2-26.6c0.3-0.2,0.6-0.4,0.6-0.5V9.4C15.8,16,3.6,32.9,3.6,52.7C3.6,78.3,24.4,99,50,99
	c25.6,0,46.1-20.7,46.1-46.3C96.1,32.9,83.4,16,66,9.4z"/>
</svg>
