<svg width="364" height="82" viewBox="0 0 364 82" fill="none" xmlns="http://www.w3.org/2000/svg">
<rect x="183" y="1" width="180" height="80" fill="white" stroke="#0033CC" stroke-width="2"/>
<path d="M210.735 16.043V23.2953H209.108V16.043H210.735ZM209 14.1395C209 13.8937 209.081 13.6904 209.242 13.5295C209.408 13.3642 209.637 13.2815 209.928 13.2815C210.215 13.2815 210.441 13.3642 210.607 13.5295C210.773 13.6904 210.856 13.8937 210.856 14.1395C210.856 14.3808 210.773 14.5818 210.607 14.7427C210.441 14.9036 210.215 14.984 209.928 14.984C209.637 14.984 209.408 14.9036 209.242 14.7427C209.081 14.5818 209 14.3808 209 14.1395Z" fill="#218DE8"/>
<path d="M214.117 17.5913V23.2953H212.497V16.043H214.023L214.117 17.5913ZM213.828 19.4011L213.304 19.3944C213.308 18.8805 213.38 18.4091 213.519 17.9801C213.662 17.5511 213.86 17.1825 214.111 16.8742C214.366 16.5658 214.671 16.329 215.025 16.1637C215.379 15.9939 215.774 15.909 216.209 15.909C216.558 15.909 216.874 15.9581 217.157 16.0564C217.444 16.1503 217.688 16.3044 217.89 16.5189C218.096 16.7334 218.253 17.0127 218.361 17.3567C218.468 17.6964 218.522 18.1142 218.522 18.6102V23.2953H216.895V18.6035C216.895 18.2549 216.843 17.9801 216.74 17.779C216.641 17.5735 216.496 17.4282 216.303 17.3433C216.115 17.254 215.879 17.2093 215.597 17.2093C215.319 17.2093 215.07 17.2674 214.85 17.3836C214.631 17.4997 214.445 17.6584 214.292 17.8595C214.144 18.0605 214.03 18.2929 213.949 18.5565C213.869 18.8202 213.828 19.1017 213.828 19.4011Z" fill="#218DE8"/>
<path d="M226.578 22.1425C226.842 22.1425 227.08 22.0911 227.291 21.9883C227.506 21.8811 227.678 21.7336 227.808 21.5459C227.943 21.3583 228.017 21.1415 228.03 20.8958H229.557C229.548 21.365 229.409 21.7917 229.14 22.176C228.871 22.5603 228.515 22.8664 228.071 23.0943C227.627 23.3177 227.136 23.4294 226.598 23.4294C226.042 23.4294 225.558 23.3356 225.146 23.1479C224.733 22.9557 224.39 22.6921 224.117 22.357C223.843 22.0218 223.637 21.6353 223.498 21.1974C223.364 20.7595 223.296 20.2903 223.296 19.7898V19.5552C223.296 19.0548 223.364 18.5856 223.498 18.1477C223.637 17.7053 223.843 17.3165 224.117 16.9814C224.39 16.6463 224.733 16.3849 225.146 16.1972C225.558 16.005 226.04 15.909 226.591 15.909C227.174 15.909 227.685 16.0251 228.125 16.2575C228.564 16.4854 228.909 16.8049 229.16 17.216C229.416 17.6226 229.548 18.0963 229.557 18.637H228.03C228.017 18.3689 227.95 18.1276 227.829 17.9131C227.712 17.6941 227.546 17.5198 227.331 17.3903C227.12 17.2607 226.867 17.1959 226.571 17.1959C226.244 17.1959 225.973 17.2629 225.757 17.397C225.542 17.5266 225.374 17.7053 225.253 17.9332C225.132 18.1566 225.045 18.4091 224.991 18.6906C224.942 18.9676 224.917 19.2558 224.917 19.5552V19.7898C224.917 20.0892 224.942 20.3797 224.991 20.6612C225.04 20.9427 225.125 21.1952 225.246 21.4186C225.372 21.6375 225.542 21.814 225.757 21.9481C225.973 22.0777 226.246 22.1425 226.578 22.1425Z" fill="#218DE8"/>
<path d="M230.492 19.7496V19.5954C230.492 19.0726 230.568 18.5878 230.72 18.141C230.873 17.6897 231.092 17.2987 231.379 16.968C231.671 16.6329 232.025 16.3737 232.442 16.1905C232.863 16.0028 233.338 15.909 233.867 15.909C234.401 15.909 234.876 16.0028 235.293 16.1905C235.714 16.3737 236.071 16.6329 236.362 16.968C236.653 17.2987 236.875 17.6897 237.028 18.141C237.18 18.5878 237.256 19.0726 237.256 19.5954V19.7496C237.256 20.2724 237.18 20.7572 237.028 21.2041C236.875 21.6509 236.653 22.0419 236.362 22.3771C236.071 22.7077 235.716 22.9669 235.3 23.1546C234.883 23.3378 234.41 23.4294 233.881 23.4294C233.347 23.4294 232.87 23.3378 232.448 23.1546C232.031 22.9669 231.677 22.7077 231.386 22.3771C231.095 22.0419 230.873 21.6509 230.72 21.2041C230.568 20.7572 230.492 20.2724 230.492 19.7496ZM232.112 19.5954V19.7496C232.112 20.0758 232.146 20.3841 232.213 20.6746C232.28 20.965 232.386 21.2197 232.529 21.4387C232.673 21.6576 232.856 21.8297 233.08 21.9548C233.305 22.0799 233.571 22.1425 233.881 22.1425C234.181 22.1425 234.441 22.0799 234.661 21.9548C234.885 21.8297 235.069 21.6576 235.212 21.4387C235.356 21.2197 235.461 20.965 235.528 20.6746C235.6 20.3841 235.636 20.0758 235.636 19.7496V19.5954C235.636 19.2737 235.6 18.9699 235.528 18.6839C235.461 18.3934 235.353 18.1365 235.205 17.9131C235.062 17.6896 234.878 17.5154 234.654 17.3903C234.434 17.2607 234.172 17.1959 233.867 17.1959C233.562 17.1959 233.298 17.2607 233.074 17.3903C232.854 17.5154 232.673 17.6896 232.529 17.9131C232.386 18.1365 232.28 18.3934 232.213 18.6839C232.146 18.9699 232.112 19.2737 232.112 19.5954Z" fill="#218DE8"/>
<path d="M240.35 13V23.2953H238.722V13H240.35Z" fill="#218DE8"/>
<path d="M243.86 13V23.2953H242.233V13H243.86Z" fill="#218DE8"/>
<path d="M249.737 21.8409V18.3823C249.737 18.1231 249.69 17.8997 249.596 17.712C249.502 17.5243 249.358 17.3791 249.166 17.2763C248.977 17.1735 248.74 17.1222 248.453 17.1222C248.188 17.1222 247.96 17.1668 247.767 17.2562C247.574 17.3456 247.424 17.4662 247.316 17.6182C247.209 17.7701 247.155 17.9421 247.155 18.1343H245.541C245.541 17.8483 245.61 17.5712 245.749 17.3031C245.888 17.035 246.09 16.796 246.355 16.5859C246.619 16.3759 246.935 16.2106 247.303 16.0899C247.67 15.9693 248.083 15.909 248.54 15.909C249.087 15.909 249.571 16.0006 249.993 16.1838C250.419 16.367 250.753 16.644 250.995 17.0149C251.241 17.3813 251.364 17.8416 251.364 18.3957V21.6197C251.364 21.9503 251.387 22.2475 251.432 22.5111C251.481 22.7703 251.55 22.9959 251.64 23.1881V23.2953H249.979C249.903 23.1211 249.842 22.8999 249.798 22.6318C249.757 22.3592 249.737 22.0956 249.737 21.8409ZM249.972 18.885L249.986 19.8837H248.823C248.522 19.8837 248.258 19.9127 248.029 19.9708C247.8 20.0244 247.61 20.1049 247.457 20.2121C247.305 20.3193 247.191 20.4489 247.115 20.6009C247.038 20.7528 247 20.9248 247 21.117C247 21.3091 247.045 21.4856 247.135 21.6465C247.224 21.8029 247.354 21.9258 247.525 22.0151C247.7 22.1045 247.91 22.1492 248.157 22.1492C248.489 22.1492 248.778 22.0821 249.024 21.9481C249.275 21.8096 249.473 21.642 249.616 21.4454C249.76 21.2443 249.836 21.0544 249.845 20.8757L250.369 21.5929C250.315 21.7761 250.224 21.9727 250.094 22.1827C249.964 22.3927 249.793 22.5938 249.582 22.7859C249.376 22.9736 249.127 23.1278 248.836 23.2484C248.549 23.3691 248.217 23.4294 247.841 23.4294C247.366 23.4294 246.942 23.3356 246.57 23.1479C246.198 22.9557 245.906 22.6988 245.696 22.3771C245.485 22.0509 245.38 21.6822 245.38 21.2711C245.38 20.8868 245.451 20.5472 245.595 20.2523C245.743 19.9529 245.958 19.7027 246.24 19.5016C246.527 19.3005 246.877 19.1486 247.289 19.0458C247.702 18.9386 248.173 18.885 248.702 18.885H249.972Z" fill="#218DE8"/>
<path d="M253.066 13H254.686V21.747L254.532 23.2953H253.066V13ZM259.434 19.6022V19.7429C259.434 20.2791 259.373 20.7729 259.252 21.2242C259.136 21.671 258.956 22.0598 258.714 22.3905C258.477 22.7211 258.181 22.9781 257.827 23.1613C257.477 23.34 257.071 23.4294 256.61 23.4294C256.157 23.4294 255.762 23.3445 255.426 23.1747C255.09 23.0049 254.807 22.7636 254.579 22.4508C254.355 22.138 254.173 21.7649 254.034 21.3314C253.895 20.898 253.796 20.4199 253.738 19.8971V19.448C253.796 18.9207 253.895 18.4426 254.034 18.0136C254.173 17.5802 254.355 17.2071 254.579 16.8943C254.807 16.577 255.088 16.3335 255.419 16.1637C255.756 15.9939 256.148 15.909 256.596 15.909C257.062 15.909 257.473 15.9983 257.827 16.1771C258.185 16.3558 258.483 16.6105 258.721 16.9412C258.959 17.2674 259.136 17.6561 259.252 18.1075C259.373 18.5588 259.434 19.057 259.434 19.6022ZM257.813 19.7429V19.6022C257.813 19.276 257.786 18.9699 257.733 18.6839C257.679 18.3934 257.589 18.1387 257.464 17.9198C257.343 17.7008 257.177 17.5288 256.966 17.4037C256.76 17.2741 256.502 17.2093 256.193 17.2093C255.906 17.2093 255.659 17.2584 255.453 17.3567C255.247 17.4551 255.074 17.5891 254.935 17.7589C254.796 17.9287 254.686 18.1253 254.606 18.3487C254.529 18.5722 254.478 18.8135 254.451 19.0726V20.2858C254.491 20.621 254.577 20.9293 254.707 21.2108C254.841 21.4878 255.029 21.7113 255.271 21.8811C255.513 22.0464 255.825 22.1291 256.206 22.1291C256.506 22.1291 256.76 22.0687 256.966 21.9481C257.172 21.8274 257.336 21.6599 257.457 21.4454C257.582 21.2264 257.672 20.9717 257.726 20.6813C257.784 20.3908 257.813 20.078 257.813 19.7429Z" fill="#218DE8"/>
<path d="M260.496 19.7496V19.5954C260.496 19.0726 260.573 18.5878 260.725 18.141C260.877 17.6897 261.097 17.2987 261.384 16.968C261.675 16.6329 262.03 16.3737 262.446 16.1905C262.868 16.0028 263.343 15.909 263.872 15.909C264.406 15.909 264.881 16.0028 265.298 16.1905C265.719 16.3737 266.075 16.6329 266.367 16.968C266.658 17.2987 266.88 17.6897 267.033 18.141C267.185 18.5878 267.261 19.0726 267.261 19.5954V19.7496C267.261 20.2724 267.185 20.7572 267.033 21.2041C266.88 21.6509 266.658 22.0419 266.367 22.3771C266.075 22.7077 265.721 22.9669 265.304 23.1546C264.887 23.3378 264.414 23.4294 263.885 23.4294C263.352 23.4294 262.875 23.3378 262.453 23.1546C262.036 22.9669 261.682 22.7077 261.391 22.3771C261.099 22.0419 260.877 21.6509 260.725 21.2041C260.573 20.7572 260.496 20.2724 260.496 19.7496ZM262.117 19.5954V19.7496C262.117 20.0758 262.151 20.3841 262.218 20.6746C262.285 20.965 262.39 21.2197 262.534 21.4387C262.677 21.6576 262.861 21.8297 263.085 21.9548C263.309 22.0799 263.576 22.1425 263.885 22.1425C264.186 22.1425 264.446 22.0799 264.666 21.9548C264.89 21.8297 265.073 21.6576 265.217 21.4387C265.36 21.2197 265.466 20.965 265.533 20.6746C265.605 20.3841 265.641 20.0758 265.641 19.7496V19.5954C265.641 19.2737 265.605 18.9699 265.533 18.6839C265.466 18.3934 265.358 18.1365 265.21 17.9131C265.067 17.6896 264.883 17.5154 264.659 17.3903C264.439 17.2607 264.177 17.1959 263.872 17.1959C263.567 17.1959 263.303 17.2607 263.079 17.3903C262.859 17.5154 262.677 17.6896 262.534 17.9131C262.39 18.1365 262.285 18.3934 262.218 18.6839C262.151 18.9699 262.117 19.2737 262.117 19.5954Z" fill="#218DE8"/>
<path d="M270.247 17.4238V23.2953H268.626V16.043H270.173L270.247 17.4238ZM272.473 15.9961L272.459 17.4975C272.361 17.4796 272.253 17.4662 272.136 17.4573C272.024 17.4484 271.912 17.4439 271.8 17.4439C271.522 17.4439 271.278 17.4841 271.067 17.5645C270.857 17.6405 270.679 17.7522 270.536 17.8997C270.397 18.0427 270.289 18.2169 270.213 18.4225C270.137 18.628 270.092 18.8582 270.079 19.1129L269.709 19.1397C269.709 18.6839 269.754 18.2616 269.843 17.8729C269.933 17.4841 270.068 17.1423 270.247 16.8473C270.431 16.5524 270.659 16.3223 270.933 16.157C271.211 15.9916 271.531 15.909 271.894 15.909C271.993 15.909 272.098 15.9179 272.21 15.9358C272.327 15.9537 272.414 15.9738 272.473 15.9961Z" fill="#218DE8"/>
<path d="M277.348 21.8409V18.3823C277.348 18.1231 277.301 17.8997 277.207 17.712C277.113 17.5243 276.969 17.3791 276.776 17.2763C276.588 17.1735 276.35 17.1222 276.064 17.1222C275.799 17.1222 275.57 17.1668 275.378 17.2562C275.185 17.3456 275.035 17.4662 274.927 17.6182C274.82 17.7701 274.766 17.9421 274.766 18.1343H273.152C273.152 17.8483 273.221 17.5712 273.36 17.3031C273.499 17.035 273.701 16.796 273.966 16.5859C274.23 16.3759 274.546 16.2106 274.914 16.0899C275.281 15.9693 275.694 15.909 276.151 15.909C276.698 15.909 277.182 16.0006 277.603 16.1838C278.029 16.367 278.363 16.644 278.605 17.0149C278.852 17.3813 278.975 17.8416 278.975 18.3957V21.6197C278.975 21.9503 278.998 22.2475 279.043 22.5111C279.092 22.7703 279.161 22.9959 279.251 23.1881V23.2953H277.59C277.514 23.1211 277.453 22.8999 277.408 22.6318C277.368 22.3592 277.348 22.0956 277.348 21.8409ZM277.583 18.885L277.597 19.8837H276.433C276.133 19.8837 275.869 19.9127 275.64 19.9708C275.411 20.0244 275.221 20.1049 275.068 20.2121C274.916 20.3193 274.802 20.4489 274.725 20.6009C274.649 20.7528 274.611 20.9248 274.611 21.117C274.611 21.3091 274.656 21.4856 274.746 21.6465C274.835 21.8029 274.965 21.9258 275.136 22.0151C275.31 22.1045 275.521 22.1492 275.768 22.1492C276.099 22.1492 276.389 22.0821 276.635 21.9481C276.886 21.8096 277.083 21.642 277.227 21.4454C277.37 21.2443 277.447 21.0544 277.456 20.8757L277.98 21.5929C277.926 21.7761 277.834 21.9727 277.704 22.1827C277.574 22.3927 277.404 22.5938 277.193 22.7859C276.987 22.9736 276.738 23.1278 276.447 23.2484C276.16 23.3691 275.828 23.4294 275.452 23.4294C274.976 23.4294 274.553 23.3356 274.181 23.1479C273.809 22.9557 273.517 22.6988 273.307 22.3771C273.096 22.0509 272.99 21.6822 272.99 21.2711C272.99 20.8868 273.062 20.5472 273.206 20.2523C273.354 19.9529 273.569 19.7027 273.851 19.5016C274.138 19.3005 274.488 19.1486 274.9 19.0458C275.313 18.9386 275.783 18.885 276.312 18.885H277.583Z" fill="#218DE8"/>
<path d="M286.298 22.0084V23.2953H280.878V22.0084H286.298ZM286.15 17.0484L281.43 23.2953H280.381V22.2564L285.074 16.043H286.15V17.0484ZM285.525 16.043V17.3299H280.461V16.043H285.525Z" fill="#218DE8"/>
<path d="M289.331 16.043V23.2953H287.704V16.043H289.331ZM287.596 14.1395C287.596 13.8937 287.677 13.6904 287.838 13.5295C288.004 13.3642 288.233 13.2815 288.524 13.2815C288.811 13.2815 289.037 13.3642 289.203 13.5295C289.369 13.6904 289.452 13.8937 289.452 14.1395C289.452 14.3808 289.369 14.5818 289.203 14.7427C289.037 14.9036 288.811 14.984 288.524 14.984C288.233 14.984 288.004 14.9036 287.838 14.7427C287.677 14.5818 287.596 14.3808 287.596 14.1395Z" fill="#218DE8"/>
<path d="M290.797 19.7496V19.5954C290.797 19.0726 290.873 18.5878 291.026 18.141C291.178 17.6897 291.398 17.2987 291.685 16.968C291.976 16.6329 292.33 16.3737 292.747 16.1905C293.169 16.0028 293.644 15.909 294.173 15.909C294.706 15.909 295.181 16.0028 295.598 16.1905C296.02 16.3737 296.376 16.6329 296.667 16.968C296.959 17.2987 297.181 17.6897 297.333 18.141C297.486 18.5878 297.562 19.0726 297.562 19.5954V19.7496C297.562 20.2724 297.486 20.7572 297.333 21.2041C297.181 21.6509 296.959 22.0419 296.667 22.3771C296.376 22.7077 296.022 22.9669 295.605 23.1546C295.188 23.3378 294.715 23.4294 294.186 23.4294C293.653 23.4294 293.175 23.3378 292.754 23.1546C292.337 22.9669 291.983 22.7077 291.691 22.3771C291.4 22.0419 291.178 21.6509 291.026 21.2041C290.873 20.7572 290.797 20.2724 290.797 19.7496ZM292.418 19.5954V19.7496C292.418 20.0758 292.451 20.3841 292.518 20.6746C292.586 20.965 292.691 21.2197 292.835 21.4387C292.978 21.6576 293.162 21.8297 293.386 21.9548C293.61 22.0799 293.877 22.1425 294.186 22.1425C294.487 22.1425 294.747 22.0799 294.966 21.9548C295.19 21.8297 295.374 21.6576 295.518 21.4387C295.661 21.2197 295.766 20.965 295.834 20.6746C295.905 20.3841 295.941 20.0758 295.941 19.7496V19.5954C295.941 19.2737 295.905 18.9699 295.834 18.6839C295.766 18.3934 295.659 18.1365 295.511 17.9131C295.367 17.6896 295.184 17.5154 294.959 17.3903C294.74 17.2607 294.478 17.1959 294.173 17.1959C293.868 17.1959 293.603 17.2607 293.379 17.3903C293.16 17.5154 292.978 17.6896 292.835 17.9131C292.691 18.1365 292.586 18.3934 292.518 18.6839C292.451 18.9699 292.418 19.2737 292.418 19.5954Z" fill="#218DE8"/>
<path d="M300.527 17.5913V23.2953H298.907V16.043H300.433L300.527 17.5913ZM300.238 19.4011L299.714 19.3944C299.718 18.8805 299.79 18.4091 299.929 17.9801C300.072 17.5511 300.27 17.1825 300.521 16.8742C300.776 16.5658 301.081 16.329 301.435 16.1637C301.789 15.9939 302.184 15.909 302.619 15.909C302.968 15.909 303.284 15.9581 303.567 16.0564C303.854 16.1503 304.098 16.3044 304.3 16.5189C304.506 16.7334 304.663 17.0127 304.771 17.3567C304.878 17.6964 304.932 18.1142 304.932 18.6102V23.2953H303.305V18.6035C303.305 18.2549 303.253 17.9801 303.15 17.779C303.051 17.5735 302.906 17.4282 302.713 17.3433C302.525 17.254 302.289 17.2093 302.007 17.2093C301.729 17.2093 301.48 17.2674 301.26 17.3836C301.041 17.4997 300.855 17.6584 300.702 17.8595C300.554 18.0605 300.44 18.2929 300.359 18.5565C300.279 18.8202 300.238 19.1017 300.238 19.4011Z" fill="#218DE8"/>
<path d="M309.794 23.4294C309.256 23.4294 308.769 23.3423 308.335 23.168C307.904 22.9892 307.537 22.7412 307.232 22.424C306.931 22.1067 306.7 21.7336 306.539 21.3046C306.378 20.8757 306.297 20.4132 306.297 19.9172V19.6491C306.297 19.0816 306.38 18.5677 306.546 18.1075C306.712 17.6472 306.943 17.254 307.238 16.9278C307.534 16.5971 307.884 16.3446 308.287 16.1704C308.691 15.9961 309.128 15.909 309.599 15.909C310.119 15.909 310.574 15.9961 310.964 16.1704C311.354 16.3446 311.677 16.5904 311.932 16.9077C312.192 17.2205 312.385 17.5936 312.51 18.027C312.64 18.4605 312.705 18.9386 312.705 19.4614V20.1518H307.084V18.9922H311.105V18.8649C311.096 18.5744 311.038 18.3018 310.93 18.0471C310.827 17.7924 310.668 17.5869 310.453 17.4305C310.238 17.2741 309.951 17.1959 309.592 17.1959C309.323 17.1959 309.083 17.254 308.872 17.3702C308.666 17.4819 308.494 17.645 308.355 17.8595C308.216 18.0739 308.108 18.3331 308.032 18.637C307.96 18.9364 307.924 19.2737 307.924 19.6491V19.9172C307.924 20.2344 307.967 20.5294 308.052 20.8019C308.142 21.07 308.272 21.3046 308.442 21.5057C308.612 21.7068 308.819 21.8654 309.061 21.9816C309.303 22.0933 309.579 22.1492 309.888 22.1492C310.278 22.1492 310.625 22.071 310.93 21.9146C311.235 21.7582 311.5 21.537 311.724 21.251L312.578 22.0754C312.421 22.3033 312.217 22.5223 311.966 22.7323C311.715 22.9379 311.408 23.1054 311.045 23.235C310.686 23.3646 310.269 23.4294 309.794 23.4294Z" fill="#218DE8"/>
<path d="M320.371 22.1425C320.636 22.1425 320.874 22.0911 321.084 21.9883C321.299 21.8811 321.472 21.7336 321.602 21.5459C321.736 21.3583 321.81 21.1415 321.824 20.8958H323.35C323.341 21.365 323.202 21.7917 322.933 22.176C322.664 22.5603 322.308 22.8664 321.864 23.0943C321.42 23.3177 320.93 23.4294 320.392 23.4294C319.836 23.4294 319.352 23.3356 318.939 23.1479C318.527 22.9557 318.184 22.6921 317.91 22.357C317.637 22.0218 317.431 21.6353 317.292 21.1974C317.157 20.7595 317.09 20.2903 317.09 19.7898V19.5552C317.09 19.0548 317.157 18.5856 317.292 18.1477C317.431 17.7053 317.637 17.3165 317.91 16.9814C318.184 16.6463 318.527 16.3849 318.939 16.1972C319.352 16.005 319.833 15.909 320.385 15.909C320.968 15.909 321.479 16.0251 321.918 16.2575C322.357 16.4854 322.703 16.8049 322.954 17.216C323.209 17.6226 323.341 18.0963 323.35 18.637H321.824C321.81 18.3689 321.743 18.1276 321.622 17.9131C321.506 17.6941 321.34 17.5198 321.125 17.3903C320.914 17.2607 320.661 17.1959 320.365 17.1959C320.037 17.1959 319.766 17.2629 319.551 17.397C319.336 17.5266 319.168 17.7053 319.047 17.9332C318.926 18.1566 318.838 18.4091 318.784 18.6906C318.735 18.9676 318.71 19.2558 318.71 19.5552V19.7898C318.71 20.0892 318.735 20.3797 318.784 20.6612C318.834 20.9427 318.919 21.1952 319.04 21.4186C319.165 21.6375 319.336 21.814 319.551 21.9481C319.766 22.0777 320.04 22.1425 320.371 22.1425Z" fill="#218DE8"/>
<path d="M324.285 19.7496V19.5954C324.285 19.0726 324.361 18.5878 324.514 18.141C324.666 17.6897 324.886 17.2987 325.173 16.968C325.464 16.6329 325.818 16.3737 326.235 16.1905C326.657 16.0028 327.132 15.909 327.661 15.909C328.194 15.909 328.669 16.0028 329.086 16.1905C329.508 16.3737 329.864 16.6329 330.156 16.968C330.447 17.2987 330.669 17.6897 330.821 18.141C330.974 18.5878 331.05 19.0726 331.05 19.5954V19.7496C331.05 20.2724 330.974 20.7572 330.821 21.2041C330.669 21.6509 330.447 22.0419 330.156 22.3771C329.864 22.7077 329.51 22.9669 329.093 23.1546C328.676 23.3378 328.203 23.4294 327.674 23.4294C327.141 23.4294 326.663 23.3378 326.242 23.1546C325.825 22.9669 325.471 22.7077 325.179 22.3771C324.888 22.0419 324.666 21.6509 324.514 21.2041C324.361 20.7572 324.285 20.2724 324.285 19.7496ZM325.906 19.5954V19.7496C325.906 20.0758 325.939 20.3841 326.007 20.6746C326.074 20.965 326.179 21.2197 326.323 21.4387C326.466 21.6576 326.65 21.8297 326.874 21.9548C327.098 22.0799 327.365 22.1425 327.674 22.1425C327.975 22.1425 328.235 22.0799 328.454 21.9548C328.678 21.8297 328.862 21.6576 329.006 21.4387C329.149 21.2197 329.254 20.965 329.322 20.6746C329.393 20.3841 329.429 20.0758 329.429 19.7496V19.5954C329.429 19.2737 329.393 18.9699 329.322 18.6839C329.254 18.3934 329.147 18.1365 328.999 17.9131C328.856 17.6896 328.672 17.5154 328.448 17.3903C328.228 17.2607 327.966 17.1959 327.661 17.1959C327.356 17.1959 327.091 17.2607 326.867 17.3903C326.648 17.5154 326.466 17.6896 326.323 17.9131C326.179 18.1365 326.074 18.3934 326.007 18.6839C325.939 18.9699 325.906 19.2737 325.906 19.5954Z" fill="#218DE8"/>
<path d="M334.015 17.5913V23.2953H332.395V16.043H333.921L334.015 17.5913ZM333.726 19.4011L333.202 19.3944C333.206 18.8805 333.278 18.4091 333.417 17.9801C333.56 17.5511 333.758 17.1825 334.009 16.8742C334.264 16.5658 334.569 16.329 334.923 16.1637C335.277 15.9939 335.672 15.909 336.107 15.909C336.456 15.909 336.773 15.9581 337.055 16.0564C337.342 16.1503 337.586 16.3044 337.788 16.5189C337.994 16.7334 338.151 17.0127 338.259 17.3567C338.366 17.6964 338.42 18.1142 338.42 18.6102V23.2953H336.793V18.6035C336.793 18.2549 336.741 17.9801 336.638 17.779C336.539 17.5735 336.394 17.4282 336.201 17.3433C336.013 17.254 335.777 17.2093 335.495 17.2093C335.217 17.2093 334.968 17.2674 334.748 17.3836C334.529 17.4997 334.343 17.6584 334.19 17.8595C334.042 18.0605 333.928 18.2929 333.847 18.5565C333.767 18.8202 333.726 19.1017 333.726 19.4011Z" fill="#218DE8"/>
<path d="M224.238 37.6508C223.065 38.7844 222.023 40.0439 221.155 41.4294C220.287 40.0439 219.288 38.7844 218.116 37.6508C216.206 35.8035 213.991 34.418 211.517 33.4103C210.388 32.9485 209.302 32.5706 208 32.3187V38.2386C213.427 40.0019 217.595 44.6622 218.073 50.3302V59.9027L218.159 60.4485C218.159 64.2691 220.547 67.5439 223.934 68.9294H223.977V50.792C224.455 44.9981 228.623 40.0439 234.05 38.2806V32.3187C232.921 32.5706 231.792 32.9905 230.707 33.4103C228.232 34.418 226.148 35.8035 224.238 37.6508Z" fill="#218DE8"/>
<path d="M318.711 32.6965C308.378 32.6965 299.999 40.7996 299.999 50.7919C299.999 60.7843 308.378 68.8873 318.711 68.8873C329.044 68.8873 337.423 60.7843 337.423 50.7919C337.423 40.7996 329.044 32.6965 318.711 32.6965ZM318.711 63.1774C311.634 63.1774 305.903 57.6354 305.903 50.7919C305.903 43.9484 311.634 38.4064 318.711 38.4064C325.788 38.4064 331.519 43.9484 331.519 50.7919C331.519 57.6354 325.788 63.1774 318.711 63.1774Z" fill="#218DE8"/>
<path d="M258.363 46.3836V30.4294H252.762V51.0019H253.76C256.322 51.0019 258.363 48.9027 258.363 46.3836Z" fill="#218DE8"/>
<path d="M248.811 40.3797C245.251 42.6049 242.993 46.4255 242.993 50.792C242.993 56.25 246.64 60.8683 251.677 62.5057C246.64 60.8263 242.993 56.208 242.993 50.792C242.95 46.4255 245.251 42.6049 248.811 40.3797Z" fill="#218DE8"/>
<path d="M262.183 33.8722V40.2119C262.357 40.2958 262.53 40.3378 262.617 40.4218C266.177 42.647 268.522 46.4676 268.522 50.834C268.522 57.4676 263.182 62.8836 256.409 63.2195C256.192 63.2195 255.975 63.2195 255.758 63.2195C255.15 63.2195 254.542 63.1775 253.978 63.0935C253.934 63.0935 253.934 63.0935 253.891 63.0935C253.674 63.0515 253.5 63.0515 253.283 63.0095C253.109 62.9676 252.892 62.9256 252.718 62.8836C252.545 62.8416 252.328 62.7996 252.154 62.7157C251.98 62.6737 251.85 62.6317 251.676 62.5477C251.85 62.5897 251.98 62.6317 252.154 62.7157C246.857 61.2042 242.993 56.4599 242.993 50.834C242.993 46.4676 245.164 42.647 248.724 40.4218C248.854 40.3378 248.985 40.2958 248.985 40.2119V33.8722C241.908 36.4332 236.958 43.0668 236.958 50.792C236.958 60.7844 245.381 68.8874 255.758 68.8874C266.091 68.8874 274.426 60.7844 274.426 50.792C274.383 43.0668 269.217 36.4332 262.183 33.8722Z" fill="#218DE8"/>
<path d="M286.019 32.1088L285.888 32.1508C282.459 33.4523 280.114 36.7271 280.114 40.5477V68.9294H297.698V63.2195H286.019V32.1088V32.1088Z" fill="#218DE8"/>
<rect width="182" height="82" fill="#0033CC"/>
<mask id="mask0_713_235" style="mask-type:alpha" maskUnits="userSpaceOnUse" x="26" y="20" width="130" height="42">
<path d="M26 20H155.774V62H26V20Z" fill="white"/>
</mask>
<g mask="url(#mask0_713_235)">
<path fill-rule="evenodd" clip-rule="evenodd" d="M146.552 58.0825C145.46 59.3706 142.609 61.8348 137.209 61.8348C130.899 61.8348 126.532 58.2505 126.532 53.0982C126.532 47.4978 130.96 45.2017 135.874 43.8016L143.155 41.7295V47.6099L138.483 49.29C136.784 49.962 135.996 51.0261 135.996 52.3141C135.996 53.7142 137.331 55.6184 140.485 55.6184C144.308 55.6184 146.552 53.2102 146.552 50.13V41.0574C146.552 38.5372 144.854 36.9692 141.456 36.9692C136.966 36.9692 135.935 39.5453 135.935 41.3374H127.259C127.259 34.505 132.598 30.1927 141.759 30.1927C150.557 30.1927 155.774 33.4969 155.774 40.3854V61.4428H146.552V58.0825ZM113.548 61.4428H122.709V20H113.548V61.4428ZM99.4117 61.4428H108.573V20H99.4117V61.4428ZM75.9926 42.9615H85.8821C85.6394 39.5453 83.1519 37.2492 79.7544 37.2492C76.296 37.2492 72.5951 39.5453 72.5951 45.8737V46.7138C72.7165 51.2501 74.9006 54.6663 79.9364 54.6663C83.4553 54.6663 85.4574 52.8742 86.1248 51.0821L94.3154 53.4903C92.9199 57.2985 88.7337 61.8348 79.451 61.8348C69.3796 61.8348 63.1305 54.9463 63.1305 46.6018C63.1305 37.0251 69.3796 30.1927 79.5724 30.1927C90.4324 30.1927 95.2254 37.4172 95.2254 46.0978V48.4499H75.9926V42.9615ZM35.95 48.6179V49.738C35.95 53.4903 39.1655 55.0583 43.4125 55.0583C48.3268 55.0583 50.0256 53.2102 50.0256 50.8581C50.0256 48.3939 47.4168 47.4418 43.1698 46.2658L38.5588 44.9777C32.0064 43.1295 26.9707 40.7214 26.7887 33.945C26.7887 27.5605 31.6424 21.6801 43.5945 21.6801C54.1512 21.6801 59.4902 25.9924 59.4902 33.0489V34.225H50.3896V33.3289C50.3896 30.1367 48.0841 28.4566 43.4125 28.4566C39.3475 28.4566 36.86 30.1927 36.86 32.6009C36.86 34.3369 37.5881 35.8491 41.9564 37.0812L48.6302 38.9293C55.4859 40.8334 60.3396 43.4656 60.3396 50.242C60.3396 56.6825 54.7579 62.0028 43.4732 62.0028C30.1863 62.0028 26 55.6744 26 49.738V48.6179H35.95Z" fill="white"/>
</g>
</svg>
