<svg xmlns="http://www.w3.org/2000/svg" width="172" height="53.073" viewBox="0 0 172 53.073"><defs><style>.a{fill:#fff;}</style></defs><g transform="translate(-93.147 -93.101)"><path class="a" d="M262.549,93.1h8.82l14.034,18.03V93.1h9.356v34.111h-8.284L271.905,108.5v18.712h-9.356Z" transform="translate(-105.968)"/><path class="a" d="M482.7,101.15H472.47V93.11h29.917v8.04H492.155v26.068H482.7Z" transform="translate(-237.283 -0.006)"/><path class="a" d="M264.661,202.032v12.076h-2.122V202.032Z" transform="translate(-105.962 -68.141)"/><path class="a" d="M286.592,202.032h2.087v12.076H286.9l-6.659-8.591v8.591h-2.087V202.032h1.967l6.469,8.35Z" transform="translate(-115.731 -68.141)"/><path class="a" d="M319.187,206.816c2.553.621,3.882,1.536,3.882,3.554,0,2.277-1.777,3.623-4.313,3.623a7.437,7.437,0,0,1-5.037-1.932l1.277-1.518a5.561,5.561,0,0,0,3.812,1.57c1.311,0,2.139-.6,2.139-1.535,0-.88-.482-1.346-2.725-1.864-2.57-.621-4.019-1.38-4.019-3.623,0-2.1,1.725-3.519,4.123-3.519a6.693,6.693,0,0,1,4.382,1.518l-1.138,1.6a5.487,5.487,0,0,0-3.278-1.242c-1.242,0-1.966.638-1.966,1.449C316.323,205.85,316.875,206.264,319.187,206.816Z" transform="translate(-137.977 -67.853)"/><path class="a" d="M356.528,208.88c0,3.605-2.036,5.417-5.193,5.417-3.139,0-5.141-1.812-5.141-5.314v-6.952h2.122V208.9c0,2.243,1.156,3.45,3.054,3.45,1.88,0,3.036-1.139,3.036-3.364v-6.952h2.122Z" transform="translate(-158.292 -68.141)"/><path class="a" d="M390.654,214.107l-2.967-4.209H385.03v4.209h-2.122V202.032h5.382c2.777,0,4.486,1.466,4.486,3.83a3.616,3.616,0,0,1-2.881,3.675l3.26,4.571Zm-2.536-10.144H385.03v4.054h3.105c1.518,0,2.484-.793,2.484-2.036C390.619,204.654,389.688,203.964,388.118,203.964Z" transform="translate(-181.258 -68.141)"/><path class="a" d="M427.379,213.963h-2.243l-1.225-2.916H418.2l-1.242,2.916h-2.173L420.1,201.8h1.967Zm-6.331-9.626-2.07,4.83h4.158Z" transform="translate(-201.199 -67.996)"/><path class="a" d="M463.713,202.032H465.8v12.076h-1.776l-6.659-8.591v8.591h-2.088V202.032h1.967l6.469,8.35Z" transform="translate(-226.528 -68.141)"/><path class="a" d="M497.718,213.969a6.245,6.245,0,0,1,.086-12.49,6.294,6.294,0,0,1,4.727,1.881l-1.363,1.57a4.8,4.8,0,0,0-3.381-1.5,4.307,4.307,0,0,0,0,8.59,4.732,4.732,0,0,0,3.467-1.57l1.363,1.38A6.231,6.231,0,0,1,497.718,213.969Z" transform="translate(-249.235 -67.795)"/><path class="a" d="M537.29,203.93h-6.831v3.14h6.055v1.9h-6.055v3.243h6.918v1.9h-9.04V202.032h8.953Z" transform="translate(-272.23 -68.141)"/><path class="a" d="M114.286,134.246v8.381a5.285,5.285,0,1,1-10.569,0v-18.95l-10.57-10.57V153.2a5.3,5.3,0,0,0,5.285,5.285h40.089Z" transform="translate(0 -12.515)"/><path class="a" d="M153.2,93.147h-40.09l24.235,24.235V109a5.285,5.285,0,1,1,10.57,0v18.95l10.569,10.569V98.432A5.3,5.3,0,0,0,153.2,93.147Z" transform="translate(-12.485 -0.029)"/><path class="a" d="M373.566,138.483V155.6h17.117Z" transform="translate(-175.414 -28.388)"/><path class="a" d="M373.566,93.114v11.3l9.355,9.355h11.709v-7.455H382.921v-5.165h18.32V93.114Z" transform="translate(-175.414 -0.008)"/><path class="a" d="M421.028,170.765H425.9v-8.039H412.989Z" transform="translate(-200.075 -43.553)"/></g></svg>