<svg xmlns="http://www.w3.org/2000/svg" width="230.098" height="71" viewBox="0 0 230.098 71"><defs><style>.a{fill:#004f8c;}.b{fill:#e1001e;}</style></defs><g transform="translate(-93.147 -93.101)"><path class="a" d="M262.549,93.1h11.8l18.775,24.12V93.1h12.516v45.633H294.557L275.066,113.7v25.033H262.549Z" transform="translate(-84.541)"/><path class="a" d="M486.158,103.865H472.47V93.11h40.022v10.755H498.8v34.873H486.158Z" transform="translate(-189.304 -0.004)"/><path class="b" d="M265.378,202.032v16.154h-2.839V202.032Z" transform="translate(-84.536 -54.363)"/><path class="b" d="M289.441,202.032h2.792v16.154h-2.376l-8.908-11.493v11.493h-2.792V202.032h2.631l8.654,11.17Z" transform="translate(-92.33 -54.363)"/><path class="b" d="M321.034,208.587c3.415.831,5.193,2.054,5.193,4.754,0,3.046-2.377,4.846-5.77,4.846a9.949,9.949,0,0,1-6.739-2.585l1.708-2.031a7.44,7.44,0,0,0,5.1,2.1c1.754,0,2.861-.808,2.861-2.054,0-1.177-.645-1.8-3.646-2.493-3.438-.831-5.377-1.846-5.377-4.846,0-2.815,2.308-4.707,5.515-4.707a8.953,8.953,0,0,1,5.862,2.03l-1.523,2.147a7.34,7.34,0,0,0-4.385-1.662c-1.662,0-2.63.854-2.63,1.939C317.2,207.3,317.941,207.849,321.034,208.587Z" transform="translate(-110.078 -54.133)"/><path class="b" d="M360.018,211.194c0,4.823-2.723,7.247-6.947,7.247-4.2,0-6.877-2.424-6.877-7.108v-9.3h2.839v9.185c0,3,1.546,4.616,4.085,4.616,2.515,0,4.061-1.523,4.061-4.5v-9.3h2.839Z" transform="translate(-126.285 -54.363)"/><path class="b" d="M393.27,218.186l-3.969-5.631h-3.554v5.631h-2.839V202.032h7.2c3.715,0,6,1.962,6,5.123a4.837,4.837,0,0,1-3.854,4.916l4.362,6.115Zm-3.392-13.57h-4.131v5.424H389.9c2.031,0,3.323-1.061,3.323-2.723C393.224,205.54,391.978,204.616,389.878,204.616Z" transform="translate(-144.608 -54.363)"/><path class="b" d="M431.633,218.071h-3l-1.639-3.9h-7.639l-1.662,3.9h-2.907l7.108-16.27h2.631Zm-8.469-12.877-2.77,6.462h5.562Z" transform="translate(-160.517 -54.248)"/><path class="b" d="M466.563,202.032h2.792v16.154h-2.376l-8.908-11.493v11.493h-2.793V202.032h2.631l8.654,11.17Z" transform="translate(-180.724 -54.363)"/><path class="b" d="M499.793,218.188a8.355,8.355,0,0,1,.115-16.709,8.42,8.42,0,0,1,6.323,2.516l-1.823,2.1a6.427,6.427,0,0,0-4.524-2.007,5.762,5.762,0,0,0,0,11.492,6.33,6.33,0,0,0,4.638-2.1l1.824,1.846A8.336,8.336,0,0,1,499.793,218.188Z" transform="translate(-198.84 -54.087)"/><path class="b" d="M540.315,204.571h-9.139v4.2h8.1v2.538h-8.1v4.339h9.254v2.538H528.337V202.032h11.978Z" transform="translate(-217.185 -54.363)"/><path class="a" d="M121.427,141.387V152.6a7.07,7.07,0,1,1-14.14,0V127.247l-14.14-14.14v53.631a7.091,7.091,0,0,0,7.07,7.07h53.631Z" transform="translate(0 -9.984)"/><path class="b" d="M166.737,93.147H113.106l32.421,32.421V114.357a7.07,7.07,0,1,1,14.14,0v25.351l14.14,14.14V100.217A7.091,7.091,0,0,0,166.737,93.147Z" transform="translate(-9.961 -0.023)"/><path class="a" d="M373.566,138.483v22.9h22.9Z" transform="translate(-139.945 -22.648)"/><path class="a" d="M373.566,93.114v15.123l12.515,12.515h15.664v-9.973H386.081v-6.909h24.508V93.114Z" transform="translate(-139.945 -0.006)"/><path class="a" d="M423.744,173.481h6.519V162.726H412.989Z" transform="translate(-159.62 -34.747)"/></g></svg>