<?xml version="1.0" encoding="UTF-8"?>
<svg viewBox="0 0 810 331" version="1.1" xmlns="http://www.w3.org/2000/svg" xmlns:xlink="http://www.w3.org/1999/xlink">
    <g id="yolo_logo_RGB-(2)" stroke="none" stroke-width="1" fill-rule="evenodd">
        <path d="M101.633,47.295 C94.27,54.662 87.676,62.802 82.25,71.72 C76.82,62.802 70.617,54.662 63.254,47.295 C51.234,35.279 37.441,26.361 21.934,19.771 C14.957,16.67 8,14.341 0,12.791 L0,51.174 C34,62.416 60,92.654 63,129.095 L63,191.127 L63.516,194.72 C63.516,219.533 78.371,240.486 99.695,249.486 L100,249.486 L100,132.201 C103,94.591 129,62.802 163,51.174 L163,12.791 C156,14.341 148.793,17.056 142.203,19.771 C126.695,26.361 113.652,35.279 101.633,47.295" id="Fill-1" ></path>
        <path d="M692.363,212.306 C648.121,212.306 612.258,176.439 612.258,132.201 C612.258,87.959 648.121,52.091 692.363,52.091 C736.602,52.091 772.469,87.959 772.469,132.201 C772.469,176.439 736.602,212.306 692.363,212.306 M692.363,15.119 C627.699,15.119 575.281,67.537 575.281,132.201 C575.281,196.861 627.699,249.279 692.363,249.279 C757.023,249.279 809.441,196.861 809.441,132.201 C809.441,67.537 757.023,15.119 692.363,15.119" id="Fill-2" ></path>
        <path d="M315,103.705 L315,0.486 L280,0.486 L280,133.486 L286.168,133.486 C302.367,133.486 315,119.904 315,103.705" id="Fill-3" ></path>
        <path d="M255.219,64.955 C232.957,79.232 218.707,104.013 218.707,132.201 C218.707,167.392 241.414,197.283 272.973,208.041 C241.418,197.283 218.715,167.392 218.715,132.201 C218.715,104.013 232.957,79.232 255.219,64.955" id="Fill-4" ></path>
        <path d="M339,22.654 L339,63.607 C340,64.045 341.055,64.494 341.773,64.955 C364.035,79.232 378.629,104.013 378.629,132.201 C378.629,175.056 345.133,210.056 302.809,212.201 C301.441,212.271 300.141,212.306 298.758,212.306 C294.945,212.306 291.203,212.021 287.535,211.502 C287.391,211.482 287.246,211.47 287.105,211.451 C285.867,211.267 284.637,211.056 283.422,210.822 C283.395,210.814 283.367,210.81 283.34,210.806 C283.32,210.802 283.305,210.802 283.285,210.798 C282.082,210.56 280.887,210.295 279.699,210.006 C279.676,209.998 279.652,209.994 279.629,209.986 C278.43,209.693 277.246,209.373 276.07,209.025 C276.062,209.021 276.059,209.021 276.055,209.021 C275.035,208.72 274.027,208.396 273.027,208.056 C274.027,208.396 275.031,208.716 276.051,209.017 C242.879,199.224 218.672,168.548 218.672,132.201 C218.672,104.013 232.238,79.232 254.504,64.955 C255.219,64.494 256,64.045 256,63.607 L256,22.654 C212,39.381 181.039,82.111 181.039,132.201 C181.039,196.861 233.82,249.279 298.484,249.279 C363.145,249.279 415.125,196.861 415.125,132.201 C415.125,82.111 383,39.381 339,22.654" id="Fill-5" ></path>
        <path d="M488,11.24 L487.141,11.631 C465.816,20.158 451,41.095 451,65.904 L451,249.486 L561,249.486 L561,212.486 L488,212.486 L488,11.24 Z" id="Fill-6" ></path>
        <path d="M67.301,311.08 C67.301,309.052 67.031,307.228 66.496,305.615 C65.957,304.006 65.184,302.634 64.176,301.509 C63.172,300.381 61.945,299.521 60.504,298.924 C59.062,298.326 57.438,298.025 55.629,298.025 C53.82,298.025 52.191,298.326 50.738,298.924 C49.289,299.521 48.055,300.381 47.039,301.509 C46.023,302.634 45.242,304.006 44.699,305.615 C44.152,307.228 43.879,309.052 43.879,311.08 C43.879,313.111 44.152,314.935 44.699,316.548 C45.242,318.158 46.023,319.525 47.039,320.642 C48.055,321.759 49.289,322.619 50.738,323.216 C52.191,323.814 53.82,324.111 55.629,324.111 C57.438,324.111 59.062,323.814 60.504,323.216 C61.945,322.619 63.172,321.759 64.176,320.642 C65.184,319.525 65.957,318.158 66.496,316.548 C67.031,314.935 67.301,313.111 67.301,311.08 M74.367,311.08 C74.367,313.795 73.914,316.31 73.008,318.619 C72.105,320.931 70.832,322.935 69.195,324.623 C67.555,326.314 65.586,327.631 63.281,328.58 C60.977,329.525 58.426,329.998 55.629,329.998 C52.828,329.998 50.273,329.525 47.961,328.58 C45.648,327.631 43.668,326.314 42.023,324.623 C40.375,322.935 39.102,320.931 38.195,318.619 C37.289,316.31 36.84,313.795 36.84,311.08 C36.84,308.369 37.289,305.857 38.195,303.545 C39.102,301.232 40.375,299.228 42.023,297.541 C43.668,295.849 45.648,294.533 47.961,293.588 C50.273,292.638 52.828,292.166 55.629,292.166 C58.426,292.166 60.977,292.642 63.281,293.599 C65.586,294.552 67.555,295.873 69.195,297.552 C70.832,299.236 72.105,301.232 73.008,303.545 C73.914,305.857 74.367,308.369 74.367,311.08" id="Fill-7" ></path>
        <path d="M91.953,292.615 C92.156,292.638 92.34,292.689 92.5,292.767 C92.664,292.841 92.82,292.955 92.977,293.099 C93.129,293.244 93.301,293.435 93.488,293.674 L112.918,318.427 C112.848,317.83 112.801,317.248 112.777,316.674 C112.75,316.103 112.738,315.572 112.738,315.076 L112.738,292.576 L118.805,292.576 L118.805,329.588 L115.246,329.588 C114.699,329.588 114.246,329.506 113.891,329.334 C113.531,329.162 113.18,328.857 112.84,328.412 L93.488,303.759 C93.539,304.306 93.578,304.849 93.602,305.384 C93.629,305.924 93.641,306.416 93.641,306.857 L93.641,329.588 L87.574,329.588 L87.574,292.576 L91.184,292.576 C91.492,292.576 91.746,292.588 91.953,292.615" id="Fill-8" ></path>
        <path d="M177.551,311.08 C177.551,309.052 177.277,307.228 176.73,305.615 C176.184,304.006 175.41,302.638 174.402,301.521 C173.395,300.404 172.172,299.545 170.727,298.947 C169.285,298.353 167.66,298.052 165.852,298.052 L158.66,298.052 L158.66,324.111 L165.852,324.111 C167.66,324.111 169.285,323.814 170.727,323.216 C172.172,322.619 173.395,321.759 174.402,320.642 C175.41,319.525 176.184,318.158 176.73,316.548 C177.277,314.935 177.551,313.111 177.551,311.08 M184.59,311.08 C184.59,313.795 184.137,316.287 183.234,318.556 C182.328,320.826 181.059,322.779 179.418,324.42 C177.781,326.056 175.809,327.33 173.504,328.232 C171.203,329.138 168.652,329.588 165.852,329.588 L151.723,329.588 L151.723,292.576 L165.852,292.576 C168.652,292.576 171.203,293.029 173.504,293.943 C175.809,294.857 177.781,296.131 179.418,297.759 C181.059,299.388 182.328,301.338 183.234,303.607 C184.137,305.877 184.59,308.369 184.59,311.08" id="Fill-9" ></path>
        <polygon id="Fill-10" points="221.117 292.576 221.117 298.052 204.707 298.052 204.707 308.318 217.637 308.318 217.637 313.615 204.707 313.615 204.707 324.084 221.117 324.084 221.117 329.588 197.773 329.588 197.773 292.576"></polygon>
        <path d="M254.254,315.931 C254.5,316.521 254.742,317.115 254.984,317.713 C255.223,317.095 255.469,316.494 255.727,315.896 C255.98,315.298 256.254,314.724 256.543,314.177 L267.5,293.674 C267.637,293.42 267.777,293.213 267.922,293.06 C268.066,292.908 268.23,292.795 268.41,292.728 C268.59,292.662 268.789,292.619 269.012,292.599 C269.234,292.584 269.496,292.576 269.805,292.576 L275,292.576 L275,329.588 L268.934,329.588 L268.934,305.681 C268.934,305.236 268.945,304.752 268.973,304.22 C268.996,303.693 269.035,303.154 269.086,302.611 L257.902,323.599 C257.645,324.076 257.312,324.447 256.902,324.713 C256.492,324.978 256.016,325.111 255.469,325.111 L254.523,325.111 C253.977,325.111 253.5,324.978 253.09,324.713 C252.68,324.447 252.348,324.076 252.09,323.599 L240.75,302.533 C240.82,303.095 240.867,303.646 240.891,304.185 C240.918,304.72 240.93,305.22 240.93,305.681 L240.93,329.588 L234.863,329.588 L234.863,292.576 L240.059,292.576 C240.367,292.576 240.633,292.584 240.855,292.599 C241.074,292.619 241.277,292.662 241.453,292.728 C241.633,292.795 241.801,292.908 241.953,293.06 C242.109,293.213 242.254,293.42 242.387,293.674 L253.449,314.232 C253.738,314.775 254.008,315.345 254.254,315.931" id="Fill-11" ></path>
        <path d="M298.832,315.611 L310.633,315.611 L306.129,303.298 C305.922,302.756 305.695,302.111 305.449,301.369 C305.203,300.627 304.957,299.818 304.719,298.947 C304.48,299.818 304.246,300.631 304.016,301.381 C303.785,302.131 303.559,302.787 303.336,303.353 L298.832,315.611 Z M322.793,329.588 L317.469,329.588 C316.871,329.588 316.379,329.439 315.996,329.142 C315.613,328.841 315.336,328.47 315.164,328.029 L312.398,320.478 L297.066,320.478 L294.301,328.029 C294.164,328.42 293.895,328.779 293.496,329.103 C293.094,329.427 292.602,329.588 292.023,329.588 L286.672,329.588 L301.215,292.576 L308.254,292.576 L322.793,329.588 Z" id="Fill-12" ></path>
        <path d="M338.766,292.615 C338.969,292.638 339.152,292.689 339.312,292.767 C339.477,292.841 339.633,292.955 339.789,293.099 C339.941,293.244 340.113,293.435 340.301,293.674 L359.73,318.427 C359.66,317.83 359.613,317.248 359.59,316.674 C359.562,316.103 359.551,315.572 359.551,315.076 L359.551,292.576 L365.617,292.576 L365.617,329.588 L362.059,329.588 C361.512,329.588 361.059,329.506 360.703,329.334 C360.344,329.162 359.992,328.857 359.652,328.412 L340.301,303.759 C340.352,304.306 340.391,304.849 340.414,305.384 C340.441,305.924 340.453,306.416 340.453,306.857 L340.453,329.588 L334.387,329.588 L334.387,292.576 L337.996,292.576 C338.305,292.576 338.559,292.588 338.766,292.615" id="Fill-13" ></path>
        <path d="M406.699,311.08 C406.699,309.052 406.43,307.228 405.883,305.615 C405.336,304.006 404.559,302.638 403.551,301.521 C402.547,300.404 401.32,299.545 399.879,298.947 C398.438,298.353 396.812,298.052 395.004,298.052 L387.809,298.052 L387.809,324.111 L395.004,324.111 C396.812,324.111 398.438,323.814 399.879,323.216 C401.32,322.619 402.547,321.759 403.551,320.642 C404.559,319.525 405.336,318.158 405.883,316.548 C406.43,314.935 406.699,313.111 406.699,311.08 M413.738,311.08 C413.738,313.795 413.289,316.287 412.383,318.556 C411.48,320.826 410.207,322.779 408.57,324.42 C406.93,326.056 404.961,327.33 402.656,328.232 C400.352,329.138 397.801,329.588 395.004,329.588 L380.871,329.588 L380.871,292.576 L395.004,292.576 C397.801,292.576 400.352,293.029 402.656,293.943 C404.961,294.857 406.93,296.131 408.57,297.759 C410.207,299.388 411.48,301.338 412.383,303.607 C413.289,305.877 413.738,308.369 413.738,311.08" id="Fill-14" ></path>
        <polygon id="Fill-15" points="445.43 329.588 452.344 329.588 452.344 292.576 445.43 292.576"></polygon>
        <path d="M472.82,292.615 C473.023,292.638 473.207,292.689 473.371,292.767 C473.531,292.841 473.691,292.955 473.844,293.099 C473.996,293.244 474.168,293.435 474.355,293.674 L493.785,318.427 C493.715,317.83 493.668,317.248 493.645,316.674 C493.617,316.103 493.605,315.572 493.605,315.076 L493.605,292.576 L499.672,292.576 L499.672,329.588 L496.113,329.588 C495.566,329.588 495.117,329.506 494.758,329.334 C494.398,329.162 494.047,328.857 493.707,328.412 L474.355,303.759 C474.406,304.306 474.445,304.849 474.469,305.384 C474.496,305.924 474.508,306.416 474.508,306.857 L474.508,329.588 L468.441,329.588 L468.441,292.576 L472.051,292.576 C472.359,292.576 472.617,292.588 472.82,292.615" id="Fill-16" ></path>
        <path d="M534.766,299.306 C534.578,299.681 534.363,299.947 534.113,300.099 C533.867,300.256 533.574,300.33 533.23,300.33 C532.891,300.33 532.504,300.197 532.078,299.935 C531.652,299.67 531.148,299.377 530.57,299.052 C529.988,298.728 529.309,298.431 528.535,298.17 C527.758,297.904 526.84,297.771 525.781,297.771 C524.824,297.771 523.992,297.884 523.285,298.115 C522.578,298.345 521.98,298.666 521.496,299.076 C521.008,299.486 520.645,299.978 520.406,300.548 C520.168,301.119 520.047,301.748 520.047,302.431 C520.047,303.302 520.293,304.025 520.777,304.607 C521.262,305.185 521.906,305.681 522.711,306.091 C523.512,306.502 524.426,306.865 525.449,307.189 C526.473,307.513 527.52,307.861 528.586,308.228 C529.652,308.595 530.695,309.021 531.719,309.509 C532.746,309.994 533.656,310.607 534.461,311.349 C535.262,312.091 535.906,313.002 536.391,314.076 C536.879,315.154 537.121,316.459 537.121,317.994 C537.121,319.666 536.836,321.232 536.262,322.689 C535.691,324.15 534.855,325.424 533.754,326.506 C532.656,327.588 531.309,328.443 529.723,329.064 C528.137,329.685 526.32,329.998 524.273,329.998 C523.094,329.998 521.934,329.884 520.789,329.654 C519.648,329.424 518.551,329.095 517.5,328.67 C516.453,328.24 515.469,327.728 514.559,327.131 C513.645,326.533 512.828,325.869 512.113,325.134 L514.109,321.834 C514.297,321.595 514.523,321.392 514.789,321.232 C515.051,321.068 515.348,320.986 515.672,320.986 C516.098,320.986 516.559,321.162 517.051,321.513 C517.547,321.861 518.133,322.252 518.805,322.677 C519.48,323.103 520.273,323.494 521.188,323.841 C522.098,324.193 523.195,324.369 524.477,324.369 C526.438,324.369 527.957,323.904 529.031,322.97 C530.109,322.041 530.645,320.705 530.645,318.966 C530.645,317.994 530.402,317.201 529.914,316.588 C529.43,315.97 528.785,315.455 527.984,315.037 C527.18,314.619 526.27,314.263 525.246,313.974 C524.219,313.685 523.18,313.369 522.121,313.029 C521.062,312.685 520.023,312.275 519,311.798 C517.973,311.322 517.062,310.697 516.258,309.931 C515.457,309.162 514.812,308.201 514.328,307.048 C513.84,305.896 513.598,304.478 513.598,302.787 C513.598,301.439 513.867,300.127 514.402,298.845 C514.941,297.564 515.727,296.431 516.758,295.443 C517.789,294.451 519.059,293.658 520.559,293.06 C522.062,292.466 523.777,292.166 525.703,292.166 C527.891,292.166 529.902,292.506 531.746,293.189 C533.59,293.873 535.16,294.826 536.457,296.056 L534.766,299.306 Z" id="Fill-17" ></path>
        <path d="M565.074,324.033 C566.406,324.033 567.594,323.814 568.645,323.369 C569.695,322.927 570.582,322.302 571.309,321.498 C572.031,320.697 572.586,319.724 572.973,318.58 C573.355,317.439 573.547,316.158 573.547,314.744 L573.547,292.576 L580.434,292.576 L580.434,314.744 C580.434,316.943 580.078,318.978 579.371,320.849 C578.664,322.716 577.641,324.33 576.312,325.685 C574.98,327.041 573.367,328.099 571.473,328.861 C569.578,329.619 567.445,329.998 565.074,329.998 C562.703,329.998 560.57,329.619 558.676,328.861 C556.781,328.099 555.172,327.041 553.848,325.685 C552.527,324.33 551.512,322.716 550.805,320.849 C550.094,318.978 549.742,316.943 549.742,314.744 L549.742,292.576 L556.629,292.576 L556.629,314.716 C556.629,316.134 556.82,317.412 557.203,318.556 C557.586,319.701 558.137,320.677 558.855,321.486 C559.57,322.298 560.453,322.927 561.504,323.369 C562.551,323.814 563.742,324.033 565.074,324.033" id="Fill-18" ></path>
        <path d="M602.344,310.185 L606.645,310.185 C607.941,310.185 609.074,310.025 610.035,309.701 C611,309.377 611.793,308.927 612.418,308.357 C613.039,307.783 613.508,307.107 613.812,306.322 C614.121,305.537 614.273,304.674 614.273,303.736 C614.273,301.857 613.656,300.416 612.418,299.408 C611.18,298.404 609.289,297.9 606.746,297.9 L602.344,297.9 L602.344,310.185 Z M602.344,315.127 L602.344,329.588 L595.457,329.588 L595.457,292.572 L606.746,292.572 C609.273,292.572 611.438,292.834 613.238,293.353 C615.035,293.877 616.512,294.607 617.664,295.545 C618.816,296.482 619.66,297.603 620.199,298.908 C620.738,300.216 621.008,301.654 621.008,303.224 C621.008,304.47 620.82,305.646 620.453,306.756 C620.086,307.865 619.559,308.873 618.867,309.775 C618.176,310.681 617.324,311.474 616.309,312.158 C615.293,312.841 614.137,313.384 612.84,313.795 C613.711,314.291 614.461,314.998 615.094,315.92 L624.359,329.588 L618.164,329.588 C617.566,329.588 617.059,329.47 616.641,329.232 C616.223,328.99 615.867,328.65 615.578,328.209 L607.797,316.353 C607.508,315.912 607.188,315.595 606.836,315.408 C606.488,315.22 605.973,315.127 605.289,315.127 L602.344,315.127 Z" id="Fill-19" ></path>
        <path d="M645.117,315.611 L656.918,315.611 L652.414,303.298 C652.211,302.756 651.984,302.111 651.734,301.369 C651.488,300.627 651.246,299.818 651.008,298.947 C650.77,299.818 650.531,300.631 650.305,301.381 C650.07,302.131 649.848,302.787 649.625,303.353 L645.117,315.611 Z M669.078,329.588 L663.754,329.588 C663.156,329.588 662.668,329.439 662.281,329.142 C661.898,328.841 661.621,328.47 661.449,328.029 L658.688,320.478 L643.352,320.478 L640.586,328.029 C640.449,328.42 640.184,328.779 639.781,329.103 C639.379,329.427 638.891,329.588 638.309,329.588 L632.961,329.588 L647.5,292.576 L654.539,292.576 L669.078,329.588 Z" id="Fill-20" ></path>
        <path d="M685.051,292.615 C685.254,292.638 685.438,292.689 685.602,292.767 C685.762,292.841 685.922,292.955 686.074,293.099 C686.227,293.244 686.398,293.435 686.586,293.674 L706.016,318.427 C705.945,317.83 705.902,317.248 705.875,316.674 C705.848,316.103 705.836,315.572 705.836,315.076 L705.836,292.576 L711.902,292.576 L711.902,329.588 L708.344,329.588 C707.797,329.588 707.348,329.506 706.988,329.334 C706.629,329.162 706.281,328.857 705.938,328.412 L686.586,303.759 C686.637,304.306 686.676,304.849 686.703,305.384 C686.727,305.924 686.742,306.416 686.742,306.857 L686.742,329.588 L680.672,329.588 L680.672,292.576 L684.281,292.576 C684.59,292.576 684.848,292.588 685.051,292.615" id="Fill-21" ></path>
        <path d="M752.602,320.861 C752.977,320.861 753.301,321.006 753.578,321.295 L756.289,324.24 C754.789,326.099 752.941,327.525 750.746,328.513 C748.555,329.506 745.922,329.998 742.852,329.998 C740.102,329.998 737.633,329.529 735.441,328.591 C733.246,327.65 731.375,326.349 729.82,324.674 C728.27,323.002 727.078,321.006 726.25,318.685 C725.422,316.365 725.008,313.83 725.008,311.084 C725.008,308.302 725.469,305.752 726.391,303.439 C727.312,301.131 728.609,299.138 730.281,297.463 C731.953,295.791 733.957,294.49 736.285,293.56 C738.613,292.631 741.188,292.166 744.004,292.166 C746.75,292.166 749.152,292.603 751.207,293.482 C753.266,294.361 755.027,295.525 756.496,296.978 L754.191,300.177 C754.055,300.381 753.879,300.56 753.664,300.716 C753.453,300.869 753.156,300.947 752.781,300.947 C752.391,300.947 751.988,300.791 751.578,300.486 C751.172,300.177 750.648,299.845 750.02,299.486 C749.387,299.127 748.59,298.795 747.625,298.486 C746.66,298.181 745.438,298.025 743.953,298.025 C742.211,298.025 740.609,298.33 739.152,298.935 C737.691,299.541 736.438,300.408 735.387,301.533 C734.34,302.662 733.52,304.029 732.93,305.642 C732.344,307.256 732.047,309.068 732.047,311.084 C732.047,313.166 732.344,315.013 732.93,316.634 C733.52,318.259 734.316,319.623 735.324,320.732 C736.332,321.841 737.516,322.689 738.883,323.279 C740.246,323.869 741.715,324.162 743.285,324.162 C744.223,324.162 745.074,324.111 745.832,324.009 C746.59,323.908 747.293,323.744 747.93,323.521 C748.57,323.302 749.176,323.013 749.75,322.666 C750.32,322.314 750.887,321.884 751.453,321.373 C751.621,321.22 751.801,321.095 751.988,321.002 C752.176,320.908 752.383,320.861 752.602,320.861" id="Fill-22" ></path>
        <polygon id="Fill-23" points="792.613 292.576 792.613 298.052 776.203 298.052 776.203 308.318 789.129 308.318 789.129 313.615 776.203 313.615 776.203 324.084 792.613 324.084 792.613 329.588 769.266 329.588 769.266 292.576"></polygon>
    </g>
</svg>