<?xml version="1.0" encoding="utf-8"?>
<!-- Generator: Adobe Illustrator 24.0.3, SVG Export Plug-In . SVG Version: 6.00 Build 0)  -->
<svg version="1.1" id="Livello_1" xmlns="http://www.w3.org/2000/svg" xmlns:xlink="http://www.w3.org/1999/xlink" x="0px" y="0px"
	 viewBox="0 0 42 52" style="enable-background:new 0 0 42 52;" xml:space="preserve">
<style type="text/css">
	.st0{fill:#D3E8FA;}
	.st1{fill:#008EED;}
	.st2{fill:#032C4E;}
	.st3{fill:#0064B5;}
	.st4{fill:#FFFFFF;}
	.st5{fill:none;stroke:#032C4E;stroke-width:2;stroke-miterlimit:10;}
	.st6{fill:none;stroke:#032C4E;stroke-width:2;stroke-linecap:round;stroke-linejoin:round;stroke-miterlimit:10;}
	.st7{fill:#0064B5;stroke:#032C4E;stroke-width:2.5;stroke-miterlimit:10;}
</style>
<g>
	<path class="st0" d="M3.8,41.4c-0.4,0-0.7-0.3-0.7-0.7V13v-2.8V2.9c0-0.4,0.3-0.7,0.7-0.7h28.5c0.4,0,0.7,0.3,0.7,0.7v37.7
		c0,0.4-0.3,0.7-0.7,0.7H3.8z"/>
	<g>
		<path class="st2" d="M38.2,9.1h-0.7v-2c0-1.2-1-2.2-2.2-2.2h-0.7v-2c0-1.2-1-2.2-2.2-2.2H3.8c-1.2,0-2.2,1-2.2,2.2v7.2V13v27.7
			c0,1.2,1,2.2,2.2,2.2h0.7v2c0,1.2,1,2.2,2.2,2.2h0.7v2c0,1.2,1,2.2,2.2,2.2h28.5c1.2,0,2.2-1,2.2-2.2V21.5v-1.9v-8.3
			C40.4,10.1,39.4,9.1,38.2,9.1z M3.8,41.4c-0.4,0-0.7-0.3-0.7-0.7V13v-2.8V2.9c0-0.4,0.3-0.7,0.7-0.7h28.5c0.4,0,0.7,0.3,0.7,0.7
			v37.7c0,0.4-0.3,0.7-0.7,0.7H3.8z M6.8,45.6c-0.4,0-0.7-0.3-0.7-0.7v-2h26.2c1.2,0,2.2-1,2.2-2.2V6.4h0.7c0.4,0,0.7,0.3,0.7,0.7
			v37.7c0,0.4-0.3,0.7-0.7,0.7h-3.9h-0.9H6.8z M38.9,49.1c0,0.4-0.3,0.7-0.7,0.7H9.7c-0.4,0-0.7-0.3-0.7-0.7v-2h21.5h0.9h3.9
			c1.2,0,2.2-1,2.2-2.2V10.6h0.7c0.4,0,0.7,0.3,0.7,0.7v8.3v1.9V49.1z"/>
		<path class="st2" d="M6.6,13v5.1c0,0.6,0.5,1.1,1.1,1.1h5.1c0.6,0,1.1-0.5,1.1-1.1v-3.8l1.5-1.3c0.3-0.3,0.3-0.7,0.1-1
			c-0.3-0.3-0.7-0.3-1-0.1l-0.7,0.6c-0.2-0.4-0.6-0.6-1-0.6H7.7C7.1,11.8,6.6,12.3,6.6,13z M8.1,13.3h4.4v0.3L11,14.8l-0.7-0.8
			c-0.3-0.3-0.7-0.3-1,0c-0.3,0.3-0.3,0.7,0,1l1.2,1.3c0.3,0.3,0.7,0.3,1,0.1l1.1-0.9v2.2H8.1L8.1,13.3L8.1,13.3z"/>
		<path class="st2" d="M28.8,13H16.9c-0.4,0-0.7,0.3-0.7,0.7c0,0.4,0.3,0.7,0.7,0.7h11.9c0.4,0,0.7-0.3,0.7-0.7
			C29.5,13.3,29.2,13,28.8,13z"/>
		<path class="st2" d="M28.8,16.2H16.9c-0.4,0-0.7,0.3-0.7,0.7c0,0.4,0.3,0.7,0.7,0.7h11.9c0.4,0,0.7-0.3,0.7-0.7
			C29.5,16.5,29.2,16.2,28.8,16.2z"/>
		<path class="st2" d="M6.6,27.7c0,0.6,0.5,1.1,1.1,1.1h5.1c0.6,0,1.1-0.5,1.1-1.1v-5.1c0-0.6-0.5-1.1-1.1-1.1H7.7
			c-0.6,0-1.1,0.5-1.1,1.1V27.7z M8.1,22.9h4.4v4.4H8.1V22.9z"/>
		<path class="st2" d="M28.8,22.6H16.9c-0.4,0-0.7,0.3-0.7,0.7s0.3,0.7,0.7,0.7h11.9c0.4,0,0.7-0.3,0.7-0.7S29.2,22.6,28.8,22.6z"/>
		<path class="st2" d="M28.8,25.8H16.9c-0.4,0-0.7,0.3-0.7,0.7c0,0.4,0.3,0.7,0.7,0.7h11.9c0.4,0,0.7-0.3,0.7-0.7
			C29.5,26.1,29.2,25.8,28.8,25.8z"/>
		<path class="st2" d="M6.6,37.3c0,0.6,0.5,1.1,1.1,1.1h5.1c0.6,0,1.1-0.5,1.1-1.1v-5.1c0-0.6-0.5-1.1-1.1-1.1H7.7
			c-0.6,0-1.1,0.5-1.1,1.1V37.3z M8.1,32.5h4.4v4.4H8.1V32.5z"/>
		<path class="st2" d="M28.8,32.2H16.9c-0.4,0-0.7,0.3-0.7,0.7c0,0.4,0.3,0.7,0.7,0.7h11.9c0.4,0,0.7-0.3,0.7-0.7
			C29.5,32.5,29.2,32.2,28.8,32.2z"/>
		<path class="st2" d="M28.8,35.3H16.9c-0.4,0-0.7,0.3-0.7,0.7c0,0.4,0.3,0.7,0.7,0.7h11.9c0.4,0,0.7-0.3,0.7-0.7
			C29.5,35.7,29.2,35.3,28.8,35.3z"/>
		<path class="st2" d="M25,4.2H11.4c-1.4,0-2.5,1.1-2.5,2.5s1.1,2.5,2.5,2.5H25c1.4,0,2.5-1.1,2.5-2.5S26.4,4.2,25,4.2z M25,7.7
			H11.4c-0.5,0-1-0.4-1-1s0.4-1,1-1H25c0.5,0,1,0.4,1,1S25.5,7.7,25,7.7z"/>
	</g>
	<path class="st4" d="M8.1,13.3h4.4v0.3L11,14.8l-0.7-0.8c-0.3-0.3-0.7-0.3-1,0c-0.3,0.3-0.3,0.7,0,1l1.2,1.3c0.3,0.3,0.7,0.3,1,0.1
		l1.1-0.9v2.2H8.1L8.1,13.3L8.1,13.3z"/>
	<rect x="8.1" y="22.9" class="st4" width="4.4" height="4.4"/>
	<rect x="8.1" y="32.5" class="st4" width="4.4" height="4.4"/>
	<path class="st1" d="M25,7.7H11.4c-0.5,0-1-0.4-1-1s0.4-1,1-1H25c0.5,0,1,0.4,1,1S25.5,7.7,25,7.7z"/>
	<path class="st1" d="M6.8,45.6c-0.4,0-0.7-0.3-0.7-0.7v-2h26.2c1.2,0,2.2-1,2.2-2.2V6.4h0.7c0.4,0,0.7,0.3,0.7,0.7v37.7
		c0,0.4-0.3,0.7-0.7,0.7h-3.9h-0.9H6.8z"/>
	<path class="st3" d="M38.9,49.1c0,0.4-0.3,0.7-0.7,0.7H9.7c-0.4,0-0.7-0.3-0.7-0.7v-2h21.5h0.9h3.9c1.2,0,2.2-1,2.2-2.2V10.6h0.7
		c0.4,0,0.7,0.3,0.7,0.7v8.3v1.9V49.1z"/>
</g>
</svg>
