<?xml version="1.0" encoding="utf-8"?>
<!-- Generator: Adobe Illustrator 24.0.3, SVG Export Plug-In . SVG Version: 6.00 Build 0)  -->
<svg version="1.1" id="Livello_1" xmlns="http://www.w3.org/2000/svg" xmlns:xlink="http://www.w3.org/1999/xlink" x="0px" y="0px"
	 viewBox="0 0 54 44.3" style="enable-background:new 0 0 54 44.3;" xml:space="preserve">
<style type="text/css">
	.st0{fill:#D3E8FA;}
	.st1{fill:#008EED;}
	.st2{fill:#032C4E;}
	.st3{fill:#0064B5;}
	.st4{fill:#FFFFFF;}
	.st5{fill:none;stroke:#032C4E;stroke-width:2;stroke-miterlimit:10;}
	.st6{fill:none;stroke:#032C4E;stroke-width:2;stroke-linecap:round;stroke-linejoin:round;stroke-miterlimit:10;}
	.st7{fill:#0064B5;stroke:#032C4E;stroke-width:2.5;stroke-miterlimit:10;}
</style>
<g>
	<path class="st0" d="M54,44.3c0-0.2,0-0.4,0-0.6c0-14.9-12.1-27-27-27S0,28.8,0,43.7c0,0.2,0,0.4,0,0.6H54z"/>
	<g>
		<path class="st4" d="M47.6,19.3L25.6,41.2c-0.4,0.4-0.9,0.6-1.5,0.6h0c-0.6,0-1.1-0.2-1.5-0.6L11.1,29.7L32.2,8.7
			c0.4-0.4,0.4-0.9,0-1.3c-0.4-0.4-0.9-0.4-1.3,0L9.8,28.5l-1.1-1.1c-0.4-0.4-0.6-0.9-0.6-1.5c0-0.6,0.2-1.1,0.6-1.5L30.7,2.4
			c0.4-0.4,0.9-0.6,1.5-0.6c0.6,0,1.1,0.2,1.5,0.6l4.9,4.9L17.6,28.4c-0.4,0.4-0.4,0.9,0,1.3c0.2,0.2,0.4,0.3,0.6,0.3
			s0.5-0.1,0.6-0.3L39.9,8.7l7.6,7.6C48.4,17.1,48.4,18.5,47.6,19.3z"/>
		<g>
			<g>
				<g>
					<path class="st2" d="M48.8,15L35,1.2C34.3,0.4,33.3,0,32.2,0c-1.1,0-2.1,0.4-2.8,1.2L7.5,23.1c-0.7,0.7-1.2,1.7-1.2,2.8
						s0.4,2.1,1.2,2.8l1.7,1.7c0,0,0,0,0,0c0,0,0,0,0,0l11.5,11.5h-1.6c-0.5,0-0.9,0.4-0.9,0.9c0,0.5,0.4,0.9,0.9,0.9h5c0,0,0,0,0,0
						c0,0,0,0,0,0l13.1,0c0.5,0,0.9-0.4,0.9-0.9c0-0.5-0.4-0.9-0.9-0.9l-9.7,0l21.3-21.3C50.4,19,50.4,16.5,48.8,15z M8.8,27.4
						c-0.4-0.4-0.6-0.9-0.6-1.5s0.2-1.1,0.6-1.5L30.7,2.4c0.4-0.4,0.9-0.6,1.5-0.6s1.1,0.2,1.5,0.6l1.1,1.1l-25,25L8.8,27.4z
						 M36.1,4.8l2.6,2.6l-25,25l-2.6-2.6L36.1,4.8z M47.6,19.3L25.6,41.2c-0.4,0.4-0.9,0.6-1.5,0.6h0c-0.6,0-1.1-0.2-1.5-0.6
						L15,33.6l25-25l7.6,7.6C48.4,17.1,48.4,18.5,47.6,19.3z"/>
					<path class="st2" d="M28.7,26.3c-0.4-0.4-0.9-0.4-1.3,0l-7.2,7.2c-0.4,0.4-0.4,0.9,0,1.3c0.2,0.2,0.4,0.3,0.6,0.3
						s0.5-0.1,0.6-0.3l7.2-7.2C29.1,27.2,29.1,26.6,28.7,26.3z"/>
					<path class="st2" d="M25.8,33.1L22.9,36c-0.4,0.4-0.4,0.9,0,1.3c0.2,0.2,0.4,0.3,0.6,0.3c0.2,0,0.5-0.1,0.6-0.3l2.9-2.9
						c0.4-0.4,0.4-0.9,0-1.3C26.7,32.7,26.2,32.7,25.8,33.1z"/>
					<path class="st2" d="M28.5,30.4l-0.4,0.4c-0.4,0.4-0.4,0.9,0,1.3c0.2,0.2,0.4,0.3,0.6,0.3s0.5-0.1,0.6-0.3l0.4-0.4
						c0.4-0.4,0.4-0.9,0-1.3C29.4,30,28.9,30,28.5,30.4z"/>
					<path class="st2" d="M41,14c-0.2-0.2-0.4-0.3-0.6-0.3c-0.2,0-0.5,0.1-0.6,0.3l-3.9,3.9c-0.2,0.2-0.3,0.4-0.3,0.6
						s0.1,0.5,0.3,0.6l2.6,2.6c0.2,0.2,0.4,0.3,0.6,0.3c0.2,0,0.5-0.1,0.6-0.3l3.9-3.9c0.4-0.4,0.4-0.9,0-1.3L41,14z M39.1,19.8
						l-1.3-1.3l2.6-2.6l1.3,1.3L39.1,19.8z"/>
				</g>
			</g>
		</g>
		
			<rect x="7.2" y="16.7" transform="matrix(0.7071 -0.7071 0.7071 0.7071 -5.8331 23.0308)" class="st3" width="35.3" height="3.6"/>
		
			<rect x="37.9" y="16.9" transform="matrix(0.7071 -0.7071 0.7071 0.7071 -0.9612 33.3405)" class="st3" width="3.6" height="1.8"/>
	</g>
</g>
</svg>
