<?xml version="1.0" encoding="utf-8"?>
<!-- Generator: Adobe Illustrator 24.0.3, SVG Export Plug-In . SVG Version: 6.00 Build 0)  -->
<svg version="1.1" id="Livello_1" xmlns="http://www.w3.org/2000/svg" xmlns:xlink="http://www.w3.org/1999/xlink" x="0px" y="0px"
	 viewBox="0 0 94 101" style="enable-background:new 0 0 94 101;" xml:space="preserve">
<style type="text/css">
	.st0{fill:#D3E8FA;}
	.st1{fill:#008EED;}
	.st2{fill:#032C4E;}
	.st3{fill:#0064B5;}
	.st4{fill:#FFFFFF;}
	.st5{fill:none;stroke:#032C4E;stroke-width:2;stroke-miterlimit:10;}
	.st6{fill:none;stroke:#032C4E;stroke-width:2;stroke-linecap:round;stroke-linejoin:round;stroke-miterlimit:10;}
	.st7{fill:#0064B5;stroke:#032C4E;stroke-width:2.5;stroke-miterlimit:10;}
</style>
<g>
	<circle class="st0" cx="47" cy="47" r="47"/>
	<g>
		<g>
			<g>
				<path class="st1" d="M70.5,66.4c0,14.8-9.4,27.6-23.5,31.9C33,94,23.5,81.1,23.5,66.4v-19c3.8-0.5,6.8-3.5,7.3-7.3h32.3
					c0.5,3.8,3.5,6.8,7.3,7.3V66.4z"/>
				<path class="st4" d="M65.5,66.4c0,12.1-7.3,22.5-18.5,26.7c-11.3-4.2-18.5-14.6-18.5-26.7V50.9c2.6-1.3,4.6-3.4,5.9-5.9h5.8H42
					h17.6c1.3,2.6,3.4,4.6,5.9,5.9V66.4z"/>
				<circle class="st0" cx="47" cy="66.7" r="10.9"/>
				<g>
					<g>
						<g>
							<path class="st2" d="M71.7,45c-3.4,0-6.2-2.8-6.2-6.2c0-0.7-0.6-1.2-1.2-1.2H29.7c-0.7,0-1.2,0.6-1.2,1.2
								c0,3.4-2.8,6.2-6.2,6.2c-0.7,0-1.2,0.6-1.2,1.2v20.2c0,15.7,10.2,29.8,25.6,34.4c0.1,0,0.2,0.1,0.4,0.1s0.2,0,0.4-0.1
								C62.4,96.3,73,82.4,73,66.4V46.2C73,45.5,72.4,45,71.7,45z M70.5,66.4c0,14.8-9.4,27.6-23.5,31.9C33,94,23.5,81.1,23.5,66.4
								v-19c3.8-0.5,6.8-3.5,7.3-7.3h32.3c0.5,3.8,3.5,6.8,7.3,7.3V66.4z"/>
						</g>
					</g>
					<path class="st2" d="M67.3,49c-2.6-1.1-4.6-3.2-5.7-5.7c-0.2-0.4-0.6-0.7-1.1-0.7H42h-1.8h-6.6c-0.5,0-0.9,0.3-1.1,0.7
						c-1.1,2.6-3.2,4.6-5.7,5.7c-0.4,0.2-0.7,0.6-0.7,1.1v16.3c0,13.3,8.2,24.8,20.6,29.2c0.1,0,0.3,0.1,0.4,0.1s0.3,0,0.4-0.1
						C59.8,91.2,68,79.6,68,66.4V50.1C68,49.6,67.7,49.2,67.3,49z M65.5,66.4c0,12.1-7.3,22.5-18.5,26.7
						c-11.3-4.2-18.5-14.6-18.5-26.7V50.9c2.6-1.3,4.6-3.4,5.9-5.9h5.8H42h17.6c1.3,2.6,3.4,4.6,5.9,5.9V66.4z"/>
					<g>
						<g>
							<path class="st2" d="M47,53.3c-7.4,0-13.4,6-13.4,13.4s6,13.4,13.4,13.4s13.4-6,13.4-13.4S54.4,53.3,47,53.3z M47,77.2
								c-5.7,0-10.4-4.7-10.4-10.4S41.2,56.3,47,56.3S57.4,61,57.4,66.7S52.7,77.2,47,77.2z"/>
						</g>
					</g>
					<g>
						<g>
							<path class="st2" d="M54,62.7c-0.6-0.6-1.5-0.6-2.1,0l-6.4,6.4l-1.9-1.9c-0.6-0.6-1.5-0.6-2.1,0c-0.6,0.6-0.6,1.5,0,2.1l3,3
								c0.3,0.3,0.7,0.4,1.1,0.4s0.8-0.1,1.1-0.4l7.4-7.4C54.6,64.2,54.6,63.3,54,62.7z"/>
						</g>
					</g>
				</g>
			</g>
			<path class="st2" d="M17.5,28.3c0,0,0.1,0,0.1,0c0.3,0,0.5,0.2,0.6,0.4l1.4,2.9l2.9,1.4c0.2,0.1,0.4,0.3,0.4,0.6s0,0.5-0.2,0.7
				l-2.3,2.2L20,39.7c0,0.3-0.2,0.5-0.4,0.6c-0.2,0.1-0.5,0.1-0.7,0L16,38.7l-3.2,0.6c-0.2,0-0.5,0-0.7-0.2
				c-0.2-0.2-0.3-0.4-0.2-0.7l0.6-3.2L11,32.4c-0.1-0.2-0.1-0.5,0-0.7c0.1-0.2,0.3-0.4,0.6-0.4l3.2-0.4l2.2-2.3
				C17.1,28.4,17.3,28.3,17.5,28.3z M20.8,33.9l-2.1-1c-0.2-0.1-0.3-0.2-0.4-0.4l-1-2.1l-1.6,1.7c-0.1,0.1-0.3,0.2-0.5,0.2l-2.4,0.3
				l1.1,2.1c0.1,0.2,0.1,0.3,0.1,0.5l-0.4,2.3l2.3-0.4c0.2,0,0.4,0,0.5,0.1l2.1,1.1l0.3-2.4c0-0.2,0.1-0.3,0.2-0.5L20.8,33.9z"/>
			<path class="st2" d="M47.5,13.2c0,0,0.1,0,0.1,0c0.3,0,0.5,0.1,0.6,0.3l1.8,2.7l3.1,0.9c0.2,0.1,0.4,0.3,0.5,0.5
				c0.1,0.2,0,0.5-0.1,0.7l-2,2.6l0.1,3.2c0,0.3-0.1,0.5-0.3,0.6c-0.2,0.2-0.5,0.2-0.7,0.1l-3-1.1l-3,1.1c-0.2,0.1-0.5,0-0.7-0.1
				s-0.3-0.4-0.3-0.6l0.1-3.2l-2-2.5c-0.2-0.2-0.2-0.5-0.1-0.7c0.1-0.2,0.3-0.4,0.5-0.5l3.1-0.9l1.8-2.7
				C47.1,13.4,47.3,13.2,47.5,13.2z M51.7,18.2l-2.3-0.7c-0.2,0-0.3-0.2-0.4-0.3l-1.4-2l-1.3,2c-0.1,0.1-0.2,0.3-0.4,0.3l-2.3,0.7
				l1.5,1.9c0.1,0.1,0.2,0.3,0.2,0.5L45.2,23l2.2-0.8c0.2-0.1,0.3-0.1,0.5,0l2.2,0.8l-0.1-2.4c0-0.2,0-0.4,0.2-0.5L51.7,18.2z"/>
			<path class="st2" d="M76.4,28.3c0.2,0,0.4,0.1,0.6,0.2l2.2,2.3l3.2,0.4c0.3,0,0.5,0.2,0.6,0.4c0.1,0.2,0.1,0.5,0,0.7l-1.5,2.8
				l0.6,3.2c0,0.2,0,0.5-0.2,0.7c-0.2,0.2-0.4,0.3-0.7,0.2l-3.2-0.6L75,40.3c-0.2,0.1-0.5,0.1-0.7,0s-0.4-0.3-0.4-0.6l-0.4-3.2
				l-2.3-2.2c-0.2-0.2-0.3-0.4-0.2-0.7c0-0.3,0.2-0.5,0.4-0.6l2.9-1.4l1.4-2.9c0.1-0.2,0.3-0.4,0.6-0.4
				C76.3,28.3,76.3,28.3,76.4,28.3z M81,32.7l-2.4-0.3c-0.2,0-0.3-0.1-0.5-0.2l-1.6-1.7l-1,2.1c-0.1,0.2-0.2,0.3-0.4,0.4l-2.1,1
				l1.7,1.6c0.1,0.1,0.2,0.3,0.2,0.5l0.3,2.4l2.1-1.1c0.2-0.1,0.3-0.1,0.5-0.1l2.3,0.4l-0.4-2.3c0-0.2,0-0.4,0.1-0.5L81,32.7z"/>
			<g>
				<path class="st1" d="M47.3,31.7c-0.3,0-0.6-0.3-0.6-0.6v-0.5c0-0.3,0.3-0.6,0.6-0.6c0.3,0,0.6,0.3,0.6,0.6v0.5
					C47.9,31.4,47.6,31.7,47.3,31.7z"/>
				<path class="st1" d="M47.3,34.4c-0.3,0-0.6-0.3-0.6-0.6v-0.5c0-0.3,0.3-0.6,0.6-0.6c0.3,0,0.6,0.3,0.6,0.6v0.5
					C47.9,34.1,47.6,34.4,47.3,34.4z"/>
				<path class="st1" d="M48.9,32.8h-0.5c-0.3,0-0.6-0.3-0.6-0.6c0-0.3,0.3-0.6,0.6-0.6h0.5c0.3,0,0.6,0.3,0.6,0.6
					C49.5,32.5,49.2,32.8,48.9,32.8z"/>
				<path class="st1" d="M46.2,32.8h-0.5c-0.3,0-0.6-0.3-0.6-0.6c0-0.3,0.3-0.6,0.6-0.6h0.5c0.3,0,0.6,0.3,0.6,0.6
					C46.8,32.5,46.5,32.8,46.2,32.8z"/>
			</g>
			<g>
				<path class="st1" d="M31.4,25c-0.3,0-0.6-0.3-0.6-0.6v-0.5c0-0.3,0.3-0.6,0.6-0.6s0.6,0.3,0.6,0.6v0.5C32,24.7,31.7,25,31.4,25z
					"/>
				<path class="st1" d="M31.4,27.7c-0.3,0-0.6-0.3-0.6-0.6v-0.5c0-0.3,0.3-0.6,0.6-0.6s0.6,0.3,0.6,0.6v0.5
					C32,27.4,31.7,27.7,31.4,27.7z"/>
				<path class="st1" d="M33,26.1h-0.5c-0.3,0-0.6-0.3-0.6-0.6c0-0.3,0.3-0.6,0.6-0.6H33c0.3,0,0.6,0.3,0.6,0.6
					C33.6,25.8,33.3,26.1,33,26.1z"/>
				<path class="st1" d="M30.3,26.1h-0.5c-0.3,0-0.6-0.3-0.6-0.6c0-0.3,0.3-0.6,0.6-0.6h0.5c0.3,0,0.6,0.3,0.6,0.6
					C30.9,25.8,30.6,26.1,30.3,26.1z"/>
			</g>
			<g>
				<path class="st1" d="M63.2,25c-0.3,0-0.6-0.3-0.6-0.6v-0.5c0-0.3,0.3-0.6,0.6-0.6s0.6,0.3,0.6,0.6v0.5
					C63.8,24.7,63.5,25,63.2,25z"/>
				<path class="st1" d="M63.2,27.7c-0.3,0-0.6-0.3-0.6-0.6v-0.5c0-0.3,0.3-0.6,0.6-0.6s0.6,0.3,0.6,0.6v0.5
					C63.8,27.4,63.5,27.7,63.2,27.7z"/>
				<path class="st1" d="M64.8,26.1h-0.5c-0.3,0-0.6-0.3-0.6-0.6c0-0.3,0.3-0.6,0.6-0.6h0.5c0.3,0,0.6,0.3,0.6,0.6
					C65.4,25.8,65.1,26.1,64.8,26.1z"/>
				<path class="st1" d="M62.1,26.1h-0.5c-0.3,0-0.6-0.3-0.6-0.6c0-0.3,0.3-0.6,0.6-0.6h0.5c0.3,0,0.6,0.3,0.6,0.6
					C62.7,25.8,62.4,26.1,62.1,26.1z"/>
			</g>
		</g>
		<path class="st4" d="M51.7,18.2l-2.3-0.7c-0.2,0-0.3-0.2-0.4-0.3l-1.4-2l-1.3,2c-0.1,0.1-0.2,0.3-0.4,0.3l-2.3,0.7l1.5,1.9
			c0.1,0.1,0.2,0.3,0.2,0.5L45.2,23l2.2-0.8c0.2-0.1,0.3-0.1,0.5,0l2.2,0.8l-0.1-2.4c0-0.2,0-0.4,0.2-0.5L51.7,18.2z"/>
		<path class="st4" d="M81,32.7l-2.4-0.3c-0.2,0-0.3-0.1-0.5-0.2l-1.6-1.7l-1,2.1c-0.1,0.2-0.2,0.3-0.4,0.4l-2.1,1l1.7,1.6
			c0.1,0.1,0.2,0.3,0.2,0.5l0.3,2.4l2.1-1.1c0.2-0.1,0.3-0.1,0.5-0.1l2.3,0.4l-0.4-2.3c0-0.2,0-0.4,0.1-0.5L81,32.7z"/>
		<path class="st4" d="M20.8,33.9l-2.1-1c-0.2-0.1-0.3-0.2-0.4-0.4l-1-2.1l-1.6,1.7c-0.1,0.1-0.3,0.2-0.5,0.2l-2.4,0.3l1.1,2.1
			c0.1,0.2,0.1,0.3,0.1,0.5l-0.4,2.3l2.3-0.4c0.2,0,0.4,0,0.5,0.1l2.1,1.1l0.3-2.4c0-0.2,0.1-0.3,0.2-0.5L20.8,33.9z"/>
	</g>
</g>
</svg>
