<?xml version="1.0" encoding="utf-8"?>
<!-- Generator: Adobe Illustrator 24.1.0, SVG Export Plug-In . SVG Version: 6.00 Build 0)  -->
<svg version="1.1" xmlns="http://www.w3.org/2000/svg" xmlns:xlink="http://www.w3.org/1999/xlink" x="0px" y="0px"
	 viewBox="0 0 353 337.5" style="enable-background:new 0 0 353 337.5;" xml:space="preserve">
<style type="text/css">
	.st0{fill:#CBE6F9;}
	.st1{fill:#218DE8;}
	.st2{opacity:0.2;}
	.st3{fill:#FFFFFF;}
	.st4{fill:#283996;}
	.st5{opacity:0.3;}
	.st6{fill:#122575;}
	.st7{fill:#E6E6E6;}
	.st8{fill:#B7DCF7;}
	.st9{fill:#CCCCCC;}
	.st10{fill:#0D1C5E;}
	.st11{fill:#251100;}
	.st12{fill:#BAAEA9;}
	.st13{fill:url(#SVGID_1_);}
	.st14{fill:url(#SVGID_2_);}
</style>
<g id="Livello_1">
</g>
<g id="Contattaci">
</g>
<g id="cosa_x27_altro_devi_sapere">
</g>
<g id="Come_funziona">
	<g>
		<g>
			<path class="st0" d="M332.4,229.4c-0.4,24.4-6.6,51.3-26.7,65.3c-12.3,8.6-27.8,10.9-42.7,12.3c-75.1,7.1-155.3-3.7-215.5-49.1
				c-10.6-8-21.1-18.1-22.5-31.2c-1.1-9.5,2.8-18.8,7.5-27.2c9.1-16.4,21.5-30.7,34.3-44.4c31.3-33.2,66.3-62.8,104.1-88.3
				c18.6-12.5,54.6-42.2,78.5-36.2c12.6,3.2,20.7,15,27.3,26.2C307.8,109.6,333.4,168.2,332.4,229.4z"/>
		</g>
		<g>
			<path class="st1" d="M73.4,243c0,0-10.1-11.3-20.1-9.2c-10,2.1-11.8,3.8-11.8,3.8s-15.4-3.6-15.6-1.6c-0.2,2,4.8,12,4.8,12
				s-4.9,7.6-0.5,17.3c0,0-11.9,11.1-6.6,14c5.3,2.8,16.7-0.9,16.7-0.9s23.5,22.7,44.1,27c20.6,4.3,45.7-6.5,54.3-15.2
				c9.1-9.3,16.8-34.2,15-35.5c-2.6-1.8,1.9-15.4-15.3-27.8c-17.2-12.4-15.7-19.6-15.7-19.6l-6.7-2.3c0,0,6.9,21.4-3.1,35.1
				C102.9,253.6,85.2,260.2,73.4,243z"/>
			<g class="st2">
				<path class="st3" d="M53.4,233.5c1.9,0.8,3.6,2,4.8,3.7c1.1,1.7,1.5,3.9,0.8,5.9c-0.7,1.9-2.6,3.4-4.7,3.4
					c-2.4-0.1-4.8-2.1-7-1.1c-1.4,0.6-2,2.2-3.1,3.2c-1.9,1.6-5.2,1-6.4-1.2c-0.8-1.4-0.7-3.2,0-4.6c0.6-1.5,1.8-2.7,3-3.7
					c3.6-3.1,8.2-5,13-5.3"/>
			</g>
			<path class="st1" d="M150.4,251.9c1.6-2.6,8.6-0.9,11.1,0.7c2.6,1.6,4.1,4.3,5.8,6.9c2.4,3.7,5.1,7.3,8.8,9.7
				c3.7,2.4,8.4,3.4,12.5,1.9c4.2-1.6,6.9-5.6,9.5-9.2c2.6-3.7,5.6-7.5,9.9-8.6c6-1.6,12.3,3.1,13.9,9.1c1.6,6-1,12.4-5.2,16.9
				c-6.9,7.4-18.1,10.1-28,7.7c-9.9-2.4-18.3-9.3-23.7-17.9c-2-3.3-3.7-6.8-6.5-9.4c-2.8-2.6-7.1-4.2-10.5-2.4"/>
			<path class="st4" d="M61.8,245.1c-0.1,1.4,0.4,2.9,1.4,4c-0.4-0.6,0.2-1.3,0.8-1.7c0.5-0.4,1.1-1.1,0.8-1.7c-0.5-0.9-2.2,0-3-0.8
				"/>
			<g>
				<path class="st4" d="M64,240c0,0.1,0.4,0.3,1.1,0.8c0.7,0.4,1.6,1.2,1.9,2.3c0.3,1.1-0.4,2.2-1,2.5c-0.7,0.4-1.2,0.4-1.2,0.5
					c0,0.1,0.6,0.3,1.4-0.1c0.4-0.2,0.9-0.5,1.1-1.1c0.3-0.5,0.4-1.2,0.2-1.9c-0.4-1.4-1.5-2.1-2.2-2.5C64.5,240.1,64,240,64,240z"
					/>
			</g>
			<path class="st4" d="M56.6,254.3c0.7,0,1.2,0.7,1.1,1.4c-0.1,0.7-0.9,1.1-1.5,0.9c-0.6-0.2-0.9-1.1-0.6-1.7
				c0.3-0.6,1.2-0.7,1.7-0.3"/>
			<path class="st4" d="M55.6,239.3c0.7,0,1.2,0.7,1.1,1.4c-0.1,0.7-0.9,1.1-1.5,0.9c-0.6-0.2-0.9-1.1-0.6-1.7
				c0.3-0.6,1.2-0.7,1.7-0.3"/>
			<circle class="st4" cx="91.7" cy="217.7" r="35.1"/>
			<g>
				<path class="st1" d="M70.1,254.8c0.1-8,3.2-16,8.4-22c1.7-2,3.8-3.9,6.4-4.4c2.6-0.6,5.7,0.6,6.5,3c0.8,2.3-0.5,4.8-1.5,7
					c-3.6,7.7-4.6,16.6-2.8,24.9"/>
				<g>
					<path class="st4" d="M70.7,254.5c0,0,0-0.2,0-0.7c0-0.5,0-1.1,0.1-2c0.1-1.7,0.4-4.3,1.2-7.2c0.8-3,2.3-6.4,4.6-9.8
						c1.2-1.7,2.6-3.4,4.4-4.6c0.9-0.6,1.9-1.1,3-1.2c1.1-0.2,2.3-0.1,3.3,0.3c1.1,0.4,2,1.1,2.6,2c0.6,0.9,0.7,2.1,0.6,3.1
						c-0.2,2.2-1,4.2-1.6,6.2c-1.3,3.9-2.3,7.5-2.7,10.6c-0.4,3.1-0.3,5.7,0,7.4c0.1,0.9,0.3,1.5,0.4,2c0.1,0.4,0.2,0.7,0.2,0.7
						c0.1,0-0.2-0.9-0.5-2.7c-0.2-1.7-0.3-4.3,0.2-7.3c0.5-3.1,1.5-6.6,2.8-10.5c0.3-1,0.6-2,1-3c0.3-1,0.6-2.1,0.7-3.3
						c0.1-1.1-0.1-2.4-0.7-3.5c-0.6-1.1-1.7-1.8-2.9-2.2c-1.2-0.4-2.4-0.5-3.6-0.3c-1.2,0.2-2.3,0.7-3.2,1.3c-1.9,1.3-3.3,3-4.5,4.7
						c-2.4,3.4-3.8,7-4.6,10c-0.8,3-1,5.6-1.1,7.3c0,0.9,0,1.6,0,2C70.7,254.3,70.7,254.5,70.7,254.5z"/>
				</g>
				<g>
					<path class="st4" d="M87,236.4c0.1,0.1,0.8-1.1,1.8-2.5c1-1.4,1.9-2.4,1.7-2.5c-0.1-0.1-1.2,0.8-2.2,2.2
						C87.4,235,86.9,236.4,87,236.4z"/>
				</g>
				<g>
					<path class="st4" d="M84.7,234.1c0.1,0.1,0.9-1,1.9-2.3c1-1.3,1.9-2.3,1.7-2.4c-0.1-0.1-1.2,0.8-2.2,2.1
						C85.2,232.8,84.6,234,84.7,234.1z"/>
				</g>
				<g>
					<path class="st4" d="M81.9,233.4c0.2,0,0.4-1.2,1.1-2.5c0.7-1.3,1.5-2.3,1.4-2.4c-0.1-0.1-1.1,0.7-1.9,2.1
						C81.8,232,81.8,233.3,81.9,233.4z"/>
				</g>
			</g>
			<g>
				<path class="st1" d="M143.9,250.3c-4.9-3.4-7.4-9.8-6.1-15.5c0.2-0.9,0.5-1.9,0-2.7c-0.8-1.2-2.6-0.6-4-0.4
					c-8,1.2-22.7,0.5-22.7,0.5c-4.9-0.5-12.6-1.3-12.6-1.3c3.7,6.2,12.4,10.8,19.1,10.7c-2.7,2.3-5,5-6.8,8
					c-3.1,5.1-4.7,11.1-4,17.1c0.7,5.9,3.9,11.6,8.9,14.8c5,3.2,11.8,3.7,17,0.7"/>
				<g>
					<path class="st4" d="M126,284.1c0-0.1-1.5,0.1-4.2-0.6c-2.6-0.6-6.4-2.5-9.6-6.3c-1.6-1.9-3.1-4.3-3.9-7.1
						c-0.5-1.4-0.7-2.9-0.8-4.5c-0.1-1.6-0.1-3.2,0.2-4.9c0.2-1.7,0.6-3.4,1.1-5c0.5-1.7,1.2-3.4,2.1-5c1.7-3.3,4.1-6.4,7.1-9
						l0.5-0.4l-0.7,0c-4.3-0.3-8.9-1.3-12.8-3.9c-2.6-1.7-4.7-4-6.1-6.7l-0.3,0.4c15.5,1.7,29.4,1.4,39.9,0.5l-0.2-0.3
						c-1,3.1-1.1,6-0.7,8.6c0.3,2.5,1.1,4.6,1.9,6.2c0.8,1.6,1.7,2.7,2.3,3.4c0.3,0.4,0.6,0.6,0.7,0.8c0.2,0.2,0.3,0.3,0.3,0.3
						c0,0-0.1-0.1-0.2-0.3c-0.1-0.2-0.4-0.5-0.7-0.8c-0.6-0.7-1.4-1.9-2.1-3.5c-0.8-1.6-1.5-3.7-1.8-6.1c-0.3-2.5-0.2-5.4,0.8-8.4
						l0.1-0.3l-0.3,0c-10.5,0.8-24.4,1.1-39.8-0.7l-0.5-0.1l0.2,0.5c1.5,2.7,3.6,5.1,6.3,6.9c4,2.6,8.6,3.7,13,4l-0.2-0.5
						c-3.1,2.6-5.5,5.8-7.2,9.1c-0.9,1.7-1.6,3.4-2.1,5.1c-0.6,1.7-0.9,3.4-1.1,5.1c-0.3,1.7-0.2,3.4-0.2,5c0.1,1.6,0.4,3.2,0.9,4.6
						c0.9,2.9,2.4,5.3,4,7.2c3.3,3.9,7.2,5.7,9.9,6.3c0.3,0.1,0.7,0.2,1,0.2c0.3,0,0.6,0.1,0.9,0.1c0.3,0,0.5,0.1,0.7,0.1
						c0.2,0,0.4,0,0.6,0c0.3,0,0.6,0,0.8,0C125.9,284.1,126,284.1,126,284.1z"/>
				</g>
				<g>
					<path class="st4" d="M108,236.1c0-0.2-1.8-0.4-3.4-1.8c-1.6-1.3-2.1-3.1-2.3-3c-0.1,0,0,0.5,0.2,1.2c0.3,0.7,0.8,1.6,1.7,2.3
						c0.9,0.7,1.8,1.1,2.5,1.3C107.5,236.2,108,236.2,108,236.1z"/>
				</g>
			</g>
			<g>
				<path class="st4" d="M66.7,251.9c0,0.1,0.6,0,1.2-0.6c0.3-0.3,0.5-0.8,0.6-1.4c0.1-0.6,0-1.2-0.3-1.8c-0.6-1.2-1.7-1.8-2.5-2
					c-0.8-0.2-1.3,0-1.3,0c0,0.1,0.5,0.1,1.2,0.3c0.7,0.3,1.6,0.9,2.1,1.9c0.5,1,0.3,2.1-0.1,2.7C67.2,251.6,66.7,251.8,66.7,251.9z
					"/>
			</g>
			<g class="st5">
				<path d="M28.7,235.3c-1.1,0,2.6,3.8,4.1,5.5c0.6,0.7,1.3,1.3,2.2,1.4c0.7,0,1.4-0.3,2-0.7c1.5-1,2.8-2.2,3.9-3.7l0.2-0.3
					C41.1,237.5,31.1,235.2,28.7,235.3z"/>
			</g>
			<g class="st5">
				<path d="M33.6,268.4c3,1.9,5,5.6,5.7,8c-3.3,1.7-7.2,2.3-10.9,1.8c-0.7-0.1-1.6-0.3-2-0.9c-0.6-0.8-0.1-2,0.5-2.8
					C28.6,271.8,31.1,270.1,33.6,268.4"/>
			</g>
			<g>
				<path class="st4" d="M69,276.7c0.1,0-0.5-1.5-1.3-3.8c-0.8-2.4-1.6-5.7-2.1-9.5c-0.5-3.8-0.5-7.2-0.4-9.7c0.1-2.5,0.3-4,0.2-4
					c0,0-0.1,0.4-0.2,1.1c-0.1,0.7-0.3,1.7-0.4,2.9c-0.2,2.5-0.2,6,0.3,9.8c0.5,3.8,1.4,7.2,2.3,9.5c0.4,1.2,0.8,2.1,1.1,2.7
					C68.8,276.4,69,276.7,69,276.7z"/>
			</g>
			<g>
				<path class="st4" d="M62.3,273.5c0.1,0-0.2-1.3-0.4-3.4c-0.2-2.1-0.4-5-0.2-8.2c0.2-3.2,0.7-6.1,1.2-8.1
					c0.5-2.1,0.9-3.3,0.8-3.3c0,0-0.2,0.3-0.4,0.8c-0.2,0.6-0.5,1.4-0.8,2.4c-0.6,2-1.2,4.9-1.3,8.2c-0.2,3.2,0.1,6.2,0.4,8.3
					c0.2,1.1,0.3,1.9,0.5,2.5C62.2,273.2,62.3,273.5,62.3,273.5z"/>
			</g>
			<g>
				<path class="st4" d="M65.1,237.8c-0.1,0-0.5,1.3-0.6,3c0,1.7,0.2,3,0.4,3c0.2,0,0.1-1.4,0.2-3C65.1,239.1,65.2,237.8,65.1,237.8
					z"/>
			</g>
			<g class="st2">
				<path class="st3" d="M55.5,290.8c0.4-2.6,4.3-7,6.9-6.9c2.6,0.1,5.1,1.4,7.5,2.5c2.4,1.2,5,2.2,7.6,1.9c3.4-0.5,6-3.2,9.3-4.1
					c2.8-0.7,5.9,0,8.3,1.6c2.4,1.6,4.3,3.9,5.7,6.5c1.4,2.6,2.4,5.4,4.2,7.7c1.8,2.3,4.8,4.5,7.6,3.7c0,0-18.4,6-33.2,0.5
					C68.3,300.2,55.5,290.8,55.5,290.8z"/>
			</g>
			<g class="st2">
				<path class="st3" d="M72.6,243.2c2.3-0.3,4.8,0.6,6.2,2.4s1.9,4.4,1.1,6.6c-0.3,0.8-0.8,1.6-0.9,2.5c-0.2,1.7,0.8,3.2,1,4.9
					c0.2,1.5-0.3,3.1-1.4,4.1c-1.1,1-2.8,1.4-4.2,0.8c-1.7-0.8-2.5-2.7-3-4.4c-1.5-5.5-1.1-11.5,1.1-16.8"/>
			</g>
			<g class="st2">
				<path class="st3" d="M144,284c-6.9,1.4-14.5-0.5-19.8-5.1c-2.8-2.4-5.1-5.6-5.5-9.2c-0.4-3.7,1.4-7.7,4.8-9.1
					c4.6-1.9,9.9,1.3,14.6,0c2-0.6,3.7-1.9,5.3-3.1c1.7-1.2,3.5-2.4,5.5-2.7c2.1-0.3,4.4,0.7,5.1,2.6l0,1.7
					C151.9,266,148.2,274.8,144,284z"/>
			</g>
			<g class="st2">
				<path class="st3" d="M201.5,287.1c-5.1,0.9-9.8-3.2-9.3-8.4c0.1-0.5,0.1-1,0.3-1.4c1.2-3.4,4.2-6.2,7.8-6.6
					c2.1-0.2,4.4,0.4,6.3-0.5c2.1-0.9,3.3-3,4-5.1c0.7-2.1,1.2-4.4,2.5-6.2c1.3-1.8,3.9-3,5.8-2c0,0,6.5,5.7,2.3,15.3
					C217.8,279.9,211.4,285.4,201.5,287.1z"/>
			</g>
			<g>
				<path class="st6" d="M70,192.6c0,0,0.1,0.2,0.3,0.6c0.3,0.4,0.6,1,1,1.7c0.4,0.7,1,1.6,1.7,2.6c0.7,1,1.5,2.1,2.4,3.3
					c0.5,0.6,1,1.2,1.5,1.9c0.5,0.6,1.1,1.3,1.7,1.9c1.2,1.4,2.5,2.7,4,4.1c2.9,2.7,6.4,5.5,10.2,8.1c3.9,2.6,7.8,4.6,11.4,6.3
					c1.9,0.8,3.6,1.5,5.3,2.1c0.8,0.3,1.6,0.6,2.4,0.8c0.8,0.2,1.6,0.5,2.3,0.7c1.4,0.5,2.8,0.7,4,1c1.2,0.3,2.2,0.5,3,0.6
					c0.8,0.1,1.4,0.2,1.9,0.3c0.4,0.1,0.7,0.1,0.7,0.1c0,0-0.2-0.1-0.7-0.2c-0.5-0.1-1.1-0.2-1.9-0.4c-0.8-0.2-1.8-0.4-3-0.7
					c-1.2-0.3-2.5-0.6-3.9-1.1c-0.7-0.2-1.5-0.5-2.3-0.7c-0.8-0.2-1.6-0.6-2.4-0.9c-1.7-0.6-3.4-1.4-5.2-2.1
					c-3.6-1.7-7.5-3.8-11.3-6.3c-3.8-2.6-7.2-5.4-10.2-8.1c-1.4-1.4-2.8-2.7-4-4c-0.6-0.7-1.2-1.3-1.7-1.9c-0.5-0.6-1-1.2-1.5-1.8
					c-1-1.1-1.8-2.3-2.5-3.2c-0.7-0.9-1.3-1.8-1.8-2.5c-0.5-0.7-0.8-1.2-1.1-1.6C70.2,192.8,70.1,192.6,70,192.6z"/>
			</g>
			<g>
				<path class="st6" d="M96.1,219.1c0,0,0.3-0.4,0.8-1.2c0.3-0.4,0.6-0.9,0.9-1.5c0.3-0.6,0.7-1.2,1.1-2c0.7-1.5,1.5-3.4,2.1-5.5
					c0.6-2.1,1.2-4.5,1.5-7.1c0.3-2.6,0.3-5,0.1-7.2c-0.2-2.2-0.5-4.2-0.9-5.8c-0.2-0.8-0.4-1.5-0.6-2.2c-0.2-0.6-0.4-1.2-0.5-1.6
					c-0.3-0.9-0.5-1.4-0.6-1.3c-0.1,0,0.6,2,1.3,5.2c0.3,1.6,0.6,3.6,0.7,5.8c0.1,2.2,0.1,4.6-0.2,7.1c-0.3,2.5-0.8,4.9-1.4,7
					c-0.6,2.1-1.3,4-2,5.5C97.2,217.3,96,219.1,96.1,219.1z"/>
			</g>
			<g>
				<path class="st6" d="M86.7,210.9c0,0,0.3-0.3,0.8-0.9c0.5-0.6,1.1-1.5,1.7-2.6c0.7-1.1,1.4-2.6,2-4.2c0.6-1.7,1.2-3.5,1.5-5.5
					c0.4-2,0.5-4,0.5-5.7c0-1.8-0.2-3.4-0.4-4.7c-0.2-1.3-0.5-2.4-0.7-3.1c-0.2-0.7-0.4-1.1-0.4-1.1c-0.1,0,0.4,1.6,0.7,4.2
					c0.2,1.3,0.3,2.9,0.3,4.6c0,1.7-0.2,3.6-0.5,5.6c-0.4,2-0.9,3.8-1.5,5.4c-0.6,1.6-1.2,3.1-1.9,4.2
					C87.6,209.5,86.6,210.8,86.7,210.9z"/>
			</g>
			<g>
				<path class="st6" d="M78,202.9c0,0,0.8-0.8,1.7-2.3c0.9-1.5,2-3.8,2.6-6.5c0.6-2.7,0.7-5.2,0.5-7c-0.2-1.8-0.5-2.9-0.5-2.9
					c-0.1,0,0.1,1.1,0.1,2.9c0.1,1.8-0.1,4.2-0.7,6.9c-0.6,2.6-1.6,4.9-2.4,6.5C78.6,201.9,77.9,202.8,78,202.9z"/>
			</g>
			<g>
				<path class="st6" d="M60.9,200c0,0,0.1,0.2,0.3,0.7c0.3,0.5,0.6,1.1,1,1.8c0.4,0.8,1,1.7,1.7,2.8c0.7,1.1,1.5,2.3,2.4,3.6
					c0.5,0.7,1,1.3,1.5,2c0.5,0.7,1.1,1.4,1.7,2.1c1.2,1.5,2.6,3,4,4.6c2.9,3.1,6.4,6.3,10.3,9.3c3.9,3,7.9,5.5,11.6,7.6
					c1.9,1,3.7,2,5.4,2.7c0.9,0.4,1.7,0.8,2.5,1.1c0.8,0.3,1.6,0.6,2.4,0.9c1.5,0.6,2.9,1.1,4.1,1.5c1.2,0.4,2.3,0.7,3.1,1
					c0.8,0.2,1.5,0.4,2,0.5c0.5,0.1,0.7,0.2,0.7,0.1c0,0-0.2-0.1-0.7-0.3c-0.5-0.2-1.2-0.4-2-0.6c-0.9-0.3-1.9-0.6-3.1-1
					c-1.2-0.4-2.6-0.9-4.1-1.5c-0.7-0.3-1.5-0.6-2.3-1c-0.8-0.3-1.6-0.8-2.5-1.2c-1.7-0.8-3.5-1.8-5.4-2.8
					c-3.7-2.1-7.6-4.6-11.5-7.6c-3.9-3-7.3-6.2-10.2-9.3c-1.4-1.6-2.8-3-4-4.5c-0.6-0.7-1.2-1.4-1.7-2.1c-0.5-0.7-1-1.4-1.5-2
					c-1-1.3-1.8-2.5-2.5-3.5c-0.7-1-1.3-2-1.8-2.8c-0.5-0.7-0.8-1.3-1.1-1.8C61,200.2,60.9,200,60.9,200z"/>
			</g>
			<g>
				<path class="st6" d="M56.1,204.8c0,0,0.1,0.2,0.2,0.7c0.2,0.5,0.4,1.1,0.8,1.9c0.2,0.4,0.4,0.9,0.6,1.4c0.2,0.5,0.5,1,0.8,1.6
					c0.6,1.1,1.1,2.4,2,3.8c0.4,0.7,0.8,1.4,1.2,2.2c0.4,0.7,1,1.5,1.5,2.3c1,1.6,2.2,3.2,3.5,4.8c2.6,3.3,5.7,6.7,9.4,9.9
					c3.7,3.2,7.4,5.8,11,8c1.8,1,3.5,2,5.2,2.8c0.8,0.4,1.6,0.8,2.4,1.2c0.8,0.3,1.6,0.6,2.3,0.9c1.4,0.6,2.8,1,4,1.5
					c0.6,0.2,1.1,0.4,1.7,0.5c0.5,0.1,1,0.3,1.4,0.4c0.8,0.2,1.5,0.4,2,0.5c0.5,0.1,0.7,0.2,0.7,0.1c0,0-0.2-0.1-0.7-0.2
					c-0.5-0.2-1.1-0.4-1.9-0.6c-0.4-0.1-0.9-0.3-1.4-0.4c-0.5-0.2-1.1-0.4-1.6-0.6c-1.2-0.4-2.5-0.9-4-1.5c-0.7-0.3-1.5-0.6-2.3-1
					c-0.8-0.3-1.6-0.8-2.4-1.2c-1.7-0.8-3.4-1.8-5.2-2.8c-3.5-2.2-7.3-4.8-10.9-8c-3.6-3.2-6.7-6.6-9.3-9.8
					c-1.3-1.7-2.5-3.2-3.5-4.8c-0.5-0.8-1-1.5-1.5-2.2c-0.4-0.7-0.9-1.4-1.3-2.1c-0.8-1.3-1.4-2.6-2-3.7c-0.3-0.6-0.6-1.1-0.8-1.6
					c-0.2-0.5-0.4-0.9-0.6-1.3c-0.3-0.8-0.6-1.4-0.8-1.8C56.2,205,56.1,204.8,56.1,204.8z"/>
			</g>
			<g>
				<path class="st6" d="M100.3,210.9c0,0.1,1.3-0.5,3.3-1.2c2-0.8,4.8-1.8,8-2.6c3.2-0.8,6.1-1.3,8.2-1.6c2.1-0.3,3.5-0.4,3.5-0.5
					c0,0-0.3-0.1-0.9,0c-0.6,0-1.5,0-2.6,0.1c-2.2,0.2-5.1,0.6-8.3,1.4c-3.2,0.8-6,1.9-8,2.8c-1,0.4-1.8,0.8-2.3,1.1
					C100.6,210.7,100.3,210.9,100.3,210.9z"/>
			</g>
			<g>
				<path class="st6" d="M101.3,199c0.1,0.2,3.2-1.5,7.3-2.7c4.1-1.3,7.6-1.7,7.6-1.8c0-0.1-0.9-0.1-2.3,0.1
					c-1.4,0.2-3.4,0.6-5.5,1.2c-2.1,0.6-3.9,1.4-5.2,2.1C102,198.5,101.3,199,101.3,199z"/>
			</g>
			<g>
				<path class="st6" d="M104.5,221.7c0,0.1,1.1-0.4,3-1.1c1.8-0.7,4.4-1.5,7.3-2.2c2.9-0.7,5.5-1.1,7.5-1.3
					c1.9-0.2,3.1-0.3,3.1-0.4c0-0.1-1.2-0.1-3.2,0c-2,0.1-4.7,0.4-7.6,1.1c-2.9,0.7-5.5,1.6-7.3,2.4
					C105.5,221,104.4,221.6,104.5,221.7z"/>
			</g>
			<g>
				<path class="st6" d="M143.4,217.8c0-0.1-0.8,0-2.1-0.4c-1.3-0.4-3.1-1.2-4.9-2.9c-1.8-1.6-3.5-4-5-6.9c-1.5-2.9-2.9-6.2-5.1-9.3
					c-2.2-3.1-4.9-5.6-7.5-7.5c-2.7-1.9-5.3-3.3-7.6-4.1c-2.3-0.9-4.3-1.3-5.6-1.6c-0.7-0.1-1.2-0.2-1.6-0.2c-0.4,0-0.6-0.1-0.6,0
					c0,0,0.7,0.2,2.1,0.5c1.3,0.3,3.3,0.8,5.5,1.7c2.3,0.9,4.9,2.3,7.5,4.2c2.6,1.9,5.2,4.4,7.4,7.4c2.2,3,3.6,6.3,5.1,9.2
					c1.5,2.9,3.2,5.4,5.1,7c1.9,1.7,3.8,2.5,5.1,2.8c0.7,0.2,1.2,0.2,1.6,0.2C143.2,217.8,143.4,217.8,143.4,217.8z"/>
			</g>
			<g>
				<path class="st6" d="M74.3,211.8c0.1-0.1-1.7-1.3-4-3.8c-2.3-2.5-4.9-6.5-6.3-11.5c-0.3-1.2-0.5-2.5-0.5-3.7
					c0-1.2,0.4-2.3,1-3.2c0.6-0.9,1.6-1.4,2.5-1.6c0.9-0.2,1.9-0.2,2.7-0.1c1.7,0.3,2.9,0.9,3.8,1.3c0.9,0.4,1.3,0.6,1.4,0.6
					c0,0-0.4-0.3-1.3-0.8c-0.8-0.4-2.1-1.1-3.8-1.5c-0.9-0.1-1.8-0.2-2.9,0.1c-1,0.2-2.1,0.8-2.8,1.8c-0.7,1-1.1,2.2-1.1,3.5
					c-0.1,1.3,0.1,2.6,0.5,3.9c1.4,5.1,4.2,9.2,6.5,11.7c1.2,1.3,2.3,2.2,3,2.7C73.8,211.6,74.2,211.9,74.3,211.8z"/>
			</g>
		</g>
		<g>
			<g>
				<path class="st7" d="M286.2,84.7c0,0,15.4-10.6,14.1-25.4c-1.3-14.8-20.9-31.8-20.9-31.8s6-2.3,11.5,1.9
					c4.1,3.1,5.2,6.2,5.2,6.2l0-7.9c0,0,4.2,1.7,8.2,6.8c2.8,3.6,4.9,10,4.9,10l1.6-6.5c0,0,6.1,5.4,7.7,12.5
					c1.2,5-1.4,10.1-1.4,10.1l6.9-2.5c0,0,2.9,5.8-1,14.4c-2.7,5.9-13.1,13-24.1,14.3C288.2,88.1,286.2,84.7,286.2,84.7z"/>
				<path class="st8" d="M286.2,84.7c0,0,15.4-10.6,14.1-25.4c-1.3-14.8-20.9-31.8-20.9-31.8s6-2.3,11.5,1.9
					c4.1,3.1,5.2,6.2,5.2,6.2l0-7.9c0,0,4.2,1.7,8.2,6.8c2.8,3.6,4.9,10,4.9,10l1.6-6.5c0,0,6.1,5.4,7.7,12.5
					c1.2,5-1.4,10.1-1.4,10.1l6.9-2.5c0,0,2.9,5.8-1,14.4c-2.7,5.9-13.1,13-24.1,14.3C288.2,88.1,286.2,84.7,286.2,84.7z"/>
				<path class="st9" d="M177,128.5c-5.8,22-31.1,55.4-33.6,55.7c-7.5,0.7-15,5.7-14.6,7.7c0.5,2.4,14.2,2.2,17.3,1.2
					c3.1-1,53.6-52.9,53.6-52.9S178.6,122.3,177,128.5z"/>
				<path class="st9" d="M156.2,168.5c2.1,1.7,5.1,4.6,3.7,6c-2.1,2.1-13.9,16.6-18.1,16.6c-2.3,0-7.9-0.4-12.5-0.7
					c-0.4,0.6-0.6,1-0.5,1.4c0.5,2.4,14.2,2.2,17.3,1.2c3.1-1,53.6-52.9,53.6-52.9s-14.1-11.9-20.1-12.8l-3.1,2.9
					C172.9,142.3,163.9,157.4,156.2,168.5z"/>
				<path class="st4" d="M245.6,107c1.4,5.5,9.1,19.4,16.3,25.5c8.2,7,21.4,10.2,24.8,13.6c10.6,10.6-7.2,34.7-7.2,35.5
					c0,0.8-7.6,2.7-8.7,5.7c-1.1,3,14.9,1.1,16.8-0.8c1.9-1.9,17.2-39.9,15.3-43.7c-1.9-3.8-5.8-11.9-6.9-17.9
					c-1.1-6-3.1-14.9-5.5-19.9c-2.4-5-18.1-11.5-29.8-10.2C249,96.2,243.8,100,245.6,107z"/>
				<path class="st9" d="M287.6,186.6c1.9-1.9,17.2-39.9,15.3-43.7c-1.9-3.8-5.8-11.9-6.9-17.9c-1.1-6-3.1-14.9-5.5-19.9
					c-2.2-4.6-15.9-10.6-27.1-10.3l-7.5,31.3c1.9,2.6,4,4.9,6,6.6c8.2,7,21.4,10.2,24.8,13.6c1.2,1.2,2,2.6,2.5,4.1
					c3.3,0.8,5.8,1.3,6.3,1.8c1,1-7.9,29.8-9.5,31.4c-1.7,1.7-12.1,3.9-14.8,4.9l0,0C273.4,189.9,285.9,188.2,287.6,186.6z"/>
				<path class="st10" d="M163.6,62.5c0,0,5.7-3.8,7.4-6c2.6-3.5,3.7-9.9,3.7-9.9s3.1,3.6,4.1,8.6c1.4,7.1-2.8,14.3-2.8,14.3
					L163.6,62.5z"/>
				<path class="st7" d="M121.1,61.4c0,0-3.6,6-1.6,12.8c1.3,4.6,4.4,6,4.4,6s-2.2,6.1-0.2,7.6c2,1.5,16.9,5,20.2,12.2
					c3.3,7.2,5.7,21.6,11,29.6c5.3,8,28.1,28.5,52.9,28.5c25.4-0.1,55.6-29,78.5-29.9c13.4-0.6,34.8-11.5,30.3-21
					c-4.4-9.5-14.3-22-27.1-23.7c-12.9-1.6-69.1,16.6-80.9,18.4c-11.8,1.8-24.2,1.4-28.6-8.1c-4.4-9.5,3.8-18.7-6-27.4
					s-26.4-0.2-28.2,0.1C143.9,66.8,121.1,61.4,121.1,61.4z"/>
				<path class="st7" d="M189.5,119.6c0,0-10.3,21.6-16.6,26.4c-6.3,4.8-21.9,2.1-25.5,3.9c-3.6,1.8-12.1,16.3-11.7,20.4
					c0.4,4,3.8,9.4,5.6,9.2c1.9-0.2,5.8-4.5,5.5-6.9c-0.3-2.4-1.5-7.1,0.3-9.3c1.8-2.2,4-3.4,6.7-3.7c2.7-0.3,22.6,6.5,27.1,6
					c4.6-0.5,15.2-10.4,17.9-10.7C201.7,154.5,189.5,119.6,189.5,119.6z"/>
				<path class="st7" d="M265.9,111.9c1.4,5.5,3.1,22,11.8,25.5c8.7,3.5,31.6,8.5,35,11.9c10.6,10.6,9.1,34.7,9.1,35.5
					s-7.6,2.7-8.7,5.7c-1.1,3,13,3,14.9,1.1c1.9-1.9,2.8-41.8,0.9-45.6c-1.9-3.8-5.8-11.9-6.9-17.9c-1.1-6-3.1-14.9-5.5-19.9
					c-2.4-5-18.1-11.5-29.8-10.2S264.1,104.9,265.9,111.9z"/>
				<path class="st9" d="M170,63.9c0,0,6.9-2,9.8-4.7c3-2.6,6.8-9,6.8-9s3.4,5.5,1.6,15.7c-1.5,8.9-9.3,14-9.3,14s-6.1-4.8-8.7-10.8
					C169.8,67.9,170,63.9,170,63.9z"/>
				<path class="st4" d="M149.5,68.5c-1,3.2,1.1,13.6,5.9,18.3c4.8,4.8,13.2,5.8,16.6,1.2c3.4-4.6-1.3-15.2-6.5-19.1
					C160.2,65.2,150.8,64.4,149.5,68.5z"/>
				<path class="st4" d="M237.8,99c-0.9,2.1,5.2,5.2,5.7,8.7c0.5,3.5,1.8,12.4,5.1,14.8c3.2,2.4,15.1,1,18.3-0.7
					c3.2-1.7,10.5-7,10-10c-0.4-3-3.9-8.4-2.9-11.2c1-2.8,12.3-3.4,11.5-8.7c-0.8-5.4-13.6-7.3-16.1-5.7c-2.5,1.6-3.4,5.6-5.1,5.8
					c-1.7,0.3-5.5-1.7-8.3-0.5c-2.9,1.1-3.9,5.4-5.1,5.5S239.8,94.1,237.8,99z"/>
				<path class="st10" d="M120.4,60.8c-0.4,0.1-2.5,4-2.3,5.1c0.2,1.1,0.2,3.7,0.8,3.6c0.5-0.1,0.8-4.6,1.8-3.9
					c1,0.7-1.4,3.2-0.9,3.5c0.5,0.3,3.8-2.2,4.1-3.4C124.1,64.6,121.8,60.6,120.4,60.8z"/>
				<path class="st11" d="M139.5,84.3c-0.5,0-1,0-1.6,0c-7.5-0.3-14.1-3.9-14.1-4L124,80c0.1,0,6.6,3.7,13.9,3.9
					c7.3,0.2,9.6-1.2,9.7-2.1l0.4,0.1C147.8,83.1,145.4,84.3,139.5,84.3z"/>
				<path class="st10" d="M148.1,81.5c0.1,0.4-0.2,0.9-0.7,0.9c-0.4,0.1-0.9-0.2-0.9-0.7c-0.1-0.4,0.2-0.9,0.7-0.9
					C147.6,80.7,148,81,148.1,81.5z"/>
				<path class="st4" d="M182,96.9L182,96.9c-0.4,0.6-1.2,6.9,1,9.2c2.1,2.3,6.2,5,5.7,7.1c-0.5,2.1-5.6,6.6-5,10.4
					c0.6,3.8,3.8,10.5,15.8,10.5c12.1,0,13.4-8.6,12.2-11.3c-1.2-2.7-6.8-10.9-5.8-14.4c1-3.5,5-6.9,5-6.9l0,0
					c-0.8,0.2-1.5,0.3-2.1,0.4C198.3,103.4,187.5,103.3,182,96.9z"/>
				<path class="st4" d="M299.5,86.8c4.1-4,10.8-12.5,10-14.2c-1-2.1-4.1-1.5-3.7-2.6c0.4-1.1,2.1-3.3,1.2-6.4
					c-0.7-2.3-4.5-3.8-6.7-4.6c0,0.1,0,0.2,0,0.3c1.2,13.6-11.8,23.7-13.8,25.2c-0.4,0.9-0.6,1.4-0.6,1.4c1,2.1,8.3,4.2,11.2,2.8
					c0.5-0.3,1.3-0.9,2.2-1.8c-0.1,0-0.1-0.1-0.2-0.1h0C299.3,86.8,299.4,86.8,299.5,86.8z"/>
				<path class="st10" d="M150,121.3c0,0,9.6-3.2,17.6-9c10.3-7.5,13.9-17.3,13.9-17.3l3.5,3.5c0,0-2.8,8.7-13.9,17.6
					c-8.5,6.8-19.3,10.2-19.3,10.2L150,121.3z"/>
				<path class="st12" d="M132.9,65.7c0,3,15.8,11.6,18,13.8c2.2,2.2,10.1,31.4,18.1,40.9c24.4,28.7,102.8-13.9,101-15.4
					c-11.6-9.5-58.4,11.4-72.3,9.6c-13.8-1.8-26.9-5.1-25.1-16c3.4-20.8-9.1-31.2-20.5-28.1C142.7,73.1,132.9,64.4,132.9,65.7z"/>
				<path class="st8" d="M172.9,145.9c3.9-1.8,7.6-9.7,7.6-9.7s-8.2-5.5-16.8-14.2c-8.6-8.6-8.2-27.5-13.6-30.2
					c-5.4-2.6-27.1-6.6-27.2-6.6c0,0,0,0,0,0l0.3,1.8c0.1,0.3,0.3,0.5,0.5,0.7c2,1.5,16.9,5,20.2,12.2c3.3,7.2,5.7,21.6,11,29.6
					c2.5,3.8,9,10.5,17.8,16.4C172.8,146,172.8,146,172.9,145.9z"/>
				<path class="st8" d="M221.5,141.5c-4.7,0-2.4-10.5-7.1-10.5c-4.7,0-1.2,4.1-5,10.9c-3.8,6.7-13.3,14.3-13.7,14.6
					c3.9,1,8,1.6,12.1,1.6c20.3-0.1,43.6-18.5,63.9-26.4l0,0c0,0-5.7-14-7.8-16C261.9,113.6,226.3,141.5,221.5,141.5z"/>
				<path class="st8" d="M311.6,108.1c3.6,12.7-2.4,24.6,0,27c2.4,2.4,14.8,11.6,14.8,16.3c0,4.7,0.9,35,0,35.9
					c-0.8,0.8-2.2,3.3-11.2,5.2c3.8,1,11.4,0.6,12.8-0.8c1.9-1.9,2.8-41.8,0.9-45.6c-1.9-3.8-5.8-11.9-6.9-17.9
					c-1-5.4-2.7-13.1-4.8-18.3c0-0.9-0.2-1.9-0.6-2.8c-2.8-6-7.8-13.3-14.4-18.2l-4.5-1.3C297.8,87.6,308.1,95.4,311.6,108.1z"/>
				<path class="st8" d="M181,165.5c3.4-0.4,10.3-6.1,14.7-9l0,0c0,0-10.9,5.9-15.2,5c-4.3-1-25.5-5.1-29.4-4.3c-4,0.8-8,3.6-8,6.5
					c0,3,2.7,8.9-1.9,11.9c-0.8,0.5-1.8,1-2.8,1.4c1,1.5,2.2,2.6,3,2.5c1.9-0.2,5.8-4.5,5.5-6.9c-0.3-2.4-1.5-7.1,0.3-9.3
					c1.8-2.2,4-3.4,6.7-3.7C156.6,159.2,176.4,166,181,165.5z"/>
				<path class="st9" d="M170,63.9c0,0,6.9-2,9.8-4.7c3-2.6,6.8-9,6.8-9s3.4,5.5,1.6,15.7c-1.5,8.9-9.3,14-9.3,14s-6.1-4.8-8.7-10.8
					C169.8,67.9,170,63.9,170,63.9z"/>
				<g>
					<g>
						<g>
							
								<rect x="125.3" y="59.1" transform="matrix(0.2482 -0.9687 0.9687 0.2482 16.5543 187.077)" class="st1" width="6.9" height="47.6"/>
							
								<ellipse transform="matrix(0.2806 -0.9598 0.9598 0.2806 1.9112 156.972)" class="st1" cx="105.7" cy="77.2" rx="6.6" ry="6.6"/>
							<path class="st1" d="M145.4,87.4c-0.9,3.5,1.2,7.1,4.7,8c3.5,0.9,7.1-1.2,8-4.7c0.9-3.5-1.2-7.1-4.7-8
								C149.9,81.8,146.3,83.9,145.4,87.4z"/>
						</g>
					</g>
					<linearGradient id="SVGID_1_" gradientUnits="userSpaceOnUse" x1="99.1347" y1="85.8512" x2="158.2792" y2="85.8512">
						<stop  offset="0" style="stop-color:#FFF7EE"/>
						<stop  offset="0.4391" style="stop-color:#EBDEDE"/>
						<stop  offset="1" style="stop-color:#D5C1CC"/>
					</linearGradient>
					<path class="st13" d="M150.7,91.9c-2.4-0.6-4.1-2.2-4.6-4l-35.6-8.8c-1.7,1.2-4.2,1.8-6.6,1.2c-2.5-0.6-4.3-2.3-4.7-4.2
						c-0.6,3.3,1.5,6.6,4.8,7.5c2.4,0.6,4.8-0.2,6.3-1.8l35.1,9c0.6,2.2,2.3,4.1,4.7,4.7c3.5,0.9,7.1-1.2,8-4.7
						c0.1-0.3,0.1-0.5,0.1-0.8C156.7,91.8,153.7,92.7,150.7,91.9z"/>
				</g>
				<path class="st9" d="M119.1,73.2c0,0-0.4,5.4,4.4,7.7c4.9,2.3,21.3,2.6,21.3,2.6s-7.3-8.8-12.7-11.8
					C126.8,68.7,119.9,69.7,119.1,73.2z"/>
				<path class="st9" d="M122.9,85.2c0.6-0.8,4.2-1.5,7.5-0.3c3.3,1.2,10.3,4.6,11.7,4.9c1.4,0.4,1.5,1.6-1.9,0.9
					c-3.4-0.6-10.7-4.4-13.1-4C124.7,87.1,122.3,85.9,122.9,85.2z"/>
				<path class="st4" d="M168.2,64c0,0,8.6-3.2,11.6-6.1c3-2.8,6.8-7.7,6.8-7.7s-3.2,8-5.4,11c-2.2,3-6.1,4.5-6.5,5
					c-0.4,0.5,5.4,0.3,5.4,0.3l-5.6,1.7l3.6,2.8l-4.2-1.3L174,75c0,0-2.9-2.6-4.1-5.3C168.5,66.3,168.2,64,168.2,64z"/>
				<path class="st10" d="M154.4,72.9c0.3,1.1,2.4,0.1,4.6,0.1c3.3-0.1,6.4,3.2,6.4,3.2s-1.4-4-5.6-5
					C157.6,70.7,154,71.1,154.4,72.9z"/>
			</g>
			<g>
				
					<ellipse transform="matrix(0.1602 -0.9871 0.9871 0.1602 45.8475 417.1765)" class="st1" cx="268.1" cy="181.6" rx="18.4" ry="18.4"/>
				<linearGradient id="SVGID_2_" gradientUnits="userSpaceOnUse" x1="251.1853" y1="184.7481" x2="286.4449" y2="184.7481">
					<stop  offset="0" style="stop-color:#FFF7EE"/>
					<stop  offset="0.4391" style="stop-color:#EBDEDE"/>
					<stop  offset="1" style="stop-color:#D5C1CC"/>
				</linearGradient>
				<path class="st14" d="M281.8,169.5c0.9,2.2,1.5,4.6,1.5,7.2c0,10.1-8.2,18.4-18.4,18.4c-5.5,0-10.4-2.4-13.7-6.2
					c2.8,6.6,9.3,11.2,16.9,11.2c10.1,0,18.4-8.2,18.4-18.4C286.4,177,284.7,172.7,281.8,169.5z"/>
			</g>
		</g>
	</g>
</g>
</svg>
