<?xml version="1.0" encoding="utf-8"?>
<!-- Generator: Adobe Illustrator 24.1.0, SVG Export Plug-In . SVG Version: 6.00 Build 0)  -->
<svg version="1.1" xmlns="http://www.w3.org/2000/svg" xmlns:xlink="http://www.w3.org/1999/xlink" x="0px" y="0px"
	 viewBox="0 0 353 337.5" style="enable-background:new 0 0 353 337.5;" xml:space="preserve">
<style type="text/css">
	.st0{fill:#CBE6F9;}
	.st1{opacity:0.25;}
	.st2{fill:#2A507A;}
	.st3{fill:none;stroke:#2A507A;stroke-width:5.4139;stroke-linecap:round;stroke-miterlimit:10;}
	.st4{fill:#FFFFFF;}
	.st5{fill:#218DE8;}
	.st6{fill:#ACE2F9;}
	.st7{fill:#BDE7FF;}
	.st8{fill:none;stroke:#192469;stroke-width:5.4139;stroke-linecap:round;stroke-miterlimit:10;}
	.st9{clip-path:url(#SVGID_2_);}
	.st10{fill:#FFEDDC;}
	.st11{fill:#FFE2CA;}
	.st12{fill:#DB9F6E;}
	.st13{fill:#FFD6B8;}
	.st14{opacity:0.39;fill:none;stroke:url(#SVGID_3_);stroke-width:7.1118;stroke-miterlimit:10;}
	.st15{clip-path:url(#SVGID_5_);}
	.st16{clip-path:url(#SVGID_7_);fill:#218DE8;}
	.st17{fill:url(#SVGID_8_);}
	.st18{fill:#EFEFEF;}
	.st19{fill:#283996;}
	.st20{fill:none;stroke:#283996;stroke-width:7.1118;stroke-miterlimit:10;}
	.st21{fill:none;stroke:#1B1464;stroke-width:1.563;stroke-miterlimit:10;}
	.st22{fill:#FCC397;}
</style>
<g id="Livello_1">
</g>
<g id="Contattaci">
</g>
<g id="cosa_x27_altro_devi_sapere">
</g>
<g id="Come_funziona">
	<g>
		<g>
			<path class="st0" d="M330.3,229.4c-0.4,24.4-6.6,51.3-26.7,65.3c-12.3,8.6-27.8,10.9-42.7,12.3c-75.1,7.1-155.3-3.7-215.5-49.1
				c-10.6-8-21.1-18.1-22.5-31.2c-1.1-9.5,2.8-18.8,7.5-27.2c9.1-16.4,21.5-30.7,34.3-44.4C96,121.9,131,92.2,168.8,66.8
				c18.6-12.5,54.6-42.2,78.5-36.2c12.6,3.2,20.7,15,27.3,26.2C305.7,109.6,331.3,168.2,330.3,229.4z"/>
		</g>
		<g>
			<g class="st1">
				<path class="st2" d="M306.6,145.5v123.6c0,5.4-4.3,9.7-9.7,9.7h-151c-5.4,0-9.7-4.3-9.7-9.7V145.5c0-5.4,4.3-9.7,9.7-9.7h151
					C302.3,135.7,306.6,140.1,306.6,145.5z"/>
				<path class="st2" d="M306.6,145.5v17.3H136.2v-17.3c0-5.4,4.3-9.7,9.7-9.7h151C302.3,135.7,306.6,140.1,306.6,145.5z"/>
				<path class="st2" d="M160,189.8h-14.8c-1.3,0-2.3-1-2.3-2.3v-14.8c0-1.3,1-2.3,2.3-2.3H160c1.3,0,2.3,1,2.3,2.3v14.8
					C162.4,188.8,161.3,189.8,160,189.8z"/>
				<path class="st2" d="M187.7,189.8h-14.8c-1.3,0-2.3-1-2.3-2.3v-14.8c0-1.3,1-2.3,2.3-2.3h14.8c1.3,0,2.3,1,2.3,2.3v14.8
					C190.1,188.8,189,189.8,187.7,189.8z"/>
				<path class="st2" d="M215.4,189.8h-14.8c-1.3,0-2.3-1-2.3-2.3v-14.8c0-1.3,1-2.3,2.3-2.3h14.8c1.3,0,2.3,1,2.3,2.3v14.8
					C217.7,188.8,216.7,189.8,215.4,189.8z"/>
				<path class="st2" d="M243.1,189.8h-14.8c-1.3,0-2.3-1-2.3-2.3v-14.8c0-1.3,1-2.3,2.3-2.3h14.8c1.3,0,2.3,1,2.3,2.3v14.8
					C245.4,188.8,244.4,189.8,243.1,189.8z"/>
				<path class="st2" d="M270.8,189.8H256c-1.3,0-2.3-1-2.3-2.3v-14.8c0-1.3,1-2.3,2.3-2.3h14.8c1.3,0,2.3,1,2.3,2.3v14.8
					C273.1,188.8,272,189.8,270.8,189.8z"/>
				<path class="st2" d="M298.4,189.8h-14.8c-1.3,0-2.3-1-2.3-2.3v-14.8c0-1.3,1-2.3,2.3-2.3h14.8c1.3,0,2.3,1,2.3,2.3v14.8
					C300.8,188.8,299.7,189.8,298.4,189.8z"/>
				<path class="st2" d="M160,215.9h-14.8c-1.3,0-2.3-1-2.3-2.3v-14.8c0-1.3,1-2.3,2.3-2.3H160c1.3,0,2.3,1,2.3,2.3v14.8
					C162.4,214.8,161.3,215.9,160,215.9z"/>
				<path class="st2" d="M187.7,215.9h-14.8c-1.3,0-2.3-1-2.3-2.3v-14.8c0-1.3,1-2.3,2.3-2.3h14.8c1.3,0,2.3,1,2.3,2.3v14.8
					C190.1,214.8,189,215.9,187.7,215.9z"/>
				<path class="st2" d="M215.4,215.9h-14.8c-1.3,0-2.3-1-2.3-2.3v-14.8c0-1.3,1-2.3,2.3-2.3h14.8c1.3,0,2.3,1,2.3,2.3v14.8
					C217.7,214.8,216.7,215.9,215.4,215.9z"/>
				<path class="st2" d="M243.1,215.9h-14.8c-1.3,0-2.3-1-2.3-2.3v-14.8c0-1.3,1-2.3,2.3-2.3h14.8c1.3,0,2.3,1,2.3,2.3v14.8
					C245.4,214.8,244.4,215.9,243.1,215.9z"/>
				<path class="st2" d="M270.8,215.9H256c-1.3,0-2.3-1-2.3-2.3v-14.8c0-1.3,1-2.3,2.3-2.3h14.8c1.3,0,2.3,1,2.3,2.3v14.8
					C273.1,214.8,272,215.9,270.8,215.9z"/>
				<path class="st2" d="M298.4,215.9h-14.8c-1.3,0-2.3-1-2.3-2.3v-14.8c0-1.3,1-2.3,2.3-2.3h14.8c1.3,0,2.3,1,2.3,2.3v14.8
					C300.8,214.8,299.7,215.9,298.4,215.9z"/>
				<path class="st2" d="M160,242h-14.8c-1.3,0-2.3-1-2.3-2.3v-14.8c0-1.3,1-2.3,2.3-2.3H160c1.3,0,2.3,1,2.3,2.3v14.8
					C162.4,240.9,161.3,242,160,242z"/>
				<path class="st2" d="M187.7,242h-14.8c-1.3,0-2.3-1-2.3-2.3v-14.8c0-1.3,1-2.3,2.3-2.3h14.8c1.3,0,2.3,1,2.3,2.3v14.8
					C190.1,240.9,189,242,187.7,242z"/>
				<path class="st2" d="M215.4,242h-14.8c-1.3,0-2.3-1-2.3-2.3v-14.8c0-1.3,1-2.3,2.3-2.3h14.8c1.3,0,2.3,1,2.3,2.3v14.8
					C217.7,240.9,216.7,242,215.4,242z"/>
				<path class="st2" d="M243.1,242h-14.8c-1.3,0-2.3-1-2.3-2.3v-14.8c0-1.3,1-2.3,2.3-2.3h14.8c1.3,0,2.3,1,2.3,2.3v14.8
					C245.4,240.9,244.4,242,243.1,242z"/>
				<path class="st2" d="M270.8,242H256c-1.3,0-2.3-1-2.3-2.3v-14.8c0-1.3,1-2.3,2.3-2.3h14.8c1.3,0,2.3,1,2.3,2.3v14.8
					C273.1,240.9,272,242,270.8,242z"/>
				<path class="st2" d="M298.4,242h-14.8c-1.3,0-2.3-1-2.3-2.3v-14.8c0-1.3,1-2.3,2.3-2.3h14.8c1.3,0,2.3,1,2.3,2.3v14.8
					C300.8,240.9,299.7,242,298.4,242z"/>
				<path class="st2" d="M160,268h-14.8c-1.3,0-2.3-1-2.3-2.3v-14.8c0-1.3,1-2.3,2.3-2.3H160c1.3,0,2.3,1,2.3,2.3v14.8
					C162.4,267,161.3,268,160,268z"/>
				<path class="st2" d="M187.7,268h-14.8c-1.3,0-2.3-1-2.3-2.3v-14.8c0-1.3,1-2.3,2.3-2.3h14.8c1.3,0,2.3,1,2.3,2.3v14.8
					C190.1,267,189,268,187.7,268z"/>
				<path class="st2" d="M215.4,268h-14.8c-1.3,0-2.3-1-2.3-2.3v-14.8c0-1.3,1-2.3,2.3-2.3h14.8c1.3,0,2.3,1,2.3,2.3v14.8
					C217.7,267,216.7,268,215.4,268z"/>
				<path class="st2" d="M243.1,268h-14.8c-1.3,0-2.3-1-2.3-2.3v-14.8c0-1.3,1-2.3,2.3-2.3h14.8c1.3,0,2.3,1,2.3,2.3v14.8
					C245.4,267,244.4,268,243.1,268z"/>
				<path class="st2" d="M270.8,268H256c-1.3,0-2.3-1-2.3-2.3v-14.8c0-1.3,1-2.3,2.3-2.3h14.8c1.3,0,2.3,1,2.3,2.3v14.8
					C273.1,267,272,268,270.8,268z"/>
				<path class="st2" d="M298.4,268h-14.8c-1.3,0-2.3-1-2.3-2.3v-14.8c0-1.3,1-2.3,2.3-2.3h14.8c1.3,0,2.3,1,2.3,2.3v14.8
					C300.8,267,299.7,268,298.4,268z"/>
				<path class="st2" d="M150,150.8c0,2-1.6,3.5-3.5,3.5s-3.5-1.6-3.5-3.5c0-2,1.6-3.5,3.5-3.5S150,148.9,150,150.8z"/>
				<circle class="st2" cx="176.5" cy="150.8" r="3.5"/>
				<circle class="st2" cx="206.6" cy="150.8" r="3.5"/>
				<path class="st2" d="M240.2,150.8c0,2-1.6,3.5-3.5,3.5c-2,0-3.5-1.6-3.5-3.5c0-2,1.6-3.5,3.5-3.5
					C238.6,147.3,240.2,148.9,240.2,150.8z"/>
				<path class="st2" d="M270.3,150.8c0,2-1.6,3.5-3.5,3.5c-2,0-3.5-1.6-3.5-3.5c0-2,1.6-3.5,3.5-3.5
					C268.7,147.3,270.3,148.9,270.3,150.8z"/>
				<path class="st2" d="M300.4,150.8c0,2-1.6,3.5-3.5,3.5c-2,0-3.5-1.6-3.5-3.5c0-2,1.6-3.5,3.5-3.5
					C298.8,147.3,300.4,148.9,300.4,150.8z"/>
				<line class="st3" x1="146.5" y1="150.8" x2="146.5" y2="134.2"/>
				<line class="st3" x1="176.5" y1="150.8" x2="176.5" y2="134.2"/>
				<line class="st3" x1="206.6" y1="150.8" x2="206.6" y2="134.2"/>
				<line class="st3" x1="266.8" y1="150.8" x2="266.8" y2="134.2"/>
				<line class="st3" x1="236.7" y1="150.8" x2="236.7" y2="134.2"/>
				<line class="st3" x1="296.9" y1="150.8" x2="296.9" y2="134.2"/>
			</g>
			<g>
				<g>
					<g>
						<g>
							<path class="st4" d="M301.4,140.3v123.6c0,5.4-4.3,9.7-9.7,9.7h-151c-5.4,0-9.7-4.3-9.7-9.7V140.3c0-5.4,4.3-9.7,9.7-9.7h151
								C297.1,130.5,301.4,134.9,301.4,140.3z"/>
						</g>
						<path class="st5" d="M301.4,140.3v17.3H131v-17.3c0-5.4,4.3-9.7,9.7-9.7h151C297.1,130.5,301.4,134.9,301.4,140.3z"/>
					</g>
					<g>
						<g>
							<path class="st6" d="M154.8,184.6h-14.8c-1.3,0-2.3-1-2.3-2.3v-14.8c0-1.3,1-2.3,2.3-2.3h14.8c1.3,0,2.3,1,2.3,2.3v14.8
								C157.2,183.6,156.1,184.6,154.8,184.6z"/>
							<path class="st6" d="M182.5,184.6h-14.8c-1.3,0-2.3-1-2.3-2.3v-14.8c0-1.3,1-2.3,2.3-2.3h14.8c1.3,0,2.3,1,2.3,2.3v14.8
								C184.8,183.6,183.8,184.6,182.5,184.6z"/>
							<path class="st6" d="M210.2,184.6h-14.8c-1.3,0-2.3-1-2.3-2.3v-14.8c0-1.3,1-2.3,2.3-2.3h14.8c1.3,0,2.3,1,2.3,2.3v14.8
								C212.5,183.6,211.5,184.6,210.2,184.6z"/>
							<path class="st6" d="M237.9,184.6h-14.8c-1.3,0-2.3-1-2.3-2.3v-14.8c0-1.3,1-2.3,2.3-2.3h14.8c1.3,0,2.3,1,2.3,2.3v14.8
								C240.2,183.6,239.2,184.6,237.9,184.6z"/>
							<path class="st6" d="M265.5,184.6h-14.8c-1.3,0-2.3-1-2.3-2.3v-14.8c0-1.3,1-2.3,2.3-2.3h14.8c1.3,0,2.3,1,2.3,2.3v14.8
								C267.9,183.6,266.8,184.6,265.5,184.6z"/>
							<path class="st6" d="M293.2,184.6h-14.8c-1.3,0-2.3-1-2.3-2.3v-14.8c0-1.3,1-2.3,2.3-2.3h14.8c1.3,0,2.3,1,2.3,2.3v14.8
								C295.5,183.6,294.5,184.6,293.2,184.6z"/>
						</g>
						<g>
							<path class="st6" d="M154.8,210.7h-14.8c-1.3,0-2.3-1-2.3-2.3v-14.8c0-1.3,1-2.3,2.3-2.3h14.8c1.3,0,2.3,1,2.3,2.3v14.8
								C157.2,209.6,156.1,210.7,154.8,210.7z"/>
							<path class="st6" d="M182.5,210.7h-14.8c-1.3,0-2.3-1-2.3-2.3v-14.8c0-1.3,1-2.3,2.3-2.3h14.8c1.3,0,2.3,1,2.3,2.3v14.8
								C184.8,209.6,183.8,210.7,182.5,210.7z"/>
							<path class="st6" d="M210.2,210.7h-14.8c-1.3,0-2.3-1-2.3-2.3v-14.8c0-1.3,1-2.3,2.3-2.3h14.8c1.3,0,2.3,1,2.3,2.3v14.8
								C212.5,209.6,211.5,210.7,210.2,210.7z"/>
							<path class="st6" d="M237.9,210.7h-14.8c-1.3,0-2.3-1-2.3-2.3v-14.8c0-1.3,1-2.3,2.3-2.3h14.8c1.3,0,2.3,1,2.3,2.3v14.8
								C240.2,209.6,239.2,210.7,237.9,210.7z"/>
							<path class="st6" d="M265.5,210.7h-14.8c-1.3,0-2.3-1-2.3-2.3v-14.8c0-1.3,1-2.3,2.3-2.3h14.8c1.3,0,2.3,1,2.3,2.3v14.8
								C267.9,209.6,266.8,210.7,265.5,210.7z"/>
							<path class="st6" d="M293.2,210.7h-14.8c-1.3,0-2.3-1-2.3-2.3v-14.8c0-1.3,1-2.3,2.3-2.3h14.8c1.3,0,2.3,1,2.3,2.3v14.8
								C295.5,209.6,294.5,210.7,293.2,210.7z"/>
						</g>
						<g>
							<path class="st6" d="M154.8,236.7h-14.8c-1.3,0-2.3-1-2.3-2.3v-14.8c0-1.3,1-2.3,2.3-2.3h14.8c1.3,0,2.3,1,2.3,2.3v14.8
								C157.2,235.7,156.1,236.7,154.8,236.7z"/>
							<path class="st6" d="M182.5,236.7h-14.8c-1.3,0-2.3-1-2.3-2.3v-14.8c0-1.3,1-2.3,2.3-2.3h14.8c1.3,0,2.3,1,2.3,2.3v14.8
								C184.8,235.7,183.8,236.7,182.5,236.7z"/>
							<path class="st6" d="M210.2,236.7h-14.8c-1.3,0-2.3-1-2.3-2.3v-14.8c0-1.3,1-2.3,2.3-2.3h14.8c1.3,0,2.3,1,2.3,2.3v14.8
								C212.5,235.7,211.5,236.7,210.2,236.7z"/>
							<path class="st6" d="M237.9,236.7h-14.8c-1.3,0-2.3-1-2.3-2.3v-14.8c0-1.3,1-2.3,2.3-2.3h14.8c1.3,0,2.3,1,2.3,2.3v14.8
								C240.2,235.7,239.2,236.7,237.9,236.7z"/>
							<path class="st6" d="M265.5,236.7h-14.8c-1.3,0-2.3-1-2.3-2.3v-14.8c0-1.3,1-2.3,2.3-2.3h14.8c1.3,0,2.3,1,2.3,2.3v14.8
								C267.9,235.7,266.8,236.7,265.5,236.7z"/>
							<path class="st6" d="M293.2,236.7h-14.8c-1.3,0-2.3-1-2.3-2.3v-14.8c0-1.3,1-2.3,2.3-2.3h14.8c1.3,0,2.3,1,2.3,2.3v14.8
								C295.5,235.7,294.5,236.7,293.2,236.7z"/>
						</g>
						<g>
							<path class="st6" d="M154.8,262.8h-14.8c-1.3,0-2.3-1-2.3-2.3v-14.8c0-1.3,1-2.3,2.3-2.3h14.8c1.3,0,2.3,1,2.3,2.3v14.8
								C157.2,261.8,156.1,262.8,154.8,262.8z"/>
							<path class="st6" d="M182.5,262.8h-14.8c-1.3,0-2.3-1-2.3-2.3v-14.8c0-1.3,1-2.3,2.3-2.3h14.8c1.3,0,2.3,1,2.3,2.3v14.8
								C184.8,261.8,183.8,262.8,182.5,262.8z"/>
							<path class="st6" d="M210.2,262.8h-14.8c-1.3,0-2.3-1-2.3-2.3v-14.8c0-1.3,1-2.3,2.3-2.3h14.8c1.3,0,2.3,1,2.3,2.3v14.8
								C212.5,261.8,211.5,262.8,210.2,262.8z"/>
							<path class="st6" d="M237.9,262.8h-14.8c-1.3,0-2.3-1-2.3-2.3v-14.8c0-1.3,1-2.3,2.3-2.3h14.8c1.3,0,2.3,1,2.3,2.3v14.8
								C240.2,261.8,239.2,262.8,237.9,262.8z"/>
							<path class="st6" d="M265.5,262.8h-14.8c-1.3,0-2.3-1-2.3-2.3v-14.8c0-1.3,1-2.3,2.3-2.3h14.8c1.3,0,2.3,1,2.3,2.3v14.8
								C267.9,261.8,266.8,262.8,265.5,262.8z"/>
							<path class="st6" d="M293.2,262.8h-14.8c-1.3,0-2.3-1-2.3-2.3v-14.8c0-1.3,1-2.3,2.3-2.3h14.8c1.3,0,2.3,1,2.3,2.3v14.8
								C295.5,261.8,294.5,262.8,293.2,262.8z"/>
						</g>
					</g>
					<g>
						<path class="st7" d="M144.8,145.6c0,2-1.6,3.5-3.5,3.5s-3.5-1.6-3.5-3.5c0-2,1.6-3.5,3.5-3.5S144.8,143.6,144.8,145.6z"/>
						<circle class="st7" cx="171.3" cy="145.6" r="3.5"/>
						<circle class="st7" cx="201.4" cy="145.6" r="3.5"/>
						<path class="st7" d="M235,145.6c0,2-1.6,3.5-3.5,3.5c-2,0-3.5-1.6-3.5-3.5c0-2,1.6-3.5,3.5-3.5
							C233.4,142.1,235,143.6,235,145.6z"/>
						<path class="st7" d="M265.1,145.6c0,2-1.6,3.5-3.5,3.5c-2,0-3.5-1.6-3.5-3.5c0-2,1.6-3.5,3.5-3.5
							C263.5,142.1,265.1,143.6,265.1,145.6z"/>
						<path class="st7" d="M295.2,145.6c0,2-1.6,3.5-3.5,3.5c-2,0-3.5-1.6-3.5-3.5c0-2,1.6-3.5,3.5-3.5
							C293.6,142.1,295.2,143.6,295.2,145.6z"/>
					</g>
					<g>
						<line class="st8" x1="141.2" y1="145.6" x2="141.2" y2="129"/>
					</g>
					<g>
						<line class="st8" x1="171.3" y1="145.6" x2="171.3" y2="129"/>
					</g>
					<g>
						<line class="st8" x1="201.4" y1="145.6" x2="201.4" y2="129"/>
					</g>
					<g>
						<line class="st8" x1="261.6" y1="145.6" x2="261.6" y2="129"/>
					</g>
					<g>
						<line class="st8" x1="231.5" y1="145.6" x2="231.5" y2="129"/>
					</g>
					<g>
						<line class="st8" x1="291.7" y1="145.6" x2="291.7" y2="129"/>
					</g>
				</g>
			</g>
		</g>
		<g>
			<defs>
				<path id="SVGID_1_" d="M330.3,229.4c-0.4,24.4-6.6,51.3-26.7,65.3c-12.3,8.6-27.8,10.9-42.7,12.3
					c-75.1,7.1-155.3-3.7-215.5-49.1c-10.6-8-21.1-18.1-22.5-31.2c-1.1-9.5,2.8-18.8,7.5-27.2c9.1-16.4,21.5-30.7,34.3-44.4
					c31.3-33.2-15.1-95.6,22.7-121c18.6-12.5,135.9-9.5,159.9-3.4c12.6,3.2,20.7,15,27.3,26.2C305.7,109.6,331.3,168.2,330.3,229.4z
					"/>
			</defs>
			<clipPath id="SVGID_2_">
				<use xlink:href="#SVGID_1_"  style="overflow:visible;"/>
			</clipPath>
			<g class="st9">
				<g>
					<path class="st10" d="M181.5,170.4c-0.5,1.2-1.8,3.2-3.7,5.7c-0.4,0.5-0.8,1.1-1.3,1.7c-0.2,0.3-0.5,0.6-0.7,0.9
						c0,0-0.1,0.1-0.1,0.1l0,0c-0.1,0.2-0.3,0.4-0.4,0.6c-0.1,0.1-0.1,0.1-0.2,0.2c-0.2,0.3-0.5,0.6-0.8,0.9c-0.4,0.5-0.8,1-1.2,1.5
						c-0.7,0.8-1.3,1.6-2,2.4c-2,2.3-4.1,4.7-6.1,7l0,0c-0.4,0.5-0.9,1-1.3,1.5c-0.4,0.4-0.8,0.9-1.2,1.3c-0.5,0.6-1.1,1.2-1.6,1.8
						c-0.2,0.2-0.3,0.4-0.5,0.6c-0.8,0.9-1.6,1.7-2.3,2.5c-0.2,0.2-0.3,0.3-0.5,0.5c-1,1.1-1.9,2.1-2.7,2.9c-0.4,0.4-0.7,0.8-1,1.1
						c-0.2,0.3-0.5,0.5-0.7,0.7c-0.1,0.1-0.2,0.2-0.3,0.3c-1,1.1-1.6,1.8-1.8,1.9c0,0,0,0,0,0c0,0,0,0,0,0s-0.8,1.9-2.2,5.1
						c-0.1,0.3-0.3,0.6-0.4,0.9c-0.2,0.4-0.3,0.8-0.5,1.2c-0.2,0.3-0.3,0.7-0.5,1c-0.1,0.3-0.3,0.6-0.4,0.9
						c-0.1,0.1-0.1,0.3-0.2,0.4c0,0.1-0.1,0.2-0.1,0.3c-0.1,0.3-0.3,0.6-0.4,0.9c-0.1,0.3-0.3,0.6-0.4,0.9c0,0.1-0.1,0.1-0.1,0.2
						c-0.2,0.3-0.3,0.7-0.5,1.1c-0.1,0.3-0.2,0.5-0.4,0.8c-0.1,0.3-0.3,0.6-0.5,1c0,0.1-0.1,0.2-0.1,0.3c-0.2,0.4-0.3,0.7-0.5,1.1
						c-0.1,0.3-0.3,0.6-0.4,0.9c-1.5,3.1-3.1,6.4-4.9,9.8c-1.2,2.4-2.5,4.9-3.9,7.3c-4.3,7.8-9.1,15.4-13.9,20.8
						c-11.1,12.5-28.2,13-31.9,13.4c-1.8,0.2-7.3,7-12.7,14.1l-36.9-15.5l4.9-9.7c0,0,2.9-12,9.1-37.4l0,0c0,0,0,0,0-0.1
						c1.5-6,3.5-12.8,5.8-19.8c0.4-1.3,0.9-2.7,1.4-4l0,0c0.4-1.3,0.9-2.6,1.4-3.9c7.1-19.7,16.1-39.2,22.8-46.4
						c0.3-0.3,0.6-0.6,0.9-0.9c0.1-0.1,0.3-0.2,0.4-0.3c0.1-0.1,0.3-0.2,0.4-0.3c0.9-0.6,2-1.2,3.2-1.8c0,0,0,0,0.1,0
						c0.6-0.3,1.2-0.6,1.8-0.8l0.5-0.2c2.2-0.9,4.8-1.7,7.6-2.5c0.6-0.2,1.3-0.4,2-0.5c2.5-0.7,5.1-1.3,7.9-1.9
						c2.9-0.7,6-1.3,9.1-1.9c0,0,0,0,0.1,0c0,0,0,0,0,0c0.1,0,0.2,0,0.4-0.1c0.4-0.1,0.7-0.1,1.1-0.2c1.3-0.3,2.7-0.5,4-0.8
						c0.3-0.1,0.6-0.1,0.9-0.2c0,0,0,0,0,0c0.2,0,0.5-0.1,0.7-0.1c0.3-0.1,0.7-0.1,1-0.2c0.2,0,0.4-0.1,0.6-0.1
						c0.3-0.1,0.7-0.1,1-0.2c0.5-0.1,0.9-0.2,1.4-0.3c0.5-0.1,1.1-0.2,1.6-0.3c1.1-0.2,2.1-0.4,3.2-0.6c0.4-0.1,0.9-0.2,1.3-0.2
						c0.3,0,0.5-0.1,0.8-0.2c0.1,0,0.2,0,0.3-0.1c0.5-0.1,1-0.2,1.6-0.3c2.5-0.5,4.8-1,7.2-1.5l0,0c1.3-0.3,2.5-0.5,3.8-0.8
						c0.3-0.1,0.5-0.1,0.8-0.2c0.3-0.1,0.6-0.1,0.8-0.2c0,0,0,0,0,0c0,0,0,0,0,0c0.7-0.2,1.3-0.3,1.9-0.5c0.8-0.2,1.6-0.4,2.4-0.6
						c0.3-0.1,0.6-0.2,0.9-0.2c0.2,0,0.3-0.1,0.5-0.1c0.4-0.1,0.7-0.2,1-0.3c1.3-0.4,2.5-0.7,3.6-1.1c0.2-0.1,0.4-0.1,0.6-0.2
						c0.2-0.1,0.4-0.2,0.7-0.2c0.2-0.1,0.4-0.2,0.6-0.2c0,0,0.1,0,0.1,0c0.2-0.1,0.3-0.1,0.5-0.2c0.8-0.3,1.4-0.6,2.1-1
						c0.2-0.1,0.3-0.2,0.5-0.2c0.1-0.1,0.3-0.2,0.4-0.2c5.6-3.4,9.8-5.3,12.6-5.8c0.9-0.2,1.6-0.2,2.3-0.2c2.3,0.2,2.9,1.9,1.9,4.9
						c-0.4,1.3-1.5,2.8-2.9,4.5c-0.8,0.9-1.6,1.8-2.5,2.7c-5.9,6-14.5,12.6-15.1,13c0.6-0.3,7.8-3.9,14.3-6.2
						c0.8-0.3,1.6-0.5,2.3-0.7c1-0.3,2-0.5,2.9-0.7c3.1-0.6,5.5-0.3,5.7,1.6c0.9,6.5-6.2,14.1-6.2,14.1S184.2,163.7,181.5,170.4z"/>
					<path class="st11" d="M177.8,176.1c-3.3,4.3-8.1,10-12.8,15.3l0,0c-7.1,8-13.9,15.2-13.9,15.2s-1.9,4.7-5.1,11.6
						c-0.7,1.6-1.6,3.4-2.4,5.2c-15.2,1-37.8,2.2-46.1,1.7c-1.6-0.1-2.7-0.3-3.1-0.5c-0.9-0.6-2.2-4.8-3.4-10.5
						c-2-9.2-4.1-22.3-5.4-30.7c-0.7-4.8-1.2-8.1-1.2-8.1l1.4-24.1c1.1-0.9,2.4-1.7,4.1-2.5c4.8-2.3,11.8-4.2,19.7-6
						c21-4.7,48.4-8.3,57.1-13.6c13.6-8.2,18.9-7.5,16.8-1.2c-2,6.2-19.7,19.6-20.5,20.2c0.7-0.4,12.3-6.2,19.6-7.6L177.8,176.1z"/>
					<path class="st12" d="M181.7,157c-0.5,0.6-1,1-1.6,1.4c-0.6,0.4-1.2,0.7-2,0.9c0.5-0.6,1-1,1.6-1.4
						C180.4,157.5,181,157.2,181.7,157z"/>
					<path class="st13" d="M165,191.4L165,191.4c-7.1,8-13.9,15.2-13.9,15.2s-1.9,4.7-5.1,11.6c-11.6-0.3-38.9-1.1-47.8-1.7
						c-0.3,0-0.6,0-0.8-0.1c-2.4-0.2-4.6-1-6.5-2.3c-4.7-3-7.5-8.5-6.9-14.4l1.4-14.1l0.1-2.2l1.4-23.1c0.2-4.1,1.3-8,3-11.6
						c4.8-2.3,11.8-4.2,19.7-6L165,191.4z"/>
					<g>
						<g>
							
								<linearGradient id="SVGID_3_" gradientUnits="userSpaceOnUse" x1="-491.6621" y1="420.3072" x2="-400.4581" y2="420.3072" gradientTransform="matrix(0.9944 0.1057 -0.1057 0.9944 624.7496 -244.7099)">
								<stop  offset="0" style="stop-color:#BDBDBD"/>
								<stop  offset="2.930731e-02" style="stop-color:#C5C5C5"/>
								<stop  offset="0.1372" style="stop-color:#DFDFDF"/>
								<stop  offset="0.2492" style="stop-color:#F1F1F1"/>
								<stop  offset="0.367" style="stop-color:#FBFBFB"/>
								<stop  offset="0.5" style="stop-color:#FFFFFF"/>
								<stop  offset="0.618" style="stop-color:#F9F9F9"/>
								<stop  offset="0.7719" style="stop-color:#E9E9E9"/>
								<stop  offset="0.9451" style="stop-color:#CECECE"/>
								<stop  offset="1" style="stop-color:#C4C4C4"/>
							</linearGradient>
							<path class="st14" d="M115.6,36.4c-6.3-0.7-12,3.9-12.6,10.2L87,196.7c-0.7,6.3,3.9,12,10.2,12.6l60.8,6.5
								c6.3,0.7,12-3.9,12.6-10.2l15.9-150.1c0.7-6.3-3.9-12-10.2-12.6L115.6,36.4z"/>
							<g>
								<defs>
									<path id="SVGID_4_" d="M115.6,36.4c-6.3-0.7-12,3.9-12.6,10.2L87,196.7c-0.7,6.3,3.9,12,10.2,12.6l60.8,6.5
										c6.3,0.7,12-3.9,12.6-10.2l15.9-150.1c0.7-6.3-3.9-12-10.2-12.6L115.6,36.4z"/>
								</defs>
								<clipPath id="SVGID_5_">
									<use xlink:href="#SVGID_4_"  style="overflow:visible;"/>
								</clipPath>
								<g class="st15">
									<defs>
										
											<rect id="SVGID_6_" x="31.1" y="31" transform="matrix(0.9944 0.1057 -0.1057 0.9944 13.6187 -12.3496)" width="184.4" height="182.7"/>
									</defs>
									<clipPath id="SVGID_7_">
										<use xlink:href="#SVGID_6_"  style="overflow:visible;"/>
									</clipPath>
									
										<rect x="83.5" y="32.4" transform="matrix(0.9944 0.1057 -0.1057 0.9944 14.1254 -13.6674)" class="st16" width="105.2" height="188.2"/>
								</g>
							</g>
							
								<linearGradient id="SVGID_8_" gradientUnits="userSpaceOnUse" x1="-491.7904" y1="397.9663" x2="-490.1265" y2="397.9663" gradientTransform="matrix(0.9944 0.1057 -0.1057 0.9944 624.7496 -244.7099)">
								<stop  offset="0" style="stop-color:#BDBDBD"/>
								<stop  offset="5.861461e-02" style="stop-color:#C5C5C5"/>
								<stop  offset="0.2744" style="stop-color:#DFDFDF"/>
								<stop  offset="0.4985" style="stop-color:#F1F1F1"/>
								<stop  offset="0.7341" style="stop-color:#FBFBFB"/>
								<stop  offset="1" style="stop-color:#FFFFFF"/>
							</linearGradient>
							<path class="st17" d="M94.5,106.7L94.5,106.7l1.6-14.8l0,0c-0.9-0.1-1.7,0.6-1.8,1.5L93,104.9
								C92.9,105.8,93.6,106.6,94.5,106.7z"/>
							<path class="st18" d="M96.6,86.3L96.6,86.3l1.6-14.8l0,0c-0.9-0.1-1.7,0.6-1.8,1.5l-1.2,11.6C95.1,85.4,95.7,86.2,96.6,86.3z
								"/>
							<path class="st18" d="M98.3,60.7l0.6,0.1c0.3,0,0.6-0.2,0.6-0.5l0-0.2c0-0.3-0.2-0.6-0.5-0.6l-0.6-0.1
								c-0.3,0-0.6,0.2-0.6,0.5l0,0.2C97.7,60.4,98,60.7,98.3,60.7z"/>
							<path class="st18" d="M98.9,54.9l0.6,0.1c0.3,0,0.6-0.2,0.6-0.5l0-0.2c0-0.3-0.2-0.6-0.5-0.6L99,53.6c-0.3,0-0.6,0.2-0.6,0.5
								l0,0.2C98.4,54.6,98.6,54.9,98.9,54.9z"/>
							<path class="st19" d="M164.6,49.3l-39-4.1c-1.8-0.2-3.2-1.6-3.5-3.4c-0.1-0.8-0.4-1.5-0.8-2.2l-0.5-0.8l49.8,5.3l-0.7,0.7
								c-0.5,0.5-0.9,1.2-1.2,1.9C168.1,48.5,166.5,49.5,164.6,49.3z"/>
							<g>
								<path class="st20" d="M115.6,36.4c-6.3-0.7-12,3.9-12.6,10.2L87,196.7c-0.7,6.3,3.9,12,10.2,12.6l60.8,6.5
									c6.3,0.7,12-3.9,12.6-10.2l15.9-150.1c0.7-6.3-3.9-12-10.2-12.6L115.6,36.4z"/>
							</g>
							<path class="st21" d="M157.4,217.5l-60.1-6.4c-7.7-0.8-13.3-7.8-12.5-15.5l15.8-148.5c0.8-7.7,7.8-13.3,15.5-12.5l60.1,6.4
								c7.7,0.8,13.3,7.8,12.5,15.5L172.9,205C172.1,212.7,165.1,218.3,157.4,217.5z"/>
						</g>
					</g>
					<path class="st10" d="M126.5,183.8c-5,1-8,1.5-9.8,1.7c-1.8,0.2-3.6,0.7-5.3,1.6c-0.1,0-0.1,0.1-0.2,0.1
						c-4.4,2.3-12.4,6.7-14.3,9.8c-1.4,2.1-1,6.7-0.4,12.3c0.1,0.6,0.1,1.2,0.2,1.8c0.1,0.6,0.1,1.2,0.2,1.8
						c0.1,1.1,0.2,2.3,0.3,3.5c0.2,2.9,0.4,5.8,0.3,8.7c0,0.3,0,0.6,0,1c0,1.1-0.1,2.1-0.2,3.2c-0.1,1.4-0.3,2.8-0.6,4.2
						c-1.9,11.3-6.8,21.6-19.2,24.6l-18.2,23.7l-40.4-17c11.8-8.2,25-18.3,30.8-26.1c0,0,1.5-5.1,3.9-12.3c0,0,0-0.1,0-0.1
						c1.8-5.4,4.2-12,6.8-18.6c1-2.5,2-4.9,3.1-7.4c4.2-9.4,8.9-17.7,13.4-21.3c0,0,2.2-2.3,7.5-3.6c0.5-0.1,1.1-0.3,1.7-0.4
						c0.3-0.1,0.7-0.1,1-0.2c0,0,0,0,0,0c0.7-0.1,1.5-0.2,2.3-0.2c0.5,0,0.9-0.1,1.4-0.1c9.9-0.3,25.5-6.2,27.6-5.3
						c1.4,0.7,6.3,2.6,10.4,4c1.7,0.6,3.3,1.1,4.4,1.3c1,0.2,1.7,1.1,1.9,2.3c0.1,0.5,0,1.1-0.2,1.7
						C134,180.6,131.7,182.8,126.5,183.8z"/>
					<g>
						<path class="st22" d="M87.1,174.8c-1.7-0.1-3.4,0.2-5.1,0.6c-1.6,0.4-3.2,1.1-4.7,2c-1.4,0.9-2.8,1.9-3.9,3.2
							c-0.6,0.6-1.1,1.3-1.6,1.9c-0.5,0.7-1,1.4-1.4,2.1c-1.9,2.9-3.6,5.8-5.2,8.9c-0.8,1.5-1.6,3-2.4,4.6c-0.8,1.5-1.5,3.1-2.2,4.7
							c1-3.3,2.4-6.5,3.9-9.6c1.5-3.1,3.2-6.1,5.1-9c0.4-0.7,1-1.4,1.5-2.1c0.5-0.7,1.1-1.3,1.7-2c1.3-1.2,2.6-2.3,4.2-3.2
							C80.1,175.1,83.6,174.3,87.1,174.8z"/>
					</g>
					<g>
						<path class="st22" d="M96.8,212.9c1.1,4.8,1.5,9.8,1.2,14.7c-0.2,4.9-1.1,9.8-2.5,14.6c-0.4,1.2-0.8,2.3-1.3,3.5
							c-0.5,1.1-1,2.3-1.6,3.4l-0.9,1.6l-1,1.6c-0.6,1.1-1.4,2.1-2.1,3c-3.1,3.9-6.7,7.3-11,9.7c2-1.4,3.9-2.9,5.6-4.7
							c1.7-1.7,3.4-3.5,4.8-5.5c2.8-3.9,5.1-8.3,6.5-13c1.5-4.6,2.4-9.5,2.7-14.3c0.2-2.4,0.2-4.9,0.2-7.3
							C97.4,217.8,97.2,215.3,96.8,212.9z"/>
					</g>
					<path class="st11" d="M134.7,178.6c-1.6-0.2-4.1-0.8-5.2-2.3c-1.3-1.6-1-2.7-0.8-3.1c1.7,0.6,3.3,1.1,4.4,1.3
						C134.4,174.8,135.4,176.6,134.7,178.6z"/>
				</g>
				<path class="st4" d="M144.4,107.7l2.8-25.6l-8.7-0.9l-3.6,33l1.5,0.2C140.5,114.8,144,111.7,144.4,107.7z"/>
				<path class="st4" d="M152.6,88.2l-1.1,10.2c0.2,0.1,0.5,0.3,0.7,0.4c5.1,4.1,8.1,10.7,7.3,17.7c-1.2,10.6-10.4,18.4-21,17.8
					c-0.3,0-0.7,0-1-0.1c-0.9-0.1-1.9-0.3-2.8-0.5c0,0-0.1,0-0.1,0c-0.3-0.1-0.6-0.2-0.9-0.3c0,0,0,0,0,0c0,0,0,0,0,0
					c-0.3-0.1-0.6-0.2-0.9-0.3c0,0,0,0,0,0c-0.3-0.1-0.6-0.2-0.9-0.3c0,0,0,0,0,0c-0.2-0.1-0.5-0.2-0.7-0.3c0.2,0.1,0.5,0.2,0.7,0.3
					c-8-3.3-13.1-11.6-12.2-20.6c0.8-7,4.8-12.8,10.7-15.7c0.2-0.1,0.4-0.2,0.4-0.3L132,86c-11.4,3-20.2,12.7-21.6,25.2
					c-1.7,16,9.9,30.5,26,32.2s30.4-9.9,32.1-25.9C169.9,105,163,93.6,152.6,88.2z"/>
			</g>
		</g>
	</g>
</g>
</svg>
