<?xml version="1.0" encoding="utf-8"?>
<!-- Generator: Adobe Illustrator 24.1.0, SVG Export Plug-In . SVG Version: 6.00 Build 0)  -->
<svg version="1.1" xmlns="http://www.w3.org/2000/svg" xmlns:xlink="http://www.w3.org/1999/xlink" x="0px" y="0px"
	 viewBox="0 0 353 337.5" style="enable-background:new 0 0 353 337.5;" xml:space="preserve">
<style type="text/css">
	.st0{fill:#CBE6F9;}
	.st1{fill:#283996;}
	.st2{fill:#999999;}
	.st3{fill:#3950B2;}
	.st4{fill:#172B7F;}
	.st5{fill:#081651;}
	.st6{fill:#CCCCCC;}
</style>
<g id="Livello_1">
</g>
<g id="Contattaci">
</g>
<g id="cosa_x27_altro_devi_sapere">
</g>
<g id="Come_funziona">
	<g>
		<path class="st0" d="M330.3,230.1c-0.4,24.4-6.6,51.3-26.7,65.3c-12.3,8.6-27.8,10.9-42.7,12.3c-75.1,7.1-155.3-3.7-215.5-49.1
			c-10.6-8-21.1-18.1-22.5-31.2c-1.1-9.5,2.8-18.8,7.5-27.2c9.1-16.4,21.5-30.7,34.3-44.4C96,122.6,131,93,168.8,67.5
			c18.6-12.5,54.6-42.2,78.5-36.2c12.6,3.2,20.7,15,27.3,26.2C305.7,110.3,331.3,168.9,330.3,230.1z"/>
		<g>
			<path class="st1" d="M278.5,183.3c-6.6,15-16.9,28.3-28.9,39.4c-4.8,4.4-10,8.5-15.8,11.6c-7.8,4.1-16.4,6.3-25.1,7.8
				c-0.1,0-0.1,0-0.2,0c-25.4,4.5-52,4.1-76.6-3.5c-4.5-1.4-9.1-3.1-12.8-5.9c-3.1-2.4-4.6-5.2-6.4-8.5c-1.6-3-4.1-6-6.1-8.9
				c-7.5-11-19.2-18.8-25.4-30.5c-0.9-1.8-1.8-4-0.9-5.8c0.5-1.1,1.5-1.9,2.5-2.6c4.8-3.2,10.4-4.9,15.7-7.1
				c5.3-2.2,10.6-5.1,13.7-10c3.3-5.2,0.7-10.4-0.6-15.8c-1.5-6.1-3-12.2-3.6-18.5c-0.5-4.6-1.4-9.9,1.4-13.8c3-4.3,7-7.8,11.4-10.6
				c5.5-3.5,11.7-6,17.9-8c2.9-0.9,5.8-1.8,8.7-2.5c7.9-2,16-3.4,24.1-4c30.4-2.4,67.4,4.3,91.2,24.9c1,0.9,2,1.8,3,2.7
				c7.5,7.2,14.7,16.1,17.2,26.4C286.3,154.7,284.5,169.7,278.5,183.3z"/>
			<path class="st2" d="M278.5,183.3c-6.6,15-16.9,28.3-28.9,39.4c-4.8,4.4-10,8.5-15.8,11.6c-7.8,4.1-16.4,6.3-25.1,7.8
				c-1.4-1.6-2.6-3.3-3.3-5.3c16-7.7,31.3-17.4,43.6-30.2c12.4-12.8,21.7-28.9,24.7-46.4c0.8-4.6,1.1-9.3,0.9-13.9
				c-0.3-8.3-2.1-16.6-5.5-24.1c-1.7-3.8-3.9-7.2-6.2-10.7c-0.1-0.1-0.2-0.3-0.2-0.4c1,0.9,2,1.8,3,2.7c7.5,7.2,14.7,16.1,17.2,26.4
				C286.3,154.7,284.5,169.7,278.5,183.3z"/>
			<path class="st3" d="M134.1,108.9c5.8,1.4,11.5,4.2,15.2,8.8c3.3,4.1,5.4,9.7,10.3,11.3c3,1,6.2,0.2,9.3-0.6c7.8-2,15.5-4,23.3-6
				c10.7-2.8,21.6-5.5,32.6-5.2c5.7,0.2,11.4,1.2,16.9,2.9c3.1,1,5.9,1.6,9.2,1.3c1.9-0.2,5.4-0.4,6.4-2.2c0.4-0.6,0.4-1.4,0.4-2.1
				c-0.2-3.9-2.5-7.4-5.4-9.9c-2.9-2.6-6.4-4.3-9.9-5.9c-7.6-3.5-15.4-6.8-23.6-9.1c-7.5-2.2-15.1-2.4-22.8-3.4
				c-8-1-16-1.5-24.1-0.9c-10.8,0.8-21.5,3.1-31.5,7.3c-5.5,2.3-11,5.1-15,9.6c-0.5,0.6-1,1.2-0.9,2
				C124.9,108.1,132.7,108.6,134.1,108.9z"/>
			<path class="st4" d="M65.1,145.8c5.1,4.6,9.5,9.9,13.5,15.5c2.3-7,1.3-15.3-3.7-20.7c-4.6-4.9-11.5-6.7-18.1-8
				c-2.8-0.5-5.5-1-8.3-1.3c-1.6-0.2-3.2-0.3-4.8-0.3c-0.9,0-1.7-0.2-2.6-0.2c-1.2,0-2.3,0.1-3.5,0.1c3.7,2.9,8.3,3.7,12.6,5.4
				c2.6,1.1,5.2,2.4,7.6,3.9C60.3,141.8,62.8,143.7,65.1,145.8z"/>
			<path class="st3" d="M78.3,145.3c-2.1-4.5-6.6-7.6-11.4-9.2c-4.8-1.6-9.8-2-14.8-2.4c-5-0.4-10.1-1-14.7-3
				c19.7-1.9,39.7-3.9,58.2-10.8c-3.7,3.8-6,8.8-7.5,13.9c-1.6,5.1-2.5,10.4-4.2,15.5c-0.4,1.4-2.1,4.3-3.7,2.4
				c-0.6-0.7-0.6-2.1-0.8-2.9C79.2,147.5,78.8,146.4,78.3,145.3z"/>
			<path class="st1" d="M152.7,158.5c-1.4,6-3.2,12.1-6.2,17.5c-1.8,3.2-4,6.2-6.2,9.2c-4.5,6.1-9.3,12.5-15.6,16.6
				c-1.1,0.7-2.2,1.3-3.4,1.9c-2.2,1-4.5,1.8-6.9,2c-0.3,0-0.6,0.1-0.9,0.1c-2.5,0.1-5-0.3-7.4-0.7c-1.4-0.2-2.9-0.5-4.2-1.2
				c-3.3-1.7-4.8-5.5-7.3-8.2c-2.8-3.1-6.8-4.7-10.3-7.1c-4.6-3.2-8.1-7.7-10.2-12.8c-2.1-5.2-2.1-10.8-2-16.4
				c0.1-4.5,0.7-9,2.1-13.4c0.5-1.7,1.1-3.4,1.8-5.1c2.1-5.1,5.1-9.9,8.8-14c3.2-3.5,6.9-6.6,10.8-9.3c3-2.1,6.2-3.9,9.5-5.3
				c7.3-2.9,15.4-3.2,23.1-1.5c3.1,0.7,6.1,1.7,8.9,2.9c5.3,2.3,9,4.9,12.1,9.8c3,4.8,4.8,10.2,5.4,15.7
				C155.2,145.7,154.1,152.2,152.7,158.5z"/>
			<path class="st3" d="M84.6,128.6c-1.5,1.7-2.9,3.4-4,5.4c-1.1,1.8-2,3.7-2.8,5.7c-2.2,5.5-5.2,18,3.5,19.7
				c3.8,0.8,7.2-2.1,10.6-4c1.7-1,3.5-1.7,5.4-2.2c1-0.2,2-0.4,2.8-1.1c0.9-0.7,1.4-1.8,1.6-3c0.8-4.1-1.1-8.2-1.9-12.3
				c-1.1-6.1,0.5-12.8,4.4-17.6c1-1.2,3.4-4.7,0.6-5.4c-1.8-0.5-4.5,1.6-6,2.5c-2.1,1.3-4.2,2.7-6.2,4.3
				C89.9,123.1,87.1,125.7,84.6,128.6z"/>
			<path class="st2" d="M124.6,201.8c-1.1,0.7-2.2,1.3-3.4,1.9c-2.2,1-4.5,1.8-6.9,2c-0.3,0-0.6,0.1-0.9,0.1c-2.5,0.1-5-0.3-7.4-0.7
				c-1.4-0.2-2.9-0.5-4.2-1.2c-3.3-1.7-4.8-5.5-7.3-8.2c-2.8-3.1-6.8-4.7-10.3-7.1c-4.6-3.2-8.1-7.7-10.2-12.8
				c-2.1-5.2-2.1-10.8-2-16.4c0.1-4.5,0.7-9,2.1-13.4c0.3,2.8-0.8,6.8-0.9,8.4c-0.2,4.5-0.7,8.4,0.7,12.8c1.3,4.1,3.4,7.8,5.8,11.3
				c3.4,5.1,7.5,9.8,12.2,13.7c3.2,2.6,6.4,5.2,10.1,6.9c4,1.8,8.4,2.3,12.8,2.6C118.1,201.8,121.4,201.9,124.6,201.8z"/>
			<path class="st5" d="M91.7,188.8c-3.3-2.1-7.6-2.8-10.2-5.8c0.9,1.4,1.8,2.7,3,3.7c1.2,1,2.8,1.6,4.2,2.2
				c1.6,0.6,3.2,1.4,4.8,1.8C93.5,189.9,92.4,189.2,91.7,188.8z"/>
			<path class="st2" d="M152.7,158.5c-1.4,6-3.2,12.1-6.2,17.5c-1.8,3.2-4,6.2-6.2,9.2c-5.3,7.2-10.9,14.6-19,18.4
				c-2.2,1-4.5,1.8-6.9,2c1.2-0.8,2.4-1.6,3.6-2.5c2.9-2.1,5.7-4.4,7.9-7.2c2.3-2.7,4-5.9,5.5-9c2.2-4.6,4.1-9.2,5.5-14.1
				c2.6-8.7,3.8-17.9,2.8-27c-1-8.6-5.1-15.9-8.5-23.8c-1.6-3.6-3.2-7.5-3.1-11.4c3.1,0.7,6.1,1.7,8.9,2.9c5.3,2.3,9,4.9,12.1,9.8
				c3,4.8,4.8,10.2,5.4,15.7C155.2,145.7,154.1,152.2,152.7,158.5z"/>
			<path class="st6" d="M114.1,194.9c1.6-1.3,3.6-2.2,5.6-2.1c2,0.1,4.1,1.3,4.9,3.1c0.4,0.9,0.5,1.9,0.6,2.9c0,1.2-0.1,2.4-0.7,3.4
				c-0.9,1.3-2.5,1.9-4.1,2.2c-3.3,0.7-6.7,1-10.1,0.9c-0.5,0-0.9-0.1-1.3-0.3c-2.1-1-0.8-4.2,0.4-5.4
				C111,198.2,112.4,196.3,114.1,194.9z"/>
			<path class="st4" d="M105.8,130.7c0.6-7.2-0.2-14.7,2.5-21.3c1.7-4.1,6.2-6.1,10.5-6.6c1.3-0.2,2.7-0.2,4,0.1
				c6.6,1.5,11.1,9.7,13,15.6c1.4,4.3,2.1,8.8,3.8,13c1.1,2.9,2.7,5.6,3.3,8.6c-6.4-1-13-3.2-19.3-1.7c-5.2,1.2-9.7,4.7-15,5.9
				c-1.3,0.3-3.5,0.8-4.7,0c-1.2-0.8-0.3-2.3,0-3.4C105,137.5,105.6,134.1,105.8,130.7z"/>
			<path class="st3" d="M110.5,126.1c0.3-3.1,0.7-6.2,1.3-9.3c0.6-2.8,1.2-6.2,3-8.5c1.6-2,4.3-2.5,6.7-2c1.8,0.4,3.4,1.2,4.7,2.4
				c2.2,2.2,3.3,5.6,4.5,8.4c1.3,3.3,2.6,6.6,3.7,10c0.8,2.3,1.5,4.7,2.2,7.1c0.5,1.7,0.2,3.2-1.9,3.3c-1.6,0.1-2.6-1-4.1-1.4
				c-1.4-0.4-3-0.4-4.4-0.3c-2.9,0.2-5.8,1-8.3,2.5c-1.7,1-3.2,2.4-5.2,2.8c-0.5,0.1-1.1,0.1-1.5-0.1c-0.8-0.4-0.8-1.1-0.8-1.9
				c0-3.6-0.3-7.2-0.1-10.9C110.4,127.4,110.5,126.7,110.5,126.1z"/>
			<path class="st3" d="M96,190.1c-1.7-3.7-3.8-7.2-7.4-9.1c-0.5-0.3-1.1-0.5-1.3-1c-0.7-1.7,4.3-1.5,5.1-1.7
				c0.3-0.1,0.7-0.2,0.9-0.5c0.4-0.6,0.2-1.5,0.7-2c0.3-0.3,0.9-0.3,1.4-0.2c0.5,0.1,0.9,0.4,1.4,0.4c1.3,0.2,2.5-0.8,3.4-1.7
				c0.7-0.6,1.5-1.3,2.4-1.2c2.1,0,2,4.5,2.3,5.9c1.4,5.8,3.4,11.4,5.5,16.9c0.8,2.1,1.6,4.3,2.4,6.4c-0.2-0.5-1.6,1.9-1.6,2
				c-2.1,2.9-7.1,1.1-9-1.2c-2.1-2.5-3.1-5.5-4.3-8.5C97.3,193.1,96.7,191.6,96,190.1z"/>
			<path class="st5" d="M106,204.3c1.1-0.1,2.1-0.1,3.2-0.4c1.3-0.3,2.5-1.1,3.6-1.9c0.3,0.6,0.1,1.3-0.2,1.8
				c-0.3,0.5-0.8,1-1.2,1.5c-0.3,0.4-0.5,0.9-0.6,1.4c0,0.1-0.1,0.3-0.1,0.4c-0.1,0.2-0.3,0.3-0.6,0.3c-0.7,0.1-1.4-0.4-2.1-0.7
				c-1.6-0.8-3.6-0.6-5-1.6c-0.6-0.4-1-1.3,0-1C104,204.4,104.9,204.4,106,204.3z"/>
			<path class="st5" d="M112.1,182.5c0.5-0.5,1.1-0.8,1.7-1.2c3.5-2.2,6.8-5.3,8.1-9.2c-0.6,1.6-1.2,3.3-1.8,4.9
				c-0.5,1.4-0.8,3-1.8,4.1c-0.8,0.9-1.9,1.3-2.9,1.8c-1.1,0.4-2.2,0.8-3.1,1.6c-0.7,0.6-1.4,1.6-1.2,2.5c-0.1-1.5-0.2-3,0.9-4.3
				C112,182.6,112,182.5,112.1,182.5z"/>
			<path class="st1" d="M242.3,209c-0.1,0.4-0.1,0.7-0.2,1.1c-0.2,1.4-0.5,2.8-0.8,4.1c-0.3,1.6-0.7,3.1-1.1,4.6
				c-0.1,0.2-0.1,0.5-0.2,0.7c-0.1,0.5-0.3,1-0.5,1.6c-1.5,4.8-3.5,9.4-6.7,13.4c0,0.1-0.1,0.1-0.1,0.2c-1.4,1.7-3,3.3-4.8,4.7
				c-0.2,0.1-0.4,0.3-0.6,0.4c-0.5,0.4-1.1,0.8-1.7,1.2c-0.3,0.2-0.6,0.4-0.9,0.6c-0.4,0.3-0.8,0.5-1.3,0.8
				c-0.4,0.3-0.9,0.5-1.3,0.8c-0.1,0.1-0.2,0.1-0.3,0.2c-0.4,0.2-0.7,0.4-1.1,0.6c-1.1,0.6-2.2,1.1-3.4,1.6
				c-0.6,0.2-1.1,0.4-1.7,0.6c-0.5,0.2-1,0.4-1.5,0.6c0,0,0,0,0,0c-0.5,0.2-1,0.3-1.5,0.5c-0.5,0.1-1,0.3-1.4,0.4
				c-0.7,0.2-1.4,0.4-2.1,0.6c-7.9,2-16.2,2.7-24.3,2.2c-7-0.4-13.9-1.7-20.6-3.7c-1.5-0.4-2.9-0.9-4.4-1.4
				c-9-3.1-17.6-7.5-25.6-12.8c-2.2-1.5-4.4-3-6.6-4.6c-6.1-4.5-12.6-9.4-12.7-17c0-1.5,0.2-3,0.7-4.7c1.8-6.2,7.6-10.3,11.7-14.8
				c9.8-10.6,14.1-24.9,19.6-38.3c5.5-13.4,13.3-27.1,26.5-32.8c5.3-2.3,10.7-3.1,15.9-2.6c4.8,0.4,9.3,1.8,13.7,4c0,0,0,0,0,0
				c2.7,1.3,5.2,2.9,7.6,4.8c3.4,2.6,6.5,5.6,9.2,8.9c1.8,2.2,3.6,4.5,5.2,6.9c1.5,2.2,3,4.4,4.4,6.7c0.3,0.4,0.5,0.9,0.8,1.3
				c0.1,0.1,0.1,0.2,0.2,0.4c0.2,0.3,0.4,0.7,0.6,1c0.4,0.7,0.8,1.4,1.2,2.1c0.4,0.7,0.8,1.5,1.2,2.2c0.4,0.7,0.7,1.5,1.1,2.2
				c0.4,0.7,0.7,1.5,1.1,2.2c0.4,0.9,0.9,1.8,1.3,2.8c0.4,0.9,0.8,1.9,1.2,2.8c0.5,1.2,0.9,2.3,1.4,3.5
				C244.6,182.1,244.6,195.7,242.3,209z"/>
			<path class="st2" d="M242.3,209c-0.1,0.4-0.1,0.7-0.2,1.1c-0.2,1.4-0.5,2.8-0.8,4.1c-0.3,1.6-0.7,3.1-1.1,4.6
				c-0.1,0.2-0.1,0.5-0.2,0.7c-0.1,0.5-0.3,1-0.5,1.6c-1.5,4.8-3.5,9.4-6.7,13.4c0,0.1-0.1,0.1-0.1,0.2c-1.4,1.7-3,3.3-4.8,4.7
				c-0.2,0.1-0.4,0.3-0.6,0.4c-0.5,0.4-1.1,0.8-1.7,1.2c-0.3,0.2-0.6,0.4-0.9,0.6c-0.4,0.3-0.8,0.5-1.3,0.8
				c-0.4,0.3-0.9,0.5-1.3,0.8c-0.1,0.1-0.2,0.1-0.3,0.2c-0.4,0.2-0.7,0.4-1.1,0.6c-1.1,0.6-2.2,1.1-3.4,1.6
				c-0.6,0.2-1.1,0.4-1.7,0.6c-0.5,0.2-1,0.4-1.5,0.6c0,0,0,0,0,0c-0.5,0.2-1,0.3-1.5,0.5c-0.5,0.1-1,0.3-1.4,0.4
				c-0.7,0.2-1.4,0.4-2.1,0.6c-7.9,2-16.2,2.7-24.3,2.2c-7-0.4-13.9-1.7-20.6-3.7c-3.1-1.7-6.2-3.4-9.4-5
				c-6.7-3.3-13.9-5.8-20.6-9.2c-0.7-0.3-1.4-0.7-2.1-1c-7.3-3.8-14.3-9-18.2-16.3c-0.8-1.5-1.5-3.1-1.2-4.7
				c0.7,0.1,1.5,0.3,2.2,0.5c6.7,1.4,13.3,3.7,19.9,5.7c21,6.5,42.5,11.1,64.3,13.8c2.8,0.4,5.6,0.7,8.4,0.2
				c8.8-1.5,14.1-9.7,17.7-17.1c4.3-8.7,6.8-18.2,7.4-27.9c1.4-25-11.7-47.4-29.5-63.9c1.5,1.3,3.6,2.2,5.2,3.2
				c0.8,0.5,1.6,1,2.4,1.6c3.4,2.6,6.5,5.6,9.2,8.9c1.8,2.2,3.6,4.5,5.2,6.9c1.5,2.2,3,4.4,4.4,6.7c0.3,0.4,0.5,0.9,0.8,1.3
				c0.1,0.1,0.1,0.2,0.2,0.4l0.2,0.4c0.1,0.2,0.2,0.4,0.4,0.6c0.4,0.7,0.8,1.4,1.2,2.1c0.4,0.7,0.8,1.5,1.2,2.2
				c0.4,0.7,0.7,1.5,1.1,2.2c0.4,0.7,0.7,1.5,1.1,2.2c0.4,0.9,0.9,1.8,1.3,2.8c0.4,0.9,0.8,1.9,1.2,2.8c0.5,1.2,0.9,2.3,1.4,3.5
				C244.6,182.1,244.6,195.7,242.3,209z"/>
			<path class="st1" d="M205.7,252.8c-10,5.3-21.7,7.1-33,6.7c-11.4-0.3-22.5-2.6-33.6-5.1c-7.9-1.8-15.7-4.3-23.4-6.6
				c-2.1-0.6-4.3-1.4-6.4-2.2c-0.4-0.1-0.9-0.3-1.3-0.5c-0.7-0.2-1.4-0.5-2.1-0.8c-0.5-0.2-0.9-0.4-1.4-0.6
				c-0.5-0.2-0.9-0.4-1.4-0.6c-0.6-0.2-1.2-0.5-1.8-0.8c-0.4-0.2-0.8-0.4-1.3-0.6c-0.5-0.3-1.1-0.5-1.6-0.8c-0.5-0.3-1-0.5-1.6-0.9
				c-0.5-0.3-1-0.5-1.5-0.8c-0.3-0.1-0.6-0.3-0.8-0.5c-0.7-0.4-1.3-0.8-2-1.2c0,0,0,0-0.1,0c-0.4-0.3-0.9-0.6-1.3-0.8
				c-2.7-1.8-5.4-3.7-7.9-5.8c-5.1-4.2-9.7-9.1-13.9-14.6c-4.6-6.1-8.4-13.2-10.6-20.6c-2.5-8.3-3.1-17.2-0.8-25.8
				c0.9-3.3,2.4-6.8,4.5-9.7c1.6-2.2,3.5-4.1,5.7-5.4c0.8-0.5,2.7-1.5,3.7-1.1c2,0.7,0.4,4.3,0.2,5.7c-0.3,3.3,0.6,6.5,1.6,9.6
				c1.2,3.6,2.8,6.9,4.7,10.1c6.2,10,15.5,17.7,25.5,23.8c5,3,10.4,5.2,15.6,7.8c6.2,3.2,12.4,6.3,18.8,9c7.7,3.3,15,5.8,23.2,7.5
				c4.9,1,9.9,2,14.9,2.8c3.3,0.5,6.5,1,9.8,1.4c4.9,0.6,9.8,1.1,14.6,2.4c3.5,0.9,7,2.3,9.3,5c0.8,1,1.4,2,1.7,2.9
				C213.5,246,210.2,250.5,205.7,252.8z"/>
			<path class="st3" d="M62.2,185.9c3.7,11,12.1,19.8,21.3,27c24.5,19.2,55.4,29,86.3,32.5c4.9,0.6,9.9,1,14.6-0.5
				c3.1-1,6.4-4.1,5.1-7.1c-0.8-1.7-2.7-2.5-4.5-3.1c-9.6-3.2-19.6-5.1-29.4-7.7c-13.6-3.6-26.9-8.5-39.6-14.5
				c-11.6-5.5-22.9-11-32-20.4c-0.8-0.8-1.6-1.7-2.4-2.5c-1.8-2-3.6-4-5-6.3c-3.2-5.1-4.6-11.1-5.3-17.1c-0.3-3-0.4-6-0.5-9
				c-0.1-3.6-1.9-2.7-3.8-0.5c-2.2,2.5-3.9,5.5-4.9,8.7C59.8,171.9,60,179.3,62.2,185.9z"/>
			<path class="st3" d="M157.5,140.1c-0.9,1.7-1.8,3.4-2.7,5c-5.2,10-8.1,21.2-13.9,30.9c-1.7,2.8-3.5,5.7-5.2,8.4
				c-1.7,2.8-3.8,4.8-4.6,8.1c-0.9,3.7-0.8,7.6,0.8,11.1c3.6,8,11.8,8.3,19.4,7.7c7.2-0.6,13.9-3.8,20-7.6
				c6.1-3.8,11.9-8.3,16.2-14.1c6.4-8.6,9.2-19.3,10.2-30c1-10,0.3-20.7-5.3-29.1c-4-6-11.8-9.4-19-7.7c-4.8,1.2-8.3,5-11,8.9
				C160.6,134.5,159,137.3,157.5,140.1z"/>
			<path class="st2" d="M205.7,252.8c-10,5.3-21.7,7.1-33,6.7c-11.4-0.3-22.5-2.6-33.6-5.1c-7.9-1.8-15.7-4.3-23.4-6.6
				c-2.1-0.6-4.3-1.4-6.4-2.2c-0.4-0.1-0.9-0.3-1.3-0.5c-0.7-0.2-1.4-0.5-2.1-0.8c-0.5-0.2-0.9-0.4-1.4-0.6
				c-0.5-0.2-0.9-0.4-1.4-0.6c-0.6-0.2-1.2-0.5-1.8-0.8c-0.4-0.2-0.8-0.4-1.3-0.6c-0.5-0.3-1.1-0.5-1.6-0.8c-0.5-0.3-1-0.5-1.6-0.9
				c-0.5-0.3-1-0.5-1.5-0.8c-0.3-0.1-0.6-0.3-0.8-0.5c-0.7-0.4-1.3-0.8-2-1.2c0,0,0,0-0.1,0c-0.4-0.3-0.9-0.6-1.3-0.8
				c-2.7-1.9-5.2-4-7.9-5.8c-5.1-4.2-9.7-9.1-13.9-14.6c-4.6-6.1-8.4-13.2-10.6-20.6c4.4,7.2,9.2,14.2,14.8,20.6
				c3.4,3.9,7.2,7.6,11.3,10.8c4,3.2,8.4,5.4,12.8,7.9c8.8,5.2,19.4,8.2,29.2,10.9c21.2,5.8,43.4,9.7,65,5.9
				c7.4-1.3,14.7-3.7,19.6-9.6c0.2-0.2,0.3-0.4,0.5-0.6C213.5,246,210.2,250.5,205.7,252.8z"/>
		</g>
	</g>
</g>
</svg>
