<?xml version="1.0" encoding="utf-8"?>
<!-- Generator: Adobe Illustrator 24.1.0, SVG Export Plug-In . SVG Version: 6.00 Build 0)  -->
<svg version="1.1" xmlns="http://www.w3.org/2000/svg" xmlns:xlink="http://www.w3.org/1999/xlink" x="0px" y="0px"
	 viewBox="0 0 353 337.5" style="enable-background:new 0 0 353 337.5;" xml:space="preserve">
<style type="text/css">
	.st0{fill:#CBE6F9;}
	.st1{fill:#218DE8;}
	.st2{fill:#283996;}
	.st3{fill:#36A2EA;}
	.st4{fill:#1778BA;}
	.st5{fill:#3C51AA;}
	.st6{fill:#E6E6E6;}
	.st7{fill:#F2F2F2;}
	.st8{fill:#102066;}
	.st9{fill:#61A4D6;}
	.st10{fill:#80B4E2;}
	.st11{fill:#A0CDEF;}
	.st12{fill:#182C7F;}
	.st13{opacity:0.68;fill:#80B4E2;}
	.st14{fill:#FFFFFF;}
</style>
<g id="Livello_1">
</g>
<g id="Contattaci">
</g>
<g id="cosa_x27_altro_devi_sapere">
</g>
<g id="Come_funziona">
	<g>
		<g>
			<path class="st0" d="M330.4,229.4c-0.4,24.4-6.6,51.3-26.7,65.3c-12.3,8.6-27.8,10.9-42.7,12.3c-75.1,7.1-155.3-3.7-215.5-49.1
				c-10.6-8-21.1-18.1-22.5-31.2c-1.1-9.5,2.8-18.8,7.5-27.2c9.1-16.4,21.5-30.7,34.3-44.4c31.3-33.2,66.3-62.8,104.1-88.3
				c18.6-12.5,54.6-42.2,78.5-36.2c12.6,3.2,20.7,15,27.3,26.2C305.8,109.6,331.4,168.2,330.4,229.4z"/>
		</g>
		<g>
			<g>
				<path class="st1" d="M213.9,55.3l-13.1,0.1c6.5-8.1,15.8-15.6,30.8-12.8C231.6,42.6,221.1,45.6,213.9,55.3z"/>
				<path class="st1" d="M223.4,55.5l-12.7-3.1c8.2-6.3,19.1-11.3,33-5C243.7,47.5,232.8,47.8,223.4,55.5z"/>
				<path class="st1" d="M206.8,56.3L194,59.3c4.6-9.3,12.1-18.7,27.3-19.2C221.3,40.1,211.8,45.3,206.8,56.3z"/>
				<path class="st1" d="M180.9,142.7c-4.5-4.6,6-90.2,14.3-91.3L216,58c0,0-5.7,64.9-9.5,72.1C202.7,137.2,184,145.9,180.9,142.7z"
					/>
				<path class="st2" d="M185,138.4c-4.5-4.6,5.5-84,13.8-85.1l20.2,5.2c0,0-5.6,58.5-9.4,65.6C205.8,131.4,188.1,141.6,185,138.4z"
					/>
				<path class="st1" d="M228,48c-8.3-1.7-27.5,2.4-31.8,2.9c-2.5,0.3-3.7,3.4-1.1,3c9.8-1.3,5.3,11.4,5.3,11.4L228,48z"/>
				<path class="st1" d="M252,66.5c5.7-7,7.3-8.7,6.5-12c-0.8-3.3-24.2-6.3-24.2-6.3L252,66.5z"/>
				<path class="st1" d="M280.4,201.4c-11.7-36.2-25.4-86.4-25.4-86.4s2.9-46.7-7-60c-9.8-13.3-47.2-9-51.6-2.5
					c-4.7,6.8-2.7,41.1-3,48.7c-0.1,2.5,8.8,12.5,9.1,14.5c0.8,5-0.3,10.7-0.3,10.7s-22.8,54.6-22.8,68
					C195,194.5,280.4,201.4,280.4,201.4z"/>
				<path class="st3" d="M237.6,99.5c0.8-11.1-2.4-41.3-21.7-38.6c-19.2,2.7-22.6,19.7-21.9,36.7S237.6,99.5,237.6,99.5z"/>
				<path class="st1" d="M197.3,98c11.2-5.7,14-28.5,13.5-21.9c-0.4,6.6,0.2,18.1,2.3,23.4L197.3,98z"/>
				<path class="st4" d="M206.3,100.8c16.3,0,28.4,3.7,33.6-3.3c3.1-4.1,4.7-47.2,8.2-42.4c9.8,13.3,8.9,59.1,8.9,59.1
					s20.5,47.9,27.5,96.9c0,0-5.2-11.8-30.3-13.6c-6.1-79.6-50.1-63.5-59.8-51.2c4.3-11.2,7.3-19.8,7.3-19.8s1.1-5.7,0.3-10.7
					C201.7,113.8,200.8,100.8,206.3,100.8z"/>
				<path class="st2" d="M213.9,115.2c0.6,10.3-1.7,16.1-5.2,15.7c-6-0.8-7.2-17.1-7.2-17.1l6.8-1.4L213.9,115.2z"/>
				<path class="st5" d="M206.3,122.5c2.1-0.4,4.3,1.6,6.1,4c-0.8,2.7-2.1,4-3.8,3.8c-2.1-0.3-3.5-2.8-4.4-5.6
					C204.5,123.5,205.2,122.7,206.3,122.5z"/>
				<path class="st6" d="M234.7,95c7.2,3.6,7.9,17.7,4.6,21.3s-18.7,8.9-23,6.5c-4.3-2.4-12-8.9-12.7-10.5c-0.7-1.6-2.2-7.6-0.9-8.9
					C204.1,102,231.6,93.4,234.7,95z"/>
				<path class="st7" d="M231.1,96.3c5.1,2.4,5.6,11.4,3.3,13.6c-2.3,2.2-13.3,5.5-16.3,3.9c-3-1.6-8.5-5.8-9-6.8
					c-0.5-1-1.5-4.9-0.6-5.7C209.4,100.6,228.9,95.3,231.1,96.3z"/>
				<path class="st6" d="M192.8,97.2c-5.4,2.2-6.8,15.2-3.8,20.6c2,3.7,7,5,10.5,3.9c3.2-1,8.6-8.1,9-9.7c0.4-1.6,1.7-7.4,0.8-8.8
					C208.5,102,195.1,96.2,192.8,97.2z"/>
				<path class="st7" d="M192.4,97.8c-4.3,1.6-5.3,10.8-3,14.6c1.6,2.6,5.5,3.5,8.3,2.8c2.5-0.7,6.8-5.7,7.1-6.8
					c0.3-1.1,1.3-5.3,0.6-6.2C204.8,101.2,194.2,97.1,192.4,97.8z"/>
				<path class="st8" d="M202.7,105.5c5.7-0.2,10.5-5.2,9.8-6.6c-0.6-1.4-14-2.4-15.6-0.7C196.3,99,200.8,105.5,202.7,105.5z"/>
				<path class="st2" d="M195.2,93c0.5-2.7,2-6.9,3.8-6.5c1.8,0.4,2.5,4.4,2.7,5.8c0,0-1.1-2.5-2.9-2.6
					C196.9,89.5,195.2,93,195.2,93z"/>
				<path class="st2" d="M215.5,91.9c0.5-2.7,2.3-6.8,4.5-6.4c2.2,0.4,3.1,4.5,3.4,5.9c0,0-1.4-2.5-3.6-2.7
					C217.6,88.4,215.5,91.9,215.5,91.9z"/>
				<path class="st1" d="M279.8,120.7c0.1-6.3-15.7-62.7-22.1-67l-13.2-2c0,0,4.9,81.7,9.3,89C258.1,147.9,279.6,131.5,279.8,120.7z
					"/>
				<path class="st3" d="M257.1,55.9c1.9,1.3,4.8,8.1,7.8,16.6c-0.5,19.9-5.2,35.4-10.8,35.4c-1.5,0-2.9-1.1-4.2-3.1
					c-2.2-22-3.9-50.5-3.9-50.5L257.1,55.9z"/>
			</g>
			<path class="st9" d="M161.9,309.1h-14.3c-2.6,0-4.7-2.1-4.7-4.7l-3.9-26.9c0-2.6,2.1-4.7,4.7-4.7h22.2c2.6,0,4.7,2.1,4.7,4.7
				l-3.9,26.9C166.6,307,164.5,309.1,161.9,309.1z"/>
			<path class="st1" d="M177.4,162.9c11,10.1,15.1,15.3,20.5,11c5.4-4.4,10.7-8.3,7-11.6c-3.7-3.4-25.2-21.4-31.1-13.8
				C168.6,155.1,177.4,162.9,177.4,162.9z"/>
			<path class="st4" d="M175.3,167.7c11,9.2,15.1,14,20.5,10c5.4-4,1.6-11.3-2.1-14.4c-3.7-3.1-16.1-15.7-22-8.8
				C166.6,160.6,175.3,167.7,175.3,167.7z"/>
			<path class="st1" d="M265.6,163c-4.4-9-5.5-13.2-12.1-12c-6.6,1.2-7.3,7-5.7,10c1.5,3,5.4,14.6,13.9,11.6
				C269.3,170,265.6,163,265.6,163z"/>
			<path class="st9" d="M258.3,309.1H244c-2.6,0-4.7-2.1-4.7-4.7l-3.9-26.9c0-2.6,2.1-4.7,4.7-4.7h22.2c2.6,0,4.7,2.1,4.7,4.7
				l-3.9,26.9C262.9,307,260.8,309.1,258.3,309.1z"/>
			<path class="st10" d="M286.5,232.3c0,40-38.2,72.5-85.3,72.5s-85.3-32.5-85.3-72.5c0-40,29.2-74.9,85.3-74.9
				C257.4,157.4,286.5,192.2,286.5,232.3z"/>
			<path class="st10" d="M139,269.3l-13.1-0.1c-11.4,0.5-16.4-2.6-18.6-10.6l-7.2-26.4c-1.5-5.4,1.7-11,7.1-12.5l16.3-4.4
				c8-2.2,16.4,2.6,18.6,10.6l6.7,23.2C151,257.1,147.1,267.1,139,269.3z"/>
			<path class="st10" d="M166.4,172c-0.2-0.2-23.1-18.9-49-9.5c-0.3,0.1-0.5,0.4-0.5,0.7c0,0.3-3,29.7,25.4,44.5
				c0.1,0.1,0.2,0.1,0.4,0.1c0.3,0,0.5-0.1,0.7-0.3l23.2-34.4C166.8,172.8,166.7,172.3,166.4,172z"/>
			<path class="st10" d="M296.6,197c-1.8-0.6-3.6,0.1-4.6,1.8c-5,8.3-13.9,9.8-17.7,10.5c-1.4,0.3-2,0.4-2.7,0.9
				c-0.7,0.6-1,1.7-0.7,2.6l6.2,18.2c0.2,0.6,0.7,1.1,1.3,1.4c0.3,0.1,0.6,0.2,1,0.2c0.3,0,0.6-0.1,0.9-0.2
				c15.4-6.2,18.6-22.3,19.1-31.3C299.6,199.2,298.4,197.6,296.6,197z"/>
			<circle class="st2" cx="146.5" cy="215.2" r="5.1"/>
			<g>
				<path class="st2" d="M225.9,178.1c-25.3-8.6-48.2-0.1-48.4,0l-2.5-6.6c1-0.4,25.5-9.4,53.2,0L225.9,178.1z"/>
			</g>
			<path class="st9" d="M140.1,282.8c15.5,13.5,37.1,21.9,61.1,21.9c46.2,0,83.9-31.3,85.2-70.3C239.7,297,170.5,289.3,140.1,282.8z
				"/>
			<path class="st11" d="M103.3,234.5c0,0-4.6-11.7,13.6-14.7C116.9,219.8,106.4,225,103.3,234.5z"/>
			<path class="st11" d="M119.6,165.2c0,0,6.7-3.7,12.1-2.7c0,0-8.4,6.9-5,27.7C126.8,190.2,119.6,178.8,119.6,165.2z"/>
			<path class="st12" d="M199.1,174.3c7.8-0.3,17.1,0.5,26.7,3.8l2.3-6.7L199.1,174.3L199.1,174.3z"/>
			<path class="st13" d="M182.3,179.8c-9.7,1.7-14.1-6.7-13.8-12.1c0.1-1.9-0.1-5.6,0.3-9.6l22.6-0.2
				C191,172,191.5,178.2,182.3,179.8z"/>
			<path class="st13" d="M244.5,186.1c-10.8-4.3-8-12.2-5.1-17c1-1.7,2.7-5.2,5-8.7l18,17.7C255.1,190.8,249.5,188.1,244.5,186.1z"
				/>
			<path class="st1" d="M185.9,156.9c-1.4,13.8-0.7,19.8-9.5,21.3c-8.7,1.5-12.2-5.8-11.6-10.5c0.5-4.7,0-21.6,11.9-21.6
				C187.3,146.1,185.9,156.9,185.9,156.9z"/>
			<path class="st3" d="M238.9,161.1c0.3,13.8-0.9,19.8,8.4,21.3c9.3,1.5,13.6-5.8,13.5-10.5c-0.2-4.7,1.8-21.6-11-21.6
				C238.3,150.3,238.9,161.1,238.9,161.1z"/>
		</g>
		<g>
			<path class="st14" d="M226.5,255.3c-4.2,5.4-9.3,9-17.3,9c-11.4,0-19.4-7.3-22.4-18.3h-4.2c-1.8,0-3.3-1.5-3.3-3.3
				c0-1.8,1.5-3.3,3.3-3.3h3c-0.1-0.9-0.1-1.9-0.1-2.9c0-1.2,0-2.4,0.2-3.5h-3.1c-1.8,0-3.3-1.5-3.3-3.2c0-1.9,1.5-3.3,3.3-3.3h4.3
				c3-10.4,10.9-17.9,21.9-17.9c8.2,0,13.1,3.2,17.1,7.9c0.6,0.6,1.2,1.8,1.2,3.2c0,2.5-2.1,4.5-4.6,4.5c-1.6,0-2.7-0.8-3.3-1.5
				c-2.9-3.5-5.9-5.5-10.7-5.5c-5.5,0-9.7,3.6-11.9,9.4h13.7c1.8,0,3.2,1.5,3.2,3.3c0,1.8-1.5,3.2-3.2,3.2h-15.2
				c-0.2,1.1-0.2,2.2-0.2,3.4c0,1.1,0,2.1,0.1,3.1h15.3c1.8,0,3.2,1.5,3.2,3.3c0,1.8-1.5,3.3-3.2,3.3h-13.9
				c2.2,6.2,6.6,9.8,12.6,9.8c4.6,0,7.6-2.2,10.6-5.9c0.8-0.9,1.9-1.5,3.3-1.5c2.3,0,4.2,1.9,4.2,4.2
				C227.5,253.7,227,254.7,226.5,255.3z"/>
		</g>
	</g>
</g>
</svg>
